<svg width="843" height="207" viewBox="0 0 843 207" fill="none" xmlns="http://www.w3.org/2000/svg">
<g clip-path="url(#clip0_8_175)">
<path fill-rule="evenodd" clip-rule="evenodd" d="M3.45007 101.1C11.7601 115.93 25.9101 124.38 41.2101 130.33C63.2901 119.33 86.0301 109.02 107.6 97.0299C117.6 91.4899 122.79 83.5199 131.38 76.7499C137.68 71.7499 145.29 68.7499 152.98 66.7499C172.15 61.6599 192.98 61.6299 212.62 60.0099C233.46 58.2899 254.62 55.0099 274.82 62.1099C275.211 62.2397 275.545 62.4986 275.769 62.844C275.992 63.1893 276.092 63.6006 276.05 64.0099C276.341 64.1528 276.587 64.3714 276.764 64.6426C276.941 64.9139 277.041 65.2278 277.054 65.5513C277.068 65.8748 276.994 66.1959 276.84 66.4808C276.686 66.7656 276.458 67.0037 276.18 67.1699C271.775 69.2477 268.161 72.6965 265.88 76.9999C264.162 80.9248 263.198 85.1383 263.04 89.4199C262.41 90.2099 262.77 91.6299 261.58 92.3599C255.45 96.1399 244.91 87.5399 246.79 100.99C246.856 101.26 246.86 101.54 246.804 101.812C246.747 102.084 246.631 102.339 246.463 102.56C246.296 102.782 246.081 102.963 245.835 103.091C245.589 103.218 245.317 103.29 245.04 103.3C236.14 102.86 232.16 109.41 225.18 113.03C221.26 115.03 218.45 115.18 214.18 115.65C209.67 116.16 203.7 116 199.89 119.39C201.26 118.17 196.82 124.24 196.75 124.31C194.514 126.725 191.576 128.377 188.35 129.03C184.2 130.03 180.55 128.88 176.51 128.89C165.51 128.89 158.38 133.03 149.43 138.49C138.57 145.12 126.19 147.24 113.67 146.14C113.301 146.107 112.952 145.96 112.67 145.72L95.4201 144.12C95.3792 144.239 95.3255 144.353 95.2601 144.46C108.153 146.554 121.154 147.926 134.2 148.57C182.03 150.94 229.82 144.48 276.54 134.68C295.9 130.68 315.18 126 334.45 121.21C334.246 121.113 334.066 120.969 333.926 120.792C333.786 120.614 333.689 120.406 333.643 120.184C333.596 119.962 333.601 119.733 333.658 119.514C333.715 119.294 333.822 119.091 333.97 118.92C344.49 104.85 355.19 90.6399 368.44 78.9899C374.802 73.4669 381.963 68.939 389.68 65.5599L389.77 65.2799C389.808 65.1477 389.879 65.0275 389.977 64.9308C390.075 64.8342 390.196 64.7644 390.329 64.7282C390.461 64.6921 390.601 64.6907 390.735 64.7243C390.868 64.7578 390.99 64.8252 391.09 64.9199C398.47 61.6399 406.16 58.9199 414.43 55.4199C428.93 49.2399 432.96 30.1499 449.55 27.9599C462.67 26.2299 471.3 30.7599 481.79 19.6299C487.69 13.3599 492 6.22994 498.79 0.769938C499.79 -0.0200617 501.54 0.0999383 501.85 1.58994C505.44 19.0099 503.67 36.8299 495.41 52.7599C486.04 70.8999 470.04 80.7499 454.95 92.9599C471.31 89.8399 487.74 87.1899 504.28 85.2599C504.253 85.0059 504.293 84.7491 504.396 84.5156C504.5 84.282 504.663 84.08 504.87 83.9299C525.418 67.5145 549.729 56.4724 575.61 51.7999C591.54 48.7999 605.7 45.6499 620.72 39.3599C625.21 37.4699 629.46 35.7199 634.31 34.9099C642.25 33.5899 652.31 35.9099 657.62 28.0599C657.828 27.7146 658.142 27.446 658.515 27.2946C658.888 27.1431 659.301 27.1169 659.69 27.2199C670.92 31.8199 682.23 37.6499 693.84 41.2199C706.23 45.0299 711.84 37.9499 722.57 33.8399C738.86 27.6299 756.35 29.7599 771.45 37.9799C771.746 38.1674 771.983 38.4352 772.133 38.7521C772.283 39.069 772.34 39.4219 772.297 39.7698C772.254 40.1177 772.113 40.4462 771.89 40.7171C771.668 40.988 771.373 41.1901 771.04 41.2999C746.04 46.4599 733.38 71.2999 711.54 82.2999C689.7 93.2999 663.9 91.7999 640.11 90.1999C637.77 90.0499 637.75 86.3799 640.11 86.5499C668.33 88.4499 698.42 89.7399 721.87 71.2299C735.54 60.4499 746.48 46.2299 762.72 39.9699C727.05 41.6699 694.59 56.3699 660.57 65.8499C630.65 74.1799 599.19 77.5499 568.38 81.8499C607.23 82.5699 645.66 88.9699 681.91 103.08C713.91 95.3899 745.13 112.48 774.65 122.99C799.92 131.99 825.31 141.75 841.93 163.89C842.089 164.169 842.172 164.485 842.171 164.806C842.17 165.128 842.085 165.443 841.924 165.721C841.763 165.999 841.532 166.23 841.254 166.391C840.977 166.553 840.661 166.638 840.34 166.64C813.12 163.28 777.2 185.38 753.5 163.36C745.95 156.36 744.5 151.55 736.5 148.66C736.441 148.807 736.343 148.935 736.217 149.03C736.091 149.125 735.941 149.184 735.783 149.201C735.626 149.217 735.467 149.191 735.324 149.123C735.18 149.056 735.058 148.951 734.97 148.82C734.79 148.53 734.6 148.27 734.42 148C732.449 147.449 730.445 147.021 728.42 146.72C722.68 145.86 718.42 145.59 713.35 142.35C702.22 135.3 694.04 121.3 688.04 109.39C685.97 108.5 683.89 107.63 681.81 106.8C681.548 106.829 681.283 106.794 681.037 106.699C680.792 106.603 680.573 106.449 680.4 106.25C640.12 90.3699 599.67 84.2999 559.04 84.4999C584.63 89.4999 611.66 89.3399 634.44 103.61C653.04 115.3 666.34 133.15 673.04 153.96C673.168 154.358 673.134 154.79 672.947 155.164C672.76 155.537 672.435 155.823 672.04 155.96C671.932 156.04 671.804 156.088 671.67 156.1C671.235 156.223 670.771 156.187 670.36 156C647.36 144.51 625.52 169 602 160.3C593.9 157.3 587.24 151.58 580.26 146.71C567.1 137.52 558.09 136.78 542.08 139.09C532.22 140.51 525.89 139.23 516.58 135.94C504.92 131.83 493.06 131.04 480.96 128.94C461.08 125.47 443.72 115.73 429.75 101.27C429.75 101.27 429.75 101.2 429.68 101.17C354.54 117.69 279.04 141.6 203.53 149.79C212.997 151.203 222.477 152.477 231.97 153.61C231.47 152.75 232.83 151.98 233.44 152.83C233.69 153.18 233.96 153.52 234.21 153.83C260.08 156.83 286.04 159.17 311.94 162.07C311.965 161.92 312.029 161.78 312.127 161.664C312.225 161.548 312.353 161.461 312.497 161.411C312.64 161.362 312.794 161.353 312.943 161.384C313.091 161.416 313.229 161.487 313.34 161.59C313.61 161.85 313.91 162.07 314.19 162.32C320.77 163.06 327.36 163.84 333.93 164.7C354.158 167.226 374.246 170.764 394.12 175.3C407.65 178.48 423.12 181.63 436.66 187.16C390.66 157.16 334.25 148.95 280.49 141.85C278.19 141.54 278.16 137.85 280.49 138.19C341.84 146.3 406.11 155.79 455.44 196.3C456.9 197.5 455.32 199.82 453.66 199.36C432.66 193.54 416.55 198.55 396.56 204.27C391.93 205.59 386.9 206.91 382.02 206.33C375.9 205.61 372.76 201.54 367.46 199.33C358.41 195.61 350.53 203.22 340.66 199.73C338.03 198.8 334.58 196.22 331.8 195.92C326.75 195.4 322.11 199.23 317.98 200.02C315.22 200.54 314.19 200.97 311.59 200.43C306.84 199.43 302.45 195.86 298.32 193.43C295.11 191.56 291.63 188.98 288.19 187.5C283.523 184.32 278.093 183.843 271.9 186.07L269.79 187.95C259.85 189.27 250.64 186.48 240.54 184.32C219.62 179.86 186.83 177.68 182.98 151.53C160.826 153.145 138.577 152.925 116.46 150.87C91.4601 148.43 66.3701 143.48 42.7701 134.78C25.5101 128.49 9.51007 119.42 0.290069 102.95C-0.869931 100.88 2.29007 99.0399 3.45007 101.1ZM337.31 120.51C350.59 117.2 363.87 113.84 377.16 110.51C383.65 105.42 381.67 95.0099 383.36 87.5099C384.75 81.3499 386.69 75.2899 388.53 69.2299C367.4 81.1299 351.83 101.12 337.31 120.51ZM390.66 68.1799C387.66 78.3499 384.47 88.3399 383.66 98.9999C383.34 103.24 382.71 106.77 380.3 109.75C387.34 108.003 394.383 106.287 401.43 104.6C405.43 96.3099 408.35 88.5999 407.98 79.1699C407.742 73.1624 407.956 67.1454 408.62 61.1699L405.14 62.1699C400.132 63.7045 395.283 65.7171 390.66 68.1799ZM410.38 60.5999C409.56 69.1299 410.49 77.5999 409.62 86.0499C408.96 92.4599 406.32 98.3499 403.55 104.05H403.77C403.786 103.902 403.846 103.762 403.942 103.648C404.039 103.534 404.167 103.451 404.31 103.41C410.201 101.642 415.948 99.4256 421.5 96.7799C427.99 87.5199 431.21 80.1299 429.09 68.7799C427.985 63.2218 427.253 57.5959 426.9 51.9399C422.1 56.3999 416.56 58.6299 410.38 60.5999ZM442.92 33.7099C436.92 36.4499 433.52 44.4199 429.39 49.2799C429.11 49.6199 428.82 49.8799 428.53 50.1899C428.93 59.3899 432.34 68.5399 431.93 77.6399C431.65 84.1599 428.31 89.8499 424.7 95.1199C431.048 91.8754 437.104 88.0879 442.8 83.7999C450.94 66.5399 452.06 50.6999 450.55 31.9899C447.92 32.065 445.328 32.6491 442.92 33.7099ZM486.7 19.4699C481.87 25.1999 476.56 30.4699 468.95 32.0199C463.44 33.0999 457.8 31.9199 452.23 31.9299C453.7 50.0499 452.65 65.1999 445.58 81.6299C469.28 62.7199 486.19 35.8399 497.46 6.85994C497.414 6.86498 497.367 6.86498 497.32 6.85994C493.98 7.46994 488.69 17.0999 486.7 19.4699ZM478.92 68.9999C490.9 56.2999 498.78 40.8999 500.04 23.2999C500.232 20.4639 500.258 17.6191 500.12 14.7799C499.96 11.4699 500.35 8.36994 499.17 7.26994C487.37 37.6299 469.5 65.7199 444.17 84.9399L444.03 85.2399C443.968 85.3886 443.852 85.5088 443.706 85.5771C443.56 85.6455 443.394 85.6572 443.24 85.6099C434.568 92.0789 425.088 97.3871 415.04 101.4C425.87 98.8999 436.71 96.5299 447.59 94.3999C457.82 85.5099 469.54 78.9899 478.92 68.9999ZM510.04 84.6399C521.74 83.3933 533.5 82.5466 545.32 82.0999C545.32 81.9899 545.24 81.8899 545.32 81.7599C547.863 73.3662 552.599 65.8029 559.04 59.8499C541.34 65.0767 524.737 73.4765 510.04 84.6399ZM563.11 58.6399C555.457 64.6056 549.814 72.7717 546.94 82.0399C548.83 81.9799 550.71 81.8599 552.6 81.8199C554.49 81.7799 556.32 81.8199 558.18 81.8199C558.225 81.7481 558.285 81.6869 558.356 81.6403C558.426 81.5937 558.506 81.5629 558.59 81.5499C560.79 81.2199 563 80.9099 565.21 80.5499C570.581 73.552 576.768 67.2205 583.64 61.6899C589.09 57.3499 595.25 54.1499 601.07 50.4299C594.57 52.0599 588.04 53.2999 581.34 54.4899C575.1 55.6233 569 57.0199 563.04 58.6799L563.11 58.6399ZM648.96 37.2999C645.3 38.0399 641.52 37.7899 637.83 38.2199C629.19 39.2199 622.26 43.0499 614.38 46.2199C611.56 47.3599 608.71 48.3199 605.82 49.2199C599.05 54.1099 591.44 57.6699 584.82 62.9199C578.456 68.0467 572.693 73.8772 567.64 80.2999C579.83 78.5899 592.11 76.9699 604.36 75.1799C604.36 75.0899 604.36 74.9999 604.36 74.8899C608.56 66.3399 618.92 61.5899 626.46 56.3799L659.9 33.2299C656.24 34.1299 653.59 36.3499 648.96 37.2999ZM719.87 38.9799C713.78 41.8999 708.67 46.9099 701.57 46.9799C695.34 47.0699 688.7 43.0299 683.11 40.7399C682.42 40.4599 681.65 40.0999 680.84 39.7399C676.53 46.8599 671.28 54.1699 668.11 61.8599C699.63 52.2999 730.22 39.6599 763.49 38.2999C749.49 32.5199 733.94 32.2999 719.87 38.9699V38.9799ZM665.04 62.7999L666.04 62.4799C666.04 62.4799 666.04 62.4099 666.04 62.3699C669.21 54.1499 674.76 46.5299 679.34 38.9499C674.34 36.3999 667.95 32.8299 663.6 32.7499C663.052 32.7483 662.505 32.7784 661.96 32.8399C662.072 33.0275 662.109 33.2508 662.063 33.4644C662.016 33.678 661.89 33.8659 661.71 33.9899L634.19 53.0399C625.64 58.9599 611.62 65.4899 606.38 74.8499C626.19 71.9199 645.91 68.4299 665.04 62.7999ZM829.69 155.39C824.316 150.455 818.37 146.182 811.98 142.66C799.92 135.83 786.74 131.16 773.72 126.53C748.53 117.53 721.49 103.22 694.2 104.93L834.4 160C833.37 158.35 830.51 156.2 829.65 155.39H829.69ZM828.26 162.39C831.26 162.24 833.71 163.06 834.49 161.84L752.09 129.5C757.73 133.99 761.97 139.8 766.36 145.69C772.31 153.69 780.97 160 784.94 169.24C785.48 169.24 785.94 169.24 786.51 169.24C800.6 168.18 814.04 163.08 828.22 162.4L828.26 162.39ZM747.33 150.48C758.4 161.98 766.87 169.43 783.14 169.25C779.47 161.19 771.76 155.51 766.45 148.55C760.45 140.67 755.29 132.55 746.45 127.55C746.281 127.449 746.156 127.289 746.1 127.1C727.667 119.9 709.253 112.68 690.86 105.44C690.77 105.44 690.76 105.33 690.7 105.29L690.04 105.36C690.103 105.47 690.159 105.584 690.21 105.7C707.839 114.558 722.882 127.82 733.88 144.2C738.69 144.86 742.7 145.71 747.29 150.49L747.33 150.48ZM726.33 142.99C728.26 143.42 730.02 143.67 731.68 143.88C722.102 129.992 709.526 118.434 694.88 110.06C694.744 110.411 694.511 110.717 694.208 110.942C693.906 111.166 693.546 111.301 693.17 111.33C700.55 125.24 710.49 139.54 726.29 143L726.33 142.99ZM625.47 102.76C603.2 91.6499 577.47 92.4599 553.57 87.0899C553.31 87.0332 553.068 86.9151 552.862 86.7456C552.657 86.5761 552.496 86.3601 552.391 86.1155C552.286 85.8709 552.242 85.6049 552.261 85.3395C552.28 85.0742 552.362 84.8172 552.5 84.5899C529.741 85.1509 507.045 87.2221 484.56 90.7899C484.56 90.7899 484.62 90.8399 484.64 90.8899C510.72 94.6899 537.44 94.3899 563.64 97.1299C563.757 97.0262 563.901 96.958 564.055 96.9332C564.209 96.9083 564.367 96.9281 564.51 96.9899C564.73 97.0899 564.92 97.2099 565.14 97.3099C576.807 98.4681 588.359 100.582 599.68 103.63C621.56 109.73 648.62 123.02 664.24 142.23C655.973 125.193 642.356 111.331 625.47 102.76ZM613.81 158.87C633.12 159.14 649.24 144.69 668.13 151.15C667.94 150.64 667.75 150.15 667.55 149.62C650.97 122.95 613.39 107.31 584.7 101.9C579.7 100.96 574.75 100.24 569.76 99.6199C593.347 111.569 611.252 132.361 619.57 157.46C619.92 158.46 618.29 158.94 617.94 157.91C613.645 144.977 606.719 133.073 597.598 122.948C588.476 112.823 577.357 104.696 564.94 99.0799C554.13 97.8999 543.26 97.1899 532.37 96.5799C551.592 105.719 567.229 120.99 576.82 139.99C588.73 147.48 598.88 158.66 613.81 158.87ZM564.58 134.4C567.847 135.293 570.988 136.593 573.93 138.27C564.186 120.273 548.86 105.927 530.26 97.3899C530.165 97.3549 530.079 97.2991 530.009 97.2266C529.938 97.1541 529.884 97.0668 529.852 96.9709C529.819 96.8751 529.808 96.7732 529.82 96.6727C529.832 96.5722 529.866 96.4756 529.92 96.3899C523.873 96.0633 517.823 95.6933 511.77 95.2799C513.77 98.4599 520.13 102.01 522.71 104.36C526.036 107.433 529.1 110.778 531.87 114.36C536.72 120.667 540.671 127.616 543.61 135.01C543.656 135.146 543.656 135.294 543.61 135.43C550.53 134.2 557.25 132.49 564.58 134.4ZM542.19 135.69C542.12 135.61 542.02 135.58 541.98 135.46C538.226 126.04 532.769 117.392 525.88 109.95C522.802 106.678 519.457 103.667 515.88 100.95C513.68 99.2899 510.99 98.1099 509.88 95.5199C509.83 95.4099 509.88 95.2999 509.88 95.1999C501.62 94.5999 493.39 93.7899 485.2 92.6199C488.2 102.33 499.34 108.11 505.98 115.32C510.98 120.71 516.8 126.45 519.08 133.58C524.08 135.18 529.08 136.48 534.19 136.46C536.873 136.415 539.548 136.157 542.19 135.69ZM499.19 127.69C505.19 128.63 511.1 130.91 517.07 132.91C513.61 123.77 503.86 114.67 496.66 108.58C490.89 103.7 485.27 99.8299 483.37 92.3799C482.88 92.2999 482.37 92.2599 481.9 92.1799C481.799 92.1687 481.703 92.1351 481.616 92.0817C481.53 92.0282 481.457 91.9562 481.403 91.8709C481.348 91.7856 481.313 91.6891 481.301 91.5886C481.288 91.4881 481.298 91.3861 481.33 91.2899C470.99 92.9299 460.657 94.7866 450.33 96.8599L449.78 97.3199C449.469 97.5981 449.072 97.7608 448.655 97.7808C448.238 97.8009 447.827 97.677 447.49 97.4299C443 98.3399 438.49 99.2699 434.02 100.24C452.85 118.92 473.52 123.67 499.16 127.7L499.19 127.69ZM397.88 200C404.09 198 410.07 195.52 416.48 194.16C426.352 192.108 436.533 192.043 446.43 193.97C446.14 193.76 445.86 193.52 445.56 193.31C428.16 183.57 405.37 179.39 386.27 175.25C375.81 172.98 365.27 171.09 354.72 169.43C368.148 176.094 378.604 187.53 384.04 201.5C388.708 201.988 393.425 201.476 397.88 200ZM317.88 195.52C320.38 194.68 321.64 192.05 324.7 191.44C332.17 189.93 337.92 196.52 344.86 197.44C356.71 198.97 358.45 189.71 369.29 196.26C373.199 198.705 377.53 200.401 382.06 201.26C379.088 193.941 374.666 187.3 369.06 181.735C363.454 176.171 356.78 171.798 349.44 168.88C349.31 168.88 349.26 168.72 349.18 168.63C339.047 167.11 328.893 165.777 318.72 164.63L316.45 164.37C328.39 174.25 343.03 179.04 350.82 193.61C351.33 194.56 349.88 195.42 349.36 194.46C341.36 179.46 325.5 174.8 313.48 164.05C301.72 162.72 289.95 161.51 278.18 160.32C282.18 166.11 287.96 170.11 292.95 175.07C297.67 179.75 300.35 185.33 302.75 191.46C302.801 191.58 302.814 191.713 302.789 191.841C302.764 191.969 302.702 192.087 302.61 192.18C307.53 194.98 312.86 197.2 317.9 195.52H317.88ZM271.88 181.14C280.59 177.96 286.37 182.28 294.08 186.79C296.08 187.98 298.36 189.5 300.74 190.97C297.992 183.806 293.496 177.442 287.66 172.46C283.28 168.65 279.01 164.97 275.91 160.03C262.46 158.67 249.01 157.28 235.57 155.71C237.697 158.781 240.155 161.608 242.9 164.14C246.73 167.47 251.38 169.14 255.66 171.71C260.188 174.503 263.776 178.589 265.96 183.44C267.71 182.84 269.46 182.03 271.89 181.14H271.88ZM236.42 179.79C243.12 181.22 249.95 183.25 256.74 184.13C259.267 184.556 261.852 184.481 264.35 183.91C262.487 179.825 259.544 176.326 255.84 173.79C252.2 171.35 247.98 169.95 244.38 167.43C239.86 164.25 236.47 159.88 233.25 155.43C221.06 153.99 208.89 152.43 196.76 150.48C193.37 150.8 189.97 151.09 186.58 151.34C189.86 173.76 218.79 176.02 236.43 179.79H236.42ZM104.64 102.6C85.5501 112.3 66.4001 121.79 47.2801 131.37C54.0901 133.21 60.9401 134.87 67.8001 136.44C67.8927 136.36 68.0021 136.302 68.1201 136.27C81.8948 134.778 95.5152 132.102 108.83 128.27C108.9 128.18 108.91 128.07 109.03 128C112.03 126.256 114.586 123.84 116.496 120.943C118.406 118.045 119.619 114.745 120.04 111.3C120.61 107.3 120.1 103.17 120.79 99.1399C121.456 95.4238 122.856 91.8778 124.91 88.7099C119.04 95.2099 112.48 98.6499 104.64 102.6ZM150.1 71.3599C142.801 73.7556 136.126 77.7453 130.56 83.0399C130.705 83.1861 130.787 83.3838 130.787 83.5899C130.787 83.7961 130.705 83.9938 130.56 84.1399C125.804 88.9531 122.836 95.248 122.15 101.98C121.74 106.2 122.38 110.44 121.37 114.61C120.115 119.478 117.306 123.803 113.37 126.93C121.123 124.617 128.79 122.047 136.37 119.22C145.59 109.6 144.29 98.0099 148.93 86.2199C151.543 79.7397 155.334 73.7995 160.11 68.6999C156.727 69.4014 153.385 70.2895 150.1 71.3599ZM183.1 66.0199C175.356 78.1343 170.384 91.8104 168.54 106.07C175.653 102.957 182.75 99.8033 189.83 96.6099C189.83 96.5299 189.83 96.4699 189.83 96.3899C193.943 85.9916 197.407 75.3478 200.2 64.5199C194.58 64.8699 188.88 65.1899 183.2 65.6199C183.224 65.7563 183.203 65.8966 183.14 66.0199H183.1ZM166.71 106.86C168.474 92.2479 173.46 78.2099 181.31 65.7599C175.183 66.2355 169.085 67.0265 163.04 68.1299C153.748 77.4109 148.032 89.6754 146.9 102.76C146.26 110.12 144.52 113.35 140.4 117.69C149.24 114.29 158.023 110.68 166.75 106.86H166.71ZM209.99 63.8599C207.323 64.0799 204.657 64.2699 201.99 64.4299C199.264 75.0483 195.895 85.4909 191.9 95.6999C198.227 92.8466 204.56 90.0266 210.9 87.2399C210.9 87.2399 210.9 87.1799 210.9 87.1299C213.172 78.7035 216.413 70.5691 220.56 62.8899C217.04 63.2299 213.52 63.5599 210.04 63.8499L209.99 63.8599ZM227.75 80.0799C230.71 73.9333 233.667 67.7866 236.62 61.6399C231.92 61.8999 227.21 62.2799 222.52 62.7199C218.39 70.2121 215.145 78.1587 212.85 86.3999C217.83 84.2333 222.81 82.1233 227.79 80.0699L227.75 80.0799ZM238.53 61.5599C235.717 67.4066 232.903 73.2599 230.09 79.1199C243.405 73.5999 257.008 68.8029 270.84 64.7499C260.33 61.6299 249.48 61.0699 238.57 61.5499L238.53 61.5599ZM143.53 137.56C150.16 134.28 154.96 127.74 161.53 124.75C165.16 123.1 166.7 123.29 170.36 123.61C174.02 123.93 177.13 125.8 180.9 125.67C189.23 125.35 192.36 118.3 198.66 114.6C207.01 109.71 215.9 113.37 224.72 108.96C229.05 106.79 233.92 103.13 237.95 100.43C243.17 96.9299 242.22 99.6199 242.65 91.1099C242.658 90.627 242.853 90.166 243.195 89.8245C243.536 89.483 243.997 89.2877 244.48 89.2799L252.99 89.7199C258.277 89.8533 260.553 87.7199 259.82 83.3199C260.56 82.0599 260.52 80.1599 261.07 78.6899C262.869 73.9212 266.012 69.7769 270.12 66.7599C224.35 80.0299 182.04 103.84 137.53 120.53L136.8 121.24C136.65 121.39 136.447 121.474 136.235 121.474C136.023 121.474 135.82 121.39 135.67 121.24C115.13 128.83 94.0801 134.79 71.9901 137.48C77.9001 138.79 83.8501 139.96 89.8001 141.07C89.9231 140.758 90.1484 140.497 90.4391 140.33C90.7298 140.163 91.0686 140.099 91.4001 140.15L114.56 142.3C114.888 142.334 115.199 142.459 115.46 142.66C125.15 143.21 134.76 141.91 143.59 137.52L143.53 137.56Z" fill="#8D7A33"/>
</g>
<defs>
<clipPath id="clip0_8_175">
<rect width="842.16" height="206.19" fill="white" transform="translate(0.0400391 0.300049)"/>
</clipPath>
</defs>
</svg>
