<svg width="280" height="580" viewBox="0 0 280 580" fill="none" xmlns="http://www.w3.org/2000/svg">
<path fill-rule="evenodd" clip-rule="evenodd" d="M5.38069 444.828C12.0695 431.85 21.7519 425.303 31.4518 420.81C31.5374 420.796 31.6235 420.796 31.7091 420.81C34.5257 414.585 36.8045 407.739 38.4797 400.472C38.5661 400.083 38.7343 399.76 38.9533 399.561V372.996C36.7962 377.894 33.9369 381.824 30.6333 384.434C29.3252 387.254 27.6019 389.472 25.6283 390.874C23.9211 392.056 21.0678 393.615 19.7113 390.613C18.6531 388.288 19.1793 384.908 20.4363 383.146C22.6289 380.066 26.558 380.705 29.2066 380.337C29.4163 380.314 29.6239 380.417 29.7913 380.628C29.9231 380.474 30.0743 380.373 30.2334 380.331C30.3925 380.289 30.5552 380.307 30.7093 380.385C34.1661 377.259 36.9891 372.512 38.8247 366.74C38.8646 366.655 38.9076 366.574 38.9533 366.497V333.734C38.9097 333.56 38.8873 333.375 38.8873 333.187C38.8873 332.999 38.9097 332.813 38.9533 332.639V281.204C37.4851 286.886 35.6084 292.255 33.3637 297.193C33.372 297.561 33.3065 297.923 33.1774 298.223C33.0484 298.522 32.8631 298.743 32.6504 298.849C32.5803 298.995 32.5159 299.159 32.4458 299.305C32.4709 299.42 32.4866 299.54 32.4925 299.663C32.4458 305.919 31.9546 314.006 29.3528 318.965C27.6572 322.199 24.4414 323.807 22.3833 320.466C19.8809 316.466 21.7577 309.764 23.389 305.88C25.3361 301.273 28.1103 297.8 31.3173 295.954C34.8255 287.925 38.1055 279.49 38.5557 269.301C38.5614 269.042 38.6028 268.789 38.6767 268.56C38.7507 268.332 38.8554 268.135 38.9826 267.984V260.837C37.5267 264.604 35.7493 267.955 33.2702 269.446C32.6152 273.079 31.3571 276.335 29.6393 278.841C28.3121 280.729 26.3475 281.93 25.2249 278.947C24.3187 276.526 24.9384 273.291 25.9382 271.257C27.283 268.526 29.382 267.151 31.3933 266.328C31.6104 266.244 31.8378 266.278 32.0423 266.425C35.0827 265.175 36.8368 260.062 38.2985 255.713C38.3652 255.505 38.4582 255.323 38.5712 255.179C38.6842 255.035 38.8145 254.933 38.9533 254.88V175.901C35.5855 215.212 24.3362 251.927 2.11815 271.403C0.902004 272.468 -0.179664 269.408 1.04233 268.333C1.06305 268.317 1.08266 268.297 1.1008 268.275C1.1008 268.216 1.1008 268.168 1.1008 268.1C1.41068 245.922 2.98933 224.18 10.7773 205.488C14.1451 197.392 18.2145 190.196 22.3366 183.145C27.1778 174.875 36.369 163.108 37.9535 150.992C37.9535 150.827 37.9535 150.663 37.9535 150.498C37.9518 150.233 37.9878 149.971 38.0588 149.733C38.0997 149.297 38.1465 148.861 38.164 148.426C38.1723 148.046 38.2559 147.682 38.4018 147.39C38.5477 147.098 38.7477 146.893 38.9709 146.808V92.5734C38.4668 94.6714 37.8809 96.7127 37.2168 98.6845C33.3637 109.919 22.9154 113.764 15.9167 115.672C15.7582 115.737 15.5929 115.742 15.433 115.688C15.273 115.633 15.1224 115.52 14.9923 115.357C14.8622 115.193 14.7559 114.984 14.6811 114.743C14.6063 114.503 14.565 114.237 14.5603 113.967C14.5603 113.599 14.5603 113.27 14.5603 112.911C14.3694 112.789 14.2022 112.582 14.0764 112.315C13.9505 112.047 13.8708 111.728 13.8456 111.391C13.8205 111.055 13.8508 110.713 13.9334 110.403C14.0159 110.092 14.1477 109.825 14.3147 109.628L14.7006 109.212C15.3379 101.658 18.0333 95.7694 21.6466 90.4041C27.9262 81.1164 33.8081 72.2935 38.9416 61.282V55.2387H39.6959C39.4386 54.8997 39.1814 54.6092 38.9182 54.2702C37.8424 52.895 38.9182 49.8152 39.9999 51.2098C40.5846 51.9362 41.1342 52.6044 41.7072 53.3211H42.3445C42.4291 53.032 42.56 52.787 42.7229 52.6128C42.8858 52.4386 43.0745 52.3419 43.2683 52.3332C49.1773 51.4671 54.9845 49.2408 60.5224 45.7185C62.2834 40.4743 63.7493 34.9727 64.9017 29.2835C64.6991 29.1834 64.5242 28.9685 64.4077 28.6763C64.2912 28.3842 64.2404 28.0334 64.2644 27.6855C64.3871 24.044 63.1535 20.1023 64.1883 16.5771C64.9075 14.1075 66.6089 12.4998 68.2168 13.6716C71.9179 16.2575 69.316 24.9834 67.5444 28.1988C67.4977 28.2956 67.4333 28.3247 67.3807 28.4022C66.3566 33.604 65.0798 38.6598 63.5627 43.5201C70.2447 38.5282 76.3505 31.6459 81.6061 23.1821C81.6303 23.044 81.6636 22.9108 81.7055 22.785C82.73 20.2571 83.6052 17.5717 84.3191 14.766C84.8162 12.5276 85.5842 10.481 86.576 8.75177C88.1195 6.35964 90.5226 5.49769 92.2766 7.7833C94.0307 10.0689 93.6273 14.214 92.2766 16.9063C90.3296 20.8481 87.184 23.2983 84.3541 24.9738C84.2271 25.0583 84.0901 25.0944 83.9535 25.0793C83.8168 25.0642 83.684 24.9983 83.5648 24.8866C81.3551 28.5588 78.991 31.9667 76.4901 35.0847C79.8579 34.9491 83.1205 34.2808 86.1374 31.3367C87.6869 29.8258 89.5871 27.6661 91.3587 29.8355C95.6561 35.1137 87.4705 38.1547 85.0616 38.5518C84.9683 38.7201 84.8542 38.8531 84.7271 38.9417C84.6 39.0302 84.4628 39.0723 84.3249 39.0651H81.9102C81.7259 39.0749 81.5438 38.996 81.3861 38.8378C81.2283 38.6797 81.1017 38.4491 81.0214 38.1741C78.6001 38.643 76.1612 38.8146 73.7246 38.6874C73.6148 38.6781 73.5065 38.6423 73.403 38.5809C66.6981 45.8458 59.235 50.9791 51.3954 53.7182C62.0601 54.0959 72.7774 54.3283 83.4362 55.2193H96.4221C96.5472 54.826 96.7553 54.5226 97.0067 54.367C99.5046 52.6978 101.948 50.8132 104.327 48.7208C105.303 44.2465 106.408 39.8689 107.613 35.5495C107.47 35.4591 107.341 35.3176 107.235 35.1352C107.129 34.9527 107.048 34.7338 106.999 34.4939C104.956 25.5485 104.882 15.6969 106.789 6.66955C106.842 6.38132 106.938 6.11981 107.068 5.909C107.198 5.69818 107.358 5.54479 107.533 5.46288C107.708 5.38097 107.893 5.37315 108.07 5.44014C108.248 5.50714 108.412 5.6468 108.548 5.84634C111.291 10.0011 113.922 14.6498 113.507 21.2451C113.273 24.9447 112.109 28.2278 111.133 31.4819C109.706 36.2275 108.431 41.0408 107.256 45.951C110.957 42.3835 114.466 38.2977 117.746 33.7385C117.826 33.5757 117.923 33.438 118.032 33.3317L118.354 32.8668C121.333 18.6121 127.594 6.88684 135.771 0.248546C135.935 0.0885653 136.121 0.00286299 136.311 7.04955e-05C136.501 -0.002722 136.689 0.077494 136.854 0.232639C137.019 0.387785 137.157 0.612381 137.254 0.883808C137.35 1.15524 137.401 1.46391 137.403 1.77874C137.555 9.87521 137.338 18.2428 133.579 24.1796C129.819 30.1164 124.189 33.6997 119.236 36.3243C117.256 39.0762 115.193 41.6621 113.056 44.0721C121.331 44.0714 129.582 42.6203 137.672 39.743C137.692 39.4738 137.758 39.2196 137.861 39.009C137.965 38.7985 138.101 38.6401 138.256 38.5518C143.827 32.5139 150.426 29.6165 157.071 30.2907C157.35 30.2877 157.619 30.4633 157.822 30.7809C158.025 31.0986 158.145 31.5336 158.159 31.9952C157.498 45.9607 146.822 43.2973 140.501 42.2127C130.634 46.157 120.504 48.0023 110.355 47.7039C110.19 47.6976 110.028 47.628 109.882 47.5005C107.072 50.3778 104.156 52.9621 101.152 55.2387H149.95C158.387 53.0402 166.391 48.4593 174.46 43.9559C177.444 35.5806 181.475 28.359 186.282 22.7753C192.363 15.841 199.543 12.4514 204.817 3.53168C204.987 3.27012 205.203 3.10595 205.433 3.0634C205.664 3.02084 205.897 3.10215 206.097 3.29534C206.298 3.48852 206.455 3.78334 206.547 4.13629C206.639 4.48925 206.659 4.88164 206.606 5.25557C205.273 16.025 203.683 27.2109 198.374 34.6101C191.942 43.5491 182.213 46.8129 174.191 49.021C174.001 49.0765 173.805 49.0465 173.624 48.9341C173.443 48.8216 173.283 48.631 173.162 48.3818C168.759 50.8515 164.351 53.2242 159.878 55.2193H193.392C208.564 50.6344 223.94 48.153 239.36 47.8008C252.1 47.5683 267.425 45.8638 278.844 56.9722C279.797 56.6623 280.516 59.1707 279.522 60.3135C267.086 74.7147 252.165 76.7776 237.384 75.8091C223.351 74.9084 208.588 73.2717 196.655 60.0229C196.181 59.8099 195.713 59.6356 195.24 59.4128C195.149 59.3707 195.069 59.2807 195.012 59.1566C194.955 59.0326 194.924 58.8811 194.924 58.7252H193.48C193.071 58.8414 192.655 58.9382 192.246 59.0641C192.095 59.1152 191.939 59.1113 191.788 59.0528C191.638 58.9943 191.497 58.8825 191.375 58.7252H156.943C159.898 60.0775 162.779 61.84 165.555 63.9937C165.737 63.6948 165.978 63.5129 166.233 63.4804C172.43 62.864 178.65 63.5145 184.75 65.4174C184.852 65.0945 185.025 64.8489 185.233 64.7317C185.441 64.6144 185.668 64.6346 185.867 64.7878C187.767 65.9791 189.96 64.536 191.714 66.5117C192.883 67.8385 193.79 70.4825 193.082 72.7875C192.299 75.3733 190.247 75.2474 188.785 74.8116C186.693 74.1638 184.799 72.3489 183.417 69.669C183.258 69.36 183.165 68.9713 183.154 68.5649C178.472 67.255 173.723 66.7068 168.976 66.9282C173.827 71.4443 178.237 77.1521 182.055 83.8572C182.208 83.6884 182.384 83.5873 182.568 83.5636C182.751 83.5398 182.935 83.5942 183.102 83.7216C186.259 86.0169 198.724 97.4739 192.807 104.776C190.515 107.604 187.715 105.745 185.967 102.578C184.093 99.0016 182.876 94.6132 182.458 89.9295C178.71 82.6343 174.276 76.3881 169.326 71.4316C169.944 74.0882 170.253 76.9139 170.239 79.7605C171.56 82.0364 172.741 84.7966 172.612 88.0991C172.501 90.898 171.385 93.6872 169.689 94.2877C167.993 94.8881 166.181 92.7575 165.52 90.0845C164.702 86.6561 165.596 83.0824 166.818 80.2835C166.918 80.0485 167.052 79.8577 167.207 79.7277C167.361 79.5977 167.533 79.5325 167.707 79.5378C167.685 79.2707 167.708 78.9988 167.775 78.7525C167.841 78.5062 167.947 78.2952 168.081 78.1431C167.941 74.7604 167.268 71.4976 166.128 68.6811C166.106 68.6104 166.088 68.5357 166.076 68.4584C160.758 63.9619 155.029 60.9513 149.12 59.5484C148.974 59.5279 148.835 59.4447 148.715 59.3071C148.595 59.1695 148.498 58.9822 148.436 58.7639H106.444C121.195 62.9284 135.005 71.9158 148.851 81.6587C149.704 81.4166 150.646 82.7628 150.02 84.1477C145.77 93.2708 139.589 95.1109 132.936 95.7694C121.341 96.9606 109.548 97.4449 97.9364 95.905C76.268 92.9996 59.5576 79.4409 42.631 58.7349H41.637C41.7451 58.84 41.8381 58.9828 41.9095 59.1534C41.981 59.3239 42.0292 59.5182 42.0509 59.7226C42.0726 59.9271 42.0672 60.1369 42.0351 60.3376C42.003 60.5383 41.945 60.725 41.8651 60.8849L41.602 61.4563C41.8834 66.4812 41.8226 71.5427 41.4207 76.5452C42.0635 81.4539 43.0444 86.2243 44.3441 90.7624C48.0043 95.0721 52.6934 100.786 57.0143 102.084C60.3937 103.11 64.9484 97.0575 68.1642 101.648C68.5241 102.136 68.8122 102.753 69.0067 103.453C69.2012 104.153 69.297 104.916 69.2868 105.687C69.3293 105.953 69.3345 106.232 69.3021 106.502C69.2696 106.772 69.2004 107.027 69.0997 107.246C68.9031 107.991 68.6073 108.654 68.2344 109.183C67.8691 109.695 67.4452 110.08 66.9882 110.314C66.5311 110.549 66.0501 110.629 65.5741 110.548C64.2234 111.178 62.5161 109.958 61.3819 108.214C60.4756 107.42 59.6278 106.597 58.9437 106.026C58.9437 106.026 58.9437 106.026 58.9437 105.967C57.709 106.017 56.4823 105.624 55.3479 104.815C52.2407 102.819 49.268 100.291 46.4782 97.2706C51.0563 109.764 58.0258 120.001 66.1236 125.066C70.082 125.26 74.4437 125.569 78.2266 127.429C79.9164 128.271 82.068 130.935 80.3432 134.005C78.8172 136.726 75.2331 136.378 73.2568 135.671C72.9937 135.574 72.7598 135.399 72.5084 135.283C71.7875 135.137 71.078 134.864 70.3919 134.47C68.4211 133.226 66.5908 131.442 64.9777 129.192C64.9075 129.095 64.8257 129.027 64.7555 128.93C64.6466 128.798 64.5574 128.626 64.4946 128.428C64.4318 128.23 64.397 128.011 64.393 127.787C60.1643 124.84 56.2724 120.712 52.8864 115.584C53.0209 116.969 53.1086 118.374 53.1612 119.778C53.3752 119.84 53.5673 120.034 53.6991 120.32C54.9328 122.877 56.2425 125.666 56.2951 129.104C56.336 132.01 55.4473 134.915 53.6932 135.806C52.9621 136.238 52.1595 136.198 51.4454 135.694C50.7314 135.189 50.1582 134.258 49.8402 133.085C48.8813 129.463 50.4892 126.305 50.6938 122.742C50.7228 122.263 50.8634 121.822 51.0856 121.512C51.0195 118.003 50.7076 114.519 50.1559 111.129C47.144 105.777 44.626 99.7166 42.6836 93.1448C42.5201 92.9585 42.3912 92.7002 42.3117 92.399C42.2321 92.0978 42.205 91.7657 42.2334 91.4403C41.8358 90.007 41.4733 88.5349 41.14 87.0725V173.683C42.3382 182.612 44.7654 190.961 48.2323 198.079C48.389 198.09 48.5425 198.156 48.6825 198.273C52.9268 201.698 57.6177 203.325 62.3349 203.009C62.3487 202.663 62.4253 202.331 62.5547 202.058C62.684 201.785 62.8601 201.583 63.0599 201.479C65.5624 200.239 73.1165 197.934 71.9997 206.156C71.8185 207.371 71.4354 208.478 70.8939 209.351C70.3524 210.224 69.6742 210.828 68.936 211.096C67.1059 211.696 65.3811 210.127 63.9019 208.442C62.7152 208.245 61.5413 207.876 60.3937 207.338C60.2705 207.281 60.1554 207.184 60.055 207.053C59.9546 206.921 59.871 206.758 59.8091 206.573C56.9201 206.335 54.0659 205.422 51.3311 203.861C51.6469 204.394 51.9684 204.917 52.2959 205.44C52.4657 205.438 52.6321 205.519 52.7738 205.675C52.9154 205.83 53.0259 206.052 53.091 206.311C53.1553 206.524 53.1846 206.757 53.2489 206.97C59.0957 215.87 66.3985 222.766 73.859 227.86C73.9585 227.929 74.0497 228.028 74.128 228.151C74.3032 227.882 74.5275 227.719 74.7653 227.686C81.3372 226.814 95.124 231.511 93.0835 246.958C93.0418 247.249 92.9541 247.516 92.8293 247.731C92.7045 247.947 92.5472 248.103 92.3737 248.184C92.2002 248.265 92.0168 248.268 91.8425 248.192C91.6681 248.116 91.5091 247.964 91.3821 247.752C91.2184 247.99 91.0138 248.135 90.7974 248.169C87.0025 248.839 83.1742 247.59 79.8159 244.587C76.4576 241.585 73.7266 236.969 71.9822 231.346C71.879 231.016 71.846 230.637 71.8887 230.271C70.0177 228.945 68.1701 227.531 66.3634 225.981C69.9473 234.568 72.5366 244.184 73.9994 254.338C74.1574 254.108 74.3544 253.964 74.5637 253.925C74.773 253.887 74.9843 253.957 75.1687 254.125C78.4839 257.03 80.121 261.815 80.6823 267.868C81.6646 278.434 80.6414 290.143 80.4718 300.796C80.4309 303.072 78.2968 303.082 78.3319 300.796C74.2601 295.819 71.3842 288.613 70.2144 280.458C69.0445 272.303 69.6563 263.725 71.9413 256.246C71.9413 256.149 72.0173 256.11 72.0465 256.033C70.4447 244.212 67.2463 233.146 62.6916 223.666C62.5239 223.312 62.4406 222.867 62.4577 222.417C59.7619 219.808 57.1773 216.896 54.7223 213.701C55.36 217.426 55.6924 221.276 55.7104 225.148C56.8626 227.473 57.714 230.165 58.2118 233.058C58.7096 235.95 58.8431 238.981 58.604 241.963C58.365 244.944 57.7585 247.813 56.8222 250.39C55.8859 252.967 54.6397 255.197 53.1612 256.943C52.1906 258.067 51.2668 255.975 51.7404 254.512C49.9606 250.045 49.0866 244.754 49.2453 239.407C49.4041 234.061 50.5873 228.937 52.6233 224.78C52.7284 224.53 52.8809 224.345 53.0565 224.253C53.2322 224.162 53.4213 224.17 53.5938 224.277C53.4938 219.008 52.7666 213.825 51.4539 209.023C47.0458 202.429 43.5256 194.37 41.1225 185.373V262.851C41.2716 262.821 41.4228 262.841 41.5673 262.909C41.7118 262.977 41.8467 263.092 41.9641 263.247C42.0816 263.402 42.1794 263.594 42.2517 263.812C42.324 264.03 42.3695 264.269 42.3854 264.517C42.5418 266.872 42.9947 269.146 43.7148 271.193C44.4349 273.24 45.4062 275.014 46.5659 276.4L46.677 276.526L46.8407 276.7C49.1282 276.803 51.3451 278.034 53.208 280.235C54.6287 281.94 56.4822 284.797 55.4239 287.983C54.3656 291.169 51.8632 290.569 50.2962 288.797C48.2259 286.312 46.5145 283.096 45.2855 279.383C43.4107 277.105 41.965 273.991 41.1167 270.405V286.492C41.2901 286.622 41.4391 286.828 41.5481 287.087C41.6571 287.346 41.7222 287.649 41.7364 287.964C42.0552 293.705 43.6841 299.029 46.2911 302.849C46.3801 302.623 46.5026 302.438 46.6469 302.313C46.7912 302.187 46.9526 302.125 47.1155 302.132C50.2102 302 53.2127 303.884 55.4779 307.379C57.7431 310.874 59.0904 315.702 59.2302 320.824C59.2196 321.29 59.0991 321.73 58.8947 322.051C58.6903 322.371 58.4182 322.546 58.1369 322.538C51.986 321.715 45.8585 316.263 44.7885 305.387C44.7856 305.348 44.7856 305.309 44.7885 305.27C43.2386 302.96 41.9824 300.162 41.0933 297.038V320.65C41.2471 320.788 41.3713 321.002 41.4488 321.262C41.5263 321.522 41.5532 321.816 41.5259 322.102C41.3096 325.686 41.1868 329.279 41.1342 332.872C45.6831 344.494 52.6759 353.152 58.5111 362.962C63.7933 371.687 68.6588 381.077 73.0639 391.048C81.612 410.757 87.2425 433.051 88.0903 457.408C88.1429 458.871 87.1606 459.462 86.4766 458.939C75.1386 450.301 65.15 437.465 57.2813 421.421C49.4126 405.376 43.8742 386.552 41.0933 366.401V439.724C40.7366 468.226 47.9458 493.6 59.5635 511.769C59.7812 511.591 60.0304 511.55 60.2651 511.653C64.4862 513.515 68.9056 513.786 73.1983 512.447C73.2138 512.067 73.3042 511.707 73.4556 511.42C75.5678 507.502 78.272 504.586 81.2901 502.972C84.3081 501.359 87.5312 501.106 90.6278 502.239C91.5049 501.397 92.6333 503.566 91.8498 505.145C89.6977 509.441 86.9127 512.745 83.7641 514.737C80.6155 516.729 77.2099 517.341 73.8766 516.514C73.7626 516.499 73.6519 516.444 73.5513 516.354C73.4507 516.264 73.3624 516.141 73.2919 515.992C69.7111 517.068 66.0439 517.095 62.4577 516.069C69.5229 525.747 77.7714 532.772 86.6344 536.659C86.6695 536.659 86.6929 536.572 86.7338 536.543C88.4119 535.4 89.2246 531.7 90.6863 529.918C91.719 528.65 92.9234 527.818 94.1944 527.497C96.5331 526.926 99.5969 528.088 100.626 532.059C101.655 536.029 99.6671 539.671 97.5797 541.191C94.8434 543.196 91.768 542.441 88.9498 541.104C88.7736 541.183 88.588 541.183 88.4119 541.104C84.8773 539.78 81.4142 537.979 78.0571 535.719C82.7225 542.184 87.8028 547.78 93.2063 552.406C99.8892 550.276 112.98 552.164 112.729 567.669C112.715 568.048 112.63 568.41 112.486 568.704C112.342 568.998 112.145 569.21 111.924 569.309C111.704 569.409 111.469 569.391 111.255 569.258C111.041 569.126 110.857 568.885 110.729 568.57C107.392 569.101 104.026 568.322 100.904 566.296C97.7829 564.27 94.9933 561.054 92.7619 556.91C92.5907 556.596 92.495 556.19 92.493 555.767C85.1961 549.801 78.6768 541.395 72.4149 532.523C74.1689 536.872 75.9697 541.172 77.87 545.365C81.5009 550.15 89.2421 560.919 82.7287 564.193C75.6073 567.757 75.9405 547.554 73.5667 542.247C73.4901 542.086 73.4348 541.9 73.4046 541.702C73.3744 541.503 73.3698 541.296 73.3913 541.094C71.5612 536.833 69.7721 532.514 68.0824 528.088C67.9741 527.798 67.9249 527.459 67.942 527.119C57.7278 516.56 49.5674 501.348 44.4377 483.305C45.8526 498.685 48.3025 513.047 54.3189 526.141C54.658 526.858 54.9679 527.565 55.2836 528.281C59.3588 534.635 66.6557 534.509 69.5791 543.031C69.6853 543.311 69.7366 543.637 69.7262 543.967C69.7157 544.296 69.6439 544.612 69.5207 544.872C69.8072 546.189 69.6201 547.419 68.5092 548.242C65.8839 550.179 63.5335 542.499 63.1301 539.39C63.1185 539.239 63.1185 539.086 63.1301 538.935C61.528 537.773 59.8207 536.843 58.3941 535.671C60.6629 541.413 62.2908 547.784 63.2002 554.479C63.3442 554.526 63.4797 554.628 63.5963 554.775C63.7129 554.923 63.8074 555.113 63.8726 555.331C65.5214 560.29 67.2521 565.587 67.4567 571.369C67.5678 574.488 67.2638 579.32 64.9309 579.94C62.4986 580.599 61.0954 575.679 60.5867 572.56C59.6921 567.137 60.3937 561.345 61.0837 555.98C61.1063 555.88 61.1336 555.783 61.1655 555.689C59.6395 544.261 55.5467 536.039 51.7287 526.887C50.6938 532.233 51.2843 537.695 51.4831 543.264C51.4831 544.01 51.4831 544.755 51.4831 545.501C56.6108 551.922 55.0673 563.302 51.9626 571.301C51.8772 571.531 51.7618 571.726 51.6248 571.872C51.4878 572.018 51.3328 572.112 51.1711 572.145C51.0095 572.178 50.8454 572.151 50.6909 572.066C50.5364 571.98 50.3956 571.838 50.2787 571.65C46.6069 564.522 45.2095 554.421 49.3373 547.07C49.3373 546.934 49.3373 546.808 49.3373 546.683C49.3 546.405 49.3 546.117 49.3373 545.84C49.3023 543.448 49.2379 540.998 49.121 538.605C48.8696 533.182 48.9222 528.417 50.2553 523.4C50.2553 523.4 50.2553 523.4 50.2553 523.323C49.163 520.573 48.1749 517.714 47.2968 514.762C46.7233 517.826 46.2856 520.956 45.9871 524.127C46.1632 524.332 46.2962 524.623 46.3671 524.96C47.1155 528.446 47.8113 532.204 47.0746 535.874C46.6536 537.976 45.3205 541.279 43.7302 540.61C42.1399 539.942 41.7306 535.826 41.754 533.589C41.7885 530.715 42.4536 527.961 43.625 525.841C44.0277 520.342 44.8246 514.941 45.9988 509.755C43.1572 497.697 42.1983 484.487 41.3915 471.664C41.2102 479.228 40.608 486.434 38.7078 493.126C38.7115 493.595 38.607 494.049 38.4154 494.395C38.5855 494.676 38.6928 495.045 38.7195 495.44C39.0703 500.38 38.1348 506.394 36.0767 510.161C33.7379 514.452 29.5399 516.389 26.3066 517.832C25.7219 518.113 24.8624 517.299 24.956 516.127C25.3945 510.491 26.2715 504.147 28.7389 499.915C30.873 496.254 33.8139 493.813 36.6614 491.954C38.4154 486.027 39.0352 479.606 39.2398 472.933C38.0779 474.857 36.7522 476.488 35.3049 477.775C34.2174 481.252 30.2591 486.25 28.4933 482.289C27.4993 480.071 28.4524 477.446 29.6627 476.207C31.0618 474.788 32.7168 474.226 34.3402 474.618C36.3121 472.817 38.0145 470.305 39.3217 467.267C39.3217 463.888 39.3217 460.488 39.3568 457.098C39.3637 456.749 39.4351 456.411 39.5614 456.13C39.1946 451.83 38.9993 447.495 38.9767 443.152H38.9241V407.319C37.7535 411.498 36.385 415.517 34.8313 419.338C34.9352 419.694 34.954 420.102 34.8839 420.48C32.6975 433.54 27.8983 444.983 21.2724 452.934C18.2657 456.555 14.941 459.391 11.4146 461.34C9.35655 462.599 3.45123 465.95 1.2762 464.023C-2.7055 460.508 3.75527 447.985 5.369 444.828M25.9499 386.526C25.9215 386.684 25.8781 386.835 25.8213 386.971L26.1136 386.651C26.0606 386.618 26.0097 386.576 25.9616 386.526H25.9499ZM111.139 22.8819C111.858 17.1388 110.39 13.7491 108.385 10.495C107.251 17.4413 107.362 24.7844 108.706 31.6272C109.572 28.9058 110.794 25.6904 111.139 22.8819ZM155.733 33.8353C151.845 33.7163 147.983 34.8988 144.378 37.3122C144.656 37.475 144.884 37.8114 145.014 38.2493C145.144 38.6873 145.165 39.1921 145.074 39.6559C145.577 39.7527 146.079 39.8883 146.588 39.9464C149.43 40.2563 154.528 39.2201 155.733 33.8353ZM130.334 23.9278C134.427 19.1435 135.245 12.3061 135.269 4.76165C129.716 9.85143 125.195 17.543 122.271 26.872C123.896 24.199 125.487 21.4388 126.984 18.514C127.872 16.7708 129.381 19.2888 128.498 21.0224C126.878 24.2474 125.153 27.1528 123.37 30.0583C125.82 28.4451 128.156 26.3891 130.334 23.9278ZM203.823 9.64277C200.315 14.2915 196.269 17.4874 192.211 21.0611C185.886 26.5195 180.55 34.6607 176.746 44.6532C182.593 42.8518 188.791 40.3047 193.86 35.4139C199.964 29.5062 202.303 20.1314 203.823 9.64277ZM190.147 69.175C190.352 69.3687 190.539 69.6109 190.732 69.8239H190.855C190.666 69.4889 190.418 69.2617 190.147 69.175ZM187.808 100.437C187.808 100.437 187.808 100.437 187.808 100.496C187.914 100.66 188.031 100.806 188.136 100.96L187.808 100.437ZM78.4722 296.438C79.0569 283.848 80.7057 263.878 74.432 257.553C74.9602 261.957 75.2808 266.423 75.3909 270.909C75.4494 273.194 73.3094 273.185 73.251 270.909C73.175 268.003 72.982 265.195 72.7423 262.396C71.5555 268.372 71.4666 274.798 72.4866 280.858C73.5067 286.918 75.5899 292.341 78.4722 296.438ZM90.7506 244.595C90.8494 244.57 90.95 244.57 91.0488 244.595C91.6335 233.022 79.3551 230.533 74.7068 231.153C74.5962 231.161 74.4854 231.138 74.3794 231.085C76.0304 235.718 78.4562 239.459 81.3636 241.857C84.271 244.254 87.5355 245.206 90.7623 244.595H90.7506ZM53.3307 252.033C54.9615 249.342 56.0498 245.882 56.4466 242.126C56.8433 238.371 56.529 234.504 55.5467 231.056C55.4707 232.112 55.4532 233.138 55.3421 234.194C55.0906 236.441 53.0033 235.492 53.2723 233.225C53.4185 231.737 53.5161 230.237 53.5646 228.732C52.1802 232.17 51.4235 236.197 51.3852 240.33C51.3468 244.462 52.0284 248.526 53.3483 252.033H53.3307ZM56.8389 318.742C56.4941 315.49 55.5407 312.501 54.1137 310.196C52.6867 307.891 50.8582 306.388 48.8871 305.9C49.3668 306.327 49.8606 306.708 50.3664 307.043C51.6352 307.856 51.0855 311.285 49.7817 310.461C49.0706 310.008 48.379 309.474 47.7119 308.863C49.4133 314.548 52.9799 317.754 56.8622 318.742H56.8389ZM88.7744 505.319C86.7076 504.864 84.6066 505.105 82.5972 506.027C80.5879 506.949 78.7116 508.533 77.0807 510.684C78.3757 509.966 79.6396 509.102 80.8636 508.098C82.0914 507.082 83.2023 510.142 81.9452 511.169C81.1676 511.817 80.3724 512.389 79.6065 512.922C83.0616 511.973 86.2643 509.324 88.7978 505.319H88.7744ZM110.507 565.074C109.42 556.658 102.322 554.789 97.0594 555.234C99.5732 556.957 102.173 558.311 104.83 559.282C106.169 559.757 105.602 563.156 104.245 562.701C102.059 561.887 99.9096 560.819 97.8136 559.505C101.523 563.757 106.013 565.727 110.507 565.074ZM51.5299 550.421C51.4831 553.452 51.3662 556.484 51.1557 559.534C51.1156 559.885 51.0177 560.211 50.8729 560.475C50.728 560.74 50.5419 560.933 50.335 561.033C50.128 561.133 49.9085 561.137 49.7004 561.043C49.4924 560.949 49.304 560.763 49.1561 560.503C49.4739 562.906 50.0695 565.186 50.9101 567.214C52.6759 561.926 53.7283 555.195 51.5299 550.421ZM49.0158 559.437C49.1502 557.588 49.2379 555.747 49.2964 553.917C48.9524 555.698 48.8565 557.586 49.0158 559.437ZM37.6495 162.362L4.02422 265.398C26.0142 243.549 35.9656 203.532 37.6495 162.352V162.362ZM20.3486 191.697C8.30997 213.197 4.03007 235.801 3.30506 264.207L34.5799 168.328C30.1538 177.073 24.1666 184.879 20.3486 191.697ZM35.9539 94.5395C37.3732 89.8644 38.3831 84.8783 38.9533 79.7314V73.6397C38.9007 73.078 38.8481 72.5163 38.8072 71.9449C37.0239 79.4022 34.8254 86.8304 31.7383 92.8059C27.7858 100.447 21.8454 105.783 16.7177 111.294C16.7177 111.488 16.7177 111.691 16.7177 111.875C23.9737 109.715 32.3581 106.035 35.9539 94.5395ZM29.879 83.3245C25.2775 90.3266 19.1734 96.5442 17.2732 106.413C21.366 102.103 25.7628 97.7645 29.1131 92.2248C32.4633 86.6851 34.691 79.4506 36.4918 72.0224C34.4182 75.9936 32.2104 79.767 29.879 83.3245ZM236.273 51.3648C224.535 51.8448 212.829 53.5852 201.227 56.5752V58.7058H199.426C199.853 59.1319 200.262 59.6743 200.695 60.0229C214.811 65.7301 229.476 66.6656 243.815 62.7734C254.065 59.868 263.923 54.1927 274.149 57.0497C262.783 49.1469 248.072 50.9967 236.279 51.4229L236.273 51.3648ZM237.384 72.3032C250.954 73.1749 264.554 71.4122 276.248 59.4806C262.59 53.8537 248.522 64.4198 234.805 66.2599C224.714 67.5905 214.56 66.5636 204.641 63.2092C214.803 70.4438 226.304 71.5962 237.384 72.3032ZM55.5116 58.7445C84.9622 67.1122 114.12 79.8477 144.015 82.1236C127.603 70.8602 111.489 61.8921 93.4869 59.8486C89.324 59.3741 85.1552 59.0254 80.9747 58.7252L55.5116 58.7445ZM92.3468 91.4597C100.77 92.9894 109.247 93.5428 117.716 93.1158C126.487 92.8543 140.338 95.5564 147.12 84.2542L146.67 83.9346C113.793 82.1526 81.8575 67.2187 49.4952 58.7639H46.1333C60.1365 75.4508 74.4846 87.8763 92.3351 91.4791L92.3468 91.4597ZM80.2614 418.64C76.8407 406.254 72.4467 394.671 67.1936 384.192C59.6921 368.87 49.3549 356.629 42.0522 341.104C49.425 382.293 74.7945 408.946 85.4826 448.285C85.2546 445.457 84.9739 442.649 84.588 439.869C83.5757 432.572 82.1263 425.461 80.2614 418.64ZM64.9543 430.698C69.6844 438.242 76.5427 448.963 83.0269 452.314C84.243 454.764 85.1142 455.016 85.6522 453.283C75.7885 411.57 49.0333 384.589 41.1751 342.053C41.7669 375.633 50.308 407.479 64.9543 430.717V430.698ZM30.8613 501.571C28.7973 504.631 27.8677 509.241 27.3532 513.735C29.4814 512.766 31.7149 511.498 33.428 509.406C35.34 507.062 36.3515 503.033 36.5912 499.063C36.1559 500.134 35.6854 501.166 35.1821 502.152C34.2641 503.857 32.7557 501.338 33.6678 499.644C34.0712 498.888 34.3694 498.094 34.7144 497.319C33.3273 498.463 32.0327 499.891 30.8613 501.571ZM3.20566 460.556C4.61777 460.442 6.02083 460.118 7.39786 459.587C17.9222 455.859 26.5872 443.675 30.9958 427.783C25.644 438.059 18.9194 446.127 11.3562 451.346C10.0874 452.217 9.53196 448.789 10.7715 447.917C17.9233 442.981 24.283 435.355 29.3469 425.642C23.4124 428.645 17.6532 432.48 12.6074 438.668C10.0199 441.797 7.72478 445.54 5.79582 449.777C4.74339 452.111 3.38692 454.89 2.99518 457.825C1.80632 460.24 1.87648 461.15 3.20566 460.556Z" fill="#927A20"/>
</svg>
