<svg width="500" height="35" viewBox="0 0 500 35" fill="none" xmlns="http://www.w3.org/2000/svg">
<path d="M250.605 24.838C253.476 25.6044 257.615 25.4378 259.307 23.8605C261.288 22.0167 259.173 19.5175 256.636 18.1068C253.409 16.3296 248.535 15.5965 243.906 15.3077C239.277 15.0189 234.137 15.0966 229.33 15.4188C209.167 16.785 191.341 22.2499 171.534 24.3493C160.54 25.5156 149.323 25.3045 138.441 23.9494C132.899 23.2607 127.514 22.3166 122.284 21.1614C117.054 20.0062 112.247 18.6622 107.15 17.4959C102.054 16.3296 97.0689 15.5187 91.6165 15.1633C85.8079 14.7856 79.8881 14.8967 74.0574 15.1633C67.7147 15.4632 61.4389 16.1185 55.2743 16.8961C47.5741 17.8624 39.9629 19.0843 32.6633 20.6504C26.4319 21.9833 19.533 23.6162 14.9485 26.1931C14.0138 26.7152 13.2571 27.2817 12.4559 27.8481C11.8995 28.2369 13.1903 28.6035 13.7244 28.2258C15.3045 27.1039 17.8416 26.1709 20.0448 25.3823C22.7822 24.3937 25.7198 23.5606 28.7242 22.8164C35.4897 21.1281 42.678 19.8618 49.9331 18.8177C56.4093 17.8846 62.9744 17.096 69.6286 16.5851C78.6419 15.8853 88.3227 15.6409 97.2024 16.8183C102.432 17.507 107.306 18.7066 112.113 19.9062C116.92 21.1058 121.349 22.1833 126.156 23.1163C136.037 25.0157 146.608 26.2153 157.224 26.1931C176.964 26.1487 194.679 21.4057 213.039 18.4178C222.03 16.9516 231.399 15.9075 240.924 16.1963C245.709 16.3407 251.028 16.8072 254.633 18.5067C256.28 19.2842 257.46 20.2839 257.927 21.3835C258.283 22.2277 258.35 23.294 256.992 23.9161C255.345 24.6825 253.165 24.7825 251.162 24.327C250.472 24.1715 249.871 24.6603 250.561 24.838H250.605Z" fill="#927A20"/>
<path d="M160.919 25.149C153.864 26.6597 146.92 28.3369 139.509 29.3921C132.099 30.4474 124.287 30.7362 116.453 30.1363C115.563 30.0697 115.163 30.7028 116.075 30.825C123.619 31.8469 131.987 31.2471 139.398 30.1808C146.809 29.1144 154.331 27.3817 161.364 25.5267C161.876 25.3934 161.43 25.038 160.919 25.1379V25.149Z" fill="#927A20"/>
<path d="M115.808 30.2364C115.207 30.6362 114.428 30.9695 113.605 31.2472C113.182 31.3916 112.737 31.5248 112.269 31.6248C111.802 31.7248 111.312 31.8692 110.845 31.9914C110.445 32.0913 110.645 32.3912 111.068 32.4023C111.669 32.4023 112.247 32.369 112.804 32.2468C113.36 32.1247 113.916 32.0025 114.406 31.8359C115.407 31.5026 116.275 31.0583 116.965 30.5696C117.166 30.4252 117.01 30.203 116.72 30.1142C116.387 30.0142 116.031 30.092 115.808 30.2364Z" fill="#927A20"/>
<path d="M116.831 30.4807C117.143 29.9253 117.143 29.3477 116.853 28.7923C116.564 28.2369 115.941 27.6149 114.828 27.4039C114.405 27.3261 113.96 27.5705 114.094 27.7704C114.249 28.0037 114.516 28.2036 114.739 28.4258C114.806 28.4813 114.85 28.5368 114.917 28.5924C114.939 28.6146 114.962 28.6368 114.984 28.6701C115.051 28.7368 114.939 28.6146 114.984 28.6812C115.073 28.7923 115.162 28.9145 115.229 29.0256C115.295 29.1366 115.34 29.2477 115.384 29.3699C115.384 29.3921 115.384 29.4254 115.384 29.381C115.384 29.4032 115.384 29.4365 115.384 29.4588C115.384 29.5254 115.384 29.5809 115.407 29.6476C115.407 29.7587 115.407 29.8809 115.407 29.9919C115.407 30.0141 115.407 30.0475 115.407 30.0697C115.407 30.0253 115.407 30.0697 115.407 30.0808C115.384 30.1474 115.362 30.2141 115.318 30.2807C115.206 30.4807 115.451 30.7028 115.874 30.7584C116.297 30.8139 116.72 30.6917 116.831 30.4807Z" fill="#927A20"/>
<path d="M116.053 30.1587C115.363 29.9032 114.628 29.7033 113.827 29.5478C113.449 29.47 113.093 29.4256 112.692 29.3923C112.447 29.3701 112.202 29.3479 111.958 29.3479C111.757 29.3479 111.535 29.359 111.335 29.3701C111.09 29.3812 110.867 29.4589 110.823 29.5922C110.8 29.7144 110.934 29.8366 111.201 29.8699C111.579 29.9254 111.958 29.9921 112.314 30.0476C112.67 30.1032 113.048 30.1587 113.404 30.2254C113.493 30.2365 113.56 30.2587 113.649 30.2698C113.738 30.2809 113.738 30.292 113.671 30.2698C113.716 30.2698 113.76 30.292 113.805 30.3031C113.983 30.3475 114.161 30.392 114.339 30.4364C114.695 30.5253 115.007 30.6363 115.34 30.7585C115.652 30.8696 116.142 30.7918 116.32 30.6363C116.52 30.4475 116.386 30.2698 116.075 30.1476L116.053 30.1587Z" fill="#927A20"/>
<path d="M115.139 30.2141C114.36 30.3807 113.536 30.4918 112.691 30.5695C112.29 30.6029 111.934 30.6251 111.489 30.6473C110.999 30.6695 110.599 30.725 110.109 30.7917C109.553 30.8583 109.597 31.2471 110.109 31.336C110.599 31.4137 111.066 31.4581 111.578 31.447C112.09 31.4359 112.601 31.3915 113.091 31.336C114.048 31.236 114.961 31.0694 115.851 30.8583C116.207 30.7695 116.296 30.5251 116.118 30.3696C115.895 30.1808 115.495 30.1586 115.139 30.2363V30.2141Z" fill="#927A20"/>
<path d="M116.122 30.0809C115.811 29.67 115.432 29.2701 114.921 28.9035C114.676 28.7147 114.386 28.537 114.097 28.3704C113.808 28.2038 113.474 28.0705 113.14 27.9372C112.873 27.8261 112.473 27.7928 112.205 27.9372C111.961 28.0705 111.938 28.2704 112.205 28.4037C112.495 28.5481 112.762 28.6925 113.029 28.848C113.162 28.9258 113.296 29.0035 113.43 29.0813C113.496 29.1146 113.452 29.1035 113.43 29.0813C113.474 29.1035 113.496 29.1257 113.541 29.1479C113.608 29.1923 113.652 29.2257 113.719 29.2701C113.941 29.4256 114.142 29.5922 114.32 29.7699C114.409 29.8588 114.498 29.9477 114.587 30.0365C114.609 30.0587 114.631 30.0921 114.654 30.1143C114.698 30.1587 114.654 30.1365 114.654 30.1143C114.698 30.1698 114.743 30.2142 114.765 30.2698C114.898 30.4364 115.254 30.5808 115.633 30.5141C115.967 30.4586 116.256 30.2698 116.122 30.0809Z" fill="#927A20"/>
<path d="M112.427 31.6582C110.669 31.6804 108.933 31.4694 107.397 31.0473C105.862 30.6252 104.705 29.9921 103.592 29.3256C103.325 29.1701 102.924 29.3701 103.058 29.5256C103.814 30.3697 105.417 31.014 107.019 31.4138C108.621 31.8137 110.535 32.0359 112.405 31.9803C112.828 31.9692 112.828 31.6471 112.405 31.6471L112.427 31.6582Z" fill="#927A20"/>
<path d="M114.719 27.8261C112.672 27.2596 110.246 27.1485 107.998 27.4151C106.841 27.5484 105.773 27.7927 104.816 28.1371C104.46 28.2593 103.903 28.437 103.814 28.6702C103.748 28.8369 104.037 29.0479 104.326 29.1257L104.549 28.9368C103.659 28.7258 102.902 29.1701 103.347 29.5922C103.525 29.7699 104.059 29.6144 103.881 29.4367C103.703 29.2589 104.037 29.1034 104.371 29.1479C104.66 29.1812 104.771 28.9701 104.482 28.9368C104.104 28.8924 104.771 28.6147 104.816 28.6036C104.994 28.537 105.194 28.4814 105.394 28.4148C105.795 28.2926 106.24 28.1815 106.663 28.0927C107.464 27.926 108.243 27.7816 109.111 27.7039C110.936 27.5262 112.828 27.6261 114.497 28.0371C114.741 28.1038 114.964 27.9149 114.719 27.8483V27.8261Z" fill="#927A20"/>
<path d="M165.769 25.2047C163.855 22.7943 160.539 20.6728 157.157 18.7401C155.309 17.6959 153.351 16.6963 151.237 15.7854C149.479 15.0301 147.587 14.297 145.406 13.8527C144.627 13.6972 144.204 14.297 144.85 14.497C153.218 17.1072 160.206 21.0615 164.946 25.3602C165.191 25.5712 165.947 25.4268 165.769 25.1936V25.2047Z" fill="#927A20"/>
<path d="M145.876 14.2859C145.943 13.7083 145.831 13.1085 145.475 12.5642C145.119 12.02 144.563 11.4646 143.606 11.0869C143.205 10.9314 142.716 11.1203 142.916 11.3535C143.317 11.8311 143.806 12.2865 144.095 12.7753C144.385 13.264 144.563 13.7639 144.518 14.2859C144.518 14.4636 144.83 14.6191 145.186 14.6191C145.564 14.6191 145.831 14.4636 145.854 14.2859H145.876Z" fill="#927A20"/>
<path d="M144.25 14.0192C144.139 14.1303 144.027 14.2303 143.916 14.3302C143.849 14.3858 143.783 14.4302 143.716 14.4746C143.671 14.508 143.627 14.5302 143.716 14.4746C143.671 14.4969 143.627 14.5302 143.582 14.5524C143.427 14.6413 143.271 14.719 143.115 14.7968C143.026 14.8412 142.937 14.8745 142.848 14.9189C142.915 14.8967 142.737 14.9745 142.848 14.9189C142.803 14.9412 142.737 14.9523 142.692 14.9745C142.514 15.0411 142.314 15.0967 142.114 15.1522C142.002 15.1855 141.913 15.2077 141.802 15.2411C141.757 15.2522 141.713 15.2633 141.646 15.2744C141.624 15.2744 141.424 15.3188 141.602 15.2744C141.446 15.3077 141.312 15.3299 141.157 15.3632C141.09 15.3744 140.979 15.3966 141.112 15.3744C141.045 15.3855 141.001 15.3966 140.934 15.4077C140.667 15.4521 140.422 15.5076 140.2 15.5743C139.755 15.7076 139.844 16.0408 140.333 16.1186C140.867 16.2074 141.535 16.1519 142.069 16.0519C142.603 15.9519 143.093 15.8298 143.56 15.652C144.45 15.3077 145.207 14.8745 145.652 14.3636C145.808 14.1747 145.786 13.9304 145.363 13.8304C145.007 13.7415 144.473 13.7749 144.295 13.9748L144.25 14.0192Z" fill="#927A20"/>
<path d="M144.739 13.6751C144.339 13.6751 144.049 13.6529 143.716 13.6196C143.337 13.5862 142.937 13.5307 142.581 13.4752C142.224 13.4196 141.868 13.353 141.512 13.2752C141.468 13.2752 141.468 13.2752 141.512 13.2752C141.468 13.2752 141.423 13.253 141.379 13.2419C141.268 13.2197 141.134 13.1864 141.023 13.1642C140.845 13.1308 140.644 13.0975 140.466 13.0642C140.266 13.0198 139.999 13.0975 139.888 13.1864C139.776 13.2863 139.799 13.4196 139.977 13.4974C140.622 13.8195 141.357 14.0305 142.224 14.1749C143.092 14.3193 143.916 14.3749 144.784 14.386C145.162 14.386 145.518 14.2194 145.496 14.0305C145.496 13.8306 145.184 13.6862 144.784 13.6751H144.739Z" fill="#927A20"/>
<path d="M145.295 13.7416C144.872 13.2973 144.338 12.8975 143.737 12.5087C143.448 12.331 143.136 12.1644 142.825 12.0089C142.624 11.92 142.38 11.82 142.157 11.7534C141.935 11.6867 141.668 11.6423 141.423 11.5979C140.978 11.509 140.51 11.82 140.8 12.0089C141.089 12.1977 141.356 12.3976 141.712 12.5642C142.024 12.7197 142.335 12.8752 142.624 13.0419C142.758 13.1196 142.914 13.2085 143.047 13.2862C142.958 13.2307 143.047 13.2862 143.07 13.3084C143.114 13.3307 143.136 13.3529 143.181 13.3751C143.248 13.4195 143.314 13.464 143.381 13.5195C143.648 13.7083 143.871 13.8971 144.093 14.0971C144.271 14.2637 144.761 14.3303 145.073 14.2304C145.429 14.1193 145.495 13.9194 145.34 13.7416H145.295Z" fill="#927A20"/>
<path d="M143.802 13.875C142.489 14.2637 140.954 14.4748 139.463 14.5525C139.106 14.5748 138.795 14.6858 138.795 14.8858C138.795 15.0635 139.106 15.2079 139.463 15.219C141.243 15.219 143.001 14.9524 144.514 14.4859C144.848 14.3859 144.959 14.1749 144.759 14.0083C144.559 13.8417 144.136 13.7861 143.802 13.8861V13.875Z" fill="#927A20"/>
<path d="M144.115 11.8312C142.713 11.1981 140.999 10.7649 139.152 10.5761C137.305 10.3872 135.324 10.3983 133.655 10.8204C133.299 10.9093 133.566 11.1648 133.922 11.1314C135.614 10.9648 137.283 10.8315 139.019 10.987C140.755 11.1426 142.335 11.5091 143.648 12.0645C143.959 12.1978 144.427 11.9756 144.115 11.8312Z" fill="#927A20"/>
<path d="M140.755 15.5745C138.974 15.3745 137.394 14.8747 136.193 14.186C135.592 13.8417 135.147 13.464 134.702 13.0753C134.479 12.8753 134.279 12.6643 134.123 12.4421C134.056 12.3422 133.989 12.2533 133.923 12.1533C133.923 12.12 133.7 11.6535 134.034 11.7312L134.256 11.5424C133.878 11.4536 133.856 11.2203 134.256 11.1425C134.635 11.0648 134.301 10.7982 133.945 10.876C133.099 11.0537 133.166 11.6535 134.078 11.7535C134.368 11.7868 134.479 11.5757 134.19 11.5424C133.856 11.498 133.322 11.5868 133.188 11.7535C132.966 11.9978 133.233 12.3533 133.389 12.5865C133.745 13.1308 134.256 13.6306 134.991 14.0749C136.393 14.9524 138.374 15.6078 140.621 15.7966C140.888 15.8188 141.022 15.6189 140.733 15.5856L140.755 15.5745Z" fill="#927A20"/>
<path d="M205.94 19.1287C210.546 16.2962 215.643 13.6415 221.118 11.2312C226.592 8.82084 232.824 6.68818 238.855 4.51109C239.3 4.34448 238.921 4.00015 238.41 4.13344C231.867 5.81068 225.969 8.13217 220.472 10.5647C214.975 12.9973 209.745 15.7742 205.139 18.7177C204.693 19.0065 205.472 19.4175 205.962 19.1287H205.94Z" fill="#927A20"/>
<path d="M210.412 16.7184C218.535 15.4966 225.88 13.3306 232.289 10.5648C235.538 9.16526 238.498 7.59909 241.169 5.91074C243.661 4.32235 246.376 2.55625 247.6 0.612421C247.756 0.356947 247.066 0.256977 246.777 0.445807C244.307 2.08973 242.37 3.91137 239.767 5.52197C237.163 7.13257 234.381 8.57656 231.332 9.92058C225.167 12.6308 217.935 14.8523 210.123 16.1519C209.433 16.2741 209.722 16.8184 210.435 16.7073L210.412 16.7184Z" fill="#927A20"/>
<path d="M209.636 16.5741C210.348 16.2298 210.66 15.73 211.083 15.2968C211.506 14.8636 211.928 14.4415 212.374 14.0194C213.308 13.1086 214.354 12.2089 215.489 11.3647C218.026 9.48751 221.186 7.97688 224.881 6.67729C228.375 5.45546 231.958 4.25584 235.652 3.18951C237.499 2.65635 239.369 2.16761 241.327 1.74552C242.395 1.51226 243.464 1.30122 244.576 1.1235C245.533 0.967993 246.624 0.879133 247.469 0.601442C247.892 0.457045 247.692 0.179356 247.225 0.157141C245.266 0.0460644 242.774 0.679195 241.016 1.04575C238.99 1.46783 237.032 1.95657 235.118 2.48973C231.112 3.6116 227.218 4.88897 223.479 6.23299C219.74 7.57701 216.891 8.98767 214.466 10.8093C213.241 11.7312 212.151 12.6976 211.172 13.6862C210.393 14.4748 209.013 15.5523 208.969 16.452C208.969 16.6186 209.391 16.7074 209.636 16.5853V16.5741Z" fill="#927A20"/>
<path d="M221.496 30.4918C217.668 28.1481 213.017 26.2376 207.765 24.7269C205.228 23.9938 202.557 23.3829 199.82 22.872C198.44 22.6165 197.038 22.3943 195.614 22.2055C194.189 22.0167 192.609 21.7612 191.096 21.7612C190.361 21.7612 190.272 22.261 190.918 22.3832C192.298 22.6276 193.811 22.6831 195.235 22.8608C196.659 23.0386 197.95 23.2163 199.263 23.4496C202.09 23.9272 204.805 24.527 207.409 25.249C212.527 26.6596 217.089 28.5701 220.962 30.7583C221.273 30.9361 221.785 30.6806 221.496 30.4918Z" fill="#927A20"/>
<path d="M193.545 22.1167C201.401 22.2167 210.035 23.4607 216.512 25.6933C219.739 26.8041 222.276 28.348 224.813 29.8254C226.17 30.614 227.505 31.3915 228.863 32.1802C230.087 32.891 231.378 33.8796 233.025 34.3461C233.269 34.4128 233.626 34.3017 233.514 34.1573C232.824 33.2465 231.044 32.4467 229.798 31.7136C228.396 30.8917 226.994 30.0697 225.614 29.2478C222.965 27.6816 220.273 26.1043 216.801 24.9713C213.329 23.8384 209.479 23.0497 205.607 22.4499C203.671 22.15 201.69 21.8945 199.665 21.7612C197.506 21.6169 195.592 21.6724 193.456 21.8279C193.099 21.8501 193.211 22.1167 193.545 22.1278V22.1167Z" fill="#927A20"/>
<path d="M233.244 34.1018C224.52 33.0133 215.707 31.9581 207.829 29.7143C204.268 28.6924 200.952 27.4484 198.17 25.9377C195.722 24.6159 193.475 22.8276 189.869 22.2389C189.491 22.1723 189.135 22.4611 189.469 22.5833C192.674 23.8606 194.988 25.4601 197.859 26.9041C200.73 28.3481 203.979 29.5033 207.495 30.4696C215.351 32.6245 224.298 33.6908 233.088 34.4239C233.511 34.4573 233.689 34.1574 233.266 34.1018H233.244Z" fill="#927A20"/>
<path d="M166.749 25.6044C174.36 24.3159 181.103 21.739 186.066 18.5955C191.029 15.4521 194.011 11.6755 200.131 8.97633C200.42 8.85415 200.064 8.64311 199.753 8.72086C192.943 10.5869 190.116 14.6301 185.688 17.6069C180.703 20.9614 173.915 23.3829 166.371 25.1379C165.859 25.2601 166.215 25.6821 166.749 25.5933V25.6044Z" fill="#927A20"/>
<path d="M174.161 23.8827C182.551 22.7942 189.65 20.1062 195.236 16.8628C198.374 15.0411 201.111 13.064 203.671 11.0424C206.23 9.0208 208.3 6.87703 211.593 5.19979C211.994 4.99985 211.482 4.66662 210.993 4.81102C207.432 5.86624 205.585 8.10997 203.47 9.80943C200.867 11.8977 198.151 13.9526 194.991 15.852C189.405 19.2176 182.395 22.1277 173.849 23.3163C173.115 23.4162 173.426 23.9716 174.161 23.8827Z" fill="#927A20"/>
<path d="M211.106 4.65553C195.55 5.53303 181.797 10.5981 174.92 17.5737C172.961 19.5619 171.092 21.839 171.337 24.0938C171.381 24.527 172.717 24.527 172.694 24.0938C172.538 21.6168 175.053 18.9954 177.435 16.8739C179.682 14.8856 182.509 13.064 185.825 11.4756C192.835 8.1211 201.737 6.03287 211.24 5.16648C211.818 5.11094 211.707 4.6111 211.106 4.64442V4.65553Z" fill="#927A20"/>
<path d="M141.247 24.6049C138.955 24.1272 137.575 23.0609 136.374 22.0279C135.172 20.9949 134.081 19.9286 133.035 18.8511C130.988 16.7629 129.029 14.6303 126.492 12.6753C121.975 9.19865 114.831 6.0441 106.018 6.35511C105.083 6.38843 105.061 7.09932 106.018 7.08821C115.565 6.97713 122.442 10.6426 126.893 14.4525C129.252 16.4741 131.166 18.6179 133.414 20.6728C135.239 22.3389 137.219 24.3716 140.98 25.1047C141.626 25.2269 141.87 24.7271 141.27 24.5938L141.247 24.6049Z" fill="#927A20"/>
<path d="M137.885 24.1494C131.075 22.039 124.087 20.0063 118.323 17.1849C115.408 15.7521 112.804 14.1748 110.823 12.3865C109.755 11.4312 108.865 10.4315 108.175 9.38741C107.485 8.3433 107.24 7.34362 106.573 6.35505C106.328 5.9996 105.215 6.04403 105.215 6.4439C105.215 7.48802 105.994 8.60988 106.662 9.59846C107.329 10.587 108.219 11.62 109.243 12.5753C111.202 14.3969 113.783 16.052 116.788 17.4848C122.819 20.3728 130.14 22.5499 137.44 24.5493C137.974 24.6937 138.442 24.3049 137.907 24.1383L137.885 24.1494Z" fill="#927A20"/>
<path d="M137.038 23.8385C132.854 21.6947 128.982 19.3733 125.221 17.0518C123.285 15.8633 121.415 14.6525 119.59 13.4196C117.766 12.1867 116.252 11.0204 114.338 9.9096C113.96 9.69856 113.359 9.96514 113.582 10.1984C114.939 11.5535 116.809 12.7754 118.611 13.9972C120.414 15.219 122.172 16.3298 124.064 17.4517C127.958 19.7954 132.231 21.9391 136.615 24.0496C136.905 24.1828 137.305 23.9718 137.038 23.8385Z" fill="#927A20"/>
<path d="M128.696 23.1165C119.728 22.0391 110.714 23.3387 101.946 24.2717C97.3614 24.7604 92.7324 25.1159 88.0144 25.0714C85.6331 25.0492 83.2741 24.927 80.9373 24.7382C78.8008 24.5605 76.5531 24.1051 74.3721 24.1273C73.8825 24.1273 73.7713 24.4383 74.1273 24.5716C75.8187 25.1603 78.2445 25.3269 80.2474 25.5046C82.3839 25.6935 84.5426 25.8045 86.7013 25.849C91.2636 25.9378 95.7813 25.6601 100.232 25.2047C109.535 24.2606 118.86 22.7166 128.451 23.5275C128.963 23.5719 129.186 23.1943 128.674 23.1387L128.696 23.1165Z" fill="#927A20"/>
<path d="M125.422 22.7387C117.7 20.5394 108.887 19.2065 99.9402 19.3397C95.4002 19.4064 90.9715 19.8951 86.7208 20.706C84.6066 21.117 82.5369 21.5835 80.5117 22.0944C78.4865 22.6054 76.2165 23.1385 74.2803 23.7939C73.6349 24.016 74.0133 24.6603 74.8589 24.4826C78.8871 23.6384 82.6036 22.4499 86.6985 21.6279C90.7934 20.8059 95.1999 20.2617 99.6731 20.1506C108.464 19.9396 117.121 21.228 125.021 23.0719C125.444 23.1719 125.823 22.872 125.4 22.7498L125.422 22.7387Z" fill="#927A20"/>
<path d="M126.268 22.5276C118.813 21.117 110.556 20.8504 102.656 21.1836C94.7554 21.5168 86.6323 22.3277 79.4663 23.9383C78.9099 24.0605 79.3105 24.4826 79.8669 24.4048C83.6279 23.9272 87.3445 23.3274 91.1278 22.8831C94.9112 22.4388 98.9393 22.0833 102.923 21.8945C110.757 21.528 118.457 21.8945 126.046 22.9719C126.624 23.0497 126.825 22.6387 126.291 22.5387L126.268 22.5276Z" fill="#927A20"/>
<path d="M64.9086 16.252C53.9592 15.9077 42.587 16.252 32.283 18.2847C23.6703 19.9842 15.8366 22.6611 9.53851 26.0489C5.99998 27.9483 2.66176 30.1032 0.569801 32.5024C0.280487 32.8356 1.17068 33.1133 1.57126 32.7912C4.0193 30.8474 6.42283 28.9258 9.47175 27.2041C12.5207 25.4824 15.8812 23.9274 19.5755 22.5944C27.1644 19.8509 35.955 18.007 45.1908 17.2295C51.7115 16.6852 58.3212 16.663 64.9086 16.6741C65.4427 16.6741 65.4205 16.2853 64.9086 16.2631V16.252Z" fill="#927A20"/>
<path d="M61.6598 16.7074C53.5368 18.418 46.4153 20.9949 39.0266 23.3498C31.638 25.7046 23.1367 27.8594 14.7243 29.6366C12.3208 30.1476 9.89502 30.6252 7.44699 31.1028C4.99895 31.5805 2.59545 31.9248 0.369961 32.5024C-0.342194 32.6912 0.169678 33.2133 0.904091 33.1244C3.12958 32.869 5.28829 32.3802 7.4025 31.9692C9.51672 31.5583 11.6977 31.1251 13.8342 30.6808C17.9958 29.8144 22.113 28.8924 26.1411 27.8816C34.1974 25.8712 41.586 23.3831 49.0413 20.8728C53.203 19.4732 57.4759 18.1514 62.0159 17.074C62.4165 16.974 62.1272 16.6186 61.7044 16.7074H61.6598Z" fill="#927A20"/>
<path d="M248.781 24.327C246.733 24.7824 244.486 24.6714 242.839 23.8716C241.57 23.2496 241.659 22.1833 241.993 21.3835C243.039 18.9287 247.245 17.4181 251.83 16.7517C260.91 15.441 271.214 16.2407 280.16 17.4181C298.632 19.8618 315.679 24.7602 334.84 25.9376C345.3 26.5819 355.938 25.9265 366.019 24.4381C371.183 23.6717 376.19 22.6942 381.064 21.5612C385.938 20.4283 390.277 19.2175 395.017 18.1845C400.181 17.0516 405.566 16.3296 411.197 16.1185C416.293 15.9297 421.456 16.0519 426.53 16.3296C432.673 16.6517 438.771 17.3292 444.735 18.0957C452.079 19.0398 459.334 20.1839 466.3 21.6834C472.442 23.0052 478.34 24.6047 483.414 26.8151C484.393 27.2372 485.439 27.7037 486.196 28.2369C486.73 28.6257 488.021 28.2591 487.464 27.8592C485.706 26.6041 483.903 25.5489 481.455 24.6158C478.607 23.5273 475.536 22.6276 472.331 21.8389C465.298 20.0728 457.798 18.7621 450.254 17.6736C443.489 16.6961 436.59 15.8964 429.602 15.4187C419.921 14.7412 409.639 14.5746 400.203 16.063C394.951 16.8849 390.032 18.1512 385.136 19.3842C379.995 20.6726 374.766 21.8723 369.313 22.8053C358.609 24.638 347.236 25.5711 335.931 24.9713C315.568 23.8938 297.586 18.3734 277.823 16.0963C273.039 15.5409 268.143 15.1855 263.224 15.1411C258.306 15.0966 253.343 15.2632 248.892 16.2074C244.753 17.0849 241.125 18.7732 240.19 21.0392C239.478 22.7275 240.279 24.527 243.818 25.1601C245.71 25.4933 247.624 25.3156 249.359 24.8602C250.049 24.6714 249.448 24.1937 248.759 24.3492L248.781 24.327Z" fill="#927A20"/>
<path d="M338.626 25.5376C345.659 27.3925 352.936 29.092 360.592 30.1916C368.247 31.2913 376.37 31.8578 383.915 30.8359C384.827 30.7137 384.427 30.0806 383.537 30.1472C375.703 30.747 368.114 30.4915 360.48 29.403C352.847 28.3145 346.148 26.6705 339.071 25.1599C338.559 25.0488 338.092 25.4043 338.626 25.5487V25.5376Z" fill="#927A20"/>
<path d="M383.046 30.5805C383.736 31.0693 384.604 31.5136 385.606 31.8468C386.095 32.0134 386.629 32.1356 387.186 32.2467C387.742 32.3577 388.343 32.4133 388.944 32.4022C389.367 32.4022 389.545 32.1023 389.167 31.9912C388.699 31.869 388.254 31.7468 387.787 31.6357C387.319 31.5247 386.852 31.3914 386.407 31.247C385.583 30.9693 384.827 30.6361 384.204 30.2362C383.981 30.0918 383.625 30.014 383.291 30.114C383.002 30.2029 382.846 30.425 383.046 30.5694V30.5805Z" fill="#927A20"/>
<path d="M384.67 30.2696C384.648 30.2141 384.603 30.1474 384.581 30.0919C384.581 30.0919 384.559 30.0141 384.581 30.0474C384.603 30.0808 384.581 30.003 384.581 30.003C384.559 29.8919 384.559 29.7698 384.559 29.6587C384.559 29.592 384.559 29.5365 384.559 29.4698C384.559 29.4476 384.559 29.4143 384.559 29.3921C384.559 29.3254 384.559 29.4476 384.559 29.381C384.603 29.2588 384.648 29.1366 384.715 29.0255C384.781 28.9145 384.87 28.8034 384.937 28.6923C384.937 28.6701 384.982 28.6368 384.937 28.6812C384.937 28.659 384.982 28.6368 385.004 28.6035C385.049 28.5479 385.115 28.4924 385.182 28.4368C385.427 28.2258 385.694 28.0036 385.85 27.7704C385.983 27.5704 385.538 27.3261 385.115 27.4038C384.003 27.626 383.379 28.248 383.09 28.7923C382.801 29.3366 382.801 29.9364 383.112 30.4806C383.224 30.6806 383.669 30.8139 384.069 30.7583C384.47 30.7028 384.715 30.4806 384.626 30.2807L384.67 30.2696Z" fill="#927A20"/>
<path d="M384.67 30.7806C384.982 30.6584 385.316 30.5584 385.672 30.4584C385.85 30.414 386.028 30.3696 386.206 30.3251C386.251 30.3251 386.295 30.3029 386.34 30.2918C386.273 30.3029 386.295 30.2918 386.362 30.2918C386.451 30.2807 386.518 30.2585 386.607 30.2474C386.963 30.1808 387.319 30.1252 387.697 30.0697C388.075 30.0141 388.454 29.9475 388.81 29.892C389.055 29.8586 389.21 29.7364 389.188 29.6143C389.144 29.481 388.943 29.4032 388.676 29.3921C388.231 29.3699 387.808 29.3699 387.363 29.4032C386.963 29.4365 386.562 29.481 386.184 29.5587C385.383 29.7142 384.626 29.9142 383.958 30.1696C383.669 30.2807 383.469 30.4807 383.714 30.6584C383.914 30.8028 384.359 30.9027 384.693 30.7806H384.67Z" fill="#927A20"/>
<path d="M384.113 30.8361C385.003 31.0472 385.916 31.2138 386.873 31.3137C387.362 31.3693 387.874 31.4137 388.386 31.4248C388.898 31.4359 389.365 31.3915 389.855 31.3137C390.367 31.236 390.411 30.8472 389.855 30.7695C389.365 30.7028 388.965 30.6584 388.475 30.6251C388.03 30.6029 387.674 30.5918 387.273 30.5473C386.45 30.4696 385.604 30.3585 384.825 30.1919C384.469 30.1141 384.046 30.1363 383.846 30.3252C383.668 30.4807 383.757 30.7362 384.113 30.8139V30.8361Z" fill="#927A20"/>
<path d="M385.248 30.2696C385.248 30.2696 385.315 30.1807 385.36 30.1252C385.404 30.0696 385.293 30.2029 385.36 30.103C385.36 30.0808 385.404 30.0585 385.404 30.0474C385.493 29.9586 385.582 29.8697 385.671 29.7808C385.849 29.6031 386.072 29.4365 386.294 29.2699C386.339 29.2366 386.406 29.1921 386.45 29.1588C386.472 29.1366 386.517 29.1144 386.561 29.0922C386.628 29.0477 386.495 29.1255 386.561 29.0922C386.695 29.0144 386.806 28.9367 386.94 28.8589C387.207 28.7034 387.474 28.5479 387.785 28.4035C388.03 28.2813 388.052 28.0592 387.785 27.937C387.496 27.8037 387.14 27.8259 386.851 27.937C386.517 28.0703 386.183 28.2036 385.916 28.3591C385.604 28.5368 385.337 28.7145 385.07 28.9033C384.581 29.2699 384.18 29.6698 383.869 30.0808C383.735 30.2585 384.002 30.4695 384.358 30.5139C384.759 30.5584 385.093 30.4584 385.226 30.2696H385.248Z" fill="#927A20"/>
<path d="M387.584 31.9911C389.454 32.0466 391.301 31.8467 392.97 31.4246C394.639 31.0025 396.197 30.3805 396.931 29.5363C397.065 29.3808 396.664 29.1698 396.397 29.3364C395.285 30.0028 394.15 30.636 392.592 31.0581C391.034 31.4801 389.32 31.7023 387.562 31.669C387.139 31.669 387.139 31.98 387.562 32.0022L387.584 31.9911Z" fill="#927A20"/>
<path d="M385.493 28.0146C387.162 27.6148 389.054 27.5148 390.879 27.6814C391.725 27.7592 392.526 27.9036 393.327 28.0702C393.772 28.159 394.195 28.2701 394.595 28.3923C394.796 28.4478 394.974 28.5145 395.174 28.5811C395.219 28.5922 395.886 28.881 395.508 28.9144C395.219 28.9477 395.352 29.1587 395.619 29.1254C395.975 29.0921 396.287 29.2476 396.109 29.4142C395.931 29.5808 396.465 29.7474 396.643 29.5697C397.088 29.1476 396.331 28.7033 395.441 28.9144L395.664 29.1032C395.953 29.0254 396.242 28.8144 396.176 28.6478C396.109 28.4256 395.575 28.259 395.263 28.1479C394.284 27.7925 393.193 27.537 391.992 27.3926C389.722 27.126 387.318 27.2371 385.271 27.8036C385.026 27.8702 385.248 28.0591 385.493 27.9924V28.0146Z" fill="#927A20"/>
<path d="M335.036 25.3711C339.777 21.0614 346.765 17.1071 355.132 14.5079C355.778 14.308 355.355 13.697 354.576 13.8636C352.44 14.2857 350.592 15.0077 348.857 15.7408C346.698 16.6628 344.695 17.6847 342.825 18.7399C339.443 20.6726 336.127 22.7941 334.213 25.2045C334.035 25.4378 334.791 25.5933 335.036 25.3711Z" fill="#927A20"/>
<path d="M355.464 14.2857C355.419 13.7636 355.597 13.2638 355.887 12.775C356.176 12.2863 356.666 11.8198 357.066 11.3533C357.266 11.12 356.777 10.9312 356.376 11.0867C355.442 11.4643 354.885 11.9975 354.529 12.564C354.173 13.1305 354.039 13.7192 354.128 14.2857C354.128 14.4634 354.418 14.6189 354.796 14.6189C355.152 14.6189 355.486 14.4634 355.464 14.2857Z" fill="#927A20"/>
<path d="M354.397 14.4191C354.842 14.9412 355.577 15.3744 356.489 15.7076C356.934 15.8742 357.424 15.9964 357.936 16.0963C358.448 16.1963 359.16 16.2519 359.694 16.163C360.183 16.0852 360.272 15.752 359.827 15.6187C359.605 15.541 359.338 15.4965 359.093 15.4521C359.026 15.441 358.959 15.4299 358.915 15.4188C359.026 15.441 358.959 15.4299 358.915 15.4188C358.759 15.3855 358.603 15.3521 358.448 15.3188C358.559 15.341 358.514 15.3299 358.448 15.3188C358.403 15.3077 358.359 15.2966 358.292 15.2855C358.18 15.2633 358.069 15.23 357.98 15.1966C357.78 15.1411 357.557 15.0745 357.379 15.0078C357.335 14.9967 357.29 14.9745 357.246 14.9634C357.068 14.8967 357.379 15.0189 357.201 14.9523C357.112 14.9189 357.023 14.8856 356.956 14.8412C356.778 14.7634 356.623 14.6746 356.467 14.5857C356.422 14.5635 356.4 14.5413 356.356 14.5191C356.422 14.5746 356.289 14.4857 356.356 14.5191C356.289 14.4635 356.2 14.408 356.133 14.3525C356 14.2525 355.888 14.1414 355.799 14.0414C355.621 13.8526 355.065 13.7971 354.731 13.897C354.33 14.0192 354.286 14.2303 354.442 14.4302L354.397 14.4191Z" fill="#927A20"/>
<path d="M355.242 14.3857C356.11 14.3746 356.978 14.308 357.802 14.1747C358.67 14.0414 359.426 13.8193 360.049 13.4971C360.205 13.4194 360.25 13.2861 360.138 13.1861C360.027 13.0973 359.76 13.0195 359.56 13.0639C359.382 13.0973 359.204 13.1306 359.003 13.1639C358.87 13.1861 358.759 13.2083 358.647 13.2417C358.647 13.2417 358.447 13.2861 358.536 13.2639C358.18 13.3416 357.802 13.4083 357.423 13.4638C357.045 13.5194 356.689 13.5749 356.311 13.6082C356.222 13.6082 356.133 13.6193 356.044 13.6304C355.955 13.6304 355.932 13.6304 355.999 13.6304C355.955 13.6304 355.888 13.6304 355.843 13.6304C355.643 13.6304 355.443 13.6526 355.242 13.6526C354.864 13.6526 354.508 13.8081 354.53 14.0081C354.552 14.208 354.842 14.3746 355.242 14.3635V14.3857Z" fill="#927A20"/>
<path d="M355.953 14.1079C356.175 13.908 356.398 13.7081 356.665 13.5303C356.732 13.4859 356.776 13.4415 356.843 13.4081C356.887 13.3859 356.91 13.3637 356.954 13.3415C356.954 13.3415 357.066 13.2637 357.021 13.2971C356.977 13.3304 357.088 13.2637 357.088 13.2526C357.132 13.2304 357.155 13.2082 357.199 13.186C357.266 13.1416 357.355 13.0971 357.422 13.0527C357.711 12.8861 358.022 12.7306 358.334 12.5751C358.69 12.4085 358.957 12.2085 359.247 12.0197C359.536 11.8309 359.046 11.5199 358.623 11.6087C358.401 11.6531 358.156 11.6976 357.933 11.7531C357.689 11.8198 357.444 11.9197 357.266 12.0086C356.932 12.1641 356.62 12.3418 356.309 12.5195C355.686 12.8972 355.174 13.3082 354.751 13.7525C354.595 13.9191 354.64 14.1524 355.018 14.2412C355.352 14.3301 355.819 14.2856 355.997 14.1079H355.953Z" fill="#927A20"/>
<path d="M355.468 14.4747C356.981 14.9301 358.739 15.2078 360.52 15.2078C360.876 15.2078 361.187 15.0634 361.187 14.8745C361.187 14.6857 360.876 14.5635 360.52 14.5413C359.029 14.4636 357.493 14.2525 356.18 13.8637C355.846 13.7638 355.401 13.8304 355.223 13.9859C355.045 14.1414 355.156 14.3636 355.468 14.4636V14.4747Z" fill="#927A20"/>
<path d="M356.333 12.0642C357.646 11.4978 359.27 11.1312 360.962 10.9868C362.653 10.8424 364.367 10.9646 366.058 11.1312C366.414 11.1645 366.681 10.9202 366.325 10.8202C364.656 10.387 362.631 10.387 360.828 10.5758C359.025 10.7646 357.267 11.1978 355.865 11.831C355.554 11.9754 356.021 12.1975 356.333 12.0642Z" fill="#927A20"/>
<path d="M359.361 15.7854C361.608 15.5966 363.589 14.9412 364.991 14.0637C365.703 13.6194 366.215 13.1418 366.571 12.6086C366.727 12.3643 367.039 11.9977 366.794 11.7422C366.638 11.5756 366.126 11.4868 365.792 11.5312C365.503 11.5645 365.636 11.7756 365.904 11.7422C366.816 11.6423 366.883 11.0536 366.037 10.8647C365.681 10.787 365.347 11.0536 365.726 11.1313C366.126 11.2202 366.104 11.4423 365.726 11.5312L365.948 11.72C366.26 11.6423 366.082 12.0977 366.082 12.1088C366.015 12.2199 365.948 12.3198 365.859 12.4309C365.703 12.6531 365.503 12.853 365.28 13.064C364.858 13.4639 364.39 13.8416 363.789 14.1748C362.588 14.8635 361.007 15.3633 359.227 15.5632C358.938 15.5966 359.071 15.7965 359.338 15.7743L359.361 15.7854Z" fill="#927A20"/>
<path d="M294.869 18.7177C290.263 15.7631 285.144 13.0417 279.536 10.5647C273.927 8.08774 268.141 5.81068 261.598 4.13344C261.086 4.00015 260.708 4.34448 261.153 4.51109C267.184 6.68818 273.304 8.7653 278.89 11.2312C284.476 13.6971 289.461 16.2962 294.068 19.1287C294.535 19.4175 295.337 19.0065 294.892 18.7177H294.869Z" fill="#927A20"/>
<path d="M289.884 16.1631C282.073 14.8635 274.84 12.6419 268.675 9.93169C265.626 8.58768 262.778 7.12147 260.241 5.53309C257.703 3.94471 255.723 2.10085 253.23 0.456924C252.941 0.268095 252.251 0.368063 252.407 0.623537C253.631 2.56736 256.346 4.33347 258.838 5.92186C261.487 7.61021 264.469 9.16527 267.718 10.5759C274.105 13.3417 281.449 15.5077 289.595 16.7295C290.307 16.8406 290.596 16.2852 289.906 16.1742L289.884 16.1631Z" fill="#927A20"/>
<path d="M291.022 16.4296C290.978 15.5187 289.62 14.4635 288.819 13.6638C287.84 12.6752 286.749 11.7088 285.525 10.7869C283.099 8.96526 280.05 7.48795 276.512 6.21058C272.773 4.86656 268.901 3.58919 264.873 2.46732C262.959 1.93416 261 1.44542 258.975 1.02333C257.217 0.656784 254.702 0.023653 252.766 0.134729C252.299 0.156944 252.098 0.44574 252.521 0.579031C253.367 0.867828 254.435 0.945581 255.414 1.10109C256.438 1.2677 257.439 1.46764 258.441 1.67868C260.399 2.10077 262.291 2.58951 264.116 3.11156C267.899 4.189 271.549 5.41083 275.11 6.66599C278.671 7.92114 281.853 9.42067 284.368 11.2534C285.525 12.0976 286.571 12.9973 287.506 13.9081C287.973 14.3635 288.44 14.8301 288.908 15.2855C289.331 15.7187 289.664 16.2185 290.354 16.5628C290.599 16.6739 291.022 16.5962 291.022 16.4296Z" fill="#927A20"/>
<path d="M279.025 30.7583C282.875 28.5701 287.459 26.6596 292.578 25.2489C295.115 24.5491 297.763 23.9604 300.501 23.4828C301.903 23.2496 303.305 23.0385 304.751 22.8608C306.198 22.6831 307.689 22.6275 309.069 22.3832C309.714 22.2721 309.647 21.7611 308.891 21.7611C307.466 21.7611 305.975 21.9944 304.596 22.1721C303.104 22.3721 301.613 22.6053 300.167 22.8719C297.429 23.3717 294.759 23.9938 292.222 24.7269C286.97 26.2375 282.318 28.148 278.491 30.4917C278.201 30.6694 278.691 30.936 279.025 30.7583Z" fill="#927A20"/>
<path d="M306.506 21.8168C304.392 21.6613 302.456 21.6057 300.297 21.7501C298.361 21.8723 296.469 22.1056 294.6 22.3944C290.639 23.0053 286.611 23.8162 283.161 24.9602C279.712 26.1043 277.13 27.6038 274.526 29.1367C273.08 29.992 271.611 30.8473 270.164 31.7136C268.918 32.4467 267.138 33.2576 266.448 34.1573C266.336 34.3017 266.715 34.4128 266.937 34.3461C268.584 33.8685 269.875 32.891 271.099 32.1802C272.39 31.436 273.681 30.6806 274.971 29.9364C277.575 28.4258 280.134 26.8485 283.45 25.7044C289.927 23.4607 298.584 22.2278 306.417 22.1278C306.751 22.1278 306.84 21.8612 306.506 21.8279V21.8168Z" fill="#927A20"/>
<path d="M266.916 34.4349C275.706 33.7129 284.631 32.6466 292.509 30.4806C296.003 29.5143 299.319 28.3369 302.145 26.9151C304.972 25.4933 307.331 23.8716 310.535 22.5942C310.869 22.4609 310.513 22.1833 310.135 22.2499C306.618 22.8275 304.371 24.5603 301.989 25.871C299.163 27.426 295.803 28.6923 292.175 29.7253C284.297 31.969 275.484 33.0243 266.76 34.1128C266.337 34.1683 266.515 34.4682 266.938 34.4349H266.916Z" fill="#927A20"/>
<path d="M333.614 25.149C326.092 23.394 319.304 20.9725 314.297 17.618C309.868 14.6412 307.064 10.598 300.232 8.73197C299.92 8.64311 299.564 8.85415 299.854 8.98744C305.951 11.6866 308.956 15.4632 313.919 18.6066C318.882 21.7501 325.603 24.327 333.236 25.6155C333.77 25.7044 334.126 25.2823 333.614 25.1601V25.149Z" fill="#927A20"/>
<path d="M326.136 23.3161C317.568 22.1276 310.558 19.2174 304.994 15.8519C301.901 13.9858 299.208 11.9642 296.649 9.9204C295.425 8.94293 294.267 7.94325 293.021 6.97689C291.931 6.12161 290.751 5.34408 288.993 4.82202C288.503 4.67762 287.991 5.01085 288.392 5.21079C291.708 6.87692 293.822 9.07623 296.315 11.0534C298.807 13.0305 301.611 15.0521 304.749 16.8737C310.335 20.1172 317.435 22.8052 325.825 23.8937C326.559 23.9937 326.871 23.4272 326.136 23.3273V23.3161Z" fill="#927A20"/>
<path d="M288.752 5.17747C298.255 6.03275 307.179 8.13208 314.167 11.4866C317.483 13.075 320.309 14.8855 322.557 16.8849C324.938 18.9953 327.453 21.6278 327.297 24.1048C327.275 24.538 328.61 24.538 328.655 24.1048C328.878 22.0943 327.386 20.095 325.74 18.2955C324.093 16.4961 322.179 14.9188 319.842 13.4193C315.035 10.3425 308.715 7.89883 301.571 6.35487C297.543 5.47737 293.27 4.91088 288.908 4.66652C288.307 4.6332 288.173 5.13304 288.774 5.18857L288.752 5.17747Z" fill="#927A20"/>
<path d="M359.032 25.1156C362.704 24.3936 364.685 22.4275 366.465 20.7947C368.758 18.7065 370.694 16.5183 373.097 14.4634C377.548 10.6535 384.447 6.988 393.972 7.09907C394.929 7.09907 394.907 6.39929 393.972 6.36597C385.137 6.05496 377.993 9.20951 373.498 12.6862C370.961 14.6411 369.002 16.7738 366.955 18.862C365.909 19.9394 364.818 21.0058 363.617 22.0388C362.415 23.0718 361.035 24.127 358.743 24.6157C358.142 24.749 358.387 25.2489 359.032 25.1267V25.1156Z" fill="#927A20"/>
<path d="M362.592 24.5491C369.869 22.5386 377.214 20.3726 383.245 17.4846C386.227 16.0518 388.808 14.3967 390.789 12.5751C391.813 11.6198 392.681 10.6312 393.371 9.59824C394.061 8.56524 394.795 7.4878 394.817 6.44369C394.817 6.04382 393.704 5.98828 393.46 6.35483C392.792 7.3434 392.525 8.39862 391.857 9.3872C391.19 10.3758 390.255 11.431 389.209 12.3862C387.228 14.1746 384.624 15.763 381.709 17.1847C375.945 20.006 368.957 22.0387 362.147 24.1492C361.635 24.3047 362.08 24.7046 362.614 24.5602L362.592 24.5491Z" fill="#927A20"/>
<path d="M363.372 24.0494C367.756 21.939 372.029 19.7841 375.924 17.4515C377.749 16.3519 379.507 15.2411 381.22 14.097C383.067 12.853 385.004 11.5978 386.406 10.1983C386.628 9.96503 386.027 9.68734 385.649 9.90949C383.802 10.9869 382.244 12.1754 380.553 13.3195C378.683 14.5858 376.769 15.8298 374.789 17.0517C371.005 19.3732 367.155 21.6946 362.971 23.8384C362.704 23.9828 363.127 24.1827 363.394 24.0494H363.372Z" fill="#927A20"/>
<path d="M371.516 23.5161C381.108 22.7052 390.455 24.2492 399.735 25.1933C404.12 25.6376 408.548 25.9153 413.022 25.8376C415.18 25.8042 417.339 25.6932 419.475 25.5043C421.612 25.3155 424.104 25.16 425.84 24.5491C426.219 24.4158 426.107 24.1159 425.596 24.1048C423.504 24.0937 421.345 24.5269 419.297 24.7046C416.961 24.9045 414.602 25.0267 412.243 25.06C407.458 25.1267 402.74 24.7601 398.066 24.2603C389.298 23.3273 380.285 22.0166 371.316 23.1051C370.804 23.1718 371.027 23.5383 371.538 23.4939L371.516 23.5161Z" fill="#927A20"/>
<path d="M374.946 23.0607C382.824 21.2279 391.503 19.9394 400.294 20.1394C404.701 20.2393 408.951 20.7614 413.046 21.5722C417.141 22.3831 420.991 23.616 425.108 24.4713C425.932 24.6491 426.355 24.0048 425.687 23.7827C423.751 23.1273 421.547 22.6164 419.456 22.0832C417.364 21.55 415.361 21.1057 413.246 20.6948C409.018 19.8839 404.567 19.3952 400.027 19.3285C391.081 19.2063 382.268 20.5392 374.545 22.7274C374.122 22.8496 374.501 23.1495 374.924 23.0496L374.946 23.0607Z" fill="#927A20"/>
<path d="M373.984 22.9607C381.573 21.8944 389.251 21.5168 397.107 21.8833C401.068 22.0721 405.029 22.4165 408.902 22.8719C412.774 23.3273 416.379 23.9271 420.163 24.3936C420.697 24.4603 421.12 24.0493 420.563 23.9271C413.397 22.3165 405.185 21.4945 397.374 21.1724C389.562 20.8503 381.217 21.1058 373.761 22.5164C373.227 22.6164 373.428 23.0385 374.006 22.9496L373.984 22.9607Z" fill="#927A20"/>
<path d="M435.073 16.6628C445.956 16.6516 456.683 16.896 466.942 18.8954C475.466 20.5504 483.211 23.2162 489.42 26.5707C492.936 28.4812 495.673 30.6139 498.433 32.791C498.833 33.1131 499.724 32.8354 499.434 32.5022C497.587 30.3917 494.761 28.4812 491.734 26.7595C488.708 25.0379 485.236 23.4495 481.497 22.0833C473.708 19.2397 464.672 17.3514 455.125 16.6183C448.493 16.1074 441.75 16.0518 435.073 16.2629C434.561 16.274 434.539 16.6739 435.073 16.6739V16.6628Z" fill="#927A20"/>
<path d="M438.036 17.0626C446.093 18.9732 453.214 21.6834 460.67 24.1049C468.125 26.5263 476.448 28.6145 484.816 30.3806C487.086 30.8583 489.356 31.3248 491.648 31.7691C494.074 32.2467 496.567 32.8243 499.104 33.1131C499.838 33.1909 500.35 32.6799 499.638 32.4911C497.702 31.9912 495.543 31.658 493.518 31.2692C491.359 30.8583 489.223 30.4362 487.086 30.003C482.724 29.1144 478.429 28.148 474.223 27.0928C466.166 25.0823 458.845 22.5609 451.233 20.1617C447.094 18.8621 442.843 17.6402 438.326 16.6961C437.903 16.6072 437.613 16.9627 438.014 17.0626H438.036Z" fill="#927A20"/>
</svg>
