<svg width="280" height="580" viewBox="0 0 280 580" fill="none" xmlns="http://www.w3.org/2000/svg">
<path fill-rule="evenodd" clip-rule="evenodd" d="M0.478153 510.342C1.01293 510.672 1.5477 510.906 2.08248 511.207C2.16056 511.154 2.24307 511.117 2.32779 511.097C33.2711 506.757 67.5801 485.806 96.4432 513.157C96.627 513.325 96.7624 513.589 96.8232 513.898C96.8839 514.207 96.8656 514.538 96.7719 514.828C96.8973 514.728 97.037 514.676 97.1791 514.674C97.3444 514.662 97.5083 514.725 97.6486 514.857C97.789 514.988 97.8991 515.18 97.9641 515.407H114.302C114.407 515.33 114.523 515.289 114.64 515.289C114.758 515.289 114.873 515.33 114.979 515.407H138.038C142.895 506.882 151.451 499.236 155.102 496.348C155.185 496.274 155.263 496.23 155.347 496.165C136.512 500.665 116.848 503.664 98.4792 494.244C91.148 490.529 84.4216 484.553 78.7367 476.702C78.62 476.666 78.5087 476.599 78.408 476.504C75.4398 473.572 72.3685 470.705 68.8262 470.361C68.7185 470.476 68.5904 470.542 68.4578 470.55C68.3252 470.558 68.194 470.507 68.0805 470.405C68.1145 470.709 68.0694 471.021 67.9545 471.277C67.8396 471.533 67.6635 471.714 67.4623 471.783C65.4606 472.589 63.2185 473.352 61.31 471.71C60.1668 470.727 58.9207 468.469 59.3475 466.358C59.7743 464.247 61.9331 463.947 63.1743 464.1C65.1368 464.35 66.9619 465.911 68.5417 467.663C70.4936 467.798 72.4073 468.519 74.1691 469.782C72.6678 467.275 71.2254 464.65 69.8615 461.901C69.7021 462.063 69.5086 462.131 69.3177 462.093C69.1268 462.055 68.9519 461.914 68.8262 461.696C66.8788 458.568 64.3756 456.333 61.6092 455.252C58.0768 458.302 50.9677 458.83 49.7363 451.301C49.6887 451.01 49.7119 450.702 49.8018 450.434C49.8916 450.165 50.0422 449.953 50.2269 449.835C50.3063 449.591 50.4423 449.398 50.6096 449.293C52.5448 447.979 54.6955 447.541 56.7954 448.035C58.8953 448.529 60.8521 449.932 62.4237 452.071C62.5183 452.189 62.5929 452.339 62.6415 452.509C62.6901 452.678 62.7113 452.862 62.7033 453.046C64.2684 453.739 65.7563 454.774 67.1189 456.117C65.0779 451.638 63.1302 446.94 61.2315 442.035C58.7784 440.041 54.716 431.853 58.8274 428.965C62.9388 426.077 63.243 438.238 63.4 441.493C63.4101 441.693 63.39 441.893 63.3411 442.079C65.1613 446.712 67.0355 451.162 68.998 455.399C68.7424 451.207 68.8977 446.981 69.4592 442.856C69.3449 442.727 69.2553 442.555 69.1991 442.358C68.4877 439.169 67.8499 435.453 69.2727 432.469C69.5586 431.893 69.9184 431.407 70.3311 431.041C70.7439 430.675 71.2013 430.435 71.6767 430.336C71.8617 430.152 72.0813 430.062 72.303 430.08C72.5247 430.097 72.7369 430.22 72.9082 430.431C73.177 430.505 73.4378 430.633 73.6834 430.812C75.2337 432.19 75.4251 435.211 74.9541 437.578C74.6438 439.031 74.1441 440.377 73.484 441.54C72.8238 442.702 72.0162 443.658 71.1076 444.352C70.5263 449.021 70.5114 453.808 71.0635 458.485C71.0997 458.81 71.0561 459.143 70.9408 459.424C74.2805 466.259 78.171 472.453 82.5243 477.867C81.5975 473.52 81.042 469.015 80.8709 464.46C80.8709 464.46 80.8709 464.416 80.8709 464.386C79.9437 461.894 78.6092 459.585 78.6779 456.594C78.7367 454.285 79.6591 451.895 81.3468 451.682C83.167 451.448 84.6585 453.926 84.9284 456.447C85.2473 459.431 83.9864 462.07 82.7745 464.291C82.7882 464.524 82.7576 464.758 82.6862 464.965C82.9154 470.173 83.6713 475.299 84.9284 480.169C84.975 480.344 84.9951 480.531 84.9872 480.719C88.7009 484.758 92.7475 488.064 97.027 490.557C97.311 486.444 97.1453 482.289 96.5364 478.256C94.7269 477.807 93.0393 476.602 91.6685 474.781C90.2977 472.96 89.2997 470.596 88.7895 467.964C87.3177 460.802 88.9269 453.53 90.9139 446.976C90.8648 445.979 91.5517 445.056 92.1208 445.51C92.2814 445.59 92.4254 445.73 92.5388 445.918C92.6523 446.105 92.7314 446.334 92.7684 446.58C97.3557 455.304 101.815 465.64 98.2879 476.775C98.3615 477.098 98.3615 477.449 98.2879 477.772C98.9775 482.278 99.1435 486.927 98.7785 491.517C99.5439 491.92 100.304 492.331 101.099 492.697C119.743 501.252 139.534 497.411 158.384 492.741C158.566 492.69 158.754 492.722 158.924 492.833C159.094 492.944 159.237 493.129 159.336 493.364C164.12 490.252 169.093 487.829 174.187 486.129C168.412 486.499 162.627 486.36 156.863 485.711C151.78 485.103 134.859 485.616 136.046 473.249C137.317 460.054 150.568 462.583 156.397 463.639C161.372 464.533 166.322 465.699 171.263 466.945C169.452 466.212 167.647 465.479 165.866 464.621C162.171 462.891 151.554 458.581 152.516 450.634C153.59 441.786 165.581 442.798 169.231 444.535C176.174 447.848 183.008 453.955 189.612 460.149C182.129 451.307 174.958 441.892 168.127 431.941C164.816 427.088 151.844 410.631 157.005 402.509C163.108 392.906 171.827 405.705 175.207 412.684C183.057 428.811 190.843 444.696 199.498 459.805C193.852 445.305 189.154 430.026 185.471 414.179C183.783 406.849 180.388 396.454 182.007 388.588C183.082 383.354 186.913 376.456 190.539 374.909C199.169 371.244 200.538 396.168 201.637 403.645C203.663 417.449 204.894 431.457 205.861 445.503C206.131 431.575 206.636 417.734 207.244 403.85C207.5 397.869 207.485 382.386 214.54 388.383C217.101 390.582 218.465 394.665 219.171 399.452V341.606C218.166 334.859 216.131 328.549 213.225 323.17C213.094 323.162 212.965 323.112 212.847 323.023C209.288 320.431 205.353 319.199 201.396 319.439C201.383 319.701 201.318 319.951 201.208 320.158C201.099 320.364 200.951 320.517 200.783 320.597C198.683 321.535 192.344 323.287 193.281 317.056C193.434 316.137 193.756 315.301 194.21 314.641C194.664 313.982 195.233 313.526 195.852 313.325C197.388 312.863 198.835 314.058 200.081 315.326C201.077 315.476 202.062 315.755 203.025 316.162C203.129 316.206 203.226 316.281 203.31 316.381C203.394 316.482 203.464 316.607 203.516 316.748C205.94 316.922 208.335 317.611 210.63 318.793C210.365 318.39 210.095 317.994 209.825 317.599C209.682 317.602 209.541 317.541 209.421 317.423C209.301 317.305 209.208 317.137 209.153 316.939C209.099 316.778 209.074 316.602 209.021 316.44C204.114 309.704 197.991 304.491 191.726 300.636C191.643 300.575 191.566 300.498 191.496 300.408C191.352 300.615 191.165 300.74 190.966 300.76C185.451 301.42 173.882 297.872 175.595 286.172C176.256 286.001 176.899 285.692 177.503 285.256C180.686 284.747 183.897 285.689 186.715 287.958C189.533 290.226 191.825 293.716 193.291 297.967C193.377 298.218 193.406 298.503 193.375 298.781C194.935 299.793 196.49 300.855 198.006 302.028C195 295.527 192.828 288.25 191.599 280.564C191.466 280.739 191.301 280.848 191.125 280.877C190.95 280.906 190.772 280.853 190.617 280.726C187.841 278.527 186.467 274.913 185.991 270.324C185.167 262.326 186.025 253.463 186.168 245.4C186.202 243.677 187.993 243.67 187.963 245.4C191.381 249.166 193.794 254.62 194.776 260.793C195.758 266.966 195.244 273.46 193.326 279.12C193.326 279.194 193.262 279.223 193.237 279.289C194.583 288.234 197.266 296.607 201.087 303.78C201.23 304.05 201.3 304.39 201.283 304.733C203.547 306.702 205.714 308.907 207.769 311.331C207.236 308.511 206.959 305.597 206.945 302.666C205.971 300.911 205.249 298.874 204.825 296.683C204.4 294.493 204.283 292.195 204.479 289.933C204.676 287.671 205.182 285.494 205.967 283.538C206.752 281.582 207.798 279.888 209.04 278.563C209.859 277.698 210.63 279.296 210.232 280.396C211.727 283.775 212.462 287.777 212.331 291.822C212.201 295.867 211.211 299.745 209.506 302.893C209.419 303.085 209.291 303.227 209.143 303.296C208.996 303.365 208.836 303.358 208.692 303.275C208.784 307.264 209.401 311.187 210.507 314.82C214.202 319.809 217.154 325.903 219.171 332.707V274.062C218.92 274.094 218.671 273.98 218.474 273.743C218.278 273.507 218.15 273.167 218.117 272.794C217.985 271.012 217.605 269.29 217.001 267.741C216.397 266.191 215.582 264.849 214.609 263.799L214.515 263.704C214.471 263.66 214.422 263.623 214.378 263.572C212.459 263.498 210.598 262.574 209.03 260.918C207.833 259.621 206.283 257.458 207.176 255.054C208.069 252.65 210.164 253.097 211.474 254.431C213.211 256.312 214.647 258.745 215.678 261.556C217.245 263.283 218.455 265.632 219.171 268.337V256.168C219.031 256.067 218.911 255.91 218.824 255.716C218.738 255.521 218.688 255.295 218.681 255.061C218.409 250.718 217.041 246.692 214.854 243.801C214.778 243.971 214.675 244.109 214.554 244.204C214.433 244.299 214.299 244.347 214.162 244.344C211.565 244.442 209.047 243.014 207.147 240.367C205.247 237.72 204.118 234.066 204.002 230.189C204.003 229.835 204.097 229.496 204.264 229.245C204.431 228.994 204.658 228.851 204.894 228.847C210.061 229.463 215.197 233.605 216.1 241.837C216.1 241.837 216.1 241.888 216.1 241.918C217.399 243.664 218.451 245.78 219.196 248.141V230.438C219.021 230.375 218.868 230.215 218.769 229.99C218.67 229.766 218.631 229.494 218.661 229.228C218.892 225.82 219.014 222.418 219.059 219.031C214.408 208.036 206.989 199.891 200.94 190.713C195.597 182.744 190.665 174.182 186.187 165.1C177.248 146.678 171.223 125.581 170.409 102.71C170.412 102.476 170.455 102.247 170.535 102.045C170.615 101.844 170.728 101.677 170.864 101.56C171 101.444 171.154 101.381 171.31 101.38C171.467 101.378 171.621 101.437 171.758 101.551C183.831 109.827 194.422 122.251 202.666 137.811C210.911 153.371 216.575 171.624 219.196 191.08V130.236C217.494 102.38 207.74 78.5113 193.684 62.8605C193.583 62.9914 193.465 63.0881 193.337 63.1438C193.209 63.1995 193.075 63.2129 192.943 63.183C188.336 62.1846 183.638 62.7713 179.206 64.8984C179.228 65.0557 179.227 65.2184 179.204 65.3754C179.18 65.5323 179.134 65.6796 179.068 65.8074C177.164 69.9576 174.541 73.2567 171.479 75.3523C168.418 77.4478 165.033 78.261 161.686 77.7049C160.979 78.3207 159.905 77.1624 160.449 75.9162C162.343 71.4898 164.969 67.868 168.073 65.4012C171.178 62.9343 174.655 61.7057 178.17 61.8342C178.299 61.831 178.426 61.8724 178.542 61.9551C178.657 62.0378 178.759 62.1595 178.838 62.3107C182.854 60.4692 187.07 59.7997 191.255 60.3387C182.926 51.9335 173.421 46.4849 163.467 44.4094C163.467 44.4094 163.432 44.4753 163.403 44.4973C161.72 45.8975 161.288 48.8224 160.072 50.8749C159.161 52.4044 158.007 53.5644 156.716 54.247C154.331 55.5005 150.936 55.244 149.41 51.7839C147.762 48.0453 149.901 44.1601 152.143 42.4668C154.763 40.4728 157.746 40.6488 160.592 41.3378C160.733 41.2196 160.896 41.1709 161.058 41.1986C165.259 41.8514 169.42 43.001 173.5 44.6366C167.725 39.0873 161.759 34.1172 155.386 30.7085C148.64 33.9853 134.859 34.5864 133.985 20.0058C133.902 18.5397 135.192 18.3418 135.634 19.3754C139.117 18.219 142.734 18.3186 146.186 19.6661C149.637 21.0135 152.825 23.5699 155.484 27.1238C155.581 27.2388 155.658 27.3882 155.707 27.5584C155.755 27.7286 155.775 27.9144 155.764 28.0988C164.325 32.6438 172.16 39.8937 179.804 47.6788H179.873C177.405 43.2511 174.864 38.9261 172.195 34.7403C168.093 30.9797 159.331 22.3809 165.611 18.3638C172.646 13.8701 173.696 32.7391 176.488 37.1814C176.576 37.3128 176.643 37.4716 176.686 37.6464C176.728 37.8212 176.744 38.0078 176.733 38.193C178.98 41.9096 181.173 45.6776 183.278 49.5774C183.305 49.6409 183.33 49.707 183.351 49.7754C189.712 53.9061 195.511 59.7478 200.459 67.0096C205.47 74.5642 209.707 83.1826 213.034 92.586C210.512 76.9719 207.083 62.1934 199.385 50.2665C198.564 48.991 197.766 47.735 196.991 46.4986C192.266 41.3012 184.725 42.6793 180.992 35.2681C180.873 35.0582 180.814 34.7868 180.827 34.5125C180.841 34.2383 180.927 33.9831 181.065 33.802C180.913 33.2139 180.916 32.5612 181.075 31.9769C181.234 31.3926 181.535 30.9207 181.919 30.6572C183.072 29.9241 184.455 31.4782 185.275 32.5411C186.418 34.0513 187.266 35.9971 187.728 38.171C187.764 38.3338 187.777 38.506 187.767 38.6768C189.867 39.7031 192.104 40.4288 193.973 41.4185C190.873 35.9205 188.385 30.21 186.83 23.158C186.683 23.1625 186.538 23.1135 186.408 23.0151C186.277 22.9167 186.164 22.772 186.079 22.5935C184.014 18.2685 181.884 13.7015 181.242 8.37217C180.918 5.67451 180.805 1.1442 183.067 0.154575C185.417 -0.871708 187.159 3.45334 187.875 6.01905C189.219 10.8939 188.93 16.3918 188.606 21.5086C188.594 21.7062 188.556 21.8982 188.493 22.073C190.99 33.0689 195.96 39.9963 200.891 48.3019C201.789 42.4374 200.602 36.8442 199.959 30.9944C199.91 30.5765 199.9 30.166 199.861 29.7555C193.865 24.7854 194.91 13.5549 197.52 5.56455C197.59 5.38909 197.686 5.23969 197.801 5.12762C197.915 5.01555 198.045 4.94375 198.18 4.91763C198.316 4.89151 198.454 4.91175 198.583 4.97683C198.713 5.04191 198.831 5.15013 198.929 5.29332C203.251 11.2897 205.213 20.365 201.583 27.8569C201.583 28.0401 201.617 28.2234 201.632 28.414C201.721 28.65 201.749 28.9264 201.71 29.1911C201.961 31.7494 202.24 34.3225 202.554 36.9102C203.113 41.5284 203.359 45.7069 202.432 50.2738C202.397 50.43 202.342 50.5744 202.27 50.699C203.217 52.3557 204.149 54.0784 205.051 55.9184C205.542 56.9667 206.033 58.0663 206.494 59.1585C206.94 55.8484 207.208 52.4899 207.294 49.1156C207.185 49.0711 207.085 48.9906 207 48.8802C206.915 48.7698 206.847 48.6323 206.803 48.4778C205.851 45.5896 204.89 42.5401 205.115 39.234C205.257 37.1961 206.096 33.7727 207.725 33.5161C209.438 33.2449 210.213 36.8369 210.438 38.7941C210.598 40.2214 210.564 41.6823 210.337 43.0892C210.11 44.4961 209.696 45.8203 209.119 46.9824C209.107 52.2237 208.674 57.4438 207.828 62.5306C211.753 73.0427 213.775 85.0062 215.531 96.6692C215.584 96.9925 215.552 97.3335 215.443 97.6234C215.334 97.9133 215.155 98.1303 214.942 98.2306C217.827 107.388 219.759 117.15 220.673 127.179H220.967V260.237C222.202 255.924 223.782 251.85 225.672 248.105C225.668 247.827 225.725 247.555 225.834 247.33C225.943 247.105 226.098 246.94 226.276 246.858L226.447 246.506C226.426 246.42 226.414 246.328 226.413 246.235C226.447 241.5 226.859 235.379 229.043 231.625C230.47 229.177 233.164 227.96 234.891 230.496C236.981 233.517 235.416 238.56 234.067 241.529C232.437 245.019 230.11 247.649 227.419 249.043C224.475 255.12 221.723 261.505 221.35 269.217C221.343 269.415 221.306 269.608 221.243 269.782C221.179 269.955 221.09 270.106 220.982 270.221V275.631C222.203 272.772 223.695 270.228 225.78 269.099C226.331 266.352 227.384 263.889 228.822 261.989C229.941 260.559 231.594 259.65 232.531 261.915C233.296 263.733 232.771 266.196 231.932 267.736C230.804 269.796 229.043 270.837 227.36 271.46C227.176 271.527 226.983 271.501 226.81 271.386C224.254 272.325 222.763 276.21 221.536 279.45C221.482 279.611 221.403 279.751 221.307 279.86C221.211 279.969 221.1 280.045 220.982 280.081V337.303C224.195 296.611 236.682 257.788 262.091 237.952C263.111 237.145 264.019 239.462 262.994 240.268L262.758 240.473C262.789 240.603 262.803 240.739 262.802 240.877C262.469 263.653 260.54 285.754 251.459 304.741C247.618 312.804 243.03 319.93 238.428 326.989C233.316 334.833 223.533 346.166 221.909 357.822C221.909 358.085 221.909 358.342 221.909 358.606C221.906 358.848 221.859 359.084 221.772 359.288C221.723 359.749 221.692 360.214 221.678 360.68C221.677 360.973 221.608 361.256 221.483 361.48C221.358 361.705 221.184 361.858 220.992 361.912V427.814C223.955 420.327 227.154 413.048 230.588 405.976C234.698 397.501 239.117 389.372 243.825 381.624C246.151 377.819 248.942 371.412 252.715 375.43C255.806 378.728 254.678 386.132 254.005 390.677C252.386 401.314 248.609 411.086 244.684 420.139C236.956 437.894 227.144 453.332 217.165 468.301C226.163 461.095 234.994 453.412 243.565 445.1C250.851 438.033 257.881 429.39 267.051 431.399C267.202 431.457 267.34 431.575 267.451 431.74C267.561 431.905 267.64 432.111 267.679 432.337C269.533 446.155 260.933 459.394 253.343 465.559C248.643 469.371 243.241 471.262 238.168 473.586L231.506 476.636C240.445 475.238 249.443 474.854 258.421 475.485C263.641 475.859 269.004 477.156 273.488 481.437C275.808 483.637 280.096 488.511 279.998 493.291C279.758 504.668 261.085 499.625 257.067 499.243C249.956 498.559 242.878 497.242 235.872 495.299C250.87 504.331 266.604 517.042 260.315 527.877C254.947 537.135 245.341 527.085 240.263 522.635C230.176 513.719 220.788 503.146 212.273 491.114C213.57 500.456 215.675 509.507 218.534 518.039C220.629 524.167 223.332 529.856 225.172 536.182C227.33 543.601 227.904 553.204 220.967 554.663C214.265 556.077 210.703 546.254 208.854 538.315C207.326 531.636 206.357 524.7 205.969 517.665C205.012 530.86 204.276 543.997 203.202 557.199C202.544 565.226 196.986 581.734 189.641 577.131C182.493 572.652 187.286 554.149 189.185 547.185C190.603 541.973 192.025 536.791 193.429 531.615C192.571 534.314 191.502 536.851 190.245 539.173C183.376 551.488 172.043 552.177 162.196 550.755C161.96 550.746 161.735 550.602 161.568 550.352C161.401 550.103 161.304 549.767 161.298 549.414C161.077 543.711 164.05 541.812 166.543 538.088C170.208 532.612 172.68 525.626 176.066 519.82C177.39 517.54 178.818 515.422 180.275 513.355C175.038 518.75 169.5 523.461 163.722 527.437C157.937 531.322 139.495 544.363 135.138 530.875C133.666 526.367 134.937 521.418 137.405 516.69H115.523C115.53 516.865 115.513 517.04 115.473 517.205C115.434 517.37 115.372 517.522 115.293 517.65C112.006 523.104 108.763 528.72 105.338 534.049C105.427 534.197 105.494 534.372 105.534 534.562C106.394 538.66 106.562 543.011 106.025 547.229C106.487 548.151 106.818 549.203 106.999 550.323C107.179 551.442 107.205 552.604 107.075 553.739C106.967 554.62 106.768 555.47 106.486 556.261C106.457 556.349 106.442 556.437 106.408 556.525C106.373 556.612 106.378 556.569 106.359 556.598C105.789 558.064 104.926 559.23 103.802 559.296C102.208 559.391 101.462 557.052 101.482 554.963C101.482 552.09 102.664 549.297 103.935 547.237C104.026 547.086 104.141 546.97 104.269 546.899C104.726 543.342 104.62 539.674 103.959 536.189C100.768 541.08 97.2687 545.499 93.5093 549.385C93.5695 549.643 93.5695 549.925 93.5093 550.184C92.2827 556.048 90.9286 562.015 88.6521 566.978C88.7979 567.126 88.9096 567.338 88.9719 567.585C89.0342 567.832 89.0442 568.101 89.0005 568.356C88.348 572.689 84.4426 583.245 80.4932 579.022C76.6712 574.932 83.2308 569.412 86.3119 567.176C88.765 562.704 90.1436 557.118 91.3407 551.51C87.2882 555.176 83.0689 557.375 78.6779 559.926C73.9041 562.66 69.2678 566.523 64.1261 567.476C60.5642 568.151 54.6277 568.107 56.7668 560.293C59.5683 550.03 70.5042 555.161 75.1062 558.057C75.2673 558.157 75.4064 558.323 75.5079 558.536C75.6093 558.748 75.669 558.998 75.6802 559.259C79.3745 557.184 83.1131 554.934 86.4738 552.478C89.186 550.46 91.7677 548.072 94.1863 545.345C92.3895 544.839 90.5641 544.593 88.7355 544.612C88.6563 544.789 88.5483 544.933 88.4216 545.03C86.3266 546.694 83.7901 547.618 81.4352 546.687C79.8799 546.064 78.2118 544.231 78.4227 541.555C79.0556 533.389 88.0585 539.921 90.4233 541.863C90.4593 541.902 90.4922 541.946 90.5214 541.995C92.3586 542.135 94.1832 542.528 95.9722 543.168H96.0212C102.453 535.434 107.924 525.897 113.458 516.69H97.9396C97.8714 516.899 97.7643 517.074 97.631 517.193C97.4978 517.313 97.3443 517.372 97.1889 517.365C97.1238 517.356 97.0596 517.337 96.9976 517.306C81.7743 527.517 65.2115 532.494 48.5298 531.87C31.8481 531.245 15.4728 525.036 0.61062 513.699C0.493162 513.603 0.393215 513.465 0.319439 513.298C0.245663 513.131 0.200285 512.939 0.187236 512.74C0.174187 512.541 0.193862 512.34 0.244555 512.154C0.295248 511.969 0.37543 511.805 0.478153 511.676L0.277 511.573C-0.213619 511.273 0.00225312 510.071 0.497778 510.371M51.7772 451.536C52.7585 454.857 55.7414 455.238 58.2289 454.395C57.5567 453.742 57.6941 451.858 58.6704 451.939C58.8765 451.939 59.0678 452.049 59.269 452.078C58.1213 451.171 56.8548 450.65 55.5581 450.551C54.2614 450.452 52.966 450.778 51.7625 451.506L51.7772 451.536ZM92.1159 449.689C89.756 458.632 88.3234 472.912 96.0801 475.5C95.7524 473.886 95.3542 472.307 94.8879 470.771C94.3973 469.21 95.9575 467.839 96.4383 469.415C96.8062 470.61 97.0761 471.827 97.3655 473.08C99.0238 464.518 95.6042 456.447 92.1012 449.659L92.1159 449.689ZM187.816 248.676C187.325 258.206 185.937 273.322 191.201 278.109C190.76 274.775 190.492 271.395 190.397 268C190.348 266.277 192.143 266.277 192.192 268C192.262 270.159 192.405 272.312 192.619 274.451C193.615 269.927 193.691 265.062 192.836 260.474C191.981 255.886 190.234 251.78 187.816 248.676ZM177.513 287.917C177.429 287.924 177.344 287.911 177.263 287.88C176.772 296.677 187.075 298.524 190.976 298.055C191.068 298.049 191.161 298.067 191.25 298.107C189.861 294.605 187.824 291.78 185.383 289.972C182.943 288.164 180.204 287.45 177.498 287.917H177.513ZM208.913 282.287C207.545 284.325 206.635 286.947 206.308 289.792C205.981 292.636 206.253 295.562 207.087 298.165C207.146 297.373 207.161 296.589 207.259 295.79C207.47 294.089 209.197 294.808 208.986 296.523C208.868 297.65 208.788 298.785 208.746 299.924C209.902 297.317 210.531 294.267 210.558 291.139C210.585 288.012 210.009 284.938 208.898 282.287H208.913ZM205.969 231.794C206.262 234.256 207.064 236.518 208.263 238.263C209.462 240.008 210.996 241.148 212.651 241.522C212.254 241.198 211.844 240.909 211.425 240.657C210.355 240.041 210.821 237.446 211.915 238.069C212.513 238.412 213.093 238.819 213.652 239.286C212.195 234.961 209.202 232.549 205.939 231.794H205.969ZM163.064 75.1026C165.582 75.2583 168.09 74.5618 170.401 73.0652C172.713 71.5685 174.769 69.3105 176.414 66.4598C174.659 67.5917 172.974 68.948 171.375 70.5136C170.394 71.4666 169.506 69.1428 170.468 68.1971C171.697 67.0147 172.975 65.9496 174.295 65.0083C169.849 66.2019 165.853 69.7943 163.064 75.1026ZM136.036 21.9484C137.699 30.8551 146.55 30.8111 152.251 29.0958C149.21 27.7299 146.089 26.802 142.929 26.3248C141.791 26.1562 141.781 23.4732 142.929 23.6418C145.867 24.0975 148.774 24.9264 151.618 26.1195C149.336 23.9134 146.783 22.4083 144.108 21.6922C141.433 20.976 138.689 21.0631 136.036 21.9484ZM198.565 8.6434C196.902 14.5592 196.24 21.9778 199.586 26.2368C199.348 22.972 199.225 19.6907 199.218 16.4065C199.218 16.0507 199.313 15.7095 199.481 15.4579C199.649 15.2063 199.878 15.065 200.116 15.065C200.354 15.065 200.582 15.2063 200.751 15.4579C200.919 15.7095 201.014 16.0507 201.014 16.4065C201.014 18.745 201.112 21.0394 201.249 23.3192C202.539 18.2172 201.063 12.7339 198.565 8.6434ZM206.199 487.991C206.276 487.714 206.419 487.49 206.601 487.362C206.782 487.235 206.989 487.213 207.181 487.302C207.772 487.536 208.39 487.587 208.995 487.454C209.601 487.32 210.182 487.004 210.703 486.525H210.747C211.353 486.009 211.867 485.285 212.247 484.413C212.628 483.541 212.864 482.546 212.936 481.511C212.946 481.323 212.982 481.14 213.041 480.973C213.1 480.806 213.181 480.659 213.279 480.54C213.377 480.422 213.49 480.334 213.612 480.283C213.733 480.232 213.86 480.218 213.986 480.242C213.964 478.7 213.758 477.176 213.377 475.741C213.226 475.229 213.044 474.738 212.833 474.275C212.732 474.21 212.639 474.121 212.558 474.011C212.4 473.898 212.265 473.723 212.167 473.505C212.07 473.287 212.013 473.034 212.003 472.773C210.041 470.053 207.043 470.5 204.242 469.452C204.174 469.308 204.076 469.201 203.964 469.145C203.852 469.09 203.731 469.089 203.619 469.144C203.519 469.272 203.404 469.371 203.28 469.437C202.248 471.19 201.568 473.342 201.318 475.646C201.399 475.796 201.459 475.97 201.493 476.155C201.528 476.341 201.536 476.536 201.518 476.727C201.501 476.918 201.456 477.102 201.389 477.267C201.322 477.431 201.232 477.573 201.126 477.684C201.023 479.158 201.1 480.649 201.352 482.082C201.473 482.664 201.648 483.216 201.872 483.724C202.038 483.793 202.186 483.936 202.297 484.134C202.407 484.332 202.475 484.575 202.49 484.831C203.52 486.353 204.799 487.443 206.199 487.991ZM153.703 465.889C152.029 465.553 150.344 465.367 148.655 465.332C146.31 465.376 136.389 466.652 139.402 474.942C139.427 474.843 139.472 474.757 139.531 474.697C139.589 474.636 139.659 474.604 139.73 474.605C149.091 474.4 158.434 474.83 167.759 475.895C168.289 475.954 168.289 477.193 167.759 477.134C158.438 476.064 149.106 475.634 139.765 475.844C140.413 477.246 141.173 478.526 142.027 479.656C144.45 482.977 154.032 482.72 156.858 483.057C161.944 483.63 167.047 483.804 172.146 483.578C181.242 483.226 190.299 481.848 199.35 480.455C199.35 480.22 199.306 480.008 199.301 479.781L185.844 480.888C185.309 480.924 185.314 479.685 185.844 479.649L199.292 478.52C199.292 478.278 199.292 478.021 199.292 477.787C189.837 474.854 180.378 471.922 170.86 469.54C165.184 468.096 159.439 466.798 153.713 465.889H153.703ZM169.756 447.841C166.234 445.957 163.707 445.561 160.057 446.969C157.51 446.536 156.402 447.878 156.701 450.971L168.334 454.409C168.858 454.563 168.638 455.751 168.118 455.604L156.735 452.247C156.034 454.915 156.593 456.645 158.482 457.276C162.79 463.089 172.337 464.496 177.827 466.556L196.824 473.682L183.857 467.084C183.366 466.827 183.567 465.618 184.073 465.889L199.699 473.843C199.767 473.484 199.856 473.146 199.934 472.802C199.91 472.802 199.885 472.802 199.856 472.758L179.799 455.626C176.546 452.841 173.323 449.732 169.766 447.841H169.756ZM177.022 421.451C175.477 418.123 174.044 414.656 172.322 411.525C171.112 408.851 169.57 406.549 167.779 404.745C164.791 400.999 162.382 401.226 160.493 405.368C166.188 415.818 172.504 425.477 179.363 434.228C179.77 434.749 179.181 435.621 178.774 435.108C171.923 426.351 165.616 416.686 159.929 406.233C157.388 409.795 158.335 410.272 160.199 414.399C161.814 417.883 163.606 421.174 165.562 424.244C168.795 429.449 172.288 434.309 175.786 439.103C183.769 449.989 192.145 460.213 200.876 469.73C200.916 469.635 200.945 469.525 200.984 469.43C196.624 464.348 192.548 458.743 188.797 452.672C188.439 452.086 189.023 451.206 189.381 451.8C193.107 457.839 197.157 463.414 201.49 468.47C201.588 468.279 201.686 468.088 201.789 467.912C195.936 458.185 190.308 448.171 184.995 437.762C182.261 432.41 179.606 426.969 177.032 421.436L177.022 421.451ZM199.341 400.691C198.86 397.641 198.333 394.611 197.761 391.601C196.475 384.776 197.103 382.943 191.976 381.543C189.646 379.263 187.885 379.601 186.673 382.496C187.929 400.192 192.899 416.041 198.099 431.831C198.335 432.564 197.609 433.173 197.383 432.454C192.398 417.317 187.688 402.12 186.099 385.341L183.95 397.803C184.063 400.859 185.422 405.36 186.02 408.271C187.492 415.154 189.165 421.92 191.02 428.591C194.656 441.546 198.978 454.047 203.943 465.977C204.071 466.051 204.187 466.164 204.285 466.309C204.382 466.454 204.458 466.628 204.507 466.82H204.571C201.472 458.69 199.365 449.801 198.35 440.569C198.266 439.792 199.066 439.455 199.149 440.239C200.165 449.407 202.268 458.23 205.361 466.292C204.507 451.763 203.653 437.219 202.176 422.8C201.416 415.389 200.498 407.992 199.35 400.676L199.341 400.691ZM216.841 397.993L213.25 396.945C213.194 405.219 213.031 413.492 212.759 421.766C212.759 422.558 211.905 422.565 211.935 421.766C212.21 413.419 212.373 405.065 212.425 396.703L209.408 395.823C209.349 397.158 209.29 398.492 209.227 399.826C208.662 402.597 208.918 406.863 208.795 409.839C208.54 415.851 208.306 421.862 208.093 427.873C207.684 439.978 207.483 452.088 207.49 464.203C207.877 463.265 208.27 462.326 208.643 461.366C209.379 453.547 210.118 445.71 210.86 437.857C210.934 437.065 211.734 437.402 211.66 438.179L209.747 458.478C212.444 451.12 214.498 443.276 215.86 435.137C216.817 429.222 217.408 423.188 217.626 417.111C217.754 413.629 218.553 400.647 216.841 397.993ZM176.448 133.205C179.49 145.212 183.945 156.355 189.116 166.574C194.287 176.793 200.224 186.124 206.381 195.031C210.463 200.932 214.82 206.386 218.337 212.984C211.003 172.665 182.866 147.375 172.219 108.64C172.42 111.264 173.058 115.186 173.2 116.308C173.952 122.07 175.039 127.724 176.448 133.205ZM175.712 107.423C174.422 106.404 173.485 104.997 172.44 106.096C182.537 145.872 211.258 171.265 218.995 212.001C217.984 168.604 202.024 128.191 175.712 107.423ZM222.115 348.204L260.31 242.643C235.092 264.496 223.759 306.104 222.115 348.204ZM243.173 315.612C249.001 306.009 254.177 295.526 257.057 283.174C260.03 270.412 260.697 256.843 260.948 243.428C248.368 278.224 235.792 313.012 223.219 347.793C224.455 345.286 225.893 342.918 227.301 340.551C232.403 331.981 238.016 324.13 243.173 315.641V315.612ZM219.171 422.096C219.127 422.712 219.078 423.298 219.034 423.841C218.646 428.62 218.019 433.349 217.16 437.989C217.817 436.164 218.489 434.324 219.171 432.542V422.096ZM236.343 432.806C240.222 425.546 243.719 417.848 246.803 409.781C248.661 405.036 250.201 400.03 251.4 394.834C251.87 392.719 252.25 390.562 252.538 388.375C253.858 384.644 253.363 382.203 251.106 381.045L234.229 425.028C234.168 425.156 234.078 425.246 233.975 425.279C233.873 425.312 233.766 425.286 233.676 425.207C233.585 425.127 233.519 425 233.488 424.85C233.458 424.7 233.467 424.539 233.512 424.398L250.394 380.414C248.923 377.731 247.676 377.922 246.68 381.074C245.627 382.75 244.589 384.461 243.565 386.206C241.514 389.627 239.524 393.145 237.594 396.762C233.78 403.863 230.202 411.225 226.859 418.849C220.163 434.206 214.459 450.48 209.825 467.451C209.78 467.619 209.711 467.771 209.624 467.898C209.945 467.983 210.263 468.096 210.576 468.235C214.26 460.904 219.76 455.392 221.909 446.507C222.091 445.774 222.89 446.082 222.709 446.837C220.535 455.824 215.134 461.286 211.385 468.675C211.764 468.913 212.124 469.21 212.46 469.562C212.717 469.865 212.959 470.198 213.181 470.559C221.257 458.412 229.308 446.236 236.363 432.806H236.343ZM242.863 468.623C246.759 466.798 250.757 465.031 254.211 461.659C256.691 459.135 258.939 456.139 260.899 452.745L263.651 447.614C265.402 445.107 265.27 442.607 263.293 440.1C255.615 444.909 249.099 452.481 242.618 460.281C242.206 460.78 241.637 459.907 242.034 459.409C248.481 451.646 255.011 444.066 262.64 439.176C259.898 432.52 259.422 433.95 254.574 437.784C252.882 439.118 251.282 440.716 249.668 442.277C245.787 446.053 241.941 449.886 238.001 453.53C230.387 460.574 222.576 467.121 214.638 473.322C214.994 474.364 215.267 475.463 215.453 476.599C221.556 474.437 227.345 469.95 233.09 466.336C233.581 466.021 233.993 467.069 233.507 467.399C227.703 471.064 221.831 475.653 215.664 477.838C215.755 478.64 215.806 479.451 215.816 480.264C217.287 479.81 218.803 479.37 220.319 478.974C227.85 475.522 235.377 472.091 242.883 468.623H242.863ZM243.256 494.434C248.255 495.497 253.274 496.26 258.318 496.678C260.859 496.893 263.402 497.027 265.947 497.081C266.899 497.081 272.855 497.902 273.581 497C273.908 495.163 274.235 493.318 274.562 491.466C265.311 488.974 255.937 487.643 246.538 487.485C246.429 487.485 246.324 487.42 246.247 487.305C246.169 487.189 246.126 487.033 246.126 486.869C246.126 486.706 246.169 486.549 246.247 486.434C246.324 486.318 246.429 486.253 246.538 486.253C256.019 486.408 265.473 487.754 274.803 490.278C274.999 489.193 275.19 488.116 275.387 487.038C274.059 485.156 272.553 483.577 270.917 482.354C268.523 480.499 265.977 479.627 263.342 478.982C258.318 477.743 253.255 478.124 248.187 478.344C238.865 478.747 229.631 479.451 220.472 481.694L215.502 483.966C215.504 483.981 215.504 483.996 215.502 484.01C221.307 485.023 227.148 485.512 232.992 485.477C233.103 485.477 233.209 485.542 233.287 485.659C233.365 485.776 233.409 485.934 233.409 486.1C233.409 486.265 233.365 486.423 233.287 486.54C233.209 486.657 233.103 486.723 232.992 486.723C227.761 486.73 222.533 486.319 217.332 485.491C219.01 486.261 221.075 487.25 223.415 488.423C229.955 490.981 236.585 492.988 243.276 494.434H243.256ZM240.145 519.424C241.813 520.891 243.496 522.357 245.213 523.749C245.9 524.299 246.582 524.849 247.274 525.392C250.218 529.445 252.548 528.639 254.236 523.068C247.939 516.309 241.253 510.397 234.258 505.401C233.767 505.056 234.194 503.986 234.675 504.331C241.71 509.354 248.432 515.303 254.761 522.107C258.593 519.336 259.177 516.976 256.532 515.136C255.435 513.829 254.261 512.673 253.024 511.683C251.655 510.415 250.237 509.242 248.829 508.069C245.303 505.137 241.706 502.413 238.036 499.896C233.277 496.656 228.412 493.777 223.459 491.268C220.408 490.109 217.371 488.827 214.349 487.448C214.173 487.812 213.98 488.155 213.77 488.475C216.987 491.34 220.406 493.666 223.965 495.409C224.455 495.659 224.254 496.876 223.744 496.604C220.433 494.961 217.241 492.825 214.216 490.227C219.586 497.727 225.305 504.65 231.329 510.943C234.211 513.919 237.156 516.746 240.165 519.424H240.145ZM208.613 526.63C209.33 531.96 210.232 537.839 211.91 542.684C212.897 545.959 214.467 548.766 216.449 550.799C217.489 550.356 218.51 549.815 219.505 549.179C216.73 543.146 214.733 536.391 213.618 529.262C213.5 528.485 214.295 528.155 214.422 528.932C215.528 535.998 217.513 542.69 220.275 548.659C224.377 545.727 225.456 541.878 223.415 537.099C221.865 528.698 217.248 520.927 214.923 512.908C212.935 505.872 211.42 498.56 210.399 491.077C210.311 491.077 210.237 491.15 210.139 491.172C210.041 491.194 210.007 491.172 209.938 491.172C210.848 497.266 211.378 503.472 211.523 509.711C211.523 510.503 210.708 510.503 210.689 509.711C210.549 503.496 210.019 497.313 209.104 491.246C208.918 491.246 208.731 491.246 208.54 491.246C207.088 502.945 207.119 514.948 208.633 526.63H208.613ZM187.836 567.264L197.3 570.321C198.376 569.104 199.269 567.56 199.918 565.791C200.567 564.023 200.959 562.069 201.068 560.058C201.558 556.796 201.558 553.409 201.725 550.081C202.044 543.373 202.422 536.666 202.898 529.973C203.825 516.873 205.096 503.847 206.607 490.872C206.543 490.872 206.484 490.835 206.425 490.806C205.899 494.056 205.372 497.301 204.845 500.541C204.723 501.311 203.918 500.988 204.046 500.211C204.569 496.981 205.092 493.753 205.616 490.527C205.542 490.527 205.473 490.447 205.4 490.41C202.755 503.436 199.782 516.28 196.363 528.896C195.033 533.8 193.61 538.638 192.207 543.491C191.074 547.398 185.809 562.778 187.855 567.264H187.836ZM185.113 510.474C178.058 519.593 173.721 531.813 166.96 541.086C165.488 543.102 163.962 545.052 164.6 546.885C170.85 543.022 176.998 538.733 181.585 531.043C181.938 530.442 182.527 531.322 182.169 531.916C177.577 539.62 171.439 543.967 165.179 547.852C165.389 548.117 165.615 548.351 165.856 548.549C167.774 550.074 172.273 548.586 174.329 548.168C181.08 546.79 186.899 542.648 190.563 533.69C196.034 520.333 199.086 503.385 202.952 488.827H202.912C201.358 493.935 199.27 498.641 196.726 502.769C196.363 503.356 195.779 502.483 196.142 501.897C198.659 497.803 200.721 493.133 202.25 488.064C202.137 487.954 202.024 487.837 201.916 487.712C201.865 487.9 201.785 488.066 201.681 488.196C200.7 489.457 199.718 490.71 198.737 491.964C194.591 498.708 189.823 504.419 185.132 510.474H185.113ZM137.238 529.174C147.629 520.588 158.204 512.561 168.962 505.093C169.452 504.763 169.864 505.826 169.383 506.163C158.59 513.631 148.006 521.665 137.631 530.266C138.213 531.516 138.981 532.549 139.873 533.287C143.655 536.585 154.14 530.178 157.751 528.155C163.014 525.184 168.085 521.503 172.901 517.159C181.732 509.352 189.739 499.8 197.52 489.889C198.502 488.306 199.427 486.654 200.297 484.934V484.89C200.252 485.045 200.167 485.166 200.062 485.227C195.95 487.544 191.964 490.333 188.14 493.569C188.046 493.638 187.937 493.651 187.837 493.605C187.737 493.56 187.652 493.46 187.598 493.325C187.545 493.19 187.528 493.03 187.55 492.877C187.572 492.724 187.632 492.589 187.718 492.499C191.606 489.212 195.659 486.381 199.841 484.032C199.885 484.032 199.915 484.032 199.954 484.032C199.993 484.032 199.954 484.032 199.954 483.974C199.905 483.812 199.885 483.622 199.841 483.453C187.664 484.919 175.34 486.972 163.83 493.43C159.596 495.857 133.789 516.807 137.258 529.174H137.238ZM61.9772 565.138C61.9373 565.001 61.9124 564.855 61.9036 564.706C61.9036 564.837 61.8447 564.947 61.8153 565.087C61.8595 565.116 61.933 565.116 61.9772 565.138ZM62.1587 563.628C63.348 562.067 64.6877 560.782 66.1328 559.816C65.8874 559.816 65.6421 559.75 65.3919 559.735C65.2636 559.729 65.1376 559.682 65.0228 559.596C64.908 559.51 64.807 559.388 64.7268 559.238C64.6465 559.088 64.589 558.914 64.5582 558.728C64.5273 558.542 64.5239 558.348 64.548 558.159C63.5701 559.259 62.7736 561.082 62.1587 563.628ZM65.9512 557.111C67.1168 557.191 68.2782 557.372 69.4297 557.653C68.3381 556.925 67.1186 556.74 65.9512 557.126V557.111ZM81.4302 540.317C81.5471 540.366 81.6535 540.459 81.7394 540.588C81.8253 540.716 81.8878 540.875 81.9209 541.05C81.9344 540.788 81.9918 540.536 82.0877 540.317H82.0239C81.8303 540.23 81.6238 540.23 81.4302 540.317ZM82.279 574.155C82.2598 574.111 82.2433 574.064 82.2299 574.015L82.1907 574.067C82.2152 574.093 82.2381 574.123 82.2594 574.155H82.279ZM103.547 556.393C103.478 556.253 103.419 556.103 103.371 555.945C103.395 556.173 103.449 556.341 103.547 556.393ZM103.351 555.887C103.351 555.887 103.351 555.843 103.351 555.828C103.351 555.828 103.351 555.843 103.351 555.865V555.887ZM5.8259 513.215C34.3701 526.777 64.7001 512.043 94.0342 515.312C94.0974 515.336 94.156 515.381 94.2059 515.444H95.3442L95.4423 515.385C68.0167 489.508 35.4789 507.959 5.8259 513.215ZM93.3621 516.683H86.9497V516.118C59.9657 515.488 32.3046 526.784 6.1448 514.652C19.8155 523.891 34.6101 528.839 49.6124 529.188C64.6148 529.537 79.5053 525.281 93.3621 516.683Z" fill="#927A20"/>
</svg>
