<svg width="500" height="35" viewBox="0 0 500 35" fill="none" xmlns="http://www.w3.org/2000/svg">
<path d="M249.395 9.80947C246.524 9.04304 242.385 9.20966 240.693 10.7869C238.712 12.6308 240.827 15.13 243.364 16.5407C246.591 18.3179 251.465 19.051 256.094 19.3398C260.723 19.6286 265.863 19.5508 270.67 19.2287C290.833 17.8625 308.659 12.3975 328.466 10.2982C339.46 9.13191 350.677 9.34295 361.559 10.6981C367.101 11.3867 372.486 12.3309 377.716 13.4861C382.946 14.6413 387.753 15.9853 392.85 17.1516C397.946 18.3179 402.931 19.1287 408.384 19.4842C414.192 19.8618 420.112 19.7508 425.943 19.4842C432.285 19.1843 438.561 18.5289 444.726 17.7514C452.426 16.785 460.037 15.5632 467.337 13.997C473.568 12.6641 480.467 11.0313 485.052 8.45434C485.986 7.93229 486.743 7.3658 487.544 6.79931C488.1 6.41055 486.81 6.044 486.276 6.42165C484.695 7.54352 482.158 8.47656 479.955 9.2652C477.218 10.2538 474.28 11.0868 471.276 11.831C464.51 13.5194 457.322 14.7857 450.067 15.8298C443.591 16.7628 437.026 17.5515 430.371 18.0624C421.358 18.7622 411.677 19.0065 402.798 17.8291C397.568 17.1405 392.694 15.9409 387.887 14.7412C383.08 13.5416 378.651 12.4642 373.844 11.5311C363.963 9.63175 353.392 8.43213 342.776 8.45434C323.036 8.49877 305.321 13.2417 286.961 16.2297C277.97 17.6959 268.601 18.74 259.076 18.4512C254.291 18.3068 248.972 17.8402 245.367 16.1408C243.72 15.3633 242.54 14.3636 242.073 13.2639C241.717 12.4197 241.65 11.3534 243.008 10.7314C244.655 9.96497 246.835 9.86501 248.838 10.3204C249.528 10.4759 250.129 9.98719 249.439 9.80947H249.395Z" fill="#927A20"/>
<path d="M339.081 9.49891C346.136 7.98828 353.08 6.31103 360.491 5.25581C367.901 4.20059 375.713 3.9118 383.547 4.5116C384.437 4.57825 384.837 3.94512 383.925 3.82293C376.381 2.80104 368.013 3.40085 360.602 4.46717C353.191 5.5335 345.669 7.26629 338.636 9.12125C338.124 9.25454 338.57 9.60999 339.081 9.51002V9.49891Z" fill="#927A20"/>
<path d="M384.192 4.41158C384.793 4.01171 385.572 3.67848 386.395 3.40079C386.818 3.2564 387.263 3.1231 387.731 3.02314C388.198 2.92317 388.688 2.77877 389.155 2.65659C389.555 2.55662 389.355 2.25671 388.932 2.24561C388.331 2.24561 387.753 2.27893 387.196 2.40111C386.64 2.52329 386.084 2.64548 385.594 2.81209C384.593 3.14532 383.725 3.58962 383.035 4.07836C382.834 4.22276 382.99 4.44491 383.28 4.53377C383.613 4.63374 383.969 4.55598 384.192 4.41158Z" fill="#927A20"/>
<path d="M383.169 4.16704C382.857 4.72242 382.857 5.30002 383.147 5.8554C383.436 6.41078 384.059 7.0328 385.172 7.24384C385.595 7.3216 386.04 7.07723 385.906 6.87729C385.751 6.64403 385.484 6.4441 385.261 6.22195C385.194 6.16641 385.15 6.11087 385.083 6.05533C385.061 6.03312 385.038 6.0109 385.016 5.97758C384.949 5.91093 385.061 6.03312 385.016 5.96647C384.927 5.8554 384.838 5.73321 384.771 5.62214C384.705 5.51106 384.66 5.39998 384.616 5.2778C384.616 5.25559 384.616 5.22226 384.616 5.26669C384.616 5.24448 384.616 5.21116 384.616 5.18894C384.616 5.1223 384.616 5.06676 384.593 5.00011C384.593 4.88904 384.593 4.76685 384.593 4.65578C384.593 4.63356 384.593 4.60024 384.593 4.57802C384.593 4.62245 384.593 4.57802 384.593 4.56692C384.616 4.50027 384.638 4.43363 384.682 4.36698C384.794 4.16704 384.549 3.94489 384.126 3.88935C383.703 3.83382 383.28 3.956 383.169 4.16704Z" fill="#927A20"/>
<path d="M383.947 4.48949C384.637 4.74496 385.372 4.9449 386.173 5.10041C386.551 5.17816 386.907 5.22259 387.308 5.25591C387.553 5.27813 387.798 5.30034 388.042 5.30034C388.243 5.30034 388.465 5.28923 388.665 5.27813C388.91 5.26702 389.133 5.18927 389.177 5.05598C389.2 4.93379 389.066 4.81161 388.799 4.77829C388.421 4.72275 388.042 4.6561 387.686 4.60056C387.33 4.54503 386.952 4.48949 386.596 4.42284C386.507 4.41174 386.44 4.38952 386.351 4.37841C386.262 4.36731 386.262 4.3562 386.329 4.37841C386.284 4.37841 386.24 4.3562 386.195 4.34509C386.017 4.30066 385.839 4.25623 385.661 4.2118C385.305 4.12294 384.993 4.01186 384.66 3.88968C384.348 3.7786 383.858 3.85636 383.68 4.01186C383.48 4.20069 383.614 4.37841 383.925 4.5006L383.947 4.48949Z" fill="#927A20"/>
<path d="M384.861 4.43385C385.64 4.26724 386.464 4.15616 387.309 4.07841C387.71 4.04508 388.066 4.02287 388.511 4.00065C389.001 3.97844 389.401 3.9229 389.891 3.85626C390.447 3.78961 390.403 3.40084 389.891 3.31198C389.401 3.23423 388.934 3.1898 388.422 3.20091C387.91 3.21202 387.399 3.25645 386.909 3.31198C385.952 3.41195 385.039 3.57857 384.149 3.78961C383.793 3.87847 383.704 4.12284 383.882 4.27834C384.105 4.46717 384.505 4.48939 384.861 4.41163V4.43385Z" fill="#927A20"/>
<path d="M383.878 4.567C384.189 4.97798 384.568 5.37786 385.079 5.74441C385.324 5.93324 385.614 6.11096 385.903 6.27757C386.192 6.44419 386.526 6.57748 386.86 6.71077C387.127 6.82184 387.527 6.85517 387.795 6.71077C388.039 6.57748 388.062 6.37754 387.795 6.24425C387.505 6.09985 387.238 5.95545 386.971 5.79995C386.838 5.72219 386.704 5.64444 386.57 5.56669C386.504 5.53336 386.548 5.54447 386.57 5.56669C386.526 5.54447 386.504 5.52226 386.459 5.50004C386.392 5.45561 386.348 5.42229 386.281 5.37786C386.059 5.22235 385.858 5.05574 385.68 4.87802C385.591 4.78916 385.502 4.70029 385.413 4.61143C385.391 4.58922 385.369 4.5559 385.346 4.53368C385.302 4.48925 385.346 4.51146 385.346 4.53368C385.302 4.47814 385.257 4.43371 385.235 4.37817C385.102 4.21156 384.746 4.06716 384.367 4.13381C384.033 4.18935 383.744 4.37817 383.878 4.567Z" fill="#927A20"/>
<path d="M387.573 2.98973C389.331 2.96752 391.067 3.17856 392.603 3.60065C394.138 4.02274 395.295 4.65587 396.408 5.32233C396.675 5.47783 397.076 5.2779 396.942 5.12239C396.186 4.27821 394.583 3.63397 392.981 3.2341C391.379 2.83423 389.465 2.61208 387.595 2.66761C387.172 2.67872 387.172 3.00084 387.595 3.00084L387.573 2.98973Z" fill="#927A20"/>
<path d="M385.281 6.82213C387.328 7.38861 389.754 7.49969 392.002 7.23311C393.159 7.09981 394.227 6.85545 395.184 6.51111C395.54 6.38893 396.097 6.21121 396.186 5.97795C396.252 5.81133 395.963 5.60029 395.674 5.52254L395.451 5.71137C396.341 5.92241 397.098 5.47811 396.653 5.05602C396.475 4.8783 395.941 5.0338 396.119 5.21153C396.297 5.38925 395.963 5.54475 395.629 5.50032C395.34 5.467 395.229 5.67804 395.518 5.71137C395.896 5.7558 395.229 6.03349 395.184 6.04459C395.006 6.11124 394.806 6.16678 394.606 6.23342C394.205 6.35561 393.76 6.46668 393.337 6.55554C392.536 6.72216 391.757 6.86656 390.889 6.94431C389.064 7.12203 387.172 7.02206 385.503 6.61108C385.259 6.54444 385.036 6.73326 385.281 6.79991V6.82213Z" fill="#927A20"/>
<path d="M334.231 9.44304C336.145 11.8534 339.461 13.9749 342.843 15.9077C344.691 16.9518 346.649 17.9514 348.763 18.8623C350.521 19.6176 352.413 20.3507 354.594 20.795C355.373 20.9505 355.796 20.3507 355.15 20.1508C346.782 17.5405 339.794 13.5862 335.054 9.28753C334.809 9.07649 334.053 9.22089 334.231 9.45415V9.44304Z" fill="#927A20"/>
<path d="M354.124 20.362C354.057 20.9396 354.169 21.5394 354.525 22.0837C354.881 22.628 355.437 23.1834 356.394 23.561C356.795 23.7165 357.284 23.5277 357.084 23.2944C356.683 22.8168 356.194 22.3614 355.905 21.8727C355.615 21.3839 355.437 20.8841 355.482 20.362C355.482 20.1843 355.17 20.0288 354.814 20.0288C354.436 20.0288 354.169 20.1843 354.146 20.362H354.124Z" fill="#927A20"/>
<path d="M355.75 20.6282C355.861 20.5172 355.973 20.4172 356.084 20.3172C356.151 20.2617 356.217 20.2173 356.284 20.1728C356.329 20.1395 356.373 20.1173 356.284 20.1728C356.329 20.1506 356.373 20.1173 356.418 20.0951C356.573 20.0062 356.729 19.9285 356.885 19.8507C356.974 19.8063 357.063 19.7729 357.152 19.7285C357.085 19.7507 357.263 19.673 357.152 19.7285C357.197 19.7063 357.263 19.6952 357.308 19.673C357.486 19.6063 357.686 19.5508 357.886 19.4953C357.998 19.4619 358.087 19.4397 358.198 19.4064C358.243 19.3953 358.287 19.3842 358.354 19.3731C358.376 19.3731 358.576 19.3286 358.398 19.3731C358.554 19.3398 358.688 19.3175 358.843 19.2842C358.91 19.2731 359.021 19.2509 358.888 19.2731C358.955 19.262 358.999 19.2509 359.066 19.2398C359.333 19.1954 359.578 19.1398 359.8 19.0732C360.245 18.9399 360.156 18.6067 359.667 18.5289C359.133 18.44 358.465 18.4956 357.931 18.5955C357.397 18.6955 356.907 18.8177 356.44 18.9954C355.55 19.3398 354.793 19.7729 354.348 20.2839C354.192 20.4727 354.214 20.7171 354.637 20.8171C354.993 20.9059 355.527 20.8726 355.705 20.6727L355.75 20.6282Z" fill="#927A20"/>
<path d="M355.261 20.9726C355.661 20.9726 355.951 20.9948 356.284 21.0281C356.663 21.0615 357.063 21.117 357.419 21.1725C357.776 21.2281 358.132 21.2947 358.488 21.3725C358.532 21.3725 358.532 21.3725 358.488 21.3725C358.532 21.3725 358.577 21.3947 358.621 21.4058C358.732 21.428 358.866 21.4613 358.977 21.4836C359.155 21.5169 359.356 21.5502 359.534 21.5835C359.734 21.628 360.001 21.5502 360.112 21.4613C360.224 21.3614 360.201 21.2281 360.023 21.1503C359.378 20.8282 358.643 20.6172 357.776 20.4728C356.908 20.3284 356.084 20.2728 355.216 20.2617C354.838 20.2617 354.482 20.4283 354.504 20.6172C354.504 20.8171 354.816 20.9615 355.216 20.9726H355.261Z" fill="#927A20"/>
<path d="M354.705 20.9063C355.128 21.3506 355.662 21.7505 356.263 22.1393C356.552 22.317 356.864 22.4836 357.175 22.6391C357.376 22.728 357.62 22.8279 357.843 22.8946C358.065 22.9612 358.332 23.0056 358.577 23.0501C359.022 23.1389 359.49 22.8279 359.2 22.6391C358.911 22.4503 358.644 22.2503 358.288 22.0837C357.976 21.9282 357.665 21.7727 357.376 21.6061C357.242 21.5283 357.086 21.4395 356.953 21.3617C357.042 21.4173 356.953 21.3617 356.93 21.3395C356.886 21.3173 356.864 21.2951 356.819 21.2729C356.752 21.2284 356.686 21.184 356.619 21.1285C356.352 20.9396 356.129 20.7508 355.907 20.5509C355.729 20.3843 355.239 20.3176 354.927 20.4176C354.571 20.5287 354.505 20.7286 354.66 20.9063H354.705Z" fill="#927A20"/>
<path d="M356.198 20.7727C357.511 20.384 359.046 20.1729 360.537 20.0952C360.894 20.073 361.205 19.9619 361.205 19.7619C361.205 19.5842 360.894 19.4398 360.537 19.4287C358.757 19.4287 356.999 19.6953 355.486 20.1618C355.152 20.2618 355.041 20.4728 355.241 20.6394C355.441 20.8061 355.864 20.8616 356.198 20.7616V20.7727Z" fill="#927A20"/>
<path d="M355.885 22.8167C357.287 23.4499 359.001 23.8831 360.848 24.0719C362.695 24.2607 364.676 24.2496 366.345 23.8275C366.701 23.7387 366.434 23.4832 366.078 23.5165C364.386 23.6831 362.717 23.8164 360.981 23.6609C359.245 23.5054 357.665 23.1388 356.352 22.5835C356.041 22.4502 355.573 22.6723 355.885 22.8167Z" fill="#927A20"/>
<path d="M359.245 19.0735C361.026 19.2734 362.606 19.7733 363.807 20.4619C364.408 20.8063 364.853 21.1839 365.298 21.5727C365.521 21.7726 365.721 21.9837 365.877 22.2058C365.944 22.3058 366.011 22.3946 366.077 22.4946C366.077 22.5279 366.3 22.9945 365.966 22.9167L365.744 23.1055C366.122 23.1944 366.144 23.4277 365.744 23.5054C365.365 23.5832 365.699 23.8497 366.055 23.772C366.901 23.5943 366.834 22.9945 365.922 22.8945C365.632 22.8612 365.521 23.0722 365.81 23.1055C366.144 23.15 366.678 23.0611 366.812 22.8945C367.034 22.6501 366.767 22.2947 366.611 22.0614C366.255 21.5171 365.744 21.0173 365.009 20.573C363.607 19.6955 361.626 19.0402 359.379 18.8513C359.112 18.8291 358.978 19.029 359.267 19.0624L359.245 19.0735Z" fill="#927A20"/>
<path d="M294.06 15.5188C289.454 18.3512 284.357 21.0059 278.882 23.4163C273.408 25.8266 267.176 27.9593 261.145 30.1364C260.7 30.303 261.079 30.6473 261.59 30.514C268.133 28.8368 274.031 26.5153 279.528 24.0827C285.025 21.6502 290.255 18.8733 294.861 15.9298C295.307 15.641 294.528 15.23 294.038 15.5188H294.06Z" fill="#927A20"/>
<path d="M289.588 17.929C281.465 19.1509 274.12 21.3169 267.711 24.0826C264.462 25.4822 261.502 27.0484 258.831 28.7367C256.339 30.3251 253.624 32.0912 252.4 34.035C252.244 34.2905 252.934 34.3905 253.223 34.2017C255.693 32.5577 257.63 30.7361 260.233 29.1255C262.837 27.5149 265.619 26.0709 268.668 24.7269C274.833 22.0166 282.065 19.7951 289.877 18.4955C290.567 18.3733 290.278 17.8291 289.565 17.9401L289.588 17.929Z" fill="#927A20"/>
<path d="M290.364 18.0738C289.652 18.4181 289.34 18.918 288.917 19.3512C288.494 19.7844 288.072 20.2065 287.626 20.6285C286.692 21.5394 285.646 22.4391 284.511 23.2833C281.974 25.1604 278.814 26.6711 275.119 27.9707C271.625 29.1925 268.042 30.3921 264.348 31.4584C262.501 31.9916 260.631 32.4803 258.673 32.9024C257.605 33.1357 256.536 33.3467 255.424 33.5245C254.467 33.68 253.376 33.7688 252.531 34.0465C252.108 34.1909 252.308 34.4686 252.775 34.4908C254.734 34.6019 257.226 33.9688 258.984 33.6022C261.01 33.1801 262.968 32.6914 264.882 32.1582C268.888 31.0364 272.782 29.759 276.521 28.415C280.26 27.0709 283.109 25.6603 285.534 23.8386C286.759 22.9167 287.849 21.9503 288.828 20.9618C289.607 20.1731 290.987 19.0957 291.031 18.196C291.031 18.0294 290.609 17.9405 290.364 18.0627V18.0738Z" fill="#927A20"/>
<path d="M278.504 4.1557C282.332 6.4994 286.983 8.40991 292.235 9.92054C294.772 10.6536 297.443 11.2646 300.18 11.7755C301.56 12.031 302.962 12.2531 304.386 12.442C305.811 12.6308 307.391 12.8863 308.904 12.8863C309.639 12.8863 309.728 12.3864 309.082 12.2642C307.702 12.0199 306.189 11.9643 304.765 11.7866C303.341 11.6089 302.05 11.4312 300.737 11.1979C297.91 10.7203 295.195 10.1205 292.591 9.39848C287.473 7.98782 282.911 6.07731 279.038 3.88912C278.727 3.7114 278.215 3.96687 278.504 4.1557Z" fill="#927A20"/>
<path d="M306.455 12.531C298.599 12.431 289.965 11.187 283.488 8.95437C280.261 7.84361 277.724 6.29966 275.187 4.82235C273.83 4.03371 272.495 3.25618 271.137 2.46754C269.913 1.75666 268.622 0.768082 266.975 0.301563C266.731 0.234918 266.374 0.345994 266.486 0.490392C267.176 1.40121 268.956 2.20096 270.202 2.93406C271.604 3.75602 273.006 4.57798 274.386 5.39994C277.035 6.96611 279.727 8.54339 283.199 9.67636C286.671 10.8093 290.521 11.598 294.393 12.1978C296.329 12.4977 298.31 12.7532 300.335 12.8865C302.494 13.0309 304.408 12.9753 306.544 12.8198C306.901 12.7976 306.789 12.531 306.455 12.5199V12.531Z" fill="#927A20"/>
<path d="M266.756 0.545888C275.48 1.63443 284.293 2.68965 292.171 4.93338C295.732 5.95528 299.048 7.19933 301.83 8.70996C304.278 10.0318 306.525 11.8201 310.131 12.4088C310.509 12.4754 310.865 12.1866 310.531 12.0645C307.326 10.7871 305.012 9.18759 302.141 7.7436C299.27 6.29962 296.021 5.14443 292.505 4.17807C284.649 2.0232 275.702 0.956869 266.912 0.223768C266.489 0.190445 266.311 0.49035 266.734 0.545888H266.756Z" fill="#927A20"/>
<path d="M333.251 9.04307C325.64 10.3316 318.897 12.9085 313.934 16.052C308.971 19.1954 305.989 22.972 299.869 25.6711C299.58 25.7933 299.936 26.0044 300.247 25.9266C307.057 24.0605 309.884 20.0174 314.312 17.0405C319.297 13.686 326.085 11.2646 333.629 9.50959C334.141 9.38741 333.785 8.96532 333.251 9.05418V9.04307Z" fill="#927A20"/>
<path d="M325.839 10.765C317.449 11.8535 310.35 14.5415 304.764 17.785C301.626 19.6066 298.889 21.5837 296.329 23.6053C293.77 25.6269 291.7 27.7707 288.407 29.4479C288.006 29.6479 288.518 29.9811 289.007 29.8367C292.568 28.7815 294.415 26.5377 296.53 24.8383C299.133 22.75 301.849 20.6951 305.009 18.7957C310.595 15.4301 317.605 12.52 326.151 11.3314C326.885 11.2315 326.574 10.6761 325.839 10.765Z" fill="#927A20"/>
<path d="M288.894 29.9922C304.45 29.1147 318.203 24.0496 325.08 17.0741C327.039 15.0858 328.908 12.8087 328.663 10.5539C328.619 10.1207 327.283 10.1207 327.306 10.5539C327.462 13.0309 324.947 15.6523 322.565 17.7738C320.318 19.7621 317.491 21.5837 314.175 23.1721C307.165 26.5266 298.263 28.6148 288.76 29.4812C288.182 29.5368 288.293 30.0366 288.894 30.0033V29.9922Z" fill="#927A20"/>
<path d="M358.753 10.0428C361.045 10.5205 362.425 11.5868 363.626 12.6198C364.828 13.6528 365.919 14.7191 366.965 15.7966C369.012 17.8848 370.971 20.0174 373.508 21.9724C378.025 25.4491 385.169 28.6036 393.982 28.2926C394.917 28.2593 394.939 27.5484 393.982 27.5595C384.435 27.6706 377.558 24.0051 373.107 20.1952C370.748 18.1736 368.834 16.0298 366.586 13.9749C364.761 12.3088 362.781 10.2761 359.02 9.54299C358.374 9.42081 358.13 9.92065 358.73 10.0539L358.753 10.0428Z" fill="#927A20"/>
<path d="M362.115 10.4983C368.925 12.6088 375.913 14.6414 381.677 17.4628C384.592 18.8956 387.196 20.4729 389.177 22.2612C390.245 23.2165 391.135 24.2162 391.825 25.2603C392.515 26.3044 392.76 27.3041 393.427 28.2927C393.672 28.6481 394.785 28.6037 394.785 28.2038C394.785 27.1597 394.006 26.0378 393.338 25.0492C392.671 24.0607 391.781 23.0277 390.757 22.0724C388.798 20.2508 386.217 18.5957 383.212 17.1629C377.181 14.2749 369.86 12.0978 362.56 10.0984C362.026 9.95404 361.558 10.3428 362.093 10.5094L362.115 10.4983Z" fill="#927A20"/>
<path d="M362.962 10.8092C367.146 12.953 371.018 15.2744 374.779 17.5959C376.715 18.7844 378.585 19.9952 380.41 21.2281C382.234 22.461 383.748 23.6273 385.662 24.7381C386.04 24.9491 386.641 24.6826 386.418 24.4493C385.061 23.0942 383.191 21.8723 381.389 20.6505C379.586 19.4287 377.828 18.3179 375.936 17.1961C372.042 14.8524 367.769 12.7086 363.385 10.5981C363.095 10.4649 362.695 10.6759 362.962 10.8092Z" fill="#927A20"/>
<path d="M371.304 11.5312C380.272 12.6086 389.286 11.3091 398.054 10.376C402.639 9.88728 407.268 9.53184 411.986 9.57627C414.367 9.59848 416.726 9.72067 419.063 9.90949C421.199 10.0872 423.447 10.5426 425.628 10.5204C426.117 10.5204 426.229 10.2094 425.873 10.0761C424.181 9.48741 421.756 9.32079 419.753 9.14307C417.616 8.95424 415.457 8.84317 413.299 8.79874C408.736 8.70988 404.219 8.98757 399.768 9.44298C390.465 10.3871 381.14 11.9311 371.549 11.1202C371.037 11.0758 370.814 11.4534 371.326 11.509L371.304 11.5312Z" fill="#927A20"/>
<path d="M374.578 11.9088C382.3 14.1081 391.113 15.441 400.06 15.3077C404.6 15.2411 409.029 14.7523 413.279 13.9415C415.393 13.5305 417.463 13.064 419.488 12.553C421.514 12.0421 423.783 11.5089 425.72 10.8536C426.365 10.6314 425.987 9.98718 425.141 10.1649C421.113 11.0091 417.396 12.1976 413.301 13.0195C409.207 13.8415 404.8 14.3858 400.327 14.4969C391.536 14.7079 382.879 13.4194 374.979 11.5756C374.556 11.4756 374.177 11.7755 374.6 11.8977L374.578 11.9088Z" fill="#927A20"/>
<path d="M373.732 12.1201C381.187 13.5307 389.444 13.7973 397.344 13.4641C405.245 13.1309 413.368 12.32 420.534 10.7094C421.09 10.5872 420.689 10.1651 420.133 10.2429C416.372 10.7205 412.655 11.3203 408.872 11.7646C405.089 12.2089 401.061 12.5644 397.077 12.7532C389.243 13.1198 381.543 12.7532 373.954 11.6758C373.376 11.598 373.175 12.009 373.709 12.109L373.732 12.1201Z" fill="#927A20"/>
<path d="M435.091 18.3959C446.041 18.7403 457.413 18.3959 467.717 16.3632C476.33 14.6638 484.163 11.9869 490.461 8.59904C494 6.69965 497.338 4.54478 499.43 2.14554C499.72 1.81231 498.829 1.53462 498.429 1.85674C495.981 3.80057 493.577 5.72218 490.528 7.44386C487.479 9.16553 484.119 10.7206 480.425 12.0535C472.836 14.7971 464.045 16.6409 454.809 17.4185C448.289 17.9627 441.679 17.985 435.091 17.9738C434.557 17.9738 434.58 18.3626 435.091 18.3848V18.3959Z" fill="#927A20"/>
<path d="M438.34 17.9403C446.463 16.2297 453.585 13.6528 460.973 11.2979C468.362 8.94314 476.863 6.78827 485.276 5.01106C487.679 4.50011 490.105 4.02248 492.553 3.54486C495.001 3.06723 497.405 2.72289 499.63 2.1453C500.342 1.95647 499.83 1.43441 499.096 1.52328C496.87 1.77875 494.712 2.26748 492.597 2.67846C490.483 3.08944 488.302 3.52264 486.166 3.96694C482.004 4.83334 477.887 5.75526 473.859 6.76606C465.803 8.77653 458.414 11.2646 450.959 13.7749C446.797 15.1745 442.524 16.4963 437.984 17.5737C437.583 17.6737 437.873 18.0291 438.296 17.9403H438.34Z" fill="#927A20"/>
<path d="M251.219 10.3204C253.267 9.86502 255.514 9.9761 257.161 10.7758C258.43 11.3979 258.341 12.4642 258.007 13.2639C256.961 15.7187 252.755 17.2294 248.17 17.8958C239.09 19.2065 228.786 18.4068 219.84 17.2294C201.368 14.7857 184.321 9.88724 165.16 8.70984C154.7 8.0656 144.062 8.72094 133.981 10.2094C128.817 10.9758 123.81 11.9532 118.936 13.0862C114.062 14.2192 109.723 15.4299 104.983 16.4629C99.8194 17.5959 94.4337 18.3179 88.8032 18.5289C83.7069 18.7178 78.5437 18.5956 73.4696 18.3179C67.3273 17.9958 61.2295 17.3182 55.2651 16.5518C47.921 15.6076 40.666 14.4636 33.7002 12.964C27.5578 11.6422 21.6603 10.0427 16.5862 7.83234C15.607 7.41025 14.561 6.94373 13.8043 6.41057C13.2702 6.0218 11.9794 6.38835 12.5358 6.78822C14.2939 8.04338 16.0966 9.0986 18.5446 10.0316C21.3932 11.1202 24.4644 12.0199 27.6691 12.8085C34.7017 14.5746 42.2015 15.8853 49.7459 16.9739C56.5114 17.9513 63.4104 18.7511 70.3985 19.2287C80.0793 19.9063 90.3611 20.0729 99.7971 18.5845C105.049 17.7625 109.968 16.4963 114.864 15.2633C120.005 13.9748 125.234 12.7752 130.687 11.8422C141.391 10.0094 152.764 9.07639 164.069 9.67619C184.432 10.7536 202.414 16.2741 222.177 18.5512C226.961 19.1065 231.857 19.462 236.776 19.5064C241.694 19.5508 246.657 19.3842 251.108 18.4401C255.247 17.5626 258.875 15.8742 259.81 13.6083C260.522 11.9199 259.721 10.1205 256.182 9.48737C254.29 9.15414 252.376 9.33186 250.641 9.78727C249.951 9.9761 250.552 10.4537 251.241 10.2982L251.219 10.3204Z" fill="#927A20"/>
<path d="M161.374 9.10965C154.341 7.25469 147.064 5.55523 139.408 4.45558C131.753 3.35593 123.63 2.78944 116.085 3.81134C115.173 3.93352 115.573 4.56665 116.463 4.50001C124.297 3.9002 131.886 4.15567 139.52 5.24422C147.153 6.33276 153.852 7.97668 160.929 9.48731C161.441 9.59839 161.908 9.24295 161.374 9.09855V9.10965Z" fill="#927A20"/>
<path d="M116.954 4.06669C116.264 3.57796 115.396 3.13365 114.394 2.80043C113.905 2.63381 113.371 2.51163 112.814 2.40055C112.258 2.28948 111.657 2.23394 111.056 2.24505C110.633 2.24505 110.455 2.54495 110.833 2.65603C111.301 2.77821 111.746 2.90039 112.213 3.01147C112.681 3.12255 113.148 3.25584 113.593 3.40024C114.417 3.67793 115.173 4.01115 115.796 4.41103C116.019 4.55542 116.375 4.63318 116.709 4.53321C116.998 4.44435 117.154 4.2222 116.954 4.0778V4.06669Z" fill="#927A20"/>
<path d="M115.33 4.37787C115.352 4.43341 115.397 4.50005 115.419 4.55559C115.419 4.55559 115.441 4.63334 115.419 4.60002C115.397 4.5667 115.419 4.64445 115.419 4.64445C115.441 4.75553 115.441 4.87771 115.441 4.98879C115.441 5.05543 115.441 5.11097 115.441 5.17762C115.441 5.19983 115.441 5.23315 115.441 5.25537C115.441 5.32201 115.441 5.19983 115.441 5.26648C115.397 5.38866 115.352 5.51084 115.285 5.62192C115.219 5.73299 115.13 5.84407 115.063 5.95515C115.063 5.97736 115.018 6.01068 115.063 5.96625C115.063 5.98847 115.018 6.01068 114.996 6.04401C114.951 6.09954 114.885 6.15508 114.818 6.21062C114.573 6.42166 114.306 6.64382 114.15 6.87708C114.017 7.07701 114.462 7.32138 114.885 7.24363C115.997 7.02147 116.621 6.39945 116.91 5.85518C117.199 5.31091 117.199 4.7111 116.888 4.16682C116.776 3.96689 116.331 3.8336 115.931 3.88914C115.53 3.94467 115.285 4.16682 115.374 4.36676L115.33 4.37787Z" fill="#927A20"/>
<path d="M115.33 3.8669C115.018 3.98908 114.684 4.08905 114.328 4.18902C114.15 4.23345 113.972 4.27788 113.794 4.32231C113.749 4.32231 113.705 4.34453 113.66 4.35563C113.727 4.34453 113.705 4.35563 113.638 4.35563C113.549 4.36674 113.482 4.38896 113.393 4.40006C113.037 4.46671 112.681 4.52225 112.303 4.57779C111.925 4.63332 111.546 4.69997 111.19 4.75551C110.945 4.78883 110.79 4.91101 110.812 5.0332C110.856 5.16649 111.057 5.24424 111.324 5.25535C111.769 5.27756 112.192 5.27756 112.637 5.24424C113.037 5.21092 113.438 5.16649 113.816 5.08873C114.617 4.93323 115.374 4.73329 116.042 4.47782C116.331 4.36674 116.531 4.16681 116.286 3.98908C116.086 3.84469 115.641 3.74472 115.307 3.8669H115.33Z" fill="#927A20"/>
<path d="M115.887 3.81109C114.997 3.60005 114.084 3.43344 113.127 3.33347C112.638 3.27793 112.126 3.2335 111.614 3.22239C111.102 3.21128 110.635 3.25572 110.145 3.33347C109.633 3.41122 109.589 3.79999 110.145 3.87774C110.635 3.94439 111.035 3.98882 111.525 4.02214C111.97 4.04435 112.326 4.05546 112.727 4.09989C113.55 4.17764 114.396 4.28872 115.175 4.45533C115.531 4.53309 115.954 4.51087 116.154 4.32204C116.332 4.16654 116.243 3.91106 115.887 3.83331V3.81109Z" fill="#927A20"/>
<path d="M114.752 4.37788C114.752 4.37788 114.685 4.46674 114.64 4.52228C114.596 4.57782 114.707 4.44452 114.64 4.54449C114.64 4.56671 114.596 4.58892 114.596 4.60003C114.507 4.68889 114.418 4.77775 114.329 4.86661C114.151 5.04433 113.928 5.21095 113.706 5.37756C113.661 5.41088 113.594 5.45531 113.55 5.48864C113.528 5.51085 113.483 5.53307 113.439 5.55528C113.372 5.59971 113.505 5.52196 113.439 5.55528C113.305 5.63304 113.194 5.71079 113.06 5.78854C112.793 5.94405 112.526 6.09955 112.215 6.24395C111.97 6.36614 111.948 6.58829 112.215 6.71047C112.504 6.84376 112.86 6.82155 113.149 6.71047C113.483 6.57718 113.817 6.44389 114.084 6.28838C114.396 6.11066 114.663 5.93294 114.93 5.74411C115.419 5.37756 115.82 4.97769 116.131 4.56671C116.265 4.38899 115.998 4.17794 115.642 4.13351C115.241 4.08908 114.907 4.18905 114.774 4.37788H114.752Z" fill="#927A20"/>
<path d="M112.416 2.65613C110.546 2.60059 108.699 2.80053 107.03 3.22261C105.361 3.6447 103.803 4.26673 103.069 5.1109C102.935 5.26641 103.336 5.47745 103.603 5.31084C104.715 4.64438 105.85 4.01125 107.408 3.58916C108.966 3.16708 110.68 2.94492 112.438 2.97825C112.861 2.97825 112.861 2.66723 112.438 2.64502L112.416 2.65613Z" fill="#927A20"/>
<path d="M114.507 6.63233C112.838 7.0322 110.946 7.13217 109.121 6.96556C108.275 6.8878 107.474 6.7434 106.673 6.57679C106.228 6.48793 105.805 6.37685 105.405 6.25467C105.204 6.19913 105.026 6.13249 104.826 6.06584C104.781 6.05473 104.114 5.76594 104.492 5.73261C104.781 5.69929 104.648 5.48825 104.381 5.52157C104.025 5.55489 103.713 5.39939 103.891 5.23277C104.069 5.06616 103.535 4.89954 103.357 5.07727C102.912 5.49935 103.669 5.94366 104.559 5.73261L104.336 5.54378C104.047 5.62154 103.758 5.83258 103.824 5.9992C103.891 6.22135 104.425 6.38796 104.737 6.49904C105.716 6.85448 106.807 7.10995 108.008 7.25435C110.278 7.52093 112.682 7.40986 114.729 6.84337C114.974 6.77673 114.752 6.5879 114.507 6.65454V6.63233Z" fill="#927A20"/>
<path d="M164.964 9.27636C160.223 13.5861 153.235 17.5404 144.868 20.1396C144.222 20.3395 144.645 20.9504 145.424 20.7838C147.56 20.3617 149.408 19.6397 151.143 18.9066C153.302 17.9847 155.305 16.9628 157.175 15.9076C160.557 13.9749 163.873 11.8533 165.787 9.44297C165.965 9.20971 165.209 9.0542 164.964 9.27636Z" fill="#927A20"/>
<path d="M144.536 20.3615C144.581 20.8836 144.403 21.3834 144.113 21.8722C143.824 22.3609 143.334 22.8274 142.934 23.2939C142.734 23.5272 143.223 23.716 143.624 23.5605C144.558 23.1829 145.115 22.6497 145.471 22.0832C145.827 21.5167 145.961 20.928 145.872 20.3615C145.872 20.1838 145.582 20.0283 145.204 20.0283C144.848 20.0283 144.514 20.1838 144.536 20.3615Z" fill="#927A20"/>
<path d="M145.603 20.2284C145.158 19.7063 144.423 19.2731 143.511 18.9399C143.066 18.7733 142.576 18.6511 142.064 18.5511C141.552 18.4511 140.84 18.3956 140.306 18.4845C139.817 18.5622 139.728 18.8954 140.173 19.0287C140.395 19.1065 140.662 19.1509 140.907 19.1954C140.974 19.2065 141.041 19.2176 141.085 19.2287C140.974 19.2065 141.041 19.2176 141.085 19.2287C141.241 19.262 141.397 19.2953 141.552 19.3286C141.441 19.3064 141.486 19.3175 141.552 19.3286C141.597 19.3397 141.641 19.3509 141.708 19.362C141.82 19.3842 141.931 19.4175 142.02 19.4508C142.22 19.5064 142.443 19.573 142.621 19.6397C142.665 19.6508 142.71 19.673 142.754 19.6841C142.932 19.7507 142.621 19.6285 142.799 19.6952C142.888 19.7285 142.977 19.7618 143.044 19.8063C143.222 19.884 143.377 19.9729 143.533 20.0617C143.578 20.084 143.6 20.1062 143.644 20.1284C143.578 20.0729 143.711 20.1617 143.644 20.1284C143.711 20.1839 143.8 20.2395 143.867 20.295C144 20.395 144.112 20.506 144.201 20.606C144.379 20.7948 144.935 20.8504 145.269 20.7504C145.67 20.6282 145.714 20.4172 145.558 20.2172L145.603 20.2284Z" fill="#927A20"/>
<path d="M144.758 20.2617C143.89 20.2728 143.022 20.3395 142.198 20.4728C141.33 20.6061 140.574 20.8282 139.951 21.1503C139.795 21.2281 139.75 21.3614 139.862 21.4613C139.973 21.5502 140.24 21.628 140.44 21.5835C140.618 21.5502 140.796 21.5169 140.997 21.4836C141.13 21.4613 141.241 21.4391 141.353 21.4058C141.353 21.4058 141.553 21.3614 141.464 21.3836C141.82 21.3058 142.198 21.2392 142.577 21.1836C142.955 21.1281 143.311 21.0726 143.689 21.0393C143.778 21.0393 143.867 21.0281 143.956 21.017C144.045 21.017 144.068 21.017 144.001 21.017C144.045 21.017 144.112 21.017 144.157 21.017C144.357 21.017 144.557 20.9948 144.758 20.9948C145.136 20.9948 145.492 20.8393 145.47 20.6394C145.448 20.4394 145.158 20.2728 144.758 20.2839V20.2617Z" fill="#927A20"/>
<path d="M144.047 20.5395C143.825 20.7395 143.602 20.9394 143.335 21.1171C143.268 21.1616 143.224 21.206 143.157 21.2393C143.113 21.2615 143.09 21.2837 143.046 21.306C143.046 21.306 142.934 21.3837 142.979 21.3504C143.023 21.3171 142.912 21.3837 142.912 21.3948C142.868 21.417 142.845 21.4393 142.801 21.4615C142.734 21.5059 142.645 21.5503 142.578 21.5948C142.289 21.7614 141.978 21.9169 141.666 22.0724C141.31 22.239 141.043 22.4389 140.753 22.6278C140.464 22.8166 140.954 23.1276 141.377 23.0387C141.599 22.9943 141.844 22.9499 142.067 22.8943C142.311 22.8277 142.556 22.7277 142.734 22.6389C143.068 22.4834 143.38 22.3056 143.691 22.1279C144.314 21.7503 144.826 21.3393 145.249 20.895C145.405 20.7284 145.36 20.4951 144.982 20.4062C144.648 20.3174 144.181 20.3618 144.003 20.5395H144.047Z" fill="#927A20"/>
<path d="M144.532 20.173C143.019 19.7176 141.261 19.4399 139.48 19.4399C139.124 19.4399 138.813 19.5843 138.813 19.7732C138.813 19.962 139.124 20.0842 139.48 20.1064C140.971 20.1841 142.507 20.3952 143.82 20.784C144.154 20.8839 144.599 20.8173 144.777 20.6618C144.955 20.5063 144.844 20.2841 144.532 20.1841V20.173Z" fill="#927A20"/>
<path d="M143.667 22.5835C142.354 23.15 140.73 23.5165 139.038 23.6609C137.347 23.8053 135.633 23.6831 133.942 23.5165C133.586 23.4832 133.319 23.7275 133.675 23.8275C135.344 24.2607 137.369 24.2607 139.172 24.0719C140.975 23.8831 142.733 23.4499 144.135 22.8167C144.446 22.6723 143.979 22.4502 143.667 22.5835Z" fill="#927A20"/>
<path d="M140.639 18.8623C138.392 19.0511 136.411 19.7065 135.009 20.584C134.297 21.0283 133.785 21.5059 133.429 22.0391C133.273 22.2834 132.961 22.65 133.206 22.9055C133.362 23.0721 133.874 23.1609 134.208 23.1165C134.497 23.0832 134.364 22.8721 134.096 22.9055C133.184 23.0054 133.117 23.5941 133.963 23.783C134.319 23.8607 134.653 23.5941 134.274 23.5164C133.874 23.4275 133.896 23.2054 134.274 23.1165L134.052 22.9277C133.74 23.0054 133.918 22.55 133.918 22.5389C133.985 22.4278 134.052 22.3279 134.141 22.2168C134.297 21.9946 134.497 21.7947 134.72 21.5837C135.142 21.1838 135.61 20.8061 136.211 20.4729C137.412 19.7842 138.993 19.2844 140.773 19.0845C141.062 19.0511 140.929 18.8512 140.662 18.8734L140.639 18.8623Z" fill="#927A20"/>
<path d="M205.131 15.9298C209.737 18.8844 214.856 21.6057 220.464 24.0827C226.073 26.5597 231.859 28.8368 238.402 30.514C238.914 30.6473 239.292 30.303 238.847 30.1364C232.816 27.9593 226.696 25.8822 221.11 23.4163C215.524 20.9504 210.539 18.3512 205.932 15.5188C205.465 15.23 204.663 15.641 205.108 15.9298H205.131Z" fill="#927A20"/>
<path d="M210.116 18.4844C217.927 19.784 225.16 22.0055 231.325 24.7158C234.374 26.0598 237.222 27.526 239.759 29.1144C242.297 30.7028 244.277 32.5466 246.77 34.1905C247.059 34.3794 247.749 34.2794 247.593 34.0239C246.369 32.0801 243.654 30.314 241.162 28.7256C238.513 27.0373 235.531 25.4822 232.282 24.0715C225.895 21.3057 218.551 19.1398 210.405 17.9179C209.693 17.8068 209.404 18.3622 210.094 18.4733L210.116 18.4844Z" fill="#927A20"/>
<path d="M208.978 18.2179C209.022 19.1287 210.38 20.1839 211.181 20.9837C212.16 21.9723 213.251 22.9386 214.475 23.8606C216.901 25.6822 219.95 27.1595 223.488 28.4369C227.227 29.7809 231.099 31.0583 235.127 32.1801C237.041 32.7133 239 33.202 241.025 33.6241C242.783 33.9907 245.298 34.6238 247.234 34.5127C247.701 34.4905 247.902 34.2017 247.479 34.0684C246.633 33.7796 245.565 33.7019 244.586 33.5464C243.562 33.3798 242.561 33.1798 241.559 32.9688C239.601 32.5467 237.709 32.058 235.884 31.5359C232.101 30.4585 228.451 29.2366 224.89 27.9815C221.329 26.7263 218.147 25.2268 215.632 23.394C214.475 22.5499 213.429 21.6502 212.494 20.7393C212.027 20.2839 211.56 19.8174 211.092 19.362C210.669 18.9288 210.336 18.429 209.646 18.0846C209.401 17.9735 208.978 18.0513 208.978 18.2179Z" fill="#927A20"/>
<path d="M220.975 3.88918C217.125 6.07737 212.541 7.98787 207.422 9.39854C204.885 10.0983 202.237 10.687 199.499 11.1646C198.097 11.3979 196.695 11.6089 195.249 11.7867C193.802 11.9644 192.311 12.0199 190.931 12.2643C190.286 12.3754 190.353 12.8863 191.109 12.8863C192.534 12.8863 194.025 12.6531 195.404 12.4753C196.896 12.2754 198.387 12.0421 199.833 11.7756C202.571 11.2757 205.241 10.6537 207.778 9.92059C213.03 8.40996 217.682 6.49946 221.509 4.15576C221.799 3.97804 221.309 3.71145 220.975 3.88918Z" fill="#927A20"/>
<path d="M193.494 12.8309C195.608 12.9864 197.544 13.042 199.703 12.8976C201.639 12.7754 203.531 12.5421 205.4 12.2533C209.361 11.6424 213.389 10.8316 216.839 9.68747C220.288 8.54339 222.87 7.04387 225.474 5.51102C226.92 4.65574 228.389 3.80045 229.836 2.93406C231.082 2.20096 232.862 1.39011 233.552 0.490392C233.664 0.345994 233.285 0.234918 233.063 0.301563C231.416 0.779189 230.125 1.75666 228.901 2.46754C227.61 3.21175 226.319 3.96707 225.029 4.71127C222.425 6.22191 219.866 7.79918 216.55 8.94326C210.073 11.187 201.416 12.4199 193.583 12.5199C193.249 12.5199 193.16 12.7865 193.494 12.8198V12.8309Z" fill="#927A20"/>
<path d="M233.084 0.212537C224.294 0.93453 215.369 2.00086 207.491 4.16684C203.997 5.1332 200.681 6.3106 197.855 7.73237C195.028 9.15414 192.669 10.7759 189.465 12.0532C189.131 12.1865 189.487 12.4642 189.865 12.3976C193.382 11.82 195.629 10.0872 198.011 8.77649C200.837 7.22142 204.197 5.95516 207.825 4.92215C215.703 2.67842 224.516 1.6232 233.24 0.534657C233.663 0.47912 233.485 0.179215 233.062 0.212537H233.084Z" fill="#927A20"/>
<path d="M166.386 9.49824C173.908 11.2532 180.696 13.6747 185.703 17.0292C190.132 20.006 192.936 24.0492 199.768 25.9152C200.08 26.0041 200.436 25.7931 200.146 25.6598C194.049 22.9606 191.044 19.1841 186.081 16.0406C181.118 12.8972 174.397 10.3202 166.764 9.03172C166.23 8.94286 165.874 9.36495 166.386 9.48713V9.49824Z" fill="#927A20"/>
<path d="M173.864 11.3311C182.432 12.5196 189.442 15.4298 195.006 18.7954C198.099 20.6614 200.792 22.683 203.351 24.7268C204.575 25.7043 205.733 26.704 206.979 27.6703C208.069 28.5256 209.249 29.3031 211.007 29.8252C211.497 29.9696 212.009 29.6364 211.608 29.4364C208.292 27.7703 206.178 25.571 203.685 23.5938C201.193 21.6167 198.389 19.5951 195.251 17.7735C189.665 14.5301 182.565 11.842 174.175 10.7535C173.441 10.6535 173.129 11.22 173.864 11.32V11.3311Z" fill="#927A20"/>
<path d="M211.248 29.47C201.745 28.6147 192.821 26.5154 185.833 23.1609C182.517 21.5725 179.691 19.762 177.443 17.7626C175.062 15.6522 172.547 13.0197 172.703 10.5427C172.725 10.1095 171.39 10.1095 171.345 10.5427C171.122 12.5531 172.614 14.5525 174.26 16.3519C175.907 18.1514 177.821 19.7286 180.158 21.2282C184.965 24.305 191.285 26.7486 198.429 28.2926C202.457 29.1701 206.73 29.7366 211.092 29.9809C211.693 30.0143 211.827 29.5144 211.226 29.4589L211.248 29.47Z" fill="#927A20"/>
<path d="M140.968 9.53164C137.296 10.2536 135.315 12.2197 133.535 13.8525C131.242 15.9407 129.306 18.1289 126.903 20.1838C122.452 23.9937 115.553 27.6592 106.028 27.5481C105.071 27.5481 105.093 28.2479 106.028 28.2812C114.863 28.5923 122.007 25.4377 126.502 21.961C129.039 20.0061 130.998 17.8734 133.045 15.7852C134.091 14.7078 135.182 13.6414 136.383 12.6084C137.585 11.5754 138.965 10.5202 141.257 10.0315C141.858 9.89819 141.613 9.39835 140.968 9.52053V9.53164Z" fill="#927A20"/>
<path d="M137.408 10.0982C130.131 12.1086 122.786 14.2746 116.755 17.1626C113.773 18.5955 111.192 20.2505 109.211 22.0721C108.187 23.0274 107.319 24.016 106.629 25.049C105.939 26.082 105.205 27.1594 105.183 28.2035C105.183 28.6034 106.296 28.6589 106.54 28.2924C107.208 27.3038 107.475 26.2486 108.143 25.26C108.81 24.2714 109.745 23.2162 110.791 22.261C112.772 20.4726 115.376 18.8843 118.291 17.4625C124.055 14.6412 131.043 12.6085 137.853 10.498C138.365 10.3425 137.92 9.94266 137.386 10.0871L137.408 10.0982Z" fill="#927A20"/>
<path d="M136.628 10.598C132.244 12.7085 127.971 14.8633 124.076 17.1959C122.251 18.2956 120.493 19.4063 118.78 20.5504C116.933 21.7945 114.996 23.0496 113.594 24.4492C113.372 24.6824 113.973 24.9601 114.351 24.738C116.198 23.6605 117.756 22.472 119.447 21.3279C121.317 20.0617 123.231 18.8176 125.211 17.5958C128.995 15.2743 132.845 12.9528 137.029 10.8091C137.296 10.6647 136.873 10.4647 136.606 10.598H136.628Z" fill="#927A20"/>
<path d="M128.484 11.1314C118.892 11.9422 109.545 10.3983 100.265 9.45413C95.8804 9.00983 91.4517 8.73214 86.9785 8.80989C84.8198 8.84321 82.661 8.95429 80.5246 9.14312C78.3881 9.33195 75.8956 9.48745 74.1597 10.0984C73.7814 10.2317 73.8926 10.5316 74.4045 10.5427C76.4964 10.5538 78.6552 10.1206 80.7026 9.94286C83.0394 9.74293 85.3984 9.62074 87.7574 9.58742C92.5422 9.52078 97.2602 9.88733 101.934 10.3872C110.702 11.3202 119.715 12.6309 128.684 11.5424C129.196 11.4757 128.973 11.1092 128.462 11.1536L128.484 11.1314Z" fill="#927A20"/>
<path d="M125.054 11.5868C117.176 13.4195 108.497 14.708 99.7059 14.5081C95.2995 14.4081 91.0488 13.8861 86.9539 13.0752C82.859 12.2644 79.0089 11.0314 74.8917 10.1761C74.0683 9.99841 73.6455 10.6426 74.3131 10.8648C76.2493 11.5201 78.4525 12.0311 80.5445 12.5643C82.6364 13.0974 84.6394 13.5417 86.7536 13.9527C90.982 14.7636 95.433 15.2523 99.973 15.3189C108.919 15.4411 117.732 14.1082 125.455 11.92C125.878 11.7978 125.499 11.4979 125.076 11.5979L125.054 11.5868Z" fill="#927A20"/>
<path d="M126.016 11.6867C118.427 12.753 110.749 13.1307 102.893 12.7642C98.9319 12.5753 94.9706 12.231 91.0982 11.7756C87.2259 11.3202 83.6206 10.7204 79.8373 10.2538C79.3031 10.1872 78.8803 10.5982 79.4367 10.7204C86.6027 12.331 94.8148 13.1529 102.626 13.475C110.438 13.7972 118.783 13.5417 126.239 12.131C126.773 12.0311 126.572 11.609 125.994 11.6978L126.016 11.6867Z" fill="#927A20"/>
<path d="M64.9267 17.9845C54.044 17.9956 43.3172 17.7512 33.0577 15.7518C24.5341 14.0968 16.7894 11.431 10.5803 8.0765C7.06403 6.16599 4.32668 4.03334 1.56708 1.85625C1.16649 1.53413 0.276297 1.81182 0.56561 2.14505C2.41276 4.25549 5.23913 6.16599 8.26579 7.88767C11.2925 9.60935 14.7642 11.1977 18.503 12.564C26.2922 15.4075 35.3277 17.2958 44.875 18.0289C51.507 18.5398 58.2502 18.5954 64.9267 18.3843C65.4385 18.3732 65.4608 17.9734 64.9267 17.9734V17.9845Z" fill="#927A20"/>
<path d="M61.9637 17.5848C53.9074 15.6743 46.7859 12.9641 39.3305 10.5426C31.8751 8.12115 23.5518 6.03293 15.184 4.26682C12.914 3.78919 10.644 3.32267 8.35172 2.87837C5.92594 2.40075 3.43339 1.82315 0.896339 1.53435C0.161929 1.4566 -0.349933 1.96755 0.362223 2.15638C2.2984 2.65622 4.45712 2.98945 6.48231 3.37821C8.64103 3.78919 10.7775 4.21128 12.914 4.64448C17.2759 5.53308 21.5711 6.49944 25.7773 7.55466C33.8335 9.56514 41.1554 12.0866 48.7666 14.4858C52.906 15.7854 57.1566 17.0072 61.6744 17.9514C62.0972 18.0402 62.3865 17.6848 61.9859 17.5848H61.9637Z" fill="#927A20"/>
</svg>
