<svg width="302" height="32" viewBox="0 0 302 32" fill="none" xmlns="http://www.w3.org/2000/svg">
<path d="M150.634 8.84754C148.9 8.14681 146.4 8.29914 145.379 9.74123C144.182 11.427 145.459 13.712 146.992 15.0018C148.941 16.6267 151.885 17.2969 154.68 17.561C157.476 17.825 160.581 17.7539 163.485 17.4594C175.663 16.2103 186.43 11.2138 198.394 9.29438C205.034 8.22806 211.809 8.42101 218.382 9.65998C221.729 10.2896 224.982 11.1528 228.141 12.209C231.3 13.2652 234.203 14.494 237.281 15.5603C240.359 16.6267 243.37 17.368 246.664 17.693C250.172 18.0383 253.748 17.9367 257.269 17.693C261.1 17.4188 264.891 16.8196 268.614 16.1087C273.265 15.2252 277.862 14.1081 282.271 12.6762C286.035 11.4575 290.202 9.96465 292.971 7.60857C293.536 7.13126 293.993 6.61333 294.477 6.0954C294.813 5.73996 294.033 5.40483 293.71 5.75011C292.756 6.77582 291.224 7.62888 289.893 8.34992C288.24 9.25376 286.465 10.0154 284.651 10.6958C280.564 12.2395 276.222 13.3972 271.84 14.3518C267.929 15.2049 263.963 15.9259 259.944 16.3931C254.5 17.0329 248.653 17.2563 243.29 16.1798C240.131 15.5502 237.187 14.4534 234.284 13.3566C231.38 12.2598 228.705 11.2747 225.802 10.4216C219.834 8.68505 213.449 7.58826 207.037 7.60857C195.114 7.64919 184.414 11.9856 173.324 14.7174C167.894 16.058 162.235 17.0126 156.482 16.7485C153.592 16.6165 150.379 16.19 148.201 14.6362C147.207 13.9253 146.494 13.0113 146.212 12.0059C145.997 11.2341 145.957 10.2592 146.777 9.69045C147.771 8.98972 149.089 8.89832 150.298 9.31469C150.715 9.45687 151.078 9.01003 150.661 8.84754H150.634Z" fill="#927A20"/>
<path d="M204.805 8.56317C209.066 7.18202 213.26 5.64854 217.736 4.68377C222.213 3.71899 226.931 3.45495 231.662 4.00335C232.2 4.06428 232.442 3.48542 231.891 3.37371C227.334 2.4394 222.28 2.9878 217.804 3.96273C213.327 4.93766 208.784 6.52191 204.536 8.21788C204.227 8.33975 204.496 8.66473 204.805 8.57333V8.56317Z" fill="#927A20"/>
<path d="M232.052 3.91196C232.415 3.54637 232.885 3.2417 233.383 2.98781C233.638 2.85579 233.907 2.73393 234.189 2.64253C234.472 2.55113 234.767 2.4191 235.05 2.30739C235.292 2.21599 235.171 1.9418 234.915 1.93164C234.552 1.93164 234.203 1.96211 233.867 2.07382C233.531 2.18553 233.195 2.29724 232.899 2.44957C232.294 2.75424 231.77 3.16046 231.353 3.6073C231.232 3.73932 231.326 3.94243 231.501 4.02367C231.703 4.11507 231.918 4.04399 232.052 3.91196Z" fill="#927A20"/>
<path d="M231.434 3.68848C231.246 4.19626 231.246 4.72434 231.421 5.23212C231.595 5.73989 231.972 6.3086 232.644 6.50156C232.899 6.57264 233.168 6.34922 233.087 6.16642C232.993 5.95316 232.832 5.77036 232.698 5.56725C232.657 5.51647 232.63 5.46569 232.59 5.41492C232.577 5.39461 232.563 5.3743 232.55 5.34383C232.509 5.2829 232.577 5.39461 232.55 5.33367C232.496 5.23212 232.442 5.12041 232.402 5.01885C232.362 4.9173 232.335 4.81574 232.308 4.70403C232.308 4.68372 232.308 4.65325 232.308 4.69388C232.308 4.67357 232.308 4.6431 232.308 4.62279C232.308 4.56185 232.308 4.51108 232.294 4.45014C232.294 4.34859 232.294 4.23688 232.294 4.13532C232.294 4.11501 232.294 4.08455 232.294 4.06424C232.294 4.10486 232.294 4.06424 232.294 4.05408C232.308 3.99315 232.321 3.93221 232.348 3.87128C232.415 3.68848 232.267 3.48537 232.012 3.43459C231.757 3.38382 231.501 3.49553 231.434 3.68848Z" fill="#927A20"/>
<path d="M231.904 3.98316C232.321 4.21673 232.765 4.39953 233.248 4.54171C233.477 4.6128 233.692 4.65342 233.934 4.68389C234.082 4.7042 234.23 4.72451 234.378 4.72451C234.499 4.72451 234.633 4.71435 234.754 4.7042C234.902 4.69404 235.036 4.62295 235.063 4.50109C235.077 4.38938 234.996 4.27767 234.835 4.2472C234.606 4.19642 234.378 4.13549 234.163 4.08471C233.947 4.03393 233.719 3.98316 233.504 3.92222C233.45 3.91207 233.41 3.89176 233.356 3.8816C233.302 3.87145 233.302 3.86129 233.343 3.8816C233.316 3.8816 233.289 3.86129 233.262 3.85113C233.154 3.81051 233.047 3.76989 232.939 3.72927C232.724 3.64802 232.536 3.54647 232.334 3.43476C232.146 3.3332 231.85 3.40429 231.743 3.54647C231.622 3.71911 231.703 3.8816 231.891 3.99331L231.904 3.98316Z" fill="#927A20"/>
<path d="M232.456 3.93227C232.927 3.77994 233.424 3.67838 233.935 3.6073C234.177 3.57683 234.392 3.55652 234.661 3.53621C234.957 3.5159 235.198 3.46512 235.494 3.40419C235.83 3.34325 235.803 2.98781 235.494 2.90657C235.198 2.83548 234.916 2.79486 234.607 2.80501C234.298 2.81517 233.989 2.85579 233.693 2.90657C233.115 2.99797 232.564 3.1503 232.026 3.34325C231.811 3.4245 231.757 3.64792 231.865 3.7901C231.999 3.96274 232.241 3.98305 232.456 3.91196V3.93227Z" fill="#927A20"/>
<path d="M231.862 4.05408C232.05 4.42984 232.279 4.79543 232.588 5.13057C232.736 5.30321 232.911 5.4657 233.085 5.61803C233.26 5.77036 233.462 5.89223 233.663 6.01409C233.825 6.11565 234.067 6.14612 234.228 6.01409C234.376 5.89223 234.389 5.70943 234.228 5.58756C234.053 5.45554 233.892 5.32352 233.731 5.18134C233.65 5.11026 233.569 5.03917 233.489 4.96808C233.448 4.93761 233.475 4.94777 233.489 4.96808C233.462 4.94777 233.448 4.92746 233.421 4.90714C233.381 4.86652 233.354 4.83606 233.314 4.79543C233.179 4.65326 233.058 4.50092 232.951 4.33844C232.897 4.25719 232.843 4.17595 232.79 4.0947C232.776 4.07439 232.763 4.04393 232.749 4.02362C232.722 3.98299 232.749 4.0033 232.749 4.02362C232.722 3.97284 232.695 3.93222 232.682 3.88144C232.601 3.72911 232.386 3.59708 232.158 3.65802C231.956 3.7088 231.781 3.88144 231.862 4.05408Z" fill="#927A20"/>
<path d="M234.094 2.61203C235.156 2.59172 236.205 2.78468 237.132 3.17059C238.06 3.5565 238.759 4.13536 239.431 4.74469C239.592 4.88687 239.834 4.70407 239.753 4.56189C239.296 3.79007 238.328 3.20105 237.361 2.83546C236.393 2.46986 235.237 2.26675 234.108 2.31753C233.852 2.32768 233.852 2.62219 234.108 2.62219L234.094 2.61203Z" fill="#927A20"/>
<path d="M232.71 6.11568C233.946 6.63361 235.411 6.73516 236.769 6.49143C237.468 6.36957 238.113 6.14614 238.691 5.83132C238.906 5.71961 239.242 5.55712 239.296 5.34386C239.336 5.19153 239.162 4.99857 238.987 4.92748L238.853 5.10013C239.39 5.29308 239.847 4.88686 239.578 4.50095C239.471 4.33846 239.148 4.48064 239.256 4.64313C239.363 4.80562 239.162 4.94779 238.96 4.90717C238.785 4.87671 238.718 5.06966 238.893 5.10013C239.121 5.14075 238.718 5.39464 238.691 5.40479C238.584 5.46573 238.463 5.5165 238.342 5.57744C238.1 5.68915 237.831 5.7907 237.576 5.87195C237.092 6.02428 236.621 6.1563 236.097 6.22739C234.995 6.38988 233.852 6.29848 232.844 5.92272C232.696 5.86179 232.562 6.03443 232.71 6.09537V6.11568Z" fill="#927A20"/>
<path d="M201.875 8.51248C203.031 10.7162 205.034 12.6559 207.077 14.423C208.193 15.3776 209.376 16.2916 210.653 17.1243C211.715 17.8149 212.857 18.4852 214.175 18.8914C214.645 19.0336 214.901 18.4852 214.511 18.3024C209.457 15.9158 205.236 12.3005 202.373 8.3703C202.225 8.17735 201.768 8.30937 201.875 8.52264V8.51248Z" fill="#927A20"/>
<path d="M213.891 18.4953C213.851 19.0234 213.918 19.5718 214.133 20.0694C214.348 20.5671 214.684 21.0748 215.262 21.4201C215.504 21.5623 215.8 21.3897 215.679 21.1764C215.437 20.7397 215.141 20.3233 214.966 19.8765C214.792 19.4296 214.684 18.9726 214.711 18.4953C214.711 18.3329 214.523 18.1907 214.308 18.1907C214.079 18.1907 213.918 18.3329 213.904 18.4953H213.891Z" fill="#927A20"/>
<path d="M214.873 18.7391C214.94 18.6376 215.007 18.5462 215.075 18.4548C215.115 18.404 215.155 18.3634 215.196 18.3228C215.222 18.2923 215.249 18.272 215.196 18.3228C215.222 18.3025 215.249 18.272 215.276 18.2517C215.37 18.1704 215.464 18.0994 215.559 18.0283C215.612 17.9876 215.666 17.9572 215.72 17.9166C215.679 17.9369 215.787 17.8658 215.72 17.9166C215.747 17.8962 215.787 17.8861 215.814 17.8658C215.921 17.8048 216.042 17.7541 216.163 17.7033C216.231 17.6728 216.284 17.6525 216.352 17.622C216.378 17.6119 216.405 17.6017 216.446 17.5916C216.459 17.5916 216.58 17.551 216.473 17.5916C216.567 17.5611 216.647 17.5408 216.741 17.5103C216.782 17.5002 216.849 17.4799 216.768 17.5002C216.809 17.49 216.835 17.4799 216.876 17.4697C217.037 17.4291 217.185 17.3783 217.319 17.3174C217.588 17.1955 217.534 16.8908 217.239 16.8198C216.916 16.7385 216.513 16.7893 216.19 16.8807C215.868 16.9721 215.572 17.0838 215.29 17.2463C214.752 17.5611 214.295 17.9572 214.026 18.4243C213.932 18.597 213.945 18.8204 214.201 18.9118C214.416 18.993 214.739 18.9626 214.846 18.7798L214.873 18.7391Z" fill="#927A20"/>
<path d="M214.577 19.054C214.819 19.054 214.994 19.0743 215.196 19.1048C215.424 19.1352 215.666 19.186 215.881 19.2368C216.096 19.2876 216.311 19.3485 216.527 19.4196C216.553 19.4196 216.553 19.4196 216.527 19.4196C216.553 19.4196 216.58 19.4399 216.607 19.4501C216.674 19.4704 216.755 19.5008 216.822 19.5212C216.93 19.5516 217.051 19.5821 217.158 19.6126C217.279 19.6532 217.441 19.5821 217.508 19.5008C217.575 19.4094 217.562 19.2876 217.454 19.2165C217.064 18.922 216.621 18.729 216.096 18.597C215.572 18.465 215.075 18.4142 214.551 18.4041C214.322 18.4041 214.107 18.5564 214.12 18.729C214.12 18.9118 214.309 19.0439 214.551 19.054H214.577Z" fill="#927A20"/>
<path d="M214.242 18.993C214.497 19.3992 214.82 19.7648 215.183 20.1202C215.357 20.2827 215.546 20.435 215.734 20.5772C215.855 20.6585 216.003 20.7499 216.137 20.8108C216.272 20.8717 216.433 20.9123 216.581 20.953C216.85 21.0342 217.132 20.7499 216.957 20.5772C216.782 20.4046 216.621 20.2218 216.406 20.0694C216.218 19.9273 216.03 19.7851 215.855 19.6328C215.774 19.5617 215.68 19.4804 215.599 19.4093C215.653 19.4601 215.599 19.4093 215.586 19.389C215.559 19.3687 215.546 19.3484 215.519 19.3281C215.478 19.2875 215.438 19.2468 215.398 19.1961C215.237 19.0234 215.102 18.8508 214.968 18.668C214.86 18.5157 214.564 18.4547 214.376 18.5461C214.161 18.6477 214.121 18.8305 214.215 18.993H214.242Z" fill="#927A20"/>
<path d="M215.143 18.8712C215.937 18.5157 216.864 18.3228 217.765 18.2517C217.98 18.2314 218.168 18.1298 218.168 17.947C218.168 17.7845 217.98 17.6525 217.765 17.6423C216.689 17.6423 215.627 17.8861 214.713 18.3126C214.512 18.404 214.444 18.597 214.565 18.7493C214.686 18.9016 214.942 18.9524 215.143 18.861V18.8712Z" fill="#927A20"/>
<path d="M214.954 20.7398C215.801 21.3186 216.836 21.7147 217.952 21.8873C219.068 22.06 220.264 22.0498 221.272 21.6639C221.487 21.5827 221.326 21.3491 221.111 21.3796C220.089 21.5319 219.081 21.6537 218.033 21.5116C216.984 21.3694 216.03 21.0343 215.237 20.5265C215.049 20.4046 214.766 20.6077 214.954 20.7398Z" fill="#927A20"/>
<path d="M216.984 17.3172C218.059 17.5 219.014 17.957 219.74 18.5867C220.103 18.9015 220.371 19.2468 220.64 19.6022C220.775 19.785 220.896 19.978 220.99 20.1811C221.03 20.2725 221.07 20.3537 221.111 20.4451C221.111 20.4756 221.245 20.9021 221.044 20.831L220.909 21.0037C221.138 21.0849 221.151 21.2982 220.909 21.3693C220.681 21.4404 220.882 21.6841 221.097 21.613C221.608 21.4505 221.568 20.9021 221.017 20.8107C220.842 20.7803 220.775 20.9732 220.949 21.0037C221.151 21.0443 221.474 20.9631 221.554 20.8107C221.689 20.5873 221.527 20.2623 221.433 20.0491C221.218 19.5514 220.909 19.0944 220.465 18.6882C219.619 17.8859 218.422 17.2868 217.065 17.1141C216.903 17.0938 216.823 17.2766 216.997 17.3071L216.984 17.3172Z" fill="#927A20"/>
<path d="M177.612 14.0675C174.83 16.6571 171.752 19.0843 168.445 21.288C165.138 23.4918 161.375 25.4416 157.732 27.4321C157.463 27.5845 157.691 27.8993 158.001 27.7774C161.953 26.2439 165.515 24.1214 168.835 21.8974C172.155 19.6733 175.314 17.1344 178.096 14.4432C178.365 14.1792 177.895 13.8034 177.599 14.0675H177.612Z" fill="#927A20"/>
<path d="M174.911 16.2712C170.005 17.3884 165.569 19.3687 161.697 21.8974C159.735 23.177 157.947 24.6089 156.334 26.1526C154.829 27.6048 153.189 29.2195 152.449 30.9967C152.355 31.2303 152.772 31.3217 152.947 31.1491C154.439 29.6461 155.608 27.9805 157.181 26.508C158.754 25.0355 160.434 23.7152 162.276 22.4864C165.999 20.0085 170.368 17.9774 175.086 16.7892C175.502 16.6775 175.328 16.1798 174.897 16.2814L174.911 16.2712Z" fill="#927A20"/>
<path d="M175.38 16.4032C174.95 16.718 174.761 17.175 174.506 17.5711C174.251 17.9671 173.995 18.353 173.726 18.7389C173.162 19.5717 172.53 20.3943 171.845 21.1661C170.312 22.8824 168.403 24.2635 166.172 25.4517C164.062 26.5688 161.897 27.6656 159.666 28.6406C158.55 29.128 157.421 29.5749 156.238 29.9608C155.593 30.174 154.948 30.367 154.276 30.5295C153.698 30.6717 153.039 30.7529 152.528 31.0068C152.273 31.1388 152.394 31.3927 152.676 31.413C153.859 31.5146 155.365 30.9357 156.427 30.6006C157.65 30.2147 158.833 29.7678 159.989 29.2804C162.408 28.2547 164.761 27.0868 167.019 25.858C169.277 24.6291 170.998 23.3394 172.463 21.6739C173.202 20.831 173.861 19.9475 174.452 19.0436C174.923 18.3226 175.756 17.3375 175.783 16.5149C175.783 16.3626 175.528 16.2813 175.38 16.393V16.4032Z" fill="#927A20"/>
<path d="M168.216 3.67849C170.528 5.8213 173.338 7.56805 176.51 8.9492C178.042 9.61946 179.656 10.178 181.309 10.6452C182.142 10.8787 182.989 11.0819 183.849 11.2545C184.71 11.4271 185.664 11.6607 186.578 11.6607C187.022 11.6607 187.075 11.2037 186.686 11.092C185.852 10.8686 184.938 10.8178 184.078 10.6553C183.218 10.4928 182.438 10.3303 181.645 10.1171C179.938 9.68039 178.298 9.13199 176.725 8.47189C173.634 7.18214 170.878 5.43539 168.539 3.43476C168.351 3.27227 168.042 3.50584 168.216 3.67849Z" fill="#927A20"/>
<path d="M185.099 11.3358C180.354 11.2444 175.139 10.107 171.227 8.06574C169.278 7.05019 167.745 5.63857 166.213 4.28789C165.393 3.56685 164.587 2.85596 163.767 2.13492C163.027 1.48497 162.248 0.581131 161.253 0.1546C161.105 0.0936672 160.89 0.195222 160.957 0.327244C161.374 1.16 162.449 1.89119 163.202 2.56145C164.049 3.31296 164.896 4.06447 165.729 4.81598C167.329 6.2479 168.955 7.68998 171.052 8.72585C173.149 9.76171 175.475 10.4827 177.814 11.0311C178.983 11.3053 180.179 11.5389 181.402 11.6608C182.706 11.7928 183.862 11.742 185.153 11.5999C185.368 11.5795 185.301 11.3358 185.099 11.3257V11.3358Z" fill="#927A20"/>
<path d="M161.12 0.37792C166.39 1.37316 171.713 2.33793 176.471 4.38935C178.622 5.32365 180.625 6.46107 182.305 7.84222C183.784 9.05072 185.141 10.6858 187.319 11.224C187.547 11.2849 187.762 11.0209 187.561 10.9092C185.625 9.7413 184.227 8.2789 182.493 6.95869C180.759 5.63847 178.797 4.5823 176.673 3.69877C171.928 1.7286 166.524 0.753674 161.215 0.0834104C160.959 0.0529439 160.852 0.327143 161.107 0.37792H161.12Z" fill="#927A20"/>
<path d="M201.284 8.14698C196.687 9.32502 192.614 11.6811 189.616 14.5551C186.619 17.4291 184.817 20.882 181.121 23.3498C180.946 23.4615 181.161 23.6544 181.349 23.5834C185.463 21.8772 187.17 18.1806 189.845 15.4589C192.856 12.392 196.955 10.1781 201.512 8.57351C201.821 8.4618 201.606 8.0759 201.284 8.15714V8.14698Z" fill="#927A20"/>
<path d="M196.807 9.72093C191.739 10.7162 187.451 13.1738 184.077 16.1392C182.182 17.8047 180.529 19.6124 178.983 21.4607C177.437 23.309 176.187 25.269 174.198 26.8025C173.956 26.9853 174.265 27.2899 174.56 27.1579C176.711 26.1932 177.827 24.1417 179.104 22.588C180.677 20.6787 182.316 18.7999 184.225 17.0634C187.599 13.9862 191.833 11.3255 196.995 10.2389C197.439 10.1475 197.25 9.63968 196.807 9.72093Z" fill="#927A20"/>
<path d="M174.492 27.3001C183.888 26.4979 192.195 21.8669 196.348 15.4893C197.531 13.6715 198.66 11.5896 198.513 9.52801C198.486 9.13194 197.679 9.13194 197.693 9.52801C197.787 11.7927 196.268 14.1894 194.83 16.1291C193.472 17.9469 191.765 19.6124 189.762 21.0647C185.528 24.1316 180.151 26.0409 174.411 26.833C174.062 26.8838 174.129 27.3408 174.492 27.3103V27.3001Z" fill="#927A20"/>
<path d="M216.687 9.06086C218.071 9.49754 218.904 10.4725 219.63 11.4169C220.356 12.3614 221.015 13.3363 221.647 14.3214C222.883 16.2306 224.066 18.1805 225.599 19.9679C228.327 23.1465 232.642 26.0307 237.965 25.7464C238.53 25.7159 238.543 25.0659 237.965 25.0761C232.199 25.1776 228.045 21.8263 225.357 18.343C223.932 16.4947 222.776 14.5347 221.418 12.6559C220.316 11.1326 219.12 9.27412 216.848 8.60386C216.458 8.49215 216.31 8.94915 216.673 9.07101L216.687 9.06086Z" fill="#927A20"/>
<path d="M218.717 9.4772C222.831 11.4067 227.051 13.2652 230.533 15.8447C232.294 17.1548 233.866 18.5968 235.063 20.2319C235.708 21.1053 236.246 22.0192 236.662 22.9739C237.079 23.9285 237.227 24.8425 237.63 25.7463C237.778 26.0713 238.45 26.0307 238.45 25.6651C238.45 24.7105 237.98 23.6848 237.576 22.7809C237.173 21.8771 236.635 20.9326 236.017 20.0592C234.834 18.3937 233.275 16.8806 231.46 15.5705C227.818 12.9301 223.395 10.9396 218.986 9.1116C218.664 8.97958 218.381 9.33502 218.704 9.48736L218.717 9.4772Z" fill="#927A20"/>
<path d="M219.229 9.76158C221.756 11.7216 224.095 13.8441 226.367 15.9666C227.536 17.0532 228.665 18.1602 229.767 19.2874C230.87 20.4147 231.784 21.481 232.94 22.4966C233.168 22.6895 233.531 22.4458 233.397 22.2325C232.577 20.9936 231.448 19.8765 230.359 18.7594C229.27 17.6423 228.208 16.6267 227.066 15.601C224.713 13.4582 222.132 11.4982 219.484 9.56863C219.31 9.44676 219.068 9.63972 219.229 9.76158Z" fill="#927A20"/>
<path d="M224.267 10.4218C229.685 11.4069 235.129 10.2187 240.425 9.36562C243.194 8.91878 245.99 8.5938 248.839 8.63443C250.278 8.65474 251.702 8.76645 253.114 8.93909C254.404 9.10158 255.762 9.51796 257.079 9.49765C257.375 9.49765 257.442 9.21329 257.227 9.09142C256.205 8.55318 254.74 8.40085 253.531 8.23836C252.24 8.06572 250.936 7.96416 249.632 7.92354C246.877 7.8423 244.148 8.09619 241.46 8.51256C235.841 9.37578 230.209 10.7874 224.415 10.046C224.106 10.0054 223.972 10.3507 224.281 10.4015L224.267 10.4218Z" fill="#927A20"/>
<path d="M226.245 10.7669C230.909 12.7777 236.232 13.9964 241.636 13.8745C244.378 13.8136 247.053 13.3668 249.621 12.6254C250.898 12.2496 252.148 11.8231 253.371 11.356C254.594 10.8888 255.965 10.4013 257.135 9.80217C257.524 9.59906 257.296 9.01004 256.785 9.17253C254.352 9.94435 252.107 11.031 249.634 11.7825C247.161 12.534 244.499 13.0316 241.797 13.1332C236.488 13.3261 231.259 12.1481 226.487 10.4623C226.232 10.3709 226.003 10.6451 226.259 10.7568L226.245 10.7669Z" fill="#927A20"/>
<path d="M225.734 10.9601C230.237 12.2498 235.224 12.4935 239.996 12.1889C244.768 11.8842 249.674 11.1429 254.002 9.67031C254.338 9.5586 254.096 9.17269 253.76 9.24378C251.489 9.68047 249.244 10.2289 246.959 10.6351C244.674 11.0413 242.241 11.3663 239.835 11.5389C235.103 11.8741 230.452 11.5389 225.868 10.5538C225.519 10.4828 225.398 10.8585 225.721 10.9499L225.734 10.9601Z" fill="#927A20"/>
<path d="M262.795 16.6977C269.409 17.0126 276.277 16.6977 282.501 14.8393C287.703 13.2855 292.435 10.838 296.239 7.74058C298.376 6.00398 300.392 4.03382 301.656 1.84023C301.831 1.53556 301.293 1.28167 301.051 1.57618C299.572 3.3534 298.121 5.1103 296.279 6.6844C294.437 8.25851 292.408 9.68028 290.176 10.8989C285.593 13.4073 280.283 15.0932 274.705 15.804C270.766 16.3017 266.774 16.322 262.795 16.3118C262.473 16.3118 262.486 16.6673 262.795 16.6876V16.6977Z" fill="#927A20"/>
<path d="M264.757 16.2815C269.664 14.7176 273.965 12.3615 278.428 10.2085C282.891 8.05556 288.025 6.08539 293.107 4.46051C294.558 3.99335 296.023 3.55667 297.502 3.11998C298.981 2.68329 300.432 2.36847 301.777 1.84039C302.207 1.66774 301.898 1.19043 301.454 1.27168C300.11 1.50525 298.806 1.9521 297.529 2.32785C296.252 2.7036 294.935 3.09967 293.644 3.50589C291.131 4.29802 288.644 5.14093 286.211 6.06508C281.345 7.90322 276.882 10.1781 272.379 12.4732C269.865 13.7528 267.285 14.9613 264.542 15.9464C264.3 16.0378 264.475 16.3628 264.731 16.2815H264.757Z" fill="#927A20"/>
<path d="M151.736 9.31487C152.973 8.8985 154.331 9.00005 155.325 9.73125C156.092 10.3 156.038 11.2749 155.836 12.0061C155.204 14.2504 152.664 15.6316 149.895 16.2409C144.411 17.4393 138.187 16.7081 132.783 15.6316C121.626 13.3974 111.33 8.91881 99.7565 7.84232C93.4387 7.2533 87.0135 7.85248 80.9243 9.21332C77.8058 9.91405 74.7813 10.8077 71.8375 11.8436C68.8938 12.8795 66.2726 13.9864 63.4095 14.9309C60.2909 15.9667 57.038 16.6268 53.6372 16.8198C50.559 16.9924 47.4404 16.8807 44.3757 16.6268C40.6657 16.3323 36.9826 15.7128 33.3802 15.0121C28.9443 14.1489 24.5623 13.1029 20.3549 11.7319C16.645 10.5234 13.0828 9.06098 10.0181 7.04004C9.42663 6.65413 8.79486 6.2276 8.33783 5.74013C8.01523 5.38469 7.2356 5.71982 7.57164 6.08542C8.63356 7.23299 9.72235 8.19777 11.201 9.05083C12.9215 10.0461 14.7765 10.8687 16.7122 11.5897C20.9598 13.2044 25.4897 14.4028 30.0466 15.398C34.1329 16.2917 38.2999 17.0229 42.5207 17.4596C48.3679 18.0791 54.5781 18.2314 60.2775 16.8706C63.4498 16.1191 66.4204 14.9613 69.3777 13.8341C72.4828 12.656 75.6416 11.5592 78.9349 10.7062C85.4005 9.03052 92.2693 8.17745 99.0978 8.72585C111.397 9.71094 122.258 14.7582 134.195 16.8401C137.085 17.3479 140.042 17.6729 143.013 17.7135C145.983 17.7541 148.981 17.6018 151.669 16.7385C154.169 15.9363 156.36 14.3926 156.925 12.3209C157.355 10.7773 156.871 9.13207 154.734 8.55321C153.591 8.24854 152.435 8.41103 151.387 8.82741C150.97 9.00005 151.333 9.43674 151.75 9.29456L151.736 9.31487Z" fill="#927A20"/>
<path d="M97.4698 8.208C93.2221 6.51204 88.8266 4.95824 84.2026 3.95285C79.5786 2.94745 74.6722 2.42952 70.1154 3.36383C69.5643 3.47554 69.8063 4.0544 70.3439 3.99347C75.0755 3.44507 79.6592 3.67865 84.2698 4.67389C88.8804 5.66913 92.9264 7.17214 97.2009 8.55329C97.5101 8.65485 97.7924 8.32987 97.4698 8.19785V8.208Z" fill="#927A20"/>
<path d="M70.64 3.59744C70.2233 3.1506 69.699 2.74438 69.0941 2.43971C68.7984 2.28738 68.4758 2.17567 68.1398 2.07412C67.8037 1.97256 67.4408 1.92178 67.0779 1.93194C66.8225 1.93194 66.7149 2.20614 66.9434 2.30769C67.2257 2.4194 67.4945 2.53111 67.7768 2.63267C68.0591 2.73422 68.3414 2.85609 68.6102 2.98811C69.1076 3.242 69.5646 3.54666 69.941 3.91226C70.0754 4.04428 70.2905 4.11537 70.4921 4.02397C70.6668 3.94273 70.7609 3.73962 70.64 3.6076V3.59744Z" fill="#927A20"/>
<path d="M69.6592 3.88177C69.6726 3.93254 69.6995 3.99348 69.713 4.04425C69.713 4.04425 69.7264 4.11534 69.713 4.08488C69.6995 4.05441 69.713 4.1255 69.713 4.1255C69.7264 4.22705 69.7264 4.33876 69.7264 4.44032C69.7264 4.50125 69.7264 4.55203 69.7264 4.61296C69.7264 4.63327 69.7264 4.66374 69.7264 4.68405C69.7264 4.74498 69.7264 4.63327 69.7264 4.69421C69.6995 4.80592 69.6726 4.91763 69.6323 5.01918C69.592 5.12074 69.5382 5.22229 69.4979 5.32385C69.4979 5.34416 69.471 5.37463 69.4979 5.334C69.4979 5.35431 69.471 5.37463 69.4576 5.40509C69.4307 5.45587 69.3903 5.50665 69.35 5.55742C69.2022 5.75038 69.0409 5.95349 68.9468 6.16676C68.8661 6.34955 69.1349 6.57298 69.3903 6.50189C70.0624 6.29878 70.4388 5.73007 70.6136 5.23245C70.7883 4.73483 70.7883 4.18643 70.6001 3.68881C70.5329 3.50601 70.2641 3.38415 70.0221 3.43492C69.7802 3.4857 69.6323 3.68881 69.6861 3.87161L69.6592 3.88177Z" fill="#927A20"/>
<path d="M69.659 3.41469C69.4708 3.5264 69.2692 3.6178 69.0541 3.7092C68.9466 3.74982 68.839 3.79044 68.7315 3.83106C68.7046 3.83106 68.6777 3.85137 68.6509 3.86153C68.6912 3.85137 68.6777 3.86153 68.6374 3.86153C68.5836 3.87168 68.5433 3.892 68.4896 3.90215C68.2745 3.96308 68.0594 4.01386 67.8309 4.06464C67.6024 4.11542 67.3739 4.17635 67.1588 4.22713C67.0109 4.25759 66.9168 4.3693 66.9303 4.48101C66.9572 4.60288 67.0782 4.67397 67.2395 4.68412C67.5083 4.70444 67.7637 4.70444 68.0325 4.67397C68.2745 4.6435 68.5164 4.60288 68.7449 4.53179C69.2289 4.38961 69.6859 4.20682 70.0891 3.97324C70.2639 3.87168 70.3849 3.68889 70.237 3.5264C70.116 3.39438 69.8472 3.30298 69.6456 3.41469H69.659Z" fill="#927A20"/>
<path d="M69.9956 3.36376C69.4579 3.17081 68.9068 3.01847 68.3288 2.92707C68.0331 2.8763 67.7239 2.83567 67.4147 2.82552C67.1056 2.81536 66.8233 2.85599 66.5276 2.92707C66.2184 2.99816 66.1915 3.35361 66.5276 3.42469C66.8233 3.48563 67.0653 3.52625 67.361 3.55672C67.6298 3.57703 67.8449 3.58718 68.0868 3.6278C68.5842 3.69889 69.095 3.80045 69.5655 3.95278C69.7805 4.02387 70.0359 4.00356 70.1569 3.83091C70.2644 3.68874 70.2107 3.45516 69.9956 3.38407V3.36376Z" fill="#927A20"/>
<path d="M69.3099 3.88167C69.3099 3.88167 69.2696 3.96291 69.2427 4.01369C69.2158 4.06447 69.283 3.9426 69.2427 4.034C69.2427 4.05431 69.2158 4.07463 69.2158 4.08478C69.1621 4.16602 69.1083 4.24727 69.0545 4.32851C68.947 4.491 68.8126 4.64333 68.6782 4.79567C68.6513 4.82613 68.611 4.86675 68.5841 4.89722C68.5706 4.91753 68.5437 4.93784 68.5169 4.95815C68.4765 4.99878 68.5572 4.92769 68.5169 4.95815C68.4362 5.02924 68.369 5.10033 68.2883 5.17142C68.127 5.3136 67.9657 5.45577 67.7776 5.5878C67.6297 5.69951 67.6162 5.90262 67.7776 6.01433C67.9523 6.13619 68.1674 6.11588 68.3421 6.01433C68.5437 5.89246 68.7454 5.77059 68.9067 5.62842C69.0949 5.46593 69.2562 5.30344 69.4175 5.1308C69.7132 4.79567 69.9551 4.43007 70.1433 4.05431C70.224 3.89183 70.0627 3.69887 69.8476 3.65825C69.6057 3.61763 69.404 3.70903 69.3234 3.88167H69.3099Z" fill="#927A20"/>
<path d="M67.8991 2.30776C66.7699 2.25699 65.6543 2.43978 64.6461 2.82569C63.638 3.2116 62.697 3.78031 62.2534 4.55213C62.1728 4.69431 62.4147 4.88726 62.5761 4.73493C63.2481 4.1256 63.9337 3.54673 64.8746 3.16083C65.8156 2.77492 66.8506 2.57181 67.9125 2.60227C68.1679 2.60227 68.1679 2.31792 67.9125 2.29761L67.8991 2.30776Z" fill="#927A20"/>
<path d="M69.1621 5.94343C68.154 6.30902 67.0114 6.40042 65.9092 6.24809C65.3984 6.177 64.9145 6.04498 64.4306 5.89265C64.1617 5.8114 63.9063 5.70985 63.6644 5.59814C63.5434 5.54736 63.4359 5.48643 63.3149 5.42549C63.288 5.41534 62.8847 5.1513 63.1133 5.12083C63.288 5.09036 63.2073 4.89741 63.046 4.92788C62.831 4.95834 62.6428 4.81616 62.7503 4.66383C62.8579 4.5115 62.5352 4.35917 62.4277 4.52165C62.1589 4.90756 62.6159 5.31378 63.1536 5.12083L63.0192 4.94819C62.8444 5.01927 62.6697 5.21223 62.71 5.36456C62.7503 5.56767 63.0729 5.72 63.2611 5.82156C63.8526 6.14654 64.5112 6.38011 65.2371 6.51213C66.6082 6.75587 68.0599 6.65431 69.2965 6.13638C69.4444 6.07545 69.31 5.9028 69.1621 5.96374V5.94343Z" fill="#927A20"/>
<path d="M99.638 8.36017C96.7749 12.3005 92.5541 15.9159 87.5 18.2923C87.1101 18.475 87.3655 19.0336 87.836 18.8813C89.1264 18.4954 90.2421 17.8353 91.2906 17.165C92.5945 16.3221 93.8042 15.3878 94.9334 14.423C96.9765 12.6559 98.9794 10.7162 100.135 8.5125C100.243 8.29923 99.7859 8.15706 99.638 8.36017Z" fill="#927A20"/>
<path d="M87.2998 18.4953C87.3267 18.9726 87.2192 19.4296 87.0444 19.8765C86.8697 20.3233 86.574 20.7499 86.332 21.1764C86.211 21.3897 86.5068 21.5623 86.7487 21.4201C87.3133 21.0748 87.6493 20.5874 87.8644 20.0694C88.0795 19.5515 88.1601 19.0133 88.1063 18.4953C88.1063 18.3329 87.9316 18.1907 87.7031 18.1907C87.488 18.1907 87.2864 18.3329 87.2998 18.4953Z" fill="#927A20"/>
<path d="M87.9441 18.3734C87.6753 17.8961 87.2317 17.5 86.6806 17.1954C86.4118 17.043 86.116 16.9313 85.8069 16.8399C85.4977 16.7485 85.0676 16.6977 84.745 16.779C84.4492 16.8501 84.3955 17.1547 84.6643 17.2766C84.7987 17.3477 84.96 17.3883 85.1079 17.4289C85.1482 17.4391 85.1885 17.4493 85.2154 17.4594C85.1482 17.4391 85.1885 17.4493 85.2154 17.4594C85.3095 17.4899 85.4036 17.5203 85.4977 17.5508C85.4305 17.5305 85.4574 17.5407 85.4977 17.5508C85.5246 17.561 85.5515 17.5711 85.5918 17.5813C85.659 17.6016 85.7262 17.6321 85.78 17.6625C85.901 17.7133 86.0354 17.7742 86.1429 17.8352C86.1698 17.8453 86.1967 17.8656 86.2236 17.8758C86.3311 17.9367 86.1429 17.825 86.2505 17.8859C86.3042 17.9164 86.358 17.9469 86.3983 17.9875C86.5058 18.0586 86.5999 18.1398 86.694 18.2211C86.7209 18.2414 86.7344 18.2617 86.7612 18.282C86.7209 18.2312 86.8016 18.3125 86.7612 18.282C86.8016 18.3328 86.8553 18.3836 86.8957 18.4343C86.9763 18.5257 87.0435 18.6273 87.0973 18.7187C87.2048 18.8913 87.5409 18.9421 87.7425 18.8507C87.9845 18.739 88.0113 18.546 87.9172 18.3632L87.9441 18.3734Z" fill="#927A20"/>
<path d="M87.4336 18.4041C86.9094 18.4142 86.3851 18.4751 85.8878 18.597C85.3635 18.7189 84.9065 18.922 84.5301 19.2165C84.436 19.2876 84.4092 19.4094 84.4764 19.5008C84.5436 19.5821 84.7049 19.6532 84.8258 19.6126C84.9334 19.5821 85.0409 19.5516 85.1619 19.5212C85.2425 19.5008 85.3098 19.4805 85.377 19.4501C85.377 19.4501 85.4979 19.4094 85.4442 19.4298C85.6593 19.3587 85.8878 19.2977 86.1163 19.247C86.3448 19.1962 86.5599 19.1454 86.7884 19.1149C86.8421 19.1149 86.8959 19.1048 86.9497 19.0946C87.0034 19.0946 87.0169 19.0946 86.9766 19.0946C87.0034 19.0946 87.0438 19.0946 87.0706 19.0946C87.1916 19.0946 87.3126 19.0743 87.4336 19.0743C87.6621 19.0743 87.8772 18.9321 87.8637 18.7493C87.8503 18.5665 87.6755 18.4142 87.4336 18.4244V18.4041Z" fill="#927A20"/>
<path d="M87.0045 18.6578C86.8701 18.8406 86.7357 19.0234 86.5744 19.1859C86.534 19.2266 86.5072 19.2672 86.4668 19.2976C86.4399 19.318 86.4265 19.3383 86.3996 19.3586C86.3996 19.3586 86.3324 19.4297 86.3593 19.3992C86.3862 19.3687 86.319 19.4297 86.319 19.4398C86.2921 19.4601 86.2786 19.4804 86.2518 19.5008C86.2114 19.5414 86.1577 19.582 86.1173 19.6226C85.9426 19.775 85.7544 19.9171 85.5662 20.0593C85.3512 20.2116 85.1898 20.3944 85.0151 20.5671C84.8404 20.7397 85.1361 21.0241 85.3915 20.9428C85.5259 20.9022 85.6738 20.8616 85.8082 20.8108C85.956 20.7499 86.1039 20.6585 86.2114 20.5772C86.4131 20.4351 86.6012 20.2726 86.7894 20.1101C87.1658 19.7648 87.475 19.389 87.7304 18.9828C87.8245 18.8305 87.7976 18.6172 87.5691 18.536C87.3674 18.4547 87.0852 18.4954 86.9776 18.6578H87.0045Z" fill="#927A20"/>
<path d="M87.2974 18.3226C86.3833 17.9062 85.3214 17.6523 84.246 17.6523C84.031 17.6523 83.8428 17.7844 83.8428 17.957C83.8428 18.1297 84.031 18.2414 84.246 18.2617C85.1466 18.3328 86.0741 18.5257 86.8672 18.8812C87.0688 18.9726 87.3377 18.9116 87.4452 18.7694C87.5528 18.6273 87.4855 18.4242 87.2974 18.3328V18.3226Z" fill="#927A20"/>
<path d="M86.7751 20.5265C85.982 21.0444 85.0008 21.3795 83.9792 21.5116C82.9576 21.6436 81.9226 21.5319 80.901 21.3796C80.6859 21.3491 80.5246 21.5725 80.7397 21.6639C81.7478 22.06 82.971 22.06 84.0598 21.8873C85.1486 21.7147 86.2106 21.3186 87.0574 20.7398C87.2456 20.6077 86.9633 20.4046 86.7751 20.5265Z" fill="#927A20"/>
<path d="M84.9462 17.1243C83.5885 17.2969 82.3922 17.8961 81.5454 18.6984C81.1152 19.1046 80.806 19.5413 80.591 20.0287C80.4969 20.2522 80.3087 20.5873 80.4566 20.8209C80.5506 20.9732 80.8598 21.0544 81.0614 21.0138C81.2362 20.9834 81.1555 20.7904 80.9942 20.8209C80.4431 20.9123 80.4028 21.4505 80.9136 21.6232C81.1286 21.6942 81.3303 21.4505 81.1018 21.3794C80.8598 21.2982 80.8733 21.0951 81.1018 21.0138L80.9673 20.8412C80.7792 20.9123 80.8867 20.4959 80.8867 20.4857C80.927 20.3842 80.9673 20.2928 81.0211 20.1912C81.1152 19.9881 81.2362 19.8053 81.3706 19.6124C81.626 19.2468 81.9083 18.9015 82.2712 18.5968C82.9971 17.9672 83.9515 17.5102 85.0268 17.3274C85.2016 17.2969 85.1209 17.1141 84.9596 17.1344L84.9462 17.1243Z" fill="#927A20"/>
<path d="M123.899 14.4435C126.681 17.1448 129.773 19.6329 133.16 21.8976C136.548 24.1623 140.043 26.2442 143.995 27.7777C144.304 27.8995 144.532 27.5847 144.264 27.4324C140.621 25.4419 136.924 23.5428 133.55 21.2883C130.176 19.0338 127.165 16.6574 124.383 14.0677C124.101 13.8037 123.617 14.1794 123.886 14.4435H123.899Z" fill="#927A20"/>
<path d="M126.91 16.7793C131.628 17.9675 135.997 19.9986 139.72 22.4766C141.562 23.7054 143.282 25.0459 144.815 26.4982C146.347 27.9504 147.543 29.6362 149.049 31.1392C149.224 31.3119 149.64 31.2205 149.546 30.9869C148.807 29.2097 147.167 27.5949 145.662 26.1427C144.062 24.5991 142.261 23.1773 140.298 21.8875C136.44 19.3588 132.005 17.3785 127.085 16.2614C126.655 16.1598 126.48 16.6676 126.897 16.7692L126.91 16.7793Z" fill="#927A20"/>
<path d="M126.223 16.5355C126.25 17.3683 127.069 18.3331 127.553 19.0642C128.145 19.9681 128.804 20.8516 129.543 21.6945C131.008 23.36 132.85 24.7107 134.987 25.8786C137.245 27.1074 139.584 28.2753 142.017 29.301C143.173 29.7885 144.356 30.2353 145.579 30.6212C146.641 30.9563 148.16 31.5352 149.329 31.4337C149.612 31.4133 149.733 31.1493 149.477 31.0274C148.966 30.7634 148.321 30.6923 147.73 30.5501C147.111 30.3978 146.507 30.215 145.902 30.022C144.719 29.6361 143.576 29.1893 142.474 28.712C140.189 27.7269 137.984 26.6098 135.834 25.4622C133.683 24.3146 131.761 22.9437 130.242 21.268C129.543 20.4962 128.911 19.6736 128.346 18.8408C128.064 18.4245 127.782 17.9979 127.5 17.5815C127.244 17.1855 127.043 16.7285 126.626 16.4137C126.478 16.3121 126.223 16.3832 126.223 16.5355Z" fill="#927A20"/>
<path d="M133.469 3.43493C131.144 5.43557 128.375 7.18231 125.283 8.47206C123.751 9.11186 122.151 9.6501 120.498 10.0868C119.651 10.3001 118.804 10.493 117.93 10.6555C117.057 10.818 116.156 10.8688 115.322 11.0922C114.933 11.1937 114.973 11.6609 115.43 11.6609C116.29 11.6609 117.191 11.4476 118.024 11.2851C118.925 11.1023 119.826 10.8891 120.699 10.6453C122.353 10.1883 123.966 9.61964 125.498 8.94937C128.67 7.56822 131.48 5.82148 133.792 3.67867C133.966 3.51618 133.671 3.27245 133.469 3.43493Z" fill="#927A20"/>
<path d="M116.87 11.61C118.147 11.7522 119.317 11.803 120.62 11.6709C121.79 11.5592 122.932 11.346 124.062 11.0819C126.454 10.5234 128.887 9.78202 130.971 8.736C133.054 7.68998 134.613 6.31899 136.186 4.91753C137.06 4.13556 137.947 3.35358 138.821 2.56145C139.574 1.89119 140.649 1.14984 141.066 0.327244C141.133 0.195222 140.904 0.0936672 140.77 0.1546C139.775 0.591287 138.996 1.48497 138.256 2.13492C137.477 2.81534 136.697 3.50592 135.917 4.18634C134.345 5.56748 132.799 7.00957 130.796 8.05558C126.884 10.107 121.655 11.2343 116.924 11.3257C116.722 11.3257 116.668 11.5694 116.87 11.5999V11.61Z" fill="#927A20"/>
<path d="M140.783 0.0734006C135.473 0.733508 130.083 1.70844 125.325 3.68876C123.214 4.57229 121.211 5.64877 119.504 6.94868C117.797 8.24858 116.372 9.73129 114.437 10.8992C114.235 11.021 114.45 11.2749 114.679 11.214C116.802 10.6859 118.16 9.10164 119.598 7.9033C121.305 6.48152 123.335 5.3238 125.526 4.37933C130.285 2.32792 135.608 1.36315 140.877 0.36791C141.132 0.317133 141.025 0.0429341 140.769 0.0734006H140.783Z" fill="#927A20"/>
<path d="M100.497 8.56341C105.04 10.168 109.14 12.3819 112.165 15.4488C114.84 18.1705 116.533 21.8671 120.66 23.5732C120.848 23.6545 121.063 23.4615 120.888 23.3397C117.205 20.8719 115.391 17.419 112.393 14.545C109.396 11.671 105.336 9.31491 100.725 8.13688C100.403 8.05563 100.188 8.44154 100.497 8.55325V8.56341Z" fill="#927A20"/>
<path d="M105.014 10.239C110.189 11.3257 114.423 13.9864 117.783 17.0635C119.652 18.7697 121.278 20.618 122.824 22.4866C123.564 23.3803 124.262 24.2943 125.015 25.1778C125.674 25.9598 126.386 26.6707 127.448 27.148C127.744 27.28 128.053 26.9753 127.811 26.7925C125.808 25.2692 124.531 23.2584 123.026 21.4507C121.52 19.643 119.827 17.7947 117.931 16.1292C114.557 13.1638 110.269 10.7062 105.202 9.71096C104.758 9.61956 104.57 10.1375 105.014 10.2289V10.239Z" fill="#927A20"/>
<path d="M127.594 26.823C121.854 26.041 116.464 24.1216 112.243 21.0547C110.24 19.6024 108.533 17.9471 107.175 16.1191C105.737 14.1895 104.218 11.7827 104.312 9.518C104.326 9.12193 103.519 9.12193 103.492 9.518C103.358 11.3561 104.259 13.1841 105.253 14.8293C106.248 16.4745 107.404 17.9166 108.815 19.2876C111.719 22.1007 115.536 24.3349 119.851 25.7465C122.284 26.5488 124.865 27.0667 127.5 27.2901C127.863 27.3206 127.943 26.8636 127.58 26.8128L127.594 26.823Z" fill="#927A20"/>
<path d="M85.1445 8.59375C82.9266 9.25386 81.7302 11.0514 80.6549 12.5442C79.2704 14.4535 78.1009 16.4541 76.6492 18.3329C73.9608 21.8162 69.7938 25.1675 64.0407 25.066C63.4627 25.066 63.4761 25.7058 64.0407 25.7362C69.3771 26.0206 73.692 23.1364 76.4072 19.9578C77.9396 18.1704 79.1225 16.2205 80.3592 14.3113C80.9909 13.3262 81.6496 12.3513 82.3755 11.4068C83.1013 10.4624 83.9347 9.49759 85.3192 9.05075C85.6822 8.92888 85.5343 8.47188 85.1445 8.5836V8.59375Z" fill="#927A20"/>
<path d="M82.9943 9.1119C78.5988 10.95 74.163 12.9304 70.5202 15.5708C68.719 16.8809 67.1597 18.394 65.9634 20.0595C65.3451 20.9329 64.8208 21.8367 64.4041 22.7812C63.9874 23.7257 63.5438 24.7108 63.5304 25.6654C63.5304 26.031 64.2025 26.0817 64.3504 25.7466C64.7536 24.8428 64.9149 23.878 65.3182 22.9742C65.7214 22.0703 66.286 21.1056 66.9178 20.2322C68.1141 18.5971 69.6868 17.1449 71.4477 15.845C74.9292 13.2655 79.1499 11.407 83.2632 9.4775C83.5723 9.33532 83.3035 8.96972 82.9809 9.10174L82.9943 9.1119Z" fill="#927A20"/>
<path d="M82.5234 9.56887C79.8753 11.4984 77.2944 13.4686 74.9421 15.6012C73.8399 16.6066 72.778 17.6222 71.7429 18.6682C70.6272 19.8056 69.4578 20.9532 68.611 22.2328C68.4765 22.4461 68.8395 22.6999 69.068 22.4968C70.1837 21.5117 71.1246 20.4251 72.1462 19.3791C73.2753 18.2214 74.4313 17.0839 75.6276 15.9668C77.9128 13.8443 80.2382 11.7218 82.7653 9.76183C82.9266 9.6298 82.6712 9.44701 82.5099 9.56887H82.5234Z" fill="#927A20"/>
<path d="M77.6042 10.0563C71.8107 10.7976 66.1651 9.38601 60.5598 8.52279C57.9118 8.11657 55.2368 7.86269 52.535 7.93377C51.2311 7.96424 49.9273 8.0658 48.6368 8.23844C47.3464 8.41108 45.8409 8.55326 44.7924 9.11181C44.5639 9.23368 44.6311 9.50788 44.9403 9.51803C46.2039 9.52819 47.5077 9.13212 48.7444 8.96964C50.1558 8.78684 51.5806 8.67513 53.0055 8.64466C55.8955 8.58373 58.7452 8.91886 61.568 9.37586C66.8641 10.2289 72.3081 11.4273 77.7252 10.432C78.0344 10.3711 77.8999 10.036 77.5908 10.0766L77.6042 10.0563Z" fill="#927A20"/>
<path d="M75.5327 10.4725C70.7743 12.1482 65.5319 13.3262 60.2223 13.1434C57.5608 13.052 54.9934 12.5747 52.5201 11.8334C50.0468 11.092 47.7213 9.96476 45.2346 9.18278C44.7372 9.0203 44.4818 9.60932 44.8851 9.81243C46.0545 10.4116 47.3853 10.8788 48.6488 11.3662C49.9124 11.8537 51.1221 12.2599 52.3991 12.6357C54.9531 13.377 57.6415 13.8239 60.3836 13.8848C65.7873 13.9965 71.1103 12.7778 75.7747 10.7772C76.0301 10.6655 75.8015 10.3913 75.5461 10.4827L75.5327 10.4725Z" fill="#927A20"/>
<path d="M76.1137 10.564C71.53 11.5389 66.8925 11.8842 62.1475 11.5491C59.7549 11.3765 57.3622 11.0616 55.0233 10.6453C52.6844 10.2289 50.5068 9.68048 48.2217 9.25395C47.8991 9.19302 47.6437 9.56877 47.9797 9.68048C52.308 11.153 57.2681 11.9045 61.9862 12.199C66.7043 12.4936 71.7451 12.26 76.2481 10.9702C76.5707 10.8788 76.4498 10.4929 76.1003 10.5742L76.1137 10.564Z" fill="#927A20"/>
<path d="M39.2157 16.3222C32.6426 16.3324 26.1636 16.109 19.9668 14.281C14.8186 12.7678 10.1408 10.3305 6.39048 7.26351C4.26666 5.51676 2.6133 3.56691 0.9465 1.57643C0.704545 1.28192 0.166868 1.5358 0.341613 1.84047C1.45729 3.77002 3.16442 5.51676 4.99252 7.09087C6.82063 8.66497 8.91757 10.1172 11.1758 11.3663C15.8805 13.9661 21.3379 15.6926 27.1045 16.3628C31.1102 16.83 35.1831 16.8808 39.2157 16.6878C39.5249 16.6777 39.5383 16.3121 39.2157 16.3121V16.3222Z" fill="#927A20"/>
<path d="M37.4261 15.9567C32.5601 14.2099 28.2587 11.732 23.7556 9.51808C19.2526 7.30418 14.2253 5.39494 9.1711 3.78021C7.80002 3.34353 6.42895 2.917 5.04443 2.51078C3.57926 2.07409 2.07376 1.546 0.541378 1.28196C0.0977946 1.21087 -0.21137 1.67802 0.218772 1.85067C1.38822 2.30767 2.69209 2.61233 3.9153 2.96777C5.21917 3.34353 6.5096 3.72944 7.80002 4.1255C10.4346 4.93794 13.0289 5.82147 15.5695 6.78624C20.4354 8.62439 24.8578 10.9297 29.455 13.1233C31.9552 14.3115 34.5226 15.4286 37.2513 16.2918C37.5067 16.373 37.6814 16.0481 37.4395 15.9567H37.4261Z" fill="#927A20"/>
</svg>
