<svg width="152" height="150" viewBox="0 0 152 150" fill="none" xmlns="http://www.w3.org/2000/svg">
<g clip-path="url(#clip0_508_863)">
<path fill-rule="evenodd" clip-rule="evenodd" d="M14.0818 9.85653C17.3295 10.974 20.6443 11.8861 24.0065 12.5876C23.9936 12.7421 23.9936 12.8973 24.0065 13.0518C24.0588 13.0961 24.1142 13.131 24.1649 13.1738C25.1836 16.1171 26.8723 18.7041 29.2691 20.7286C31.6992 22.788 34.7741 25.1643 37.9962 25.6158C38.2054 25.6459 38.4192 25.4938 38.3527 25.2593C37.5353 22.4078 36.6101 19.3251 34.2339 17.3702C31.4806 15.1159 27.6612 14.994 24.8002 12.9346H24.9016C24.9483 12.9587 25.0002 12.9713 25.0529 12.9713C25.1055 12.9713 25.1574 12.9587 25.2041 12.9346H25.8378C30.1324 13.7317 34.486 14.1694 38.8533 14.2431C38.8634 14.2905 38.8878 14.3336 38.9232 14.3668C38.9586 14.3999 39.0033 14.4214 39.0513 14.4284C42.6727 15.1318 46.1689 16.5401 48.1602 19.7686C47.7531 20.0173 47.2414 20.3437 47.1733 20.7936C47.083 21.3845 47.6945 22.1655 48.0969 22.6375C47.7452 22.3793 47.5012 22.0625 47.102 21.6965C46.6426 21.2752 46.2085 21.2039 45.605 21.4304C44.7749 21.7472 44.7606 22.1845 44.466 22.8973C44.1095 23.7607 43.8434 24.0379 43.3238 24.5639C43.045 24.8459 42.763 25.0169 42.6331 25.4114C42.0802 27.0653 44.1713 27.6039 45.3563 27.474C47.0719 27.2886 48.5246 26.2874 49.8078 25.1579C51.0434 25.8724 52.3883 26.1607 53.8141 26.213C54.6268 26.2447 56.6339 26.5425 57.2074 25.7377C57.5084 25.3164 57.4577 24.51 57.5242 24.0332C57.605 23.39 57.9598 22.3793 57.6826 21.752C57.3864 21.0898 56.2664 20.7698 55.4157 20.5845C55.6074 20.2946 55.6992 19.9698 55.5091 19.634C55.2287 19.1207 54.5444 19.2078 54.0581 19.1587C53.6017 19.1366 53.1494 19.0622 52.7099 18.9369C52.3312 18.8108 51.9722 18.6316 51.6438 18.4047C51.4887 18.3495 51.3299 18.3055 51.1685 18.2732C50.3955 18.2209 49.342 18.994 48.6545 19.4676C46.8945 16.6161 44.0066 15.1001 40.8572 14.2637C44.1309 14.205 47.3972 13.9303 50.6347 13.4415C50.405 13.5365 50.3511 13.9167 50.6521 13.9817L51.1971 14.0878C55.2679 15.8268 59.6652 16.6696 64.0905 16.5591C64.153 16.5567 64.213 16.5344 64.2618 16.4954C64.3107 16.4565 64.3458 16.4029 64.3621 16.3426C64.3783 16.2823 64.3749 16.2184 64.3523 16.1601C64.3297 16.1019 64.289 16.0524 64.2363 16.0189C61.0642 13.9723 57.3557 12.9137 53.5812 12.9773C56.8747 12.4134 60.1507 11.7227 63.4505 11.0367C63.4803 11.0917 63.5279 11.1349 63.5855 11.1591C63.6431 11.1833 63.7073 11.1871 63.7674 11.1698L63.9084 11.1397C63.9339 11.171 63.966 11.1963 64.0024 11.2138C64.0388 11.2314 64.0787 11.2407 64.1191 11.2411C64.2315 11.2411 64.3424 11.2601 64.4533 11.2664C67.0704 11.8843 69.5226 12.6542 71.6422 14.4126C73.3436 15.8209 74.8106 17.4082 76.7258 18.5425C76.7702 18.5675 76.8203 18.5806 76.8712 18.5804C76.9221 18.5802 76.9721 18.5667 77.0163 18.5413C77.0604 18.5158 77.0972 18.4794 77.1229 18.4354C77.1486 18.3914 77.1625 18.3415 77.163 18.2906C77.1376 17.9718 77.0953 17.6545 77.0363 17.3401C77.0712 17.2958 77.093 17.2427 77.0991 17.1867C77.1053 17.1307 77.0956 17.074 77.0712 17.0233C77.0252 16.9346 76.9698 16.8538 76.9207 16.7682C75.8735 12.4102 71.7389 10.3587 67.449 10.2288C71.4617 9.43875 75.5215 8.90959 79.6026 8.64464C79.6773 8.74954 79.7197 8.87399 79.7246 9.00266C81.733 13.0962 84.5472 16.742 87.9986 19.7217C91.45 22.7013 95.4674 24.9534 99.8102 26.3429C100.007 26.4063 100.251 26.1845 100.168 25.9865C98.5571 21.9389 96.832 17.6807 93.3563 14.8609C89.7666 11.946 85.0189 10.1401 80.6529 8.5987C82.0702 8.52266 83.4886 8.47831 84.908 8.46563C84.6815 8.75712 85.0886 9.17058 85.3183 8.87593C85.3722 8.80623 85.4324 8.74603 85.4878 8.67791C90.2118 10.853 95.4395 11.6023 100.572 10.6439C101.395 10.4872 102.208 10.2825 103.007 10.0308C104.04 10.2188 105.068 10.4237 106.091 10.6454C106.091 10.6454 106.091 10.6454 106.091 10.6565C105.463 12.0403 105.155 13.548 105.191 15.0672C105.226 16.5865 105.604 18.0782 106.296 19.4312C106.318 19.4691 106.349 19.5014 106.386 19.5256C106.423 19.5498 106.465 19.5654 106.509 19.571C106.553 19.5766 106.597 19.5723 106.639 19.5582C106.681 19.5441 106.719 19.5208 106.75 19.4898C107.946 18.4221 108.176 16.7967 108.287 15.2617C109.034 17.0053 109.692 18.7838 110.261 20.5971C109.565 20.632 108.892 20.6843 108.328 20.6748C108.251 20.6752 108.178 20.7059 108.124 20.7601C108.069 20.8144 108.039 20.8879 108.038 20.9647C108.038 21.2134 108.029 21.4605 108.022 21.7092C108.018 21.7739 108.039 21.8377 108.08 21.8877C108.121 21.9377 108.18 21.9702 108.244 21.9785C108.281 22.6111 108.565 23.2038 109.036 23.6276C108.701 23.8558 107.62 23.767 107.199 23.8447C106.714 23.9334 106.248 24.2486 105.733 24.3199C104.995 24.4165 104.548 24.2629 103.961 24.7714C103.925 24.8078 103.899 24.853 103.886 24.9025C103.873 24.9519 103.873 25.004 103.886 25.0534C104.317 26.8958 105.724 27.9476 107.584 28.0712C109.841 28.2185 111.215 27.5706 112.268 25.5682C112.3 25.5105 112.31 25.4435 112.297 25.3789C112.285 25.3143 112.25 25.2563 112.198 25.215L112.384 24.7556C113.433 24.789 114.477 24.6101 115.455 24.2296C115.455 24.2296 115.455 24.2375 115.455 24.2423C115.931 25.2086 115.672 26.0672 115.284 26.9861C115.161 27.2807 115.737 27.1255 115.005 27.5817C114.861 27.672 114.337 27.5199 114.122 27.5944C113.624 27.7702 113.478 28.228 113.226 28.632C113.127 28.8462 112.985 29.0385 112.811 29.1979C112.636 29.3572 112.432 29.4804 112.209 29.5603C111.867 29.2435 111.526 28.9235 111.186 28.6003C111.08 28.3469 111.177 27.9413 111.066 27.6498C110.936 27.3045 110.375 27.4534 110.505 27.8082C110.85 28.7286 110.346 29.8597 111.663 30.1449C112.864 30.4047 113.247 29.3829 113.871 28.6589C114.557 27.8558 115.034 28.5005 115.644 27.9777C115.969 27.7037 115.815 27.5611 115.878 27.2205C116.11 25.9801 116.566 25.2371 115.972 23.9983C116.753 23.5833 117.358 23.0177 117.594 22.2938C117.605 22.2509 117.607 22.206 117.598 22.1624C117.589 22.1189 117.571 22.0779 117.544 22.0427C117.517 22.0074 117.483 21.9787 117.443 21.9588C117.403 21.9389 117.36 21.9283 117.315 21.9278C116.309 21.9167 115.082 22.0514 114.232 21.5872C113.903 21.4082 113.824 21.0534 113.391 20.8823C112.686 20.6035 111.777 20.5655 110.857 20.5876C110.22 18.5648 109.473 16.5784 108.618 14.6375C108.714 14.718 108.813 14.7936 108.916 14.8641C110.152 15.6704 111.913 15.4502 113.314 15.409C115.317 15.3719 117.308 15.0693 119.232 14.5092C121.092 15.202 122.926 15.9524 124.735 16.7603C124.735 16.8078 124.723 16.8522 124.721 16.8981C124.72 16.9479 124.732 16.997 124.757 17.0404C124.781 17.0838 124.817 17.1199 124.86 17.145C124.903 17.1701 124.951 17.1831 125.001 17.1829C125.051 17.1827 125.1 17.1691 125.143 17.1437C125.16 17.151 125.178 17.1548 125.197 17.1548C125.216 17.1548 125.235 17.151 125.252 17.1437L125.28 17.131C125.272 17.1567 125.272 17.1845 125.28 17.2102C125.208 17.1988 125.134 17.2152 125.074 17.2562C125.013 17.2971 124.971 17.3595 124.954 17.4307C124.938 17.5019 124.949 17.5766 124.986 17.6398C125.023 17.703 125.082 17.7499 125.152 17.771C125.195 17.7837 125.234 17.7995 125.279 17.8122C125.12 21.508 126.99 25.1421 128.674 28.3389C130.551 31.908 132.951 35.1144 136.363 37.3401C136.407 37.3652 136.458 37.3783 136.509 37.378C136.559 37.3778 136.609 37.3644 136.654 37.3389C136.698 37.3135 136.734 37.277 136.76 37.2331C136.786 37.1891 136.8 37.1392 136.8 37.0883C136.881 32.2772 137.117 27.973 134.353 23.7971C133.045 21.819 131.314 20.1571 129.284 18.9322C133.56 21.1118 137.666 23.6119 141.566 26.411C141.264 26.6962 141.034 27.0477 140.892 27.4375C140.678 28.1599 141.143 28.9599 141.602 29.5857C141.318 29.8645 140.938 30.0482 140.762 30.4617C140.482 31.1271 140.566 32.1172 140.696 32.7857C140.811 33.3781 141.046 33.9548 141.578 34.2954C142.11 34.636 142.697 34.4744 143.254 34.7009C143.812 34.9275 144.072 35.2839 144.728 35.3108C145.298 35.3346 146.068 35.1619 146.535 34.815C147.002 34.4681 147.115 34.0071 147.238 33.478C147.308 33.1785 147.364 32.8744 147.424 32.5718C149.355 32.8633 152.335 32.6257 151.859 29.9231C151.742 29.3723 151.735 28.8038 151.839 28.2502C151.869 28.1013 151.997 27.9825 151.997 27.8257C152.011 27.4312 151.977 27.1175 151.707 26.7991C151.039 26.007 149.783 26.1813 148.9 26.4205C148.92 26.3187 148.947 26.2186 148.983 26.1211C149.25 25.4367 149.925 24.9314 149.288 24.1884C148.694 23.493 147.744 23.8336 147.11 24.2249C146.237 24.7651 145.824 25.207 144.734 25.1659C144.211 25.1468 143.92 25.0439 143.386 25.2118C142.887 25.3973 142.424 25.6685 142.019 26.0134C137.786 22.9569 133.308 20.2547 128.631 17.9342C135.329 19.1049 142.063 17.169 148.211 14.2637C148.446 14.1528 148.369 13.7979 148.141 13.733C143.139 12.2898 137.874 10.986 132.632 11.6641C129.889 12.0189 125.512 13.0058 124.827 16.1488C123.266 15.456 121.688 14.8065 120.092 14.2003C121.592 13.6725 122.997 12.9094 124.257 11.9397C124.479 11.767 124.27 11.4645 124.053 11.4439C121.156 11.1384 118.236 11.1384 115.34 11.4439C114.476 11.5373 113.615 11.6482 112.756 11.7258C109.926 10.9042 107.067 10.2087 104.179 9.6395C108.615 8.06801 112.743 5.56187 117.499 5.04543C117.568 5.0434 117.634 5.01685 117.686 4.97054C117.737 4.92422 117.77 4.86115 117.779 4.79259C117.788 4.72404 117.773 4.65447 117.735 4.59631C117.698 4.53816 117.641 4.4952 117.575 4.47513C111.803 2.23949 105.571 1.45297 99.4253 2.18444C94.6015 2.77058 88.851 4.08543 85.4466 7.83989C81.3974 7.84653 77.3529 8.11694 73.3389 8.6494C72.2595 8.79408 71.186 8.95884 70.1183 9.14365C71.3632 8.37602 72.4455 7.37173 73.304 6.18761C73.2883 6.24414 73.2942 6.30451 73.3205 6.35693C73.3469 6.40936 73.3918 6.45009 73.4466 6.47117C75.007 7.20464 77.1805 7.32345 78.8438 6.81811C79.9718 6.47434 79.1496 5.07553 78.6236 4.17256C79.5044 3.72424 80.4217 3.11751 80.5104 2.27156C80.5095 2.19493 80.4787 2.12167 80.4246 2.06749C80.3704 2.01329 80.2971 1.98249 80.2205 1.98166C79.8545 1.98166 78.6236 2.20345 78.2957 1.98166C77.9203 1.73137 78.2149 1.63632 78.0423 1.49691C77.6557 1.18008 77.7904 1.17057 77.2771 0.953541C77.1361 0.958988 76.9954 0.97168 76.8557 0.991562C76.3848 1.05632 75.9053 1.01021 75.4553 0.856907C75.2383 0.793541 75.064 0.540077 74.8438 0.464039C73.9741 0.147205 72.8557 -0.117348 71.9226 0.0537415C70.9436 0.231167 70.5222 0.945621 70.5333 1.88503C69.3172 2.3047 68.2119 2.99413 67.3001 3.90166C67.246 3.95625 67.2156 4.02998 67.2156 4.10682C67.2156 4.18365 67.246 4.25738 67.3001 4.31196C67.582 4.58286 67.7753 4.48464 68.1064 4.60186C68.7226 4.81731 69.0395 5.46999 69.624 5.76147C70.641 6.26682 71.7769 6.0783 72.8446 5.84226C71.903 7.15735 70.6743 8.24083 69.2517 9.01059C69.195 9.03813 69.1507 9.08597 69.1275 9.14464C69.1043 9.2033 69.104 9.26853 69.1266 9.32742C63.8989 10.2779 58.7297 11.5738 53.4973 12.4957C55.4695 11.7464 57.1725 10.6074 58.5412 8.59078C58.569 8.54104 58.5816 8.48424 58.5774 8.42743C58.5732 8.37061 58.5525 8.31626 58.5178 8.27109C58.4831 8.22592 58.4359 8.19192 58.3821 8.17328C58.3282 8.15465 58.2701 8.15219 58.2149 8.16623C54.5365 9.18484 50.4525 9.92623 47.9052 13.0264C47.8662 13.0741 47.8435 13.1329 47.8402 13.1944C47.8061 13.2287 47.7816 13.2712 47.7689 13.3179C47.1511 13.3829 46.5317 13.4399 45.9091 13.4843C40.3765 13.8834 34.8172 13.6943 29.3245 12.9203C36.6117 12.7761 43.9828 11.7971 49.6493 6.769C49.6848 6.73292 49.7103 6.68823 49.7232 6.63932C49.7362 6.59042 49.7362 6.53898 49.7232 6.49007C49.7103 6.44117 49.6848 6.39647 49.6494 6.36038C49.6139 6.32429 49.5697 6.29805 49.521 6.28424C40.9349 4.67791 31.0228 4.89652 25.0996 12.2106C21.4152 11.492 17.785 10.5186 14.2354 9.29732C13.8821 9.17534 13.7301 9.73613 14.077 9.85653M44.8572 26.9306C44.3862 26.354 43.9173 25.7768 43.4505 25.1991C43.6644 25.0296 43.8862 24.8633 44.1079 24.689C44.3691 24.4672 44.6036 24.2158 44.8066 23.9397C44.9048 23.813 44.862 23.5928 44.965 23.4645C44.9935 23.428 46.6917 22.2526 46.8169 22.289C47.0513 22.3571 47.3982 22.9227 47.6644 23.0938C48.2624 23.4538 48.9286 23.6857 49.6208 23.775C49.8354 23.8528 50.058 23.9059 50.2846 23.9334C49.1107 25.0534 47.818 26.2162 46.2497 26.6851C45.8949 26.7975 45.1883 27.0478 44.8572 26.9306ZM52.3218 19.4027C52.7241 19.5415 53.1407 19.6345 53.5638 19.6799C54.1325 19.7559 54.9087 19.5215 54.6727 20.4482C54.6208 20.4508 54.5705 20.4667 54.5266 20.4944C54.4827 20.5221 54.4467 20.5608 54.4221 20.6065C54.3976 20.6523 54.3853 20.7037 54.3864 20.7556C54.3876 20.8075 54.4022 20.8583 54.4287 20.9029C54.1373 21.1944 53.6272 21.4985 53.3864 21.695C52.702 22.2542 51.9923 22.7801 51.2683 23.2886C50.9658 23.5009 51.2557 24.0047 51.5614 23.7892C52.6343 23.06 53.6587 22.262 54.6283 21.4003C54.7313 21.3053 54.8533 21.1991 54.9753 21.0835C55.8291 21.2498 56.9935 21.508 57.1535 22.3635C57.3769 23.5754 56.7226 25.3813 55.4806 25.6189C53.8236 25.9358 51.761 25.5508 50.2672 24.7461C50.5428 24.4926 50.8137 24.2375 51.0751 23.9872C51.1119 23.9545 51.1385 23.9118 51.1514 23.8642C51.1643 23.8167 51.1631 23.7664 51.1479 23.7195C51.1583 23.6366 51.1355 23.553 51.0844 23.4868C51.0334 23.4206 50.9583 23.3773 50.8755 23.3663C50.6315 23.3441 50.386 23.3187 50.1404 23.287C49.2422 22.9797 47.8386 22.0593 47.8545 21.1627C47.8545 20.8142 48.1713 20.5053 48.4881 20.2581C48.5365 20.2915 48.5937 20.3096 48.6524 20.31C48.7111 20.3105 48.7686 20.2933 48.8174 20.2607C48.8662 20.2281 48.9041 20.1815 48.9262 20.1271C48.9483 20.0727 48.9535 20.013 48.9412 19.9556C49.0077 19.9128 49.0727 19.8748 49.1281 19.8415C50.2323 19.1635 51.0577 18.9338 52.3218 19.4027ZM111.593 25.1643C111.57 25.2114 111.565 25.2651 111.577 25.316C111.589 25.3669 111.619 25.4118 111.661 25.4431C110.844 26.8831 109.76 27.5168 108.051 27.4898C107.061 27.474 106.107 27.3314 105.358 26.6122C104.653 25.9405 104.137 25.2023 105.331 24.8823C105.662 24.7952 106.057 24.9346 106.403 24.849C106.914 24.7239 107.154 24.5496 107.707 24.4894C108.425 24.4086 109.017 24.5908 109.513 23.9841C110.205 24.3966 110.981 24.6473 111.783 24.7175C111.715 24.8696 111.653 25.0201 111.593 25.1643ZM112.089 21.3084C112.84 21.4304 113.334 21.9152 113.96 22.2082C114.806 22.6043 115.874 22.5156 116.851 22.4902C116.175 23.5722 114.282 24.1742 112.495 24.1583C112.466 24.1252 112.431 24.0985 112.391 24.0797C112.352 24.0609 112.309 24.0505 112.265 24.0491C112.221 24.0478 112.178 24.0555 112.137 24.0719C112.096 24.0882 112.059 24.1128 112.029 24.1441C110.354 24.0253 108.894 23.3377 108.821 21.9516C108.818 21.8923 108.797 21.8354 108.76 21.7889C108.723 21.7425 108.672 21.7091 108.615 21.6934C108.655 20.9013 110.082 21.2831 110.73 21.2942C111.161 21.3005 111.657 21.2451 112.089 21.3148V21.3084ZM133.854 24.068C136.062 27.3948 136.446 30.9512 136.289 34.8593C136.233 36.2692 136.556 36.8966 135.021 35.6514C134.309 35.0705 133.643 34.4349 133.03 33.7504C131.815 32.3708 130.748 30.8677 129.846 29.2657C127.962 25.9722 125.724 21.8961 125.844 17.9769L126.003 18.0276C128.852 21.2361 131.159 24.8881 132.832 28.8395C132.899 28.9979 133.13 28.8601 133.063 28.7033C131.443 24.8828 129.234 21.3398 126.516 18.2035C129.515 19.3436 132.081 21.3945 133.854 24.068ZM146.686 33.3227C146.369 34.1496 145.689 34.8324 144.734 34.731C143.942 34.6455 144.213 34.3445 143.717 34.1607C142.339 33.6554 141.407 34.194 141.204 32.0633C141.119 31.1762 141.255 30.8625 141.838 30.1211C141.873 30.0768 141.903 30.0435 141.93 30.015C142.784 31.0589 144.425 30.6122 145.634 30.5869C145.689 30.584 145.743 30.5657 145.788 30.5341C145.834 30.5025 145.869 30.4588 145.892 30.4079C145.914 30.357 145.921 30.301 145.913 30.2461C145.905 30.1913 145.882 30.1397 145.846 30.0974C146.352 30.1206 146.858 30.0672 147.348 29.9389C147.338 29.9557 147.33 29.9739 147.326 29.9928C147.124 31.0494 147.064 32.3136 146.681 33.3227H146.686ZM151.2 28.2296C151.135 28.5908 151.061 28.7872 151.104 29.1579C151.218 30.1306 151.55 30.9306 150.682 31.6688C149.838 32.3849 148.548 32.1758 147.546 32.0094C147.661 31.3853 147.774 30.7627 147.896 30.1433C147.91 30.0734 147.898 30.0007 147.863 29.9389C147.827 29.877 147.77 29.8303 147.703 29.8074C148.007 29.6738 148.276 29.469 148.485 29.2102C149.006 28.5512 148.837 27.7623 148.846 26.9924C148.898 27.0088 148.953 27.0088 149.005 26.9924C150.049 26.7009 151.49 26.6011 151.196 28.2296H151.2ZM146.068 25.668C147.039 25.2688 146.762 24.849 147.983 25.1247C149.409 25.4415 148.458 25.5001 148.19 26.4078C148.107 26.7057 148.202 26.9797 148.171 27.2633C148.217 27.4586 148.214 27.6622 148.161 27.8558C148.109 28.0494 148.009 28.2269 147.87 28.3722C147.882 29.0708 147.579 29.4098 146.958 29.3892C146.435 29.5714 145.954 29.5302 145.412 29.508C145.095 29.4938 145.052 29.8993 145.268 30.0387C144.61 30.0989 143.75 30.2368 143.238 30.0593C142.909 29.9459 142.609 29.7621 142.358 29.5207C142.373 29.4718 142.375 29.4199 142.365 29.3698C142.355 29.3196 142.333 29.2727 142.3 29.2333C142.268 29.194 142.225 29.1635 142.178 29.1445C142.13 29.1255 142.079 29.1187 142.028 29.1247C141.816 28.7991 141.699 28.4209 141.69 28.0325C141.681 27.6441 141.781 27.2608 141.977 26.9259C142.016 26.8609 142.059 26.7979 142.104 26.7373C142.18 26.7309 142.25 26.6951 142.299 26.6376C142.349 26.5802 142.374 26.5057 142.369 26.43C143.348 25.535 144.905 26.1465 146.068 25.668ZM127.072 17.8106C126.681 17.6522 126.28 17.508 125.881 17.3781C125.881 17.3464 125.881 17.3148 125.892 17.2815L126 17.3132C126.358 17.4795 126.716 17.6411 127.072 17.8106ZM136.577 12.0918C140.205 12.2375 143.748 13.0977 147.229 14.0831C140.587 17.1199 133.306 18.9195 126.139 16.7476C130.481 15.0161 135.224 15.1159 139.818 14.5298C139.986 14.5076 139.989 14.2399 139.818 14.2621C135.123 14.8625 130.297 14.7627 125.878 16.5718C125.837 16.5271 125.785 16.4948 125.728 16.4785C125.67 16.4623 125.609 16.4627 125.551 16.4799L125.393 16.4054C126.052 12.3199 133.486 11.9682 136.569 12.0918H136.577ZM113.073 13.2292C112.498 13.3449 111.924 13.4716 111.351 13.6015H111.327C111.056 13.5445 110.784 13.4938 110.514 13.4351C111.248 13.4099 111.98 13.3385 112.705 13.2213C112.819 13.226 112.943 13.226 113.065 13.2292H113.073ZM118.956 12.9789H119.029L118.95 13.0027C118.95 12.9947 118.95 12.9868 118.948 12.9789H118.956ZM119.33 12.811C119.543 12.7793 119.756 12.7445 119.964 12.7064C119.723 12.7682 119.489 12.8411 119.249 12.9124C119.283 12.8846 119.308 12.8485 119.322 12.8078L119.33 12.811ZM106.546 12.2153C106.495 12.3864 106.443 12.5575 106.402 12.727C106.413 12.5496 106.438 12.3706 106.454 12.1916C106.476 12.1995 106.508 12.2058 106.538 12.2153H106.546ZM107.194 13.4526C107.295 14.2062 107.291 14.9702 107.181 15.7227C107.18 14.9654 107.183 14.2087 107.189 13.4526H107.194ZM120.623 12.5591L120.569 12.5702C120.61 12.5473 120.643 12.5136 120.666 12.4727C120.689 12.4319 120.7 12.3856 120.697 12.3389L121.25 12.3547L120.623 12.5591ZM106.544 18.5662C106.582 18.5539 106.618 18.5351 106.649 18.5108C106.675 18.5469 106.711 18.5745 106.752 18.59C106.712 18.6486 106.674 18.7136 106.632 18.7658C106.594 18.6993 106.565 18.6312 106.537 18.5662H106.544ZM123.142 11.9698H123.202L123.158 11.9983C123.155 11.9886 123.152 11.979 123.148 11.9698H123.142ZM107.788 11.2633C107.72 11.1618 107.647 11.0639 107.569 10.9702C108.686 11.23 109.799 11.5099 110.909 11.8098C109.847 11.8134 108.792 11.6284 107.794 11.2633H107.788ZM105.782 13.9975C105.782 14.7769 105.802 15.5532 105.874 16.3294C105.749 15.5587 105.72 14.7753 105.789 13.9975H105.782ZM107.683 16.2153C107.797 15.5776 107.85 14.9305 107.842 14.2827L107.896 14.4031C107.882 15.0125 107.811 15.6192 107.683 16.2153ZM111.405 14.9306C112.254 14.9829 113.092 15.0035 113.927 14.9829C113.087 15.0568 112.241 15.0393 111.405 14.9306ZM117.627 14.3112C117.63 14.2754 117.626 14.2395 117.616 14.205L118.038 14.0577L118.245 14.1322C118.041 14.194 117.835 14.2542 117.627 14.3112ZM118.895 13.7551C119.14 13.6712 119.386 13.5793 119.633 13.4953C120.141 13.3654 120.647 13.2149 121.154 13.0597C120.529 13.3385 119.85 13.6031 119.137 13.8518L118.895 13.7551ZM97.1979 20.689C97.7983 21.8185 98.3195 22.9876 98.8122 24.1742C99.2637 25.2546 99.8387 25.7916 98.3623 25.2498C90.8961 22.5013 84.6989 16.9884 80.9017 10.0419L92.9967 20.0807C93.1282 20.19 93.3136 20.0031 93.1868 19.8922C88.9856 16.407 84.785 12.9219 80.5848 9.43672L80.4264 9.14365C84.7939 10.6819 89.6811 12.4973 93.2185 15.5056C94.9041 16.9266 96.1698 18.7563 97.1979 20.689ZM86.8106 8.62564C87.6343 8.59923 88.4576 8.56491 89.2803 8.52266C93.4486 8.6755 97.6025 9.09883 101.716 9.78999C96.7487 10.9793 91.5329 10.5718 86.8106 8.62564ZM100.975 2.60582C106.169 2.20922 111.389 2.9026 116.3 4.64147C111.706 5.46048 107.723 7.94128 103.295 9.35593C103.207 9.38286 103.118 9.40504 103.031 9.43356C101.353 9.12623 99.6708 8.85217 97.9773 8.63355C96.5896 8.45296 95.194 8.31672 93.7983 8.19633C99.2126 7.71465 104.59 6.88228 109.897 5.70444C110.064 5.66642 109.993 5.4082 109.825 5.44622C104.016 6.73745 98.1224 7.61254 92.1888 8.06484C90.2086 7.93072 88.2263 7.85784 86.2419 7.84623C89.9124 4.19315 96.0478 3.00028 100.975 2.60741V2.60582ZM78.4795 5.34008C78.5634 5.56187 78.8169 6.01335 78.6743 6.25098C78.5714 6.4284 77.6003 6.3983 77.4292 6.40939C76.1619 6.53771 74.9024 6.51078 73.7254 5.95791C73.6786 5.93513 73.6265 5.92546 73.5746 5.92992C73.5227 5.93439 73.473 5.95281 73.4308 5.98325C73.5527 5.80741 73.689 5.64266 73.803 5.4589C73.8118 5.43884 73.8193 5.4182 73.8252 5.39711C75.0815 5.51117 76.3028 5.2482 77.5163 4.6779C77.6747 4.60186 77.8664 4.51949 78.0644 4.42444C78.2197 4.7286 78.367 5.03276 78.4858 5.34167L78.4795 5.34008ZM72.4391 0.619286C73.3896 0.182056 74.6015 1.26245 75.3587 1.5476C76.089 1.82166 76.8874 1.95473 77.5543 2.24305C77.7017 2.30642 77.784 2.47117 77.9504 2.5187C78.166 2.554 78.3847 2.56727 78.603 2.5583C79.1084 2.58523 79.5171 2.32542 79.3951 2.77691C79.3096 3.09374 78.847 3.40107 78.3369 3.66879C78.3373 3.66458 78.3373 3.66034 78.3369 3.65612C78.1785 3.32978 77.7159 3.59434 77.8284 3.91751C77.4688 4.07592 77.1377 4.21058 76.9555 4.2882C75.9008 4.7578 74.7379 4.93036 73.5923 4.78721C73.5795 4.7436 73.5557 4.704 73.5233 4.67212C73.4908 4.64025 73.4508 4.61716 73.407 4.60503C72.6452 4.38421 71.9827 3.90754 71.5313 3.25533L71.1607 2.37136L72.4391 0.619286ZM69.1694 4.64305C69.0109 4.46404 68.9032 4.24701 68.6799 4.12978C68.504 4.0379 68.249 4.04899 68.0272 4.02048C68.7756 3.3442 69.6476 2.81869 70.5951 2.47275C70.7979 3.46285 71.4553 4.24226 72.3044 4.74286C72.2861 4.78006 72.2761 4.82081 72.2752 4.86227C72.2742 4.90373 72.2823 4.9449 72.2989 4.9829C72.3155 5.02091 72.3402 5.05484 72.3712 5.08233C72.4023 5.10982 72.4389 5.1302 72.4787 5.14206C72.607 5.18008 72.7353 5.20702 72.862 5.2387C71.5298 5.54603 70.1896 5.75989 69.1694 4.64305ZM51.2272 12.4149C51.2593 12.4538 51.3011 12.4836 51.3483 12.5014C51.3956 12.5192 51.4466 12.5243 51.4965 12.5163C51.0798 12.6272 50.6553 12.727 50.2291 12.8205L51.2272 12.4149ZM54.2371 9.91514C54.1579 9.91514 54.0786 9.93257 54.0058 9.9389C54.2624 9.85494 54.519 9.78049 54.7788 9.6997C54.5951 9.77098 54.4097 9.84069 54.2307 9.91514H54.2371ZM50.98 11.3409L50.527 11.5468L50.4953 11.5199C50.8121 11.3171 51.1416 11.1318 51.479 10.9607C51.3069 11.0832 51.1384 11.2105 50.9737 11.3425L50.98 11.3409ZM56.4311 13.8755C56.1697 13.7805 55.9052 13.7013 55.639 13.6268C56.9018 13.7441 58.1489 13.9926 59.3602 14.3682C58.3942 14.1376 57.4134 13.974 56.4248 13.8787L56.4311 13.8755ZM52.3297 13.5999C52.3517 13.654 52.3929 13.698 52.4454 13.7235L52.5072 13.7488C52.3155 13.7155 52.1222 13.6775 51.9321 13.6411C52.0604 13.6332 52.1982 13.6157 52.3297 13.5999ZM73.1504 13.6981H73.1345C73.1873 13.7016 73.2402 13.7016 73.2929 13.6981C73.3438 13.6915 73.392 13.6712 73.4323 13.6395C73.9234 14.2003 74.4652 14.7183 74.9864 15.2522C74.9796 15.2743 74.9759 15.2972 74.9753 15.3203C74.471 14.6745 73.8524 14.1269 73.1504 13.7045V13.6981ZM65.9076 10.8276L65.7492 10.807C65.8062 10.807 65.8632 10.7896 65.9202 10.7817C65.9171 10.8039 65.9123 10.8181 65.9076 10.834V10.8276ZM75.3001 15.9761C75.4897 16.2624 75.709 16.5279 75.9543 16.7682C75.6088 16.6142 75.2914 16.4038 75.0149 16.1456C75.0735 16.1465 75.1311 16.1311 75.1814 16.1012C75.2318 16.0713 75.2728 16.028 75.3001 15.9761ZM69.9313 11.0652C69.7333 10.9734 69.527 10.9007 69.3151 10.8482C69.9898 10.9573 70.6513 11.1362 71.289 11.3821C70.8421 11.2536 70.3889 11.1479 69.9313 11.0652ZM68.1523 10.7769C67.9147 10.75 67.6771 10.731 67.4379 10.7136C67.7626 10.7136 68.0874 10.7136 68.409 10.7452C68.3282 10.7484 68.2363 10.7658 68.1523 10.7738V10.7769ZM71.0862 13.2831C71.2921 13.3813 71.4917 13.4843 71.6945 13.5841C72.1391 13.8914 72.5753 14.2082 73.003 14.5346C73.971 15.4851 74.904 16.4498 75.5472 17.1215C73.8997 16.1995 72.6213 14.4633 71.0862 13.2831ZM37.2042 23.4407C37.3388 23.8526 37.765 24.6162 37.4101 24.9536C37.1186 25.2324 35.0085 23.9825 34.717 23.8162C33.4481 23.0722 32.2211 22.2588 31.0418 21.3797C28.4723 19.5057 26.5142 17.1801 25.2517 14.3476C27.8228 16.8823 31.4933 17.9627 33.879 20.7381C33.9915 20.868 34.18 20.6779 34.0675 20.548C31.5788 17.6554 27.6897 16.6098 25.1154 13.8264C26.7139 14.8007 28.4865 15.3298 30.2798 15.9793C34.001 17.3258 35.9844 19.71 37.2042 23.4407ZM35.62 6.53454C37.7178 6.08797 39.8622 5.89911 42.0058 5.97217C43.1147 5.99751 44.2236 6.08306 45.323 6.2082C45.6129 6.23989 48.2901 6.36662 48.6165 6.76108C48.9428 7.15553 44.4137 9.56821 43.864 9.81534C42.1071 10.5776 40.2739 11.1501 38.3955 11.5231C35.1052 12.2011 31.742 12.35 28.3899 12.3658C30.1673 11.9682 31.875 11.2949 33.6176 10.6138C36.7638 9.38128 39.8957 8.73969 43.2382 8.28821C43.4077 8.26603 43.3349 8.00781 43.1669 8.02999C40.1111 8.44345 37.1646 8.97256 34.2735 10.072C31.7958 11.0225 29.4275 12.0617 26.8168 12.3658H25.8663L25.7428 12.3421C28.2663 9.31157 31.7832 7.39316 35.62 6.53454Z" fill="#8D7A33"/>
<path fill-rule="evenodd" clip-rule="evenodd" d="M9.78512 12.0819C10.9026 15.3296 11.8147 18.6444 12.5162 22.0066C12.6707 21.9938 12.8259 21.9938 12.9804 22.0066C13.0247 22.0589 13.0596 22.1144 13.1024 22.1651C16.0457 23.1837 18.6327 24.8724 20.6572 27.2692C22.7166 29.6993 25.0929 32.7742 25.5444 35.9964C25.5744 36.2055 25.4224 36.4193 25.1879 36.3528C22.3364 35.5354 19.2536 34.6102 17.2988 32.234C15.0445 29.4807 14.9226 25.6613 12.8631 22.8003V22.9017C12.8873 22.9485 12.8999 23.0003 12.8999 23.053C12.8999 23.1056 12.8873 23.1575 12.8631 23.2043V23.8379C13.6603 28.1325 14.098 32.4861 14.1717 36.8534C14.2191 36.8636 14.2622 36.888 14.2954 36.9234C14.3285 36.9588 14.35 37.0034 14.357 37.0514C15.0604 40.6728 16.4687 44.1691 19.6972 46.1603C19.9459 45.7532 20.2723 45.2415 20.7222 45.1734C21.3131 45.0831 22.094 45.6946 22.5661 46.097C22.3079 45.7453 21.9911 45.5013 21.6251 45.1021C21.2038 44.6427 21.1325 44.2087 21.359 43.6051C21.6758 42.775 22.1131 42.7607 22.8259 42.4661C23.6893 42.1096 23.9665 41.8435 24.4925 41.3239C24.7744 41.0451 24.9455 40.7631 25.34 40.6332C26.9939 40.0803 27.5325 42.1714 27.4026 43.3564C27.2172 45.072 26.216 46.5247 25.0865 47.8079C25.801 49.0435 26.0893 50.3885 26.1416 51.8142C26.1733 52.6269 26.4711 54.634 25.6663 55.2075C25.2449 55.5085 24.4386 55.4578 23.9618 55.5243C23.3186 55.6051 22.3079 55.96 21.6806 55.6827C21.0184 55.3865 20.6984 54.2665 20.5131 53.4158C20.2232 53.6075 19.8984 53.6994 19.5626 53.5093C19.0493 53.2289 19.1364 52.5445 19.0873 52.0582C19.0652 51.6018 18.9907 51.1495 18.8655 50.7101C18.7394 50.3313 18.5602 49.9724 18.3333 49.6439C18.278 49.4889 18.2341 49.33 18.2018 49.1687C18.1495 48.3956 18.9226 47.3421 19.3962 46.6546C16.5447 44.8946 15.0287 42.0067 14.1923 38.8574C14.1336 42.131 13.8589 45.3973 13.3701 48.6348C13.4651 48.4051 13.8453 48.3512 13.9103 48.6522L14.0164 49.1972C15.7554 53.268 16.5982 57.6653 16.4877 62.0907C16.4853 62.1531 16.4629 62.2131 16.424 62.2619C16.385 62.3108 16.3315 62.3459 16.2712 62.3622C16.2109 62.3785 16.1469 62.375 16.0887 62.3524C16.0305 62.3298 15.981 62.2891 15.9475 62.2364C13.9009 59.0643 12.8423 55.3559 12.9059 51.5813C12.342 54.8748 11.6513 58.1509 10.9653 61.4507C11.0203 61.4804 11.0635 61.528 11.0877 61.5856C11.1119 61.6433 11.1157 61.7074 11.0984 61.7675L11.0683 61.9085C11.0996 61.934 11.1249 61.9661 11.1424 62.0026C11.16 62.039 11.1693 62.0788 11.1697 62.1192C11.1697 62.2317 11.1887 62.3425 11.195 62.4534C11.8128 65.0705 12.5828 67.5228 14.3412 69.6424C15.7495 71.3437 17.3368 72.8107 18.4711 74.7259C18.4961 74.7703 18.5092 74.8204 18.509 74.8713C18.5088 74.9223 18.4953 74.9723 18.4699 75.0164C18.4444 75.0605 18.4079 75.0973 18.364 75.123C18.32 75.1488 18.2701 75.1626 18.2192 75.1632C17.9003 75.1377 17.5831 75.0954 17.2687 75.0364C17.2244 75.0713 17.1713 75.0931 17.1153 75.0992C17.0593 75.1054 17.0026 75.0957 16.9519 75.0713C16.8632 75.0253 16.7824 74.9699 16.6968 74.9208C12.3388 73.8737 10.2873 69.739 10.1574 65.4491C9.36735 69.4618 8.83818 73.5216 8.57324 77.6028C8.67814 77.6775 8.80258 77.7199 8.93126 77.7248C13.0248 79.7331 16.6706 82.5473 19.6503 85.9987C22.6299 89.4501 24.882 93.4676 26.2715 97.8103C26.3348 98.0068 26.1131 98.2507 25.915 98.1683C21.8675 96.5573 17.6093 94.8321 14.7895 91.3565C11.8746 87.7667 10.0687 83.019 8.5273 78.6531C8.45126 80.0704 8.4069 81.4887 8.39423 82.9081C8.68571 82.6816 9.09918 83.0887 8.80453 83.3184C8.73482 83.3723 8.67462 83.4325 8.6065 83.4879C10.7816 88.2119 11.5309 93.4396 10.5724 98.5723C10.4158 99.3952 10.2111 100.208 9.95938 101.007C10.1474 102.04 10.3523 103.068 10.574 104.092C10.574 104.092 10.574 104.092 10.5851 104.092C11.9689 103.463 13.4766 103.156 14.9958 103.191C16.5151 103.226 18.0067 103.604 19.3598 104.296C19.3977 104.318 19.43 104.349 19.4542 104.386C19.4784 104.423 19.4939 104.465 19.4996 104.509C19.5052 104.553 19.5009 104.597 19.4868 104.639C19.4727 104.681 19.4493 104.719 19.4184 104.751C18.3507 105.947 16.7253 106.176 15.1903 106.287C16.9339 107.034 18.7124 107.692 20.5257 108.261C20.5606 107.566 20.6129 106.892 20.6034 106.328C20.6038 106.252 20.6344 106.178 20.6887 106.124C20.743 106.07 20.8165 106.039 20.8933 106.038C21.142 106.038 21.3891 106.029 21.6378 106.023C21.7025 106.018 21.7663 106.039 21.8163 106.08C21.8663 106.121 21.8988 106.18 21.9071 106.244C22.5397 106.281 23.1323 106.565 23.5562 107.036C23.7843 106.701 23.6956 105.62 23.7733 105.199C23.862 104.714 24.1772 104.248 24.2485 103.734C24.3451 102.995 24.1915 102.549 24.7 101.961C24.7364 101.925 24.7816 101.899 24.8311 101.886C24.8805 101.873 24.9326 101.873 24.982 101.886C26.8244 102.317 27.8762 103.724 27.9998 105.584C28.1471 107.841 27.4992 109.215 25.4968 110.268C25.4391 110.3 25.3721 110.31 25.3075 110.298C25.2429 110.285 25.1849 110.25 25.1436 110.198L24.6842 110.384C24.7176 111.433 24.5387 112.477 24.1582 113.455C24.1582 113.455 24.1661 113.455 24.1709 113.455C25.1372 113.931 25.9958 113.673 26.9146 113.284C27.2093 113.161 27.0541 113.737 27.5103 113.006C27.6006 112.861 27.4485 112.337 27.523 112.122C27.6988 111.624 28.1566 111.478 28.5606 111.227C28.7748 111.127 28.9671 110.985 29.1265 110.811C29.2858 110.636 29.409 110.432 29.4889 110.21C29.1721 109.867 28.8521 109.526 28.5289 109.186C28.2754 109.08 27.8699 109.177 27.5784 109.066C27.2331 108.936 27.382 108.375 27.7368 108.505C28.6572 108.85 29.7883 108.347 30.0735 109.663C30.3333 110.864 29.3115 111.247 28.5875 111.871C27.7844 112.557 28.4291 113.034 27.9063 113.644C27.6323 113.969 27.4897 113.815 27.1491 113.878C25.9087 114.11 25.1657 114.566 23.9269 113.972C23.5119 114.753 22.9463 115.358 22.2224 115.594C22.1795 115.605 22.1345 115.607 22.091 115.598C22.0475 115.59 22.0065 115.571 21.9712 115.544C21.9359 115.517 21.9073 115.483 21.8874 115.443C21.8675 115.403 21.8569 115.36 21.8564 115.315C21.8453 114.309 21.98 113.082 21.5158 112.233C21.3368 111.903 20.982 111.824 20.8109 111.391C20.5321 110.686 20.494 109.777 20.5162 108.857C18.4934 108.22 16.507 107.473 14.5661 106.618C14.6466 106.714 14.7222 106.813 14.7927 106.916C15.599 108.152 15.3788 109.913 15.3376 111.314C15.3005 113.318 14.9979 115.308 14.4378 117.232C15.1306 119.092 15.881 120.926 16.6889 122.736C16.7364 122.736 16.7808 122.723 16.8267 122.721C16.8765 122.72 16.9256 122.732 16.969 122.757C17.0124 122.781 17.0485 122.817 17.0736 122.86C17.0986 122.903 17.1117 122.952 17.1115 123.001C17.1113 123.051 17.0977 123.1 17.0723 123.143C17.0796 123.16 17.0834 123.179 17.0834 123.197C17.0834 123.216 17.0796 123.235 17.0723 123.252L17.0596 123.28C17.0853 123.272 17.1131 123.272 17.1388 123.28C17.1274 123.208 17.1438 123.135 17.1848 123.074C17.2257 123.013 17.2881 122.971 17.3593 122.954C17.4305 122.938 17.5052 122.95 17.5684 122.986C17.6316 123.023 17.6785 123.082 17.6996 123.152C17.7123 123.195 17.7281 123.235 17.7408 123.279C21.4366 123.12 25.0707 124.99 28.2675 126.674C31.8366 128.551 35.043 130.951 37.2687 134.363C37.2938 134.408 37.3068 134.458 37.3066 134.509C37.3064 134.56 37.2929 134.61 37.2675 134.654C37.2421 134.698 37.2056 134.735 37.1616 134.76C37.1177 134.786 37.0678 134.8 37.0168 134.8C32.2057 134.881 27.9016 135.117 23.7257 132.353C21.7476 131.046 20.0857 129.314 18.8608 127.284C21.0404 131.56 23.5405 135.666 26.3396 139.566C26.6248 139.265 26.9763 139.034 27.3661 138.892C28.0885 138.679 28.8885 139.143 29.5143 139.602C29.7931 139.319 29.9768 138.938 30.3903 138.762C31.0556 138.482 32.0457 138.566 32.7143 138.696C33.3067 138.812 33.8834 139.046 34.224 139.578C34.5646 140.111 34.403 140.697 34.6295 141.254C34.856 141.812 35.2125 142.072 35.2394 142.728C35.2632 143.298 35.0905 144.068 34.7436 144.535C34.3966 145.002 33.9356 145.115 33.4065 145.239C33.1071 145.308 32.803 145.364 32.5004 145.424C32.7919 147.355 32.5543 150.335 29.8517 149.86C29.3009 149.743 28.7324 149.736 28.1788 149.839C28.0299 149.869 27.9111 149.997 27.7543 149.997C27.3598 150.012 27.0461 149.977 26.7277 149.707C25.9356 149.039 26.1099 147.783 26.3491 146.9C26.2473 146.92 26.1472 146.947 26.0497 146.983C25.3653 147.25 24.86 147.925 24.117 147.288C23.4216 146.694 23.7622 145.744 24.1535 145.11C24.6937 144.237 25.1356 143.824 25.0944 142.734C25.0754 142.211 24.9725 141.92 25.1404 141.386C25.3258 140.887 25.5971 140.424 25.942 140.019C22.8855 135.786 20.1832 131.308 17.8628 126.631C19.0335 133.329 17.0976 140.063 14.1923 146.211C14.0814 146.446 13.7265 146.37 13.6616 146.141C12.2184 141.139 10.9146 135.875 11.5926 130.633C11.9475 127.889 12.9344 123.512 16.0774 122.827C15.3846 121.266 14.7351 119.688 14.1289 118.092C13.6011 119.592 12.838 120.998 11.8683 122.257C11.6956 122.479 11.393 122.27 11.3724 122.053C11.067 119.156 11.067 116.236 11.3724 113.34C11.4659 112.476 11.5768 111.615 11.6544 110.756C10.8328 107.926 10.1373 105.067 9.56809 102.179C7.9966 106.615 5.49046 110.743 4.97403 115.499C4.97199 115.568 4.94545 115.634 4.89913 115.686C4.85281 115.737 4.78974 115.77 4.72119 115.779C4.65263 115.789 4.58307 115.773 4.52491 115.736C4.46675 115.698 4.4238 115.641 4.40372 115.575C2.16808 109.803 1.38156 103.572 2.11303 97.4254C2.69917 92.6016 4.01402 86.8511 7.76848 83.4467C7.77512 79.3975 8.04553 75.3531 8.57799 71.339C8.72268 70.2597 8.88743 69.1861 9.07225 68.1184C8.30462 69.3633 7.30033 70.4457 6.11621 71.3041C6.17274 71.2884 6.2331 71.2943 6.28553 71.3207C6.33796 71.347 6.37868 71.392 6.39977 71.4467C7.13324 73.0071 7.25205 75.1806 6.7467 76.844C6.40294 77.9719 5.00412 77.1497 4.10115 76.6238C3.65284 77.5045 3.0461 78.4218 2.20016 78.5105C2.12353 78.5097 2.05027 78.4789 1.99608 78.4247C1.94189 78.3705 1.91108 78.2972 1.91026 78.2206C1.91026 77.8547 2.13204 76.6238 1.91026 76.2958C1.65996 75.9204 1.56491 76.215 1.42551 76.0424C1.10867 75.6558 1.09917 75.7905 0.882137 75.2772C0.887585 75.1362 0.900276 74.9956 0.920158 74.8558C0.984917 74.3849 0.938808 73.9054 0.785503 73.4554C0.722137 73.2384 0.468674 73.0642 0.392632 72.844C0.0758018 71.9742 -0.188755 70.8558 -0.0176659 69.9228C0.159763 68.9437 0.874218 68.5224 1.81363 68.5334C2.2333 67.3173 2.92273 66.212 3.83026 65.3002C3.88485 65.2461 3.95857 65.2158 4.03541 65.2158C4.11225 65.2158 4.18597 65.2461 4.24056 65.3002C4.51145 65.5822 4.41323 65.7754 4.53046 66.1065C4.74591 66.7228 5.39858 67.0396 5.69007 67.6241C6.19541 68.6412 6.0069 69.777 5.77086 70.8447C7.08594 69.9031 8.16942 68.6744 8.93918 67.2519C8.96673 67.1951 9.01457 67.1508 9.07323 67.1276C9.1319 67.1044 9.19712 67.1041 9.25601 67.1267C10.2065 61.899 11.5024 56.7299 12.4243 51.4974C11.675 53.4697 10.536 55.1726 8.51938 56.5414C8.46963 56.5691 8.41284 56.5817 8.35602 56.5775C8.2992 56.5734 8.24485 56.5526 8.19969 56.5179C8.15452 56.4832 8.12051 56.436 8.10188 56.3822C8.08324 56.3283 8.08079 56.2702 8.09482 56.215C9.11344 52.5366 9.85482 48.4526 12.955 45.9053C13.0027 45.8664 13.0615 45.8436 13.1229 45.8403C13.1573 45.8063 13.1998 45.7817 13.2465 45.7691C13.3115 45.1512 13.3685 44.5318 13.4128 43.9093C13.812 38.3767 13.6229 32.8174 12.8489 27.3247C12.7047 34.6118 11.7257 41.9829 6.69759 47.6495C6.66151 47.6849 6.61682 47.7104 6.56792 47.7233C6.51901 47.7363 6.46758 47.7363 6.41867 47.7234C6.36976 47.7104 6.32507 47.685 6.28898 47.6495C6.25289 47.614 6.22665 47.5698 6.21284 47.5211C4.6065 38.935 4.82512 29.0229 12.1392 23.0997C11.4206 19.4153 10.4472 15.7852 9.22591 12.2355C9.10393 11.8823 9.66472 11.7302 9.78512 12.0771M26.8592 42.8574C26.2826 42.3863 25.7054 41.9174 25.1277 41.4506C24.9582 41.6645 24.7919 41.8863 24.6176 42.1081C24.3958 42.3692 24.1444 42.6037 23.8683 42.8067C23.7416 42.9049 23.5214 42.8621 23.3931 42.9651C23.3566 42.9936 22.1812 44.6918 22.2176 44.817C22.2857 45.0514 22.8513 45.3984 23.0224 45.6645C23.3823 46.2625 23.6143 46.9287 23.7036 47.6209C23.7814 47.8355 23.8345 48.0582 23.862 48.2847C24.982 47.1108 26.1447 45.8182 26.6137 44.2498C26.7261 43.895 26.9764 43.1885 26.8592 42.8574ZM19.3313 50.3219C19.4701 50.7242 19.5631 51.1408 19.6085 51.5639C19.6845 52.1326 19.4501 52.9089 20.3768 52.6728C20.3793 52.6209 20.3953 52.5706 20.423 52.5267C20.4507 52.4828 20.4894 52.4468 20.5351 52.4222C20.5809 52.3977 20.6323 52.3854 20.6842 52.3866C20.7361 52.3877 20.7868 52.4023 20.8315 52.4289C21.123 52.1374 21.4271 51.6273 21.6236 51.3865C22.1828 50.7021 22.7087 49.9924 23.2172 49.2685C23.4295 48.9659 23.9333 49.2558 23.7178 49.5615C22.9886 50.6344 22.1906 51.6588 21.3289 52.6285C21.2339 52.7314 21.1277 52.8534 21.0121 52.9754C21.1784 53.8293 21.4366 54.9936 22.2921 55.1536C23.504 55.377 25.3099 54.7227 25.5475 53.4808C25.8644 51.8237 25.4794 49.7611 24.6746 48.2673C24.4212 48.5429 24.1661 48.8138 23.9158 49.0752C23.8831 49.1121 23.8404 49.1386 23.7928 49.1515C23.7453 49.1645 23.695 49.1633 23.6481 49.1481C23.5652 49.1584 23.4816 49.1356 23.4154 49.0846C23.3492 49.0335 23.3059 48.9584 23.2948 48.8756C23.2727 48.6316 23.2473 48.3861 23.2156 48.1405C22.9083 47.2423 21.9879 45.8388 21.0913 45.8546C20.7428 45.8546 20.4338 46.1714 20.1867 46.4883C20.2201 46.5366 20.2381 46.5938 20.2386 46.6525C20.2391 46.7112 20.2219 46.7687 20.1893 46.8175C20.1567 46.8664 20.1101 46.9043 20.0557 46.9263C20.0013 46.9484 19.9416 46.9536 19.8841 46.9413C19.8414 47.0079 19.8034 47.0728 19.7701 47.1283C19.0921 48.2324 18.8624 49.0578 19.3313 50.3219ZM25.0929 109.593C25.14 109.57 25.1936 109.565 25.2445 109.577C25.2954 109.59 25.3404 109.619 25.3717 109.661C26.8117 108.844 27.4453 107.76 27.4184 106.051C27.4026 105.061 27.26 104.107 26.5408 103.358C25.8691 102.653 25.1309 102.137 24.8109 103.331C24.7238 103.662 24.8632 104.057 24.7776 104.404C24.6525 104.914 24.4782 105.155 24.418 105.707C24.3372 106.425 24.5194 107.017 23.9127 107.513C24.3252 108.205 24.5759 108.981 24.6461 109.783C24.7982 109.715 24.9487 109.654 25.0929 109.593ZM21.237 110.089C21.359 110.84 21.8438 111.334 22.1368 111.96C22.5329 112.806 22.4441 113.874 22.4188 114.851C23.5008 114.175 24.1028 112.282 24.0869 110.495C24.0538 110.466 24.027 110.431 24.0083 110.391C23.9895 110.352 23.9791 110.309 23.9777 110.265C23.9764 110.221 23.9841 110.178 24.0005 110.137C24.0168 110.096 24.0414 110.06 24.0727 110.029C23.9539 108.354 23.2663 106.894 21.8802 106.821C21.8209 106.818 21.7639 106.797 21.7175 106.76C21.6711 106.723 21.6377 106.672 21.622 106.615C20.8299 106.655 21.2117 108.082 21.2228 108.73C21.2291 109.161 21.1737 109.657 21.2434 110.089H21.237ZM23.9966 131.854C27.3234 134.062 30.8798 134.446 34.7879 134.289C36.1978 134.233 36.8252 134.557 35.58 133.021C34.9991 132.309 34.3635 131.644 33.679 131.03C32.2994 129.815 30.7963 128.748 29.1943 127.846C25.9008 125.962 21.8247 123.724 17.9055 123.844L17.9562 124.003C21.1647 126.852 24.8167 129.159 28.7681 130.832C28.9265 130.899 28.7887 131.13 28.6319 131.063C24.8114 129.443 21.2684 127.234 18.1321 124.516C19.2722 127.515 21.3231 130.081 23.9966 131.854ZM33.2513 144.686C34.0782 144.369 34.761 143.689 34.6596 142.734C34.5741 141.942 34.2731 142.213 34.0893 141.717C33.584 140.339 34.1226 139.407 31.9919 139.204C31.1048 139.119 30.7911 139.255 30.0497 139.838C30.0053 139.873 29.9721 139.903 29.9436 139.93C30.9875 140.784 30.5408 142.425 30.5154 143.634C30.5126 143.689 30.4943 143.743 30.4627 143.788C30.4311 143.834 30.3874 143.87 30.3365 143.892C30.2856 143.914 30.2296 143.921 30.1747 143.913C30.1199 143.905 30.0683 143.882 30.0259 143.846C30.0492 144.352 29.9958 144.858 29.8675 145.348C29.8843 145.338 29.9025 145.33 29.9214 145.326C30.978 145.124 32.2422 145.064 33.2513 144.681V144.686ZM28.1582 149.201C28.5194 149.136 28.7158 149.061 29.0865 149.104C30.0592 149.218 30.8592 149.551 31.5974 148.682C32.3135 147.838 32.1044 146.549 31.938 145.546C31.3139 145.661 30.6913 145.774 30.0719 145.896C30.002 145.91 29.9293 145.898 29.8675 145.863C29.8056 145.827 29.7589 145.77 29.736 145.703C29.6023 146.008 29.3976 146.276 29.1388 146.485C28.4798 147.006 27.6909 146.837 26.921 146.846C26.9374 146.898 26.9374 146.953 26.921 147.005C26.6295 148.049 26.5297 149.49 28.1582 149.196V149.201ZM25.5966 144.068C25.1974 145.039 24.7776 144.762 25.0533 145.983C25.3701 147.409 25.4287 146.458 26.3364 146.191C26.6343 146.107 26.9083 146.202 27.1919 146.172C27.3872 146.217 27.5908 146.214 27.7844 146.161C27.978 146.109 28.1554 146.009 28.3008 145.871C28.9994 145.882 29.3384 145.579 29.3178 144.958C29.5 144.435 29.4588 143.954 29.4366 143.412C29.4224 143.095 29.8279 143.052 29.9673 143.268C30.0275 142.61 30.1653 141.75 29.9879 141.239C29.8745 140.909 29.6907 140.609 29.4493 140.358C29.4004 140.373 29.3485 140.376 29.2983 140.366C29.2482 140.355 29.2013 140.333 29.1619 140.3C29.1226 140.268 29.092 140.226 29.0731 140.178C29.0541 140.131 29.0473 140.079 29.0533 140.028C28.7277 139.816 28.3495 139.699 27.9611 139.69C27.5727 139.681 27.1894 139.781 26.8545 139.978C26.7894 140.016 26.7265 140.059 26.6659 140.104C26.6595 140.18 26.6237 140.25 26.5662 140.299C26.5088 140.349 26.4343 140.374 26.3586 140.369C25.4636 141.348 26.075 142.905 25.5966 144.068ZM17.7392 125.072C17.5808 124.681 17.4366 124.28 17.3067 123.881C17.275 123.881 17.2433 123.881 17.2101 123.892L17.2418 124C17.4081 124.358 17.5697 124.716 17.7392 125.072ZM12.0204 134.577C12.1661 138.205 13.0263 141.749 14.0117 145.229C17.0485 138.587 18.8481 131.306 16.6762 124.139C14.9447 128.481 15.0445 133.224 14.4584 137.818C14.4362 137.986 14.1685 137.989 14.1907 137.818C14.7911 133.123 14.6913 128.298 16.5004 123.878C16.4557 123.838 16.4234 123.786 16.4071 123.728C16.3909 123.67 16.3913 123.609 16.4085 123.551L16.334 123.393C12.2485 124.052 11.8968 131.486 12.0204 134.569V134.577ZM13.1578 111.073C13.2734 110.498 13.4002 109.924 13.5301 109.351V109.327C13.473 109.056 13.4224 108.784 13.3637 108.515C13.3385 109.249 13.2671 109.98 13.1499 110.705C13.1546 110.819 13.1546 110.943 13.1578 111.065V111.073ZM12.9075 116.956V117.029L12.9313 116.95C12.9233 116.95 12.9153 116.95 12.9075 116.949V116.956ZM12.7396 117.33C12.7079 117.543 12.673 117.757 12.635 117.964C12.6968 117.723 12.7697 117.489 12.841 117.25C12.8132 117.283 12.7771 117.308 12.7364 117.322L12.7396 117.33ZM12.1439 104.546C12.315 104.495 12.4861 104.443 12.6556 104.402C12.4782 104.413 12.2992 104.438 12.1202 104.454C12.1281 104.476 12.1344 104.508 12.1439 104.538V104.546ZM13.3812 105.194C14.1348 105.295 14.8988 105.291 15.6513 105.181C14.894 105.18 14.1373 105.183 13.3812 105.189V105.194ZM12.4877 118.623L12.4988 118.569C12.4759 118.61 12.4422 118.643 12.4013 118.666C12.3605 118.689 12.3142 118.7 12.2675 118.697L12.2833 119.25L12.4877 118.623ZM18.4948 104.545C18.4825 104.582 18.4637 104.618 18.4394 104.649C18.4755 104.675 18.5031 104.711 18.5186 104.752C18.5772 104.713 18.6422 104.674 18.6944 104.632C18.6279 104.594 18.5598 104.565 18.4948 104.537V104.545ZM11.8984 121.142V121.202L11.9269 121.158C11.9172 121.155 11.9076 121.152 11.8984 121.148V121.142ZM11.1919 105.788C11.0903 105.721 10.9925 105.648 10.8988 105.57C11.1586 106.686 11.4385 107.799 11.7384 108.909C11.742 107.847 11.557 106.792 11.1919 105.795V105.788ZM13.9261 103.783C14.7055 103.783 15.4818 103.802 16.258 103.874C15.4873 103.749 14.7039 103.72 13.9261 103.789V103.783ZM16.1439 105.684C15.5062 105.797 14.8591 105.851 14.2113 105.842L14.3317 105.896C14.941 105.882 15.5478 105.811 16.1439 105.684ZM14.8592 109.405C14.9115 110.254 14.9321 111.092 14.9115 111.927C14.9854 111.087 14.9679 110.241 14.8592 109.405ZM14.2398 115.627C14.204 115.63 14.1681 115.626 14.1336 115.616L13.9863 116.038L14.0608 116.245C14.1226 116.041 14.1828 115.835 14.2398 115.627ZM13.6837 116.895C13.5998 117.14 13.5079 117.386 13.4239 117.633C13.294 118.141 13.1435 118.647 12.9883 119.154C13.2671 118.53 13.5317 117.85 13.7804 117.137L13.6837 116.895ZM20.6176 95.198C21.7471 95.7984 22.9162 96.3196 24.1028 96.8123C25.1832 97.2638 25.7202 97.8388 25.1784 96.3624C22.4299 88.8963 16.917 82.699 9.97047 78.9018L20.0093 90.9968C20.1186 91.1283 19.9317 91.3137 19.8208 91.187C16.3356 86.9858 12.8505 82.7851 9.36532 78.5849L9.07225 78.4265C10.6105 82.7941 12.4259 87.6812 15.4342 91.2186C16.8552 92.9042 18.6849 94.1699 20.6176 95.198ZM8.55423 84.8107C8.52783 85.6345 8.4935 86.4577 8.45126 87.2804C8.60409 91.4487 9.02743 95.6027 9.71859 99.7161C10.9079 94.7488 10.5004 89.533 8.55423 84.8107ZM2.53442 98.9747C2.13782 104.169 2.83119 109.389 4.57006 114.3C5.38907 109.706 7.86987 105.723 9.28453 101.295C9.31146 101.207 9.33364 101.118 9.36215 101.031C9.05482 99.3533 8.78076 97.6709 8.56215 95.9774C8.38155 94.5897 8.24532 93.1941 8.12492 91.7984C7.64325 97.2128 6.81087 102.59 5.63304 107.897C5.59502 108.065 5.3368 107.993 5.37482 107.825C6.66604 102.016 7.54114 96.1226 7.99343 90.1889C7.85931 88.2087 7.78644 86.2264 7.77482 84.242C4.12175 87.9125 2.92887 94.048 2.536 98.9747H2.53442ZM5.26868 76.4796C5.49046 76.5636 5.94195 76.817 6.17957 76.6745C6.357 76.5715 6.3269 75.6004 6.33799 75.4293C6.4663 74.162 6.43937 72.9026 5.8865 71.7255C5.86372 71.6787 5.85405 71.6266 5.85852 71.5747C5.86298 71.5228 5.88141 71.4731 5.91185 71.4309C5.73601 71.5529 5.57125 71.6891 5.38749 71.8032C5.36743 71.812 5.34679 71.8194 5.32571 71.8253C5.43977 73.0816 5.1768 74.303 4.6065 75.5164C4.53046 75.6748 4.44809 75.8665 4.35303 76.0646C4.65719 76.2198 4.96135 76.3671 5.27026 76.4859L5.26868 76.4796ZM0.547878 70.4392C0.110653 71.3897 1.19105 72.6016 1.4762 73.3588C1.75026 74.0891 1.88333 74.8875 2.17165 75.5544C2.23501 75.7018 2.39977 75.7842 2.44729 75.9505C2.4826 76.1661 2.49587 76.3848 2.48689 76.6032C2.51382 77.1085 2.25402 77.5172 2.70551 77.3952C3.02234 77.3097 3.32967 76.8471 3.59739 76.337C3.59317 76.3374 3.58893 76.3374 3.58472 76.337C3.25838 76.1786 3.52293 75.716 3.8461 75.8285C4.00452 75.4689 4.13917 75.1378 4.2168 74.9556C4.6864 73.901 4.85895 72.738 4.71581 71.5925C4.6722 71.5796 4.63259 71.5558 4.60072 71.5234C4.56884 71.4909 4.54576 71.4509 4.53363 71.4071C4.31281 70.6453 3.83613 69.9829 3.18392 69.5315L2.29996 69.1608L0.547878 70.4392ZM4.57165 67.1695C4.39264 67.0111 4.17561 66.9033 4.05838 66.68C3.9665 66.5041 3.97759 66.2491 3.94907 66.0273C3.2728 66.7758 2.74729 67.6477 2.40135 68.5952C3.39145 68.798 4.17086 69.4554 4.67145 70.3045C4.70865 70.2862 4.7494 70.2762 4.79086 70.2753C4.83232 70.2743 4.87349 70.2824 4.9115 70.299C4.9495 70.3156 4.98344 70.3403 5.01093 70.3713C5.03841 70.4024 5.0588 70.4391 5.07066 70.4788C5.10868 70.6071 5.13561 70.7354 5.16729 70.8622C5.47462 69.5299 5.68848 68.1897 4.57165 67.1695ZM12.3435 49.2273C12.3824 49.2595 12.4122 49.3012 12.43 49.3485C12.4478 49.3957 12.4529 49.4468 12.4449 49.4966C12.5558 49.08 12.6556 48.6554 12.7491 48.2293L12.3435 49.2273ZM9.84374 52.2372C9.84374 52.158 9.86116 52.0788 9.8675 52.0059C9.78354 52.2625 9.70908 52.5192 9.62829 52.779C9.69958 52.5952 9.76928 52.4099 9.84374 52.2308V52.2372ZM11.2695 48.9801L11.4754 48.5271L11.4485 48.4954C11.2457 48.8122 11.0604 49.1417 10.8893 49.4792C11.0118 49.307 11.139 49.1386 11.2711 48.9738L11.2695 48.9801ZM13.8041 54.4312C13.7091 54.1699 13.6299 53.9053 13.5554 53.6392C13.6727 54.9019 13.9212 56.1491 14.2968 57.3604C14.0661 56.3943 13.9026 55.4135 13.8073 54.4249L13.8041 54.4312ZM13.5285 50.3299C13.5826 50.3518 13.6266 50.393 13.6521 50.4455L13.6774 50.5073C13.6441 50.3156 13.6061 50.1223 13.5697 49.9322C13.5618 50.0605 13.5443 50.1984 13.5285 50.3299ZM13.6267 71.1505V71.1346C13.6301 71.1874 13.6301 71.2403 13.6267 71.2931C13.6201 71.344 13.5998 71.3921 13.5681 71.4325C14.1289 71.9236 14.6469 72.4653 15.1808 72.9865C15.2029 72.9798 15.2258 72.976 15.2489 72.9754C14.6031 72.4711 14.0554 71.8526 13.633 71.1505H13.6267ZM10.7562 63.9077L10.7356 63.7493C10.7356 63.8063 10.7182 63.8633 10.7103 63.9204C10.7325 63.9172 10.7467 63.9125 10.7625 63.9077H10.7562ZM15.9047 73.3002C16.191 73.4898 16.4565 73.7091 16.6968 73.9544C16.5428 73.609 16.3324 73.2915 16.0742 73.015C16.0751 73.0736 16.0597 73.1312 16.0298 73.1816C15.9999 73.2319 15.9566 73.273 15.9047 73.3002ZM10.9938 67.9315C10.902 67.7334 10.8293 67.5271 10.7768 67.3152C10.8859 67.9899 11.0648 68.6514 11.3107 69.2891C11.1822 68.8422 11.0765 68.3891 10.9938 67.9315ZM10.7055 66.1525C10.6786 65.9148 10.6596 65.6772 10.6422 65.438C10.6422 65.7628 10.6422 66.0875 10.6738 66.4091C10.677 66.3283 10.6944 66.2364 10.7024 66.1525H10.7055ZM13.2117 69.0863C13.3099 69.2923 13.4128 69.4919 13.5126 69.6946C13.82 70.1393 14.1368 70.5754 14.4631 71.0032C15.4136 71.9711 16.3784 72.9042 17.0501 73.5473C16.1281 71.8998 14.3919 70.6214 13.2117 69.0863ZM23.3693 35.2043C23.7812 35.3389 24.5447 35.7651 24.8822 35.4102C25.161 35.1187 23.9111 33.0086 23.7447 32.7172C23.0008 31.4482 22.1874 30.2213 21.3083 29.0419C19.4342 26.4724 17.1087 24.5144 14.2762 23.2518C16.8109 25.8229 17.8913 29.4934 20.6667 31.8791C20.7966 31.9916 20.6065 32.1801 20.4766 32.0676C17.5839 29.5789 16.5384 25.6898 13.755 23.1156C14.7293 24.714 15.2584 26.4866 15.9079 28.2799C17.2544 32.0011 19.6386 33.9845 23.3693 35.2043ZM6.46313 33.6201C6.01656 35.7179 5.82771 37.8623 5.90076 40.0059C5.92611 41.1148 6.01165 42.2237 6.1368 43.3231C6.16848 43.613 6.29522 46.2902 6.68967 46.6166C7.08413 46.9429 9.4968 42.4138 9.74393 41.8641C10.5062 40.1072 11.0787 38.274 11.4517 36.3956C12.1297 33.1053 12.2786 29.7421 12.2944 26.39C11.8968 28.1674 11.2235 29.8752 10.5423 31.6177C9.30987 34.7639 8.66829 37.8958 8.2168 41.2384C8.19462 41.4079 7.93641 41.335 7.95858 41.1671C8.37205 38.1112 8.90116 35.1647 10.0006 32.2736C10.9511 29.796 11.9903 27.4276 12.2944 24.8169V23.8664L12.2707 23.7429C9.24017 26.2664 7.32175 29.7833 6.46313 33.6201Z" fill="#8D7A33"/>
</g>
<defs>
<clipPath id="clip0_508_863">
<rect width="150" height="152.071" fill="white" transform="matrix(0 1 -1 0 152 0)"/>
</clipPath>
</defs>
</svg>
