<svg width="152" height="150" viewBox="0 0 152 150" fill="none" xmlns="http://www.w3.org/2000/svg">
<g clip-path="url(#clip0_508_860)">
<path fill-rule="evenodd" clip-rule="evenodd" d="M137.918 140.143C134.67 139.026 131.356 138.114 127.993 137.412C128.006 137.258 128.006 137.103 127.993 136.948C127.941 136.904 127.886 136.869 127.835 136.826C126.816 133.883 125.128 131.296 122.731 129.271C120.301 127.212 117.226 124.836 114.004 124.384C113.795 124.354 113.581 124.506 113.647 124.741C114.465 127.592 115.39 130.675 117.766 132.63C120.519 134.884 124.339 135.006 127.2 137.065H127.098C127.052 137.041 127 137.029 126.947 137.029C126.894 137.029 126.843 137.041 126.796 137.065H126.162C121.868 136.268 117.514 135.831 113.147 135.757C113.137 135.71 113.112 135.666 113.077 135.633C113.041 135.6 112.997 135.579 112.949 135.572C109.327 134.868 105.831 133.46 103.84 130.231C104.247 129.983 104.759 129.656 104.827 129.206C104.917 128.616 104.306 127.835 103.903 127.362C104.255 127.621 104.499 127.938 104.898 128.303C105.357 128.725 105.791 128.796 106.395 128.57C107.225 128.253 107.239 127.816 107.534 127.103C107.89 126.239 108.157 125.962 108.676 125.436C108.955 125.154 109.237 124.983 109.367 124.589C109.92 122.935 107.829 122.396 106.644 122.526C104.928 122.711 103.475 123.713 102.192 124.842C100.957 124.128 99.6117 123.839 98.1859 123.787C97.3732 123.755 95.3661 123.458 94.7926 124.262C94.4916 124.684 94.5423 125.49 94.4758 125.967C94.395 126.61 94.0402 127.621 94.3174 128.248C94.6136 128.91 95.7336 129.23 96.5843 129.416C96.3926 129.705 96.3008 130.03 96.4909 130.366C96.7713 130.879 97.4556 130.792 97.9419 130.841C98.3983 130.863 98.8506 130.938 99.2901 131.063C99.6688 131.189 100.028 131.368 100.356 131.595C100.511 131.651 100.67 131.694 100.831 131.727C101.605 131.779 102.658 131.006 103.346 130.532C105.106 133.384 107.993 134.9 111.143 135.736C107.869 135.795 104.603 136.07 101.365 136.559C101.595 136.463 101.649 136.083 101.348 136.018L100.803 135.912C96.7321 134.173 92.3348 133.33 87.9095 133.441C87.847 133.443 87.787 133.466 87.7382 133.505C87.6893 133.544 87.6542 133.597 87.6379 133.657C87.6217 133.718 87.6251 133.782 87.6477 133.84C87.6703 133.898 87.711 133.948 87.7637 133.981C90.9358 136.028 94.6443 137.086 98.4188 137.023C95.1253 137.587 91.8493 138.277 88.5495 138.963C88.5197 138.908 88.4721 138.865 88.4145 138.841C88.3569 138.817 88.2927 138.813 88.2326 138.83L88.0916 138.86C88.0661 138.829 88.034 138.804 87.9976 138.786C87.9612 138.769 87.9213 138.759 87.8809 138.759C87.7685 138.759 87.6576 138.74 87.5467 138.734C84.9296 138.116 82.4774 137.346 80.3578 135.587C78.6564 134.179 77.1894 132.592 75.2742 131.458C75.2298 131.432 75.1797 131.419 75.1288 131.42C75.0779 131.42 75.0279 131.433 74.9837 131.459C74.9396 131.484 74.9028 131.521 74.8771 131.565C74.8514 131.609 74.8375 131.658 74.837 131.709C74.8624 132.028 74.9047 132.346 74.9637 132.66C74.9288 132.704 74.907 132.757 74.9009 132.813C74.8947 132.869 74.9044 132.926 74.9288 132.977C74.9748 133.065 75.0302 133.146 75.0793 133.232C76.1265 137.59 80.2611 139.641 84.551 139.771C80.5383 140.561 76.4785 141.09 72.3974 141.355C72.3227 141.25 72.2803 141.126 72.2754 140.997C70.267 136.904 67.4528 133.258 64.0014 130.278C60.55 127.299 56.5326 125.047 52.1898 123.657C51.9934 123.594 51.7494 123.816 51.8318 124.014C53.4429 128.061 55.168 132.319 58.6437 135.139C62.2334 138.054 66.9811 139.86 71.3471 141.401C69.9298 141.477 68.5114 141.522 67.092 141.534C67.3185 141.243 66.9114 140.829 66.6817 141.124C66.6278 141.194 66.5676 141.254 66.5122 141.322C61.7882 139.147 56.5605 138.398 51.4278 139.356C50.6049 139.513 49.7919 139.718 48.993 139.969C47.9601 139.781 46.932 139.576 45.9086 139.355C45.9086 139.355 45.9086 139.355 45.9086 139.343C46.5367 137.96 46.8445 136.452 46.8092 134.933C46.7738 133.414 46.3961 131.922 45.7042 130.569C45.6816 130.531 45.6507 130.499 45.6138 130.474C45.5769 130.45 45.5349 130.435 45.4912 130.429C45.4474 130.423 45.4029 130.428 45.361 130.442C45.3192 130.456 45.2811 130.479 45.2496 130.51C44.0536 131.578 43.8238 133.203 43.713 134.738C42.9663 132.995 42.3083 131.216 41.7391 129.403C42.4345 129.368 43.1078 129.316 43.6718 129.325C43.7485 129.325 43.822 129.294 43.8763 129.24C43.9306 129.186 43.9613 129.112 43.9617 129.035C43.9617 128.787 43.9712 128.539 43.9775 128.291C43.9817 128.226 43.9611 128.162 43.9199 128.112C43.8787 128.062 43.82 128.03 43.7557 128.021C43.7193 127.389 43.4346 126.796 42.9636 126.372C43.2995 126.144 44.3799 126.233 44.8013 126.155C45.286 126.067 45.7518 125.751 46.2666 125.68C47.0048 125.583 47.4516 125.737 48.0393 125.229C48.0752 125.192 48.101 125.147 48.1141 125.098C48.1271 125.048 48.127 124.996 48.1137 124.947C47.6829 123.104 46.2761 122.052 44.4163 121.929C42.1589 121.781 40.7854 122.429 39.732 124.432C39.7002 124.489 39.6899 124.556 39.7026 124.621C39.7154 124.686 39.7504 124.744 39.8017 124.785L39.6163 125.244C38.5674 125.211 37.5226 125.39 36.5446 125.77C36.5446 125.77 36.5446 125.762 36.5446 125.758C36.0694 124.791 36.3276 123.933 36.7157 123.014C36.8393 122.719 36.2626 122.875 36.9945 122.418C37.1387 122.328 37.663 122.48 37.8785 122.406C38.3759 122.23 38.5217 121.772 38.7735 121.368C38.8734 121.154 39.0147 120.961 39.1892 120.802C39.3638 120.643 39.5682 120.52 39.7906 120.44C40.1327 120.757 40.4739 121.077 40.8139 121.4C40.9201 121.653 40.8234 122.059 40.9343 122.35C41.0642 122.696 41.625 122.547 41.4951 122.192C41.1498 121.271 41.6535 120.14 40.3371 119.855C39.1363 119.595 38.7529 120.617 38.1288 121.341C37.4428 122.144 36.966 121.499 36.3561 122.022C36.0314 122.296 36.185 122.439 36.1217 122.779C35.8904 124.02 35.4341 124.763 36.0282 126.002C35.2472 126.417 34.642 126.982 34.406 127.706C34.3947 127.749 34.3933 127.794 34.4019 127.838C34.4106 127.881 34.4291 127.922 34.456 127.957C34.4828 127.993 34.5174 128.021 34.5571 128.041C34.5968 128.061 34.6404 128.072 34.6848 128.072C35.6908 128.083 36.9185 127.949 37.7676 128.413C38.0971 128.592 38.1763 128.947 38.6088 129.118C39.3137 129.397 40.223 129.435 41.1434 129.412C41.7801 131.435 42.5274 133.422 43.3819 135.362C43.2865 135.282 43.1871 135.206 43.084 135.136C41.8484 134.33 40.0868 134.55 38.6864 134.591C36.6825 134.628 34.6924 134.931 32.768 135.491C30.9082 134.798 29.0737 134.048 27.2646 133.24C27.2646 133.192 27.2773 133.148 27.2789 133.102C27.2799 133.052 27.2677 133.003 27.2433 132.96C27.219 132.916 27.1835 132.88 27.1405 132.855C27.0975 132.83 27.0486 132.817 26.9988 132.817C26.949 132.817 26.9002 132.831 26.8575 132.856C26.8402 132.849 26.8216 132.845 26.8028 132.845C26.784 132.845 26.7654 132.849 26.7482 132.856L26.7197 132.869C26.7285 132.843 26.7285 132.815 26.7197 132.79C26.7918 132.801 26.8656 132.785 26.9261 132.744C26.9866 132.703 27.0294 132.641 27.0457 132.569C27.062 132.498 27.0506 132.423 27.0139 132.36C26.9772 132.297 26.9179 132.25 26.848 132.229C26.8052 132.216 26.7656 132.2 26.7212 132.188C26.8797 128.492 25.0103 124.858 23.3264 121.661C21.4492 118.092 19.0492 114.886 15.6369 112.66C15.5925 112.635 15.5424 112.622 15.4915 112.622C15.4405 112.622 15.3905 112.636 15.3464 112.661C15.3023 112.687 15.2655 112.723 15.2398 112.767C15.214 112.811 15.2002 112.861 15.1996 112.912C15.1189 117.723 14.8828 122.027 17.6472 126.203C18.9545 128.181 20.6863 129.843 22.7165 131.068C18.4397 128.888 14.334 126.388 10.4345 123.589C10.7356 123.304 10.9661 122.952 11.1077 122.562C11.3216 121.84 10.8575 121.04 10.398 120.414C10.6816 120.136 11.0618 119.952 11.2377 119.538C11.5181 118.873 11.4341 117.883 11.3042 117.214C11.1885 116.622 10.9541 116.045 10.4218 115.705C9.88953 115.364 9.30339 115.526 8.74577 115.299C8.18814 115.073 7.92833 114.716 7.27249 114.689C6.70219 114.665 5.9323 114.838 5.46497 115.185C4.99763 115.532 4.88516 115.993 4.7616 116.522C4.69189 116.821 4.63646 117.126 4.57626 117.428C2.64517 117.137 -0.334641 117.374 0.14061 120.077C0.257523 120.628 0.264526 121.196 0.161209 121.75C0.131104 121.899 0.00279236 122.018 0.00279236 122.174C-0.0114746 122.569 0.0233765 122.882 0.292679 123.201C0.961197 123.993 2.21744 123.819 3.09982 123.579C3.08017 123.681 3.05263 123.781 3.01744 123.879C2.74971 124.563 2.07486 125.069 2.7117 125.812C3.30576 126.507 4.25626 126.166 4.88992 125.775C5.76279 125.235 6.17625 124.793 7.26616 124.834C7.78894 124.853 8.08041 124.956 8.61429 124.788C9.11324 124.603 9.57591 124.331 9.98141 123.987C14.2143 127.043 18.6921 129.745 23.3692 132.066C16.6713 130.895 9.93706 132.831 3.78893 135.736C3.55447 135.847 3.63051 136.202 3.85863 136.267C8.8614 137.71 14.1256 139.014 19.3676 138.336C22.1113 137.981 26.4884 136.994 27.1727 133.851C28.7337 134.544 30.312 135.193 31.9078 135.8C30.4084 136.328 29.0026 137.091 27.743 138.06C27.5212 138.233 27.7303 138.536 27.9474 138.556C30.8436 138.862 33.764 138.862 36.6603 138.556C37.5236 138.463 38.3854 138.352 39.244 138.274C42.0744 139.096 44.9333 139.791 47.8207 140.361C43.385 141.932 39.2567 144.438 34.5011 144.955C34.4319 144.957 34.3658 144.983 34.3144 145.029C34.263 145.076 34.2298 145.139 34.2207 145.207C34.2115 145.276 34.2271 145.346 34.2645 145.404C34.3019 145.462 34.3588 145.505 34.425 145.525C40.1967 147.761 46.4285 148.547 52.5747 147.816C57.3985 147.229 63.149 145.915 66.5534 142.16C70.6026 142.153 74.6471 141.883 78.6611 141.351C79.7405 141.206 80.814 141.041 81.8817 140.856C80.6368 141.624 79.5545 142.628 78.696 143.812C78.7117 143.756 78.7058 143.695 78.6795 143.643C78.6531 143.591 78.6082 143.55 78.5534 143.529C76.993 142.795 74.8195 142.677 73.1562 143.182C72.0282 143.526 72.8504 144.924 73.3764 145.827C72.4956 146.276 71.5783 146.882 71.4896 147.728C71.4905 147.805 71.5213 147.878 71.5754 147.933C71.6296 147.987 71.7029 148.018 71.7795 148.018C72.1455 148.018 73.3764 147.797 73.7043 148.018C74.0797 148.269 73.7851 148.364 73.9577 148.503C74.3443 148.82 74.2096 148.829 74.7229 149.046C74.8639 149.041 75.0046 149.028 75.1443 149.008C75.6152 148.944 76.0947 148.99 76.5447 149.143C76.7617 149.206 76.936 149.46 77.1562 149.536C78.0259 149.853 79.1443 150.117 80.0774 149.946C81.0564 149.769 81.4778 149.054 81.4667 148.115C82.6828 147.695 83.7881 147.006 84.6999 146.098C84.754 146.044 84.7844 145.97 84.7844 145.893C84.7844 145.816 84.754 145.743 84.6999 145.688C84.418 145.417 84.2247 145.515 83.8936 145.398C83.2774 145.183 82.9605 144.53 82.376 144.239C81.359 143.733 80.2231 143.922 79.1554 144.158C80.097 142.843 81.3257 141.759 82.7483 140.989C82.805 140.962 82.8493 140.914 82.8725 140.855C82.8957 140.797 82.896 140.731 82.8734 140.673C88.1011 139.722 93.2703 138.426 98.5027 137.504C96.5305 138.254 94.8275 139.393 93.4588 141.409C93.431 141.459 93.4184 141.516 93.4226 141.573C93.4268 141.629 93.4475 141.684 93.4822 141.729C93.5169 141.774 93.5641 141.808 93.6179 141.827C93.6718 141.845 93.7299 141.848 93.7851 141.834C97.4635 140.815 101.547 140.074 104.095 136.974C104.134 136.926 104.156 136.867 104.16 136.806C104.194 136.771 104.218 136.729 104.231 136.682C104.849 136.617 105.468 136.56 106.091 136.516C111.623 136.117 117.183 136.306 122.675 137.08C115.388 137.224 108.017 138.203 102.351 143.231C102.315 143.267 102.29 143.312 102.277 143.361C102.264 143.41 102.264 143.461 102.277 143.51C102.29 143.559 102.315 143.604 102.351 143.64C102.386 143.676 102.43 143.702 102.479 143.716C111.065 145.322 120.977 145.103 126.9 137.789C130.585 138.508 134.215 139.481 137.765 140.703C138.118 140.825 138.27 140.264 137.923 140.143M107.143 123.069C107.614 123.646 108.083 124.223 108.549 124.801C108.336 124.97 108.114 125.137 107.892 125.311C107.631 125.533 107.396 125.784 107.193 126.06C107.095 126.187 107.138 126.407 107.035 126.536C107.007 126.572 105.308 127.747 105.183 127.711C104.949 127.643 104.602 127.077 104.336 126.906C103.738 126.546 103.071 126.314 102.379 126.225C102.165 126.147 101.942 126.094 101.715 126.067C102.889 124.947 104.182 123.784 105.75 123.315C106.105 123.202 106.812 122.952 107.143 123.069ZM99.6782 130.597C99.2759 130.459 98.8593 130.366 98.4362 130.32C97.8675 130.244 97.0913 130.479 97.3273 129.552C97.3792 129.549 97.4295 129.533 97.4734 129.506C97.5173 129.478 97.5533 129.439 97.5779 129.393C97.6024 129.348 97.6147 129.296 97.6136 129.244C97.6124 129.192 97.5978 129.142 97.5713 129.097C97.8627 128.806 98.3728 128.501 98.6136 128.305C99.298 127.746 100.008 127.22 100.732 126.711C101.034 126.499 100.744 125.995 100.439 126.211C99.3657 126.94 98.3413 127.738 97.3717 128.6C97.2687 128.695 97.1467 128.801 97.0247 128.917C96.1709 128.75 95.0065 128.492 94.8465 127.637C94.6231 126.425 95.2774 124.619 96.5194 124.381C98.1764 124.064 100.239 124.449 101.733 125.254C101.457 125.507 101.186 125.762 100.925 126.013C100.888 126.045 100.862 126.088 100.849 126.136C100.836 126.183 100.837 126.234 100.852 126.28C100.842 126.363 100.865 126.447 100.916 126.513C100.967 126.579 101.042 126.623 101.125 126.634C101.368 126.656 101.614 126.681 101.86 126.713C102.758 127.02 104.161 127.941 104.146 128.837C104.146 129.186 103.829 129.495 103.512 129.742C103.464 129.709 103.406 129.69 103.348 129.69C103.289 129.69 103.231 129.707 103.183 129.739C103.134 129.772 103.096 129.818 103.074 129.873C103.052 129.927 103.046 129.987 103.059 130.044C102.992 130.087 102.927 130.125 102.872 130.159C101.768 130.837 100.942 131.066 99.6782 130.597ZM40.4068 124.836C40.4297 124.789 40.4354 124.735 40.423 124.684C40.4106 124.633 40.3807 124.588 40.3387 124.557C41.1561 123.117 42.2397 122.483 43.949 122.51C44.9391 122.526 45.8928 122.669 46.6421 123.388C47.347 124.059 47.8634 124.798 46.669 125.118C46.3379 125.205 45.9435 125.065 45.5965 125.151C45.0864 125.276 44.8456 125.45 44.2927 125.511C43.5751 125.591 42.9827 125.409 42.4868 126.016C41.7951 125.603 41.019 125.353 40.2167 125.282C40.2848 125.13 40.3466 124.98 40.4068 124.836ZM39.911 128.692C39.1601 128.57 38.6658 128.085 38.0401 127.792C37.1941 127.396 36.1264 127.484 35.149 127.51C35.8254 126.428 37.7185 125.826 39.5054 125.842C39.5341 125.875 39.5693 125.902 39.6088 125.92C39.6484 125.939 39.6914 125.95 39.7352 125.951C39.7789 125.952 39.8225 125.944 39.8631 125.928C39.9037 125.912 39.9405 125.887 39.9712 125.856C41.6456 125.975 43.1062 126.662 43.1791 128.048C43.1817 128.108 43.203 128.165 43.24 128.211C43.277 128.257 43.3278 128.291 43.385 128.307C43.3454 129.099 41.9181 128.717 41.2702 128.706C40.8393 128.699 40.3434 128.755 39.911 128.685V128.692ZM18.1462 125.932C15.9379 122.605 15.5545 119.049 15.7113 115.141C15.7668 113.731 15.4436 113.103 16.9787 114.349C17.6908 114.93 18.3566 115.565 18.9699 116.25C20.185 117.629 21.2522 119.132 22.1541 120.734C24.0377 124.028 26.2761 128.104 26.1557 132.023L25.9973 131.972C23.1479 128.764 20.8412 125.112 19.168 121.16C19.1014 121.002 18.8701 121.14 18.9367 121.297C20.5572 125.117 22.7664 128.66 25.484 131.797C22.4854 130.656 19.9193 128.605 18.1462 125.932ZM5.31447 116.677C5.6313 115.85 6.31091 115.168 7.26616 115.269C8.05824 115.355 7.78735 115.656 8.28319 115.839C9.66141 116.345 10.5929 115.806 10.7957 117.937C10.8812 118.824 10.745 119.137 10.162 119.879C10.1272 119.923 10.0971 119.957 10.0701 119.985C9.21626 118.941 7.57507 119.388 6.36636 119.413C6.31097 119.416 6.25748 119.434 6.21191 119.466C6.16635 119.497 6.13051 119.541 6.10844 119.592C6.08638 119.643 6.07896 119.699 6.08702 119.754C6.09508 119.809 6.1183 119.86 6.15408 119.903C5.64836 119.879 5.14204 119.933 4.6523 120.061C4.66225 120.044 4.66971 120.026 4.67447 120.007C4.87566 118.951 4.93587 117.686 5.31923 116.677H5.31447ZM0.799606 121.77C0.864563 121.409 0.939011 121.213 0.89624 120.842C0.782181 119.869 0.449524 119.069 1.31764 118.331C2.162 117.615 3.45151 117.824 4.45427 117.991C4.33862 118.615 4.22615 119.237 4.10417 119.857C4.09 119.927 4.10181 119.999 4.13739 120.061C4.17296 120.123 4.22987 120.17 4.29744 120.193C3.99261 120.326 3.72427 120.531 3.51486 120.79C2.99368 121.449 3.16318 122.238 3.15367 123.008C3.10214 122.991 3.0468 122.991 2.99525 123.008C1.95129 123.299 0.50972 123.399 0.804367 121.77H0.799606ZM5.9323 124.332C4.96121 124.731 5.23843 125.151 4.01704 124.875C2.59129 124.558 3.54179 124.5 3.80952 123.592C3.89348 123.294 3.79843 123.02 3.82852 122.737C3.78275 122.541 3.78629 122.338 3.83884 122.144C3.89139 121.951 3.99127 121.773 4.12952 121.628C4.11844 120.929 4.42101 120.59 5.04201 120.611C5.56477 120.429 6.04636 120.47 6.58813 120.492C6.90497 120.506 6.94774 120.101 6.7323 119.961C7.38972 119.901 8.24992 119.763 8.76161 119.941C9.09082 120.054 9.39139 120.238 9.6424 120.479C9.62727 120.528 9.6246 120.58 9.63461 120.63C9.64464 120.68 9.66702 120.727 9.69975 120.767C9.73248 120.806 9.77452 120.837 9.82204 120.856C9.86957 120.874 9.92108 120.881 9.97191 120.875C10.1839 121.201 10.301 121.579 10.31 121.968C10.3189 122.356 10.2194 122.739 10.0226 123.074C9.98369 123.139 9.94138 123.202 9.89586 123.263C9.82034 123.269 9.75037 123.305 9.70091 123.362C9.65147 123.42 9.62648 123.494 9.63132 123.57C8.6523 124.465 7.09508 123.854 5.9323 124.332ZM24.928 132.189C25.3193 132.348 25.7201 132.492 26.1193 132.622C26.1193 132.654 26.1193 132.685 26.1082 132.719L26.0005 132.687C25.6424 132.52 25.2844 132.359 24.928 132.189ZM15.423 137.908C11.7953 137.762 8.25151 136.902 4.7711 135.917C11.4135 132.88 18.6943 131.08 25.861 133.252C21.5189 134.984 16.7759 134.884 12.1818 135.47C12.0139 135.492 12.0107 135.76 12.1818 135.738C16.8773 135.138 21.7026 135.237 26.1224 133.428C26.1625 133.473 26.2145 133.505 26.2723 133.521C26.33 133.538 26.3913 133.537 26.4488 133.52L26.6072 133.595C25.9482 137.68 18.5137 138.032 15.4309 137.908H15.423ZM38.9272 136.771C39.5023 136.655 40.0757 136.528 40.6492 136.399H40.6729C40.9438 136.456 41.2163 136.506 41.4856 136.565C40.7516 136.59 40.0198 136.662 39.2947 136.779C39.1807 136.774 39.0571 136.774 38.9351 136.771H38.9272ZM33.0436 137.021H32.9708L33.05 136.997C33.0497 137.005 33.0502 137.013 33.0516 137.021H33.0436ZM32.6698 137.189C32.4575 137.221 32.2436 137.256 32.0361 137.294C32.2769 137.232 32.5113 137.159 32.7506 137.088C32.7174 137.115 32.6922 137.151 32.6777 137.192L32.6698 137.189ZM45.4539 137.785C45.5046 137.614 45.5569 137.442 45.5981 137.273C45.587 137.45 45.5617 137.629 45.5458 137.808C45.5237 137.8 45.492 137.794 45.4619 137.785H45.4539ZM44.806 136.547C44.7049 135.794 44.7092 135.03 44.8187 134.277C44.8197 135.035 44.8171 135.791 44.8108 136.547H44.806ZM31.3771 137.441L31.4309 137.43C31.3902 137.453 31.3566 137.486 31.334 137.527C31.3113 137.568 31.3005 137.614 31.3026 137.661L30.7498 137.645L31.3771 137.441ZM45.4555 131.434C45.4178 131.446 45.3824 131.465 45.351 131.489C45.3253 131.453 45.2895 131.426 45.248 131.41C45.2876 131.351 45.3256 131.286 45.3684 131.234C45.4064 131.301 45.4349 131.369 45.4634 131.434H45.4555ZM28.8583 138.03H28.7981L28.8424 138.002C28.8449 138.011 28.848 138.021 28.8519 138.03H28.8583ZM44.212 138.737C44.2796 138.838 44.3525 138.936 44.4306 139.03C43.3143 138.77 42.2011 138.49 41.0912 138.19C42.1535 138.187 43.208 138.372 44.2056 138.737H44.212ZM46.2175 136.002C46.2175 135.223 46.1985 134.447 46.1256 133.671C46.2514 134.441 46.2802 135.225 46.2112 136.002H46.2175ZM44.3165 133.785C44.2027 134.422 44.1496 135.07 44.1581 135.717L44.1042 135.597C44.1184 134.988 44.1895 134.381 44.3165 133.785ZM40.5953 135.069C39.7462 135.017 38.9082 134.997 38.0733 135.017C38.9134 134.943 39.759 134.961 40.5953 135.069ZM34.3727 135.689C34.37 135.725 34.3738 135.761 34.3838 135.795L33.9624 135.942L33.7549 135.868C33.9593 135.806 34.1652 135.746 34.3727 135.689ZM33.1054 136.245C32.8599 136.329 32.6143 136.421 32.3672 136.505C31.8587 136.635 31.3533 136.785 30.8464 136.94C31.4706 136.661 32.1502 136.397 32.863 136.148L33.1054 136.245ZM54.8021 129.311C54.2017 128.181 53.6805 127.012 53.1878 125.826C52.7363 124.745 52.1613 124.208 53.6377 124.75C61.1039 127.499 67.3011 133.012 71.0983 139.958L59.0033 129.919C58.8718 129.81 58.6864 129.997 58.8132 130.108C63.0144 133.593 67.215 137.078 71.4152 140.563L71.5736 140.856C67.2061 139.318 62.3189 137.503 58.7815 134.494C57.0959 133.073 55.8302 131.244 54.8021 129.311ZM65.1894 141.374C64.3657 141.401 63.5424 141.435 62.7197 141.477C58.5514 141.325 54.3975 140.901 50.284 140.21C55.2513 139.021 60.4671 139.428 65.1894 141.374ZM51.0254 147.394C45.831 147.791 40.611 147.097 35.7003 145.359C40.2943 144.54 44.2769 142.059 48.7046 140.644C48.7934 140.617 48.8821 140.595 48.9692 140.566C50.6468 140.874 52.3292 141.148 54.0227 141.366C55.4104 141.547 56.806 141.683 58.2017 141.804C52.7874 142.285 47.41 143.118 42.1034 144.296C41.9355 144.334 42.0068 144.592 42.1747 144.554C47.9838 143.263 53.8776 142.387 59.8112 141.935C61.7914 142.069 63.7737 142.142 65.7581 142.154C62.0876 145.807 55.9522 147 51.0254 147.393V147.394ZM73.5205 144.66C73.4366 144.438 73.1831 143.987 73.3257 143.749C73.4286 143.572 74.3997 143.602 74.5708 143.591C75.8381 143.462 77.0976 143.489 78.2746 144.042C78.3214 144.065 78.3735 144.075 78.4254 144.07C78.4773 144.066 78.527 144.047 78.5692 144.017C78.4473 144.193 78.311 144.357 78.197 144.541C78.1882 144.561 78.1807 144.582 78.1748 144.603C76.9185 144.489 75.6972 144.752 74.4837 145.322C74.3253 145.398 74.1336 145.481 73.9356 145.576C73.7803 145.271 73.633 144.967 73.5142 144.658L73.5205 144.66ZM79.5609 149.381C78.6104 149.818 77.3985 148.738 76.6413 148.452C75.911 148.178 75.1126 148.045 74.4457 147.757C74.2983 147.694 74.216 147.529 74.0496 147.481C73.834 147.446 73.6153 147.433 73.397 147.442C72.8916 147.415 72.4829 147.675 72.6049 147.223C72.6904 146.906 73.153 146.599 73.6631 146.331C73.6627 146.335 73.6627 146.34 73.6631 146.344C73.8215 146.67 74.2841 146.406 74.1716 146.082C74.5312 145.924 74.8623 145.789 75.0445 145.712C76.0992 145.242 77.2621 145.07 78.4077 145.213C78.4205 145.256 78.4443 145.296 78.4767 145.328C78.5092 145.36 78.5492 145.383 78.593 145.395C79.3548 145.616 80.0173 146.092 80.4687 146.745L80.8393 147.629L79.5609 149.381ZM82.8306 145.357C82.9891 145.536 83.0968 145.753 83.3201 145.87C83.496 145.962 83.751 145.951 83.9728 145.98C83.2244 146.656 82.3524 147.181 81.4049 147.527C81.2021 146.537 80.5447 145.758 79.6956 145.257C79.7139 145.22 79.7239 145.179 79.7248 145.138C79.7258 145.096 79.7177 145.055 79.7011 145.017C79.6845 144.979 79.6598 144.945 79.6288 144.918C79.5977 144.89 79.5611 144.87 79.5213 144.858C79.393 144.82 79.2647 144.793 79.138 144.761C80.4702 144.454 81.8104 144.24 82.8306 145.357ZM100.773 137.585C100.741 137.546 100.699 137.516 100.652 137.499C100.604 137.481 100.553 137.476 100.504 137.484C100.92 137.373 101.345 137.273 101.771 137.18L100.773 137.585ZM97.7629 140.085C97.8421 140.085 97.9214 140.067 97.9942 140.061C97.7376 140.145 97.481 140.22 97.2212 140.3C97.4049 140.229 97.5903 140.159 97.7693 140.085H97.7629ZM101.02 138.659L101.473 138.453L101.505 138.48C101.188 138.683 100.858 138.868 100.521 139.039C100.693 138.917 100.862 138.79 101.026 138.658L101.02 138.659ZM95.5689 136.124C95.8303 136.22 96.0948 136.299 96.361 136.373C95.0982 136.256 93.8511 136.007 92.6398 135.632C93.6058 135.862 94.5866 136.026 95.5752 136.121L95.5689 136.124ZM99.6703 136.4C99.6483 136.346 99.6071 136.302 99.5546 136.277L99.4928 136.251C99.6845 136.284 99.8778 136.322 100.068 136.359C99.9396 136.367 99.8018 136.384 99.6703 136.4ZM78.8496 136.302H78.8655C78.8127 136.298 78.7598 136.298 78.7071 136.302C78.6562 136.309 78.608 136.329 78.5677 136.36C78.0766 135.8 77.5348 135.282 77.0136 134.748C77.0204 134.726 77.0241 134.703 77.0247 134.68C77.529 135.325 78.1476 135.873 78.8496 136.296V136.302ZM86.0924 139.172L86.2508 139.193C86.1938 139.193 86.1368 139.21 86.0798 139.218C86.0829 139.196 86.0877 139.182 86.0924 139.166V139.172ZM76.6999 134.024C76.5103 133.738 76.291 133.472 76.0457 133.232C76.3912 133.386 76.7086 133.596 76.9851 133.854C76.9265 133.853 76.8689 133.869 76.8186 133.899C76.7682 133.929 76.7272 133.972 76.6999 134.024ZM82.0687 138.935C82.2667 139.027 82.473 139.099 82.6849 139.152C82.0102 139.043 81.3487 138.864 80.711 138.618C81.1579 138.746 81.6111 138.852 82.0687 138.935ZM83.8477 139.223C84.0853 139.25 84.3229 139.269 84.5621 139.286C84.2374 139.286 83.9126 139.286 83.591 139.255C83.6718 139.252 83.7637 139.234 83.8477 139.226V139.223ZM80.9138 136.717C80.7079 136.619 80.5083 136.516 80.3055 136.416C79.8609 136.109 79.4247 135.792 78.997 135.465C78.029 134.515 77.096 133.55 76.4528 132.879C78.1003 133.8 79.3787 135.537 80.9138 136.717ZM114.796 126.559C114.661 126.147 114.235 125.384 114.59 125.046C114.881 124.768 116.991 126.018 117.283 126.184C118.552 126.928 119.779 127.741 120.958 128.62C123.528 130.494 125.486 132.82 126.748 135.652C124.177 133.118 120.507 132.037 118.121 129.262C118.009 129.132 117.82 129.322 117.932 129.452C120.421 132.345 124.31 133.39 126.885 136.174C125.286 135.199 123.513 134.67 121.72 134.021C117.999 132.674 116.016 130.29 114.796 126.559ZM116.38 143.465C114.282 143.912 112.138 144.101 109.994 144.028C108.885 144.002 107.776 143.917 106.677 143.792C106.387 143.76 103.71 143.633 103.384 143.239C103.057 142.844 107.586 140.432 108.136 140.185C109.893 139.422 111.726 138.85 113.605 138.477C116.895 137.799 120.258 137.65 123.61 137.634C121.833 138.032 120.125 138.705 118.382 139.386C115.236 140.619 112.104 141.26 108.762 141.712C108.592 141.734 108.665 141.992 108.833 141.97C111.889 141.557 114.835 141.027 117.727 139.928C120.204 138.978 122.572 137.938 125.183 137.634H126.134L126.257 137.658C123.734 140.688 120.217 142.607 116.38 143.465Z" fill="#8D7A33"/>
<path fill-rule="evenodd" clip-rule="evenodd" d="M142.215 137.918C141.097 134.67 140.185 131.356 139.484 127.993C139.329 128.006 139.174 128.006 139.02 127.993C138.975 127.941 138.94 127.886 138.898 127.835C135.954 126.816 133.367 125.128 131.343 122.731C129.283 120.301 126.907 117.226 126.456 114.004C126.426 113.795 126.578 113.581 126.812 113.647C129.664 114.465 132.746 115.39 134.701 117.766C136.955 120.519 137.077 124.339 139.137 127.2V127.098C139.113 127.052 139.1 127 139.1 126.947C139.1 126.894 139.113 126.842 139.137 126.796V126.162C138.34 121.867 137.902 117.514 137.828 113.147C137.781 113.136 137.738 113.112 137.705 113.077C137.672 113.041 137.65 112.997 137.643 112.949C136.94 109.327 135.531 105.831 132.303 103.84C132.054 104.247 131.728 104.758 131.278 104.827C130.687 104.917 129.906 104.305 129.434 103.903C129.692 104.255 130.009 104.499 130.375 104.898C130.796 105.357 130.868 105.791 130.641 106.395C130.324 107.225 129.887 107.239 129.174 107.534C128.311 107.89 128.033 108.156 127.508 108.676C127.226 108.955 127.054 109.237 126.66 109.367C125.006 109.92 124.468 107.829 124.597 106.644C124.783 104.928 125.784 103.475 126.913 102.192C126.199 100.956 125.911 99.6115 125.858 98.1858C125.827 97.3731 125.529 95.366 126.334 94.7925C126.755 94.4915 127.561 94.5422 128.038 94.4757C128.681 94.3949 129.692 94.04 130.319 94.3173C130.982 94.6135 131.302 95.7335 131.487 96.5842C131.777 96.3925 132.102 96.3006 132.437 96.4907C132.951 96.7711 132.864 97.4555 132.913 97.9418C132.935 98.3982 133.009 98.8505 133.134 99.2899C133.261 99.6687 133.44 100.028 133.667 100.356C133.722 100.511 133.766 100.67 133.798 100.831C133.851 101.604 133.077 102.658 132.604 103.345C135.455 105.105 136.971 107.993 137.808 111.143C137.866 107.869 138.141 104.603 138.63 101.365C138.535 101.595 138.155 101.649 138.09 101.348L137.984 100.803C136.245 96.732 135.402 92.3347 135.512 87.9093C135.515 87.8469 135.537 87.7869 135.576 87.7381C135.615 87.6892 135.668 87.6541 135.729 87.6378C135.789 87.6215 135.853 87.625 135.911 87.6476C135.97 87.6702 136.019 87.7109 136.052 87.7636C138.099 90.9357 139.158 94.6441 139.094 98.4187C139.658 95.1252 140.349 91.8491 141.035 88.5493C140.98 88.5196 140.937 88.472 140.912 88.4144C140.888 88.3567 140.884 88.2926 140.902 88.2325L140.932 88.0915C140.9 88.066 140.875 88.0339 140.858 87.9974C140.84 87.961 140.831 87.9212 140.83 87.8808C140.83 87.7683 140.811 87.6575 140.805 87.5466C140.187 84.9295 139.417 82.4772 137.659 80.3576C136.251 78.6563 134.663 77.1893 133.529 75.2741C133.504 75.2297 133.491 75.1796 133.491 75.1287C133.491 75.0777 133.505 75.0277 133.53 74.9836C133.556 74.9395 133.592 74.9027 133.636 74.877C133.68 74.8512 133.73 74.8374 133.781 74.8368C134.1 74.8623 134.417 74.9046 134.731 74.9636C134.776 74.9287 134.829 74.9069 134.885 74.9008C134.941 74.8946 134.997 74.9043 135.048 74.9287C135.137 74.9747 135.218 75.0301 135.303 75.0792C139.661 76.1263 141.713 80.261 141.843 84.5509C142.633 80.5382 143.162 76.4784 143.427 72.3972C143.322 72.3225 143.197 72.2801 143.069 72.2752C138.975 70.2669 135.329 67.4527 132.35 64.0013C129.37 60.5499 127.118 56.5324 125.729 52.1897C125.665 51.9932 125.887 51.7493 126.085 51.8317C130.132 53.4427 134.391 55.1679 137.211 58.6435C140.125 62.2333 141.931 66.981 143.473 71.3469C143.549 69.9296 143.593 68.5113 143.606 67.0919C143.314 67.3184 142.901 66.9113 143.195 66.6816C143.265 66.6277 143.325 66.5675 143.393 66.5121C141.218 61.7881 140.469 56.5604 141.428 51.4277C141.584 50.6048 141.789 49.7918 142.041 48.9928C141.853 47.96 141.648 46.9318 141.426 45.9085C141.426 45.9085 141.426 45.9085 141.415 45.9085C140.031 46.5366 138.523 46.8444 137.004 46.809C135.485 46.7737 133.993 46.396 132.64 45.7041C132.602 45.6815 132.57 45.6506 132.546 45.6137C132.522 45.5768 132.506 45.5348 132.5 45.491C132.495 45.4473 132.499 45.4028 132.513 45.3609C132.527 45.3191 132.551 45.281 132.582 45.2495C133.649 44.0534 135.275 43.8237 136.81 43.7128C135.066 42.9662 133.288 42.3082 131.474 41.739C131.439 42.4344 131.387 43.1077 131.397 43.6716C131.396 43.7484 131.366 43.8219 131.311 43.8762C131.257 43.9304 131.184 43.9611 131.107 43.9615C130.858 43.9615 130.611 43.971 130.362 43.9774C130.298 43.9815 130.234 43.9609 130.184 43.9197C130.134 43.8785 130.101 43.8199 130.093 43.7556C129.46 43.7192 128.868 43.4345 128.444 42.9635C128.216 43.2994 128.304 44.3798 128.227 44.8011C128.138 45.2859 127.823 45.7516 127.751 46.2665C127.655 47.0047 127.809 47.4514 127.3 48.0392C127.264 48.0751 127.218 48.1009 127.169 48.114C127.119 48.127 127.067 48.1269 127.018 48.1136C125.176 47.6827 124.124 46.276 124 44.4162C123.853 42.1588 124.501 40.7853 126.503 39.7318C126.561 39.7001 126.628 39.6897 126.692 39.7025C126.757 39.7152 126.815 39.7503 126.856 39.8015L127.316 39.6162C127.282 38.5673 127.461 37.5225 127.842 36.5445C127.842 36.5445 127.834 36.5445 127.829 36.5445C126.863 36.0693 126.004 36.3275 125.085 36.7156C124.791 36.8392 124.946 36.2625 124.49 36.9944C124.399 37.1386 124.551 37.6629 124.477 37.8784C124.301 38.3758 123.843 38.5215 123.439 38.7734C123.225 38.8733 123.033 39.0145 122.874 39.1891C122.714 39.3637 122.591 39.568 122.511 39.7904C122.828 40.1326 123.148 40.4737 123.471 40.8138C123.725 40.92 124.13 40.8233 124.422 40.9342C124.767 41.0641 124.618 41.6249 124.263 41.495C123.343 41.1497 122.212 41.6534 121.927 40.337C121.667 39.1362 122.689 38.7528 123.412 38.1287C124.216 37.4427 123.571 36.9659 124.094 36.356C124.368 36.0312 124.51 36.1849 124.851 36.1215C126.091 35.8902 126.834 35.434 128.073 36.0281C128.488 35.2471 129.054 34.6419 129.778 34.4059C129.821 34.3945 129.865 34.3932 129.909 34.4018C129.952 34.4105 129.993 34.4289 130.029 34.4558C130.064 34.4827 130.093 34.5173 130.113 34.557C130.133 34.5966 130.143 34.6403 130.144 34.6847C130.155 35.6906 130.02 36.9184 130.484 37.7675C130.663 38.097 131.018 38.1762 131.189 38.6087C131.468 39.3136 131.506 40.2229 131.484 41.1433C133.507 41.78 135.493 42.5273 137.434 43.3817C137.353 43.2864 137.278 43.187 137.207 43.0839C136.401 41.8483 136.621 40.0867 136.662 38.6863C136.7 36.6824 137.002 34.6922 137.562 32.7679C136.869 30.9081 136.119 29.0736 135.311 27.2645C135.264 27.2645 135.219 27.2772 135.173 27.2787C135.124 27.2798 135.074 27.2675 135.031 27.2432C134.988 27.2189 134.951 27.1834 134.926 27.1404C134.901 27.0974 134.888 27.0485 134.888 26.9987C134.889 26.9489 134.902 26.9001 134.928 26.8574C134.92 26.8401 134.917 26.8215 134.917 26.8027C134.917 26.7839 134.92 26.7653 134.928 26.748L134.94 26.7195C134.915 26.7283 134.887 26.7283 134.861 26.7195C134.873 26.7917 134.856 26.8655 134.815 26.926C134.774 26.9865 134.712 27.0292 134.641 27.0455C134.57 27.0618 134.495 27.0505 134.432 27.0138C134.368 26.9771 134.322 26.9178 134.3 26.8478C134.288 26.8051 134.272 26.7655 134.259 26.7211C130.563 26.8795 126.929 25.0102 123.732 23.3263C120.163 21.449 116.957 19.049 114.731 15.6367C114.706 15.5924 114.693 15.5423 114.693 15.4913C114.694 15.4404 114.707 15.3904 114.732 15.3463C114.758 15.3021 114.794 15.2654 114.838 15.2397C114.882 15.2139 114.932 15.2001 114.983 15.1995C119.794 15.1187 124.098 14.8827 128.274 17.647C130.252 18.9544 131.914 20.6861 133.139 22.7164C130.96 18.4396 128.46 14.3339 125.66 10.4344C125.375 10.7355 125.024 10.966 124.634 11.1076C123.911 11.3215 123.111 10.8573 122.486 10.3979C122.207 10.6815 122.023 11.0617 121.61 11.2375C120.944 11.5179 119.954 11.434 119.286 11.3041C118.693 11.1884 118.117 10.954 117.776 10.4217C117.435 9.8894 117.597 9.30327 117.37 8.74565C117.144 8.18802 116.788 7.92821 116.761 7.27237C116.737 6.70207 116.909 5.93217 117.256 5.46484C117.603 4.99751 118.064 4.88504 118.593 4.76147C118.893 4.69177 119.197 4.63634 119.5 4.57614C119.208 2.64505 119.446 -0.334763 122.148 0.140488C122.699 0.257401 123.268 0.264404 123.821 0.161087C123.97 0.130981 124.089 0.00267029 124.246 0.00267029C124.64 -0.0115967 124.954 0.0232544 125.272 0.292557C126.064 0.961075 125.89 2.21732 125.651 3.0997C125.753 3.08005 125.853 3.05251 125.95 3.01732C126.635 2.74959 127.14 2.07474 127.883 2.71158C128.578 3.30563 128.238 4.25613 127.847 4.8898C127.306 5.76266 126.864 6.17613 126.906 7.26604C126.925 7.78882 127.028 8.08029 126.86 8.61417C126.674 9.11311 126.403 9.57579 126.058 9.98129C129.115 14.2142 131.817 18.692 134.137 23.369C132.967 16.6712 134.902 9.93694 137.808 3.7888C137.919 3.55435 138.273 3.63039 138.338 3.85851C139.782 8.86128 141.085 14.1255 140.407 19.3674C140.052 22.1112 139.066 26.4882 135.923 27.1726C136.615 28.7335 137.265 30.3119 137.871 31.9077C138.399 30.4083 139.162 29.0024 140.132 27.7429C140.304 27.5211 140.607 27.7302 140.628 27.9473C140.933 30.8435 140.933 33.7639 140.628 36.6601C140.534 37.5235 140.423 38.3853 140.346 39.2439C141.167 42.0743 141.863 44.9332 142.432 47.8206C144.003 43.3849 146.51 39.2566 147.026 34.5009C147.028 34.4318 147.055 34.3656 147.101 34.3143C147.147 34.2629 147.21 34.2297 147.279 34.2206C147.347 34.2114 147.417 34.227 147.475 34.2644C147.533 34.3018 147.576 34.3587 147.596 34.4249C149.832 40.1966 150.618 46.4284 149.887 52.5746C149.301 57.3984 147.986 63.1489 144.232 66.5533C144.225 70.6025 143.954 74.6469 143.422 78.661C143.277 79.7403 143.113 80.8139 142.928 81.8816C143.695 80.6367 144.7 79.5543 145.884 78.6959C145.827 78.7116 145.767 78.7057 145.714 78.6793C145.662 78.653 145.621 78.608 145.6 78.5533C144.867 76.9929 144.748 74.8194 145.253 73.156C145.597 72.0281 146.996 72.8503 147.899 73.3762C148.347 72.4955 148.954 71.5782 149.8 71.4895C149.876 71.4903 149.95 71.5211 150.004 71.5753C150.058 71.6295 150.089 71.7028 150.09 71.7794C150.09 72.1453 149.868 73.3762 150.09 73.7042C150.34 74.0796 150.435 73.785 150.574 73.9576C150.891 74.3442 150.901 74.2095 151.118 74.7228C151.112 74.8638 151.1 75.0044 151.08 75.1442C151.015 75.6151 151.061 76.0946 151.214 76.5446C151.278 76.7616 151.531 76.9358 151.607 77.156C151.924 78.0258 152.189 79.1442 152.018 80.0772C151.84 81.0563 151.126 81.4776 150.186 81.4666C149.767 82.6827 149.077 83.788 148.17 84.6998C148.115 84.7539 148.041 84.7842 147.965 84.7842C147.888 84.7842 147.814 84.7539 147.759 84.6998C147.489 84.4178 147.587 84.2246 147.47 83.8935C147.254 83.2772 146.601 82.9604 146.31 82.3759C145.805 81.3588 145.993 80.223 146.229 79.1553C144.914 80.0969 143.831 81.3256 143.061 82.7481C143.033 82.8049 142.985 82.8492 142.927 82.8724C142.868 82.8956 142.803 82.8959 142.744 82.8733C141.793 88.101 140.498 93.2701 139.576 98.5026C140.325 96.5303 141.464 94.8274 143.481 93.4586C143.53 93.4309 143.587 93.4183 143.644 93.4225C143.701 93.4266 143.755 93.4474 143.8 93.4821C143.845 93.5168 143.879 93.564 143.898 93.6178C143.917 93.6717 143.919 93.7298 143.905 93.785C142.887 97.4634 142.145 101.547 139.045 104.095C138.997 104.134 138.939 104.156 138.877 104.16C138.843 104.194 138.8 104.218 138.753 104.231C138.689 104.849 138.632 105.468 138.587 106.091C138.188 111.623 138.377 117.183 139.151 122.675C139.295 115.388 140.274 108.017 145.302 102.351C145.338 102.315 145.383 102.29 145.432 102.277C145.481 102.264 145.532 102.264 145.581 102.277C145.63 102.29 145.675 102.315 145.711 102.35C145.747 102.386 145.773 102.43 145.787 102.479C147.393 111.065 147.175 120.977 139.861 126.9C140.579 130.585 141.553 134.215 142.774 137.764C142.896 138.118 142.335 138.27 142.215 137.923M125.141 107.143C125.717 107.614 126.295 108.083 126.872 108.549C127.042 108.336 127.208 108.114 127.382 107.892C127.604 107.631 127.856 107.396 128.132 107.193C128.258 107.095 128.479 107.138 128.607 107.035C128.643 107.006 129.819 105.308 129.782 105.183C129.714 104.949 129.149 104.602 128.978 104.335C128.618 103.738 128.386 103.071 128.296 102.379C128.219 102.165 128.165 101.942 128.138 101.715C127.018 102.889 125.855 104.182 125.386 105.75C125.274 106.105 125.024 106.812 125.141 107.143ZM132.669 99.6781C132.53 99.2758 132.437 98.8592 132.391 98.4361C132.315 97.8674 132.55 97.0911 131.623 97.3272C131.621 97.3791 131.605 97.4294 131.577 97.4733C131.549 97.5172 131.511 97.5532 131.465 97.5778C131.419 97.6023 131.368 97.6146 131.316 97.6134C131.264 97.6123 131.213 97.5977 131.169 97.5711C130.877 97.8626 130.573 98.3727 130.376 98.6135C129.817 99.2979 129.291 100.008 128.783 100.732C128.571 101.034 128.067 100.744 128.282 100.438C129.011 99.3656 129.809 98.3412 130.671 97.3715C130.766 97.2686 130.872 97.1466 130.988 97.0246C130.822 96.1707 130.563 95.0064 129.708 94.8464C128.496 94.623 126.69 95.2773 126.452 96.5192C126.136 98.1763 126.521 100.239 127.325 101.733C127.579 101.457 127.834 101.186 128.084 100.925C128.117 100.888 128.16 100.861 128.207 100.848C128.255 100.836 128.305 100.837 128.352 100.852C128.435 100.842 128.518 100.864 128.585 100.915C128.651 100.966 128.694 101.042 128.705 101.124C128.727 101.368 128.753 101.614 128.784 101.859C129.092 102.758 130.012 104.161 130.909 104.145C131.257 104.145 131.566 103.829 131.813 103.512C131.78 103.463 131.762 103.406 131.761 103.347C131.761 103.289 131.778 103.231 131.811 103.182C131.843 103.134 131.89 103.096 131.944 103.074C131.999 103.052 132.058 103.046 132.116 103.059C132.159 102.992 132.197 102.927 132.23 102.872C132.908 101.768 133.138 100.942 132.669 99.6781ZM126.907 40.4067C126.86 40.4296 126.806 40.4353 126.755 40.4229C126.705 40.4104 126.66 40.3806 126.628 40.3386C125.188 41.156 124.555 42.2396 124.582 43.9489C124.597 44.939 124.74 45.8926 125.459 46.6419C126.131 47.3469 126.869 47.8633 127.189 46.6689C127.276 46.3378 127.137 45.9433 127.222 45.5964C127.348 45.0863 127.522 44.8455 127.582 44.2926C127.663 43.575 127.481 42.9825 128.087 42.4867C127.675 41.795 127.424 41.0189 127.354 40.2166C127.202 40.2847 127.051 40.3465 126.907 40.4067ZM130.763 39.9108C130.641 39.16 130.156 38.6657 129.863 38.0399C129.467 37.194 129.556 36.1263 129.581 35.1489C128.499 35.8253 127.897 37.7184 127.913 39.5053C127.946 39.534 127.973 39.5692 127.992 39.6087C128.011 39.6483 128.021 39.6913 128.022 39.735C128.024 39.7788 128.016 39.8224 128 39.863C127.983 39.9036 127.959 39.9404 127.927 39.971C128.046 41.6455 128.734 43.1061 130.12 43.179C130.179 43.1815 130.236 43.2029 130.282 43.2399C130.329 43.2769 130.362 43.3277 130.378 43.3849C131.17 43.3453 130.788 41.918 130.777 41.2701C130.771 40.8392 130.826 40.3433 130.757 39.9108H130.763ZM128.003 18.1461C124.677 15.9377 121.12 15.5544 117.212 15.7112C115.802 15.7666 115.175 15.4435 116.42 16.9785C117.001 17.6907 117.637 18.3565 118.321 18.9698C119.701 20.1849 121.204 21.2521 122.806 22.154C126.099 24.0375 130.175 26.276 134.094 26.1556L134.044 25.9972C130.835 23.1478 127.183 20.841 123.232 19.1678C123.073 19.1013 123.211 18.87 123.368 18.9365C127.189 20.557 130.732 22.7663 133.868 25.4839C132.728 22.4853 130.677 19.9192 128.003 18.1461ZM118.749 5.31435C117.922 5.63118 117.239 6.31079 117.34 7.26604C117.426 8.05812 117.727 7.78723 117.911 8.28307C118.416 9.66129 117.877 10.5928 120.008 10.7956C120.895 10.8811 121.209 10.7449 121.95 10.1619C121.995 10.127 122.028 10.0969 122.056 10.07C121.012 9.21614 121.459 7.57495 121.485 6.36624C121.487 6.31085 121.506 6.25735 121.537 6.21179C121.569 6.16623 121.613 6.13039 121.663 6.10832C121.714 6.08626 121.77 6.07884 121.825 6.0869C121.88 6.09496 121.932 6.11818 121.974 6.15396C121.951 5.64824 122.004 5.14192 122.132 4.65218C122.116 4.66212 122.098 4.66959 122.079 4.67435C121.022 4.87553 119.758 4.93575 118.749 5.31911V5.31435ZM123.842 0.799484C123.481 0.864441 123.284 0.938889 122.913 0.896118C121.941 0.782059 121.141 0.449402 120.403 1.31752C119.687 2.16188 119.896 3.45139 120.062 4.45415C120.686 4.3385 121.309 4.22603 121.928 4.10405C121.998 4.08987 122.071 4.10168 122.133 4.13727C122.194 4.17284 122.241 4.22975 122.264 4.29732C122.398 3.99249 122.602 3.72415 122.861 3.51474C123.52 2.99356 124.309 3.16306 125.079 3.15355C125.063 3.10202 125.063 3.04668 125.079 2.99513C125.37 1.95117 125.47 0.509598 123.842 0.804245V0.799484ZM126.403 5.93217C126.803 4.96109 127.222 5.23831 126.947 4.01692C126.63 2.59117 126.571 3.54167 125.664 3.8094C125.366 3.89336 125.092 3.79831 124.808 3.8284C124.613 3.78262 124.409 3.78616 124.216 3.83871C124.022 3.89127 123.845 3.99115 123.699 4.12939C123.001 4.11832 122.662 4.42088 122.682 5.04189C122.5 5.56465 122.541 6.04623 122.563 6.58801C122.578 6.90485 122.172 6.94762 122.033 6.73218C121.972 7.3896 121.835 8.2498 122.012 8.76149C122.126 9.0907 122.309 9.39127 122.551 9.64227C122.6 9.62715 122.651 9.62448 122.702 9.63449C122.752 9.64452 122.799 9.6669 122.838 9.69963C122.877 9.73236 122.908 9.7744 122.927 9.82191C122.946 9.86945 122.953 9.92096 122.947 9.97179C123.272 10.1838 123.651 10.3009 124.039 10.3098C124.427 10.3188 124.811 10.2193 125.146 10.0225C125.211 9.98357 125.273 9.94125 125.334 9.89574C125.341 9.82022 125.376 9.75024 125.434 9.70079C125.491 9.65135 125.566 9.62636 125.641 9.6312C126.536 8.65218 125.925 7.09496 126.403 5.93217ZM134.261 24.9278C134.419 25.3191 134.563 25.7199 134.693 26.1191C134.725 26.1191 134.757 26.1191 134.79 26.108L134.758 26.0003C134.592 25.6423 134.43 25.2843 134.261 24.9278ZM139.98 15.4229C139.834 11.7952 138.974 8.25139 137.988 4.77098C134.952 11.4134 133.152 18.6942 135.324 25.8609C137.055 21.5187 136.955 16.7758 137.542 12.1817C137.564 12.0138 137.832 12.0106 137.809 12.1817C137.209 16.8771 137.309 21.7025 135.5 26.1223C135.544 26.1624 135.577 26.2144 135.593 26.2721C135.609 26.3299 135.609 26.3911 135.592 26.4486L135.666 26.6071C139.752 25.9481 140.103 18.5136 139.98 15.4308V15.4229ZM138.842 38.9271C138.727 39.5021 138.6 40.0756 138.47 40.6491V40.6728C138.527 40.9437 138.578 41.2162 138.636 41.4855C138.662 40.7514 138.733 40.0197 138.85 39.2946C138.845 39.1805 138.845 39.057 138.842 38.935V38.9271ZM139.092 33.0435V32.9706L139.069 33.0498C139.077 33.0496 139.085 33.0501 139.092 33.0514V33.0435ZM139.26 32.6696C139.292 32.4574 139.327 32.2435 139.365 32.036C139.303 32.2768 139.23 32.5112 139.159 32.7504C139.187 32.7173 139.223 32.6921 139.264 32.6776L139.26 32.6696ZM139.856 45.4538C139.685 45.5045 139.514 45.5568 139.344 45.598C139.522 45.5869 139.701 45.5615 139.88 45.5457C139.872 45.5235 139.866 45.4918 139.856 45.4617V45.4538ZM138.619 44.8059C137.865 44.7048 137.101 44.7091 136.349 44.8186C137.106 44.8196 137.863 44.817 138.619 44.8107V44.8059ZM139.512 31.377L139.501 31.4308C139.524 31.3901 139.558 31.3565 139.599 31.3339C139.64 31.3112 139.686 31.3003 139.733 31.3025L139.717 30.7496L139.512 31.377ZM133.505 45.4554C133.518 45.4176 133.536 45.3823 133.561 45.3508C133.525 45.3252 133.497 45.2893 133.481 45.2479C133.423 45.2875 133.358 45.3255 133.306 45.3683C133.372 45.4063 133.44 45.4348 133.505 45.4633V45.4554ZM140.102 28.8581V28.798L140.073 28.8423C140.083 28.8447 140.092 28.8479 140.102 28.8518V28.8581ZM140.808 44.2118C140.91 44.2794 141.007 44.3524 141.101 44.4305C140.841 43.3141 140.562 42.201 140.262 41.091C140.258 42.1534 140.443 43.2079 140.808 44.2055V44.2118ZM138.074 46.2174C137.294 46.2174 136.518 46.1984 135.742 46.1255C136.513 46.2513 137.296 46.2801 138.074 46.2111V46.2174ZM135.856 44.3164C136.494 44.2025 137.141 44.1495 137.789 44.158L137.668 44.1041C137.059 44.1183 136.452 44.1894 135.856 44.3164ZM137.141 40.5952C137.089 39.7461 137.068 38.9081 137.089 38.0732C137.015 38.9133 137.032 39.7589 137.141 40.5952ZM137.76 34.3726C137.796 34.3699 137.832 34.3737 137.866 34.3837L138.014 33.9623L137.939 33.7548C137.877 33.9592 137.817 34.1651 137.76 34.3726ZM138.316 33.1053C138.4 32.8597 138.492 32.6142 138.576 32.3671C138.706 31.8586 138.856 31.3532 139.012 30.8463C138.733 31.4704 138.468 32.15 138.22 32.8629L138.316 33.1053ZM131.382 54.802C130.253 54.2016 129.084 53.6804 127.897 53.1877C126.817 52.7362 126.28 52.1612 126.822 53.6376C129.57 61.1037 135.083 67.301 142.03 71.0982L131.991 59.0032C131.881 58.8717 132.068 58.6863 132.179 58.813C135.664 63.0142 139.15 67.2149 142.635 71.4151L142.928 71.5735C141.39 67.2059 139.574 62.3188 136.566 58.7814C135.145 57.0958 133.315 55.8301 131.382 54.802ZM143.446 65.1893C143.472 64.3655 143.506 63.5423 143.549 62.7196C143.396 58.5513 142.973 54.3973 142.281 50.2839C141.092 55.2512 141.5 60.467 143.446 65.1893ZM149.466 51.0253C149.862 45.8309 149.169 40.6109 147.43 35.7001C146.611 40.2942 144.13 44.2768 142.715 48.7045C142.689 48.7932 142.666 48.8819 142.638 48.9691C142.945 50.6467 143.219 52.3291 143.438 54.0226C143.618 55.4103 143.755 56.8059 143.875 58.2016C144.357 52.7872 145.189 47.4099 146.367 42.1033C146.405 41.9354 146.663 42.0067 146.625 42.1746C145.334 47.9837 144.459 53.8774 144.007 59.8111C144.141 61.7913 144.214 63.7736 144.225 65.758C147.878 62.0875 149.071 55.952 149.464 51.0253H149.466ZM146.731 73.5204C146.51 73.4364 146.058 73.183 145.82 73.3255C145.643 73.4285 145.673 74.3996 145.662 74.5707C145.534 75.838 145.561 77.0974 146.113 78.2745C146.136 78.3213 146.146 78.3734 146.141 78.4253C146.137 78.4772 146.119 78.5269 146.088 78.5691C146.264 78.4471 146.429 78.3109 146.613 78.1968C146.633 78.188 146.653 78.1806 146.674 78.1747C146.56 76.9184 146.823 75.697 147.394 74.4836C147.47 74.3252 147.552 74.1335 147.647 73.9354C147.343 73.7802 147.039 73.6329 146.73 73.5141L146.731 73.5204ZM151.452 79.5608C151.889 78.6103 150.809 77.3984 150.524 76.6412C150.25 75.9109 150.117 75.1125 149.828 74.4456C149.765 74.2982 149.6 74.2158 149.553 74.0495C149.517 73.8339 149.504 73.6152 149.513 73.3968C149.486 72.8915 149.746 72.4828 149.294 72.6048C148.978 72.6903 148.67 73.1529 148.403 73.663C148.407 73.6626 148.411 73.6626 148.415 73.663C148.742 73.8214 148.477 74.284 148.154 74.1715C147.995 74.5311 147.861 74.8622 147.783 75.0444C147.314 76.099 147.141 77.262 147.284 78.4075C147.328 78.4204 147.367 78.4442 147.399 78.4766C147.431 78.5091 147.454 78.5491 147.466 78.5929C147.687 79.3547 148.164 80.0171 148.816 80.4685L149.7 80.8392L151.452 79.5608ZM147.428 82.8305C147.607 82.9889 147.824 83.0967 147.942 83.32C148.034 83.4959 148.022 83.7509 148.051 83.9727C148.727 83.2242 149.253 82.3523 149.599 81.4048C148.609 81.202 147.829 80.5446 147.329 79.6955C147.291 79.7138 147.251 79.7238 147.209 79.7247C147.168 79.7257 147.127 79.7176 147.089 79.701C147.05 79.6844 147.017 79.6597 146.989 79.6287C146.962 79.5976 146.941 79.5609 146.929 79.5212C146.891 79.3929 146.864 79.2646 146.833 79.1378C146.525 80.4701 146.312 81.8103 147.428 82.8305ZM139.656 100.773C139.618 100.741 139.588 100.699 139.57 100.652C139.552 100.604 139.547 100.553 139.555 100.503C139.444 100.92 139.344 101.345 139.251 101.771L139.656 100.773ZM142.156 97.7628C142.156 97.842 142.139 97.9212 142.133 97.9941C142.216 97.7375 142.291 97.4808 142.372 97.221C142.3 97.4048 142.231 97.5901 142.156 97.7692V97.7628ZM140.731 101.02L140.525 101.473L140.552 101.505C140.754 101.188 140.94 100.858 141.111 100.521C140.988 100.693 140.861 100.861 140.729 101.026L140.731 101.02ZM138.196 95.5688C138.291 95.8301 138.37 96.0947 138.445 96.3608C138.327 95.0981 138.079 93.8509 137.703 92.6396C137.934 93.6057 138.097 94.5865 138.193 95.5751L138.196 95.5688ZM138.472 99.6701C138.417 99.6482 138.373 99.607 138.348 99.5545L138.323 99.4927C138.356 99.6844 138.394 99.8777 138.43 100.068C138.438 99.9395 138.456 99.8016 138.472 99.6701ZM138.373 78.8495V78.8654C138.37 78.8126 138.37 78.7597 138.373 78.7069C138.38 78.656 138.4 78.6079 138.432 78.5675C137.871 78.0764 137.353 77.5347 136.819 77.0135C136.797 77.0202 136.774 77.024 136.751 77.0246C137.397 77.5289 137.945 78.1474 138.367 78.8495H138.373ZM141.244 86.0923L141.264 86.2507C141.264 86.1937 141.282 86.1367 141.29 86.0796C141.268 86.0828 141.253 86.0875 141.237 86.0923H141.244ZM136.095 76.6998C135.809 76.5102 135.543 76.2909 135.303 76.0456C135.457 76.391 135.668 76.7085 135.926 76.985C135.925 76.9264 135.94 76.8688 135.97 76.8184C136 76.7681 136.043 76.727 136.095 76.6998ZM141.006 82.0685C141.098 82.2666 141.171 82.4729 141.223 82.6848C141.114 82.0101 140.935 81.3486 140.689 80.7109C140.818 81.1578 140.924 81.6109 141.006 82.0685ZM141.294 83.8475C141.321 84.0852 141.34 84.3228 141.358 84.562C141.358 84.2372 141.358 83.9125 141.326 83.5909C141.323 83.6717 141.306 83.7636 141.298 83.8475H141.294ZM138.788 80.9137C138.69 80.7077 138.587 80.5081 138.487 80.3054C138.18 79.8607 137.863 79.4246 137.537 78.9968C136.586 78.0289 135.622 77.0958 134.95 76.4527C135.872 78.1002 137.608 79.3786 138.788 80.9137ZM128.631 114.796C128.219 114.661 127.455 114.235 127.118 114.59C126.839 114.881 128.089 116.991 128.255 117.283C128.999 118.552 129.813 119.779 130.692 120.958C132.566 123.528 134.891 125.486 137.724 126.748C135.189 124.177 134.109 120.507 131.333 118.121C131.203 118.008 131.393 117.82 131.523 117.932C134.416 120.421 135.462 124.31 138.245 126.884C137.271 125.286 136.742 123.513 136.092 121.72C134.746 117.999 132.361 116.016 128.631 114.796ZM145.537 116.38C145.983 114.282 146.172 112.138 146.099 109.994C146.074 108.885 145.988 107.776 145.863 106.677C145.832 106.387 145.705 103.71 145.31 103.383C144.916 103.057 142.503 107.586 142.256 108.136C141.494 109.893 140.921 111.726 140.548 113.604C139.87 116.895 139.721 120.258 139.706 123.61C140.103 121.833 140.776 120.125 141.458 118.382C142.69 115.236 143.332 112.104 143.783 108.762C143.805 108.592 144.064 108.665 144.041 108.833C143.628 111.889 143.099 114.835 141.999 117.726C141.049 120.204 140.01 122.572 139.706 125.183V126.134L139.729 126.257C142.76 123.734 144.678 120.217 145.537 116.38Z" fill="#8D7A33"/>
</g>
<defs>
<clipPath id="clip0_508_860">
<rect width="150" height="152.071" fill="white" transform="matrix(0 -1 1 0 0 150)"/>
</clipPath>
</defs>
</svg>
