<svg width="101" height="101" viewBox="0 0 101 101" fill="none" xmlns="http://www.w3.org/2000/svg">
<g id="Component 3" clip-path="url(#clip0_89_2753)">
<path id="Vector" fill-rule="evenodd" clip-rule="evenodd" d="M9.05454 6.73532C11.2197 7.48028 13.4296 8.08839 15.6711 8.55605C15.6625 8.65902 15.6625 8.76252 15.6711 8.86549C15.7059 8.89506 15.7429 8.9183 15.7767 8.94681C16.4557 10.9091 17.5816 12.6337 19.1794 13.9834C20.7995 15.3563 22.8494 16.9405 24.9975 17.2415C25.1369 17.2615 25.2795 17.1602 25.2352 17.0039C24.6902 15.1029 24.0734 13.0477 22.4893 11.7444C20.6538 10.2416 18.1075 10.1603 16.2002 8.78734H16.2678C16.2989 8.80346 16.3335 8.81186 16.3686 8.81186C16.4037 8.81186 16.4383 8.80346 16.4695 8.78734H16.8919C19.755 9.31879 22.6573 9.61059 25.5689 9.65969C25.5757 9.69129 25.5919 9.72007 25.6155 9.74215C25.6391 9.76424 25.6689 9.77858 25.7009 9.78325C28.1152 10.2522 30.446 11.191 31.7735 13.3434C31.5021 13.5092 31.161 13.7268 31.1156 14.0267C31.0554 14.4206 31.463 14.9413 31.7313 15.256C31.4968 15.0839 31.3342 14.8726 31.068 14.6287C30.7618 14.3477 30.4724 14.3002 30.07 14.4512C29.5166 14.6625 29.5071 14.954 29.3107 15.4292C29.0731 16.0048 28.8956 16.1896 28.5492 16.5402C28.3634 16.7282 28.1754 16.8423 28.0888 17.1052C27.7202 18.2078 29.1142 18.5669 29.9042 18.4803C31.048 18.3567 32.0164 17.6893 32.8719 16.9363C33.6956 17.4126 34.5923 17.6048 35.5428 17.6396C36.0846 17.6608 37.4226 17.8593 37.8049 17.3228C38.0056 17.0419 37.9718 16.5043 38.0162 16.1864C38.07 15.7576 38.3066 15.0839 38.1218 14.6656C37.9243 14.2242 37.1776 14.0108 36.6105 13.8873C36.7383 13.694 36.7995 13.4775 36.6728 13.2536C36.4859 12.9114 36.0296 12.9695 35.7054 12.9368C35.4012 12.922 35.0996 12.8724 34.8067 12.7889C34.5542 12.7048 34.3149 12.5854 34.0959 12.4341C33.9925 12.3973 33.8867 12.368 33.7791 12.3464C33.2637 12.3116 32.5614 12.827 32.103 13.1427C30.9297 11.2417 29.0044 10.231 26.9049 9.67342C29.0873 9.63429 31.2648 9.45118 33.4232 9.1253C33.27 9.18866 33.2341 9.44213 33.4348 9.48543L33.7981 9.55619C36.512 10.7155 39.4435 11.2774 42.3937 11.2037C42.4354 11.2021 42.4754 11.1872 42.5079 11.1612C42.5405 11.1353 42.5639 11.0996 42.5747 11.0594C42.5856 11.0192 42.5833 10.9765 42.5682 10.9377C42.5531 10.8989 42.526 10.8659 42.4909 10.8436C40.3762 9.47916 37.9039 8.77342 35.3875 8.81586C37.5832 8.43988 39.7672 7.97942 41.9671 7.52213C41.9869 7.55878 42.0186 7.58756 42.057 7.6037C42.0955 7.61983 42.1382 7.62235 42.1783 7.61084L42.2723 7.59077C42.2893 7.61164 42.3107 7.62852 42.335 7.6402C42.3593 7.65188 42.3858 7.65808 42.4127 7.65836C42.4877 7.65836 42.5617 7.67104 42.6356 7.67526C44.3803 8.08714 46.0151 8.60041 47.4282 9.77269C48.5625 10.7116 49.5404 11.7698 50.8172 12.526C50.8468 12.5427 50.8802 12.5514 50.9142 12.5512C50.9481 12.5511 50.9815 12.5421 51.0109 12.5252C51.0403 12.5082 51.0648 12.4839 51.082 12.4546C51.0991 12.4253 51.1084 12.392 51.1087 12.358C51.0918 12.1455 51.0636 11.934 51.0242 11.7244C51.0475 11.6949 51.062 11.6594 51.0661 11.6221C51.0702 11.5848 51.0638 11.547 51.0475 11.5132C51.0169 11.454 50.9799 11.4002 50.9471 11.3431C50.2491 8.43777 47.4926 7.07011 44.6327 6.98351C47.3079 6.45681 50.0143 6.10403 52.7351 5.9274C52.7849 5.99734 52.8132 6.0803 52.8165 6.16608C54.1554 8.89509 56.0315 11.3257 58.3324 13.3121C60.6333 15.2985 63.3117 16.7999 66.2068 17.7262C66.3378 17.7685 66.5004 17.6206 66.4455 17.4886C65.3715 14.7903 64.2214 11.9514 61.9043 10.0716C59.5111 8.12833 56.346 6.92437 53.4353 5.89677C54.3802 5.84608 55.3258 5.81651 56.272 5.80806C56.121 6.00239 56.3924 6.27803 56.5456 6.08159C56.5815 6.03512 56.6216 5.99499 56.6586 5.94958C59.8079 7.39962 63.293 7.89915 66.7148 7.26021C67.2634 7.15576 67.8054 7.01929 68.3381 6.8515C69.0266 6.97682 69.7121 7.11341 70.3943 7.26127C70.3943 7.26127 70.3943 7.26127 70.3943 7.26866C69.9756 8.19118 69.7704 9.19628 69.7939 10.2091C69.8175 11.222 70.0693 12.2164 70.5305 13.1184C70.5456 13.1437 70.5662 13.1652 70.5908 13.1814C70.6155 13.1975 70.6434 13.2079 70.6726 13.2116C70.7018 13.2154 70.7315 13.2125 70.7593 13.2031C70.7873 13.1937 70.8127 13.1781 70.8336 13.1575C71.631 12.4457 71.7841 11.3621 71.8581 10.3388C72.3559 11.5012 72.7945 12.6868 73.174 13.8957C72.7104 13.919 72.2615 13.9538 71.8855 13.9475C71.8344 13.9478 71.7854 13.9682 71.7492 14.0044C71.713 14.0406 71.6925 14.0896 71.6923 14.1407C71.6923 14.3066 71.6859 14.4713 71.6817 14.6371C71.6789 14.6802 71.6927 14.7228 71.7201 14.7561C71.7476 14.7895 71.7867 14.8111 71.8296 14.8167C71.8539 15.2384 72.0436 15.6335 72.3576 15.9161C72.1337 16.0681 71.4135 16.009 71.1325 16.0608C70.8094 16.1199 70.4989 16.3301 70.1556 16.3776C69.6635 16.442 69.3657 16.3396 68.9738 16.6786C68.9499 16.7028 68.9327 16.733 68.924 16.766C68.9153 16.7989 68.9154 16.8336 68.9242 16.8666C69.2115 18.0948 70.1493 18.7961 71.3892 18.8784C72.8941 18.9767 73.8098 18.5447 74.5121 17.2098C74.5332 17.1713 74.5401 17.1267 74.5316 17.0836C74.5231 17.0405 74.4998 17.0018 74.4656 16.9743L74.5892 16.668C75.2884 16.6903 75.985 16.571 76.637 16.3174C76.637 16.3174 76.637 16.3227 76.637 16.3258C76.9538 16.9701 76.7816 17.5425 76.5229 18.155C76.4405 18.3514 76.825 18.248 76.337 18.5521C76.2409 18.6123 75.8913 18.5109 75.7477 18.5606C75.4161 18.6778 75.3189 18.983 75.151 19.2523C75.0844 19.3951 74.9903 19.5233 74.8739 19.6295C74.7575 19.7358 74.6213 19.8179 74.473 19.8712C74.2449 19.66 74.0175 19.4466 73.7907 19.2312C73.72 19.0622 73.7844 18.7918 73.7105 18.5975C73.6239 18.3673 73.25 18.4666 73.3366 18.7031C73.5669 19.3167 73.231 20.0708 74.1086 20.2609C74.9092 20.4341 75.1647 19.7529 75.5808 19.2703C76.0381 18.7348 76.356 19.1647 76.7626 18.8161C76.9791 18.6334 76.8767 18.5384 76.9189 18.3113C77.0731 17.4844 77.3773 16.9891 76.9812 16.1632C77.5019 15.8865 77.9053 15.5095 78.0627 15.0268C78.0703 14.9982 78.0712 14.9683 78.0654 14.9393C78.0596 14.9102 78.0473 14.8829 78.0294 14.8594C78.0115 14.8359 77.9884 14.8168 77.962 14.8035C77.9355 14.7902 77.9064 14.7832 77.8768 14.7829C77.2062 14.7755 76.3877 14.8652 75.8216 14.5558C75.602 14.4365 75.5492 14.1999 75.2609 14.0858C74.7909 13.9 74.1847 13.8746 73.5711 13.8894C73.1466 12.5408 72.6484 11.2166 72.0788 9.92266C72.1424 9.97633 72.2087 10.0267 72.2774 10.0737C73.1011 10.6112 74.2755 10.4644 75.2091 10.437C76.545 10.4122 77.8718 10.2105 79.1547 9.83711C80.3946 10.299 81.6176 10.7992 82.8236 11.3378C82.8236 11.3695 82.8152 11.3991 82.8141 11.4297C82.8134 11.4629 82.8216 11.4956 82.8378 11.5246C82.854 11.5535 82.8777 11.5776 82.9064 11.5943C82.9351 11.611 82.9677 11.6197 83.0008 11.6196C83.034 11.6194 83.0666 11.6104 83.0951 11.5934C83.1066 11.5983 83.119 11.6009 83.1315 11.6009C83.144 11.6009 83.1564 11.5983 83.1679 11.5934L83.1869 11.585C83.1811 11.6021 83.1811 11.6207 83.1869 11.6378C83.1388 11.6302 83.0896 11.6411 83.0493 11.6684C83.0089 11.6957 82.9805 11.7373 82.9696 11.7848C82.9587 11.8322 82.9663 11.8821 82.9908 11.9242C83.0152 11.9663 83.0548 11.9976 83.1014 12.0116C83.1299 12.0201 83.1563 12.0306 83.1859 12.0391C83.0803 14.503 84.3265 16.9257 85.4491 19.0569C86.7006 21.4363 88.3006 23.5739 90.5755 25.0577C90.605 25.0744 90.6384 25.0831 90.6724 25.083C90.7064 25.0829 90.7397 25.0739 90.7691 25.0569C90.7985 25.04 90.823 25.0156 90.8402 24.9863C90.8573 24.957 90.8666 24.9238 90.8669 24.8898C90.9208 21.6824 91.0782 18.813 89.2353 16.0291C88.3637 14.7103 87.2092 13.6024 85.8557 12.7858C88.7069 14.2388 91.444 15.9056 94.0437 17.7716C93.843 17.9618 93.6893 18.1961 93.5949 18.456C93.4523 18.9376 93.7617 19.4709 94.068 19.8881C93.879 20.074 93.6255 20.1965 93.5083 20.4721C93.3213 20.9157 93.3773 21.5757 93.4639 22.0214C93.541 22.4164 93.6973 22.8008 94.0522 23.0279C94.407 23.255 94.7978 23.1472 95.1695 23.2983C95.5413 23.4493 95.7145 23.6869 96.1517 23.7049C96.5319 23.7207 97.0452 23.6056 97.3567 23.3743C97.6683 23.143 97.7433 22.8357 97.8256 22.4829C97.8721 22.2833 97.9091 22.0806 97.9492 21.8788C99.2366 22.0732 101.223 21.9148 100.906 20.113C100.828 19.7458 100.824 19.3668 100.893 18.9978C100.913 18.8985 100.998 18.8193 100.998 18.7147C101.008 18.4518 100.984 18.2427 100.805 18.0304C100.359 17.5023 99.5217 17.6185 98.9335 17.778C98.9466 17.7101 98.965 17.6434 98.9884 17.5784C99.1669 17.1221 99.6168 16.7852 99.1922 16.2899C98.7962 15.8263 98.1625 16.0534 97.7401 16.3142C97.1582 16.6743 96.8825 16.969 96.1559 16.9415C95.8074 16.9289 95.6131 16.8602 95.2572 16.9722C94.9246 17.0958 94.6161 17.2767 94.3458 17.5066C91.5238 15.4689 88.5387 13.6674 85.4206 12.1204C89.8858 12.9009 94.3753 11.6103 98.4741 9.67342C98.6304 9.59949 98.5797 9.36292 98.4276 9.31962C95.0924 8.35751 91.583 7.48833 88.0883 7.94034C86.2591 8.17691 83.3411 8.83487 82.8849 10.9302C81.8443 10.4683 80.792 10.0353 79.7282 9.63117C80.7278 9.27928 81.665 8.77056 82.5047 8.12411C82.6525 8.00899 82.5131 7.80727 82.3685 7.79354C80.4376 7.58993 78.4907 7.58993 76.5599 7.79354C75.9843 7.85585 75.4098 7.92978 74.8374 7.98153C72.9504 7.43376 71.0445 6.97013 69.1196 6.59064C72.0767 5.54298 74.8289 3.87222 77.9993 3.52793C78.0454 3.52657 78.0895 3.50887 78.1238 3.478C78.158 3.44712 78.1802 3.40507 78.1862 3.35937C78.1923 3.31367 78.182 3.26729 78.157 3.22852C78.1321 3.18974 78.0942 3.16111 78.05 3.14773C74.2022 1.6573 70.0477 1.13295 65.9502 1.6206C62.7344 2.01136 58.9007 2.88793 56.6311 5.3909C53.9316 5.39533 51.2353 5.5756 48.5593 5.93057C47.8397 6.02703 47.124 6.13686 46.4122 6.26008C47.2422 5.74832 47.9637 5.07879 48.5361 4.28938C48.5256 4.32707 48.5295 4.36731 48.5471 4.40226C48.5646 4.43721 48.5946 4.46437 48.6311 4.47842C49.6714 4.9674 51.1204 5.04661 52.2293 4.70971C52.9812 4.48054 52.4331 3.54799 52.0825 2.94601C52.6697 2.64713 53.2811 2.24265 53.3403 1.67868C53.3397 1.6276 53.3192 1.57876 53.2831 1.54263C53.2469 1.5065 53.1981 1.48597 53.147 1.48542C52.9031 1.48542 52.0825 1.63327 51.8638 1.48542C51.6136 1.31855 51.81 1.25518 51.6949 1.16225C51.4372 0.951025 51.527 0.944689 51.1848 0.800001C51.0908 0.803633 50.997 0.812092 50.9038 0.825348C50.5899 0.868521 50.2702 0.837782 49.9702 0.735579C49.8256 0.693335 49.7094 0.524359 49.5626 0.473665C48.9828 0.262444 48.2372 0.0860729 47.6151 0.200134C46.9625 0.318417 46.6815 0.794722 46.6889 1.42099C45.8782 1.70077 45.1413 2.16039 44.5334 2.76542C44.4974 2.80181 44.4771 2.85096 44.4771 2.90218C44.4771 2.95341 44.4974 3.00256 44.5334 3.03895C44.7214 3.21954 44.8502 3.15406 45.071 3.23222C45.4818 3.37585 45.693 3.81096 46.0827 4.00529C46.7607 4.34219 47.518 4.21651 48.2298 4.05915C47.602 4.93587 46.7829 5.65819 45.8345 6.17136C45.7967 6.18973 45.7671 6.22162 45.7517 6.26073C45.7362 6.29984 45.736 6.34332 45.7511 6.38259C42.2659 7.01625 38.8199 7.88014 35.3315 8.4948C36.6464 7.99526 37.7817 7.23592 38.6942 5.89149C38.7127 5.85833 38.7211 5.82047 38.7183 5.78259C38.7155 5.74471 38.7017 5.70848 38.6786 5.67837C38.6554 5.64826 38.624 5.62559 38.5881 5.61316C38.5522 5.60074 38.5134 5.5991 38.4766 5.60846C36.0244 6.28753 33.3017 6.78179 31.6035 8.8486C31.5775 8.88037 31.5624 8.91958 31.5602 8.96054C31.5375 8.98342 31.5211 9.0118 31.5127 9.04292C31.1008 9.08622 30.6878 9.12424 30.2728 9.15381C26.5844 9.41989 22.8782 9.29386 19.2164 8.77784C24.0745 8.68173 28.9886 8.02906 32.7663 4.67697C32.7899 4.65292 32.8069 4.62313 32.8155 4.59052C32.8242 4.55792 32.8242 4.52363 32.8155 4.49102C32.8069 4.45842 32.7899 4.42862 32.7663 4.40456C32.7427 4.3805 32.7132 4.36301 32.6807 4.3538C26.9566 3.28291 20.3486 3.42865 16.3998 8.3047C13.9435 7.82566 11.5234 7.17671 9.15698 6.36252C8.92147 6.2812 8.82009 6.65506 9.05137 6.73532M29.5715 18.118C29.2575 17.7336 28.9449 17.3489 28.6337 16.9637C28.7763 16.8507 28.9241 16.7398 29.072 16.6237C29.2461 16.4758 29.4024 16.3081 29.5377 16.1241C29.6032 16.0396 29.5747 15.8928 29.6434 15.8073C29.6624 15.783 30.7945 14.9994 30.8779 15.0237C31.0342 15.0691 31.2655 15.4461 31.443 15.5602C31.8416 15.8001 32.2858 15.9548 32.7473 16.0143C32.8903 16.0661 33.0387 16.1016 33.1898 16.1199C32.4072 16.8666 31.5454 17.6417 30.4999 17.9544C30.2633 18.0293 29.7923 18.1962 29.5715 18.118ZM34.5479 13.0994C34.8161 13.192 35.0938 13.254 35.3759 13.2842C35.755 13.3349 36.2725 13.1786 36.1152 13.7965C36.0806 13.7981 36.047 13.8087 36.0178 13.8272C35.9885 13.8457 35.9645 13.8715 35.9481 13.902C35.9318 13.9325 35.9236 13.9667 35.9243 14.0014C35.9251 14.036 35.9348 14.0698 35.9525 14.0996C35.7582 14.2939 35.4181 14.4967 35.2576 14.6276C34.8014 15.0004 34.3282 15.351 33.8456 15.6901C33.6439 15.8316 33.8372 16.1674 34.041 16.0238C34.7562 15.5376 35.4392 15.0057 36.0856 14.4312C36.1543 14.3678 36.2356 14.2971 36.3169 14.22C36.8861 14.3308 37.6624 14.503 37.769 15.0733C37.918 15.8812 37.4818 17.0852 36.6538 17.2436C35.5491 17.4548 34.1741 17.1982 33.1781 16.6617C33.3619 16.4927 33.5425 16.3227 33.7168 16.1558C33.7413 16.134 33.759 16.1055 33.7676 16.0738C33.7763 16.0421 33.7755 16.0086 33.7653 15.9773C33.7722 15.922 33.757 15.8663 33.723 15.8222C33.689 15.7781 33.6389 15.7492 33.5837 15.7418C33.421 15.727 33.2574 15.7101 33.0937 15.689C32.4948 15.4841 31.5591 14.8705 31.5697 14.2728C31.5697 14.0404 31.7809 13.8345 31.9921 13.6697C32.0243 13.692 32.0625 13.704 32.1016 13.7043C32.1408 13.7046 32.1791 13.6932 32.2116 13.6714C32.2442 13.6497 32.2695 13.6187 32.2842 13.5824C32.2989 13.5461 32.3024 13.5063 32.2942 13.468C32.3385 13.4395 32.3818 13.4141 32.4188 13.392C33.1549 12.94 33.7051 12.7868 34.5479 13.0994ZM74.0622 16.9405C74.0469 16.9719 74.0431 17.0077 74.0514 17.0416C74.0597 17.0755 74.0795 17.1055 74.1076 17.1264C73.5626 18.0864 72.8403 18.5088 71.7007 18.4909C71.0406 18.4803 70.4049 18.3852 69.9053 17.9058C69.4354 17.458 69.0911 16.9658 69.8874 16.7525C70.1081 16.6944 70.3711 16.7874 70.6024 16.7303C70.9424 16.6469 71.103 16.5307 71.4715 16.4906C71.95 16.4367 72.3449 16.5582 72.6755 16.1537C73.1367 16.4287 73.654 16.5958 74.1889 16.6427C74.1435 16.7441 74.1023 16.8444 74.0622 16.9405ZM74.3927 14.3699C74.8933 14.4512 75.2228 14.7744 75.64 14.9698C76.204 15.2338 76.9158 15.1747 77.5674 15.1578C77.1164 15.8791 75.8544 16.2804 74.6631 16.2699C74.644 16.2478 74.6205 16.2299 74.5941 16.2174C74.5678 16.2049 74.5391 16.198 74.5099 16.1971C74.4808 16.1962 74.4517 16.2013 74.4246 16.2122C74.3976 16.2231 74.373 16.2395 74.3526 16.2604C73.2363 16.1811 72.2626 15.7228 72.214 14.7987C72.2123 14.7592 72.198 14.7212 72.1734 14.6903C72.1487 14.6593 72.1148 14.637 72.0767 14.6266C72.1031 14.0985 73.0546 14.353 73.4866 14.3604C73.7738 14.3646 74.1044 14.3277 74.3927 14.3741V14.3699ZM88.9026 16.2097C90.3748 18.4275 90.6304 20.7984 90.5258 23.4039C90.4889 24.3438 90.7043 24.762 89.6809 23.9319C89.2062 23.5446 88.7623 23.1209 88.3534 22.6646C87.5434 21.7448 86.8319 20.7428 86.2306 19.6748C84.9749 17.4791 83.4827 14.7617 83.5629 12.1489L83.6685 12.1827C85.5681 14.3217 87.1059 16.7564 88.2214 19.3907C88.2658 19.4963 88.42 19.4044 88.3756 19.2998C87.2953 16.7528 85.8224 14.3909 84.0107 12.3C86.0098 13.0601 87.7205 14.4273 88.9026 16.2097ZM97.4571 22.3794C97.2458 22.9307 96.7928 23.3859 96.1559 23.3183C95.6279 23.2613 95.8085 23.0606 95.4779 22.9381C94.5591 22.6012 93.9381 22.9603 93.8029 21.5398C93.7459 20.9484 93.8367 20.7393 94.2254 20.245C94.2486 20.2155 94.2687 20.1933 94.2866 20.1743C94.8559 20.8703 95.95 20.5724 96.7558 20.5555C96.7927 20.5536 96.8284 20.5415 96.8588 20.5204C96.8891 20.4993 96.913 20.4702 96.9277 20.4363C96.9425 20.4023 96.9474 20.365 96.942 20.3284C96.9367 20.2918 96.9212 20.2575 96.8973 20.2292C97.2345 20.2447 97.572 20.2091 97.8985 20.1236C97.8919 20.1348 97.8869 20.1469 97.8837 20.1595C97.7496 20.8639 97.7095 21.7067 97.4539 22.3794H97.4571ZM100.467 18.9841C100.424 19.2248 100.374 19.3558 100.403 19.6029C100.479 20.2514 100.7 20.7847 100.122 21.2769C99.5587 21.7542 98.699 21.6148 98.0305 21.5039C98.1076 21.0878 98.1826 20.6728 98.2639 20.2598C98.2734 20.2132 98.2655 20.1648 98.2418 20.1236C98.2181 20.0823 98.1801 20.0512 98.1351 20.0359C98.3383 19.9468 98.5172 19.8103 98.6568 19.6378C99.0043 19.1984 98.8913 18.6725 98.8976 18.1592C98.9319 18.1702 98.9688 18.1702 99.0032 18.1592C99.6992 17.9649 100.66 17.8984 100.464 18.9841H100.467ZM97.0452 17.2763C97.6926 17.0102 97.5078 16.7303 98.322 16.9141C99.2725 17.1253 98.6388 17.1644 98.4604 17.7695C98.4044 17.9681 98.4678 18.1508 98.4477 18.3398C98.4782 18.47 98.4758 18.6058 98.4408 18.7348C98.4058 18.8639 98.3392 18.9822 98.247 19.0791C98.2544 19.5448 98.0527 19.7709 97.6387 19.7571C97.2902 19.8786 96.9691 19.8511 96.6079 19.8363C96.3967 19.8268 96.3682 20.0972 96.5118 20.1901C96.0736 20.2303 95.5001 20.3221 95.159 20.2039C94.9395 20.1282 94.7391 20.0057 94.5718 19.8448C94.5819 19.8122 94.5836 19.7776 94.577 19.7441C94.5703 19.7107 94.5554 19.6794 94.5335 19.6532C94.5117 19.627 94.4837 19.6066 94.452 19.594C94.4203 19.5813 94.386 19.5768 94.3521 19.5808C94.2107 19.3637 94.1327 19.1116 94.1267 18.8526C94.1208 18.5937 94.1871 18.3382 94.3183 18.1149C94.3443 18.0715 94.3725 18.0296 94.4028 17.9892C94.4531 17.9849 94.4998 17.961 94.5328 17.9227C94.5657 17.8844 94.5824 17.8347 94.5792 17.7843C95.2318 17.1876 96.27 17.5953 97.0452 17.2763ZM84.3814 12.038C84.1205 11.9324 83.8533 11.8363 83.5872 11.7497C83.5872 11.7286 83.5872 11.7075 83.5946 11.6853L83.6664 11.7064C83.9051 11.8173 84.1438 11.925 84.3814 12.038ZM90.718 8.22549C93.1365 8.32265 95.499 8.89612 97.8193 9.55302C93.391 11.5776 88.5372 12.7773 83.7593 11.3294C86.6541 10.1751 89.8161 10.2416 92.8788 9.85084C92.9908 9.83605 92.9929 9.65757 92.8788 9.67236C89.7485 10.0726 86.5316 10.0061 83.5851 11.2122C83.5583 11.1824 83.5237 11.1608 83.4852 11.15C83.4467 11.1391 83.4059 11.1395 83.3675 11.1509L83.2619 11.1013C83.7013 8.37757 88.6576 8.14312 90.7128 8.22549H90.718ZM75.0486 8.98378C74.6652 9.06087 74.2829 9.14536 73.9006 9.23196H73.8847C73.7041 9.19394 73.5225 9.16015 73.343 9.12107C73.8323 9.10424 74.3202 9.05662 74.8036 8.9785C74.8796 8.98166 74.962 8.98166 75.0433 8.98378H75.0486ZM78.971 8.81691H79.0195L78.9667 8.83275C78.9669 8.82745 78.9666 8.82214 78.9657 8.81691H78.971ZM79.2202 8.70497C79.3617 8.68384 79.5043 8.66061 79.6426 8.63526C79.4821 8.67645 79.3258 8.72503 79.1663 8.77256C79.1885 8.75407 79.2052 8.73001 79.2149 8.70285L79.2202 8.70497ZM70.6974 8.30787C70.6636 8.42193 70.6288 8.53599 70.6013 8.64899C70.6087 8.53071 70.6256 8.41137 70.6362 8.29203C70.6509 8.29731 70.6721 8.30153 70.6921 8.30787H70.6974ZM71.1294 9.13269C71.1968 9.63511 71.1939 10.1445 71.1209 10.6461C71.1202 10.1413 71.122 9.6368 71.1262 9.13269H71.1294ZM80.082 8.53704L80.0461 8.54444C80.0732 8.52919 80.0956 8.5067 80.1107 8.47947C80.1258 8.45224 80.1331 8.42135 80.1316 8.39024L80.5002 8.40081L80.082 8.53704ZM70.6964 12.5418C70.7215 12.5335 70.7451 12.521 70.7661 12.5048C70.7832 12.5289 70.8071 12.5473 70.8347 12.5576C70.8083 12.5967 70.783 12.64 70.7544 12.6749C70.7291 12.6305 70.7101 12.5851 70.6911 12.5418H70.6964ZM81.7612 8.14417H81.8013L81.7718 8.16318C81.7701 8.15669 81.768 8.15034 81.7654 8.14417H81.7612ZM71.5254 7.67315C71.4803 7.60548 71.4317 7.54026 71.3797 7.47777C72.1239 7.65097 72.866 7.83755 73.6059 8.0375C72.8977 8.03992 72.1947 7.91656 71.5296 7.67315H71.5254ZM70.1884 9.49599C70.1884 10.0156 70.201 10.5331 70.2496 11.0506C70.1657 10.5368 70.1466 10.0145 70.1926 9.49599H70.1884ZM71.4557 10.9745C71.5316 10.5494 71.567 10.1179 71.5613 9.68609L71.5972 9.76635C71.5878 10.1726 71.5404 10.5771 71.4557 10.9745ZM73.9365 10.118C74.5026 10.1529 75.0612 10.1666 75.6178 10.1529C75.0578 10.2022 74.494 10.1905 73.9365 10.118ZM78.0849 9.7051C78.0867 9.68126 78.0842 9.65729 78.0775 9.63434L78.3584 9.53612L78.4968 9.58576C78.3605 9.62695 78.2232 9.66708 78.0849 9.7051ZM78.9298 9.3344C79.0935 9.27843 79.2572 9.21718 79.4219 9.1612C79.7609 9.0746 80.0978 8.97427 80.4358 8.87077C80.0197 9.05665 79.5666 9.23302 79.0914 9.39883L78.9298 9.3344ZM64.4653 13.957C64.8656 14.71 65.213 15.4894 65.5415 16.2804C65.8425 17.0007 66.2259 17.3587 65.2416 16.9975C60.2641 15.1652 56.1326 11.4899 53.6011 6.85889L61.6645 13.5514C61.7522 13.6243 61.8757 13.4997 61.7913 13.4258C58.9905 11.1023 56.19 8.77889 53.3899 6.45546L53.2843 6.26008C56.196 7.28556 59.4541 8.49586 61.8124 10.5014C62.9361 11.4487 63.7799 12.6685 64.4653 13.957ZM57.5404 5.91473C58.0896 5.89713 58.6384 5.87424 59.1869 5.84608C61.9658 5.94797 64.7351 6.23019 67.4773 6.69097C64.1658 7.48383 60.6886 7.2122 57.5404 5.91473ZM66.9831 1.90152C70.446 1.63712 73.926 2.09937 77.1999 3.25862C74.1372 3.80463 71.4821 5.45849 68.5303 6.4016C68.4711 6.41955 68.412 6.43433 68.3539 6.45334C67.2355 6.24846 66.1139 6.06575 64.9849 5.92001C64.0598 5.79961 63.1293 5.70879 62.1989 5.62852C65.8085 5.30741 69.3934 4.75249 72.9311 3.96727C73.043 3.94192 72.9955 3.76978 72.8836 3.79512C69.0108 4.65594 65.0817 5.23933 61.1259 5.54087C59.8058 5.45145 58.4842 5.40287 57.1613 5.39512C59.6083 2.95974 63.6986 2.16449 66.9831 1.90258V1.90152ZM51.9864 3.72436C52.0423 3.87222 52.2113 4.17321 52.1163 4.33162C52.0476 4.44991 51.4002 4.42984 51.2862 4.43723C50.4413 4.52278 49.6017 4.50483 48.817 4.13624C48.7858 4.12106 48.751 4.11461 48.7164 4.11759C48.6818 4.12056 48.6487 4.13285 48.6205 4.15314C48.7019 4.03591 48.7927 3.92608 48.8687 3.80357C48.8746 3.7902 48.8795 3.77644 48.8835 3.76238C49.721 3.83842 50.5353 3.66311 51.3442 3.28291C51.4499 3.23222 51.5776 3.1773 51.7097 3.11393C51.8132 3.31671 51.9114 3.51948 51.9906 3.72542L51.9864 3.72436ZM47.9594 0.577164C48.5931 0.285677 49.401 1.00594 49.9058 1.19604C50.3927 1.37875 50.925 1.46746 51.3696 1.65967C51.4678 1.70192 51.5227 1.81175 51.6336 1.84344C51.7774 1.86698 51.9232 1.87582 52.0687 1.86984C52.4056 1.88779 52.6781 1.71459 52.5968 2.01558C52.5398 2.2268 52.2314 2.43169 51.8913 2.61017C51.8916 2.60736 51.8916 2.60453 51.8913 2.60172C51.7857 2.38416 51.4773 2.56053 51.5523 2.77598C51.3126 2.88159 51.0918 2.97136 50.9704 3.02311C50.2673 3.33618 49.492 3.45121 48.7283 3.35578C48.7197 3.32671 48.7038 3.3003 48.6822 3.27906C48.6606 3.25781 48.6339 3.24241 48.6047 3.23433C48.0968 3.08711 47.6552 2.76933 47.3543 2.33453L47.1071 1.74522L47.9594 0.577164ZM45.7796 3.25968C45.674 3.14034 45.6022 2.99565 45.4533 2.9175C45.3361 2.85624 45.166 2.86364 45.0182 2.84463C45.5171 2.39378 46.0984 2.04343 46.7301 1.81281C46.8653 2.47288 47.3036 2.99248 47.8697 3.32621C47.8574 3.35101 47.8508 3.37818 47.8501 3.40582C47.8495 3.43346 47.8549 3.46091 47.866 3.48624C47.877 3.51158 47.8935 3.5342 47.9142 3.55253C47.9349 3.57085 47.9593 3.58444 47.9858 3.59235C48.0714 3.6177 48.1569 3.63565 48.2414 3.65677C47.3532 3.86166 46.4598 4.00423 45.7796 3.25968ZM33.8181 8.44094C33.8396 8.46686 33.8674 8.48673 33.8989 8.49858C33.9304 8.51044 33.9645 8.51387 33.9977 8.50853C33.7199 8.58246 33.4369 8.64899 33.1528 8.7113L33.8181 8.44094ZM35.8248 6.7744C35.7719 6.7744 35.7191 6.78602 35.6706 6.79024C35.8416 6.73427 36.0127 6.68463 36.1859 6.63077C36.0634 6.6783 35.9399 6.72476 35.8205 6.7744H35.8248ZM33.6534 7.7249L33.3513 7.86219L33.3302 7.84424C33.5414 7.70905 33.7611 7.58549 33.9861 7.47143C33.8713 7.5531 33.759 7.63795 33.6492 7.72595L33.6534 7.7249ZM37.2875 9.41467C37.1132 9.3513 36.9368 9.2985 36.7594 9.24886C37.6013 9.32704 38.4327 9.49269 39.2402 9.74312C38.5962 9.58934 37.9423 9.4803 37.2832 9.41678L37.2875 9.41467ZM34.5532 9.23091C34.5678 9.26695 34.5953 9.2963 34.6303 9.31328L34.6715 9.33018C34.5437 9.308 34.4148 9.28265 34.2881 9.25836C34.3737 9.25308 34.4655 9.24147 34.5532 9.23091ZM48.4336 9.29638H48.4231C48.4582 9.29868 48.4935 9.29868 48.5287 9.29638C48.5626 9.29196 48.5947 9.27846 48.6216 9.25731C48.949 9.63117 49.3102 9.97652 49.6576 10.3324C49.6531 10.3472 49.6506 10.3624 49.6502 10.3778C49.314 9.94734 48.9017 9.58221 48.4336 9.30061V9.29638ZM43.6051 7.38272L43.4995 7.36899C43.5375 7.36899 43.5755 7.35737 43.6135 7.35209C43.6114 7.36688 43.6083 7.37638 43.6051 7.38694V7.38272ZM49.8668 10.8151C49.9932 11.0059 50.1394 11.1829 50.3029 11.3431C50.0726 11.2405 49.861 11.1002 49.6767 10.9281C49.7157 10.9286 49.7541 10.9184 49.7877 10.8984C49.8212 10.8785 49.8486 10.8496 49.8668 10.8151ZM46.2876 7.54113C46.1556 7.47992 46.018 7.43147 45.8768 7.39645C46.3266 7.46916 46.7676 7.58843 47.1927 7.75236C46.8947 7.66674 46.5927 7.59624 46.2876 7.54113ZM45.1016 7.34892C44.9432 7.33097 44.7848 7.3183 44.6253 7.30668C44.8418 7.30668 45.0583 7.30668 45.2727 7.3278C45.2188 7.32991 45.1576 7.34153 45.1016 7.34681V7.34892ZM47.0575 9.01968C47.1948 9.08516 47.3279 9.15381 47.4631 9.22034C47.7595 9.42523 48.0502 9.63645 48.3354 9.85401C48.9807 10.4877 49.6027 11.1308 50.0315 11.5786C48.9332 10.964 48.0809 9.80648 47.0575 9.01968ZM24.4695 15.7914C24.5593 16.066 24.8433 16.5751 24.6068 16.8C24.4125 16.9859 23.0057 16.1526 22.8114 16.0417C21.9654 15.5458 21.1475 15.0035 20.3612 14.4174C18.6482 13.1681 17.3429 11.6177 16.5012 9.72939C18.2152 11.4192 20.6622 12.1394 22.2527 13.9897C22.3277 14.0763 22.4534 13.9496 22.3784 13.863C20.7192 11.9345 18.1265 11.2375 16.4103 9.38193C17.4759 10.0314 18.6577 10.3842 19.8532 10.8172C22.334 11.7149 23.6563 13.3043 24.4695 15.7914ZM23.4134 4.52067C24.8119 4.22295 26.2415 4.09705 27.6705 4.14575C28.4098 4.16265 29.1491 4.21968 29.882 4.30311C30.0753 4.32423 31.8601 4.40872 32.0777 4.67169C32.2952 4.93466 29.2758 6.54311 28.9094 6.70787C27.7381 7.21606 26.516 7.59772 25.2637 7.84635C23.0701 8.29836 20.828 8.39764 18.5933 8.4082C19.7783 8.14312 20.9167 7.69427 22.0785 7.24014C24.1759 6.41849 26.2638 5.99077 28.4922 5.68978C28.6052 5.67499 28.5566 5.50285 28.4447 5.51763C26.4074 5.79328 24.4431 6.14602 22.5157 6.87895C20.8639 7.51262 19.2851 8.20543 17.5446 8.4082H16.9109L16.8285 8.39236C18.5109 6.37202 20.8555 5.09308 23.4134 4.52067Z" fill="#927A20"/>
<path id="Vector_2" fill-rule="evenodd" clip-rule="evenodd" d="M6.19016 8.21885C6.93511 10.384 7.54322 12.5939 8.01089 14.8354C8.11386 14.8268 8.21736 14.8268 8.32033 14.8354C8.3499 14.8702 8.37313 14.9072 8.40165 14.941C10.3639 15.62 12.0885 16.7459 13.4382 18.3437C14.8112 19.9638 16.3953 22.0137 16.6963 24.1618C16.7164 24.3013 16.615 24.4438 16.4587 24.3995C14.5577 23.8545 12.5025 23.2378 11.1993 21.6536C9.69643 19.8181 9.61511 17.2718 8.24217 15.3645V15.4321C8.25829 15.4632 8.2667 15.4978 8.2667 15.5329C8.2667 15.568 8.25829 15.6026 8.24217 15.6338V16.0562C8.77363 18.9193 9.06542 21.8217 9.11452 24.7332C9.14612 24.74 9.1749 24.7562 9.19699 24.7798C9.21907 24.8034 9.23341 24.8332 9.23808 24.8652C9.70699 27.2795 10.6459 29.6103 12.7982 30.9378C12.964 30.6664 13.1816 30.3253 13.4815 30.2799C13.8755 30.2197 14.3961 30.6273 14.7108 30.8956C14.5387 30.6611 14.3275 30.4985 14.0835 30.2323C13.8026 29.9261 13.7551 29.6367 13.9061 29.2343C14.1173 28.6809 14.4088 28.6714 14.884 28.475C15.4596 28.2374 15.6444 28.0599 15.9951 27.7135C16.183 27.5277 16.2971 27.3397 16.5601 27.2531C17.6627 26.8845 18.0217 28.2785 17.9351 29.0685C17.8116 30.2123 17.1441 31.1807 16.3911 32.0362C16.8674 32.8599 17.0596 33.7566 17.0945 34.7071C17.1156 35.2489 17.3141 36.5869 16.7776 36.9693C16.4967 37.1699 15.9592 37.1361 15.6413 37.1805C15.2125 37.2343 14.5387 37.4709 14.1205 37.2861C13.679 37.0886 13.4657 36.3419 13.3421 35.7748C13.1488 35.9026 12.9323 35.9638 12.7085 35.8371C12.3663 35.6502 12.4244 35.1939 12.3916 34.8697C12.3768 34.5655 12.3272 34.2639 12.2438 33.971C12.1597 33.7185 12.0402 33.4792 11.8889 33.2602C11.8521 33.1568 11.8228 33.051 11.8013 32.9434C11.7664 32.428 12.2818 31.7257 12.5976 31.2673C10.6966 30.094 9.68587 28.1687 9.12825 26.0692C9.08912 28.2516 8.90602 30.4291 8.58013 32.5875C8.64349 32.4343 8.89696 32.3984 8.94026 32.5991L9.01102 32.9624C10.1703 35.6763 10.7322 38.6078 10.6585 41.558C10.6569 41.5997 10.642 41.6397 10.6161 41.6722C10.5901 41.7048 10.5544 41.7282 10.5142 41.7391C10.474 41.7499 10.4314 41.7476 10.3926 41.7325C10.3537 41.7174 10.3208 41.6904 10.2984 41.6552C8.93399 39.5405 8.22825 37.0682 8.27069 34.5518C7.89472 36.7475 7.43425 38.9315 6.97696 41.1314C7.01361 41.1512 7.0424 41.1829 7.05853 41.2214C7.07467 41.2598 7.07719 41.3026 7.06567 41.3426L7.0456 41.4366C7.06648 41.4536 7.08335 41.475 7.09503 41.4993C7.10671 41.5236 7.11291 41.5501 7.1132 41.5771C7.1132 41.652 7.12587 41.726 7.13009 41.7999C7.54198 43.5446 8.05524 45.1794 9.22752 46.5925C10.1664 47.7268 11.2246 48.7047 11.9808 49.9816C11.9975 50.0111 12.0062 50.0445 12.0061 50.0785C12.0059 50.1124 11.9969 50.1458 11.98 50.1752C11.963 50.2046 11.9387 50.2291 11.9094 50.2463C11.8801 50.2634 11.8468 50.2727 11.8129 50.273C11.6003 50.2561 11.3888 50.2279 11.1792 50.1886C11.1497 50.2118 11.1143 50.2263 11.0769 50.2304C11.0396 50.2345 11.0018 50.2281 10.968 50.2118C10.9088 50.1812 10.855 50.1442 10.798 50.1115C7.8926 49.4134 6.52494 46.6569 6.43834 43.797C5.91164 46.4722 5.55886 49.1786 5.38223 51.8994C5.45217 51.9492 5.53513 51.9775 5.62091 51.9808C8.34992 53.3197 10.7805 55.1958 12.7669 57.4967C14.7533 59.7977 16.2547 62.476 17.1811 65.3711C17.2233 65.5021 17.0755 65.6647 16.9434 65.6098C14.2451 64.5358 11.4063 63.3857 9.5264 61.0686C7.58316 58.6754 6.3792 55.5103 5.35161 52.5996C5.30091 53.5445 5.27134 54.4901 5.2629 55.4363C5.45722 55.2853 5.73286 55.5567 5.53643 55.7099C5.48996 55.7458 5.44983 55.7859 5.40441 55.8229C6.85445 58.9722 7.35399 62.4573 6.71504 65.8791C6.61059 66.4277 6.47412 66.9697 6.30633 67.5024C6.43165 68.191 6.56824 68.8764 6.7161 69.5586C6.7161 69.5586 6.7161 69.5586 6.72349 69.5586C7.64601 69.1399 8.65112 68.9347 9.66395 68.9582C10.6768 68.9818 11.6712 69.2336 12.5733 69.6949C12.5985 69.7099 12.6201 69.7305 12.6362 69.7552C12.6524 69.7798 12.6627 69.8077 12.6665 69.8369C12.6702 69.8661 12.6673 69.8958 12.6579 69.9237C12.6486 69.9516 12.633 69.977 12.6123 69.998C11.9005 70.7953 10.817 70.9485 9.7936 71.0224C10.956 71.5202 12.1417 71.9588 13.3506 72.3383C13.3738 71.8747 13.4087 71.4258 13.4023 71.0498C13.4026 70.9987 13.423 70.9497 13.4592 70.9135C13.4954 70.8773 13.5444 70.8568 13.5956 70.8566C13.7614 70.8566 13.9261 70.8502 14.092 70.846C14.1351 70.8432 14.1776 70.857 14.211 70.8844C14.2443 70.9119 14.2659 70.951 14.2715 70.9939C14.6932 71.0182 15.0883 71.2079 15.3709 71.5219C15.523 71.298 15.4638 70.5778 15.5156 70.2968C15.5747 69.9737 15.7849 69.6632 15.8324 69.3199C15.8968 68.8278 15.7944 68.53 16.1334 68.1381C16.1577 68.1142 16.1878 68.097 16.2208 68.0883C16.2538 68.0796 16.2885 68.0797 16.3214 68.0885C17.5496 68.3758 18.2509 69.3136 18.3333 70.5535C18.4315 72.0584 17.9996 72.9741 16.6646 73.6764C16.6262 73.6975 16.5815 73.7044 16.5384 73.6959C16.4954 73.6874 16.4567 73.6641 16.4291 73.6299L16.1228 73.7535C16.1451 74.4527 16.0259 75.1493 15.7722 75.8013C15.7722 75.8013 15.7775 75.8013 15.7807 75.8013C16.4249 76.1181 16.9973 75.946 17.6098 75.6872C17.8063 75.6048 17.7028 75.9893 18.0069 75.5013C18.0671 75.4052 17.9658 75.0557 18.0154 74.912C18.1326 74.5804 18.4378 74.4832 18.7071 74.3153C18.8499 74.2488 18.9782 74.1546 19.0844 74.0382C19.1906 73.9218 19.2727 73.7856 19.326 73.6373C19.1148 73.4092 18.9015 73.1818 18.686 72.9551C18.517 72.8843 18.2467 72.9487 18.0524 72.8748C17.8221 72.7882 17.9214 72.4143 18.158 72.5009C18.7716 72.7312 19.5256 72.3953 19.7157 73.2729C19.8889 74.0735 19.2077 74.329 18.7251 74.7452C18.1896 75.2025 18.6195 75.5203 18.271 75.9269C18.0883 76.1434 17.9932 76.041 17.7662 76.0832C16.9392 76.2374 16.4439 76.5416 15.618 76.1456C15.3413 76.6662 14.9643 77.0696 14.4817 77.227C14.4531 77.2346 14.4231 77.2355 14.3941 77.2297C14.3651 77.224 14.3378 77.2116 14.3142 77.1937C14.2907 77.1758 14.2716 77.1527 14.2583 77.1263C14.2451 77.0998 14.238 77.0707 14.2377 77.0411C14.2303 76.3705 14.3201 75.552 14.0106 74.986C13.8913 74.7663 13.6547 74.7135 13.5407 74.4252C13.3548 73.9552 13.3294 73.349 13.3442 72.7354C11.9957 72.3109 10.6714 71.8128 9.37749 71.2431C9.43116 71.3067 9.48156 71.373 9.52851 71.4417C10.0661 72.2654 9.91927 73.4398 9.89181 74.3734C9.86707 75.7093 9.66536 77.0361 9.29195 78.319C9.75382 79.5589 10.2541 80.7819 10.7927 81.9879C10.8244 81.9879 10.8539 81.9795 10.8846 81.9784C10.9177 81.9777 10.9505 81.9859 10.9794 82.0021C11.0084 82.0183 11.0324 82.042 11.0491 82.0707C11.0658 82.0994 11.0746 82.132 11.0744 82.1651C11.0743 82.1983 11.0652 82.2309 11.0483 82.2594C11.0532 82.2709 11.0557 82.2833 11.0557 82.2958C11.0557 82.3083 11.0532 82.3207 11.0483 82.3322L11.0398 82.3512C11.0569 82.3454 11.0755 82.3454 11.0926 82.3512C11.085 82.3031 11.096 82.2539 11.1233 82.2136C11.1505 82.1733 11.1921 82.1448 11.2396 82.1339C11.2871 82.123 11.3369 82.1306 11.379 82.1551C11.4211 82.1795 11.4524 82.2191 11.4665 82.2657C11.4749 82.2942 11.4855 82.3206 11.4939 82.3502C13.9578 82.2446 16.3805 83.4908 18.5118 84.6134C20.8912 85.8649 23.0287 87.4649 24.5126 89.7398C24.5293 89.7693 24.538 89.8027 24.5378 89.8367C24.5377 89.8707 24.5287 89.904 24.5118 89.9334C24.4948 89.9628 24.4705 89.9873 24.4412 90.0045C24.4119 90.0217 24.3786 90.0309 24.3446 90.0312C21.1372 90.0851 18.2678 90.2425 15.4839 88.3996C14.1651 87.528 13.0572 86.3735 12.2406 85.02C13.6937 87.8712 15.3604 90.6083 17.2265 93.208C17.4166 93.0073 17.6509 92.8536 17.9108 92.7592C18.3924 92.6166 18.9258 92.926 19.3429 93.2323C19.5288 93.0433 19.6513 92.7898 19.9269 92.6726C20.3705 92.4856 21.0306 92.5416 21.4763 92.6282C21.8712 92.7053 22.2557 92.8616 22.4827 93.2165C22.7098 93.5713 22.6021 93.9621 22.7531 94.3338C22.9041 94.7056 23.1417 94.8788 23.1597 95.316C23.1755 95.6962 23.0604 96.2095 22.8291 96.521C22.5978 96.8326 22.2905 96.9076 21.9378 96.9899C21.7382 97.0364 21.5354 97.0734 21.3337 97.1135C21.528 98.4009 21.3696 100.387 19.5679 100.071C19.2006 99.9927 18.8216 99.988 18.4526 100.057C18.3533 100.077 18.2741 100.162 18.1696 100.162C17.9066 100.172 17.6975 100.149 17.4852 99.9692C16.9572 99.5236 17.0733 98.6861 17.2328 98.0978C17.165 98.1109 17.0982 98.1293 17.0332 98.1527C16.577 98.3312 16.2401 98.7811 15.7448 98.3566C15.2811 97.9605 15.5082 97.3268 15.7691 96.9044C16.1292 96.3225 16.4238 96.0468 16.3964 95.3202C16.3837 94.9717 16.3151 94.7774 16.427 94.4215C16.5506 94.0889 16.7315 93.7804 16.9614 93.5101C14.9237 90.6881 13.1222 87.703 11.5752 84.5849C12.3557 89.0501 11.0651 93.5396 9.12825 97.6384C9.05432 97.7947 8.81775 97.744 8.77445 97.5919C7.81234 94.2567 6.94316 90.7473 7.39518 87.2526C7.63174 85.4235 8.2897 82.5054 10.385 82.0492C9.92314 81.0086 9.49014 79.9563 9.086 78.8925C8.73411 79.8921 8.2254 80.8293 7.57894 81.669C7.46382 81.8168 7.26211 81.6774 7.24838 81.5328C7.04477 79.6019 7.04477 77.655 7.24838 75.7242C7.31069 75.1486 7.38461 74.5741 7.43636 74.0017C6.8886 72.1147 6.42496 70.2088 6.04547 68.2839C4.99781 71.241 3.32705 73.9932 2.98276 77.1636C2.98141 77.2097 2.96371 77.2538 2.93283 77.2881C2.90195 77.3223 2.85991 77.3445 2.8142 77.3506C2.7685 77.3566 2.72212 77.3463 2.68335 77.3213C2.64458 77.2964 2.61594 77.2585 2.60256 77.2143C1.11213 73.3665 0.587784 69.212 1.07543 65.1145C1.46619 61.8987 2.34276 58.065 4.84573 55.7954C4.85016 53.096 5.03043 50.3996 5.3854 47.7236C5.48186 47.004 5.5917 46.2883 5.71491 45.5765C5.20315 46.4065 4.53363 47.128 3.74421 47.7004C3.7819 47.6899 3.82214 47.6938 3.8571 47.7114C3.89205 47.7289 3.9192 47.7589 3.93326 47.7954C4.42223 48.8357 4.50144 50.2847 4.16454 51.3936C3.93537 52.1455 3.00283 51.5974 2.40084 51.2468C2.10197 51.834 1.69748 52.4455 1.13352 52.5046C1.08243 52.504 1.03359 52.4835 0.997463 52.4474C0.961336 52.4113 0.940798 52.3624 0.940248 52.3113C0.940248 52.0674 1.0881 51.2468 0.940248 51.0282C0.773382 50.7779 0.710016 50.9743 0.617079 50.8592C0.405857 50.6015 0.399521 50.6913 0.254833 50.3491C0.258465 50.2551 0.266926 50.1613 0.280182 50.0682C0.323355 49.7542 0.292614 49.4345 0.190411 49.1346C0.148167 48.9899 -0.0208092 48.8737 -0.0715027 48.7269C-0.282724 48.1471 -0.459093 47.4015 -0.345034 46.7794C-0.226751 46.1268 0.249554 45.8458 0.875826 45.8532C1.15561 45.0425 1.61522 44.3056 2.22025 43.6977C2.25664 43.6617 2.30579 43.6414 2.35702 43.6414C2.40824 43.6414 2.45739 43.6617 2.49378 43.6977C2.67438 43.8857 2.6089 44.0145 2.68705 44.2353C2.83068 44.6461 3.2658 44.8573 3.46012 45.247C3.79702 45.925 3.67134 46.6823 3.51398 47.3941C4.3907 46.7663 5.11302 45.9472 5.6262 44.9988C5.64456 44.961 5.67645 44.9314 5.71556 44.916C5.75467 44.9006 5.79816 44.9003 5.83742 44.9154C6.47108 41.4303 7.33498 37.9842 7.94963 34.4959C7.45009 35.8107 6.69075 36.946 5.34633 37.8585C5.31316 37.877 5.2753 37.8854 5.23742 37.8826C5.19954 37.8798 5.16331 37.866 5.1332 37.8429C5.10309 37.8197 5.08042 37.7883 5.068 37.7524C5.05557 37.7165 5.05393 37.6778 5.06329 37.6409C5.74237 35.1887 6.23663 32.466 8.30343 30.7678C8.3352 30.7418 8.37441 30.7267 8.41538 30.7245C8.43825 30.7018 8.46664 30.6854 8.49775 30.677C8.54105 30.2651 8.57907 29.8521 8.60864 29.4371C8.87472 25.7487 8.74869 22.0425 8.23267 18.3807C8.13656 23.2388 7.48389 28.1529 4.13181 31.9306C4.10775 31.9542 4.07796 31.9712 4.04535 31.9798C4.01275 31.9885 3.97846 31.9885 3.94585 31.9798C3.91325 31.9712 3.88345 31.9542 3.85939 31.9306C3.83533 31.907 3.81784 31.8775 3.80864 31.845C2.73774 26.1209 2.88349 19.5129 7.75953 15.5641C7.28049 13.1078 6.63154 10.6877 5.81735 8.32129C5.73603 8.08578 6.10989 7.98439 6.19016 8.21568M17.5729 28.7358C17.1885 28.4218 16.8037 28.1092 16.4186 27.798C16.3056 27.9406 16.1947 28.0885 16.0785 28.2363C15.9306 28.4104 15.763 28.5667 15.579 28.702C15.4945 28.7675 15.3477 28.739 15.2621 28.8077C15.2378 28.8267 14.4542 29.9588 14.4785 30.0422C14.5239 30.1986 14.9009 30.4298 15.015 30.6073C15.255 31.0059 15.4096 31.4501 15.4691 31.9116C15.521 32.0546 15.5564 32.203 15.5747 32.3541C16.3214 31.5715 17.0966 30.7097 17.4092 29.6642C17.4842 29.4276 17.651 28.9566 17.5729 28.7358ZM12.5543 33.7122C12.6468 33.9804 12.7088 34.2581 12.7391 34.5402C12.7898 34.9194 12.6335 35.4368 13.2513 35.2795C13.253 35.2449 13.2636 35.2113 13.2821 35.1821C13.3006 35.1528 13.3263 35.1288 13.3568 35.1124C13.3874 35.0961 13.4216 35.0879 13.4562 35.0886C13.4908 35.0894 13.5246 35.0991 13.5544 35.1168C13.7487 34.9225 13.9515 34.5825 14.0824 34.4219C14.4553 33.9657 14.8059 33.4926 15.1449 33.0099C15.2864 32.8082 15.6223 33.0015 15.4786 33.2053C14.9925 33.9205 14.4605 34.6035 13.886 35.2499C13.8226 35.3186 13.7519 35.3999 13.6748 35.4812C13.7857 36.0504 13.9578 36.8267 14.5281 36.9333C15.336 37.0823 16.54 36.6461 16.6984 35.8181C16.9096 34.7134 16.653 33.3384 16.1165 32.3425C15.9475 32.5262 15.7775 32.7068 15.6106 32.8811C15.5888 32.9056 15.5603 32.9233 15.5286 32.9319C15.4969 32.9406 15.4634 32.9398 15.4322 32.9296C15.3769 32.9365 15.3211 32.9213 15.277 32.8873C15.2329 32.8533 15.204 32.8032 15.1966 32.748C15.1819 32.5854 15.165 32.4217 15.1438 32.258C14.939 31.6592 14.3254 30.7234 13.7276 30.734C13.4953 30.734 13.2893 30.9452 13.1246 31.1564C13.1468 31.1887 13.1588 31.2268 13.1591 31.2659C13.1594 31.3051 13.148 31.3434 13.1263 31.376C13.1045 31.4085 13.0735 31.4338 13.0372 31.4485C13.001 31.4632 12.9611 31.4667 12.9228 31.4585C12.8943 31.5028 12.869 31.5461 12.8468 31.5831C12.3948 32.3192 12.2417 32.8694 12.5543 33.7122ZM16.3953 73.2265C16.4267 73.2112 16.4625 73.2074 16.4964 73.2157C16.5304 73.224 16.5604 73.2439 16.5812 73.2719C17.5412 72.7269 17.9636 72.0046 17.9457 70.865C17.9351 70.205 17.8401 69.5692 17.3606 69.0696C16.9128 68.5997 16.4207 68.2554 16.2073 69.0517C16.1493 69.2724 16.2422 69.5354 16.1852 69.7667C16.1017 70.1067 15.9856 70.2673 15.9454 70.6358C15.8916 71.1143 16.013 71.5092 15.6085 71.8398C15.8835 72.301 16.0507 72.8183 16.0975 73.3532C16.1989 73.3078 16.2992 73.2666 16.3953 73.2265ZM13.8248 73.557C13.9061 74.0576 14.2292 74.3871 14.4246 74.8043C14.6887 75.3683 14.6295 76.0801 14.6126 76.7317C15.3339 76.2807 15.7353 75.0187 15.7247 73.8274C15.7026 73.8083 15.6848 73.7848 15.6722 73.7584C15.6597 73.7321 15.6528 73.7034 15.6519 73.6742C15.651 73.6451 15.6562 73.616 15.6671 73.5889C15.678 73.5619 15.6943 73.5373 15.7152 73.5169C15.636 72.4006 15.1776 71.4269 14.2535 71.3783C14.214 71.3766 14.176 71.3624 14.1451 71.3377C14.1142 71.313 14.0919 71.2792 14.0814 71.241C13.5533 71.2674 13.8079 72.2189 13.8153 72.6509C13.8195 72.9382 13.7825 73.2687 13.829 73.557H13.8248ZM15.6645 88.0669C17.8823 89.5391 20.2533 89.7947 22.8587 89.6901C23.7986 89.6532 24.2169 89.8686 23.3868 88.8452C22.9995 88.3705 22.5757 87.9266 22.1194 87.5177C21.1997 86.7077 20.1976 85.9962 19.1296 85.3949C16.9339 84.1392 14.2166 82.647 11.6038 82.7272L11.6376 82.8328C13.7766 84.7324 16.2112 86.2702 18.8455 87.3857C18.9511 87.4301 18.8592 87.5843 18.7547 87.5399C16.2077 86.4596 13.8457 84.9867 11.7548 83.175C12.5149 85.1741 13.8822 86.8848 15.6645 88.0669ZM21.8343 96.6214C22.3856 96.4101 22.8407 95.9571 22.7732 95.3202C22.7161 94.7922 22.5155 94.9728 22.393 94.6422C22.0561 93.7234 22.4151 93.1024 20.9947 92.9672C20.4033 92.9102 20.1941 93.001 19.6999 93.3897C19.6703 93.4129 19.6481 93.433 19.6291 93.4509C20.3251 94.0202 20.0273 95.1143 20.0104 95.9201C20.0085 95.957 19.9963 95.9927 19.9752 96.0231C19.9541 96.0535 19.925 96.0773 19.8911 96.092C19.8572 96.1068 19.8198 96.1117 19.7832 96.1063C19.7467 96.101 19.7123 96.0855 19.684 96.0616C19.6995 96.3988 19.6639 96.7363 19.5784 97.0628C19.5896 97.0562 19.6017 97.0512 19.6143 97.048C20.3188 96.9139 21.1615 96.8738 21.8343 96.6182V96.6214ZM18.4389 99.6313C18.6797 99.588 18.8106 99.5383 19.0578 99.5668C19.7062 99.6429 20.2396 99.8647 20.7317 99.2859C21.2091 98.723 21.0697 97.8633 20.9588 97.1948C20.5427 97.2719 20.1276 97.3469 19.7147 97.4282C19.6681 97.4377 19.6196 97.4298 19.5784 97.4061C19.5372 97.3824 19.506 97.3444 19.4908 97.2994C19.4016 97.5026 19.2651 97.6815 19.0926 97.8211C18.6533 98.1686 18.1273 98.0556 17.6141 98.0619C17.625 98.0963 17.625 98.1332 17.6141 98.1675C17.4197 98.8635 17.3532 99.8245 18.4389 99.6281V99.6313ZM16.7312 96.2095C16.465 96.8569 16.1852 96.6721 16.3689 97.4863C16.5801 98.4368 16.6192 97.8031 17.2244 97.6247C17.4229 97.5687 17.6056 97.6321 17.7947 97.612C17.9249 97.6425 18.0606 97.6402 18.1897 97.6051C18.3187 97.5701 18.437 97.5035 18.5339 97.4113C18.9997 97.4187 19.2257 97.217 19.212 96.803C19.3334 96.4545 19.306 96.1334 19.2912 95.7723C19.2817 95.561 19.552 95.5325 19.645 95.6761C19.6851 95.2379 19.777 94.6644 19.6587 94.3233C19.583 94.1038 19.4605 93.9034 19.2996 93.7361C19.267 93.7462 19.2324 93.7479 19.199 93.7413C19.1655 93.7346 19.1343 93.7197 19.108 93.6978C19.0818 93.676 19.0614 93.648 19.0488 93.6163C19.0361 93.5846 19.0316 93.5503 19.0356 93.5164C18.8186 93.3751 18.5664 93.297 18.3075 93.291C18.0485 93.2851 17.793 93.3514 17.5697 93.4826C17.5264 93.5086 17.4844 93.5368 17.444 93.5671C17.4397 93.6175 17.4159 93.6641 17.3776 93.6971C17.3393 93.73 17.2896 93.7467 17.2392 93.7435C16.6425 94.3961 17.0501 95.4343 16.7312 96.2095ZM11.4929 83.5457C11.3873 83.2848 11.2912 83.0176 11.2046 82.7515C11.1834 82.7515 11.1623 82.7515 11.1401 82.7589L11.1613 82.8307C11.2721 83.0694 11.3799 83.3081 11.4929 83.5457ZM7.68032 89.8823C7.77749 92.3008 8.35095 94.6633 9.00785 96.9836C11.0324 92.5554 12.2321 87.7015 10.7842 82.9237C9.6299 85.8184 9.69643 88.9804 9.30567 92.0431C9.29089 92.1551 9.11241 92.1572 9.12719 92.0431C9.52746 88.9128 9.46092 85.6959 10.667 82.7494C10.6372 82.7227 10.6157 82.688 10.6048 82.6495C10.594 82.611 10.5943 82.5702 10.6057 82.5318L10.5561 82.4262C7.83241 82.8656 7.59795 87.8219 7.68032 89.8771V89.8823ZM8.43861 74.2129C8.51571 73.8295 8.60019 73.4472 8.68679 73.0649V73.049C8.64878 72.8685 8.61498 72.6868 8.5759 72.5073C8.55907 72.9966 8.51145 73.4845 8.43333 73.9679C8.4365 74.0439 8.4365 74.1263 8.43861 74.2076V74.2129ZM8.27175 78.1353V78.1838L8.28759 78.131C8.28228 78.1312 8.27698 78.1309 8.27175 78.13V78.1353ZM8.1598 78.3845C8.13868 78.526 8.11544 78.6686 8.09009 78.8069C8.13128 78.6464 8.17986 78.4901 8.22739 78.3306C8.2089 78.3528 8.18484 78.3695 8.15769 78.3792L8.1598 78.3845ZM7.7627 69.8617C7.87676 69.8279 7.99082 69.7931 8.10382 69.7656C7.98554 69.773 7.8662 69.7899 7.74686 69.8005C7.75214 69.8152 7.75636 69.8364 7.7627 69.8564V69.8617ZM8.58752 70.2937C9.08994 70.3611 9.59929 70.3582 10.1009 70.2852C9.5961 70.2845 9.09164 70.2863 8.58752 70.2905V70.2937ZM7.99188 79.2463L7.99927 79.2104C7.98403 79.2375 7.96153 79.2599 7.93431 79.275C7.90708 79.2901 7.87618 79.2974 7.84508 79.2959L7.85564 79.6645L7.99188 79.2463ZM11.9966 69.8607C11.9884 69.8858 11.9759 69.9094 11.9597 69.9304C11.9837 69.9475 12.0021 69.9714 12.0125 69.999C12.0516 69.9726 12.0949 69.9473 12.1297 69.9187C12.0853 69.8934 12.0399 69.8744 11.9966 69.8554V69.8607ZM7.599 80.9255V80.9656L7.61802 80.9361C7.61152 80.9344 7.60517 80.9323 7.599 80.9297V80.9255ZM7.12798 70.6897C7.06031 70.6446 6.99509 70.596 6.9326 70.544C7.1058 71.2882 7.29238 72.0303 7.49234 72.7702C7.49475 72.062 7.37139 71.359 7.12798 70.6939V70.6897ZM8.95082 69.3527C9.47043 69.3527 9.98792 69.3653 10.5054 69.4139C9.99163 69.3301 9.46937 69.3109 8.95082 69.3569V69.3527ZM10.4294 70.62C10.0042 70.6959 9.57278 70.7313 9.14092 70.7256L9.22119 70.7615C9.62744 70.7521 10.0319 70.7047 10.4294 70.62ZM9.57287 73.1008C9.60772 73.6669 9.62145 74.2256 9.60772 74.7821C9.65701 74.2221 9.64532 73.6583 9.57287 73.1008ZM9.15993 77.2492C9.13609 77.251 9.11213 77.2485 9.08917 77.2418L8.99095 77.5227L9.04059 77.6611C9.08178 77.5248 9.12191 77.3875 9.15993 77.2492ZM8.78924 78.0941C8.73326 78.2578 8.67201 78.4215 8.61604 78.5862C8.52943 78.9252 8.4291 79.2621 8.32561 79.6001C8.51148 79.184 8.68785 78.7309 8.85366 78.2557L8.78924 78.0941ZM13.4118 63.6296C14.1648 64.0299 14.9442 64.3774 15.7353 64.7058C16.4555 65.0068 16.8135 65.3902 16.4524 64.4059C14.62 59.4284 10.9448 55.2969 6.31372 52.7655L13.0063 60.8288C13.0791 60.9165 12.9545 61.0401 12.8806 60.9556C10.5572 58.1548 8.23372 55.3543 5.91029 52.5542L5.71491 52.4486C6.74039 55.3603 7.95069 58.6184 9.95624 60.9767C10.9036 62.1004 12.1234 62.9442 13.4118 63.6296ZM5.36956 56.7047C5.35196 57.2539 5.32908 57.8027 5.30091 58.3512C5.40281 61.1301 5.68503 63.8994 6.1458 66.6416C6.93866 63.3301 6.66703 59.8529 5.36956 56.7047ZM1.35635 66.1474C1.09196 69.6103 1.5542 73.0903 2.71345 76.3642C3.25946 73.3015 4.91332 70.6464 5.85643 67.6946C5.87438 67.6354 5.88917 67.5763 5.90818 67.5182C5.70329 66.3998 5.52058 65.2782 5.37484 64.1492C5.25445 63.2241 5.16362 62.2937 5.08336 61.3632C4.76224 64.9728 4.20732 68.5577 3.4221 72.0954C3.39675 72.2073 3.22461 72.1598 3.24995 72.0479C4.11077 68.1752 4.69417 64.246 4.9957 60.2902C4.90628 58.9701 4.8577 57.6485 4.84996 56.3256C2.41457 58.7726 1.61933 62.8629 1.35741 66.1474H1.35635ZM3.1792 51.1507C3.32705 51.2066 3.62804 51.3756 3.78646 51.2806C3.90474 51.2119 3.88468 50.5645 3.89207 50.4505C3.97761 49.6056 3.95966 48.766 3.59108 47.9813C3.57589 47.9501 3.56944 47.9153 3.57242 47.8807C3.5754 47.8462 3.58768 47.813 3.60798 47.7849C3.49075 47.8662 3.38091 47.957 3.2584 48.033C3.24503 48.0389 3.23127 48.0438 3.21721 48.0478C3.29325 48.8853 3.11794 49.6996 2.73774 50.5086C2.68705 50.6142 2.63213 50.742 2.56877 50.874C2.77154 50.9775 2.97431 51.0757 3.18025 51.1549L3.1792 51.1507ZM0.0319958 47.1237C-0.259491 47.7574 0.460775 48.5653 0.650873 49.0701C0.83358 49.557 0.922293 50.0893 1.11451 50.5339C1.15675 50.6321 1.26658 50.687 1.29827 50.7979C1.32181 50.9417 1.33065 51.0875 1.32467 51.233C1.34262 51.5699 1.16942 51.8424 1.47041 51.7611C1.68163 51.7041 1.88652 51.3957 2.065 51.0556C2.06219 51.0559 2.05936 51.0559 2.05655 51.0556C1.83899 50.95 2.01537 50.6416 2.23081 50.7166C2.33642 50.4769 2.42619 50.2561 2.47794 50.1347C2.79101 49.4316 2.90604 48.6563 2.81061 47.8926C2.78154 47.884 2.75514 47.8681 2.73389 47.8465C2.71264 47.8249 2.69725 47.7982 2.68916 47.769C2.54195 47.2611 2.22416 46.8195 1.78936 46.5186L1.20005 46.2715L0.0319958 47.1237ZM2.71451 44.9439C2.59517 44.8383 2.45048 44.7665 2.37233 44.6176C2.31108 44.5004 2.31847 44.3303 2.29946 44.1825C1.84861 44.6814 1.49827 45.2627 1.26764 45.8944C1.92771 46.0296 2.44731 46.4679 2.78104 47.034C2.80585 47.0217 2.83301 47.0151 2.86065 47.0145C2.88829 47.0138 2.91574 47.0192 2.94107 47.0303C2.96641 47.0413 2.98903 47.0578 3.00736 47.0785C3.02568 47.0992 3.03927 47.1236 3.04718 47.1501C3.07253 47.2357 3.09048 47.3212 3.1116 47.4057C3.31649 46.5175 3.45906 45.6241 2.71451 44.9439ZM7.89577 32.9825C7.92169 33.0039 7.94156 33.0318 7.95341 33.0632C7.96527 33.0947 7.9687 33.1288 7.96336 33.162C8.03729 32.8842 8.10382 32.6012 8.16613 32.3171L7.89577 32.9825ZM6.22923 34.9891C6.22923 34.9363 6.24085 34.8834 6.24508 34.8349C6.1891 35.006 6.13947 35.177 6.0856 35.3502C6.13313 35.2277 6.1796 35.1042 6.22923 34.9848V34.9891ZM7.17973 32.8177L7.31702 32.5157L7.29907 32.4945C7.16389 32.7058 7.04032 32.9254 6.92626 33.1504C7.00794 33.0356 7.09278 32.9233 7.18079 32.8135L7.17973 32.8177ZM8.8695 36.4518C8.80614 36.2775 8.75333 36.1011 8.70369 35.9237C8.78187 36.7656 8.94752 37.597 9.19795 38.4045C9.04417 37.7605 8.93513 37.1066 8.87161 36.4475L8.8695 36.4518ZM8.68574 33.7175C8.72178 33.7321 8.75113 33.7596 8.76812 33.7946L8.78501 33.8358C8.76284 33.708 8.73749 33.5792 8.7132 33.4524C8.70792 33.538 8.6963 33.6298 8.68574 33.7175ZM8.75122 47.5979V47.5874C8.75351 47.6225 8.75351 47.6578 8.75122 47.693C8.74679 47.7269 8.73329 47.759 8.71214 47.7859C9.086 48.1133 9.43135 48.4745 9.78726 48.8219C9.80199 48.8174 9.81727 48.815 9.83267 48.8146C9.40217 48.4783 9.03704 48.066 8.75544 47.5979H8.75122ZM6.83755 42.7694L6.82382 42.6638C6.82382 42.7018 6.8122 42.7398 6.80692 42.7778C6.82171 42.7757 6.83121 42.7726 6.84177 42.7694H6.83755ZM10.2699 49.0311C10.4608 49.1575 10.6378 49.3037 10.798 49.4672C10.6953 49.2369 10.555 49.0253 10.3829 48.841C10.3835 48.88 10.3732 48.9184 10.3533 48.952C10.3333 48.9855 10.3045 49.0129 10.2699 49.0311ZM6.99597 45.4519C6.93475 45.3199 6.8863 45.1823 6.85128 45.0411C6.92399 45.4909 7.04327 45.9319 7.20719 46.357C7.12157 46.0591 7.05107 45.757 6.99597 45.4519ZM6.80375 44.2659C6.7858 44.1075 6.77313 43.9491 6.76151 43.7896C6.76151 44.0061 6.76151 44.2226 6.78263 44.437C6.78475 44.3831 6.79636 44.3219 6.80164 44.2659H6.80375ZM8.47452 46.2218C8.54 46.3591 8.60864 46.4922 8.67518 46.6274C8.88006 46.9238 9.09128 47.2146 9.30884 47.4997C9.94251 48.145 10.5857 48.767 11.0335 49.1958C10.4188 48.0975 9.26132 47.2452 8.47452 46.2218ZM15.2463 23.6338C15.5209 23.7236 16.0299 24.0077 16.2549 23.7711C16.4407 23.5768 15.6075 22.17 15.4966 21.9757C15.0006 21.1297 14.4583 20.3118 13.8723 19.5255C12.6229 17.8125 11.0725 16.5072 9.18422 15.6655C10.874 17.3795 11.5943 19.8265 13.4446 21.417C13.5312 21.492 13.4044 21.6177 13.3178 21.5427C11.3894 19.8836 10.6923 17.2908 8.83676 15.5746C9.48627 16.6402 9.83901 17.822 10.272 19.0175C11.1697 21.4983 12.7591 22.8206 15.2463 23.6338ZM3.9755 22.5777C3.67778 23.9762 3.55188 25.4058 3.60058 26.8349C3.61748 27.5741 3.67451 28.3134 3.75794 29.0463C3.77906 29.2396 3.86355 31.0244 4.12652 31.242C4.38949 31.4595 5.99795 28.4401 6.1627 28.0737C6.67089 26.9024 7.05255 25.6803 7.30118 24.428C7.7532 22.2344 7.85247 19.9923 7.86303 17.7576C7.59795 18.9426 7.1491 20.081 6.69498 21.2428C5.87333 23.3402 5.4456 25.4281 5.14461 27.6565C5.12983 27.7695 4.95768 27.7209 4.97247 27.609C5.24811 25.5717 5.60085 23.6074 6.33379 21.68C6.96745 20.0282 7.66026 18.4494 7.86303 16.7089V16.0752L7.84719 15.9929C5.82686 17.6752 4.54791 20.0198 3.9755 22.5777Z" fill="#927A20"/>
</g>
<defs>
<clipPath id="clip0_89_2753">
<rect width="100" height="101.381" fill="white" transform="matrix(0 1 -1 0 101 0.164307)"/>
</clipPath>
</defs>
</svg>
