<svg width="76" height="156" viewBox="0 0 76 156" fill="none" xmlns="http://www.w3.org/2000/svg">
<g id="Modo_de_aislamiento" clip-path="url(#clip0_66_401)">
<path id="Vector" d="M18.6724 72.9103L20.4209 69.1842C22.0029 69.0801 24.251 68.2059 26.3326 70.454C26.8629 70.806 27.4633 71.0386 28.0922 71.1356C28.7212 71.2327 29.3638 71.1919 29.9754 71.016C32.6134 70.2165 34.9532 68.6488 36.6958 66.5131C38.4385 64.3774 39.505 61.7707 39.759 59.026C40.295 56.5036 39.9306 53.8732 38.7289 51.5915C37.5273 49.3099 35.5643 47.5213 33.1811 46.5364C30.4881 45.6419 27.6881 45.1099 24.8547 44.9544L24.48 45.8287L25.7706 48.4723C26.8004 48.2151 27.8534 48.0617 28.9138 48.0144C30.1661 48.1868 31.3121 48.811 32.1364 49.7694C32.9606 50.7278 33.4062 51.9544 33.3893 53.2183C33.3893 55.9661 31.5783 57.8603 28.331 58.3183C27.2112 58.5129 26.0593 58.2721 25.1112 57.6452C24.1631 57.0183 23.4905 56.0527 23.2311 54.9461C22.336 52.2192 21.3368 49.5547 20.3793 46.8278C14.4051 49.5964 11.4492 58.235 14.3843 63.6263C14.5092 63.8761 14.8839 64.001 15.1545 64.1884L16.7989 67.5814L18.8805 70.4332C15.7534 68.2561 13.6035 64.9408 12.8915 61.1977C12.1794 57.4545 12.9619 53.5814 15.0712 50.4082C15.6882 49.4286 16.4536 48.5508 17.3401 47.8062C19.7964 46.2034 19.8381 43.8928 19.9421 41.3324C20.067 38.3765 20.7748 35.4623 21.0662 32.5064C21.0646 31.6269 20.8877 30.7565 20.5458 29.9461C19.6147 27.2778 18.8568 24.5521 18.2769 21.7862C18.2121 21.2661 18.2584 20.7382 18.4127 20.2373C18.567 19.7364 18.8259 19.2739 19.1721 18.8804C19.5184 18.487 19.9442 18.1714 20.4214 17.9547C20.8986 17.7379 21.4163 17.6249 21.9405 17.623C17.2569 20.8703 18.9846 25.2625 21.4617 29.7171C23.5433 33.5889 26.52 35.0044 29.6008 33.8803L22.0446 28.8012C25.8747 26.5531 20.4834 26.8861 21.1703 25.7204C22.8147 24.867 24.709 24.4923 25.4584 23.3474C26.2078 22.2025 25.6041 20.4123 25.6041 19.0801C26.7282 19.434 27.4151 21.1617 26.4992 23.2433C26.062 24.2217 25.2086 25.0127 24.7923 25.991C24.464 26.8096 24.3703 27.7034 24.5217 28.5722C24.5217 28.822 25.8331 28.9885 26.6033 28.9261C31.2869 28.593 31.3493 28.5514 31.266 23.7637C31.162 18.6014 30.8705 13.4598 30.8705 8.29744C30.7864 6.46104 31.0768 4.62672 31.724 2.9061C32.0276 2.36322 32.4595 1.90294 32.9821 1.56548C33.5046 1.22802 34.1018 1.02365 34.7215 0.970215C35.2978 1.13777 35.8282 1.43497 36.272 1.83907C36.7158 2.24317 37.0612 2.74344 37.2819 3.30161C37.733 4.90521 37.9227 6.57102 37.8439 8.235C37.8439 14.6463 37.8439 21.0576 37.8439 27.469C37.9836 28.4674 37.8657 29.4849 37.5014 30.4249C37.1371 31.3649 36.5384 32.1961 35.7623 32.8395C35.5125 33.006 35.2211 33.4432 35.2835 33.6305C36.4076 36.8778 34.8672 40.6247 37.3651 43.6846C38.1347 45.1715 38.5883 46.8016 38.6973 48.4723C38.8014 48.9303 38.6973 49.5547 38.8431 49.9086C40.1262 51.8148 40.9596 53.9876 41.2806 56.2629C41.6015 58.5382 41.4015 60.8567 40.6957 63.0435C40.9663 63.3349 41.0287 63.439 41.0912 63.439C48.4809 63.2933 52.3526 68.081 55.8289 73.6805C59.2715 79.5561 61.9373 85.8534 63.7598 92.4149C67.4026 104.259 71.087 116.083 74.3551 128.031C76.2286 134.838 75.5416 138.647 72.8356 143.581C72.8356 142.831 72.6899 142.352 72.8356 142.04C73.8917 139.858 74.4986 137.487 74.6202 135.066C74.7418 132.645 74.3755 130.224 73.5433 127.948C68.943 112.669 64.3635 97.3691 59.097 82.3399C57.2652 77.1359 53.5183 72.5772 50.4584 67.7687C49.6674 66.5614 48.5433 65.1667 46.5242 66.0826C46.2119 66.2283 45.4625 65.4165 44.7548 64.9378V67.3524C47.0108 69.3808 49.0543 71.6336 50.8539 74.076C53.776 78.4194 56.1726 83.094 57.9938 88.0019C62.4484 101.636 66.3202 115.479 70.4834 129.238C71.6976 133.674 71.2383 138.4 69.1928 142.519C69.0262 142.019 68.6099 141.416 68.7765 141.062C70.5542 136.81 70.7024 132.052 69.1928 127.698C65.0296 111.732 60.9913 95.6413 53.7681 80.6538C52.2291 77.6407 50.4249 74.7707 48.3768 72.0776C47.4154 70.9317 46.2051 70.0204 44.8381 69.4132C41.8406 67.9353 38.8847 67.3316 36.3451 70.454C35.4242 71.3532 34.3966 72.1361 33.2852 72.7854C33.3127 73.5044 33.586 74.1923 34.0596 74.734C34.5331 75.2758 35.1783 75.6387 35.8872 75.7621C36.518 76.0438 37.0743 76.4691 37.5116 77.004C37.9489 77.5389 38.2551 78.1686 38.4059 78.8428C38.5516 79.5922 36.9904 81.4032 36.1578 81.424C35.4674 81.3871 34.7933 81.2004 34.1822 80.8769C33.5711 80.5534 33.0378 80.1008 32.6191 79.5506C31.726 77.8223 31.0279 76.0001 30.5375 74.1176C26.6241 73.7429 26.062 74.3049 25.3959 79.1343L27.4775 77.9061L27.7898 78.1975L24.2927 81.5073L24.6049 81.9028L26.5824 80.3832C25.5833 82.4648 23.2311 83.5889 23.9596 86.2741L25.729 85.504L25.958 85.7746L22.2943 89.1051L22.5441 89.4382L25.3751 87.4815L25.7082 87.8562C24.8495 88.7957 23.9242 89.6723 22.9396 90.479C22.1574 90.949 21.5748 91.6897 21.3024 92.5606C21.03 93.4316 21.0867 94.3723 21.4617 95.2042C23.689 102.427 25.6249 109.775 27.8314 116.978C28.0729 117.843 28.24 118.728 28.331 119.621C24.8963 114.292 26.0204 106.84 20.1295 102.677L22.2111 106.674L21.6491 106.944L20.7331 105.05H20.3793C20.4304 105.534 20.5138 106.014 20.6291 106.486C23.8139 116.457 26.8739 126.428 30.2669 136.337C31.4287 139.293 32.8207 142.153 34.4301 144.892C36.3125 148.934 39.5435 152.194 43.5683 154.113C44.0664 154.353 44.4802 154.737 44.7548 155.217C41.1646 154.237 38.0331 152.027 35.908 148.972C30.9843 141.189 27.2911 132.694 24.9588 123.785C22.8772 116.624 20.7956 109.463 18.4226 101.553C17.8397 103.406 17.4442 104.551 17.132 105.716C15.4459 111.732 13.7598 117.727 12.1361 123.764C11.8964 124.437 11.8964 125.172 12.1361 125.845C12.6571 126.774 12.8767 127.842 12.7649 128.901C12.653 129.96 12.2151 130.958 11.5117 131.757C11.0701 132.256 10.6731 132.792 10.3252 133.36C10.9098 133.78 11.5465 134.123 12.2194 134.38C14.6132 135.025 17.0279 135.587 19.6507 136.212C17.694 138.293 19.1095 138.98 20.5874 139.834C21.545 140.396 23.7723 139.834 23.0021 142.103C22.4594 143.129 21.8255 144.104 21.1078 145.017C20.8509 145.505 20.7153 146.047 20.7123 146.599C20.7123 150.013 19.9213 150.762 16.5491 150.367C13.7451 149.929 10.9658 149.346 8.22274 148.618C6.66154 148.223 5.53748 148.223 4.87137 150.013C4.37178 151.303 3.2269 152.552 1.81142 151.657C1.36108 151.255 1.00876 150.755 0.781442 150.196C0.554129 149.637 0.457859 149.033 0.500009 148.431C1.33383 143.631 2.54491 138.905 4.12199 134.297C3.28935 139.001 2.4359 143.685 1.62407 148.389C1.62407 148.66 2.08202 149.034 2.29018 149.305C4.24689 149.055 5.01708 147.931 5.53748 146.183C6.24522 143.851 7.61908 141.728 8.306 139.376C8.72917 137.046 8.96584 134.686 9.01375 132.319L7.34847 133.485C7.07786 132.819 6.91133 131.82 6.57828 131.778C5.86058 131.806 5.15452 131.968 4.49668 132.257C3.53914 128.093 3.55996 128.093 5.99543 124.576C6.33853 124.007 6.59133 123.389 6.74481 122.744C9.53415 112.481 12.5317 102.282 15.0712 91.9569C15.7789 89.0843 15.0712 85.8786 15.2377 82.8395C15.4668 80.4415 15.9554 78.0755 16.6948 75.7829C17.2237 74.6974 17.9269 73.7059 18.7764 72.8478C18.5058 73.5972 18.2977 74.3882 17.9646 75.1168C16.1572 79.2287 15.5649 83.7722 16.2577 88.21C16.57 86.1284 16.7157 84.5048 17.0904 82.9436C17.8189 80.0502 18.6724 77.1984 19.4842 74.3466C19.6923 73.5764 20.0879 72.7646 18.6724 72.9103ZM29.2677 51.9486L31.0579 50.5331C27.5608 50.9286 25.4792 50.0543 24.1886 46.9736C23.656 45.2557 23.3276 43.481 23.2103 41.6863C23.0645 40.8536 22.9605 40.0002 22.8564 39.1467L22.0446 39.2716C22.2943 41.7904 22.4401 44.3507 22.8772 46.8487C23.0253 47.9392 23.5415 48.9464 24.3403 49.7036C25.1391 50.4607 26.1725 50.9223 27.2694 51.0119C28.0119 51.2418 28.7142 51.5859 29.351 52.0318C23.6058 51.4282 22.1278 50.096 21.6699 44.3507C21.3993 40.9369 21.6699 37.4815 21.6699 33.9427C20.9829 39.1467 19.8797 44.3507 22.2735 49.409C22.9226 50.6188 23.9949 51.5467 25.2854 52.0152C26.5758 52.4838 27.9937 52.46 29.2677 51.9486ZM6.8697 125.596C9.49252 127.136 10.5333 126.761 11.2827 123.993C12.7814 118.442 14.3079 112.842 15.8622 107.194C17.1736 102.427 18.5475 97.6605 20.0254 92.8936C21.878 86.6488 23.7931 80.404 25.6457 74.1592C26.2286 72.2234 25.8123 70.5789 23.689 69.996C21.5658 69.4132 21.2327 71.4948 20.8789 72.9311C18.3185 82.8187 15.9038 92.7479 13.3227 102.636C11.2202 110.275 8.99293 117.914 6.8697 125.596ZM21.4409 144.33C21.8988 142.727 22.6274 141.332 20.067 140.77C19.538 140.573 19.0648 140.25 18.6878 139.829C18.3108 139.409 18.0412 138.903 17.9022 138.356C17.6732 135.358 15.2377 136.087 13.739 135.566C12.8824 135.193 11.9133 135.171 11.0409 135.506C10.1685 135.841 9.46286 136.506 9.0762 137.357L12.5941 135.754C12.3989 136.609 12.0909 137.435 11.6782 138.21C11.0377 138.768 10.3399 139.256 9.5966 139.667C9.03456 140.104 8.49335 140.583 7.93132 141.041L8.11866 141.249L11.9488 139.168L12.1986 139.646L7.18194 143.143L8.57661 143.497L6.64073 145.579L6.89052 145.787L9.49252 144.288L9.78394 144.725L6.37012 147.411C9.88802 148.139 13.1145 148.868 16.3618 149.492C19.2136 150.013 19.6091 149.492 19.6299 146.495C18.2818 146.172 16.9541 145.769 15.654 145.287C15.092 145.059 14.759 144.33 14.301 143.83C14.8244 143.55 15.3969 143.374 15.9871 143.31C17.7773 143.518 19.5466 143.934 21.4825 144.288L21.4409 144.33ZM35.5333 28.5098C36.0329 27.5522 36.9696 26.5947 36.9696 25.6372C36.9696 18.7471 36.9696 11.8362 36.5949 4.94607C36.5949 3.80119 35.3252 2.71876 34.6382 1.59469C33.7015 2.63549 32.7648 3.67629 31.8697 4.73791C31.7032 4.94607 31.7448 5.3832 31.7448 5.71626C31.7448 13.1268 31.7448 20.5303 31.7448 27.9269H32.2236L33.1811 24.3049L33.4517 27.3024L34.0137 25.0751H34.7215L35.5333 28.5098ZM31.3701 35.6705L23.689 34.5672C23.689 36.857 23.5849 39.0843 23.689 41.2908C23.689 42.29 24.3551 44.0385 24.7923 44.0593C26.6651 44.3889 28.5938 44.1496 30.3293 43.3724C33.4309 41.3116 32.057 38.2308 31.5158 35.6288L31.3701 35.6705ZM34.4509 45.0168C36.4284 35.2958 32.8481 28.5514 26.749 29.8004C32.7023 32.5481 32.9938 37.8145 32.9938 43.185C33.868 38.668 33.5974 34.484 30.3501 30.9244C31.5991 31.9444 33.1187 33.006 33.3685 34.3174C34.1595 37.7313 34.2635 41.2908 34.5966 44.9752L34.4509 45.0168ZM5.10034 126.595C4.97545 127.49 4.47586 129.426 4.74647 129.53C6.38186 130.321 8.15752 130.781 9.97128 130.883C11.928 130.883 11.9072 129.093 12.0529 127.719L5.10034 126.595ZM25.0212 53.7388C26.3118 55.0918 27.1028 56.5697 28.0812 56.7987C28.7418 56.8836 29.413 56.8171 30.0441 56.6043C30.6752 56.3916 31.2496 56.0381 31.724 55.5706C32.4942 54.6963 32.3901 53.031 32.8064 51.0951C31.6822 51.8904 30.4913 52.5869 29.2469 53.1767C27.8545 53.4631 26.4415 53.6371 25.0212 53.6971V53.7388ZM39.5924 64.1467C36.137 69.205 36.0329 69.2675 27.4983 72.6813C32.2236 73.5348 37.1986 70.0793 39.53 64.1676L39.5924 64.1467ZM31.9738 73.2017C31.8697 76.3866 33.1811 78.031 35.2627 78.2184L31.9738 73.2017Z" fill="#927A20"/>
<path id="Vector_2" d="M31.5366 115.458L59.9296 104.592L60.4084 105.55C59.3348 106.447 58.1696 107.228 56.9321 107.881C49.7159 110.809 42.472 113.668 35.2002 116.457C34.0751 116.718 32.9176 116.809 31.7656 116.728L31.5366 115.458Z" fill="#927A20"/>
<path id="Vector_3" d="M67.2777 144.601C62.2168 147.627 56.7087 149.833 50.9579 151.137C48.7968 151.832 46.4677 151.801 44.3256 151.05C42.1835 150.298 40.3459 148.867 39.0928 146.974C37.6216 145.173 36.3837 143.194 35.4084 141.083C33.0978 135.254 31.0787 129.301 28.9346 123.389L29.7048 123.098C30.0587 124.034 30.4334 124.95 30.7664 125.908C32.4109 130.508 34.0137 135.15 35.7206 139.75C36.2391 140.858 36.8447 141.923 37.5316 142.935C37.4909 142.954 37.456 142.983 37.4303 143.019C37.4047 143.056 37.3894 143.099 37.3859 143.143C41.0495 149.971 45.3793 152.053 52.8106 149.784C57.2513 148.191 61.6015 146.357 65.8414 144.288C66.8405 143.83 66.7989 143.768 67.2777 144.621V144.601Z" fill="#927A20"/>
<path id="Vector_4" d="M72.2735 144.226C69.8172 149.971 55.3085 156.05 46.42 155.009C55.9954 153.656 65.2585 151.657 72.2735 144.226Z" fill="#927A20"/>
<path id="Vector_5" d="M39.5092 110.379C41.112 109.651 42.6732 108.797 44.3593 108.298C45.1521 108.07 45.8791 107.657 46.4801 107.092C47.0811 106.528 47.5387 105.827 47.8147 105.05C48.7682 103.168 49.8606 101.359 51.0828 99.6382L51.7073 100.075L47.8772 106.32L50.8747 106.466L39.7798 111.025L39.5092 110.379Z" fill="#927A20"/>
<path id="Vector_6" d="M22.8772 108.568L27.4151 123.784L26.6865 124.013C25.1669 118.955 23.6474 113.876 22.107 108.818L22.8772 108.568Z" fill="#927A20"/>
<path id="Vector_7" d="M16.7989 67.5816L15.0712 64.1886L13.8639 57.0071L15.0712 56.6948C14.7606 58.761 14.9112 60.8702 15.5122 62.8713C16.1132 64.8723 17.1498 66.7155 18.5475 68.2685L16.7989 67.5816Z" fill="#927A20"/>
<path id="Vector_8" d="M37.3859 143.143C37.3894 143.099 37.4047 143.056 37.4304 143.019C37.456 142.983 37.491 142.954 37.5317 142.935L37.2194 141.041C40.1128 145.204 43.0271 149.367 49.4384 149.367C48.2904 149.895 47.0092 150.062 45.7642 149.847C44.5191 149.631 43.3688 149.043 42.4651 148.16C40.6957 146.682 39.072 144.83 37.3859 143.143Z" fill="#927A20"/>
<path id="Vector_9" d="M37.1153 96.7236L33.5141 111.024L32.744 110.837L36.3243 96.7236H37.1153Z" fill="#927A20"/>
<path id="Vector_10" d="M65.6957 107.402L70.4417 122.39L69.7964 122.598L65.0295 107.59L65.6957 107.402Z" fill="#927A20"/>
<path id="Vector_11" d="M44.5674 106.653L47.2527 95.6621L47.9396 95.8286L45.6082 106.903L44.5674 106.653Z" fill="#927A20"/>
<path id="Vector_12" d="M67.2777 144.601L69.3593 142.332L72.1486 138.501C71.8156 142.04 69.3385 143.768 66.903 145.537L67.2777 144.601Z" fill="#927A20"/>
<path id="Vector_13" d="M54.1428 97.1191L57.4526 102.739L56.4118 103.843L53.7265 97.3273L54.1428 97.1191Z" fill="#927A20"/>
<path id="Vector_14" d="M42.5067 106.716L44.2136 99.1802L44.9838 99.3675L43.1936 106.882L42.5067 106.716Z" fill="#927A20"/>
<path id="Vector_15" d="M38.9888 59.5255L36.2827 65.9368L35.5333 65.6246L38.3227 59.2549L38.9888 59.5255Z" fill="#927A20"/>
<path id="Vector_16" d="M33.5558 13.1062L35.8872 9.48419L36.7614 9.83806C36.5006 11.0392 36.0359 12.1868 35.3876 13.2311C35.0753 13.6266 32.9729 13.3351 32.8272 12.9396C32.546 11.6694 32.434 10.3675 32.4942 9.06787H33.5141L33.5558 13.1062Z" fill="#927A20"/>
<path id="Vector_17" d="M35.3668 19.0384C34.6517 19.4053 34.0041 19.8909 33.4517 20.4747C33.2852 20.7453 33.868 21.9942 34.2219 22.0359C35.0623 22.0213 35.8937 21.8592 36.6782 21.5571C36.4492 22.8893 35.9496 24.2215 34.2843 23.9093C31.9946 23.4514 32.7023 21.3906 32.8688 19.9959C32.8688 19.3922 34.2843 18.9343 35.0545 18.3931L35.3668 19.0384Z" fill="#927A20"/>
</g>
<defs>
<clipPath id="clip0_66_401">
<rect width="75" height="154.267" fill="white" transform="translate(0.5 0.970215)"/>
</clipPath>
</defs>
</svg>
