<svg width="100" height="63" viewBox="0 0 100 63" fill="none" xmlns="http://www.w3.org/2000/svg">
<g id="Capa_1" clip-path="url(#clip0_88_1328)">
<path id="Vector" d="M34.7637 20.0477C38.318 28.0711 40.6691 30.0846 52.4003 36.0084C49.7729 34.8728 47.0473 33.9151 44.5304 32.5585C40.1535 30.2012 36.329 27.1748 34.8926 22.0919C34.7908 21.4236 34.7723 20.7452 34.8373 20.0723L34.7637 20.0477Z" fill="#927A20"/>
<path id="Vector_2" d="M84.8987 37.0765L95.4082 31.656L95.7397 32.2269L85.3714 37.9359L84.8987 37.0765Z" fill="#927A20"/>
<path id="Vector_3" d="M72.873 55.6523C73.4316 48.47 72.9466 48.3657 67.0596 48.8997C67.7103 48.6665 70.927 47.8009 71.811 47.4817C72.3021 47.3221 71.0006 46.5118 69.9693 44.6517C71.0129 45.8242 73.1185 47.2361 74.8312 47.3773C74.07 48.6603 73.051 53.6204 72.873 55.6523Z" fill="#927A20"/>
<path id="Vector_4" d="M56.1918 52.2325C56.1918 51.0048 56.1366 50.1085 54.5221 49.6543C51.0782 48.6782 47.7326 47.3277 44.3502 46.1306C40.8204 42.7359 37.2906 39.3473 33.8345 36.014C30.581 38.6168 27.3582 41.8335 23.5706 44.0864C16.8425 48.095 9.91188 52.5763 1.72895 47.4198C7.46867 53.5033 13.945 49.9796 20.2925 48.6045C15.1544 51.3424 9.8198 52.8587 3.7977 51.4222C4.97319 52.9736 6.36916 54.3447 7.94135 55.4922C15.9831 60.8513 24.0064 58.9238 31.6553 54.7494C36.1611 52.2939 40.1758 48.9483 44.4116 46.0079C36.9346 54.1724 28.0703 59.9428 16.6584 60.0164C6.54786 60.084 -0.652882 51.8151 0.0469342 41.6923C0.501201 35.0625 3.1163 29.1754 6.91004 23.89C14.2765 13.5155 23.5399 5.43695 35.8726 1.28717C43.1838 -1.16833 49.0279 0.384775 54.0739 6.13063C54.872 7.03916 56.6584 7.54254 57.9536 7.48115C68.3404 7.00847 78.3588 8.26691 87.6713 13.227C89.027 13.9397 90.3316 14.7458 91.5755 15.6395C97.2293 19.7463 100.784 25.0686 99.8566 32.3123C98.9113 39.8446 94.4668 44.952 87.6283 47.9723C85.0193 49.1202 82.2692 49.9551 79.4454 50.9802C79.3594 52.208 79.2489 53.5033 79.1752 54.8169C78.8315 60.5874 77.2231 62.3615 71.3238 62.6561C68.0608 62.7953 64.7919 62.6392 61.5571 62.1896C56.996 61.5757 54.8781 57.3645 56.2593 52.1282C57.1986 54.553 55.6455 58.1196 59.5804 59.1939L57.3827 51.0416L56.1918 52.2325ZM10.7652 44.6758C11.0721 42.9017 10.9862 40.9373 11.7474 39.3842C18.5245 25.5966 28.8499 15.4983 43.1531 9.55605C43.767 9.29208 44.3809 8.98514 44.9948 8.70276L44.608 7.73284L34.915 11.2749L34.5098 10.2866L43.9266 5.98944L43.7609 5.40626L37.9168 6.15519L41.4527 4.31357L41.0291 3.40503L27.395 9.54377L27.2231 9.2C30.3539 7.44841 33.4949 5.6866 36.6461 3.91455C35.0144 3.93988 33.4134 4.36121 31.9806 5.14229C27.174 8.01522 22.1587 10.6672 17.7817 14.111C9.94872 20.2804 3.89592 27.9109 1.5632 37.9354C0.611698 42.1098 2.45332 46.192 6.26547 47.2295C7.22926 47.4873 9.72772 48.8133 10.5626 46.192C11.4773 46.4069 12.4963 47.0085 13.282 46.8059C20.6485 44.6942 26.6645 40.4339 31.9377 35.0257C32.441 34.51 33.0488 33.5217 32.8646 33.0121C30.8941 27.5425 31.3054 22.251 33.6442 16.9225C23.6135 24.2767 14.7308 32.429 10.7529 44.6758H10.7652ZM34.7615 20.0349H34.8352C34.3686 20.305 33.6074 20.483 33.4846 20.8513C32.3919 24.7924 32.3551 28.7457 34.2827 32.4412C39.0095 41.4836 46.5908 46.72 56.3821 48.936C57.2293 47.6162 67.0021 40.262 67.4318 39.5867C68.942 39.9858 59.4146 46.6401 60.6178 46.9532C61.7351 47.6899 64.6755 48.4327 65.8972 49.2491C63.3066 48.9115 58.9297 47.96 58.9297 50.0349C59.8014 52.8955 59.7891 54.0557 60.4644 57.2417C61.3177 61.3117 64.2949 61.1276 67.2661 61.1583C68.721 61.1583 70.1759 61.0662 71.5632 61.0171L72.6436 58.8869C73.3864 61.1828 74.8597 61.2872 76.2716 59.7279C78.7762 56.9716 78.6534 53.5524 77.7449 50.262C77.4257 49.1141 76.0629 48.2485 75.0377 47.1006C74.6878 47.4689 74.8597 47.2111 75.0991 47.0576C75.6504 46.7723 76.2182 46.5202 76.7995 46.3025L68.6964 39.7279C70.959 40.4977 73.0458 41.7102 74.8352 43.2945C76.6215 45.0195 77.9045 47.254 79.4208 49.2798C96.7198 46.5665 102.134 33.0735 96.8732 24.2399C96.2593 28.5002 93.5706 31.1583 90.0347 32.6991C73.8223 39.7709 58.1132 37.8249 43.1224 29.1939C38.5245 26.5481 35.2956 22.6254 35.9585 16.6279L34.7615 20.0349ZM93.8468 25.6641L94.5957 26.0938C94.9579 25.5475 95.7498 24.774 95.6086 24.4977C94.3379 22.1343 93.4232 19.1693 91.4343 17.6776C81.1642 9.97348 69.4576 8.16869 56.8916 10.0778C57.3889 13.2516 57.837 16.1061 58.2913 18.979C70.4951 19.642 82.6989 20.0533 92.2937 30.8329C92.0666 28.9238 91.9561 27.9845 91.8272 26.898L93.7793 28.3897C94.0187 28.0336 94.2397 27.8556 94.2151 27.7021C94.1292 27.0269 93.9757 26.3455 93.8468 25.6641ZM90.9432 30.6549C80.7406 22.4597 69.4576 21.9195 58.2237 21.5143C57.2784 25.2773 56.4742 28.5984 55.5534 32.165C67.2415 34.9766 78.7026 35.7132 90.9432 30.6549ZM46.8609 4.08643L46.0813 4.16624C48.5368 11.9317 45.4674 18.5861 41.7842 25.6088L53.3496 31.7967C58.7455 21.2994 56.1857 8.21166 48.5859 5.15457C48.7946 7.13125 49.0034 9.16931 49.1998 11.2012L48.8929 11.2626L46.8609 4.08643ZM41.7781 16.3946L41.9315 16.6647L38.0948 19.7341C41.244 19.3351 44.344 18.8992 44.2336 14.4241L38.2299 16.9778L38.457 17.5917L41.7781 16.3946Z" fill="#927A20"/>
</g>
<defs>
<clipPath id="clip0_88_1328">
<rect width="100" height="62.5537" fill="white" transform="translate(0 0.164307)"/>
</clipPath>
</defs>
</svg>
