<svg width="101" height="101" viewBox="0 0 101 101" fill="none" xmlns="http://www.w3.org/2000/svg">
<g id="Music">
<path id="Vector" d="M26.29 8.25049C16.373 8.25049 8.29004 16.3335 8.29004 26.2505V74.2505C8.29004 84.1675 16.373 92.2505 26.29 92.2505H74.29C84.2071 92.2505 92.29 84.1675 92.29 74.2505V26.2505C92.29 16.3335 84.2071 8.25049 74.29 8.25049H26.29ZM26.29 12.2505H74.29C82.045 12.2505 88.29 18.4955 88.29 26.2505V74.2505C88.29 82.0055 82.045 88.2505 74.29 88.2505H26.29C18.5351 88.2505 12.29 82.0055 12.29 74.2505V26.2505C12.29 18.4955 18.5351 12.2505 26.29 12.2505ZM67.4111 22.2544C67.1907 22.2434 66.9647 22.2591 66.7393 22.3013H66.7354L41.5518 27.0239C39.6734 27.3774 38.29 29.0447 38.29 30.9575V58.2231C38.29 58.2323 38.29 58.2414 38.29 58.2505C38.29 60.4838 36.5234 62.2505 34.29 62.2505H30.6299C26.3835 62.2505 22.5315 65.4388 22.3018 69.8247C22.0638 74.3981 25.7542 78.2505 30.29 78.2505H31.29C37.3412 78.2505 42.29 73.3016 42.29 67.2505V58.2505V41.1606L66.29 36.6606V52.2505C66.29 54.4838 64.5234 56.2505 62.29 56.2505H58.6299C54.3835 56.2505 50.5315 59.4388 50.3018 63.8247C50.0638 68.3981 53.7542 72.2505 58.29 72.2505H59.29C65.3412 72.2505 70.29 67.3016 70.29 61.2505V52.2505V25.2505C70.29 23.6454 68.954 22.3316 67.4111 22.2544ZM66.29 26.4575V32.5903L42.29 37.0903V30.9575L66.29 26.4575ZM66.29 59.0122V61.2505C66.29 65.1393 63.1789 68.2505 59.29 68.2505H58.29C55.9858 68.2505 54.1719 66.3784 54.2939 64.0317C54.4042 61.9257 56.3802 60.2505 58.6299 60.2505H62.29C63.7754 60.2505 65.0938 59.7272 66.29 59.0122ZM38.29 65.0122V67.2505C38.29 71.1393 35.1789 74.2505 31.29 74.2505H30.29C27.9858 74.2505 26.1719 72.3784 26.2939 70.0317C26.4042 67.9257 28.3802 66.2505 30.6299 66.2505H34.29C35.7754 66.2505 37.0938 65.7272 38.29 65.0122Z" fill="#927A20"/>
</g>
</svg>
