<svg width="40" height="41" viewBox="0 0 40 41" fill="none" xmlns="http://www.w3.org/2000/svg">
<g clip-path="url(#clip0_248_984)">
<path fill-rule="evenodd" clip-rule="evenodd" d="M31.642 28.4014C31.16 29.7658 29.244 30.8945 27.716 31.2246C26.67 31.4467 25.306 31.6224 20.71 29.7178C15.548 27.5791 8.38 19.9611 8.38 14.8916C8.38 12.3108 9.868 9.30566 12.47 9.30566C13.722 9.30566 13.998 9.33008 14.41 10.3184C14.892 11.4827 16.068 14.3514 16.208 14.6455C16.786 15.8519 15.62 16.5581 14.774 17.6084C14.504 17.9245 14.198 18.2663 14.54 18.8545C14.88 19.4307 16.056 21.3473 17.784 22.8857C20.016 24.8743 21.826 25.5092 22.474 25.7793C22.956 25.9794 23.532 25.9328 23.884 25.5566C24.33 25.0745 24.884 24.2746 25.448 23.4863C25.846 22.9221 26.352 22.8517 26.882 23.0518C27.24 23.1758 31.79 25.2889 31.982 25.627C32.124 25.873 32.124 27.0369 31.642 28.4014ZM20.004 0.15918H19.994C8.96799 0.15918 0 9.12988 0 20.1592C0 24.5325 1.41001 28.5899 3.80801 31.8809L1.31601 39.3125L9.00201 36.8564C12.164 38.9491 15.938 40.1592 20.004 40.1592C31.03 40.1592 40 31.1885 40 20.1592C40 9.12988 31.03 0.15918 20.004 0.15918Z" fill="#4A4700"/>
</g>
<defs>
<clipPath id="clip0_248_984">
<rect width="40" height="40" fill="white" transform="translate(0 0.0234375)"/>
</clipPath>
</defs>
</svg>
