<svg width="40" height="41" viewBox="0 0 40 41" fill="none" xmlns="http://www.w3.org/2000/svg">
<g id="phone_svgrepo.com">
<path id="Vector" d="M35.64 29.8252C36.0294 30.2159 36.3214 30.6929 36.4922 31.2175C36.663 31.7421 36.7078 32.2996 36.6231 32.8447C36.5384 33.3899 36.3265 33.9074 36.0045 34.3554C35.6826 34.8034 35.2597 35.1693 34.77 35.4235C31.9718 36.9191 28.7116 37.3013 25.6433 36.4935C17.5 34.4435 5.795 22.7385 3.745 14.5952C2.9372 11.5269 3.31943 8.26671 4.815 5.4685C5.06916 4.97884 5.43506 4.55592 5.88308 4.23397C6.3311 3.91203 6.84863 3.70012 7.39378 3.6154C7.93894 3.53068 8.49638 3.57554 9.02097 3.74633C9.54556 3.91713 10.0226 4.20907 10.4133 4.5985L13.8883 8.07184C14.3895 8.56793 14.7286 9.20419 14.8609 9.89681C14.9933 10.5894 14.9128 11.3059 14.63 11.9518C14.3205 12.6766 13.881 13.3386 13.3333 13.9052C9.36 17.8785 22.3617 30.8802 26.3333 26.9052C26.9 26.3555 27.5626 25.9143 28.2883 25.6035C28.9342 25.3202 29.6508 25.2394 30.3435 25.3719C31.0362 25.5043 31.6725 25.8436 32.1683 26.3452L35.64 29.8252Z" fill="#927A20"/>
</g>
</svg>
