<svg width="24" height="24" viewBox="0 0 24 24" fill="none" xmlns="http://www.w3.org/2000/svg">
<g id="icons/Clothes/bow">
<path id="Vector" d="M3.27135 7.13124C5.70104 7.61444 8.30104 9.37694 9.99954 11.5C9.99954 16.8154 6.32169 18.1185 3.61396 18.4169C2.87506 18.4983 2.38852 17.7164 2.68756 17.0358C3.41215 15.3866 3.99954 13.6496 3.99954 12.5C3.99954 11.3044 3.04649 9.79109 2.40652 8.21329C2.16199 7.61044 2.63328 7.00439 3.27135 7.13124Z" stroke="#2C2200" stroke-width="2" stroke-linecap="round" stroke-linejoin="round"/>
<path id="Vector_2" d="M20.7282 7.13117C18.2985 7.61437 15.6985 9.37687 14 11.5C14 16.8153 17.6778 18.1184 20.3855 18.4169C21.1245 18.4983 21.611 17.7163 21.312 17.0357C20.5874 15.3866 20 13.6496 20 12.5C20 11.3043 20.9531 9.79102 21.593 8.21322C21.8376 7.61037 21.3663 7.00432 20.7282 7.13117Z" stroke="#2C2200" stroke-width="2" stroke-linecap="round" stroke-linejoin="round"/>
<path id="Vector_3" d="M14 10.5H10V14.5H14V10.5Z" stroke="#2C2200" stroke-width="2" stroke-linecap="round" stroke-linejoin="round"/>
</g>
</svg>
