<svg width="40" height="41" viewBox="0 0 40 41" fill="none" xmlns="http://www.w3.org/2000/svg">
<path d="M22.056 0.0234375C24.3059 0.0294374 25.4478 0.0414371 26.4338 0.0694364L26.8218 0.083436C27.2698 0.0994357 27.7117 0.119435 28.2457 0.143435C30.3736 0.243432 31.8255 0.579425 33.0995 1.07341C34.4194 1.5814 35.5313 2.26938 36.6433 3.37936C37.6602 4.37913 38.4471 5.58848 38.9492 6.92328C39.4431 8.19725 39.7791 9.64921 39.8791 11.7792C39.9031 12.3111 39.9231 12.7531 39.9391 13.2031L39.9511 13.5911C39.9811 14.5751 39.9931 15.7171 39.9971 17.967L39.9991 19.459V22.0789C40.004 23.5377 39.9887 24.9965 39.9531 26.4548L39.9411 26.8428C39.9251 27.2928 39.9051 27.7348 39.8811 28.2668C39.7811 30.3967 39.4411 31.8467 38.9492 33.1227C38.4485 34.4582 37.6615 35.6678 36.6433 36.6666C35.6433 37.6832 34.434 38.47 33.0995 38.9725C31.8255 39.4665 30.3736 39.8025 28.2457 39.9025C27.7712 39.9249 27.2965 39.9449 26.8218 39.9625L26.4338 39.9745C25.4478 40.0025 24.3059 40.0165 22.056 40.0205L20.5641 40.0225H17.9462C16.4868 40.0275 15.0274 40.0122 13.5685 39.9765L13.1805 39.9645C12.7057 39.9465 12.2311 39.9259 11.7566 39.9025C9.62866 39.8025 8.17673 39.4665 6.9008 38.9725C5.56621 38.4713 4.35736 37.6843 3.35898 36.6666C2.34112 35.6672 1.55352 34.4578 1.0511 33.1227C0.557126 31.8487 0.221143 30.3967 0.121148 28.2668C0.0988664 27.7922 0.0788673 27.3176 0.0611508 26.8428L0.0511516 26.4548C0.0142976 24.9965 -0.00237005 23.5377 0.00115394 22.0789V17.967C-0.0044277 16.5083 0.0102398 15.0495 0.0451518 13.5911L0.0591511 13.2031C0.0751502 12.7531 0.0951492 12.3111 0.119148 11.7792C0.219143 9.64921 0.555125 8.19925 1.0491 6.92328C1.5513 5.58712 2.34047 4.37738 3.36098 3.37936C4.35911 2.36233 5.56716 1.57538 6.9008 1.07341C8.17673 0.579425 9.62666 0.243432 11.7566 0.143435C12.2885 0.119435 12.7325 0.0994357 13.1805 0.083436L13.5685 0.0714362C15.0268 0.0359026 16.4855 0.0205682 17.9442 0.0254373L22.056 0.0234375ZM20.0001 10.0232C17.3481 10.0232 14.8047 11.0767 12.9294 12.9521C11.0542 14.8274 10.0006 17.3709 10.0006 20.023C10.0006 22.6751 11.0542 25.2186 12.9294 27.0939C14.8047 28.9692 17.3481 30.0227 20.0001 30.0227C22.6522 30.0227 25.1956 28.9692 27.0708 27.0939C28.9461 25.2186 29.9996 22.6751 29.9996 20.023C29.9996 17.3709 28.9461 14.8274 27.0708 12.9521C25.1956 11.0767 22.6522 10.0232 20.0001 10.0232ZM20.0001 14.0231C20.788 14.023 21.5682 14.178 22.2962 14.4794C23.0242 14.7808 23.6856 15.2227 24.2428 15.7797C24.8001 16.3368 25.2421 16.9981 25.5437 17.726C25.8454 18.4539 26.0007 19.2341 26.0008 20.022C26.001 20.8099 25.8459 21.5901 25.5445 22.3181C25.2431 23.0461 24.8013 23.7076 24.2443 24.2648C23.6872 24.822 23.0259 25.2641 22.298 25.5657C21.5702 25.8674 20.79 26.0227 20.0021 26.0228C18.4109 26.0228 16.8849 25.3907 15.7597 24.2655C14.6345 23.1403 14.0024 21.6142 14.0024 20.023C14.0024 18.4317 14.6345 16.9056 15.7597 15.7804C16.8849 14.6552 18.4109 14.0231 20.0021 14.0231M30.5016 7.02327C29.8386 7.02327 29.2027 7.28666 28.7339 7.75549C28.2651 8.22432 28.0017 8.86019 28.0017 9.52322C28.0017 10.1862 28.2651 10.8221 28.7339 11.2909C29.2027 11.7598 29.8386 12.0232 30.5016 12.0232C31.1646 12.0232 31.8005 11.7598 32.2693 11.2909C32.7381 10.8221 33.0015 10.1862 33.0015 9.52322C33.0015 8.86019 32.7381 8.22432 32.2693 7.75549C31.8005 7.28666 31.1646 7.02327 30.5016 7.02327Z" fill="#4A4700"/>
</svg>
