<?xml version="1.0" encoding="UTF-8" standalone="no" ?>
<!DOCTYPE svg PUBLIC "-//W3C//DTD SVG 1.1//EN" "http://www.w3.org/Graphics/SVG/1.1/DTD/svg11.dtd">
<svg xmlns="http://www.w3.org/2000/svg" xmlns:xlink="http://www.w3.org/1999/xlink" version="1.1" width="1080" height="1080" viewBox="0 0 1080 1080" xml:space="preserve">
<desc>Created with Fabric.js 5.2.4</desc>
<defs>
</defs>
<rect x="0" y="0" width="100%" height="100%" fill="transparent"></rect>
<g transform="matrix(1 0 0 1 540 540)" id="dff71ddc-1035-4ccc-b4d7-5f663851e180"  >
<rect style="stroke: none; stroke-width: 1; stroke-dasharray: none; stroke-linecap: butt; stroke-dashoffset: 0; stroke-linejoin: miter; stroke-miterlimit: 4; fill: rgb(255,255,255); fill-rule: nonzero; opacity: 1; visibility: hidden;" vector-effect="non-scaling-stroke"  x="-540" y="-540" rx="0" ry="0" width="1080" height="1080" />
</g>
<g transform="matrix(1 0 0 1 540 540)" id="147e7220-eaaa-4a21-9e89-c2db63765003"  >
</g>
<g transform="matrix(1 0 0 1 540.5 540.5)" id="08d3ea15-07ac-4d13-8f3f-16b45a56ad44"  >
<path style="stroke: rgb(255,255,255); stroke-width: 1; stroke-dasharray: none; stroke-linecap: butt; stroke-dashoffset: 0; stroke-linejoin: miter; stroke-miterlimit: 4; fill: rgb(255,255,255); fill-rule: nonzero; opacity: 1;" vector-effect="non-scaling-stroke"  transform=" translate(-421.08, -103.27)" d="M 3.43005 105.55 C 11.74 90.72 25.89 82.27 41.19 76.32 C 63.27 87.32 86.01 97.63 107.58 109.62 C 117.58 115.16 122.77 123.13 131.36 129.9 C 137.66 134.9 145.27 137.9 152.96 139.9 C 172.13 144.99 192.96 145.02 212.6 146.64 C 233.44 148.36 254.6 151.64 274.8 144.54 C 275.19 144.41 275.525 144.151 275.749 143.806 C 275.972 143.461 276.072 143.049 276.03 142.64 C 276.321 142.497 276.567 142.279 276.744 142.007 C 276.921 141.736 277.021 141.422 277.034 141.099 C 277.048 140.775 276.974 140.454 276.82 140.169 C 276.666 139.884 276.438 139.646 276.16 139.48 C 271.755 137.402 268.141 133.953 265.86 129.65 C 264.142 125.725 263.178 121.512 263.02 117.23 C 262.39 116.44 262.75 115.02 261.56 114.29 C 255.43 110.51 244.89 119.11 246.77 105.66 C 246.836 105.39 246.84 105.11 246.784 104.838 C 246.727 104.566 246.611 104.311 246.443 104.09 C 246.276 103.868 246.061 103.687 245.815 103.559 C 245.569 103.431 245.297 103.36 245.02 103.35 C 236.12 103.79 232.14 97.24 225.16 93.62 C 221.24 91.62 218.43 91.47 214.16 91 C 209.65 90.49 203.68 90.65 199.87 87.26 C 201.24 88.48 196.8 82.41 196.73 82.34 C 194.494 79.9245 191.556 78.2733 188.33 77.62 C 184.18 76.62 180.53 77.77 176.49 77.76 C 165.49 77.76 158.36 73.62 149.41 68.16 C 138.55 61.53 126.17 59.41 113.65 60.51 C 113.281 60.5432 112.932 60.6899 112.65 60.93 L 95.4 62.53 C 95.3591 62.4112 95.3055 62.2972 95.2401 62.19 C 108.133 60.0962 121.134 58.7241 134.18 58.08 C 182.01 55.71 229.8 62.17 276.52 71.97 C 295.88 75.97 315.16 80.65 334.43 85.44 C 334.225 85.5372 334.046 85.6804 333.906 85.8584 C 333.766 86.0364 333.669 86.2443 333.622 86.466 C 333.576 86.6877 333.581 86.9171 333.638 87.1363 C 333.695 87.3556 333.802 87.5588 333.95 87.73 C 344.47 101.8 355.17 116.01 368.42 127.66 C 374.782 133.183 381.943 137.711 389.66 141.09 L 389.75 141.37 C 389.788 141.502 389.859 141.622 389.957 141.719 C 390.055 141.816 390.176 141.885 390.309 141.922 C 390.441 141.958 390.581 141.959 390.715 141.926 C 390.848 141.892 390.97 141.825 391.07 141.73 C 398.45 145.01 406.14 147.73 414.41 151.23 C 428.91 157.41 432.94 176.5 449.53 178.69 C 462.65 180.42 471.28 175.89 481.77 187.02 C 487.67 193.29 491.98 200.42 498.77 205.88 C 499.77 206.67 501.52 206.55 501.83 205.06 C 505.42 187.64 503.65 169.82 495.39 153.89 C 486.02 135.75 470.02 125.9 454.93 113.69 C 471.29 116.81 487.72 119.46 504.26 121.39 C 504.232 121.644 504.273 121.901 504.376 122.134 C 504.48 122.368 504.643 122.57 504.85 122.72 C 525.398 139.135 549.709 150.177 575.59 154.85 C 591.52 157.85 605.68 161 620.7 167.29 C 625.19 169.18 629.44 170.93 634.29 171.74 C 642.23 173.06 652.29 170.74 657.6 178.59 C 657.808 178.935 658.122 179.204 658.495 179.355 C 658.868 179.507 659.281 179.533 659.67 179.43 C 670.9 174.83 682.21 169 693.82 165.43 C 706.21 161.62 711.82 168.7 722.55 172.81 C 738.84 179.02 756.33 176.89 771.43 168.67 C 771.726 168.482 771.963 168.215 772.113 167.898 C 772.263 167.581 772.32 167.228 772.277 166.88 C 772.234 166.532 772.093 166.204 771.87 165.933 C 771.648 165.662 771.353 165.46 771.02 165.35 C 746.02 160.19 733.36 135.35 711.52 124.35 C 689.68 113.35 663.88 114.85 640.09 116.45 C 637.75 116.6 637.73 120.27 640.09 120.1 C 668.31 118.2 698.4 116.91 721.85 135.42 C 735.52 146.2 746.46 160.42 762.7 166.68 C 727.03 164.98 694.57 150.28 660.55 140.8 C 630.63 132.47 599.17 129.1 568.36 124.8 C 607.21 124.08 645.64 117.68 681.89 103.57 C 713.89 111.26 745.11 94.17 774.63 83.66 C 799.9 74.66 825.29 64.9 841.91 42.76 C 842.069 42.4808 842.152 42.1648 842.151 41.8436 C 842.15 41.5224 842.065 41.207 841.904 40.9289 C 841.743 40.6508 841.512 40.4197 841.234 40.2585 C 840.956 40.0972 840.641 40.0116 840.32 40.01 C 813.1 43.37 777.18 21.27 753.48 43.29 C 745.93 50.29 744.48 55.1 736.48 57.99 C 736.421 57.8431 736.323 57.7152 736.197 57.6199 C 736.071 57.5245 735.921 57.4655 735.763 57.449 C 735.606 57.4326 735.447 57.4593 735.304 57.5265 C 735.16 57.5936 735.038 57.6985 734.95 57.83 C 734.77 58.12 734.58 58.38 734.4 58.65 C 732.429 59.2013 730.425 59.6288 728.4 59.93 C 722.66 60.79 718.4 61.06 713.33 64.3 C 702.2 71.35 694.02 85.35 688.02 97.26 C 685.95 98.15 683.87 99.02 681.79 99.85 C 681.528 99.8208 681.263 99.8556 681.017 99.9514 C 680.772 100.047 680.553 100.201 680.38 100.4 C 640.1 116.28 599.65 122.35 559.02 122.15 C 584.61 117.15 611.64 117.31 634.42 103.04 C 653.02 91.35 666.32 73.5 673.02 52.69 C 673.148 52.292 673.114 51.86 672.927 51.4863 C 672.74 51.1125 672.415 50.8267 672.02 50.69 C 671.912 50.6101 671.784 50.5617 671.65 50.55 C 671.215 50.4273 670.751 50.4628 670.34 50.65 C 647.34 62.14 625.5 37.65 601.98 46.35 C 593.88 49.35 587.22 55.07 580.24 59.94 C 567.08 69.13 558.07 69.87 542.06 67.56 C 532.2 66.14 525.87 67.42 516.56 70.71 C 504.9 74.82 493.04 75.61 480.94 77.71 C 461.06 81.18 443.7 90.92 429.73 105.38 C 429.73 105.38 429.73 105.45 429.66 105.48 C 354.52 88.96 279.02 65.05 203.51 56.86 C 212.977 55.4466 222.457 54.1733 231.95 53.04 C 231.45 53.9 232.81 54.67 233.42 53.82 C 233.67 53.47 233.94 53.13 234.19 52.82 C 260.06 49.82 286.02 47.48 311.92 44.58 C 311.945 44.7298 312.009 44.8701 312.107 44.9861 C 312.205 45.1021 312.333 45.1893 312.477 45.2386 C 312.62 45.2878 312.774 45.2972 312.923 45.2657 C 313.071 45.2343 313.209 45.1632 313.32 45.06 C 313.59 44.8 313.89 44.58 314.17 44.33 C 320.75 43.59 327.34 42.81 333.91 41.95 C 354.138 39.4239 374.226 35.8861 394.1 31.35 C 407.63 28.17 423.1 25.02 436.64 19.49 C 390.64 49.49 334.23 57.7 280.47 64.8 C 278.17 65.11 278.14 68.8 280.47 68.46 C 341.82 60.35 406.09 50.86 455.42 10.35 C 456.88 9.14996 455.3 6.82996 453.64 7.28996 C 432.64 13.11 416.53 8.09996 396.54 2.37996 C 391.91 1.05996 386.88 -0.260038 382 0.319962 C 375.88 1.03996 372.74 5.10996 367.44 7.31996 C 358.39 11.04 350.51 3.42997 340.64 6.91997 C 338.01 7.84997 334.56 10.43 331.78 10.73 C 326.73 11.25 322.09 7.41996 317.96 6.62996 C 315.2 6.10996 314.17 5.67996 311.57 6.21996 C 306.82 7.21996 302.43 10.79 298.3 13.22 C 295.09 15.09 291.61 17.67 288.17 19.15 C 283.503 22.33 278.073 22.8066 271.88 20.58 L 269.77 18.7 C 259.83 17.38 250.62 20.17 240.52 22.33 C 219.6 26.79 186.81 28.97 182.96 55.12 C 160.806 53.5046 138.557 53.7253 116.44 55.78 C 91.44 58.22 66.35 63.17 42.75 71.87 C 25.49 78.16 9.49005 87.23 0.270049 103.7 C -0.889951 105.77 2.27005 107.61 3.43005 105.55 Z M 337.29 86.14 C 350.57 89.45 363.85 92.81 377.14 96.14 C 383.63 101.23 381.65 111.64 383.34 119.14 C 384.73 125.3 386.67 131.36 388.51 137.42 C 367.38 125.52 351.81 105.53 337.29 86.14 Z M 390.64 138.47 C 387.64 128.3 384.45 118.31 383.64 107.65 C 383.32 103.41 382.69 99.88 380.28 96.9 C 387.32 98.6466 394.363 100.363 401.41 102.05 C 405.41 110.34 408.33 118.05 407.96 127.48 C 407.722 133.488 407.936 139.504 408.6 145.48 L 405.12 144.48 C 400.112 142.945 395.263 140.933 390.64 138.47 Z M 410.36 146.05 C 409.54 137.52 410.47 129.05 409.6 120.6 C 408.94 114.19 406.3 108.3 403.53 102.6 L 403.75 102.6 C 403.766 102.748 403.826 102.888 403.922 103.002 C 404.019 103.116 404.147 103.199 404.29 103.24 C 410.181 105.008 415.928 107.224 421.48 109.87 C 427.97 119.13 431.19 126.52 429.07 137.87 C 427.965 143.428 427.233 149.054 426.88 154.71 C 422.08 150.25 416.54 148.02 410.36 146.05 Z M 442.9 172.94 C 436.9 170.2 433.5 162.23 429.37 157.37 C 429.09 157.03 428.8 156.77 428.51 156.46 C 428.91 147.26 432.32 138.11 431.91 129.01 C 431.63 122.49 428.29 116.8 424.68 111.53 C 431.028 114.775 437.084 118.562 442.78 122.85 C 450.92 140.11 452.04 155.95 450.53 174.66 C 447.899 174.585 445.308 174.001 442.9 172.94 Z M 486.68 187.18 C 481.85 181.45 476.54 176.18 468.93 174.63 C 463.42 173.55 457.78 174.73 452.21 174.72 C 453.68 156.6 452.63 141.45 445.56 125.02 C 469.26 143.93 486.17 170.81 497.44 199.79 C 497.394 199.785 497.347 199.785 497.3 199.79 C 493.96 199.18 488.67 189.55 486.68 187.18 Z M 478.9 137.65 C 490.88 150.35 498.76 165.75 500.02 183.35 C 500.212 186.186 500.238 189.031 500.1 191.87 C 499.94 195.18 500.33 198.28 499.15 199.38 C 487.35 169.02 469.48 140.93 444.15 121.71 L 444.01 121.41 C 443.948 121.261 443.832 121.141 443.686 121.073 C 443.54 121.004 443.374 120.993 443.22 121.04 C 434.548 114.571 425.068 109.263 415.02 105.25 C 425.85 107.75 436.69 110.12 447.57 112.25 C 457.8 121.14 469.52 127.66 478.9 137.65 Z M 510.02 122.01 C 521.72 123.257 533.48 124.103 545.3 124.55 C 545.3 124.66 545.22 124.76 545.3 124.89 C 547.843 133.284 552.579 140.847 559.02 146.8 C 541.32 141.573 524.717 133.173 510.02 122.01 Z M 563.09 148.01 C 555.437 142.044 549.794 133.878 546.92 124.61 C 548.81 124.67 550.69 124.79 552.58 124.83 C 554.47 124.87 556.3 124.83 558.16 124.83 C 558.205 124.902 558.265 124.963 558.336 125.01 C 558.406 125.056 558.486 125.087 558.57 125.1 C 560.77 125.43 562.98 125.74 565.19 126.1 C 570.561 133.098 576.748 139.429 583.62 144.96 C 589.07 149.3 595.23 152.5 601.05 156.22 C 594.55 154.59 588.02 153.35 581.32 152.16 C 575.08 151.027 568.98 149.63 563.02 147.97 L 563.09 148.01 Z M 648.94 169.35 C 645.28 168.61 641.5 168.86 637.81 168.43 C 629.17 167.43 622.24 163.6 614.36 160.43 C 611.54 159.29 608.69 158.33 605.8 157.43 C 599.03 152.54 591.42 148.98 584.8 143.73 C 578.436 138.603 572.673 132.773 567.62 126.35 C 579.81 128.06 592.09 129.68 604.34 131.47 C 604.34 131.56 604.34 131.65 604.34 131.76 C 608.54 140.31 618.9 145.06 626.44 150.27 L 659.88 173.42 C 656.22 172.52 653.57 170.3 648.94 169.35 Z M 719.85 167.67 C 713.76 164.75 708.65 159.74 701.55 159.67 C 695.32 159.58 688.68 163.62 683.09 165.91 C 682.4 166.19 681.63 166.55 680.82 166.91 C 676.51 159.79 671.26 152.48 668.09 144.79 C 699.61 154.35 730.2 166.99 763.47 168.35 C 749.47 174.13 733.92 174.35 719.85 167.68 L 719.85 167.67 Z M 665.02 143.85 L 666.02 144.17 C 666.02 144.17 666.02 144.24 666.02 144.28 C 669.19 152.5 674.74 160.12 679.32 167.7 C 674.32 170.25 667.93 173.82 663.58 173.9 C 663.032 173.902 662.484 173.872 661.94 173.81 C 662.052 173.622 662.089 173.399 662.043 173.186 C 661.996 172.972 661.87 172.784 661.69 172.66 L 634.17 153.61 C 625.62 147.69 611.6 141.16 606.36 131.8 C 626.17 134.73 645.89 138.22 665.02 143.85 Z M 829.67 51.26 C 824.296 56.1947 818.35 60.4684 811.96 63.99 C 799.9 70.82 786.72 75.49 773.7 80.12 C 748.51 89.12 721.47 103.43 694.18 101.72 L 834.38 46.65 C 833.35 48.3 830.49 50.45 829.63 51.26 L 829.67 51.26 Z M 828.24 44.26 C 831.24 44.41 833.69 43.59 834.47 44.81 L 752.07 77.15 C 757.71 72.66 761.95 66.85 766.34 60.96 C 772.29 52.96 780.95 46.65 784.92 37.41 C 785.46 37.41 785.92 37.41 786.49 37.41 C 800.58 38.47 814.02 43.57 828.2 44.25 L 828.24 44.26 Z M 747.31 56.17 C 758.38 44.67 766.85 37.22 783.12 37.4 C 779.45 45.46 771.74 51.14 766.43 58.1 C 760.43 65.98 755.27 74.1 746.43 79.1 C 746.261 79.2004 746.136 79.3612 746.08 79.55 C 727.647 86.75 709.233 93.97 690.84 101.21 C 690.75 101.21 690.74 101.32 690.68 101.36 L 690.02 101.29 C 690.083 101.18 690.139 101.066 690.19 100.95 C 707.819 92.0916 722.862 78.83 733.86 62.45 C 738.67 61.79 742.68 60.94 747.27 56.16 L 747.31 56.17 Z M 726.31 63.66 C 728.24 63.23 730 62.98 731.66 62.77 C 722.082 76.658 709.506 88.2161 694.86 96.59 C 694.724 96.2387 694.491 95.9331 694.188 95.7084 C 693.886 95.4837 693.526 95.349 693.15 95.32 C 700.53 81.41 710.47 67.11 726.27 63.65 L 726.31 63.66 Z M 625.45 103.89 C 603.18 115 577.45 114.19 553.55 119.56 C 553.29 119.617 553.048 119.735 552.842 119.904 C 552.637 120.074 552.476 120.29 552.371 120.534 C 552.266 120.779 552.222 121.045 552.241 121.31 C 552.26 121.576 552.342 121.833 552.48 122.06 C 529.721 121.499 507.025 119.428 484.54 115.86 C 484.54 115.86 484.6 115.81 484.62 115.76 C 510.7 111.96 537.42 112.26 563.62 109.52 C 563.737 109.624 563.88 109.692 564.035 109.717 C 564.189 109.742 564.347 109.722 564.49 109.66 C 564.71 109.56 564.9 109.44 565.12 109.34 C 576.787 108.182 588.339 106.068 599.66 103.02 C 621.54 96.92 648.6 83.63 664.22 64.42 C 655.953 81.4568 642.336 95.3192 625.45 103.89 Z M 613.79 47.78 C 633.1 47.51 649.22 61.96 668.11 55.5 C 667.92 56.01 667.73 56.5 667.53 57.03 C 650.95 83.7 613.37 99.34 584.68 104.75 C 579.68 105.69 574.73 106.41 569.74 107.03 C 593.327 95.0804 611.232 74.2888 619.55 49.19 C 619.9 48.19 618.27 47.71 617.92 48.74 C 613.625 61.6733 606.699 73.5774 597.578 83.7023 C 588.456 93.8272 577.337 101.954 564.92 107.57 C 554.11 108.75 543.24 109.46 532.35 110.07 C 551.572 100.931 567.209 85.6598 576.8 66.66 C 588.71 59.17 598.86 47.99 613.79 47.78 Z M 564.56 72.25 C 567.827 71.3573 570.968 70.0571 573.91 68.38 C 564.166 86.3772 548.84 100.723 530.24 109.26 C 530.145 109.295 530.059 109.351 529.989 109.423 C 529.918 109.496 529.864 109.583 529.832 109.679 C 529.799 109.775 529.788 109.877 529.8 109.977 C 529.812 110.078 529.846 110.174 529.9 110.26 C 523.853 110.587 517.803 110.957 511.75 111.37 C 513.75 108.19 520.11 104.64 522.69 102.29 C 526.016 99.2168 529.08 95.8719 531.85 92.29 C 536.7 85.9832 540.651 79.0335 543.59 71.64 C 543.636 71.5037 543.636 71.3562 543.59 71.22 C 550.51 72.45 557.23 74.16 564.56 72.25 Z M 542.17 70.96 C 542.1 71.04 542 71.07 541.96 71.19 C 538.206 80.6103 532.749 89.2581 525.86 96.7 C 522.782 99.9721 519.437 102.982 515.86 105.7 C 513.66 107.36 510.97 108.54 509.86 111.13 C 509.81 111.24 509.86 111.35 509.86 111.45 C 501.6 112.05 493.37 112.86 485.18 114.03 C 488.18 104.32 499.32 98.54 505.96 91.33 C 510.96 85.94 516.78 80.2 519.06 73.07 C 524.06 71.47 529.06 70.17 534.17 70.19 C 536.853 70.2353 539.528 70.4928 542.17 70.96 Z M 499.17 78.96 C 505.17 78.02 511.08 75.74 517.05 73.74 C 513.59 82.88 503.84 91.98 496.64 98.07 C 490.87 102.95 485.25 106.82 483.35 114.27 C 482.86 114.35 482.35 114.39 481.88 114.47 C 481.779 114.481 481.682 114.515 481.596 114.568 C 481.51 114.622 481.437 114.694 481.383 114.779 C 481.328 114.864 481.293 114.961 481.281 115.061 C 481.268 115.162 481.278 115.264 481.31 115.36 C 470.97 113.72 460.637 111.863 450.31 109.79 L 449.76 109.33 C 449.449 109.052 449.051 108.889 448.635 108.869 C 448.218 108.849 447.807 108.973 447.47 109.22 C 442.98 108.31 438.47 107.38 434 106.41 C 452.83 87.73 473.5 82.98 499.14 78.95 L 499.17 78.96 Z M 397.86 6.64996 C 404.07 8.64996 410.05 11.13 416.46 12.49 C 426.332 14.5422 436.513 14.6068 446.41 12.68 C 446.12 12.89 445.84 13.13 445.54 13.34 C 428.14 23.08 405.35 27.26 386.25 31.4 C 375.79 33.67 365.25 35.56 354.7 37.22 C 368.128 30.5561 378.583 19.1195 384.02 5.14996 C 388.688 4.66229 393.405 5.17362 397.86 6.64996 Z M 317.86 11.13 C 320.36 11.97 321.62 14.6 324.68 15.21 C 332.15 16.72 337.9 10.13 344.84 9.20996 C 356.69 7.67996 358.43 16.94 369.27 10.39 C 373.179 7.94483 377.51 6.24924 382.04 5.38995 C 379.068 12.7084 374.646 19.3499 369.04 24.9146 C 363.434 30.4793 356.76 34.8522 349.42 37.77 C 349.29 37.77 349.24 37.93 349.16 38.02 C 339.027 39.54 328.873 40.8733 318.7 42.02 L 316.43 42.28 C 328.37 32.4 343.01 27.61 350.8 13.04 C 351.31 12.09 349.86 11.23 349.34 12.19 C 341.34 27.19 325.48 31.85 313.46 42.6 C 301.7 43.93 289.93 45.14 278.16 46.33 C 282.16 40.54 287.94 36.54 292.93 31.58 C 297.65 26.9 300.33 21.32 302.73 15.19 C 302.781 15.0696 302.794 14.9369 302.769 14.8087 C 302.744 14.6806 302.682 14.5627 302.59 14.47 C 307.51 11.67 312.84 9.44996 317.88 11.13 L 317.86 11.13 Z M 271.86 25.51 C 280.57 28.69 286.35 24.37 294.06 19.86 C 296.06 18.67 298.34 17.15 300.72 15.68 C 297.972 22.8443 293.476 29.2075 287.64 34.19 C 283.26 38 278.99 41.68 275.89 46.62 C 262.44 47.98 248.99 49.37 235.55 50.94 C 237.676 47.8694 240.135 45.0424 242.88 42.51 C 246.71 39.18 251.36 37.51 255.64 34.94 C 260.168 32.1466 263.756 28.0611 265.94 23.21 C 267.69 23.81 269.44 24.62 271.87 25.51 L 271.86 25.51 Z M 236.4 26.86 C 243.1 25.43 249.93 23.4 256.72 22.52 C 259.247 22.0939 261.832 22.1686 264.33 22.74 C 262.467 26.8245 259.524 30.3234 255.82 32.86 C 252.18 35.3 247.96 36.7 244.36 39.22 C 239.84 42.4 236.45 46.77 233.23 51.22 C 221.04 52.66 208.87 54.22 196.74 56.17 C 193.35 55.85 189.95 55.56 186.56 55.31 C 189.84 32.89 218.77 30.63 236.41 26.86 L 236.4 26.86 Z M 104.62 104.05 C 85.53 94.35 66.3801 84.86 47.2601 75.28 C 54.0701 73.44 60.9201 71.78 67.7801 70.21 C 67.8727 70.2898 67.982 70.3479 68.1001 70.38 C 81.8747 71.8718 95.4952 74.5484 108.81 78.38 C 108.88 78.47 108.89 78.58 109.01 78.65 C 112.01 80.3943 114.566 82.8099 116.476 85.7073 C 118.386 88.6047 119.599 91.9052 120.02 95.35 C 120.59 99.35 120.08 103.48 120.77 107.51 C 121.436 111.226 122.836 114.772 124.89 117.94 C 119.02 111.44 112.46 108 104.62 104.05 Z M 150.08 135.29 C 142.781 132.894 136.106 128.905 130.54 123.61 C 130.685 123.464 130.767 123.266 130.767 123.06 C 130.767 122.854 130.685 122.656 130.54 122.51 C 125.784 117.697 122.816 111.402 122.13 104.67 C 121.72 100.45 122.36 96.21 121.35 92.04 C 120.095 87.1722 117.286 82.8468 113.35 79.72 C 121.103 82.0333 128.77 84.6033 136.35 87.43 C 145.57 97.05 144.27 108.64 148.91 120.43 C 151.523 126.91 155.314 132.85 160.09 137.95 C 156.707 137.248 153.365 136.36 150.08 135.29 Z M 183.08 140.63 C 175.336 128.516 170.364 114.84 168.52 100.58 C 175.633 103.693 182.73 106.847 189.81 110.04 C 189.81 110.12 189.81 110.18 189.81 110.26 C 193.923 120.658 197.387 131.302 200.18 142.13 C 194.56 141.78 188.86 141.46 183.18 141.03 C 183.204 140.894 183.183 140.753 183.12 140.63 L 183.08 140.63 Z M 166.69 99.79 C 168.454 114.402 173.44 128.44 181.29 140.89 C 175.163 140.414 169.065 139.623 163.02 138.52 C 153.728 129.239 148.012 116.974 146.88 103.89 C 146.24 96.53 144.5 93.3 140.38 88.96 C 149.22 92.36 158.003 95.97 166.73 99.79 L 166.69 99.79 Z M 209.97 142.79 C 207.303 142.57 204.637 142.38 201.97 142.22 C 199.244 131.602 195.875 121.159 191.88 110.95 C 198.207 113.803 204.54 116.623 210.88 119.41 C 210.88 119.41 210.88 119.47 210.88 119.52 C 213.152 127.946 216.393 136.081 220.54 143.76 C 217.02 143.42 213.5 143.09 210.02 142.8 L 209.97 142.79 Z M 227.73 126.57 C 230.69 132.717 233.647 138.863 236.6 145.01 C 231.9 144.75 227.19 144.37 222.5 143.93 C 218.37 136.438 215.125 128.491 212.83 120.25 C 217.81 122.417 222.79 124.527 227.77 126.58 L 227.73 126.57 Z M 238.51 145.09 C 235.697 139.243 232.883 133.39 230.07 127.53 C 243.385 133.05 256.988 137.847 270.82 141.9 C 260.31 145.02 249.46 145.58 238.55 145.1 L 238.51 145.09 Z M 143.51 69.09 C 150.14 72.37 154.94 78.91 161.51 81.9 C 165.14 83.55 166.68 83.36 170.34 83.04 C 174 82.72 177.11 80.85 180.88 80.98 C 189.21 81.3 192.34 88.35 198.64 92.05 C 206.99 96.94 215.88 93.28 224.7 97.69 C 229.03 99.86 233.9 103.52 237.93 106.22 C 243.15 109.72 242.2 107.03 242.63 115.54 C 242.638 116.023 242.833 116.484 243.175 116.825 C 243.516 117.167 243.977 117.362 244.46 117.37 L 252.97 116.93 C 258.257 116.797 260.533 118.93 259.8 123.33 C 260.54 124.59 260.5 126.49 261.05 127.96 C 262.849 132.729 265.992 136.873 270.1 139.89 C 224.33 126.62 182.02 102.81 137.51 86.12 L 136.78 85.41 C 136.63 85.2603 136.427 85.1763 136.215 85.1763 C 136.003 85.1763 135.8 85.2603 135.65 85.41 C 115.11 77.82 94.06 71.86 71.97 69.17 C 77.88 67.86 83.8301 66.69 89.7801 65.58 C 89.9031 65.8919 90.1284 66.1528 90.4191 66.3199 C 90.7098 66.4871 91.0486 66.5505 91.3801 66.5 L 114.54 64.35 C 114.868 64.316 115.179 64.1914 115.44 63.99 C 125.13 63.44 134.74 64.74 143.57 69.13 L 143.51 69.09 Z" stroke-linecap="round" />
</g>
</svg>