<?xml version="1.0" encoding="UTF-8" standalone="no" ?>
<!DOCTYPE svg PUBLIC "-//W3C//DTD SVG 1.1//EN" "http://www.w3.org/Graphics/SVG/1.1/DTD/svg11.dtd">
<svg xmlns="http://www.w3.org/2000/svg" xmlns:xlink="http://www.w3.org/1999/xlink" version="1.1" width="1080" height="1080" viewBox="0 0 1080 1080" xml:space="preserve">
<desc>Created with Fabric.js 5.2.4</desc>
<defs>
</defs>
<rect x="0" y="0" width="100%" height="100%" fill="transparent"></rect>
<g transform="matrix(1 0 0 1 540 540)" id="dff71ddc-1035-4ccc-b4d7-5f663851e180"  >
<rect style="stroke: none; stroke-width: 1; stroke-dasharray: none; stroke-linecap: butt; stroke-dashoffset: 0; stroke-linejoin: miter; stroke-miterlimit: 4; fill: rgb(255,255,255); fill-rule: nonzero; opacity: 1; visibility: hidden;" vector-effect="non-scaling-stroke"  x="-540" y="-540" rx="0" ry="0" width="1080" height="1080" />
</g>
<g transform="matrix(1 0 0 1 540 540)" id="147e7220-eaaa-4a21-9e89-c2db63765003"  >
</g>
<g transform="matrix(1 0 0 1 540.5 540.5)" id="59e5176f-10f2-4aef-8d8b-c5ab893a627c"  >
<path style="stroke: rgb(255,255,255); stroke-width: 1; stroke-dasharray: none; stroke-linecap: butt; stroke-dashoffset: 0; stroke-linejoin: miter; stroke-miterlimit: 4; fill: rgb(255,255,255); fill-rule: nonzero; opacity: 1;" vector-effect="non-scaling-stroke"  transform=" translate(-421.99, -103.43)" d="M 839.64 105.71 C 831.33 90.8801 817.18 82.4301 801.88 76.4801 C 779.8 87.4801 757.06 97.7901 735.49 109.78 C 725.49 115.32 720.3 123.29 711.71 130.06 C 705.41 135.06 697.8 138.06 690.11 140.06 C 670.94 145.15 650.11 145.18 630.47 146.8 C 609.63 148.52 588.47 151.8 568.27 144.7 C 567.88 144.57 567.545 144.311 567.321 143.966 C 567.098 143.621 566.999 143.209 567.04 142.8 C 566.749 142.657 566.503 142.439 566.326 142.167 C 566.149 141.896 566.049 141.582 566.036 141.259 C 566.022 140.935 566.097 140.614 566.25 140.329 C 566.404 140.044 566.632 139.806 566.91 139.64 C 571.315 137.562 574.929 134.114 577.21 129.81 C 578.929 125.885 579.892 121.672 580.05 117.39 C 580.68 116.6 580.32 115.18 581.51 114.45 C 587.64 110.67 598.18 119.27 596.3 105.82 C 596.235 105.551 596.23 105.27 596.286 104.998 C 596.343 104.726 596.459 104.471 596.627 104.25 C 596.794 104.029 597.009 103.847 597.255 103.72 C 597.501 103.592 597.773 103.52 598.05 103.51 C 606.95 103.95 610.93 97.4001 617.91 93.7801 C 621.83 91.7801 624.64 91.6301 628.91 91.1601 C 633.42 90.6501 639.39 90.8101 643.2 87.4201 C 641.83 88.6401 646.27 82.5701 646.34 82.5001 C 648.576 80.0847 651.514 78.4335 654.74 77.7801 C 658.89 76.7801 662.54 77.9301 666.58 77.9201 C 677.58 77.9201 684.71 73.7801 693.66 68.3201 C 704.52 61.6901 716.9 59.5701 729.42 60.6701 C 729.789 60.7033 730.138 60.8501 730.42 61.0901 L 747.67 62.6901 C 747.711 62.5713 747.765 62.4573 747.83 62.3501 C 734.937 60.2563 721.936 58.8842 708.89 58.2401 C 661.06 55.8701 613.27 62.3301 566.55 72.1301 C 547.19 76.1301 527.91 80.8101 508.64 85.6001 C 508.845 85.6974 509.024 85.8406 509.164 86.0185 C 509.304 86.1965 509.401 86.4045 509.448 86.6262 C 509.494 86.8478 509.489 87.0772 509.432 87.2965 C 509.375 87.5158 509.268 87.7189 509.12 87.8901 C 498.6 101.96 487.9 116.17 474.65 127.82 C 468.288 133.343 461.127 137.871 453.41 141.25 L 453.32 141.53 C 453.282 141.662 453.211 141.783 453.113 141.879 C 453.015 141.976 452.894 142.046 452.761 142.082 C 452.629 142.118 452.489 142.119 452.356 142.086 C 452.222 142.052 452.1 141.985 452 141.89 C 444.62 145.17 436.93 147.89 428.66 151.39 C 414.16 157.57 410.13 176.66 393.54 178.85 C 380.42 180.58 371.79 176.05 361.3 187.18 C 355.4 193.45 351.09 200.58 344.3 206.04 C 343.3 206.83 341.55 206.71 341.24 205.22 C 337.65 187.8 339.42 169.98 347.68 154.05 C 357.05 135.91 373.05 126.06 388.14 113.85 C 371.78 116.97 355.35 119.62 338.81 121.55 C 338.838 121.804 338.798 122.061 338.694 122.294 C 338.59 122.528 338.427 122.73 338.22 122.88 C 317.672 139.296 293.361 150.338 267.48 155.01 C 251.55 158.01 237.39 161.16 222.37 167.45 C 217.88 169.34 213.63 171.09 208.78 171.9 C 200.84 173.22 190.78 170.9 185.47 178.75 C 185.263 179.095 184.948 179.364 184.575 179.515 C 184.202 179.667 183.789 179.693 183.4 179.59 C 172.17 174.99 160.86 169.16 149.25 165.59 C 136.86 161.78 131.25 168.86 120.52 172.97 C 104.23 179.18 86.7401 177.05 71.6401 168.83 C 71.3439 168.643 71.1071 168.375 70.9572 168.058 C 70.8073 167.741 70.7506 167.388 70.7935 167.04 C 70.8365 166.692 70.9774 166.364 71.1999 166.093 C 71.4223 165.822 71.7172 165.62 72.05 165.51 C 97.05 160.35 109.71 135.51 131.55 124.51 C 153.39 113.51 179.19 115.01 202.98 116.61 C 205.32 116.76 205.34 120.43 202.98 120.26 C 174.76 118.36 144.67 117.07 121.22 135.58 C 107.55 146.36 96.6101 160.58 80.3701 166.84 C 116.04 165.14 148.5 150.44 182.52 140.96 C 212.44 132.63 243.9 129.26 274.71 124.96 C 235.86 124.24 197.43 117.84 161.18 103.73 C 129.18 111.42 97.9601 94.3301 68.4401 83.8201 C 43.1701 74.8201 17.78 65.0601 1.16003 42.9201 C 1.00116 42.6409 0.918147 42.325 0.91925 42.0038 C 0.920354 41.6825 1.00553 41.3672 1.16632 41.0891 C 1.32711 40.811 1.55791 40.5798 1.83575 40.4186 C 2.1136 40.2574 2.42883 40.1717 2.75006 40.1701 C 29.9701 43.5301 65.89 21.4301 89.59 43.4501 C 97.14 50.4501 98.59 55.2601 106.59 58.1501 C 106.649 58.0033 106.747 57.8753 106.873 57.78 C 107 57.6847 107.149 57.6256 107.307 57.6092 C 107.464 57.5927 107.623 57.6195 107.766 57.6866 C 107.91 57.7537 108.032 57.8587 108.12 57.9901 C 108.3 58.2801 108.49 58.5401 108.67 58.8101 C 110.641 59.3614 112.645 59.7889 114.67 60.0901 C 120.41 60.9501 124.67 61.2201 129.74 64.4601 C 140.87 71.5101 149.05 85.5101 155.05 97.4201 C 157.12 98.3101 159.2 99.1801 161.28 100.01 C 161.542 99.9809 161.807 100.016 162.053 100.112 C 162.298 100.207 162.517 100.361 162.69 100.56 C 202.97 116.44 243.42 122.51 284.05 122.31 C 258.46 117.31 231.43 117.47 208.65 103.2 C 190.05 91.5101 176.75 73.6601 170.05 52.8501 C 169.923 52.4522 169.956 52.0202 170.143 51.6464 C 170.33 51.2727 170.655 50.9869 171.05 50.8501 C 171.158 50.7703 171.286 50.7218 171.42 50.7101 C 171.855 50.5875 172.319 50.6229 172.73 50.8101 C 195.73 62.3001 217.57 37.8101 241.09 46.5101 C 249.19 49.5101 255.85 55.2301 262.83 60.1001 C 275.99 69.2901 285 70.0301 301.01 67.7201 C 310.87 66.3001 317.2 67.5801 326.51 70.8701 C 338.17 74.9801 350.03 75.7701 362.13 77.8701 C 382.01 81.3401 399.37 91.0801 413.34 105.54 C 413.34 105.54 413.34 105.61 413.41 105.64 C 488.55 89.1201 564.05 65.2101 639.56 57.0201 C 630.093 55.6068 620.613 54.3335 611.12 53.2001 C 611.62 54.0601 610.26 54.8301 609.65 53.9801 C 609.4 53.6301 609.13 53.2901 608.88 52.9801 C 583.01 49.9801 557.05 47.6401 531.15 44.7401 C 531.125 44.8899 531.061 45.0303 530.963 45.1463 C 530.865 45.2622 530.737 45.3495 530.594 45.3987 C 530.45 45.448 530.296 45.4573 530.147 45.4259 C 529.999 45.3944 529.861 45.3233 529.75 45.2201 C 529.48 44.9601 529.18 44.7401 528.9 44.4901 C 522.32 43.7501 515.73 42.9701 509.16 42.1101 C 488.932 39.5841 468.844 36.0463 448.97 31.5101 C 435.44 28.3301 419.97 25.1801 406.43 19.6501 C 452.43 49.6501 508.84 57.8601 562.6 64.9601 C 564.9 65.2701 564.93 68.9601 562.6 68.6201 C 501.25 60.5101 436.98 51.0201 387.65 10.5101 C 386.19 9.31012 387.77 6.99012 389.43 7.45012 C 410.43 13.2701 426.54 8.26012 446.53 2.54012 C 451.16 1.22012 456.19 -0.0998822 461.07 0.480118 C 467.19 1.20012 470.33 5.27012 475.63 7.48012 C 484.68 11.2001 492.56 3.59012 502.43 7.08012 C 505.06 8.01012 508.51 10.5901 511.29 10.8901 C 516.34 11.4101 520.98 7.58012 525.11 6.79012 C 527.87 6.27012 528.9 5.84011 531.5 6.38011 C 536.25 7.38011 540.64 10.9501 544.77 13.3801 C 547.98 15.2501 551.46 17.8301 554.9 19.3101 C 559.567 22.4901 564.997 22.9668 571.19 20.7401 L 573.3 18.8601 C 583.24 17.5401 592.45 20.3301 602.55 22.4901 C 623.47 26.9501 656.26 29.1301 660.11 55.2801 C 682.264 53.6648 704.513 53.8855 726.63 55.9401 C 751.63 58.3801 776.72 63.3301 800.32 72.0301 C 817.58 78.3201 833.58 87.3901 842.8 103.86 C 843.96 105.93 840.8 107.77 839.64 105.71 Z M 505.78 86.3001 C 492.5 89.6101 479.22 92.9701 465.93 96.3001 C 459.44 101.39 461.42 111.8 459.73 119.3 C 458.34 125.46 456.4 131.52 454.56 137.58 C 475.69 125.68 491.26 105.69 505.78 86.3001 Z M 452.43 138.63 C 455.43 128.46 458.62 118.47 459.43 107.81 C 459.75 103.57 460.38 100.04 462.79 97.0601 C 455.75 98.8068 448.707 100.523 441.66 102.21 C 437.66 110.5 434.74 118.21 435.11 127.64 C 435.348 133.648 435.134 139.665 434.47 145.64 L 437.95 144.64 C 442.958 143.106 447.807 141.093 452.43 138.63 Z M 432.71 146.21 C 433.53 137.68 432.6 129.21 433.47 120.76 C 434.13 114.35 436.77 108.46 439.54 102.76 L 439.32 102.76 C 439.304 102.908 439.244 103.048 439.148 103.162 C 439.051 103.277 438.923 103.359 438.78 103.4 C 432.889 105.168 427.142 107.384 421.59 110.03 C 415.1 119.29 411.88 126.68 414 138.03 C 415.105 143.588 415.837 149.214 416.19 154.87 C 420.99 150.41 426.53 148.18 432.71 146.21 Z M 400.17 173.1 C 406.17 170.36 409.57 162.39 413.7 157.53 C 413.98 157.19 414.27 156.93 414.56 156.62 C 414.16 147.42 410.75 138.27 411.16 129.17 C 411.44 122.65 414.78 116.96 418.39 111.69 C 412.042 114.935 405.986 118.722 400.29 123.01 C 392.15 140.27 391.03 156.11 392.54 174.82 C 395.171 174.745 397.762 174.161 400.17 173.1 Z M 356.39 187.34 C 361.22 181.61 366.53 176.34 374.14 174.79 C 379.65 173.71 385.29 174.89 390.86 174.88 C 389.39 156.76 390.44 141.61 397.51 125.18 C 373.81 144.09 356.9 170.97 345.63 199.95 C 345.677 199.945 345.723 199.945 345.77 199.95 C 349.11 199.34 354.4 189.71 356.39 187.34 Z M 364.17 137.81 C 352.19 150.51 344.31 165.91 343.05 183.51 C 342.858 186.346 342.832 189.191 342.97 192.03 C 343.13 195.34 342.74 198.44 343.92 199.54 C 355.72 169.18 373.59 141.09 398.92 121.87 L 399.06 121.57 C 399.122 121.421 399.238 121.301 399.384 121.233 C 399.53 121.165 399.696 121.153 399.85 121.2 C 408.522 114.731 418.002 109.423 428.05 105.41 C 417.22 107.91 406.38 110.28 395.5 112.41 C 385.27 121.3 373.55 127.82 364.17 137.81 Z M 333.05 122.17 C 321.35 123.417 309.59 124.263 297.77 124.71 C 297.77 124.82 297.85 124.92 297.77 125.05 C 295.227 133.444 290.491 141.007 284.05 146.96 C 301.75 141.733 318.353 133.334 333.05 122.17 Z M 279.98 148.17 C 287.633 142.204 293.276 134.038 296.15 124.77 C 294.26 124.83 292.38 124.95 290.49 124.99 C 288.6 125.03 286.77 124.99 284.91 124.99 C 284.865 125.062 284.805 125.123 284.734 125.17 C 284.664 125.216 284.584 125.247 284.5 125.26 C 282.3 125.59 280.09 125.9 277.88 126.26 C 272.509 133.258 266.322 139.59 259.45 145.12 C 254 149.46 247.84 152.66 242.02 156.38 C 248.52 154.75 255.05 153.51 261.75 152.32 C 267.99 151.187 274.09 149.79 280.05 148.13 L 279.98 148.17 Z M 194.13 169.51 C 197.79 168.77 201.57 169.02 205.26 168.59 C 213.9 167.59 220.83 163.76 228.71 160.59 C 231.53 159.45 234.38 158.49 237.27 157.59 C 244.04 152.7 251.65 149.14 258.27 143.89 C 264.634 138.763 270.397 132.933 275.45 126.51 C 263.26 128.22 250.98 129.84 238.73 131.63 C 238.73 131.72 238.73 131.81 238.73 131.92 C 234.53 140.47 224.17 145.22 216.63 150.43 L 183.19 173.58 C 186.85 172.68 189.5 170.46 194.13 169.51 Z M 123.22 167.83 C 129.31 164.91 134.42 159.9 141.52 159.83 C 147.75 159.74 154.39 163.78 159.98 166.07 C 160.67 166.35 161.44 166.71 162.25 167.07 C 166.56 159.95 171.81 152.64 174.98 144.95 C 143.46 154.51 112.87 167.15 79.6 168.51 C 93.6 174.29 109.15 174.51 123.22 167.84 L 123.22 167.83 Z M 178.05 144.01 L 177.05 144.33 C 177.05 144.33 177.05 144.4 177.05 144.44 C 173.88 152.66 168.33 160.28 163.75 167.86 C 168.75 170.41 175.14 173.98 179.49 174.06 C 180.038 174.062 180.586 174.032 181.13 173.97 C 181.018 173.783 180.981 173.559 181.028 173.346 C 181.074 173.132 181.2 172.944 181.38 172.82 L 208.9 153.77 C 217.45 147.85 231.47 141.32 236.71 131.96 C 216.9 134.89 197.18 138.38 178.05 144.01 Z M 13.4 51.4201 C 18.7743 56.3548 24.72 60.6285 31.11 64.1501 C 43.17 70.9801 56.3501 75.6501 69.3701 80.2801 C 94.5601 89.2801 121.6 103.59 148.89 101.88 L 8.69006 46.8101 C 9.72006 48.4601 12.5801 50.6101 13.4401 51.4201 L 13.4 51.4201 Z M 14.8301 44.4201 C 11.8301 44.5701 9.38004 43.7501 8.60004 44.9701 L 91.0001 77.3101 C 85.3601 72.8201 81.12 67.0101 76.73 61.1201 C 70.78 53.1201 62.12 46.8101 58.15 37.5701 C 57.61 37.5701 57.1501 37.5701 56.5801 37.5701 C 42.4901 38.6301 29.0501 43.7301 14.8701 44.4101 L 14.8301 44.4201 Z M 95.7601 56.3301 C 84.6901 44.8301 76.2201 37.3801 59.9501 37.5601 C 63.6201 45.6201 71.3301 51.3001 76.6401 58.2601 C 82.6401 66.1401 87.8001 74.2601 96.6401 79.2601 C 96.8093 79.3606 96.9343 79.5213 96.9901 79.7101 C 115.423 86.9101 133.837 94.1301 152.23 101.37 C 152.32 101.37 152.33 101.48 152.39 101.52 L 153.05 101.45 C 152.987 101.34 152.931 101.226 152.88 101.11 C 135.251 92.2517 120.208 78.9901 109.21 62.6101 C 104.4 61.9501 100.39 61.1001 95.8 56.3201 L 95.7601 56.3301 Z M 116.76 63.8201 C 114.83 63.3901 113.07 63.1401 111.41 62.9301 C 120.988 76.8181 133.564 88.3762 148.21 96.7501 C 148.346 96.3988 148.579 96.0932 148.882 95.8685 C 149.184 95.6438 149.544 95.5092 149.92 95.4801 C 142.54 81.5701 132.6 67.2701 116.8 63.8101 L 116.76 63.8201 Z M 217.62 104.05 C 239.89 115.16 265.62 114.35 289.52 119.72 C 289.78 119.777 290.023 119.895 290.228 120.064 C 290.433 120.234 290.594 120.45 290.699 120.695 C 290.804 120.939 290.848 121.205 290.829 121.471 C 290.81 121.736 290.728 121.993 290.59 122.22 C 313.349 121.659 336.046 119.588 358.53 116.02 C 358.53 116.02 358.47 115.97 358.45 115.92 C 332.37 112.12 305.65 112.42 279.45 109.68 C 279.333 109.784 279.19 109.852 279.035 109.877 C 278.881 109.902 278.723 109.882 278.58 109.82 C 278.36 109.72 278.17 109.6 277.95 109.5 C 266.283 108.342 254.731 106.228 243.41 103.18 C 221.53 97.0801 194.47 83.7901 178.85 64.5801 C 187.117 81.6169 200.734 95.4794 217.62 104.05 Z M 229.28 47.9401 C 209.97 47.6701 193.85 62.1201 174.96 55.6601 C 175.15 56.1701 175.34 56.6601 175.54 57.1901 C 192.12 83.8601 229.7 99.5001 258.39 104.91 C 263.39 105.85 268.34 106.57 273.33 107.19 C 249.743 95.2406 231.838 74.449 223.52 49.3501 C 223.17 48.3501 224.8 47.8701 225.15 48.9001 C 229.445 61.8335 236.371 73.7375 245.493 83.8624 C 254.614 93.9874 265.733 102.114 278.15 107.73 C 288.96 108.91 299.83 109.62 310.72 110.23 C 291.498 101.091 275.861 85.82 266.27 66.8201 C 254.36 59.3301 244.21 48.1501 229.28 47.9401 Z M 278.51 72.4101 C 275.243 71.5175 272.102 70.2173 269.16 68.5401 C 278.904 86.5374 294.23 100.883 312.83 109.42 C 312.925 109.455 313.011 109.511 313.082 109.583 C 313.152 109.656 313.206 109.743 313.238 109.839 C 313.271 109.935 313.282 110.037 313.27 110.137 C 313.258 110.238 313.224 110.334 313.17 110.42 C 319.217 110.747 325.267 111.117 331.32 111.53 C 329.32 108.35 322.96 104.8 320.38 102.45 C 317.054 99.377 313.99 96.0321 311.22 92.4501 C 306.37 86.1434 302.419 79.1937 299.48 71.8001 C 299.434 71.6638 299.434 71.5164 299.48 71.3801 C 292.56 72.6101 285.84 74.3201 278.51 72.4101 Z M 300.9 71.1201 C 300.97 71.2001 301.07 71.2301 301.11 71.3501 C 304.864 80.7705 310.322 89.4183 317.21 96.8601 C 320.288 100.132 323.633 103.143 327.21 105.86 C 329.41 107.52 332.1 108.7 333.21 111.29 C 333.26 111.4 333.21 111.51 333.21 111.61 C 341.47 112.21 349.7 113.02 357.89 114.19 C 354.89 104.48 343.75 98.7001 337.11 91.4901 C 332.11 86.1001 326.29 80.3601 324.01 73.2301 C 319.01 71.6301 314.01 70.3301 308.9 70.3501 C 306.217 70.3954 303.542 70.6529 300.9 71.1201 Z M 343.9 79.1201 C 337.9 78.1801 331.99 75.9001 326.02 73.9001 C 329.48 83.0401 339.23 92.1401 346.43 98.2301 C 352.2 103.11 357.82 106.98 359.72 114.43 C 360.21 114.51 360.72 114.55 361.19 114.63 C 361.291 114.641 361.388 114.675 361.474 114.728 C 361.56 114.782 361.633 114.854 361.687 114.939 C 361.742 115.024 361.777 115.121 361.789 115.221 C 361.802 115.322 361.792 115.424 361.76 115.52 C 372.1 113.88 382.433 112.023 392.76 109.95 L 393.31 109.49 C 393.621 109.212 394.019 109.049 394.436 109.029 C 394.852 109.009 395.264 109.133 395.6 109.38 C 400.09 108.47 404.6 107.54 409.07 106.57 C 390.24 87.8901 369.57 83.1401 343.93 79.1101 L 343.9 79.1201 Z M 445.21 6.81012 C 439 8.81012 433.02 11.2901 426.61 12.6501 C 416.738 14.7024 406.557 14.767 396.66 12.8401 C 396.95 13.0501 397.23 13.2901 397.53 13.5001 C 414.93 23.2401 437.72 27.4201 456.82 31.5601 C 467.28 33.8301 477.82 35.7201 488.37 37.3801 C 474.943 30.7163 464.487 19.2796 459.05 5.31012 C 454.383 4.82245 449.665 5.33378 445.21 6.81012 Z M 525.21 11.2901 C 522.71 12.1301 521.45 14.7601 518.39 15.3701 C 510.92 16.8801 505.17 10.2901 498.23 9.37012 C 486.38 7.84012 484.64 17.1001 473.8 10.5501 C 469.891 8.10498 465.56 6.4094 461.03 5.55011 C 464.002 12.8686 468.424 19.5101 474.03 25.0748 C 479.636 30.6395 486.31 35.0123 493.65 37.9301 C 493.78 37.9301 493.83 38.0901 493.91 38.1801 C 504.043 39.7001 514.197 41.0334 524.37 42.1801 L 526.64 42.4401 C 514.7 32.5601 500.06 27.7701 492.27 13.2001 C 491.76 12.2501 493.21 11.3901 493.73 12.3501 C 501.73 27.3501 517.59 32.0101 529.61 42.7601 C 541.37 44.0901 553.14 45.3001 564.91 46.4901 C 560.91 40.7001 555.13 36.7001 550.14 31.7401 C 545.42 27.0601 542.74 21.4801 540.34 15.3501 C 540.29 15.2297 540.276 15.097 540.301 14.9689 C 540.326 14.8407 540.388 14.7228 540.48 14.6301 C 535.56 11.8301 530.23 9.61012 525.19 11.2901 L 525.21 11.2901 Z M 571.21 25.6701 C 562.5 28.8501 556.72 24.5301 549.01 20.0201 C 547.01 18.8301 544.73 17.3101 542.35 15.8401 C 545.098 23.0045 549.594 29.3676 555.43 34.3501 C 559.81 38.1601 564.08 41.8401 567.18 46.7801 C 580.63 48.1401 594.08 49.5301 607.52 51.1001 C 605.394 48.0295 602.935 45.2025 600.19 42.6701 C 596.36 39.3401 591.71 37.6701 587.43 35.1001 C 582.902 32.3068 579.315 28.2212 577.13 23.3701 C 575.38 23.9701 573.63 24.7801 571.2 25.6701 L 571.21 25.6701 Z M 606.67 27.0201 C 599.97 25.5901 593.14 23.5601 586.35 22.6801 C 583.823 22.2541 581.238 22.3288 578.74 22.9001 C 580.603 26.9847 583.546 30.4836 587.25 33.0201 C 590.89 35.4601 595.11 36.8601 598.71 39.3801 C 603.23 42.5601 606.62 46.9301 609.84 51.3801 C 622.03 52.8201 634.2 54.3801 646.33 56.3301 C 649.72 56.0101 653.12 55.7201 656.51 55.4701 C 653.23 33.0501 624.3 30.7901 606.66 27.0201 L 606.67 27.0201 Z M 738.45 104.21 C 757.54 94.5101 776.69 85.0201 795.81 75.4401 C 789 73.6001 782.15 71.9401 775.29 70.3701 C 775.197 70.4499 775.088 70.508 774.97 70.5401 C 761.195 72.0319 747.575 74.7085 734.26 78.5401 C 734.19 78.6301 734.18 78.7401 734.06 78.8101 C 731.06 80.5545 728.504 82.97 726.594 85.8674 C 724.684 88.7648 723.471 92.0653 723.05 95.5101 C 722.48 99.5101 722.99 103.64 722.3 107.67 C 721.634 111.386 720.234 114.932 718.18 118.1 C 724.05 111.6 730.61 108.16 738.45 104.21 Z M 692.99 135.45 C 700.289 133.054 706.964 129.065 712.53 123.77 C 712.385 123.624 712.303 123.426 712.303 123.22 C 712.303 123.014 712.385 122.816 712.53 122.67 C 717.286 117.857 720.254 111.562 720.94 104.83 C 721.35 100.61 720.71 96.3701 721.72 92.2001 C 722.975 87.3324 725.784 83.0069 729.72 79.8801 C 721.967 82.1935 714.3 84.7635 706.72 87.5901 C 697.5 97.2101 698.8 108.8 694.16 120.59 C 691.547 127.07 687.756 133.011 682.98 138.11 C 686.363 137.409 689.705 136.521 692.99 135.45 Z M 659.99 140.79 C 667.734 128.676 672.706 115 674.55 100.74 C 667.437 103.853 660.34 107.007 653.26 110.2 C 653.26 110.28 653.26 110.34 653.26 110.42 C 649.147 120.818 645.683 131.462 642.89 142.29 C 648.51 141.94 654.21 141.62 659.89 141.19 C 659.866 141.054 659.887 140.913 659.95 140.79 L 659.99 140.79 Z M 676.38 99.9501 C 674.617 114.562 669.63 128.6 661.78 141.05 C 667.907 140.575 674.005 139.784 680.05 138.68 C 689.342 129.399 695.059 117.135 696.19 104.05 C 696.83 96.6901 698.57 93.4601 702.69 89.1201 C 693.85 92.5201 685.067 96.1301 676.34 99.9501 L 676.38 99.9501 Z M 633.1 142.95 C 635.767 142.73 638.433 142.54 641.1 142.38 C 643.826 131.762 647.195 121.319 651.19 111.11 C 644.863 113.963 638.53 116.783 632.19 119.57 C 632.19 119.57 632.19 119.63 632.19 119.68 C 629.918 128.107 626.677 136.241 622.53 143.92 C 626.05 143.58 629.57 143.25 633.05 142.96 L 633.1 142.95 Z M 615.34 126.73 C 612.38 132.877 609.423 139.023 606.47 145.17 C 611.17 144.91 615.88 144.53 620.57 144.09 C 624.7 136.598 627.945 128.651 630.24 120.41 C 625.26 122.577 620.28 124.687 615.3 126.74 L 615.34 126.73 Z M 604.56 145.25 C 607.373 139.403 610.187 133.55 613 127.69 C 599.685 133.21 586.082 138.007 572.25 142.06 C 582.76 145.18 593.61 145.74 604.52 145.26 L 604.56 145.25 Z M 699.56 69.2501 C 692.93 72.5301 688.13 79.0701 681.56 82.0601 C 677.93 83.7101 676.39 83.5201 672.73 83.2001 C 669.07 82.8801 665.96 81.0101 662.19 81.1401 C 653.86 81.4601 650.73 88.5101 644.43 92.2101 C 636.08 97.1001 627.19 93.4401 618.37 97.8501 C 614.04 100.02 609.17 103.68 605.14 106.38 C 599.92 109.88 600.87 107.19 600.44 115.7 C 600.432 116.183 600.237 116.644 599.895 116.986 C 599.554 117.327 599.093 117.522 598.61 117.53 L 590.1 117.09 C 584.813 116.957 582.537 119.09 583.27 123.49 C 582.53 124.75 582.57 126.65 582.02 128.12 C 580.222 132.889 577.078 137.033 572.97 140.05 C 618.74 126.78 661.05 102.97 705.56 86.2801 L 706.29 85.5701 C 706.44 85.4205 706.643 85.3365 706.855 85.3365 C 707.067 85.3365 707.27 85.4205 707.42 85.5701 C 727.96 77.9801 749.01 72.0201 771.1 69.3301 C 765.19 68.0201 759.24 66.8501 753.29 65.7401 C 753.167 66.052 752.942 66.3129 752.651 66.4801 C 752.36 66.6472 752.021 66.7107 751.69 66.6601 L 728.53 64.5101 C 728.202 64.4762 727.891 64.3515 727.63 64.1501 C 717.94 63.6001 708.33 64.9001 699.5 69.2901 L 699.56 69.2501 Z" stroke-linecap="round" />
</g>
</svg>