<svg width="232" height="41" viewBox="0 0 232 41" fill="none" xmlns="http://www.w3.org/2000/svg">
<g id="Modo_de_aislamiento" clip-path="url(#clip0_248_1484)">
<path id="Vector" d="M231.722 19.196C231.632 19.876 231.542 20.556 231.452 21.2351C231.416 21.4858 231.369 21.7356 231.316 22.0467C229.163 21.8321 227.016 21.7816 224.823 22.0801V39.0566H220.546C220.533 38.8708 220.51 38.6959 220.51 38.5254C220.51 32.2437 220.507 25.9623 220.501 19.6812C220.501 19.306 220.604 19.1211 220.982 19.0192C223.606 18.3158 226.261 17.9063 228.988 18.1047C229.899 18.1706 230.811 18.2319 231.723 18.2959L231.722 19.196Z" fill="#4A4700"/>
<path id="Vector_2" d="M12.7592 18.4945C13.0199 19.6885 13.2183 20.8393 13.5348 21.954C13.7152 22.5925 14.0498 23.1995 14.3844 23.7811C16.4496 27.3669 18.5573 30.9284 20.5964 34.5277C21.1149 35.4439 21.4378 36.4703 21.8509 37.4452C21.8833 37.5218 21.9185 37.5985 21.9762 37.7292C22.9935 36.1411 23.4949 34.4663 23.4904 32.6329C23.4859 30.9256 23.0188 29.3573 22.1629 27.8873C20.4494 24.9472 18.7286 22.0108 17.0449 19.0536C15.3025 15.9873 15.2132 12.8813 16.9024 9.75639C16.9727 9.62652 17.0575 9.50568 17.1567 9.34605C18.0315 12.2221 19.7928 14.5976 21.1988 17.1534C22.6048 19.7093 24.0974 22.2309 25.5638 24.7606C26.2636 25.9682 26.9499 27.1793 27.253 28.6385C27.3411 28.539 27.4227 28.4338 27.4974 28.3238C29.1883 25.3477 29.357 22.2814 27.7291 19.2728C26.0156 16.0955 24.1109 13.0184 22.3279 9.87634C20.5765 6.78748 20.5792 3.66436 22.3027 0.547543C22.3523 0.457357 22.4109 0.372583 22.4948 0.237305C22.6661 0.74054 22.7653 1.22303 22.9863 1.6442C23.7228 3.06733 24.484 4.47753 25.2698 5.8748C26.9238 8.79682 28.5994 11.7062 30.2715 14.6228C30.8805 15.6775 31.2526 16.8522 31.3618 18.0652C31.4033 18.5161 31.572 18.6622 31.9733 18.7695C34.3921 19.4216 36.6927 20.3541 38.7841 21.7511C40.1702 22.6764 41.3995 23.7676 42.2932 25.1944C43.9166 27.7881 43.646 30.8445 41.5618 33.3724C39.9078 35.3808 37.7569 36.6993 35.4039 37.7175C32.2393 39.0856 28.9025 39.7963 25.4754 40.0885C20.9724 40.4718 16.5353 40.1282 12.1857 38.889C9.26005 38.0557 6.51029 36.8463 4.17449 34.8433C2.74865 33.6177 1.62223 32.1729 1.14876 30.3124C0.656346 28.3752 1.08202 26.5985 2.15252 24.9545C3.1635 23.4015 4.55236 22.2426 6.10446 21.2668C8.11559 20.0042 10.3035 19.151 12.5825 18.517C12.6403 18.5024 12.6996 18.4948 12.7592 18.4945Z" fill="#4A4700"/>
<path id="Vector_3" d="M194.165 39.0521H190.188C190.119 38.2584 190.053 37.4855 189.976 36.5945C189.833 36.7749 189.743 36.8723 189.666 36.9805C188.476 38.6588 186.821 39.4471 184.796 39.5354C181.939 39.6608 179.499 38.8013 177.671 36.5205C176.706 35.3157 176.129 33.9232 175.812 32.4234C175.289 29.9496 175.288 27.4713 175.963 25.0282C176.969 21.3919 179.402 19.222 183.059 18.3996C185.21 17.9153 187.377 17.9225 189.547 18.2733C189.637 18.2877 189.727 18.2877 189.873 18.2994C189.882 18.1119 189.897 17.9387 189.898 17.771C189.898 15.896 189.906 14.021 189.891 12.1461C189.891 11.8359 189.973 11.7006 190.285 11.632C191.559 11.3564 192.863 11.2398 194.167 11.2848L194.165 39.0521ZM189.897 28.4228C189.897 26.5018 189.89 24.5818 189.903 22.6617C189.903 22.374 189.842 22.2054 189.533 22.1819C188.219 22.0845 186.899 21.8546 185.591 21.9114C183.179 22.0214 181.369 23.1812 180.541 25.5188C179.69 27.9268 179.712 30.3843 180.56 32.795C181.144 34.458 182.3 35.5763 184.071 35.9587C186.07 36.3916 187.867 35.846 189.556 34.7935C189.819 34.6294 189.902 34.4327 189.9 34.1333C189.89 32.2331 189.897 30.3275 189.897 28.4228Z" fill="#4A4700"/>
<path id="Vector_4" d="M67.9686 16.0784C66.0544 15.4168 64.0576 15.024 62.0353 14.9114C60.9035 14.8456 59.7807 14.9114 58.6912 15.2325C55.6547 16.1235 55.7151 19.4135 57.2816 20.8871C58.1501 21.706 59.1846 22.2336 60.2524 22.7215C62.1057 23.5683 63.9896 24.3574 65.7879 25.3089C67.294 26.1034 68.5422 27.2542 69.2475 28.8595C70.6002 31.9411 70.2251 36.9491 64.9519 38.9017C63.3854 39.4815 61.7603 39.7133 60.0972 39.7386C57.3763 39.7737 54.7032 39.5194 52.1438 38.4976C51.6658 38.3073 51.4484 38.1071 51.5756 37.5597C51.7993 36.6001 51.9535 35.6243 52.1447 34.6575C52.1746 34.541 52.216 34.4277 52.2682 34.3193C53.5308 34.6801 54.7357 35.0904 55.9749 35.351C58.105 35.802 60.2569 35.9409 62.4051 35.4178C62.6808 35.3464 62.9519 35.2581 63.2168 35.1535C66.0477 34.0857 65.8069 30.876 64.3405 29.562C63.7402 29.019 63.0735 28.5541 62.3564 28.1786C61.184 27.5771 59.9683 27.0612 58.749 26.5634C56.9453 25.8275 55.211 24.9842 53.8194 23.5773C52.2709 22.0135 51.7253 20.0871 51.8353 17.9434C52.0518 13.7218 54.954 11.8857 58.0356 11.3004C61.5113 10.6402 64.9384 10.973 68.3059 12.0155C68.5088 12.0787 68.6667 12.1499 68.6162 12.4105C68.4033 13.6145 68.1905 14.8185 67.9686 16.0784Z" fill="#4A4700"/>
<path id="Vector_5" d="M202.291 30.552C202.471 33.291 204.332 35.3057 206.97 35.6782C209.864 36.0867 212.652 35.6665 215.329 34.522C215.426 34.4805 215.522 34.4381 215.62 34.3994C215.672 34.3868 215.725 34.3783 215.779 34.3741C215.673 35.0956 215.575 35.7945 215.463 36.4926C215.396 36.9065 215.272 37.3132 215.236 37.7281C215.201 38.1231 214.995 38.2827 214.65 38.4108C211.372 39.6229 208.025 39.8213 204.653 38.9519C201.469 38.133 199.337 36.1039 198.43 32.9347C197.512 29.7386 197.545 26.5234 198.76 23.4039C200.023 20.1672 202.531 18.5213 205.926 18.1236C207.524 17.936 209.11 17.9919 210.658 18.4401C213.895 19.3771 215.675 21.6219 216.286 24.8532C216.615 26.5911 216.508 28.347 216.376 30.0984C216.349 30.4591 216.191 30.5574 215.835 30.5565C211.525 30.5439 207.214 30.5484 202.903 30.5484L202.291 30.552ZM202.275 26.9031H212.133C212.242 24.2363 210.87 21.9384 208.075 21.7102C204.624 21.4307 202.501 23.2506 202.275 26.9031Z" fill="#4A4700"/>
<path id="Vector_6" d="M91.3104 39.053H87.2891C87.2223 38.3027 87.1556 37.5542 87.0771 36.6739C86.9094 36.8832 86.8066 37.0004 86.7164 37.1249C85.5268 38.6797 83.9332 39.4471 81.9934 39.5364C79.1182 39.669 76.6679 38.7942 74.8407 36.4891C73.8126 35.1922 73.2291 33.6933 72.9333 32.0763C72.4932 29.671 72.5112 27.2676 73.194 24.9083C74.2293 21.3343 76.6562 19.2266 80.2492 18.4014C82.1764 17.9568 84.1217 17.9884 86.0724 18.1661C87.6895 18.3122 89.284 18.5674 90.8451 19.0318C91.223 19.1446 91.3176 19.324 91.3176 19.6956C91.3068 25.9797 91.3041 32.2642 91.3095 38.5489L91.3104 39.053ZM86.9941 28.3489V22.5437C86.9928 22.5287 86.9928 22.5136 86.9941 22.4986C87.0474 22.1378 86.8859 21.9773 86.5252 21.971C85.3095 21.9484 84.0902 21.8447 82.8808 21.9043C80.085 22.0404 78.0595 23.708 77.3885 26.4081C76.8807 28.4544 76.9033 30.5188 77.5616 32.5317C78.22 34.5447 79.5692 35.8027 81.7327 36.058C83.5085 36.2681 85.1147 35.7874 86.6027 34.8387C86.7326 34.7686 86.8391 34.6621 86.9093 34.5324C86.9794 34.4026 87.0102 34.2552 86.9978 34.1082C86.986 32.1881 86.9941 30.269 86.9941 28.3489Z" fill="#4A4700"/>
<path id="Vector_7" d="M149.532 39.0549H145.523C145.454 38.3028 145.386 37.5443 145.307 36.6885C145.15 36.8751 145.062 36.9716 144.984 37.0763C143.773 38.6852 142.141 39.459 140.147 39.5383C137.502 39.6429 135.196 38.8863 133.396 36.8751C132.289 35.6387 131.633 34.1696 131.273 32.5643C130.699 30.0039 130.702 27.439 131.426 24.9138C132.45 21.338 134.881 19.2321 138.476 18.4006C140.433 17.9497 142.414 17.9308 144.387 18.195C145.958 18.406 147.51 18.756 149.071 19.0401C149.425 19.105 149.541 19.2872 149.54 19.6578C149.528 25.9582 149.525 32.2588 149.532 38.5598V39.0549ZM145.112 28.3445C145.112 26.3947 145.103 24.444 145.121 22.4942C145.121 22.1334 145.009 21.9765 144.647 21.9702C143.432 21.9485 142.212 21.8439 141.003 21.9052C138.247 22.045 136.267 23.6395 135.556 26.2892C134.982 28.3714 135.04 30.5776 135.724 32.6265C136.225 34.1353 137.167 35.2996 138.738 35.8001C140.96 36.5108 143.001 36.0058 144.883 34.7242C145.018 34.634 145.102 34.3752 145.103 34.1939C145.121 32.2441 145.116 30.2943 145.116 28.3445H145.112Z" fill="#4A4700"/>
<path id="Vector_8" d="M158.635 22.1443V39.046H154.358C154.347 38.9026 154.324 38.7466 154.324 38.5906C154.324 32.2776 154.321 25.9619 154.315 19.6435C154.315 19.2909 154.422 19.1601 154.772 19.0843C157.415 18.5072 160.066 17.9868 162.788 18.049C164.535 18.0896 166.261 18.3006 167.905 18.9509C170.414 19.9384 171.7 21.8278 171.936 24.4657C172.002 25.1962 172.017 25.933 172.017 26.6671C172.025 30.6131 172.025 34.5584 172.017 38.5031V39.055H167.611V38.4634C167.611 34.5629 167.624 30.6624 167.6 26.7627C167.595 25.9994 167.512 25.2386 167.354 24.4919C167.11 23.3384 166.338 22.6142 165.227 22.2571C163.664 21.7547 162.055 21.835 160.448 21.9414C159.859 21.9766 159.267 22.0704 158.635 22.1443Z" fill="#4A4700"/>
<path id="Vector_9" d="M113.786 39.0575H109.477V38.5164C109.477 34.5726 109.489 30.6288 109.467 26.685C109.46 25.9518 109.38 25.2212 109.227 24.5043C108.98 23.3319 108.201 22.6041 107.071 22.2496C105.521 21.7563 103.928 21.8384 102.338 21.9385C101.743 21.9755 101.151 22.0693 100.526 22.1414V39.0377H96.2346C96.2255 38.8898 96.2066 38.732 96.2066 38.5741C96.2066 32.2756 96.2039 25.977 96.1985 19.6785C96.1985 19.324 96.2743 19.159 96.6584 19.076C99.3018 18.5069 101.951 17.983 104.672 18.0497C106.434 18.093 108.174 18.3067 109.826 18.9795C112.205 19.949 113.423 21.7753 113.69 24.2734C113.757 24.9745 113.787 25.6786 113.78 26.3828C113.788 30.4165 113.788 34.4505 113.78 38.4849L113.786 39.0575Z" fill="#4A4700"/>
<path id="Vector_10" d="M122.613 11.2794V18.7937H129.593C129.467 20.0671 129.348 21.2657 129.224 22.5165H122.64C122.627 22.7149 122.61 22.8592 122.61 23.0035C122.61 26.078 122.603 29.1515 122.616 32.2259C122.609 32.7048 122.655 33.1831 122.754 33.6518C123.101 35.1335 124.163 35.9064 125.89 35.9316C127.075 35.9669 128.256 35.7793 129.371 35.3788C129.307 35.9858 129.261 36.5404 129.191 37.0923C129.125 37.5974 129 38.0961 128.967 38.602C128.946 38.9492 128.759 39.053 128.487 39.1477C126.978 39.6527 125.429 39.7339 123.861 39.5733C123.384 39.5243 122.911 39.4338 122.45 39.3028C120.063 38.6228 118.784 36.9769 118.423 34.5789C118.336 33.9405 118.297 33.2966 118.305 32.6525C118.297 25.9346 118.305 19.2148 118.288 12.4987C118.288 12.0289 118.428 11.8106 118.873 11.7484C119.955 11.596 121.037 11.4354 122.12 11.2848C122.284 11.2731 122.449 11.2713 122.613 11.2794Z" fill="#4A4700"/>
</g>
<defs>
<clipPath id="clip0_248_1484">
<rect width="230.778" height="40" fill="white" transform="translate(0.944519 0.237305)"/>
</clipPath>
</defs>
</svg>
