<svg width="214" height="50" viewBox="0 0 214 50" fill="none" xmlns="http://www.w3.org/2000/svg">
<g clip-path="url(#clip0_55_841)">
<path d="M185.511 35.6751C182.947 39.3793 179.803 41.8289 175.101 41.7827C170.482 41.7365 167.389 39.2901 164.94 35.7675C158.119 43.0934 154.456 43.6183 146.114 38.4087C146.056 38.9567 145.969 39.3991 145.965 39.8514C145.965 42.6576 145.901 45.4638 145.989 48.2667C146.026 49.5509 145.651 50.0065 144.302 49.9834C143.02 49.9636 142.508 49.6698 142.538 48.3129C142.646 42.9085 142.615 37.5008 142.713 32.0996C142.75 29.924 142.713 27.6955 143.192 25.5925C144.363 20.3103 148.59 16.6391 154.024 16.2891C157.397 16.0746 160.413 17.3093 162.771 19.792C163.493 20.5513 164.12 21.3865 164.954 22.3605C167.335 18.6497 170.614 16.2693 175.114 16.2594C179.614 16.2495 182.94 18.5308 185.342 22.2482C186.587 20.9772 187.548 19.7391 188.752 18.8048C194.534 14.3314 202.468 16.0713 206.078 22.5288C209.171 28.0686 207.822 35.2657 202.927 39.3331C197.961 43.4631 190.267 42.3043 186.364 36.8438C186.131 36.5004 185.872 36.1637 185.511 35.6751ZM187.126 29.0524C187.126 34.196 190.996 38.3228 195.813 38.3327C200.63 38.3426 204.583 34.1201 204.56 29.0887C204.533 23.9914 200.569 19.7754 195.83 19.7986C190.992 19.8085 187.116 23.9319 187.126 29.0524ZM166.549 28.9138C166.509 34.0871 170.324 38.303 175.077 38.3393C179.884 38.3789 183.891 34.2654 183.969 29.2142C184.047 24.163 180.127 19.8679 175.377 19.7953C170.526 19.7127 166.573 23.7966 166.532 28.9072L166.549 28.9138ZM145.972 28.5539C145.908 31.3832 146.583 33.506 148.151 35.2756C150.381 37.7847 153.231 38.993 156.584 38.1016C160.201 37.1409 162.319 34.5592 163.098 31.0333C164.33 25.5562 160.464 20.1782 155.147 19.8514C150.023 19.5344 145.965 23.6051 145.952 28.5473L145.972 28.5539Z" fill="#4A4700"/>
<path d="M131.77 29.617C130.984 29.617 130.219 29.617 129.456 29.617C124.076 29.5939 118.699 29.5609 113.318 29.5543C111.294 29.5543 111.024 29.9406 111.594 31.8059C112.698 35.4374 115.595 38.0423 118.827 38.3361C123.013 38.7158 125.958 37.1344 127.935 33.275C128.765 31.654 130.023 32.6147 131.271 32.3869C130.283 36.7118 127.77 39.5708 123.782 41.0334C119.92 42.453 116.256 41.7696 113.042 39.211C105.394 33.1231 107.125 20.9706 116.162 17.1476C120.368 15.3681 126.201 16.999 128.964 20.8254C130.806 23.3774 132.087 26.1539 131.77 29.617ZM128.238 26.3156C127.564 22.5058 123.597 19.5378 119.768 19.6567C115.7 19.7854 112.111 23.2255 111.895 26.3156H128.238Z" fill="#4A4700"/>
<path d="M41.5117 0.0349642C44.5476 0.0349642 47.5836 0.0349642 50.6196 0.0349642C53.3351 0.0580741 54.8902 1.32252 54.9948 3.96365C55.1432 7.72727 55.0454 11.4975 55.0387 15.2677C55.0387 23.5213 54.9779 31.7451 55.0218 39.9855C55.0218 41.4051 54.5158 41.7781 53.1597 41.722C52.087 41.6758 51.8104 41.2367 51.8374 40.2991C51.8644 36.7798 51.8374 33.2605 51.8374 29.7345V6.81608C51.8374 4.3103 50.9839 3.45524 48.4168 3.44863C43.0195 3.44863 37.6222 3.38921 32.2249 3.47504C30.6428 3.50146 30.5652 2.76854 30.5383 1.56682C30.4978 0.266064 31.0443 0.00195 32.2519 0.0217585C35.3419 0.0844855 38.4318 0.041567 41.5252 0.041567L41.5117 0.0349642Z" fill="#4A4700"/>
<path d="M35.4093 41.5999C34.8865 41.6329 34.3467 41.6989 33.8036 41.6989C27.7901 41.6989 21.7778 41.6989 15.7665 41.6989C12.7002 41.6989 11.0439 40.1539 11.0202 37.1529C11 25.2612 11.0304 13.386 11 1.51075C11 0.305729 11.4925 0.0383138 12.6057 0.031711C13.7189 0.0251082 14.1743 0.361853 14.1709 1.54376C14.1338 12.4384 14.1473 23.3331 14.1507 34.208C14.1507 37.5622 14.8692 38.2655 18.2931 38.2688C23.0664 38.2688 27.8362 38.2489 32.6061 38.2688C35.6252 38.2985 35.6252 38.3249 35.4093 41.5999Z" fill="#4A4700"/>
<path d="M86.5341 17.4976C87.4415 17.4976 88.0555 17.5504 88.6525 17.4976C89.8568 17.3655 90.4235 17.8508 90.8283 18.9931C92.7747 24.4801 94.8257 29.9307 96.8497 35.3913C97.015 35.8403 97.2343 36.2694 97.6087 37.1047C98.0641 36.1935 98.4115 35.6257 98.6409 35.0116C100.516 30.0265 102.352 25.0248 104.227 20.0397C105.263 17.2896 105.286 17.2995 108.666 17.6461C108.39 18.5375 108.16 19.4091 107.85 20.251C105.5 26.6337 103.139 33.0164 100.766 39.3992C99.9801 41.5286 98.1214 42.4002 95.9423 41.5913C95.5502 41.402 95.2464 41.0739 95.0922 40.6735C92.2654 33.077 89.4655 25.4606 86.5341 17.4976Z" fill="#4A4700"/>
<path d="M50.2317 24.0593C50.2317 29.3944 50.2081 34.7295 50.2519 40.0646C50.2519 41.2333 49.9618 41.7153 48.653 41.7318C47.3441 41.7484 47.0641 41.2036 47.0709 40.0514C47.1001 30.8074 47.1001 21.5635 47.0709 12.3195C47.0709 9.22937 46.5177 8.68794 43.3231 8.68794C39.5585 8.68794 35.7905 8.64172 32.0259 8.70775C30.771 8.72755 30.4843 8.20593 30.545 7.12306C30.599 6.16565 30.4269 5.25776 31.9449 5.27427C37.1702 5.3337 42.4022 5.27427 47.6241 5.32049C49.3884 5.32049 50.2148 6.25149 50.2148 8.02765C50.2328 13.3782 50.2384 18.7221 50.2317 24.0593Z" fill="#4A4700"/>
<path d="M18.9239 0.249597V28.5659C18.9239 29.1139 18.9003 29.6685 18.9441 30.2166C19.1094 32.2238 19.8786 32.9667 21.9295 32.9799C25.8662 33.0096 29.7995 33.036 33.7361 32.9799C35.0551 32.9601 35.5173 33.3628 35.4903 34.6735C35.4667 35.8818 35.2305 36.4596 33.8036 36.4398C28.7436 36.3704 23.6837 36.4398 18.6237 36.4133C16.5693 36.4133 15.8947 35.7531 15.9014 33.726C15.925 25.8521 15.9891 17.9815 16.0094 10.1109C16.0094 7.59526 15.9217 5.07957 15.9115 2.56389C15.9082 -0.130066 16.06 -0.222506 18.9239 0.249597Z" fill="#4A4700"/>
<path d="M65.2889 8.78503H68.4396C68.4396 12.7996 68.4396 16.7415 68.4396 20.6701C68.4396 25.3978 68.3958 30.1254 68.4092 34.8662C68.4092 37.0848 69.3538 38.0158 71.6881 38.0719C74.2316 38.1314 76.7751 38.0719 79.2882 38.0719C79.3932 38.2544 79.4758 38.4483 79.5344 38.6497C79.7605 41.6573 79.7571 41.6606 76.684 41.6705C74.66 41.6705 72.636 41.7134 70.612 41.6705C67.6098 41.5846 65.3294 39.4882 65.3058 36.55C65.2518 27.3621 65.2889 18.1842 65.2889 8.78503Z" fill="#4A4700"/>
<path d="M20.7826 15.0861C20.7826 10.5829 20.8231 6.07651 20.7556 1.57337C20.7523 0.421178 21.0829 0.034912 22.2703 0.0250077C23.4577 0.0151035 23.9805 0.325437 23.9738 1.58988C23.9367 9.38784 23.9738 17.1891 23.9738 24.987C23.9738 27.2584 24.3988 27.6876 26.6927 27.7008C29.1653 27.7008 31.6346 27.7569 34.114 27.7008C35.4802 27.6612 35.5004 28.4469 35.4802 29.401C35.4599 30.2957 35.6016 31.1706 34.1747 31.1508C30.4168 31.0947 26.6556 31.1277 22.8943 31.131C21.2583 31.131 20.7793 30.1604 20.7793 28.7705C20.7793 24.2101 20.7793 19.652 20.7793 15.096L20.7826 15.0861Z" fill="#4A4700"/>
<path d="M45.2088 26.476C45.2088 30.9858 45.1751 35.4955 45.2324 40.0118C45.2324 41.2532 44.9389 41.7682 43.5458 41.7583C42.1526 41.7484 42.0682 41.0518 42.0716 39.9953C42.0941 32.292 42.0941 24.5953 42.0716 16.9052C42.0716 14.2905 41.7849 14.0264 39.0356 14.0198C36.7317 14.0198 34.4243 13.9537 32.1271 14.0396C30.7777 14.0891 30.5247 13.4816 30.5686 12.3492C30.6057 11.3291 30.5686 10.5533 32.0461 10.5929C35.696 10.6853 39.3493 10.6523 42.9993 10.6094C44.5881 10.5896 45.2324 11.2697 45.2223 12.7949C45.1919 17.3509 45.2088 21.9135 45.2088 26.476Z" fill="#4A4700"/>
<path d="M28.9629 11.0484C28.9629 14.231 29.0101 17.4169 28.9427 20.5995C28.9123 21.9002 29.4858 22.4086 30.717 22.4119C31.837 22.4119 32.9637 22.4846 34.0903 22.4119C35.3351 22.3261 35.777 22.7784 35.75 24.0098C35.7095 25.1257 35.6522 25.9345 34.1477 25.8586C32.1878 25.7629 30.2211 25.8586 28.2579 25.8388C26.0922 25.8388 25.5592 25.3304 25.5592 23.2274C25.5862 18.1036 25.6604 12.993 25.6807 7.86258C25.6807 5.83881 25.6402 3.81504 25.5491 1.79457C25.485 0.358452 26.1057 -0.0311154 27.5292 0.00189876C28.9528 0.034913 28.9663 0.814048 28.9562 1.82098C28.9325 4.8946 28.9562 7.96822 28.9562 11.0451L28.9629 11.0484Z" fill="#4A4700"/>
<path d="M213.158 25.1536C213.158 30.1057 213.138 35.038 213.158 39.9836C213.158 41.0697 213.003 41.7135 211.623 41.7201C210.244 41.7267 209.906 41.1985 209.91 39.9637C209.941 30.0221 209.941 20.0804 209.91 10.1387C209.91 8.81815 210.49 8.61346 211.64 8.60356C212.791 8.59366 213.189 9.02614 213.175 10.1585C213.135 15.1569 213.158 20.1552 213.158 25.1536Z" fill="#4A4700"/>
<path d="M40.4491 29.0808C40.4491 32.7124 40.4153 36.344 40.4693 39.9557C40.4895 41.1607 40.2534 41.755 38.813 41.7385C37.3726 41.722 37.2849 41.0782 37.2916 40.0019C37.3119 34.0066 37.3119 28.0277 37.3119 22.0389C37.3119 19.5959 36.9745 19.2987 34.4918 19.2921H32.6297C30.6327 19.2921 30.0525 18.5691 30.6057 16.651C30.6816 16.4677 30.8016 16.305 30.9554 16.1769C31.1093 16.0487 31.2925 15.9588 31.4895 15.9148C33.9588 15.8586 36.4314 15.8355 38.9108 15.9148C40.223 15.9544 40.4659 16.9052 40.4592 18.0244C40.4389 21.7187 40.4491 25.3998 40.4491 29.0808Z" fill="#4A4700"/>
<path d="M137.276 41.6277C136.918 41.6706 136.648 41.7267 136.375 41.7366C134.115 41.8191 134.115 41.8158 134.115 39.6534C134.115 34.2094 134.115 28.7587 134.115 23.318C134.115 19.0261 137.741 16.3322 141.907 17.6164C142.315 17.7419 142.582 18.8347 142.582 19.4784C142.554 19.763 142.461 20.0378 142.309 20.2824C142.158 20.527 141.953 20.7352 141.708 20.8914C141.222 21.1423 140.5 20.9344 139.886 20.9806C138.365 21.0961 137.525 21.8753 137.508 23.4071C137.508 26.3091 137.529 29.211 137.491 32.113C137.471 33.7009 137.313 35.2856 137.269 36.8769C137.242 38.4055 137.276 39.9472 137.276 41.6277Z" fill="#4A4700"/>
<path d="M81.4438 17.5734C84.5607 17.4513 84.5641 17.4513 84.5641 20.2146C84.5641 26.8174 84.5438 33.4037 84.5843 40C84.5843 41.1224 84.4156 41.7167 83.0494 41.7101C81.6833 41.7035 81.3189 41.2908 81.3257 39.9934C81.3695 32.8128 81.3257 25.6322 81.3257 18.4516C81.3463 18.1568 81.3858 17.8635 81.4438 17.5734Z" fill="#4A4700"/>
<path d="M81.1503 8.77515H84.7496C84.5371 10.033 84.4966 11.2116 84.0581 12.2251C83.94 12.4991 82.0678 12.5157 81.9363 12.2251C81.464 11.2248 81.3965 10.0363 81.1503 8.77515Z" fill="#4A4700"/>
</g>
<defs>
<clipPath id="clip0_55_841">
<rect width="212.357" height="50" fill="white" transform="translate(0.821472)"/>
</clipPath>
</defs>
</svg>
