<svg width="150" height="131" viewBox="0 0 150 131" fill="none" xmlns="http://www.w3.org/2000/svg">
<g id="Capa_1" clip-path="url(#clip0_248_1501)">
<path id="Vector" d="M5.89036 99.8212C6.57322 102.589 7.28442 105.349 7.93636 108.124C8.9104 112.275 9.93598 116.398 12.5077 119.913C12.9715 120.549 13.5384 121.106 14.0383 121.66C16.6589 116.14 19.0399 110.683 21.8074 105.426C24.1421 100.991 26.9276 96.796 29.4993 92.4875C31.913 88.4126 34.7122 84.5787 37.8585 81.0387C38.4111 80.3845 39.0294 79.7887 39.7036 79.2606C40.6956 78.534 40.7059 77.5058 40.6828 76.488C40.6828 76.2303 40.2241 75.8566 39.9097 75.7149C35.761 73.9266 31.5505 72.2774 27.4584 70.3757C23.7555 68.6673 20.099 66.8171 16.5842 64.7814C12.2036 62.251 7.7096 59.8159 4.08142 56.1697C3.30837 55.3966 2.63582 54.4896 1.66177 53.3351C1.41955 55.1028 1.02787 56.6618 1.0356 58.2311C1.0356 60.3699 1.32163 62.5112 1.55097 64.6449C1.96842 68.6956 2.38586 72.7464 2.87804 76.7895C3.71035 83.5897 4.60194 90.3848 5.45487 97.1825C5.48193 97.6184 5.48193 98.0556 5.45487 98.4915L5.09154 98.5225C4.60452 95.5024 4.02988 92.4953 3.65109 89.4649C2.80846 82.7059 2.07922 75.934 1.26752 69.1698C0.937683 66.4074 0.458392 63.6579 0.146596 60.8904C-0.425461 55.8424 0.605272 51.3278 4.63801 47.8362C4.93622 47.5568 5.11991 47.1766 5.15338 46.7694C5.20667 45.4404 5.18517 44.1095 5.08896 42.783C4.63028 37.114 4.05823 31.4295 3.65624 25.745C3.14087 18.3572 5.20234 13.4896 12.8761 9.71967C16.8677 7.76128 21.1942 7.10161 25.5593 6.59397C29.9245 6.08634 34.2329 5.46017 38.5775 4.95253C44.6614 4.24132 50.753 3.60227 56.8421 2.91683C60.7614 2.47619 64.6705 1.8861 68.6027 1.58461C74.9855 1.10532 81.3709 0.672412 87.7589 0.504918C92.1601 0.386383 96.7443 0.218889 100.787 2.18759C103.8 3.65638 106.75 3.47601 109.835 3.42705C111.505 3.41625 113.173 3.52302 114.829 3.74657C119.33 4.31348 122.103 7.09646 123.52 11.1782C124.461 13.8813 124.976 16.7287 125.672 19.5091C126.1 21.2098 126.548 22.9079 126.924 24.6215C127.094 25.3945 127.517 25.6522 128.267 25.8919C131.114 26.8041 133.992 27.6957 136.708 28.9093C140.654 30.6874 142.292 34.1661 142.398 38.2787C142.473 41.224 142.107 44.1848 141.857 47.1327C141.795 47.8439 141.875 48.282 142.589 48.501C142.782 48.5933 142.969 48.6983 143.148 48.8154C148.85 51.503 150.603 56.2341 149.822 62.1118C148.74 70.2701 147.503 78.4077 146.341 86.5557C145.374 93.3482 144.48 100.151 143.465 106.936C142.769 111.574 141.599 116.109 139.525 120.335C137.786 123.891 135.66 127.138 131.776 128.756C129.279 129.811 126.556 130.217 123.86 129.937C121.402 129.694 118.926 129.679 116.462 129.473C109.793 128.925 103.126 128.353 96.4609 127.757C93.3893 127.486 90.2919 127.349 87.259 126.832C80.0439 125.602 72.8777 124.165 65.6806 122.853C64.6732 122.699 63.6528 122.646 62.6348 122.696C61.2227 122.727 59.8003 122.814 58.4062 122.953C57.3497 123.059 56.3112 123.363 55.2547 123.456C48.9741 123.995 42.6918 124.511 36.4078 125.002C31.9653 125.36 27.5203 125.968 23.0753 125.966C17.298 125.966 12.7499 123.407 10.0339 118.117C8.05232 114.251 7.11693 110.069 6.42634 105.823C6.10423 103.844 5.87232 101.847 5.59917 99.8573L5.89036 99.8212ZM42.7391 114.221C43.0483 114.556 43.3214 114.878 43.6203 115.174C45.839 117.349 48.5601 118.565 51.557 119.158C57.4476 120.325 63.3408 121.477 69.2521 122.549C76.6296 123.871 84.0044 125.34 91.4257 126.324C98.6409 127.282 105.946 127.767 113.218 128.357C117.664 128.72 122.118 128.973 126.579 129.117C128.874 129.186 131.129 128.5 132.998 127.167C133.185 127.001 133.333 126.796 133.43 126.566C133.527 126.335 133.571 126.086 133.56 125.837C132.701 119.181 129.679 113.399 126.198 107.799C124.626 105.274 123.013 102.774 121.492 100.218C120.23 98.0999 119.289 95.7601 117.828 93.7966C115.13 90.1632 112.159 86.7335 109.296 83.2187C107.75 81.3298 107.75 81.2809 105.534 82.1209C100.809 83.9674 95.5651 83.9849 90.8279 82.1699C83.252 79.374 76.9362 74.4961 70.8136 69.3965C67.8812 66.9537 65.1678 64.2429 62.3771 61.6377C60.9109 60.2694 59.4859 58.8573 58.0583 57.4503C56.6308 56.0434 55.1439 54.7936 53.9328 53.2656C51.7039 50.5032 49.328 47.8053 48.0654 44.226C47.1661 46.1097 46.2126 47.9727 45.857 49.9466C44.5428 57.203 43.4039 64.4928 42.2495 71.7749C41.5692 76.0473 40.961 80.3275 40.3503 84.6102C40.1571 85.963 40.0566 87.3287 39.9149 88.6893L39.4742 88.6403C39.7371 85.7835 39.9947 82.9266 40.2473 80.0698L39.8994 79.9641C29.1179 92.6164 21.2509 106.969 15.1463 122.435C18.053 124.474 21.2947 125.082 24.7064 124.842C34.421 124.155 44.1348 123.433 53.8478 122.675C55.5536 122.544 57.2492 122.294 58.9473 122.098C56.1867 121.219 53.371 120.525 50.5185 120.018C44.7413 118.988 39.7525 114.128 38.8532 108.165C38.0956 103.14 38.4332 98.1566 39.0954 93.1678C39.2397 92.0907 39.4459 91.0213 39.6237 89.9493C39.7267 92.1654 39.7087 94.3454 39.7293 96.528C39.7654 100.136 39.6752 103.743 39.9406 107.322C40.0608 109.437 40.7753 111.474 42.0021 113.2C44.8108 109.881 47.4469 106.614 50.248 103.496C53.1855 100.226 56.136 96.9454 59.3442 93.9615C63.4104 90.1632 67.6622 86.5479 71.9938 83.0512C74.1017 81.3453 76.5471 80.0466 78.892 78.6474C79.5955 78.2248 80.4639 78.0856 81.2575 77.815C65.7296 87.1277 53.7086 100.045 42.7391 114.221ZM134.951 125.816C136.239 123.979 137.716 122.484 138.461 120.683C139.844 117.333 141.182 113.893 141.854 110.36C143.091 103.88 143.815 97.3011 144.779 90.7765C145.163 88.1997 145.678 85.6228 146.024 83.028C146.65 78.3149 147.103 73.5787 147.804 68.8786C148.379 65.0133 149.322 61.2048 148.835 57.2648C148.703 56.0679 148.32 54.9123 147.711 53.8737C147.102 52.835 146.28 51.9367 145.3 51.2376C142.859 49.475 140.179 48.1171 137.19 47.4471C134.147 46.7668 131.148 45.8469 128.076 45.3341C121.397 44.2157 114.695 43.2417 107.977 42.3037C105.142 41.9069 102.256 41.7626 99.3984 41.474C92.8327 40.8117 86.2721 40.1237 79.7089 39.4589C76.9362 39.178 74.1558 38.959 71.3857 38.6523C66.7191 38.137 62.0576 37.851 57.409 38.7503C54.358 39.3404 51.6163 40.6056 49.3641 42.783C49.0884 43.0407 48.8848 43.8137 49.0575 44.0714C51.1035 47.1275 52.9227 50.4207 55.3965 53.0903C59.9136 57.9451 64.8302 62.4236 69.5974 67.0465C73.1927 70.4665 77.1096 73.5317 81.2936 76.1994C83.0974 77.3667 84.86 78.6396 86.8106 79.4694C89.6709 80.6805 92.6188 81.8658 95.644 82.4559C99.0325 83.1182 102.473 82.3425 105.712 81.1675C110.633 79.3766 115.143 76.7611 119.5 73.8879C124.069 70.8756 128.615 67.8298 133.158 64.7943C137.363 61.9881 141.455 59.0351 145.132 55.5435C145.725 54.9817 146.353 54.4561 146.964 53.9123L147.328 54.3427C144.903 56.4763 142.576 58.7233 140.033 60.7178C136.531 63.4466 132.902 66.0157 129.259 68.5565C127.048 70.1026 124.703 71.44 122.43 72.8933C119.735 74.6224 117.094 76.4416 114.349 78.0908C112.471 79.222 110.458 80.1316 108.399 81.183C110.219 83.1671 111.942 84.9786 113.589 86.852C116.425 90.1078 118.925 93.6423 121.049 97.4015C123.84 102.298 126.87 107.057 129.65 111.955C130.917 114.243 132.015 116.62 132.933 119.068C133.737 121.134 134.217 123.306 134.951 125.824V125.816ZM139.156 32.7926L139.53 33.2101L128.357 44.2905L141.04 47.527C141.182 44.4348 141.434 41.3709 141.434 38.2967C141.434 35.0834 140.236 32.1793 137.518 30.4503C135.287 29.0061 132.823 27.9599 130.235 27.3581C125.421 26.3159 120.549 25.5579 115.645 25.0879C108.863 24.436 102.047 24.0572 95.2394 23.7376C87.0967 23.3434 78.9616 23.1166 70.824 22.8126C68.0384 22.7121 65.2503 22.6605 62.4621 22.5703C57.9063 22.4235 53.3582 22.4054 48.8977 23.565C45.839 24.3587 43.1385 25.7965 40.992 28.1389C40.7188 28.4352 40.5823 29.2443 40.7858 29.5304C42.3757 31.7593 44.0867 33.911 45.7127 36.109C46.2281 36.8151 46.813 36.8821 47.6041 36.7403C49.9233 36.3332 52.2424 35.9467 54.577 35.6452C62.4467 34.6144 70.3163 33.6198 78.1937 32.6689C82.7547 32.1175 87.3311 31.8392 91.9231 32.3468C97.3061 32.9421 101.883 34.7021 103.813 40.4149C103.916 40.7241 104.488 41.0127 104.874 41.0694C111.878 42.1001 118.885 43.0931 125.896 44.0482C126.344 44.0537 126.78 43.9024 127.128 43.6205C131.251 40.4793 135.175 37.1011 138.566 33.1482C138.74 33.0017 138.937 32.8842 139.149 32.8004L139.156 32.7926ZM102.815 40.9689C101.8 37.5263 99.803 35.4158 96.6619 34.3052C91.2737 32.3958 85.7309 33.107 80.232 33.3028C77.6551 33.3956 75.1092 33.8002 72.5556 34.1094C67.9585 34.666 63.3615 35.2149 58.7773 35.8513C55.6387 36.2894 52.5207 36.8821 49.3899 37.3974C45.2051 38.0751 41.01 38.6858 36.8355 39.4151C32.4549 40.1881 28.0872 41.1519 23.6937 41.8553C18.4215 42.698 13.1983 43.6591 8.44657 46.236C6.03595 47.4943 4.01774 49.3913 2.61262 51.7195C2.5095 51.9431 2.46131 52.1882 2.47207 52.4343C2.48283 52.6804 2.55222 52.9203 2.67447 53.1341C3.40549 53.9764 4.19418 54.7668 5.03485 55.4997C10.307 60.4317 16.695 63.609 22.9335 66.9949C26.9611 69.1749 31.1304 71.0947 35.2843 73.0324C37.0881 73.8673 38.9923 74.4497 40.9533 75.1789C41.3836 72.8804 41.8707 70.7133 42.185 68.523C43.0122 62.7998 43.7311 57.0612 44.5506 51.3355C45.3236 45.8082 47.7639 41.4585 53.1675 39.1471C57.7311 37.1939 62.4802 36.9491 67.3117 37.3588C75.4726 38.0519 83.6308 38.7683 91.7788 39.5723C93.5825 39.7501 95.0797 39.848 95.6852 37.7041C95.7368 37.5211 96.2006 37.4464 96.4866 37.3356C96.5356 37.6422 96.7108 38.003 96.6077 38.2426C96.3205 38.8178 95.9951 39.373 95.6337 39.9047C97.3834 40.4072 97.3834 40.4072 98.1951 38.9641C98.5301 38.3689 98.847 37.7608 99.2103 37.1836C99.3729 37.002 99.5623 36.8464 99.7721 36.7223L99.955 36.9027L98.1229 40.2526L102.815 40.9689ZM118.431 6.58367L118.897 6.95731C116.524 12.7294 113.715 18.2748 109.956 23.449L126.265 25.4048C126.04 24.521 125.837 23.7067 125.623 22.895C125.242 21.4443 124.85 19.9987 124.471 18.5453C123.912 16.3473 123.492 14.108 122.794 11.9538C121.972 9.42849 120.577 7.30002 118.191 5.83123C116.019 4.49385 113.592 4.20267 111.27 4.28513C107.175 4.41397 103.024 4.72319 99.03 5.59674C90.4929 7.46752 82.0461 9.74029 73.5657 11.8636C71.9861 12.2604 70.422 12.7217 68.8527 13.152C64.7297 14.2987 60.5939 15.4016 56.4839 16.5998C51.6807 17.999 46.8981 19.4884 42.0897 20.934C37.4797 22.3204 32.9084 23.8124 28.9479 26.6701C26.7656 28.2163 25.0125 30.2921 23.8535 32.7024C23.5752 33.2874 23.4618 33.7924 24.1343 34.2485C25.6804 35.3257 27.2265 36.4105 28.6927 37.5984C30.6228 39.1445 32.6018 39.6599 35.0884 38.8868C36.3202 38.5055 36.6345 38.1138 36.7505 36.9156C37.4566 29.301 40.2988 25.6935 47.3001 23.0805C51.4101 21.5525 55.783 21.4288 60.143 21.5551C66.5851 21.7457 73.0091 21.8462 79.4409 22.0704C83.8498 22.225 88.2536 22.5497 92.66 22.7584C97.8481 23.0058 103.037 23.2214 108.227 23.4052C108.42 23.3888 108.607 23.3317 108.776 23.2375C108.945 23.1433 109.093 23.0143 109.208 22.8589C112.62 17.8753 115.942 12.8376 118.227 7.19953C118.302 6.99596 118.356 6.78724 118.423 6.58367H118.431ZM102.97 3.86511C101.962 3.48889 101.243 3.23121 100.532 2.95291C96.8551 1.50215 92.9821 1.39135 89.122 1.43515C84.6667 1.48411 80.2088 1.6748 75.7612 1.93248C71.5249 2.19017 67.2963 2.5535 63.0703 2.96322C60.1275 3.23894 57.2002 3.66411 54.2627 3.99395C49.9671 4.47839 45.6612 4.89842 41.3785 5.42409C36.5289 6.01934 31.6922 6.71251 26.8477 7.34125C21.9518 7.97258 17.0558 8.6709 12.5644 10.9102C10.0957 12.1239 7.9879 13.8091 6.49849 16.1437C6.28461 16.4761 6.31296 17.2621 6.56291 17.5507C9.51974 21.0086 12.9693 24.0128 16.8007 26.4665C19.0966 27.9301 21.3874 29.4041 23.6602 30.8471C28.1954 25.4718 30.6563 23.632 37.3329 21.4855C44.9551 19.022 52.647 16.7544 60.3362 14.4971C64.0701 13.402 67.8786 12.5568 71.6382 11.5363C77.2222 10.0212 82.765 8.33591 88.3876 6.93927C93.0698 5.79773 97.8395 4.94222 102.965 3.86511H102.97ZM5.37241 17.8418C5.11473 19.7204 4.61482 21.5989 4.63028 23.4748C4.65605 26.987 4.98331 30.4941 5.174 34.0037C5.33376 36.9542 5.4626 39.9073 5.6301 42.8577C5.69967 44.0688 5.83624 45.2774 5.95478 46.6405C10.9384 43.2546 16.4554 41.9713 22.2017 41.1545C21.8487 37.8613 21.6451 34.7124 23.1912 31.8109C16.829 27.7214 10.0932 24.3045 5.37241 17.8418ZM37.5828 38.3096L37.9462 38.5673C38.3154 38.1644 38.6596 37.7393 38.9769 37.2944C39.1521 37.0186 39.1109 36.6038 39.2835 36.3255C39.534 35.9939 39.8162 35.6875 40.1262 35.4107C40.2441 35.8026 40.3193 36.206 40.3503 36.6141C40.3503 36.9723 40.1597 37.3304 39.9896 37.9025L44.6459 37.0264L39.7499 29.9427C38.1755 32.3932 37.8353 35.336 37.588 38.3199L37.5828 38.3096ZM29.7982 39.9073L23.1345 34.7536V40.9097L23.5313 41.139C23.9668 40.8427 24.392 40.5334 24.8404 40.2551C25.0336 40.134 25.3557 39.9408 25.4717 40.0155C26.9611 40.9715 28.3011 39.9124 29.8034 39.9073H29.7982Z" fill="#4A4700" stroke="#4A4700"/>
<path id="Vector_2" d="M4.15125 74.0323C3.83172 72.2285 3.41428 70.4247 3.21844 68.5823C2.91437 65.7478 2.73657 62.89 2.57938 60.0401C2.56134 59.7231 3.01229 59.3778 3.24678 59.0454C3.39624 59.3907 3.72865 59.7747 3.66423 60.0761C2.97106 63.3977 3.92191 66.5981 4.33936 69.8346C4.47078 70.8473 4.60993 71.86 4.70012 72.8778C4.69992 73.2585 4.66281 73.6382 4.58931 74.0117L4.15125 74.0323Z" fill="#4A4700" stroke="#4A4700"/>
<path id="Vector_3" d="M45.0044 64.6372C45.1951 62.6608 45.2956 60.674 45.5996 58.7105C45.9965 56.1491 46.5505 53.6135 47.0478 51.0702C47.0872 50.8153 47.1881 50.5739 47.3416 50.3667C47.5421 50.1798 47.7665 50.0203 48.009 49.8926C48.1301 50.176 48.4367 50.5522 48.3491 50.7326C46.401 54.6365 46.6845 58.9579 45.9759 63.1014C45.8465 63.6567 45.6821 64.2032 45.4837 64.7377L45.0044 64.6372Z" fill="#4A4700" stroke="#4A4700"/>
<path id="Vector_4" d="M29.3038 121.83C28.3761 123.049 27.0156 123.079 25.7375 123.046C23.7765 122.997 21.8207 122.788 19.87 122.585C19.6123 122.559 19.3984 122.221 19.1614 122.026C19.4371 121.843 19.7309 121.479 19.986 121.51C21.1301 121.621 22.2587 121.969 23.4003 121.995C25.3277 122.031 27.2578 121.894 29.3038 121.83Z" fill="#4A4700" stroke="#4A4700"/>
<path id="Vector_5" d="M56.7547 117.233C55.4328 118.32 54.1418 118.006 52.9745 117.668C51.0573 117.106 49.1917 116.351 47.3235 115.63C47.0967 115.542 46.9859 115.151 46.8081 114.898C47.1225 114.805 47.4987 114.555 47.7409 114.64C48.9726 115.115 50.1374 115.792 51.3923 116.187C52.7606 116.601 54.2036 116.774 55.6131 117.047C55.9352 117.104 56.247 117.148 56.7547 117.233Z" fill="#4A4700" stroke="#4A4700"/>
<path id="Vector_6" d="M129.04 119.634C129.599 119.851 130.107 119.892 130.279 120.15C130.761 120.893 131.165 121.684 131.485 122.51C131.55 122.672 131.166 123.025 130.991 123.283C130.836 123.071 130.693 122.852 130.56 122.626C130.102 121.729 129.656 120.843 129.04 119.634Z" fill="#4A4700" stroke="#4A4700"/>
<path id="Vector_7" d="M131.694 63.2225C132.931 62.2176 134.183 61.2255 135.402 60.1999C137.85 58.1385 140.27 56.0512 142.728 54.0155C142.986 53.8068 143.419 53.8197 143.759 53.7295C143.664 54.0928 143.692 54.6056 143.455 54.7937C139.935 57.6317 136.393 60.4404 132.828 63.22C132.551 63.3859 132.254 63.5158 131.944 63.6065L131.694 63.2225Z" fill="#4A4700" stroke="#4A4700"/>
<path id="Vector_8" d="M124.446 43.0846C125.631 41.9714 126.829 40.8737 128.002 39.7347C130.269 37.547 132.514 35.3335 134.797 33.1586C135.054 32.9164 135.482 32.8649 135.827 32.7231C135.755 33.1277 135.827 33.6895 135.59 33.9111C132.336 36.9285 129.04 39.9048 125.739 42.8733C125.418 43.101 125.072 43.2912 124.708 43.4402L124.446 43.0846Z" fill="#4A4700" stroke="#4A4700"/>
<path id="Vector_9" d="M107.825 21.0395C109.371 18.3519 110.964 15.6875 112.463 12.9689C113.262 11.5156 113.878 9.96431 114.63 8.48521C114.788 8.17341 115.182 7.98273 115.468 7.73535C115.522 8.14249 115.759 8.65013 115.599 8.93873C113.517 12.7112 111.386 16.4554 109.242 20.1943C108.949 20.6154 108.619 21.0095 108.255 21.372L107.825 21.0395Z" fill="#4A4700" stroke="#4A4700"/>
<path id="Vector_10" d="M6.99613 38.4281C6.73844 36.5496 6.40088 34.6814 6.27977 32.7951C6.10197 30.0766 6.05558 27.3477 6.04785 24.6214C6.04785 24.2194 6.56322 23.8123 6.8209 23.4077C6.93171 23.8587 7.22289 24.3508 7.12497 24.7528C6.37253 27.9197 7.12497 31.0326 7.38265 34.1634C7.49088 35.5755 7.56303 36.9979 7.65322 38.4023L6.99613 38.4281Z" fill="#4A4700" stroke="#4A4700"/>
<g id="Vector_11">
<path d="M95.433 74.0399L98.8164 72.7103C99.8842 72.2903 101.045 72.1645 102.178 72.3458C103.311 72.527 104.375 73.0089 105.258 73.741C106.993 75.1814 107.611 76.9517 107.835 79.374L107.578 81.7988C107.196 83.9684 106.346 85.1177 105.565 86.3108L104.096 88.0991C103.635 88.6557 102.372 89.7328 101.568 90.5626L99.0895 92.0545C98.5741 92.356 95.7061 93.9923 95.1392 94.1469L94.9228 94.2062C93.8879 94.4895 92.7985 94.5084 91.7544 94.2612C90.7104 94.014 89.7451 93.5087 88.9471 92.7915L86.8856 90.9336C86.082 90.109 85.3241 89.2411 84.6154 88.3336L82.9096 85.4115C82.3762 84.6384 81.6083 83.0769 81.464 82.1389L81.0104 80.2114C80.8378 79.1034 81.1496 76.1916 81.5541 75.1454L82.018 73.9368C82.59 72.4577 83.7006 71.4966 85.2416 70.471L86.7516 69.8912C89.1713 69.0305 91.0034 69.9994 92.5366 70.9657L94.6213 73.1664" fill="#4A4700"/>
<path d="M95.433 74.0399L98.8164 72.7103C99.8842 72.2903 101.045 72.1645 102.178 72.3458C103.311 72.527 104.375 73.0089 105.258 73.741C106.993 75.1814 107.611 76.9517 107.835 79.374L107.578 81.7988C107.196 83.9684 106.346 85.1177 105.565 86.3108L104.096 88.0991C103.635 88.6557 102.372 89.7328 101.568 90.5626L99.0895 92.0545C98.5741 92.356 95.7061 93.9923 95.1392 94.1469L94.9228 94.2062C93.8879 94.4895 92.7985 94.5084 91.7544 94.2612C90.7104 94.014 89.7451 93.5087 88.9471 92.7915L86.8856 90.9336C86.082 90.109 85.3241 89.2411 84.6154 88.3336L82.9096 85.4115C82.3762 84.6384 81.6083 83.0769 81.464 82.1389L81.0104 80.2114C80.8378 79.1034 81.1496 76.1916 81.5541 75.1454L82.018 73.9368C82.59 72.4577 83.7006 71.4966 85.2416 70.471L86.7516 69.8912C89.1713 69.0305 91.0034 69.9994 92.5366 70.9657L94.6213 73.1664" stroke="#4A4700"/>
</g>
</g>
<defs>
<clipPath id="clip0_248_1501">
<rect width="150" height="129.594" fill="white" transform="translate(0 0.44043)"/>
</clipPath>
</defs>
</svg>
