<svg width="201" height="61" viewBox="0 0 201 61" fill="none" xmlns="http://www.w3.org/2000/svg">
<g id="viewport-20250516053859485">
<path id="Vector" d="M51.0913 0.525995C51.1318 0.525957 51.1723 0.525918 51.214 0.525879C51.8844 0.526884 52.5312 0.566638 53.1872 0.710738C53.2294 0.719586 53.2715 0.728434 53.3149 0.73755C55.1269 1.13173 56.634 2.2357 57.7005 3.72347C57.7242 3.75632 57.7479 3.78918 57.7724 3.82303C58.3072 4.57091 58.767 5.38026 59.1287 6.2246C59.1692 6.14195 59.1692 6.14195 59.2106 6.05763C59.7403 4.9855 60.2971 4.02992 61.1282 3.15503C61.1709 3.10894 61.2135 3.06285 61.2574 3.01536C62.7168 1.49132 64.9254 0.615816 67.0226 0.533045C69.6908 0.472912 72.0333 1.16466 74.0321 2.9614C76.0311 4.87281 76.4493 7.60049 76.5022 10.2409C76.5124 10.8972 76.5098 11.5536 76.5079 12.21C76.5071 12.5043 76.5071 12.7986 76.5069 13.093C76.5065 13.6667 76.5054 14.2404 76.5041 14.8142C76.503 15.2804 76.5021 15.7466 76.5014 16.2128C76.4993 17.5373 76.4966 18.8618 76.4934 20.1863C76.4932 20.2574 76.493 20.3285 76.4928 20.4017C76.4927 20.4728 76.4925 20.544 76.4923 20.6173C76.4895 21.7746 76.4878 22.9319 76.4866 24.0892C76.4854 25.2802 76.4834 26.4711 76.4805 27.6621C76.4788 28.3297 76.4775 28.9973 76.4772 29.665C76.4769 30.2322 76.4757 30.7994 76.4736 31.3667C76.4725 31.6559 76.4718 31.9452 76.4721 32.2345C76.4724 32.4992 76.4716 32.7639 76.47 33.0287C76.4696 33.1244 76.4696 33.2202 76.47 33.3159C76.4736 34.2801 76.4736 34.2801 76.1127 34.7048C76.0813 34.7301 76.0499 34.7555 76.0176 34.7816C75.9865 34.8078 75.9555 34.8341 75.9234 34.8611C75.5771 35.075 75.2224 35.0614 74.8286 35.061C74.7329 35.0616 74.7329 35.0616 74.6351 35.0622C74.4243 35.0633 74.2135 35.0635 74.0027 35.0636C73.8558 35.064 73.709 35.0644 73.5621 35.0648C73.2543 35.0654 72.9465 35.0656 72.6388 35.0656C72.284 35.0655 71.9292 35.0667 71.5745 35.0685C71.2321 35.0702 70.8897 35.0706 70.5474 35.0705C70.4022 35.0706 70.2571 35.0711 70.1119 35.072C69.9086 35.0731 69.7053 35.0728 69.502 35.0721C69.4424 35.0728 69.3828 35.0734 69.3214 35.0741C68.8624 35.0701 68.503 34.9813 68.1623 34.6644C67.8457 34.1732 67.8453 33.6889 67.8493 33.1182C67.8492 33.0325 67.8491 32.9468 67.849 32.8611C67.8487 32.6264 67.8495 32.3918 67.8505 32.1572C67.8513 31.9038 67.8512 31.6504 67.8512 31.3969C67.8513 30.9579 67.852 30.5189 67.8531 30.0799C67.8548 29.444 67.8554 28.8081 67.8558 28.1721C67.8565 27.1388 67.8578 26.1055 67.8597 25.0721C67.8615 24.0711 67.8632 23.0702 67.8644 22.0692C67.8645 21.9768 67.8645 21.9768 67.8646 21.8826C67.8655 21.2095 67.8662 20.5363 67.8669 19.8631C67.867 19.8038 67.867 19.7445 67.8671 19.6834C67.8673 19.4463 67.8675 19.2091 67.8677 18.9719C67.8684 18.2796 67.8693 17.5872 67.8706 16.8948C67.8715 16.4599 67.8721 16.025 67.8727 15.59C67.873 15.3396 67.8733 15.0892 67.874 14.8388C67.9961 11.9593 67.9961 11.9593 66.8249 9.43607C66.0889 8.73157 65.1058 8.53889 64.1142 8.54129C63.1486 8.56022 62.2436 8.93229 61.5281 9.5784C61.4891 9.61269 61.4501 9.64699 61.4099 9.68232C61.1005 9.97025 60.8788 10.2924 60.6712 10.6584C60.6324 10.7263 60.6324 10.7263 60.5929 10.7954C60.1851 11.593 60.0544 12.5602 59.9856 13.4438C59.9809 13.5036 59.9762 13.5634 59.9714 13.6251C59.9344 14.133 59.9202 14.6374 59.9206 15.1469C59.9205 15.2289 59.9203 15.3109 59.9201 15.3929C59.9197 15.6157 59.9196 15.8384 59.9196 16.0612C59.9195 16.3024 59.919 16.5436 59.9186 16.7848C59.918 17.2019 59.9175 17.6191 59.9171 18.0362C59.9165 18.6957 59.9154 19.3551 59.9141 20.0146C59.9137 20.2406 59.9132 20.4666 59.9128 20.6926C59.9127 20.7773 59.9127 20.7773 59.9125 20.8637C59.9113 21.5049 59.9102 22.1462 59.9092 22.7875C59.9091 22.846 59.909 22.9046 59.9089 22.9649C59.9074 23.9155 59.9064 24.8661 59.9054 25.8166C59.9044 26.7938 59.9028 27.771 59.9005 28.7481C59.8992 29.3503 59.8984 29.9525 59.8983 30.5546C59.8982 30.9669 59.8974 31.3792 59.8962 31.7914C59.8955 32.0292 59.8951 32.267 59.8955 32.5048C59.8958 32.7226 59.8953 32.9403 59.8942 33.1581C59.8939 33.2368 59.8939 33.3154 59.8943 33.3941C59.8979 34.2919 59.8979 34.2919 59.5953 34.6604C59.558 34.691 59.5206 34.7216 59.4822 34.7532C59.4268 34.8004 59.4268 34.8004 59.3704 34.8487C59.0203 35.0744 58.6637 35.0614 58.2611 35.061C58.1653 35.0616 58.1653 35.0616 58.0676 35.0622C57.8567 35.0633 57.6459 35.0635 57.4351 35.0636C57.2883 35.064 57.1414 35.0644 56.9945 35.0648C56.6868 35.0654 56.379 35.0656 56.0712 35.0656C55.7164 35.0655 55.3617 35.0667 55.0069 35.0685C54.6645 35.0702 54.3222 35.0706 53.9798 35.0705C53.8346 35.0706 53.6895 35.0711 53.5443 35.072C53.341 35.0731 53.1377 35.0728 52.9344 35.0721C52.8748 35.0728 52.8153 35.0734 52.7539 35.0741C52.3383 35.0705 51.9694 35.0052 51.6514 34.721C51.2417 34.296 51.2859 33.7824 51.289 33.2275C51.289 33.146 51.289 33.0646 51.2889 32.9832C51.2889 32.7599 51.2896 32.5366 51.2904 32.3133C51.2911 32.0722 51.2912 31.8311 51.2913 31.5901C51.2916 31.1721 51.2924 30.7542 51.2934 30.3363C51.2948 29.7302 51.2955 29.1241 51.296 28.518C51.2968 27.5321 51.298 26.5463 51.2996 25.5605C51.2997 25.472 51.2997 25.472 51.2999 25.3817C51.3007 24.9038 51.3015 24.4258 51.3022 23.9479C51.3029 23.5321 51.3036 23.1162 51.3043 22.7004C51.3044 22.6419 51.3045 22.5833 51.3046 22.523C51.3061 21.5424 51.3073 20.5618 51.3081 19.5812C51.3086 18.9778 51.3095 18.3744 51.3109 17.7711C51.3119 17.3561 51.3124 16.941 51.3127 16.526C51.3128 16.2876 51.3132 16.0492 51.314 15.8108C51.419 12.3248 51.419 12.3248 49.942 9.29618C49.1955 8.6076 48.2195 8.46474 47.2449 8.48415C46.2419 8.52204 45.3874 8.88907 44.6963 9.61393C43.2738 11.3325 43.343 13.8471 43.3454 15.9464C43.3455 16.1887 43.345 16.4311 43.3445 16.6734C43.3439 17.0919 43.3436 17.5103 43.3435 17.9288C43.3434 18.5343 43.3426 19.1398 43.3415 19.7453C43.3397 20.7287 43.3384 21.7121 43.3373 22.6955C43.3373 22.7542 43.3372 22.8129 43.3371 22.8733C43.3365 23.5289 43.3359 24.1846 43.3354 24.8402C43.3352 25.0786 43.3351 25.3171 43.3349 25.5555C43.3348 25.6143 43.3348 25.6732 43.3347 25.7338C43.334 26.7148 43.3326 27.6958 43.3307 28.6769C43.3295 29.281 43.3289 29.8852 43.3291 30.4894C43.3291 30.9027 43.3286 31.3161 43.3275 31.7294C43.327 31.9678 43.3267 32.2061 43.3271 32.4445C43.3275 32.6628 43.3272 32.8811 43.3262 33.0993C43.3259 33.1782 43.326 33.257 43.3264 33.3359C43.3287 33.8508 43.2993 34.2221 43.011 34.6608C42.6185 35.0344 42.1923 35.078 41.6679 35.0739C41.5711 35.0745 41.5711 35.0745 41.4723 35.0751C41.2603 35.0761 41.0483 35.0755 40.8363 35.0747C40.6883 35.0749 40.5402 35.0751 40.3922 35.0754C40.0825 35.0757 39.7728 35.0752 39.4631 35.0741C39.1061 35.0729 38.749 35.0733 38.3919 35.0746C38.0471 35.0757 37.7023 35.0756 37.3574 35.0749C37.2113 35.0748 37.0651 35.075 36.9189 35.0755C36.7145 35.0761 36.5102 35.0752 36.3058 35.0739C36.2457 35.0744 36.1857 35.0748 36.1238 35.0753C35.7045 35.0705 35.402 34.998 35.0758 34.7179C35.0503 34.6861 35.0249 34.6544 34.9986 34.6217C34.9722 34.5901 34.9459 34.5586 34.9187 34.526C34.7202 34.2234 34.7181 33.9521 34.7197 33.6017C34.7195 33.5474 34.7193 33.4932 34.7191 33.4374C34.7185 33.2547 34.7188 33.072 34.7191 32.8893C34.7189 32.7574 34.7186 32.6255 34.7183 32.4936C34.7177 32.1685 34.7176 31.8434 34.7177 31.5183C34.7179 31.1289 34.7173 30.7395 34.7168 30.3501C34.7157 29.5426 34.7154 28.7352 34.7153 27.9278C34.7152 27.3043 34.715 26.6808 34.7146 26.0573C34.7145 25.8779 34.7144 25.6986 34.7143 25.5192C34.7143 25.4746 34.7143 25.43 34.7143 25.384C34.7136 24.1294 34.7131 22.8747 34.7132 21.6201C34.7132 21.5728 34.7132 21.5254 34.7132 21.4767C34.7132 21.2369 34.7132 20.997 34.7132 20.7572C34.7132 20.7096 34.7132 20.662 34.7132 20.6129C34.7132 20.5166 34.7132 20.4202 34.7132 20.3239C34.7133 18.8253 34.7124 17.3267 34.7109 15.828C34.7091 14.1448 34.7081 12.4616 34.7082 10.7783C34.7082 10.5989 34.7082 10.4194 34.7083 10.2399C34.7083 10.1957 34.7083 10.1516 34.7083 10.106C34.7083 9.39465 34.7075 8.68328 34.7065 7.97191C34.7056 7.25704 34.7055 6.54216 34.7062 5.82729C34.7066 5.43994 34.7066 5.0526 34.7056 4.66526C34.7047 4.31076 34.7049 3.95628 34.7059 3.60178C34.706 3.47345 34.7058 3.34511 34.7052 3.21677C34.7044 3.04243 34.705 2.86814 34.7059 2.6938C34.7051 2.61892 34.7051 2.61892 34.7042 2.54253C34.7088 2.14931 34.8022 1.78966 35.0792 1.49767C35.1174 1.47247 35.1556 1.44726 35.195 1.42129C35.2334 1.39491 35.2717 1.36853 35.3113 1.34135C35.4957 1.23581 35.6464 1.2151 35.8547 1.21435C35.9088 1.21403 35.9628 1.2137 36.0185 1.21337C36.0777 1.2133 36.1369 1.21324 36.1979 1.21317C36.2604 1.21289 36.3228 1.21261 36.3872 1.21232C36.5942 1.21149 36.8012 1.2111 37.0082 1.21079C37.1519 1.21046 37.2955 1.21013 37.4392 1.20981C37.7021 1.20928 37.965 1.20893 38.2279 1.20875C38.6145 1.2085 39.0011 1.2075 39.3877 1.20586C39.7228 1.20448 40.058 1.20404 40.3931 1.20394C40.5355 1.20377 40.678 1.20331 40.8204 1.20257C41.0197 1.2016 41.2189 1.2017 41.4182 1.20207C41.477 1.20155 41.5359 1.20102 41.5965 1.20048C41.9919 1.20278 42.2393 1.26054 42.5433 1.52787C42.8613 1.88709 42.9098 2.17814 42.9156 2.64828C42.9162 2.68768 42.9168 2.72709 42.9173 2.76769C42.9191 2.89717 42.9206 3.02665 42.922 3.15614C42.9232 3.24622 42.9244 3.3363 42.9256 3.42638C42.9287 3.6629 42.9316 3.89942 42.9343 4.13594C42.9372 4.37752 42.9404 4.6191 42.9435 4.86068C42.9497 5.33427 42.9554 5.80786 42.961 6.28145C42.9737 6.25278 42.9864 6.22411 42.9994 6.19457C43.058 6.0622 43.1167 5.9299 43.1755 5.79761C43.1954 5.75253 43.2153 5.70745 43.2358 5.661C44.1505 3.60439 45.6492 1.88988 47.7889 1.06224C48.8567 0.676159 49.9604 0.52696 51.0913 0.525995Z" fill="#4A4700"/>
<path id="Vector_2" d="M14.6122 0.243727C14.6752 0.243403 14.7381 0.243079 14.8029 0.242745C14.9357 0.242211 15.0685 0.241838 15.2013 0.241617C15.3994 0.241071 15.5974 0.239307 15.7954 0.237509C16.9604 0.231951 18.1019 0.339365 19.2411 0.585679C19.3105 0.600462 19.3799 0.615245 19.4514 0.630477C21.5747 1.09366 23.5808 1.95625 25.1361 3.49538C25.1639 3.52278 25.1916 3.55017 25.2202 3.5784C26.6319 4.99114 27.2811 6.87557 27.5213 8.8174C27.5279 8.87077 27.5345 8.92415 27.5413 8.97914C27.6551 9.99345 27.6584 11.0141 27.6588 12.0333C27.6591 12.1674 27.6594 12.3014 27.6597 12.4354C27.6603 12.7217 27.6608 13.008 27.6612 13.2942C27.6618 13.7478 27.663 14.2014 27.6642 14.655C27.6647 14.811 27.6651 14.9669 27.6655 15.1229C27.6656 15.1619 27.6657 15.2008 27.6658 15.241C27.667 15.6822 27.6681 16.1234 27.6691 16.5646C27.6692 16.6048 27.6693 16.645 27.6694 16.6865C27.6709 17.3389 27.672 17.9913 27.6729 18.6438C27.6739 19.3169 27.6756 19.99 27.6778 20.663C27.679 21.0397 27.6799 21.4163 27.68 21.7929C27.6801 22.1471 27.681 22.5012 27.6825 22.8553C27.6829 22.9845 27.6831 23.1137 27.6829 23.2429C27.6817 24.158 27.7165 25.0724 28.0247 25.9452C28.0463 26.0072 28.0463 26.0072 28.0682 26.0705C28.3768 26.9182 28.8534 27.663 29.3879 28.385C29.5458 28.5984 29.7014 28.8135 29.8564 29.029C29.8855 29.0685 29.9146 29.108 29.9446 29.1487C30.2422 29.5617 30.3338 29.9321 30.2778 30.4394C30.1359 30.8294 29.8368 31.0233 29.5156 31.2734C29.3417 31.412 29.1745 31.5584 29.0066 31.7042C28.9705 31.7355 28.9344 31.7668 28.8971 31.799C28.823 31.8632 28.749 31.9274 28.6749 31.9916C28.4942 32.1483 28.313 32.3047 28.1318 32.4609C28.0965 32.4914 28.0612 32.5219 28.0248 32.5533C27.8154 32.7339 27.6052 32.9135 27.3943 33.0924C27.0637 33.373 26.739 33.6584 26.4184 33.9504C24.9396 35.2949 24.9396 35.2949 24.2296 35.2834C23.8545 35.2457 23.562 35.0596 23.2865 34.8129C23.2365 34.7689 23.2365 34.7689 23.1854 34.724C22.0892 33.7468 21.233 32.6795 20.4196 31.465C20.3216 31.3268 20.2159 31.1959 20.1087 31.0647C20.0774 31.0965 20.0461 31.1282 20.0138 31.1609C18.9162 32.2712 18.9162 32.2712 18.3377 32.7132C18.2729 32.7661 18.2083 32.8193 18.1438 32.8726C16.164 34.5013 13.9056 35.2908 11.3572 35.4523C11.3002 35.456 11.3002 35.456 11.242 35.4598C9.76856 35.552 8.34476 35.4735 6.91179 35.1006C6.86684 35.0889 6.82189 35.0772 6.77558 35.0652C5.73659 34.783 4.70138 34.2656 3.88393 33.5658C3.81091 33.5038 3.81091 33.5038 3.73642 33.4406C3.59227 33.3146 3.45206 33.1854 3.31263 33.0542C3.26565 33.0112 3.21866 32.9681 3.17025 32.9237C1.59477 31.4293 0.773948 29.0777 0.67856 26.9492C0.675382 26.8119 0.673782 26.6747 0.673069 26.5374C0.672744 26.4868 0.672418 26.4362 0.672082 26.384C0.671547 26.2773 0.671171 26.1707 0.670949 26.064C0.6704 25.9051 0.668626 25.7463 0.666821 25.5874C0.652561 23.1768 1.42125 20.6836 3.02698 18.8433C3.08564 18.7755 3.08564 18.7755 3.14548 18.7065C3.27502 18.5602 3.40728 18.4171 3.54115 18.2748C3.59093 18.2215 3.64072 18.1683 3.69201 18.1134C6.96894 14.6858 12.2528 14.297 16.7024 13.8197C16.7746 13.8119 16.7746 13.8119 16.8483 13.804C17.1279 13.774 17.4075 13.7443 17.6872 13.7148C17.7736 13.7057 17.86 13.6966 17.9464 13.6874C18.0658 13.6748 18.1852 13.6624 18.3045 13.6499C18.3719 13.6429 18.4392 13.6358 18.5086 13.6286C18.6805 13.6136 18.6805 13.6136 18.909 13.6136C18.9036 13.2772 18.8975 12.9408 18.8909 12.6043C18.8887 12.4904 18.8867 12.3765 18.8849 12.2625C18.8498 9.89725 18.8498 9.89725 17.6901 7.89524C16.7416 7.04419 15.4751 6.80546 14.2376 6.8678C13.1772 6.93408 12.1458 7.26015 11.3108 7.92921C11.2676 7.96226 11.2245 7.9953 11.18 8.02935C10.4037 8.66237 10.0376 9.54331 9.78139 10.4826C9.67455 10.8619 9.53168 11.1597 9.2184 11.4145C9.18467 11.4424 9.15094 11.4703 9.11619 11.4991C8.63547 11.8607 7.58127 11.5654 7.01467 11.5037C6.89776 11.4912 6.78086 11.4788 6.66395 11.4663C6.42004 11.4402 6.17617 11.4139 5.93232 11.3874C5.62081 11.3536 5.30924 11.3204 4.99764 11.2873C4.75663 11.2617 4.51564 11.2358 4.27467 11.2098C4.15982 11.1974 4.04496 11.1851 3.93009 11.1729C3.76934 11.1558 3.60864 11.1383 3.44794 11.1207C3.40118 11.1158 3.35443 11.1109 3.30626 11.1058C2.76707 11.0459 2.26136 10.983 1.86654 10.5796C1.6136 10.1881 1.63562 9.8533 1.71301 9.40715C2.06863 7.81485 2.68534 6.25774 3.71254 4.97332C3.73657 4.94308 3.76061 4.91283 3.78537 4.88167C4.67462 3.77176 5.72296 2.87911 6.96892 2.18797C7.00538 2.16719 7.04183 2.14642 7.07939 2.12502C9.30972 0.857226 12.0542 0.254289 14.6122 0.243727ZM16.9452 18.6585C16.857 18.666 16.857 18.666 16.7671 18.6737C14.5895 18.8738 12.3715 19.4203 10.8738 21.1163C9.83014 22.4463 9.64488 24.1245 9.78074 25.7576C9.8117 25.9988 9.86809 26.2281 9.93966 26.4603C9.95976 26.528 9.97987 26.5958 10.0006 26.6655C10.3319 27.6796 10.9566 28.4257 11.9039 28.9186C12.8033 29.3442 13.8645 29.3211 14.8028 29.0361C16.3382 28.4796 17.385 27.2706 18.063 25.8351C18.0977 25.7594 18.1321 25.6836 18.1663 25.6077C18.1822 25.5728 18.1981 25.5379 18.2145 25.502C19.156 23.3853 18.9254 20.8693 18.909 18.6159C17.9261 18.6065 17.9261 18.6065 16.9452 18.6585Z" fill="#4A4700"/>
<path id="Vector_3" d="M95.7372 0.243735C95.8001 0.243411 95.863 0.243087 95.9279 0.242753C96.0607 0.242219 96.1935 0.241846 96.3263 0.241625C96.5243 0.241079 96.7223 0.239315 96.9204 0.237518C98.038 0.232231 99.142 0.325106 100.237 0.553712C100.296 0.565679 100.354 0.577646 100.414 0.589975C102.612 1.05848 104.641 1.92036 106.261 3.49539C106.298 3.5288 106.335 3.56222 106.374 3.59664C108.208 5.28395 108.672 7.98764 108.77 10.3442C108.804 11.3665 108.792 12.391 108.792 13.4138C108.792 13.756 108.793 14.0983 108.794 14.4405C108.796 15.1183 108.797 15.796 108.798 16.4738C108.798 16.5141 108.798 16.5544 108.799 16.5959C108.799 17.046 108.8 17.4961 108.8 17.9462C108.8 18.1098 108.801 18.2735 108.801 18.4372C108.801 18.4978 108.801 18.4978 108.801 18.5596C108.802 19.236 108.803 19.9124 108.805 20.5888C108.806 21.0404 108.807 21.492 108.807 21.9436C108.807 22.2251 108.808 22.5067 108.809 22.7883C108.809 22.9177 108.809 23.0472 108.809 23.1766C108.804 25.3797 109.453 26.9916 110.78 28.7406C110.809 28.7783 110.837 28.8161 110.866 28.8551C110.919 28.9256 110.973 28.9958 111.028 29.0655C111.346 29.4857 111.474 29.9122 111.403 30.4394C111.18 30.9009 110.718 31.2289 110.326 31.5437C110.085 31.738 109.852 31.9413 109.618 32.1438C109.405 32.3287 109.191 32.5124 108.976 32.695C108.701 32.9278 108.43 33.163 108.164 33.406C107.916 33.6324 107.659 33.8437 107.397 34.0532C107.244 34.1817 107.098 34.3151 106.953 34.4527C106.485 34.8951 106.033 35.295 105.354 35.2833C104.957 35.2437 104.667 35.0411 104.379 34.7809C104.325 34.7327 104.325 34.7327 104.27 34.6835C104.151 34.5774 104.035 34.4699 103.919 34.3617C103.879 34.3242 103.838 34.2867 103.797 34.2481C102.79 33.3005 102.045 32.2139 101.291 31.0647C101.003 31.3036 100.738 31.5547 100.477 31.8215C100.137 32.1632 99.7872 32.475 99.4055 32.77C99.3446 32.8192 99.2839 32.8685 99.2232 32.9179C97.2475 34.5143 95.0074 35.2923 92.4821 35.4524C92.4251 35.456 92.4251 35.456 92.367 35.4598C90.8935 35.552 89.4697 35.4735 88.0367 35.1006C87.9918 35.0889 87.9468 35.0772 87.9005 35.0652C86.8615 34.783 85.8263 34.2656 85.0089 33.5659C84.9358 33.5039 84.9358 33.5039 84.8614 33.4406C84.7172 33.3146 84.577 33.1854 84.4376 33.0543C84.3906 33.0112 84.3436 32.9681 84.2952 32.9237C82.5875 31.3039 81.8469 28.7976 81.7875 26.5101C81.7492 24.5573 81.9554 22.663 82.8379 20.8896C82.866 20.8321 82.866 20.8321 82.8945 20.7733C83.3463 19.8517 83.9194 19.033 84.6415 18.3013C84.7195 18.2218 84.7957 18.1407 84.8718 18.0594C86.6265 16.2291 89.1014 15.3146 91.5216 14.7505C91.5762 14.7376 91.6308 14.7248 91.6871 14.7115C92.4174 14.5422 93.1554 14.4188 93.8961 14.3044C93.9437 14.297 93.9914 14.2897 94.0405 14.2821C95.1771 14.108 96.3183 13.9835 97.4619 13.8646C97.6777 13.8421 97.8934 13.8191 98.1092 13.7961C98.3684 13.7684 98.6276 13.7409 98.8869 13.7135C98.9355 13.7084 98.9842 13.7032 99.0344 13.6979C99.1706 13.6836 99.3069 13.6693 99.4432 13.6552C99.4834 13.6509 99.5236 13.6467 99.565 13.6423C99.7224 13.626 99.8756 13.6136 100.034 13.6136C100.029 13.268 100.022 12.9225 100.016 12.5769C100.014 12.4599 100.012 12.3428 100.01 12.2257C99.9859 10.6968 99.9551 9.0622 98.815 7.89524C97.8665 7.0442 96.6001 6.80547 95.3625 6.86781C94.3022 6.93409 93.2707 7.26016 92.4357 7.92922C92.3925 7.96227 92.3494 7.99531 92.3049 8.02936C91.5327 8.65913 91.1625 9.53633 90.9114 10.4727C90.7976 10.879 90.6399 11.2534 90.2898 11.5104C89.6977 11.8218 88.7876 11.575 88.1456 11.5057C88.0291 11.4934 87.9126 11.481 87.7961 11.4687C87.553 11.4429 87.3098 11.4168 87.0667 11.3906C86.7567 11.3571 86.4467 11.3245 86.1367 11.292C85.8964 11.2667 85.6561 11.241 85.4159 11.2152C85.3016 11.2029 85.1874 11.1909 85.0731 11.1789C83.3927 11.003 83.3927 11.003 83.0287 10.6417C82.8285 10.3861 82.7646 10.1418 82.7808 9.81928C83.0076 8.09262 83.7495 6.33371 84.8375 4.97333C84.8615 4.94309 84.8855 4.91284 84.9103 4.88168C85.7996 3.77177 86.8479 2.87912 88.0939 2.18798C88.1303 2.1672 88.1668 2.14643 88.2043 2.12503C90.4347 0.857235 93.1791 0.254297 95.7372 0.243735ZM98.0701 18.6585C97.982 18.666 97.982 18.666 97.8921 18.6737C95.9493 18.8522 93.9959 19.301 92.4928 20.6054C92.4543 20.6383 92.4158 20.6712 92.3761 20.7051C91.7759 21.2571 91.362 21.9948 91.1217 22.7655C91.1098 22.8029 91.0979 22.8403 91.0856 22.8788C90.665 24.2683 90.7558 25.9848 91.3641 27.2988C91.8605 28.2121 92.5821 28.781 93.552 29.1269C93.6759 29.1581 93.7939 29.1758 93.9211 29.1889C94.0094 29.2 94.0094 29.2 94.0996 29.2113C95.2527 29.3278 96.3314 29.0121 97.2631 28.3291C97.8611 27.8392 98.3772 27.293 98.7771 26.6309C98.7986 26.5955 98.8201 26.56 98.8422 26.5235C100.002 24.5712 100.056 22.3509 100.041 20.1436C100.04 19.9942 100.04 19.8448 100.04 19.6955C100.038 19.3356 100.036 18.9757 100.034 18.6159C99.0511 18.6066 99.0511 18.6066 98.0701 18.6585Z" fill="#4A4700"/>
<path id="Vector_4" d="M191.742 0.526052C191.782 0.525995 191.823 0.525938 191.864 0.525879C194.156 0.528076 196.217 1.24202 197.894 2.81402C197.932 2.8481 197.97 2.88217 198.009 2.91727C200.169 4.93578 200.533 8.24551 200.642 11.028C200.663 11.7182 200.661 12.4089 200.66 13.0993C200.66 13.3837 200.66 13.6681 200.661 13.9525C200.662 14.5059 200.662 15.0593 200.662 15.6127C200.661 16.0624 200.661 16.512 200.662 16.9616C200.662 17.0261 200.662 17.0905 200.662 17.1569C200.662 17.2879 200.662 17.4188 200.662 17.5498C200.663 18.7706 200.663 19.9914 200.662 21.2122C200.661 22.3287 200.662 23.4452 200.664 24.5617C200.665 25.7116 200.665 26.8615 200.665 28.0115C200.665 28.6557 200.665 29.3 200.666 29.9443C200.667 30.4912 200.667 31.0382 200.666 31.5852C200.665 31.8641 200.665 32.143 200.666 32.4219C200.667 32.6771 200.667 32.9323 200.666 33.1875C200.665 33.2798 200.666 33.3721 200.666 33.4644C200.667 33.5899 200.666 33.7153 200.665 33.8408C200.665 33.9105 200.665 33.9802 200.665 34.0519C200.62 34.3612 200.479 34.5969 200.244 34.8065C199.871 35.0666 199.519 35.0617 199.079 35.062C199.015 35.0625 198.95 35.0629 198.884 35.0634C198.672 35.0648 198.459 35.0653 198.247 35.0657C198.099 35.0662 197.951 35.0667 197.803 35.0672C197.493 35.0682 197.183 35.0686 196.872 35.0688C196.515 35.069 196.157 35.0707 195.8 35.073C195.455 35.0753 195.11 35.0759 194.765 35.076C194.619 35.0762 194.472 35.0769 194.326 35.0781C194.121 35.0796 193.916 35.0793 193.711 35.0786C193.651 35.0795 193.592 35.0803 193.53 35.0812C193.122 35.0772 192.806 34.9923 192.467 34.7603C192.204 34.4856 192.117 34.2295 192.117 33.8562C192.116 33.7504 192.116 33.7504 192.116 33.6424C192.116 33.5637 192.116 33.485 192.116 33.4062C192.116 33.3229 192.116 33.2396 192.115 33.1563C192.115 32.9268 192.115 32.6972 192.115 32.4677C192.114 32.2203 192.114 31.9729 192.113 31.7255C192.112 31.2963 192.112 30.8672 192.111 30.438C192.11 29.816 192.109 29.1939 192.108 28.5719C192.106 27.5607 192.104 26.5495 192.102 25.5383C192.102 25.4777 192.102 25.4172 192.102 25.3548C192.1 24.4978 192.099 23.6409 192.097 22.7839C192.097 22.7237 192.097 22.6636 192.097 22.6016C192.097 22.5114 192.097 22.5114 192.097 22.4194C192.095 21.4136 192.093 20.4077 192.091 19.4018C192.09 18.7823 192.089 18.1629 192.088 17.5434C192.088 17.1175 192.087 16.6917 192.086 16.2658C192.085 16.0209 192.084 15.776 192.084 15.531C192.159 12.1952 192.159 12.1952 190.732 9.29424C189.915 8.5455 188.943 8.39399 187.874 8.43139C186.897 8.49851 186.033 9.09031 185.404 9.80583C183.768 11.9104 183.774 14.8126 183.775 17.3413C183.775 17.5663 183.775 17.7913 183.775 18.0163C183.774 18.405 183.774 18.7937 183.774 19.1824C183.773 19.797 183.772 20.4116 183.771 21.0262C183.771 21.237 183.771 21.4478 183.77 21.6587C183.77 21.7113 183.77 21.764 183.77 21.8182C183.769 22.4156 183.768 23.013 183.767 23.6103C183.767 23.6649 183.767 23.7194 183.767 23.7755C183.766 24.6612 183.765 25.5469 183.765 26.4326C183.764 27.3437 183.763 28.2549 183.761 29.166C183.76 29.7272 183.759 30.2883 183.759 30.8495C183.76 31.2335 183.759 31.6176 183.758 32.0016C183.757 32.223 183.757 32.4445 183.757 32.6659C183.758 32.8688 183.757 33.0715 183.756 33.2744C183.756 33.3822 183.756 33.49 183.757 33.5979C183.753 34.0444 183.698 34.3546 183.4 34.7048C183.353 34.7429 183.353 34.7429 183.305 34.7817C183.274 34.8079 183.243 34.8341 183.211 34.8612C182.865 35.0747 182.51 35.0617 182.117 35.062C182.053 35.0625 181.989 35.0629 181.924 35.0634C181.713 35.0648 181.503 35.0653 181.292 35.0657C181.145 35.0662 180.999 35.0667 180.852 35.0672C180.544 35.0682 180.237 35.0686 179.929 35.0688C179.575 35.069 179.221 35.0707 178.866 35.073C178.524 35.0753 178.182 35.0759 177.84 35.076C177.695 35.0762 177.55 35.0769 177.405 35.0781C177.202 35.0796 176.999 35.0793 176.796 35.0786C176.707 35.0799 176.707 35.0799 176.616 35.0812C176.21 35.0772 175.894 34.9911 175.557 34.7603C175.238 34.4277 175.205 34.1147 175.206 33.6734C175.205 33.6195 175.205 33.5655 175.205 33.5099C175.204 33.3272 175.204 33.1446 175.204 32.962C175.203 32.8305 175.203 32.6989 175.203 32.5674C175.202 32.2426 175.201 31.9179 175.2 31.5931C175.199 31.2043 175.198 30.8154 175.197 30.4266C175.195 29.4866 175.193 28.5467 175.191 27.6067C175.19 27.1621 175.189 26.7176 175.188 26.273C175.184 24.7515 175.181 23.23 175.178 21.7086C175.178 21.613 175.178 21.5175 175.177 21.4219C175.177 21.3262 175.177 21.2304 175.177 21.1346C175.177 20.9425 175.176 20.7503 175.176 20.5582C175.176 20.5106 175.176 20.4629 175.176 20.4138C175.173 18.8691 175.169 17.3244 175.165 15.7796C175.16 14.1469 175.157 12.5141 175.154 10.8814C175.153 10.7022 175.153 10.523 175.153 10.3438C175.153 10.2996 175.153 10.2555 175.153 10.2101C175.151 9.49962 175.149 8.7892 175.147 8.07878C175.145 7.36478 175.144 6.65078 175.143 5.93678C175.142 5.54989 175.142 5.16302 175.14 4.77613C175.139 4.42206 175.138 4.06799 175.138 3.71391C175.138 3.58572 175.138 3.45753 175.137 3.32934C175.136 3.15521 175.136 2.98111 175.136 2.80697C175.136 2.75711 175.135 2.70725 175.135 2.65588C175.137 2.27687 175.191 1.90237 175.437 1.60098C175.475 1.57101 175.514 1.54104 175.553 1.51016C175.591 1.47917 175.63 1.44817 175.669 1.41624C175.877 1.2728 176.028 1.20825 176.283 1.20681C176.337 1.20624 176.391 1.20567 176.447 1.20509C176.506 1.20505 176.564 1.20501 176.625 1.20497C176.687 1.2045 176.75 1.20403 176.814 1.20354C177.02 1.20217 177.226 1.20167 177.432 1.2013C177.576 1.20079 177.719 1.20027 177.862 1.19974C178.163 1.1988 178.463 1.19836 178.764 1.1982C179.111 1.198 179.457 1.1963 179.804 1.19392C180.138 1.1917 180.473 1.19106 180.807 1.191C180.949 1.19076 181.091 1.19005 181.233 1.18887C181.431 1.18734 181.63 1.18761 181.829 1.18832C181.887 1.18748 181.945 1.18663 182.005 1.18577C182.43 1.19008 182.713 1.29506 183.015 1.59466C183.267 1.88008 183.278 2.11745 183.281 2.48111C183.282 2.52826 183.282 2.57541 183.283 2.62399C183.284 2.77993 183.286 2.93586 183.287 3.0918C183.288 3.19989 183.29 3.30797 183.291 3.41606C183.294 3.70061 183.297 3.98517 183.3 4.26973C183.303 4.56007 183.306 4.8504 183.309 5.14074C183.315 5.71047 183.321 6.28021 183.326 6.84995C183.353 6.79156 183.353 6.79156 183.38 6.73198C183.462 6.55343 183.544 6.37495 183.626 6.19646C183.654 6.13523 183.682 6.07401 183.711 6.01092C184.175 5.00024 184.713 4.0597 185.44 3.21193C185.48 3.1654 185.52 3.11887 185.561 3.07093C186.898 1.54865 188.689 0.732016 190.705 0.550422C191.051 0.528782 191.396 0.526396 191.742 0.526052Z" fill="#4A4700"/>
<path id="Vector_5" d="M14.6122 0.243727C14.6752 0.243403 14.7381 0.243079 14.8029 0.242745C14.9357 0.242211 15.0685 0.241838 15.2013 0.241617C15.3994 0.241071 15.5974 0.239307 15.7954 0.237509C16.9604 0.231951 18.1019 0.339365 19.2411 0.585679C19.3105 0.600462 19.3799 0.615245 19.4514 0.630477C21.5747 1.09366 23.5808 1.95625 25.1361 3.49538C25.1639 3.52278 25.1916 3.55017 25.2202 3.5784C26.6319 4.99114 27.2811 6.87557 27.5213 8.8174C27.5279 8.87077 27.5345 8.92415 27.5413 8.97914C27.6551 9.99345 27.6584 11.0141 27.6588 12.0333C27.6591 12.1674 27.6594 12.3014 27.6597 12.4354C27.6603 12.7217 27.6608 13.008 27.6612 13.2942C27.6618 13.7478 27.663 14.2014 27.6642 14.655C27.6647 14.811 27.6651 14.9669 27.6655 15.1229C27.6656 15.1619 27.6657 15.2008 27.6658 15.241C27.667 15.6822 27.6681 16.1234 27.6691 16.5646C27.6692 16.6048 27.6693 16.645 27.6694 16.6865C27.6709 17.3389 27.672 17.9913 27.6729 18.6438C27.6739 19.3169 27.6756 19.99 27.6778 20.663C27.679 21.0397 27.6799 21.4163 27.68 21.7929C27.6801 22.1471 27.681 22.5012 27.6825 22.8553C27.6829 22.9845 27.6831 23.1137 27.6829 23.2429C27.6817 24.158 27.7165 25.0724 28.0247 25.9452C28.0463 26.0072 28.0463 26.0072 28.0682 26.0705C28.3768 26.9182 28.8534 27.663 29.3879 28.385C29.5458 28.5984 29.7014 28.8135 29.8564 29.029C29.8855 29.0685 29.9146 29.108 29.9446 29.1487C30.2422 29.5617 30.3338 29.9321 30.2778 30.4394C30.1359 30.8294 29.8368 31.0233 29.5156 31.2734C29.3417 31.412 29.1745 31.5584 29.0066 31.7042C28.9705 31.7355 28.9344 31.7668 28.8971 31.799C28.823 31.8632 28.749 31.9274 28.6749 31.9916C28.4942 32.1483 28.313 32.3047 28.1318 32.4609C28.0965 32.4914 28.0612 32.5219 28.0248 32.5533C27.8154 32.7339 27.6052 32.9135 27.3943 33.0924C27.0637 33.373 26.739 33.6584 26.4184 33.9504C24.9396 35.2949 24.9396 35.2949 24.2296 35.2834C23.8545 35.2457 23.562 35.0596 23.2865 34.8129C23.2365 34.7689 23.2365 34.7689 23.1854 34.724C22.0892 33.7468 21.233 32.6795 20.4196 31.465C20.3216 31.3268 20.2159 31.1959 20.1087 31.0647C20.0774 31.0965 20.0461 31.1282 20.0138 31.1609C18.9162 32.2712 18.9162 32.2712 18.3377 32.7132C18.2729 32.7661 18.2083 32.8193 18.1438 32.8726C16.164 34.5013 13.9056 35.2908 11.3572 35.4523C11.3002 35.456 11.3002 35.456 11.242 35.4598C9.76856 35.552 8.34476 35.4735 6.91179 35.1006C6.86684 35.0889 6.82189 35.0772 6.77558 35.0652C5.73659 34.783 4.70138 34.2656 3.88393 33.5658C3.81091 33.5038 3.81091 33.5038 3.73642 33.4406C3.59227 33.3146 3.45206 33.1854 3.31263 33.0542C3.26565 33.0112 3.21866 32.9681 3.17025 32.9237C1.59477 31.4293 0.773948 29.0777 0.67856 26.9492C0.675382 26.8119 0.673782 26.6747 0.673069 26.5374C0.672744 26.4868 0.672418 26.4362 0.672082 26.384C0.671547 26.2773 0.671171 26.1707 0.670949 26.064C0.6704 25.9051 0.668626 25.7463 0.666821 25.5874C0.652561 23.1768 1.42125 20.6836 3.02698 18.8433C3.08564 18.7755 3.08564 18.7755 3.14548 18.7065C3.27502 18.5602 3.40728 18.4171 3.54115 18.2748C3.59093 18.2215 3.64072 18.1683 3.69201 18.1134C6.96894 14.6858 12.2528 14.297 16.7024 13.8197C16.7746 13.8119 16.7746 13.8119 16.8483 13.804C17.1279 13.774 17.4075 13.7443 17.6872 13.7148C17.7736 13.7057 17.86 13.6966 17.9464 13.6874C18.0658 13.6748 18.1852 13.6624 18.3045 13.6499C18.3719 13.6429 18.4392 13.6358 18.5086 13.6286C18.6805 13.6136 18.6805 13.6136 18.909 13.6136C18.9036 13.2772 18.8975 12.9408 18.8909 12.6043C18.8887 12.4904 18.8867 12.3765 18.8849 12.2625C18.8498 9.89725 18.8498 9.89725 17.6901 7.89524C16.7416 7.04419 15.4751 6.80546 14.2376 6.8678C13.1772 6.93408 12.1458 7.26015 11.3108 7.92921C11.2676 7.96226 11.2245 7.9953 11.18 8.02935C10.4037 8.66237 10.0376 9.54331 9.78139 10.4826C9.67455 10.8619 9.53168 11.1597 9.2184 11.4145C9.18467 11.4424 9.15094 11.4703 9.11619 11.4991C8.63547 11.8607 7.58127 11.5654 7.01467 11.5037C6.89776 11.4912 6.78086 11.4788 6.66395 11.4663C6.42004 11.4402 6.17617 11.4139 5.93232 11.3874C5.62081 11.3536 5.30924 11.3204 4.99764 11.2873C4.75663 11.2617 4.51564 11.2358 4.27467 11.2098C4.15982 11.1974 4.04496 11.1851 3.93009 11.1729C3.76934 11.1558 3.60864 11.1383 3.44794 11.1207C3.40118 11.1158 3.35443 11.1109 3.30626 11.1058C2.76707 11.0459 2.26136 10.983 1.86654 10.5796C1.6136 10.1881 1.63562 9.8533 1.71301 9.40715C2.06863 7.81485 2.68534 6.25774 3.71254 4.97332C3.73657 4.94308 3.76061 4.91283 3.78537 4.88167C4.67462 3.77176 5.72296 2.87911 6.96892 2.18797C7.00538 2.16719 7.04183 2.14642 7.07939 2.12502C9.30972 0.857226 12.0542 0.254289 14.6122 0.243727ZM16.9452 18.6585C16.857 18.666 16.857 18.666 16.7671 18.6737C14.5895 18.8738 12.3715 19.4203 10.8738 21.1163C9.83014 22.4463 9.64488 24.1245 9.78074 25.7576C9.8117 25.9988 9.86809 26.2281 9.93966 26.4603C9.95976 26.528 9.97987 26.5958 10.0006 26.6655C10.3319 27.6796 10.9566 28.4257 11.9039 28.9186C12.8033 29.3442 13.8645 29.3211 14.8028 29.0361C16.3382 28.4796 17.385 27.2706 18.063 25.8351C18.0977 25.7594 18.1321 25.6836 18.1663 25.6077C18.1822 25.5728 18.1981 25.5379 18.2145 25.502C19.156 23.3853 18.9254 20.8693 18.909 18.6159C17.9261 18.6065 17.9261 18.6065 16.9452 18.6585Z" fill="#4A4700"/>
<path id="Vector_6" d="M95.7372 0.243735C95.8001 0.243411 95.863 0.243087 95.9279 0.242753C96.0607 0.242219 96.1935 0.241846 96.3263 0.241625C96.5243 0.241079 96.7223 0.239315 96.9204 0.237518C98.038 0.232231 99.142 0.325106 100.237 0.553712C100.296 0.565679 100.354 0.577646 100.414 0.589975C102.612 1.05848 104.641 1.92036 106.261 3.49539C106.298 3.5288 106.335 3.56222 106.374 3.59664C108.208 5.28395 108.672 7.98764 108.77 10.3442C108.804 11.3665 108.792 12.391 108.792 13.4138C108.792 13.756 108.793 14.0983 108.794 14.4405C108.796 15.1183 108.797 15.796 108.798 16.4738C108.798 16.5141 108.798 16.5544 108.799 16.5959C108.799 17.046 108.8 17.4961 108.8 17.9462C108.8 18.1098 108.801 18.2735 108.801 18.4372C108.801 18.4978 108.801 18.4978 108.801 18.5596C108.802 19.236 108.803 19.9124 108.805 20.5888C108.806 21.0404 108.807 21.492 108.807 21.9436C108.807 22.2251 108.808 22.5067 108.809 22.7883C108.809 22.9177 108.809 23.0472 108.809 23.1766C108.804 25.3797 109.453 26.9916 110.78 28.7406C110.809 28.7783 110.837 28.8161 110.866 28.8551C110.919 28.9256 110.973 28.9958 111.028 29.0655C111.346 29.4857 111.474 29.9122 111.403 30.4394C111.18 30.9009 110.718 31.2289 110.326 31.5437C110.085 31.738 109.852 31.9413 109.618 32.1438C109.405 32.3287 109.191 32.5124 108.976 32.695C108.701 32.9278 108.43 33.163 108.164 33.406C107.916 33.6324 107.659 33.8437 107.397 34.0532C107.244 34.1817 107.098 34.3151 106.953 34.4527C106.485 34.8951 106.033 35.295 105.354 35.2833C104.957 35.2437 104.667 35.0411 104.379 34.7809C104.325 34.7327 104.325 34.7327 104.27 34.6835C104.151 34.5774 104.035 34.4699 103.919 34.3617C103.879 34.3242 103.838 34.2867 103.797 34.2481C102.79 33.3005 102.045 32.2139 101.291 31.0647C101.003 31.3036 100.738 31.5547 100.477 31.8215C100.137 32.1632 99.7872 32.475 99.4055 32.77C99.3446 32.8192 99.2839 32.8685 99.2232 32.9179C97.2475 34.5143 95.0074 35.2923 92.4821 35.4524C92.4251 35.456 92.4251 35.456 92.367 35.4598C90.8935 35.552 89.4697 35.4735 88.0367 35.1006C87.9918 35.0889 87.9468 35.0772 87.9005 35.0652C86.8615 34.783 85.8263 34.2656 85.0089 33.5659C84.9358 33.5039 84.9358 33.5039 84.8614 33.4406C84.7172 33.3146 84.577 33.1854 84.4376 33.0543C84.3906 33.0112 84.3436 32.9681 84.2952 32.9237C82.5875 31.3039 81.8469 28.7976 81.7875 26.5101C81.7492 24.5573 81.9554 22.663 82.8379 20.8896C82.866 20.8321 82.866 20.8321 82.8945 20.7733C83.3463 19.8517 83.9194 19.033 84.6415 18.3013C84.7195 18.2218 84.7957 18.1407 84.8718 18.0594C86.6265 16.2291 89.1014 15.3146 91.5216 14.7505C91.5762 14.7376 91.6308 14.7248 91.6871 14.7115C92.4174 14.5422 93.1554 14.4188 93.8961 14.3044C93.9437 14.297 93.9914 14.2897 94.0405 14.2821C95.1771 14.108 96.3183 13.9835 97.4619 13.8646C97.6777 13.8421 97.8934 13.8191 98.1092 13.7961C98.3684 13.7684 98.6276 13.7409 98.8869 13.7135C98.9355 13.7084 98.9842 13.7032 99.0344 13.6979C99.1706 13.6836 99.3069 13.6693 99.4432 13.6552C99.4834 13.6509 99.5236 13.6467 99.565 13.6423C99.7224 13.626 99.8756 13.6136 100.034 13.6136C100.029 13.268 100.022 12.9225 100.016 12.5769C100.014 12.4599 100.012 12.3428 100.01 12.2257C99.9859 10.6968 99.9551 9.0622 98.815 7.89524C97.8665 7.0442 96.6001 6.80547 95.3625 6.86781C94.3022 6.93409 93.2707 7.26016 92.4357 7.92922C92.3925 7.96227 92.3494 7.99531 92.3049 8.02936C91.5327 8.65913 91.1625 9.53633 90.9114 10.4727C90.7976 10.879 90.6399 11.2534 90.2898 11.5104C89.6977 11.8218 88.7876 11.575 88.1456 11.5057C88.0291 11.4934 87.9126 11.481 87.7961 11.4687C87.553 11.4429 87.3098 11.4168 87.0667 11.3906C86.7567 11.3571 86.4467 11.3245 86.1367 11.292C85.8964 11.2667 85.6561 11.241 85.4159 11.2152C85.3016 11.2029 85.1874 11.1909 85.0731 11.1789C83.3927 11.003 83.3927 11.003 83.0287 10.6417C82.8285 10.3861 82.7646 10.1418 82.7808 9.81928C83.0076 8.09262 83.7495 6.33371 84.8375 4.97333C84.8615 4.94309 84.8855 4.91284 84.9103 4.88168C85.7996 3.77177 86.8479 2.87912 88.0939 2.18798C88.1303 2.1672 88.1668 2.14643 88.2043 2.12503C90.4347 0.857235 93.1791 0.254297 95.7372 0.243735ZM98.0701 18.6585C97.982 18.666 97.982 18.666 97.8921 18.6737C95.9493 18.8522 93.9959 19.301 92.4928 20.6054C92.4543 20.6383 92.4158 20.6712 92.3761 20.7051C91.7759 21.2571 91.362 21.9948 91.1217 22.7655C91.1098 22.8029 91.0979 22.8403 91.0856 22.8788C90.665 24.2683 90.7558 25.9848 91.3641 27.2988C91.8605 28.2121 92.5821 28.781 93.552 29.1269C93.6759 29.1581 93.7939 29.1758 93.9211 29.1889C94.0094 29.2 94.0094 29.2 94.0996 29.2113C95.2527 29.3278 96.3314 29.0121 97.2631 28.3291C97.8611 27.8392 98.3772 27.293 98.7771 26.6309C98.7986 26.5955 98.8201 26.56 98.8422 26.5235C100.002 24.5712 100.056 22.3509 100.041 20.1436C100.04 19.9942 100.04 19.8448 100.04 19.6955C100.038 19.3356 100.036 18.9757 100.034 18.6159C99.0511 18.6066 99.0511 18.6066 98.0701 18.6585Z" fill="#4A4700"/>
<path id="Vector_7" d="M191.742 0.526052C191.782 0.525995 191.823 0.525938 191.864 0.525879C194.156 0.528076 196.217 1.24202 197.894 2.81402C197.932 2.8481 197.97 2.88217 198.009 2.91727C200.169 4.93578 200.533 8.24551 200.642 11.028C200.663 11.7182 200.661 12.4089 200.66 13.0993C200.66 13.3837 200.66 13.6681 200.661 13.9525C200.662 14.5059 200.662 15.0593 200.662 15.6127C200.661 16.0624 200.661 16.512 200.662 16.9616C200.662 17.0261 200.662 17.0905 200.662 17.1569C200.662 17.2879 200.662 17.4188 200.662 17.5498C200.663 18.7706 200.663 19.9914 200.662 21.2122C200.661 22.3287 200.662 23.4452 200.664 24.5617C200.665 25.7116 200.665 26.8615 200.665 28.0115C200.665 28.6557 200.665 29.3 200.666 29.9443C200.667 30.4912 200.667 31.0382 200.666 31.5852C200.665 31.8641 200.665 32.143 200.666 32.4219C200.667 32.6771 200.667 32.9323 200.666 33.1875C200.665 33.2798 200.666 33.3721 200.666 33.4644C200.667 33.5899 200.666 33.7153 200.665 33.8408C200.665 33.9105 200.665 33.9802 200.665 34.0519C200.62 34.3612 200.479 34.5969 200.244 34.8065C199.871 35.0666 199.519 35.0617 199.079 35.062C199.015 35.0625 198.95 35.0629 198.884 35.0634C198.672 35.0648 198.459 35.0653 198.247 35.0657C198.099 35.0662 197.951 35.0667 197.803 35.0672C197.493 35.0682 197.183 35.0686 196.872 35.0688C196.515 35.069 196.157 35.0707 195.8 35.073C195.455 35.0753 195.11 35.0759 194.765 35.076C194.619 35.0762 194.472 35.0769 194.326 35.0781C194.121 35.0796 193.916 35.0793 193.711 35.0786C193.651 35.0795 193.592 35.0803 193.53 35.0812C193.122 35.0772 192.806 34.9923 192.467 34.7603C192.204 34.4856 192.117 34.2295 192.117 33.8562C192.116 33.7504 192.116 33.7504 192.116 33.6424C192.116 33.5637 192.116 33.485 192.116 33.4062C192.116 33.3229 192.116 33.2396 192.115 33.1563C192.115 32.9268 192.115 32.6972 192.115 32.4677C192.114 32.2203 192.114 31.9729 192.113 31.7255C192.112 31.2963 192.112 30.8672 192.111 30.438C192.11 29.816 192.109 29.1939 192.108 28.5719C192.106 27.5607 192.104 26.5495 192.102 25.5383C192.102 25.4777 192.102 25.4172 192.102 25.3548C192.1 24.4978 192.099 23.6409 192.097 22.7839C192.097 22.7237 192.097 22.6636 192.097 22.6016C192.097 22.5114 192.097 22.5114 192.097 22.4194C192.095 21.4136 192.093 20.4077 192.091 19.4018C192.09 18.7823 192.089 18.1629 192.088 17.5434C192.088 17.1175 192.087 16.6917 192.086 16.2658C192.085 16.0209 192.084 15.776 192.084 15.531C192.159 12.1952 192.159 12.1952 190.732 9.29424C189.915 8.5455 188.943 8.39399 187.874 8.43139C186.897 8.49851 186.033 9.09031 185.404 9.80583C183.768 11.9104 183.774 14.8126 183.775 17.3413C183.775 17.5663 183.775 17.7913 183.775 18.0163C183.774 18.405 183.774 18.7937 183.774 19.1824C183.773 19.797 183.772 20.4116 183.771 21.0262C183.771 21.237 183.771 21.4478 183.77 21.6587C183.77 21.7113 183.77 21.764 183.77 21.8182C183.769 22.4156 183.768 23.013 183.767 23.6103C183.767 23.6649 183.767 23.7194 183.767 23.7755C183.766 24.6612 183.765 25.5469 183.765 26.4326C183.764 27.3437 183.763 28.2549 183.761 29.166C183.76 29.7272 183.759 30.2883 183.759 30.8495C183.76 31.2335 183.759 31.6176 183.758 32.0016C183.757 32.223 183.757 32.4445 183.757 32.6659C183.758 32.8688 183.757 33.0715 183.756 33.2744C183.756 33.3822 183.756 33.49 183.757 33.5979C183.753 34.0444 183.698 34.3546 183.4 34.7048C183.353 34.7429 183.353 34.7429 183.305 34.7817C183.274 34.8079 183.243 34.8341 183.211 34.8612C182.865 35.0747 182.51 35.0617 182.117 35.062C182.053 35.0625 181.989 35.0629 181.924 35.0634C181.713 35.0648 181.503 35.0653 181.292 35.0657C181.145 35.0662 180.999 35.0667 180.852 35.0672C180.544 35.0682 180.237 35.0686 179.929 35.0688C179.575 35.069 179.221 35.0707 178.866 35.073C178.524 35.0753 178.182 35.0759 177.84 35.076C177.695 35.0762 177.55 35.0769 177.405 35.0781C177.202 35.0796 176.999 35.0793 176.796 35.0786C176.707 35.0799 176.707 35.0799 176.616 35.0812C176.21 35.0772 175.894 34.9911 175.557 34.7603C175.238 34.4277 175.205 34.1147 175.206 33.6734C175.205 33.6195 175.205 33.5655 175.205 33.5099C175.204 33.3272 175.204 33.1446 175.204 32.962C175.203 32.8305 175.203 32.6989 175.203 32.5674C175.202 32.2426 175.201 31.9179 175.2 31.5931C175.199 31.2043 175.198 30.8154 175.197 30.4266C175.195 29.4866 175.193 28.5467 175.191 27.6067C175.19 27.1621 175.189 26.7176 175.188 26.273C175.184 24.7515 175.181 23.23 175.178 21.7086C175.178 21.613 175.178 21.5175 175.177 21.4219C175.177 21.3262 175.177 21.2304 175.177 21.1346C175.177 20.9425 175.176 20.7503 175.176 20.5582C175.176 20.5106 175.176 20.4629 175.176 20.4138C175.173 18.8691 175.169 17.3244 175.165 15.7796C175.16 14.1469 175.157 12.5141 175.154 10.8814C175.153 10.7022 175.153 10.523 175.153 10.3438C175.153 10.2996 175.153 10.2555 175.153 10.2101C175.151 9.49962 175.149 8.7892 175.147 8.07878C175.145 7.36478 175.144 6.65078 175.143 5.93678C175.142 5.54989 175.142 5.16302 175.14 4.77613C175.139 4.42206 175.138 4.06799 175.138 3.71391C175.138 3.58572 175.138 3.45753 175.137 3.32934C175.136 3.15521 175.136 2.98111 175.136 2.80697C175.136 2.75711 175.135 2.70725 175.135 2.65588C175.137 2.27687 175.191 1.90237 175.437 1.60098C175.475 1.57101 175.514 1.54104 175.553 1.51016C175.591 1.47917 175.63 1.44817 175.669 1.41624C175.877 1.2728 176.028 1.20825 176.283 1.20681C176.337 1.20624 176.391 1.20567 176.447 1.20509C176.506 1.20505 176.564 1.20501 176.625 1.20497C176.687 1.2045 176.75 1.20403 176.814 1.20354C177.02 1.20217 177.226 1.20167 177.432 1.2013C177.576 1.20079 177.719 1.20027 177.862 1.19974C178.163 1.1988 178.463 1.19836 178.764 1.1982C179.111 1.198 179.457 1.1963 179.804 1.19392C180.138 1.1917 180.473 1.19106 180.807 1.191C180.949 1.19076 181.091 1.19005 181.233 1.18887C181.431 1.18734 181.63 1.18761 181.829 1.18832C181.887 1.18748 181.945 1.18663 182.005 1.18577C182.43 1.19008 182.713 1.29506 183.015 1.59466C183.267 1.88008 183.278 2.11745 183.281 2.48111C183.282 2.52826 183.282 2.57541 183.283 2.62399C183.284 2.77993 183.286 2.93586 183.287 3.0918C183.288 3.19989 183.29 3.30797 183.291 3.41606C183.294 3.70061 183.297 3.98517 183.3 4.26973C183.303 4.56007 183.306 4.8504 183.309 5.14074C183.315 5.71047 183.321 6.28021 183.326 6.84995C183.353 6.79156 183.353 6.79156 183.38 6.73198C183.462 6.55343 183.544 6.37495 183.626 6.19646C183.654 6.13523 183.682 6.07401 183.711 6.01092C184.175 5.00024 184.713 4.0597 185.44 3.21193C185.48 3.1654 185.52 3.11887 185.561 3.07093C186.898 1.54865 188.689 0.732016 190.705 0.550422C191.051 0.528782 191.396 0.526396 191.742 0.526052Z" fill="#4A4700"/>
<path id="Vector_8" d="M164.882 3.42888C165.135 3.65257 165.377 3.88575 165.618 4.12172C165.676 4.17743 165.735 4.23309 165.793 4.2887C166.144 4.62951 166.462 4.98494 166.761 5.37229C166.788 5.40704 166.815 5.44179 166.842 5.4776C170.241 9.89972 171.09 15.9578 170.413 21.7619C169.886 25.6846 168.193 29.9562 165.047 32.5437C164.995 32.5894 164.944 32.6352 164.89 32.6823C162.405 34.8678 159.013 35.8961 155.726 35.7101C152.734 35.5066 149.972 34.5174 147.769 32.4498C147.629 32.3171 147.629 32.3171 147.489 32.2202C147.458 32.1956 147.426 32.1711 147.394 32.1458C147.394 32.1083 147.394 32.0708 147.394 32.0321C147.356 32.0321 147.319 32.0321 147.28 32.0321C147.203 31.9586 147.203 31.9586 147.112 31.8509C147.076 31.809 147.041 31.7671 147.004 31.7239C146.963 31.6756 146.922 31.6272 146.88 31.5774C146.833 31.5243 146.786 31.4713 146.738 31.4166C146.09 30.6788 145.533 29.8738 145.052 29.0194C145.028 28.977 145.004 28.9345 144.979 28.8908C143.49 26.2387 142.738 23.1726 142.538 20.1517C142.533 20.0774 142.528 20.0031 142.523 19.9266C142.485 19.3145 142.469 18.7043 142.47 18.0911C142.47 18.0446 142.47 17.9981 142.47 17.9502C142.481 13.4928 143.483 8.64505 146.423 5.14492C146.45 5.11159 146.478 5.07827 146.507 5.04394C147.071 4.36692 147.668 3.75651 148.365 3.21222C148.419 3.16796 148.474 3.1237 148.53 3.0781C152.626 -0.191018 158.981 -0.306733 164.882 3.42888ZM153.393 8.49871C151.808 10.6732 151.67 13.6579 151.669 16.2455C151.669 16.3426 151.669 16.4398 151.669 16.5369C151.668 16.7394 151.668 16.942 151.668 17.1445C151.668 17.3476 151.668 17.5508 151.667 17.7539C151.663 18.7927 151.668 19.8288 151.73 20.8661C151.733 20.9043 151.735 20.9426 151.737 20.982C151.88 23.2971 152.168 25.9548 153.678 27.8257C153.708 27.8657 153.739 27.9057 153.77 27.9469C154.303 28.6136 155.12 29.0268 155.963 29.1331C157.055 29.1984 158.126 29.021 158.982 28.2856C160.693 26.7331 161.106 24.3322 161.316 22.1413C161.323 22.0706 161.329 21.9999 161.336 21.9271C161.437 20.8022 161.46 19.6747 161.459 18.5459C161.459 18.4527 161.459 18.4527 161.458 18.3577C161.591 13.0079 161.591 13.0079 159.563 8.27133C159.506 8.20693 159.506 8.20693 159.447 8.14121C158.693 7.33376 157.729 7.09174 156.658 7.00811C155.354 6.96328 154.236 7.52799 153.393 8.49871Z" fill="#4A4700"/>
<path id="Vector_9" d="M30.1072 38.5106C30.4306 38.6298 30.723 38.7943 31.0212 38.9654C31.1135 39.0174 31.2057 39.0694 31.298 39.1214C31.4993 39.2355 31.7002 39.3504 31.9009 39.4656C32.8378 40.0008 33.7971 40.4958 34.7572 40.9882C34.998 41.1118 35.2383 41.2363 35.478 41.3621C36.2309 41.7573 36.991 42.132 37.7625 42.4897C37.8004 42.5072 37.8382 42.5248 37.8772 42.5429C42.2885 44.5873 46.8276 46.3762 52.959 48.2309C53.0084 48.2453 53.0578 48.2598 53.1087 48.2746C57.9838 49.6954 62.9592 50.7385 67.984 51.471C68.0648 51.4828 68.0648 51.4828 68.1472 51.4949C70.6211 51.8548 73.11 52.1051 75.6037 52.2811C75.6649 52.2854 75.726 52.2898 75.7891 52.2943C76.2531 52.3271 76.7174 52.3549 77.1819 52.3805C77.2251 52.383 77.2684 52.3854 77.3129 52.3879C79.0401 52.4845 80.7638 52.5124 82.4935 52.509C82.831 52.5084 83.1684 52.5088 83.5059 52.5094C85.1906 52.5122 86.8687 52.4779 88.5507 52.3805C88.5895 52.3783 88.6284 52.3761 88.6684 52.3738C89.1377 52.3471 89.6066 52.3159 90.0753 52.2811C90.1392 52.2764 90.203 52.2717 90.2688 52.2669C95.9876 51.8438 101.675 50.9449 107.243 49.5777C107.407 49.5376 107.57 49.4977 107.734 49.4578C112.476 48.2988 117.134 46.7826 121.659 44.957C121.995 44.8217 122.331 44.6878 122.668 44.5538C122.728 44.5298 122.788 44.5058 122.85 44.481C122.905 44.4591 122.96 44.4372 123.017 44.4146C123.065 44.3954 123.113 44.3763 123.162 44.3565C123.624 44.1777 124.226 44.1719 124.692 44.3478C125.125 44.5536 125.416 44.8418 125.585 45.2963C125.685 45.7774 125.627 46.1628 125.388 46.5909C125.072 47.0473 124.592 47.3482 124.142 47.6625C124.104 47.6896 124.065 47.7168 124.025 47.7447C123.761 47.9286 123.495 48.1087 123.228 48.2878C123.194 48.3107 123.16 48.3337 123.125 48.3573C120.069 50.4187 116.803 52.1735 113.419 53.6384C113.225 53.7224 113.031 53.8073 112.838 53.8927C108.082 55.995 103.008 57.49 86.8832 60.0935C86.8348 60.097 86.7863 60.1005 86.7364 60.104C85.5748 60.1861 84.4171 60.2341 83.2526 60.2345C83.1304 60.2347 83.0082 60.2349 82.886 60.2351C82.6312 60.2355 82.3763 60.2356 82.1214 60.2355C81.8653 60.2355 81.6093 60.2359 81.3533 60.2367C79.7305 60.2416 78.1159 60.2159 76.4963 60.1113C76.4284 60.107 76.3604 60.1027 76.2903 60.0983C75.904 60.0733 75.5182 60.0441 75.1324 60.0118C75.0756 60.0072 75.0189 60.0025 74.9605 59.9977C69.4101 59.5374 63.9009 58.4962 56.0523 56.0606C55.9293 56.0184 55.8062 55.9764 55.6831 55.9344C54.4758 55.5223 53.2842 55.0762 52.102 54.5974C52.0649 54.5824 52.0277 54.5674 51.9894 54.5519C50.3054 53.8694 48.6495 53.1216 47.0175 52.3237C46.9574 52.2943 46.9574 52.2943 46.896 52.2644C45.8054 51.7319 44.7241 51.1932 43.6737 50.5852C43.49 50.4804 43.3039 50.3804 43.1175 50.2805C42.4227 49.9076 41.751 49.4983 41.0782 49.0879C40.8251 48.9337 40.5705 48.7821 40.3153 48.6314C39.8391 48.35 39.3745 48.0567 38.9165 47.7469C38.7693 47.648 38.6213 47.5504 38.4733 47.4529C37.7333 46.9652 37.0005 46.469 36.2772 45.9572C36.2344 45.9269 36.1916 45.8967 36.1475 45.8656C35.4813 45.3943 34.8296 44.9051 34.1814 44.4097C34.0679 44.323 33.9542 44.2367 33.8402 44.1506C33.3847 43.805 32.9398 43.4472 32.4966 43.0861C32.4048 43.0114 32.3128 42.9369 32.2207 42.8625C31.9098 42.6108 31.6027 42.355 31.2975 42.0965C31.1029 41.9321 30.906 41.7713 30.707 41.6121C30.4329 41.3903 30.1731 41.1558 29.9152 40.9157C29.746 40.758 29.5745 40.6055 29.3966 40.4575C29.1162 40.2164 28.8196 39.9129 28.7816 39.5309C28.7755 39.2414 28.7968 39.0423 28.9646 38.7948C29.3249 38.4713 29.6302 38.4458 30.1072 38.5106Z" fill="#4A4700"/>
<path id="Vector_10" d="M164.882 3.42888C165.135 3.65257 165.377 3.88575 165.618 4.12172C165.676 4.17743 165.735 4.23309 165.793 4.2887C166.144 4.62951 166.462 4.98494 166.761 5.37229C166.788 5.40704 166.815 5.44179 166.842 5.4776C170.241 9.89972 171.09 15.9578 170.413 21.7619C169.886 25.6846 168.193 29.9562 165.047 32.5437C164.995 32.5894 164.944 32.6352 164.89 32.6823C162.405 34.8678 159.013 35.8961 155.726 35.7101C152.734 35.5066 149.972 34.5174 147.769 32.4498C147.629 32.3171 147.629 32.3171 147.489 32.2202C147.458 32.1956 147.426 32.1711 147.394 32.1458C147.394 32.1083 147.394 32.0708 147.394 32.0321C147.356 32.0321 147.319 32.0321 147.28 32.0321C147.203 31.9586 147.203 31.9586 147.112 31.8509C147.076 31.809 147.041 31.7671 147.004 31.7239C146.963 31.6756 146.922 31.6272 146.88 31.5774C146.833 31.5243 146.786 31.4713 146.738 31.4166C146.09 30.6788 145.533 29.8738 145.052 29.0194C145.028 28.977 145.004 28.9345 144.979 28.8908C143.49 26.2387 142.738 23.1726 142.538 20.1517C142.533 20.0774 142.528 20.0031 142.523 19.9266C142.485 19.3145 142.469 18.7043 142.47 18.0911C142.47 18.0446 142.47 17.9981 142.47 17.9502C142.481 13.4928 143.483 8.64505 146.423 5.14492C146.45 5.11159 146.478 5.07827 146.507 5.04394C147.071 4.36692 147.668 3.75651 148.365 3.21222C148.419 3.16796 148.474 3.1237 148.53 3.0781C152.626 -0.191018 158.981 -0.306733 164.882 3.42888ZM153.393 8.49871C151.808 10.6732 151.67 13.6579 151.669 16.2455C151.669 16.3426 151.669 16.4398 151.669 16.5369C151.668 16.7394 151.668 16.942 151.668 17.1445C151.668 17.3476 151.668 17.5508 151.667 17.7539C151.663 18.7927 151.668 19.8288 151.73 20.8661C151.733 20.9043 151.735 20.9426 151.737 20.982C151.88 23.2971 152.168 25.9548 153.678 27.8257C153.708 27.8657 153.739 27.9057 153.77 27.9469C154.303 28.6136 155.12 29.0268 155.963 29.1331C157.055 29.1984 158.126 29.021 158.982 28.2856C160.693 26.7331 161.106 24.3322 161.316 22.1413C161.323 22.0706 161.329 21.9999 161.336 21.9271C161.437 20.8022 161.46 19.6747 161.459 18.5459C161.459 18.4527 161.459 18.4527 161.458 18.3577C161.591 13.0079 161.591 13.0079 159.563 8.27133C159.506 8.20693 159.506 8.20693 159.447 8.14121C158.693 7.33376 157.729 7.09174 156.658 7.00811C155.354 6.96328 154.236 7.52799 153.393 8.49871Z" fill="#4A4700"/>
<path id="Vector_11" d="M117.54 1.09362C117.613 1.09325 117.686 1.09288 117.761 1.09251C117.841 1.09267 117.922 1.09285 118.003 1.09304C118.088 1.09283 118.174 1.09257 118.26 1.09226C118.496 1.09156 118.732 1.09158 118.968 1.09171C119.223 1.09174 119.477 1.09111 119.732 1.09057C120.231 1.08963 120.729 1.08931 121.228 1.08925C121.633 1.0892 122.039 1.08896 122.444 1.0886C123.593 1.0876 124.743 1.08708 125.892 1.08716C125.985 1.08717 125.985 1.08717 126.08 1.08717C126.142 1.08718 126.204 1.08718 126.268 1.08719C127.273 1.08724 128.279 1.08615 129.284 1.08454C130.316 1.08291 131.349 1.08213 132.381 1.08222C132.961 1.08226 133.54 1.08195 134.12 1.08073C134.613 1.07969 135.107 1.07944 135.6 1.08022C135.852 1.08059 136.104 1.08059 136.355 1.07961C136.586 1.07871 136.816 1.07888 137.047 1.07987C137.13 1.08004 137.214 1.07983 137.297 1.0792C137.783 1.07574 138.249 1.07649 138.63 1.41587C138.902 1.71917 138.957 2.0052 138.957 2.39979C138.957 2.44309 138.958 2.48639 138.958 2.531C138.96 2.67382 138.96 2.81662 138.961 2.95945C138.961 3.05936 138.962 3.15928 138.962 3.25919C138.963 3.46872 138.964 3.67825 138.964 3.88778C138.964 4.15466 138.966 4.42149 138.969 4.68835C138.971 4.89489 138.971 5.10142 138.971 5.30797C138.971 5.40625 138.972 5.50453 138.973 5.6028C138.98 6.1935 138.944 6.65804 138.654 7.19055C138.634 7.22876 138.614 7.26698 138.594 7.30636C138.293 7.85979 137.916 8.36979 137.547 8.8796C137.384 9.10761 137.223 9.33755 137.061 9.56734C136.994 9.66363 136.926 9.75993 136.858 9.85622C136.825 9.90419 136.791 9.95215 136.756 10.0016C136.589 10.2394 136.422 10.4771 136.254 10.7149C136.188 10.8096 136.121 10.9044 136.054 10.9991C128.456 21.7994 128.456 21.7994 128.356 21.9418C128.29 22.0357 128.224 22.1297 128.158 22.2237C127.983 22.4726 127.808 22.7215 127.632 22.9703C127.596 23.0223 127.559 23.0743 127.521 23.1278C127.451 23.2278 127.381 23.3277 127.31 23.4276C127.279 23.4725 127.247 23.5174 127.215 23.5636C127.173 23.6229 127.173 23.6229 127.13 23.6833C127.067 23.7747 127.004 23.867 126.942 23.9595C127.007 23.9586 127.071 23.9577 127.138 23.9568C129.622 23.9256 132.014 24.111 134.426 24.7553C134.48 24.7695 134.533 24.7837 134.589 24.7983C138.424 25.8329 138.424 25.8329 139.261 27.1144C139.507 27.5704 139.585 28.0145 139.585 28.5251C139.585 28.576 139.585 28.6269 139.586 28.6794C139.587 28.8463 139.587 29.0133 139.587 29.1803C139.587 29.2971 139.588 29.4139 139.588 29.5306C139.589 29.7749 139.589 30.0191 139.589 30.2634C139.589 30.5757 139.591 30.888 139.593 31.2003C139.594 31.4413 139.594 31.6823 139.594 31.9233C139.594 32.0385 139.595 32.1536 139.596 32.2687C139.597 32.4299 139.596 32.591 139.596 32.7522C139.596 32.7993 139.597 32.8464 139.598 32.8949C139.593 33.3004 139.466 33.5879 139.204 33.8966C138.926 34.1268 138.702 34.2179 138.345 34.2124C138.054 34.1712 137.808 34.0238 137.551 33.8895C134.99 32.6128 132.187 31.8932 129.342 31.6335C129.283 31.628 129.223 31.6226 129.162 31.617C128.56 31.5678 127.957 31.5628 127.353 31.5624C127.298 31.5624 127.243 31.5623 127.186 31.5623C123.583 31.5662 120.022 32.3759 116.82 34.0316C116.461 34.2133 116.218 34.3085 115.82 34.1808C115.465 33.9877 115.292 33.8089 115.116 33.4525C115.045 33.1954 115.051 32.9368 115.051 32.6722C115.051 32.598 115.051 32.598 115.05 32.5224C115.05 32.3591 115.05 32.1958 115.05 32.0325C115.05 31.9181 115.049 31.8037 115.049 31.6893C115.049 31.4491 115.049 31.2089 115.049 30.9687C115.049 30.6636 115.048 30.3585 115.047 30.0535C115.046 29.8168 115.046 29.5801 115.046 29.3434C115.046 29.2312 115.046 29.1189 115.046 29.0066C115.044 28.4616 115.05 27.9219 115.109 27.3796C115.114 27.3396 115.118 27.2995 115.122 27.2582C115.241 26.2912 115.675 25.4718 116.256 24.7043C116.442 24.4577 116.617 24.204 116.791 23.9489C117.046 23.5763 117.302 23.2055 117.562 22.8369C117.853 22.4254 118.142 22.0133 118.43 21.6005C118.715 21.1926 119 20.7851 119.287 20.3783C119.726 19.7542 120.164 19.1283 120.601 18.5025C121.071 17.8301 121.541 17.158 122.013 16.4875C122.42 15.9096 122.824 15.3301 123.229 14.7508C123.698 14.0785 124.168 13.4066 124.641 12.7361C124.894 12.3756 125.147 12.0143 125.4 11.6528C125.685 11.2449 125.97 10.8374 126.257 10.4307C126.552 10.0106 126.848 9.59023 127.142 9.16943C127.18 9.11575 127.218 9.06208 127.256 9.00678C127.292 8.9553 127.328 8.90383 127.365 8.85079C127.397 8.80593 127.428 8.76107 127.461 8.71486C127.558 8.57358 127.654 8.43151 127.749 8.289C127.795 8.21994 127.795 8.21994 127.842 8.14949C127.866 8.11442 127.889 8.07934 127.913 8.04321C127.832 8.043 127.832 8.043 127.749 8.0428C126.427 8.03945 125.105 8.03514 123.784 8.02981C123.145 8.02725 122.505 8.02501 121.866 8.02351C121.309 8.02221 120.752 8.02031 120.195 8.0177C119.9 8.01634 119.605 8.01528 119.31 8.01492C119.032 8.01458 118.754 8.01344 118.476 8.0117C118.374 8.0112 118.273 8.01099 118.171 8.01109C117.018 8.01187 117.018 8.01187 116.58 7.68438C116.273 7.37109 116.234 7.0915 116.235 6.67376C116.235 6.62288 116.234 6.572 116.234 6.51957C116.232 6.35198 116.232 6.18441 116.232 6.01681C116.232 5.89986 116.231 5.78291 116.231 5.66597C116.23 5.42103 116.23 5.1761 116.23 4.93117C116.231 4.61794 116.229 4.30477 116.227 3.99155C116.225 3.75006 116.225 3.50858 116.225 3.26708C116.225 3.15164 116.225 3.03619 116.224 2.92075C116.222 2.75898 116.223 2.59732 116.224 2.43555C116.223 2.38829 116.222 2.34103 116.222 2.29234C116.228 1.87776 116.388 1.60108 116.684 1.3143C116.96 1.14012 117.216 1.09403 117.54 1.09362Z" fill="#4A4700"/>
<path id="Vector_12" d="M134.424 37.7163C134.977 38.266 134.96 39.1301 134.96 39.8571C134.96 39.8974 134.96 39.9378 134.96 39.9794C134.96 40.0212 134.96 40.063 134.96 40.1062C134.947 43.2697 133.965 46.534 132.596 49.3693C132.57 49.4234 132.544 49.4775 132.517 49.5333C132.146 50.3016 131.747 51.0405 131.282 51.7567C131.224 51.8471 131.224 51.8471 131.166 51.9393C130.671 52.6963 130.112 53.411 129.511 54.0873C129.471 54.1331 129.471 54.1331 129.429 54.1799C127.873 55.9223 127.873 55.9223 127.001 55.9774C126.785 55.9742 126.654 55.9323 126.483 55.7927C126.327 55.5925 126.351 55.3528 126.369 55.1105C126.418 54.9207 126.418 54.9207 126.494 54.7162C126.509 54.6761 126.524 54.636 126.539 54.5947C126.689 54.194 126.849 53.7972 127.007 53.3997C128.164 50.4938 129.304 47.5234 129.797 44.4239C129.806 44.3643 129.806 44.3643 129.816 44.3035C129.935 43.473 129.992 42.474 129.545 41.7329C128.999 41.0185 127.929 40.8764 127.094 40.745C126.872 40.7151 126.65 40.6917 126.426 40.6722C126.359 40.6658 126.292 40.6595 126.222 40.6531C123.106 40.4175 119.901 40.7858 116.814 41.1742C115.525 41.3316 115.525 41.3316 115.172 41.0701C115.015 40.8991 114.987 40.7653 114.997 40.5407C115.068 40.1005 115.35 39.8462 115.689 39.5779C118.315 37.7044 121.6 36.8589 124.769 36.5225C124.831 36.5159 124.893 36.5092 124.956 36.5024C127.731 36.216 132.067 35.9679 134.424 37.7163Z" fill="#4A4700"/>
</g>
</svg>
