<svg width="100" height="115" viewBox="0 0 100 115" fill="none" xmlns="http://www.w3.org/2000/svg">
<g id="Modo_de_aislamiento" clip-path="url(#clip0_61_1568)">
<path id="Vector" d="M51.5173 27.6416C51.7231 27.4318 51.8967 27.1412 52.1428 27.0403C52.389 26.9394 52.4697 26.7619 52.5464 26.5157C53.18 24.1509 53.0064 21.7296 53.071 19.3204C53.071 18.9733 53.1638 18.6303 53.2082 18.2833C53.2402 18.1575 53.2402 18.0257 53.2082 17.8999C52.8329 17.0726 53.0872 16.2413 53.1638 15.406C53.2324 14.6675 53.2768 13.9249 53.2849 13.1864C53.2849 11.1687 53.2405 9.18319 53.3293 7.18561C53.406 5.38577 53.6239 3.58997 53.8135 1.7982C53.8885 1.36875 54.0033 0.947228 54.1566 0.539121C54.1808 0.466482 54.2655 0.409984 54.4148 0.232422C54.4148 0.527014 54.4512 0.688435 54.4471 0.849855C54.4229 2.31475 54.3866 3.78367 54.3745 5.24856C54.4049 5.49552 54.4645 5.738 54.552 5.97092C54.5809 6.05668 54.5945 6.14681 54.5924 6.23727C54.5193 6.55336 54.4694 6.87436 54.4431 7.19772C54.4431 8.81192 54.5238 10.4261 54.5319 12.0403C54.5319 13.2792 54.4794 14.5181 54.4834 15.753C54.4834 16.5319 54.5763 17.3067 54.5924 18.0855C54.5924 18.3115 54.4431 18.5415 54.435 18.7716C54.3906 20.1598 54.3987 21.548 54.326 22.9322C54.2594 23.6017 54.157 24.2671 54.0194 24.9257C53.979 25.1759 53.9346 25.4261 53.9144 25.5593C54.3906 25.8781 54.8951 26.0678 55.1695 26.435C55.8353 27.3309 56.6061 28.2389 56.937 29.2599C57.1193 29.8336 57.1194 30.4497 56.9373 31.0234C56.7552 31.5972 56.3998 32.1005 55.9201 32.4641C56.5214 32.6093 57.0984 32.7425 57.6715 32.8676C58.9427 33.1824 60.2098 33.5093 61.481 33.8119C61.7487 33.8476 62.0181 33.8692 62.2881 33.8765C63.8502 34.1544 65.3633 34.6587 66.7796 35.3737C68.1356 35.9871 69.435 36.7215 70.7344 37.452C71.9182 38.0893 73.066 38.7912 74.1727 39.5545C75.4358 40.4625 76.594 41.5036 77.8047 42.4883C78.077 42.6903 78.3345 42.9115 78.5754 43.1501C80.1897 44.9056 81.8765 46.5924 83.3575 48.4487C85.1141 50.6765 86.6039 53.1022 87.7966 55.6763C88.3177 56.7438 88.7798 57.8391 89.1808 58.9572C89.9974 61.1913 90.6409 63.4848 91.1057 65.8176C91.53 67.9174 91.7356 70.0555 91.7191 72.1977C91.6747 73.8119 91.8079 75.4867 91.6102 77.1009C91.3059 79.6587 90.8626 82.1981 90.2825 84.7078C89.8789 86.435 89.1162 88.0815 88.4584 89.7361C87.5414 91.9876 86.4003 94.1413 85.0524 96.1646C84.3503 97.2421 83.527 98.2389 82.7562 99.272C82.498 99.619 82.2599 99.9903 81.9693 100.309C80.8515 101.52 79.7135 102.73 78.5956 103.941C78.3535 104.207 78.2244 104.579 77.9661 104.817C77.0783 105.624 76.1985 106.463 75.2381 107.182C73.9548 108.146 72.615 109.042 71.2591 109.906C70.5611 110.333 69.828 110.7 69.0678 111.003C68.0912 111.407 67.0944 111.77 66.0896 112.097C64.9596 112.46 63.8176 112.787 62.6715 113.077C61.0573 113.481 59.4431 113.913 57.8087 114.224C56.4286 114.482 55.0242 114.627 53.6239 114.748C52.5504 114.857 51.4729 114.902 50.3955 114.938C49.6933 114.962 48.9911 114.938 48.297 114.902C47.4092 114.845 46.5214 114.764 45.6416 114.651C44.3745 114.482 43.1033 114.337 41.8563 114.066C40.4611 113.76 39.0831 113.38 37.728 112.928C36.1227 112.421 34.5477 111.823 33.0105 111.136C31.4662 110.386 29.9617 109.556 28.5028 108.651C27.4011 107.989 26.3357 107.262 25.2946 106.504C23.547 105.214 21.9255 103.761 20.452 102.165C18.7759 100.472 17.2489 98.637 15.8878 96.6812C13.9196 93.7115 12.3472 90.4976 11.2106 87.1211C10.7304 85.6723 10.2865 84.2034 9.92331 82.7223C9.64292 81.5246 9.43005 80.312 9.2857 79.0904C9.12428 77.8232 9.05567 76.548 8.94268 75.2728C8.94268 75.1517 8.84179 75.0307 8.84583 74.9096C8.84583 74.619 8.89022 74.3285 8.91847 74.0379C8.94268 73.816 9.08392 73.5254 8.98707 73.3963C8.87554 73.2011 8.80385 72.9858 8.77614 72.7627C8.74843 72.5397 8.76526 72.3133 8.82565 72.0968C8.96689 70.8014 9.10006 69.506 9.31798 68.2227C9.61661 66.4834 9.99595 64.7562 10.3309 63.025C10.7628 61.048 11.3943 59.1199 12.2155 57.2704C13.1836 54.9307 14.4013 52.7023 15.8474 50.6239C16.937 49.0541 18.1477 47.569 19.3664 46.1001C20.1229 45.1325 20.9628 44.2332 21.8765 43.4124C23.4907 42.0403 25.1897 40.7611 26.8886 39.4899C27.6715 38.9047 28.5674 38.477 29.3624 37.9039C31.2694 36.596 33.3469 35.5559 35.5367 34.8127C37.502 34.0944 39.5722 33.6021 41.59 33.0896C42.7361 32.7909 43.9104 32.5932 45.1372 32.339C45.0143 32.0532 44.9158 31.7575 44.8426 31.4552C44.7779 31.1614 44.7779 30.8571 44.8426 30.5633C45.0179 29.877 45.2725 29.2134 45.6013 28.5859C45.9524 28.0008 46.2913 27.3753 46.9491 27C47.2249 26.8371 47.4672 26.6235 47.6634 26.3704C48.3172 25.5633 49.2211 25.1598 50.1291 24.7562C50.4494 24.6639 50.7805 24.6151 51.1138 24.611C51.2106 24.1469 51.4245 23.6666 51.1945 23.1219C51.1299 22.9725 51.251 22.7506 51.2591 22.5609C51.3739 21.2769 51.4224 19.9879 51.4043 18.6989C51.3559 17.8676 51.4851 17.0484 51.4043 16.2171C51.366 15.3644 51.3741 14.5103 51.4286 13.6586C51.4562 13.3575 51.502 13.0583 51.5658 12.7627C51.5658 12.6376 51.6465 12.4802 51.598 12.3874C51.2429 11.6892 51.481 10.975 51.5093 10.2647C51.5096 9.99516 51.4962 9.72577 51.4689 9.45761C51.4629 9.3797 51.4629 9.30145 51.4689 9.22355C51.5565 8.82436 51.6185 8.41998 51.6545 8.01289C51.6794 6.50967 51.8401 5.01177 52.1348 3.53751C52.2475 2.75042 52.2975 1.9556 52.2841 1.16059C52.2841 0.861962 52.3527 0.660186 52.6876 0.757039C52.6876 1.34622 52.6876 1.9112 52.6876 2.4681C52.6553 3.32362 52.5948 4.17512 52.5504 5.02661C52.506 5.8781 52.4495 6.64082 52.4253 7.47617C52.3333 8.77479 52.3077 10.0773 52.3487 11.3785C52.4294 12.5609 52.0581 13.6909 52.1227 14.8571C52.1671 15.6279 52.1993 16.3987 52.1832 17.1695C52.1348 19.2962 52.0783 21.4229 51.9855 23.5456C51.9411 24.5545 51.8079 25.5633 51.6949 26.5601C51.6707 26.7821 51.5496 26.9879 51.5052 27.2058C51.4911 27.3588 51.4911 27.5128 51.5052 27.6658C51.1017 27.5286 51.1985 27.1977 51.1945 26.9072C51.1945 26.435 51.1945 25.9629 51.1945 25.4302L49.8345 25.9023C50.2704 25.9629 50.8111 25.9023 50.8918 26.0758C51.142 26.6005 50.8555 27.0807 50.3511 27.4802L51.0855 27.6376C50.5367 28.2631 50.0221 28.9178 49.544 29.5989C49.1561 30.3001 48.8071 31.0222 48.4988 31.7619L48.6198 31.9637L53.4625 32.2018C53.2741 31.7249 53.1296 31.2319 53.0307 30.7288C52.9939 30.441 52.8789 30.1688 52.6982 29.9418C52.5174 29.7148 52.2779 29.5417 52.0056 29.4415C51.8342 29.3547 51.656 29.2819 51.4729 29.2235C51.3975 29.2022 51.3271 29.1661 51.2658 29.1173C51.2045 29.0684 51.1536 29.0078 51.116 28.9391C51.0785 28.8703 51.055 28.7947 51.047 28.7168C51.039 28.6388 51.0466 28.56 51.0694 28.4851C51.1511 28.2759 51.2655 28.0812 51.4084 27.908L51.477 27.9645L51.5173 27.6416ZM54.883 78.1178C54.4503 78.5287 54.0459 78.9682 53.6723 79.4334C53.2826 80.0179 52.9243 80.6228 52.5989 81.2453C51.3438 83.4165 50.7869 85.8136 50.3026 88.2026L53.9346 88.6868L53.975 88.8604C53.8176 88.9532 53.6683 89.1186 53.5028 89.1307C52.7926 89.1913 52.0783 89.1953 51.368 89.2357C51.0348 89.2536 50.7031 89.2941 50.3753 89.3567C50.3205 89.3809 50.2718 89.417 50.2327 89.4624C50.1936 89.5078 50.1651 89.5613 50.1493 89.619C49.8349 90.8568 49.8059 92.1497 50.0646 93.4003C50.1816 93.8967 50.2905 94.3931 50.3753 94.8975C50.4802 95.5069 50.5448 96.1081 50.6416 96.7377C50.9201 98.4931 51.2147 100.245 51.481 101.984C51.5254 102.278 51.6182 102.412 51.929 102.387C52.5464 102.387 53.1638 102.387 53.7974 102.387C53.9023 101.08 53.9951 99.7361 54.1283 98.3963C54.1283 98.1541 54.3543 97.9322 54.3947 97.6901C54.435 97.4479 54.4148 97.0968 54.3059 97.0444C53.9853 96.8742 53.6221 96.8013 53.2607 96.8345C52.5867 96.9677 52.0702 96.5238 51.4528 96.5036C51.5462 96.472 51.645 96.4597 51.7433 96.4673L52.954 96.544C53.0896 96.5357 53.2256 96.5479 53.3575 96.5803C53.4984 96.6507 53.6541 96.6862 53.8115 96.6837C53.9689 96.6812 54.1234 96.6408 54.262 96.566C54.4005 96.4912 54.519 96.3841 54.6074 96.2539C54.6958 96.1236 54.7516 95.974 54.77 95.8176C54.8305 95.3454 54.8466 94.8692 54.8789 94.3931C55 92.6134 54.8386 90.8216 55.1332 89.046C55.1965 88.4212 55.2114 87.7925 55.1775 87.1654C55.1775 85.9023 55.1775 84.6392 55.1977 83.3761C55.1977 83.1178 55.3228 82.8596 55.3228 82.6013C55.3228 82.343 55.1977 82.0161 55.1897 81.7175C55.1897 80.9104 55.1897 80.1033 55.1897 79.2962L54.2857 79.1267C54.6893 78.8563 55.2905 78.7796 54.883 78.0936C54.9758 78.0048 55.1412 77.9161 55.1453 77.8232C55.1691 77.4872 55.1501 77.1496 55.0888 76.8184C54.9354 76.1324 54.7377 75.4584 55.1089 74.7805C55.1372 74.7361 55.1089 74.6594 55.1089 74.5989C54.9677 73.7918 54.7619 72.9846 54.7054 72.1776C54.6287 71.2897 54.7054 70.3858 54.6691 69.4899C54.6691 68.8644 54.6085 68.2389 54.5601 67.6134C54.4471 66.1122 54.3261 64.615 54.205 63.1097C53.7449 63.0734 53.1719 63.0008 52.5908 62.9846C51.7837 62.9604 50.9766 62.9846 50.1695 62.9846C49.548 62.9846 49.2978 63.3398 49.4552 63.9532C49.5357 64.264 49.5883 64.5814 49.6126 64.9015C49.6933 66.0194 49.6892 67.1533 49.8507 68.2631C50.1508 70.8918 51.2526 73.3645 53.0064 75.3454C53.7127 76.1767 54.5803 76.9677 54.883 78.1178ZM16.4407 94.9177C17.5262 94.4455 18.5674 93.9774 19.6166 93.5335C19.8951 93.4165 19.8507 93.2671 19.778 93.0412C19.1929 91.201 18.6198 89.3567 18.0428 87.5165L17.4818 85.7248C16.5496 85.9588 15.7143 86.4915 14.657 86.2131C14.8789 86.0638 15.0282 85.9548 15.1897 85.866C15.8031 85.5149 16.4286 85.18 17.0339 84.8127C17.1015 84.7689 17.1574 84.7092 17.1968 84.6389C17.2361 84.5686 17.2578 84.4897 17.2599 84.4092C17.1549 83.7595 17.0056 83.1178 16.8563 82.4721C16.6747 81.5399 16.4528 80.6118 16.3277 79.6755C16.1582 78.5335 16.0452 77.3834 15.9241 76.201C14.6005 76.4875 13.4019 77.1776 12.0218 77.1211C12.2129 76.9042 12.4428 76.7249 12.6997 76.5924C13.5593 76.1889 14.4269 75.753 15.3026 75.3817C15.5314 75.3117 15.7271 75.161 15.8532 74.9577C15.9794 74.7543 16.0275 74.5121 15.9887 74.276C15.857 72.4603 15.9301 70.6355 16.2066 68.8361C16.3115 68.1743 16.3559 67.5004 16.4245 66.8466C15.9523 66.9022 15.4845 66.9898 15.0242 67.1089C13.5876 67.5771 12.163 68.0775 10.7425 68.5859C10.666 68.6227 10.5981 68.6751 10.5432 68.7397C10.4883 68.8044 10.4476 68.8798 10.4237 68.9612C10.3622 69.2592 10.323 69.5614 10.3067 69.8652C10.1695 70.8013 10.0859 71.7444 10.0565 72.6901C10.0565 73.9007 10.2461 75.1114 10.3511 76.322C10.4479 77.4277 10.4721 78.5416 10.6578 79.6311C10.922 81.3152 11.2804 82.9831 11.7312 84.6271C12.2562 86.4128 12.8896 88.1648 13.6279 89.8733C14.3498 91.6662 15.2949 93.3611 16.4407 94.9177ZM56.251 78.4851C56.4568 78.5173 56.5698 78.5456 56.6788 78.5496C57.4132 78.594 58.1477 78.6223 58.8821 78.6747C59.2332 78.6949 59.5803 78.7877 59.9273 78.7877C60.9645 78.7877 62.0056 78.7554 63.0428 78.7554C63.3051 78.7554 63.4463 78.6949 63.4463 78.4124C63.4463 77.8273 63.4463 77.2421 63.4746 76.657C63.527 75.6884 63.6239 74.7199 63.6763 73.7474C63.6911 73.2885 63.6817 72.8291 63.6481 72.3713C63.6239 71.9112 63.4947 71.5359 62.9419 71.4431C62.2316 71.322 61.5335 71.1525 60.8313 70.9992C60.6003 70.937 60.3658 70.8885 60.1291 70.8539C59.6368 70.8095 59.1323 70.8297 58.6481 70.753C58.3627 70.654 58.0914 70.5183 57.841 70.3495C59.891 69.7805 61.7474 70.523 63.6441 70.5553C63.5774 70.4466 63.5284 70.3281 63.4988 70.2042C63.3858 69.0877 63.2822 67.9685 63.188 66.8466C63.1598 66.4956 63.188 66.1364 63.1679 65.7893C63.0993 65.1558 63.0024 64.5222 62.8854 63.8967C62.8573 63.8336 62.8144 63.7783 62.7602 63.7354C62.7061 63.6926 62.6425 63.6634 62.5746 63.6505C61.7917 63.59 61.0048 63.5738 60.2219 63.5133C59.439 63.4528 58.5714 63.3357 57.7441 63.2591C57.4818 63.2308 57.2155 63.2591 56.937 63.2349C56.4568 63.2349 55.9806 63.2349 55.4479 63.2349C55.4479 63.6061 55.4479 63.8805 55.4479 64.1509C55.5246 64.9257 55.6457 65.7005 55.6981 66.4754C55.8031 68.0573 55.8717 69.6432 55.9564 71.2252C56.0573 73.0411 56.1622 74.8571 56.251 76.6731C56.2752 77.2623 56.251 77.8596 56.251 78.4851ZM61.7433 89.5101C61.778 89.4485 61.8064 89.3836 61.8281 89.3164C62.0137 88.3909 62.198 87.4668 62.3809 86.544C62.4052 86.4189 62.4415 86.3018 62.4657 86.1767C62.5262 85.87 62.6069 85.5593 62.6473 85.2486C62.7482 84.4415 62.8168 83.6344 62.9378 82.8273C63.071 81.9516 63.2486 81.088 63.406 80.2163C63.4584 79.9298 63.3333 79.8127 63.0508 79.7805C62.4253 79.7119 61.8079 79.6069 61.1824 79.5545C59.7982 79.4294 58.41 79.3285 57.0218 79.2195C56.4689 79.1792 56.3357 79.3043 56.3559 79.8652C56.3882 80.7449 56.4366 81.6207 56.4649 82.5004C56.4649 83.0976 56.4649 83.711 56.4649 84.2962C56.5254 85.2768 56.3236 86.2494 56.4286 87.23C56.4568 87.4762 56.2671 87.7425 56.251 88.0048C56.1461 90.2378 56.0492 92.4695 55.9604 94.6997C55.9362 95.3858 55.9604 96.0759 55.9604 96.7175C56.3035 96.9152 56.6505 97.1211 57.0137 97.3228C57.1348 97.3874 57.3608 97.452 57.4173 97.3914C57.8208 96.9879 58.2244 97.2542 58.6279 97.3188C59.1122 97.3955 59.5924 97.5125 60.0968 97.6174C60.3107 96.8103 60.5407 96.0032 60.7143 95.2244C61.0532 93.6868 61.3599 92.1453 61.6586 90.5997C61.6828 90.4826 61.5698 90.2324 61.477 90.1961C60.4641 89.9499 59.4592 89.7401 58.4221 89.5101C58.1033 89.4374 57.7926 89.3325 57.389 89.2155C58.9548 89.1792 60.3793 88.9491 61.7433 89.5101ZM50.3511 102.456C50.366 102.236 50.366 102.015 50.3511 101.794C50.2784 101.391 50.1574 100.963 50.0968 100.539C49.9556 99.5303 49.9919 98.4608 49.661 97.5206C49.3503 96.6489 49.3825 95.7853 49.2171 94.9298C49.0516 94.0742 48.9225 93.134 48.3172 92.3672C48.0102 91.9196 47.7785 91.4248 47.6311 90.9023C47.4877 90.4044 47.3705 89.8992 47.28 89.389C46.7191 89.4616 46.1622 89.5424 45.5972 89.6029C44.618 89.7051 43.6346 89.7993 42.6473 89.8854L38.7651 90.2163C38.7409 90.2163 38.7207 90.2526 38.6804 90.2849C38.8256 90.7974 38.9467 91.3301 39.1243 91.8426C39.3906 92.6174 39.6973 93.3761 39.9798 94.1429C40.1614 94.6231 40.3188 95.1114 40.5206 95.5835C40.5566 95.6411 40.6065 95.6887 40.6657 95.7218C40.725 95.755 40.7916 95.7727 40.8595 95.7732C42.4213 95.6521 44.0032 95.9387 45.5488 95.5351C45.6134 95.5351 45.6941 95.5633 45.7667 95.5835C45.9575 95.6398 46.1516 95.6843 46.3478 95.7167C46.9411 95.7813 47.5585 95.8257 48.1315 95.8781V96.0597C48.0097 96.1489 47.8731 96.2159 47.728 96.2575C47.0177 96.3341 46.3075 96.3906 45.5972 96.4512L42.4294 96.7215L41.029 96.8345C41.6827 98.8302 42.6191 100.722 43.8095 102.452C43.8828 102.529 43.9719 102.59 44.0708 102.63C44.1698 102.669 44.2761 102.687 44.3826 102.682C45.1897 102.634 45.9604 102.492 46.7514 102.468C47.958 102.428 49.1323 102.456 50.3672 102.456H50.3511ZM81.3721 93.9814C82.1469 94.4132 82.8854 94.8127 83.6158 95.2324C83.6648 95.2667 83.7208 95.2897 83.7797 95.2997C83.8387 95.3096 83.8991 95.3064 83.9566 95.2902C84.0142 95.274 84.0674 95.2452 84.1124 95.2059C84.1575 95.1666 84.1932 95.1178 84.2171 95.063C85.0242 93.6102 85.8918 92.1937 86.5698 90.6884C87.0944 89.5262 87.7805 88.4407 88.0387 87.1412C88.2445 86.088 88.7651 85.0993 89.1041 84.0702C89.2373 83.6667 89.2292 83.2389 89.3341 82.8353C90 80.3212 90.1856 77.7345 90.5085 75.1679C90.5245 74.9907 90.5245 74.8124 90.5085 74.6352C90.4641 73.7918 90.4116 72.9524 90.3713 72.1089C90.3713 72.004 90.4479 71.8991 90.4641 71.7901C90.4869 71.6488 90.4937 71.5053 90.4842 71.3624C90.452 71.0678 90.3874 70.7732 90.3632 70.4746C90.3228 70.0226 90.3632 69.5666 90.2704 69.1267C90.2486 69.0207 90.2032 68.9211 90.1375 68.8351C90.0718 68.7492 89.9875 68.6792 89.891 68.6303C89.1364 68.3963 88.3575 68.2268 87.5908 68.025C87.2801 67.9403 86.9693 67.8434 86.6788 67.7546C86.6788 68.6909 86.6788 69.5545 86.6788 70.414C86.6915 70.5256 86.7117 70.6361 86.7393 70.7449C86.8094 71.092 86.8499 71.4443 86.8604 71.7982C86.8119 73.1138 86.7231 74.4294 86.6545 75.7449C86.6223 76.3099 86.7554 76.4633 87.2841 76.5884C87.8127 76.7135 88.184 77.121 88.636 77.573H86.6021C86.5575 77.6727 86.5236 77.7769 86.5012 77.8838C86.2631 79.4415 86.025 81.0032 85.8152 82.569C85.8129 82.6623 85.8322 82.7548 85.8713 82.8394C85.9105 82.9241 85.9686 82.9986 86.0411 83.0573C86.6303 83.5012 87.2518 83.9007 87.8531 84.3244C88.1477 84.5343 88.4221 84.7643 88.7167 84.9903C87.3971 85.3172 86.4165 84.5868 85.3874 83.9976C85.2421 84.4415 85.1251 84.7764 85.0202 85.1114C84.5884 86.5077 84.2131 87.9362 83.7046 89.2881C83.2163 90.5391 82.5464 91.7094 81.9532 92.9201C81.7595 93.3035 81.5456 93.6788 81.3882 93.9734L81.3721 93.9814ZM12.7118 59.1106L12.8652 59.2155C14.9959 58.6021 17.1267 58.0048 19.2494 57.3632C19.4476 57.2898 19.6221 57.1639 19.7543 56.999C19.8865 56.8341 19.9714 56.6364 20 56.4269C20.0696 56.1328 20.184 55.8511 20.339 55.5916C20.7102 54.9661 21.1461 54.3809 21.5012 53.7433C21.9491 53.0089 22.3608 52.2502 22.8087 51.5157C23.2566 50.7813 23.7772 49.9742 24.3139 49.1227C22.7361 49.1549 21.2913 49.6554 19.7942 49.5585C20.044 49.2763 20.3544 49.0542 20.7022 48.9088C22.0581 48.5738 23.4302 48.3075 24.7942 48.0048C24.9478 47.9751 25.0886 47.899 25.1977 47.7869C25.6618 47.2542 26.0855 46.6852 26.5658 46.1727C27.3043 45.3656 28.0347 44.5585 28.8297 43.82C29.2752 43.3476 29.7454 42.8991 30.2381 42.4762C30.3224 42.3955 30.3982 42.3062 30.4641 42.2098C30.0288 42.1523 29.5878 42.1523 29.1525 42.2098C27.7613 42.5799 26.3202 42.727 24.883 42.6457C24.7328 42.6288 24.5811 42.6614 24.4512 42.7385C23.7059 43.36 22.9688 43.9949 22.2397 44.6432C22.042 44.8208 21.9209 45.0831 21.7353 45.2809C20.9282 46.1243 20.121 46.9193 19.3664 47.799C18.6549 48.6313 18.0073 49.5163 17.4294 50.4463C16.2322 52.3914 15.078 54.3608 13.9669 56.3543C13.4705 57.2421 13.1235 58.1945 12.7118 59.1106ZM41.4972 78.3801C42.3205 78.5401 43.0866 78.9161 43.7167 79.4697C43.7292 79.4793 43.7427 79.4874 43.757 79.4939C44.3261 79.954 45.0121 80.3252 45.4399 80.8943C46.2735 81.9938 47.0133 83.1615 47.6513 84.385C48.1134 85.2329 48.4196 86.1569 48.5553 87.113C48.6144 87.3374 48.7054 87.5521 48.8256 87.7506C49.1242 86.9247 49.3603 86.0776 49.5319 85.2163C49.8182 83.5871 50.3747 82.0172 51.1784 80.5714C51.5819 79.8773 51.9855 79.1872 52.4616 78.5537C52.7154 78.2837 53.003 78.0477 53.3172 77.8515C53.2365 77.7667 53.1759 77.6941 53.1114 77.6295C52.3462 76.9412 51.6239 76.2067 50.9483 75.4302C50.1064 74.3262 49.4831 73.0715 49.1122 71.7336C48.8176 70.7167 48.5109 69.7159 48.3051 68.6626C48.2042 68.1582 48.0508 67.5972 48.414 67.0767C48.4784 66.8966 48.4784 66.6998 48.414 66.5198C48.3325 66.246 48.2368 65.9766 48.1275 65.7127C47.9177 66.3583 47.6917 66.9879 47.498 67.6255C47.1711 68.7272 46.9169 69.8531 46.5335 70.9306C46.1744 71.8955 45.7593 72.8387 45.2905 73.7554C44.6633 75.1727 43.7717 76.4574 42.6634 77.5407C42.3365 77.7829 41.9693 78.0169 41.4972 78.3801ZM43.757 69.9056C43.7489 70.0891 43.6716 70.2628 43.5405 70.3916C43.4095 70.5204 43.2345 70.5947 43.0508 70.5997C42.3688 70.6562 41.6828 70.7086 41.0008 70.7449C40.4923 70.7692 40.23 71.1001 40.3914 71.5763C40.4992 71.804 40.5284 72.0611 40.4744 72.3072C40.4203 72.5534 40.2861 72.7746 40.0928 72.9362C39.9516 73.0613 39.6892 73.2994 39.661 73.2712C39.4589 73.1286 39.2964 72.937 39.1888 72.7143C39.0194 72.2825 38.9306 71.8184 38.7853 71.3785C38.7644 71.305 38.7289 71.2365 38.6811 71.1769C38.6333 71.1173 38.5741 71.0678 38.5068 71.0315C37.9136 70.8378 37.2034 71.5399 37.2962 72.1453C37.3453 72.5479 37.3372 72.9555 37.272 73.3559C37.1469 74.2316 36.9088 75.0952 36.8402 75.9709C36.7635 76.9959 36.816 78.0331 36.8079 79.0662V80.1235L40.7546 79.4132C40.2018 79.1671 39.9112 78.6061 40.113 78.3035C40.3172 77.9773 40.5642 77.6801 40.8474 77.4197C41.3252 77.0759 41.782 76.704 42.2155 76.3059C42.7181 75.7056 43.1677 75.0629 43.5593 74.385C44.7014 72.5125 45.2219 70.3737 46.0775 68.3761C46.101 68.2822 46.1159 68.1862 46.1219 68.0896C46.3478 67.0847 46.5819 66.0718 46.7958 65.075C46.933 64.4213 47.0379 63.7635 47.163 63.0573C46.774 62.9575 46.3791 62.882 45.9806 62.8313C45.5327 62.799 45.0605 62.6053 44.6328 62.9524C44.5682 63.0048 44.4148 62.9282 44.3059 62.9524C43.9911 62.9968 43.5876 62.9524 43.3777 63.134C42.8702 63.5308 42.437 64.0145 42.0984 64.5625C41.5598 65.5101 41.1138 66.5075 40.7667 67.5407C40.5906 68.2903 40.4879 69.0553 40.46 69.8248C41.6021 70.1558 42.6513 69.845 43.757 69.9015V69.9056ZM27.4092 81.5036L35.6295 80.1921C35.6779 79.5101 35.8595 78.816 35.7506 78.1743C35.4641 76.5198 36.0694 74.9459 36.0008 73.3075C36.0008 73.3075 36.0008 73.2752 36.0008 73.2591C36.0815 72.6981 36.1824 72.1332 36.2308 71.5682C36.2165 71.4967 36.183 71.4304 36.1339 71.3764C36.0849 71.3224 36.0222 71.2827 35.9524 71.2615C35.5661 71.2527 35.1799 71.2784 34.7982 71.3382C33.4503 71.5601 32.1065 71.8022 30.7627 72.0202C30.5609 72.0565 30.3591 71.9717 30.1372 72.0202C29.7579 72.0888 29.3906 72.2098 29.0153 72.3067L26.6909 72.8717C26.5617 75.8499 26.9612 78.703 27.4092 81.5036ZM29.322 106.044C31.0573 104.764 33.2324 104.7 35.1412 103.897C35.0081 103.683 34.8708 103.469 34.7377 103.251C33.8458 101.818 32.9136 100.426 32.0904 98.9411C31.8281 98.473 31.6344 98.4084 31.1784 98.5375C29.7175 98.9693 28.2486 99.3446 26.7796 99.7724L24.7336 100.358C25.0081 100.826 25.2583 101.233 25.4883 101.653C26.2221 103.109 27.1978 104.43 28.3737 105.559C28.894 105.986 29.3614 106.474 29.7659 107.012C30.4358 108.025 31.4043 108.489 32.506 108.804C33.1921 109.002 33.8821 109.207 34.5641 109.425C35.3269 109.676 36.0734 109.97 36.8402 110.204C37.0482 110.253 37.2666 110.227 37.4576 110.132C37.9742 109.857 38.4705 109.538 39.0113 109.215C38.6319 108.731 38.2566 108.275 37.9015 107.803C37.2841 106.976 36.6909 106.144 36.0694 105.313C35.9934 105.174 35.871 105.066 35.7235 105.008C35.5761 104.949 35.4129 104.945 35.2623 104.994C34.691 105.162 34.1084 105.289 33.5189 105.374C32.4415 105.527 31.36 105.624 30.2905 105.777C29.9614 105.841 29.6377 105.931 29.322 106.044ZM25.456 73.1582C24.9838 73.3035 24.4673 73.4689 23.9467 73.6223C21.8684 74.2397 19.7901 74.8612 17.7078 75.4665C17.6435 75.4719 17.5811 75.4909 17.5247 75.5224C17.4684 75.554 17.4195 75.5972 17.3813 75.6492C17.343 75.7012 17.3164 75.7607 17.3031 75.8239C17.2898 75.8871 17.2902 75.9523 17.3043 76.0153C17.385 76.9072 17.4173 77.8071 17.5545 78.6909C17.8006 80.3051 18.0993 81.887 18.3979 83.4851C18.5149 84.1065 18.7005 84.163 19.2897 83.9774C21.0492 83.4286 22.8208 82.8999 24.5884 82.3632C25.1332 82.2018 25.6901 82.0767 26.138 81.9596C25.9201 78.9895 25.6901 76.1001 25.456 73.1582ZM31.0008 55.8055C30.7062 55.8378 30.5165 55.8418 30.3349 55.8821C29.7054 56.0194 29.0799 56.1646 28.4503 56.3099C25.9887 56.8628 23.5311 57.4358 21.0654 57.9645C20.818 58.0153 20.5879 58.1288 20.3971 58.2942C20.2063 58.4596 20.0612 58.6712 19.9758 58.9088C19.2252 60.4826 18.9104 62.1816 18.4221 63.8281C18.301 64.2316 18.2082 64.6352 18.0791 65.1598C18.4382 65.1194 18.6925 65.1114 18.9346 65.0629C20.0161 64.845 21.0855 64.5908 22.163 64.3971C23.9386 64.0783 25.7223 63.8039 27.498 63.4891C27.5858 63.4639 27.6672 63.4203 27.7368 63.3612C27.8064 63.302 27.8625 63.2287 27.9015 63.1461C28.2042 62.4035 28.4665 61.6408 28.753 60.8902C28.9588 60.3535 29.1566 59.8168 29.4068 59.276C29.9112 58.1582 30.4358 57.0363 31.0008 55.8014V55.8055ZM58.8176 40.5876C58.7566 40.4594 58.6851 40.3366 58.6037 40.2203C57.8369 39.4616 57.0823 38.6909 56.2954 37.9524C55.6215 37.3269 54.9475 36.6691 53.9064 36.7417C53.8997 36.7723 53.8997 36.8039 53.9064 36.8345C53.9064 36.8951 53.9992 36.9596 53.9871 37.004C53.8297 37.6941 54.1485 38.255 54.4713 38.816C54.6206 39.0783 54.8022 39.3285 54.9354 39.5989C55.573 40.9064 56.1985 42.2219 56.8281 43.5294C56.8765 43.6303 56.937 43.7272 56.9895 43.8281C57.4778 44.7845 57.9822 45.7328 58.4423 46.7014C58.7369 47.3228 58.9467 47.9887 59.2211 48.6182C59.552 49.3809 59.9273 50.1235 60.2623 50.8862C60.5972 51.6489 60.9362 52.5004 61.2873 53.3075C61.3208 53.3653 61.3662 53.4153 61.4204 53.4543C61.4747 53.4932 61.5366 53.5202 61.6021 53.5335C62.9298 53.7595 64.2615 53.9653 65.5892 54.1872C66.2671 54.3002 66.4931 54.0662 66.3075 53.4124C66.2984 53.3482 66.2764 53.2864 66.2429 53.2308C65.8172 52.6113 65.5574 51.893 65.4883 51.1445C65.3773 50.8302 65.2209 50.5338 65.0242 50.2647C64.9026 50.1079 64.8109 49.9301 64.7538 49.7401C64.7345 49.4453 64.6166 49.1655 64.4189 48.9459C64.2212 48.7263 63.9554 48.5796 63.6642 48.5294C63.41 48.4608 63.1598 48.3801 62.9056 48.3075V48.2026L63.8983 48.0734C63.5714 47.4479 63.297 46.8951 62.9943 46.3503C62.6917 45.8055 62.389 45.3374 62.0985 44.8208C61.9235 44.4511 61.7281 44.0914 61.5133 43.7433C61.1148 43.1793 60.6822 42.6403 60.2179 42.1291C60.0068 41.904 59.7393 41.7396 59.4431 41.6529C58.7732 41.4834 58.0831 41.4027 57.4051 41.2494C57.0944 41.1808 56.8442 41.0153 56.9088 40.6077L58.8176 40.5876ZM27.3406 64.5182C24.2574 64.8127 21.2066 65.5997 18.1396 66.3139C18.0288 66.3562 17.9295 66.4239 17.8496 66.5115C17.7697 66.5991 17.7115 66.7042 17.6796 66.8184C17.5222 67.912 17.4213 69.0137 17.3002 70.1154C17.3002 70.1961 17.3002 70.2768 17.3002 70.3575C17.2074 71.6933 17.1146 73.0331 17.0137 74.4738C18.2728 74.0985 19.3785 73.7635 20.4842 73.4407C22.0581 72.9847 23.6319 72.5286 25.2098 72.0888C25.3262 72.0734 25.4332 72.017 25.5117 71.9297C25.5901 71.8424 25.6348 71.7299 25.6376 71.6126C25.7212 70.8111 25.856 70.0159 26.0411 69.2316C26.4245 67.6255 26.8967 66.0759 27.3446 64.502L27.3406 64.5182ZM35.7829 47.8515C35.5206 47.8515 35.3793 47.8515 35.2421 47.8515L32.0662 48.0815L31.7796 48.1138L28.64 48.5173C27.8733 48.6182 27.1065 48.711 26.3438 48.8281C26.2044 48.8599 26.0778 48.933 25.9806 49.0379C25.6858 49.3341 25.4159 49.6539 25.1735 49.9943C24.205 51.4713 23.2445 52.9604 22.3123 54.4616C21.8563 55.1921 21.4729 55.9709 21.0129 56.8063C21.2239 56.793 21.434 56.7687 21.6424 56.7336C23.3696 56.3543 25.1089 56.0073 26.82 55.5714C28.3454 55.1679 29.8426 54.7118 31.4286 54.619C31.5415 54.619 31.6747 54.4495 31.7474 54.3285C32.6473 52.7708 33.5189 51.1969 34.4431 49.6553C34.8063 49.0823 35.2865 48.5375 35.7829 47.8515ZM36.7635 81.1929C36.8523 81.5278 36.9572 81.8386 37.0097 82.1574C37.3083 83.929 37.5827 85.7046 37.8894 87.4721C37.9856 87.9136 38.1207 88.3458 38.293 88.7635C38.3279 88.8271 38.3777 88.8812 38.4381 88.9213C38.4986 88.9614 38.5679 88.9862 38.64 88.9935C39.0072 88.9935 39.3704 88.9007 39.7377 88.8725C41.1501 88.7675 42.5625 88.6788 43.9709 88.5617C45.0403 88.473 46.1057 88.3519 47.2841 88.2308C46.9921 87.1903 46.6473 86.1653 46.251 85.1598C45.4776 83.4527 44.3495 81.9298 42.9419 80.6925C42.7802 80.5364 42.5827 80.4223 42.3667 80.3604C42.1507 80.2985 41.9228 80.2906 41.703 80.3374C40.5851 80.5432 39.4552 80.6965 38.3333 80.8862C37.8248 80.983 37.3446 81.092 36.7635 81.209V81.1929ZM36.4649 70.1275C36.4649 70.1275 36.4931 70.0307 36.5173 69.9419C36.7393 69.0056 36.9935 68.0775 37.1711 67.117C37.2861 66.671 37.2861 66.2031 37.1711 65.757C36.89 65.1077 36.558 64.4816 36.1784 63.8846C36.1009 63.7448 35.9808 63.6335 35.8356 63.5667C35.6905 63.4999 35.5278 63.4812 35.3713 63.5133C35.0524 63.5577 34.7336 63.59 34.4108 63.6102C33.7369 63.6465 33.0549 63.6102 32.393 63.7191C31.4366 63.8483 30.4963 64.0984 29.5399 64.2114C28.9386 64.2841 28.5714 64.3809 28.406 65.1033C28.0549 66.6328 27.5303 68.1259 27.1146 69.6473C26.937 70.301 26.8523 70.983 26.711 71.6893C29.9153 70.9117 33.1772 70.3948 36.4649 70.1437V70.1275ZM29.6852 90.3737C29.9036 90.3006 30.1259 90.24 30.3511 90.1921C32.4818 89.8908 34.6153 89.5948 36.7514 89.3043C36.9895 89.272 37.1025 89.1832 37.05 88.929C36.8482 87.9846 36.6465 87.0403 36.4528 86.1041C36.2873 85.297 36.1178 84.4657 35.9766 83.6384C35.8676 83.0089 35.795 82.3713 35.7223 81.7377C35.6658 81.2655 35.3995 81.1929 35.004 81.3341C34.7536 81.4392 34.4943 81.5216 34.2292 81.5803C33.4746 81.6852 32.7118 81.7135 31.9612 81.8386C30.9322 82.0121 29.9193 82.2784 28.8862 82.452C27.5424 82.6739 27.498 82.7385 27.8692 84.0662C28.2042 85.2768 28.4867 86.4875 28.8256 87.6981C29.0799 88.6102 29.3906 89.4778 29.6852 90.3898V90.3737ZM26.4326 83.0533C26.1879 83.0783 25.9452 83.1201 25.7062 83.1784C23.5311 83.8281 21.368 84.4899 19.1929 85.1315C19.1411 85.1394 19.0918 85.1588 19.0486 85.1883C19.0055 85.2179 18.9695 85.2568 18.9435 85.3022C18.9175 85.3477 18.9021 85.3984 18.8985 85.4506C18.8948 85.5028 18.9031 85.5551 18.9225 85.6037C19.0476 86.1525 19.1727 86.7054 19.3261 87.2462C19.5238 87.9241 19.7538 88.59 19.9717 89.2639C20.3511 90.4382 20.7304 91.6086 21.1138 92.7869C22.1953 92.4721 23.1315 91.9516 24.2332 91.9475C24.3594 91.9207 24.4789 91.8685 24.5843 91.7942C24.8151 91.6577 25.06 91.5468 25.3148 91.4633C26.2187 91.2534 27.1307 91.0839 28.0387 90.8983C28.2001 90.862 28.3616 90.8135 28.4625 90.7893C27.7805 88.1784 27.1106 85.636 26.4326 83.0533ZM80.2179 93.7554C80.3188 93.5859 80.4156 93.4407 80.4964 93.2873C80.8434 92.5972 81.1501 91.887 81.5335 91.2211C82.8208 88.9653 83.4382 86.4915 83.9548 83.9814C84.0234 83.6424 83.8943 83.4851 83.5754 83.3842C82.8248 83.1461 82.0904 82.8676 81.3438 82.6215C80.5972 82.3753 79.8749 82.1614 79.1404 81.9314C78.8257 81.8305 78.6884 81.9314 78.6077 82.2663C78.406 83.0936 78.2042 83.9209 77.9217 84.728C77.4132 86.2696 76.8725 87.799 76.3398 89.3285C76.1017 90.0266 75.8474 90.7167 75.6093 91.4108C75.5044 91.7215 75.4277 92.0444 75.3188 92.4399C76.9997 92.6752 78.6452 93.117 80.2179 93.7554ZM64.7659 79.8491C64.6085 80.6965 64.439 81.4834 64.3139 82.2704C64.1001 83.6061 63.9104 84.9459 63.7167 86.2817C63.5633 87.2179 63.3777 88.1541 63.188 89.0823C63.1194 89.4213 63.2365 89.5424 63.5593 89.5948C64.6368 89.7724 65.7143 89.954 66.7877 90.1679C67.4253 90.297 68.0508 90.4907 68.6965 90.6602C68.7611 90.3696 68.7934 90.1477 68.8579 89.9378C69.2373 88.7299 69.6193 87.5192 70.004 86.3059C70.004 86.2453 70.004 86.1767 70.004 86.1122C70.0928 85.5432 70.1856 84.9701 70.2744 84.4011C70.3955 83.594 70.5044 82.7869 70.6255 81.9798C70.686 81.6085 70.7667 81.2373 70.8273 80.866C70.8368 80.7317 70.8368 80.5968 70.8273 80.4625C70.6784 80.5194 70.5221 80.5548 70.3632 80.5674C69.6005 80.4786 68.8378 80.3696 68.075 80.2728L64.7659 79.8491ZM76.5779 44.8975C76.7151 45.1598 76.8684 45.5633 76.929 45.5512C77.3325 45.4665 77.3325 45.8055 77.4939 45.9871C77.6553 46.1687 77.7845 46.4512 77.9419 46.6731C79.2128 48.3753 80.3335 50.1846 81.2914 52.0807C81.4363 52.2858 81.6344 52.4477 81.8644 52.5488C82.0686 52.6435 82.2806 52.7204 82.498 52.7788L85.1332 53.7231L85.1977 53.5738C81.4416 46.9167 75.8341 41.4929 69.0557 37.9604L68.5633 38.4972C68.8169 38.569 69.0639 38.6622 69.3018 38.7756C69.6408 38.9612 69.9273 39.2437 70.2744 39.4051C70.7344 39.6231 70.7909 39.9055 70.5488 40.3656C70.3995 40.2566 70.2502 40.1679 70.117 40.0589C69.2545 39.3116 68.3062 38.6695 67.2922 38.1461C67.1348 38.0694 66.8886 37.9282 66.8039 37.9846C66.3317 38.2389 65.9725 37.8676 65.565 37.8152C64.5601 37.682 63.5472 37.5448 62.5504 37.4116C62.3893 37.3976 62.2273 37.3976 62.0662 37.4116C62.6796 37.9524 63.3535 38.3156 63.9306 38.7998C64.8668 39.5787 65.7587 40.414 66.6263 41.2776C66.9726 41.616 67.4269 41.8217 67.9096 41.8587C68.6925 41.9435 69.5238 41.774 70.2018 42.339C70.2289 42.3576 70.2618 42.3662 70.2946 42.3632C70.9846 42.339 71.5819 42.6658 72.2155 42.8515C72.7562 43.0048 73.3131 43.1057 73.862 43.2308L73.9225 43.1097L71.4286 41.1485C71.2671 41.0194 71.025 40.9104 70.9725 40.7449C70.9601 40.5105 70.9944 40.2759 71.0734 40.0549C71.2187 40.1477 71.4124 40.2122 71.477 40.3454C71.5785 40.5602 71.6583 40.7846 71.7151 41.0153C71.7151 41.0516 71.7796 41.0718 71.8281 41.1081L72.046 40.7611C72.2881 40.9871 72.4859 41.1929 72.7038 41.3785C73.6118 42.1453 74.5117 42.9201 75.4399 43.6626C75.8071 43.9572 76.247 44.1671 76.6505 44.4294C76.7998 44.5302 76.929 44.6634 77.1509 44.8329L76.5779 44.8975ZM45.4237 61.9112V61.883C46.0048 61.883 46.5819 61.883 47.163 61.883C47.4657 61.883 47.5989 61.7457 47.6997 61.4512C47.8234 61.1859 47.9867 60.941 48.184 60.7248C48.301 60.5633 48.5149 60.4382 48.5593 60.2647C48.6683 59.8612 48.7006 59.4011 48.7732 58.9653C48.8579 58.4487 48.9629 57.9322 49.0436 57.4116C49.1969 56.431 49.2817 55.4342 49.4996 54.4697C49.6893 53.6223 49.3099 53.3559 48.6279 53.4164C47.046 53.5617 45.4654 53.7326 43.8862 53.929C43.7806 53.9542 43.6814 54.0014 43.5952 54.0675C43.509 54.1335 43.4377 54.2169 43.3858 54.3123C42.7724 55.4746 42.1778 56.6462 41.6021 57.8273C41.5161 57.9959 41.5001 58.1917 41.5577 58.3721C42.0944 59.4334 42.6553 60.4786 43.2123 61.5278C43.28 61.6674 43.3905 61.7817 43.5276 61.8543C43.6648 61.9268 43.8215 61.9538 43.975 61.9314C44.4592 61.891 44.9394 61.9112 45.4237 61.9112ZM67.6513 106.919C68.5674 107.387 68.8055 107.323 69.322 106.613C69.5824 106.266 69.8698 105.941 70.1816 105.64C71.4366 104.397 72.7401 103.219 73.9629 101.923C74.9072 100.935 75.795 99.8854 76.6424 98.816C77.6432 97.5569 78.5754 96.2494 79.5278 94.954C79.6344 94.7757 79.721 94.5863 79.7861 94.389C78.979 94.1429 78.2122 93.8926 77.4455 93.6909C76.6788 93.4891 76.0008 93.3922 75.2865 93.2066C74.9919 93.134 74.8466 93.2066 74.7256 93.4649C74.439 94.1428 74.1566 94.8329 73.8135 95.4826C73.071 96.9152 72.3123 98.3438 71.5133 99.7441C71.1098 100.442 70.6214 101.08 70.1775 101.762C70.1094 101.892 70.0501 102.027 70 102.165L71.1864 102.638L71.1138 102.803L70.347 102.496C70.2626 102.439 70.1658 102.402 70.0644 102.389C69.963 102.376 69.8601 102.388 69.7639 102.422C69.6678 102.457 69.5813 102.514 69.5115 102.589C69.4417 102.663 69.3906 102.753 69.3624 102.851C69.1445 103.255 68.9588 103.679 68.7046 104.062C68.5311 104.353 68.4261 104.607 68.7893 104.841L67.6513 106.919ZM78.0993 65.6441C78.1065 65.867 78.1267 66.0893 78.1598 66.3099C78.4826 67.7788 78.8176 69.2437 79.1404 70.7127C79.322 71.544 79.5198 72.3713 79.657 73.2106C79.673 73.3612 79.7376 73.5024 79.841 73.6131C79.9444 73.7237 80.0809 73.7978 80.23 73.824C81.1178 74.0944 82.0056 74.3446 82.8813 74.6311C83.5311 74.8491 84.1525 75.1275 84.7901 75.3777C84.9193 75.4261 85.0565 75.4625 85.2663 75.5351C85.3977 74.8598 85.4813 74.1761 85.5165 73.4891C85.4842 71.5924 85.3793 69.6957 85.3067 67.799C85.3139 67.7247 85.3058 67.6496 85.283 67.5785C85.2602 67.5073 85.2231 67.4416 85.174 67.3853C85.1248 67.329 85.0648 67.2833 84.9974 67.2511C84.93 67.2188 84.8567 67.2007 84.7821 67.1977C84.1202 67.0767 83.4705 66.8749 82.8208 66.6973C81.703 66.3947 80.5932 66.0597 79.4713 65.7813C79.0174 65.7057 78.5591 65.6599 78.0993 65.6441ZM45.8152 47.4318C45.4711 47.3873 45.1249 47.3617 44.778 47.3551C43.7907 47.3928 42.8033 47.4425 41.816 47.5044C40.6658 47.5811 39.5117 47.7506 38.3616 47.7425C38.0385 47.7293 37.7179 47.8037 37.4337 47.9578C37.1496 48.112 36.9124 48.3402 36.7474 48.6182C36.4407 49.0662 36.0896 49.4899 35.7788 49.9419C35.1937 50.7934 34.6005 51.6408 34.0516 52.5165C33.7328 53.025 33.4867 53.5859 33.1477 54.2397C34.1323 54.1025 34.9879 54.0016 35.8394 53.8604C36.5537 53.7433 37.2558 53.5738 37.9701 53.4568C38.1033 53.4326 38.2566 53.5012 38.3737 53.4568C38.8418 53.368 39.3987 53.5537 39.7014 52.9564C39.9046 52.6765 40.1434 52.4242 40.4116 52.2058L40.7102 53.3156C41.3115 53.2187 41.9209 53.138 42.5141 53.0129C42.6752 52.9518 42.8086 52.8342 42.8894 52.682C43.6198 51.3462 44.3301 49.9984 45.0565 48.6465C45.2623 48.255 45.5206 47.8878 45.799 47.4479L45.8152 47.4318ZM69.8144 90.9064C70.2583 90.975 70.5932 90.9992 70.916 91.0759C71.8846 91.3139 72.845 91.5803 73.8135 91.8103C73.8895 91.8164 73.9657 91.8042 74.0359 91.7747C74.1062 91.7452 74.1683 91.6993 74.2171 91.6408C74.4592 91.1202 74.6771 90.5795 74.8668 90.0266C75.3995 88.5093 75.9564 87 76.4165 85.4625C76.7716 84.2881 77.0016 83.0775 77.276 81.8789C77.3446 81.5763 77.1711 81.4431 76.8725 81.4068C76.1985 81.3139 75.5286 81.201 74.8547 81.1162C74.0987 81.0167 73.3441 80.9279 72.5908 80.8499C72.1872 80.8095 72.0016 80.9951 71.9814 81.4068C71.9668 81.9479 71.9142 82.4873 71.824 83.021C71.6344 84.0097 71.4205 84.9943 71.1622 85.975C70.9039 86.9556 70.678 87.9322 70.4076 88.9047C70.2542 89.5746 70.0323 90.2244 69.8144 90.9064ZM62.4697 62.3793C62.3446 61.7296 62.2357 61.1202 62.0985 60.5109C61.8886 59.5908 61.6707 58.6707 61.4286 57.7546C61.2147 56.9475 60.9725 56.1404 60.7223 55.3575C60.6699 55.1961 60.5246 54.954 60.3955 54.954C59.7094 54.8571 59.0113 54.841 58.3212 54.7562C57.5266 54.6771 56.737 54.5532 55.9564 54.385C54.6812 54.0823 54.3866 54.3608 54.6812 55.6481C54.7879 56.1811 54.862 56.7202 54.9031 57.2623C54.9637 57.8353 55.0081 58.4124 55.0363 58.9895C55.0363 59.3123 55.0363 59.6392 55.0363 59.962C55.0218 60.0378 55.015 60.1149 55.0161 60.1921C55.0847 60.6804 55.1695 61.1687 55.23 61.657C55.2986 62.2623 55.5771 62.4641 56.1219 62.234C56.1527 62.2216 56.1855 62.2148 56.2187 62.2139C57.2962 62.2139 58.3737 62.2139 59.4471 62.2462C59.6126 62.2462 59.778 62.3349 59.9435 62.3309C60.2058 62.3309 60.4681 62.2381 60.7304 62.2542C61.2308 62.2905 61.7272 62.3753 62.2276 62.4399C62.3099 62.4269 62.391 62.4066 62.4697 62.3793ZM39.1445 54.4657C38.523 54.5343 37.958 54.5706 37.4011 54.6554C36.1905 54.8369 34.9798 55.1719 33.7449 55.2001C33.3928 55.175 33.0423 55.2687 32.7497 55.4662C32.457 55.6637 32.2391 55.9537 32.1307 56.2897C32.1329 56.3045 32.1329 56.3194 32.1307 56.3341L28.8741 63.4286L34.7579 62.5851C34.6515 62.4492 34.5544 62.3063 34.4673 62.1574C34.3018 61.8063 34.3139 61.5278 34.7417 61.3503C36.3978 60.6051 37.6908 59.2337 38.3374 57.5367C38.7808 56.567 39.0538 55.5281 39.1445 54.4657ZM70.4318 64.3971C70.6174 65.4503 70.8031 66.4673 70.9766 67.4883C71.0855 68.1017 71.1743 68.7232 71.2792 69.3365C71.4084 70.0751 71.5738 70.8095 71.6828 71.552C71.689 71.6654 71.7223 71.7755 71.7798 71.8733C71.8374 71.9711 71.9175 72.0537 72.0135 72.1142C72.1096 72.1746 72.2187 72.2112 72.3318 72.2208C72.4448 72.2305 72.5586 72.2128 72.6634 72.1695C72.7607 72.1303 72.8653 72.1124 72.9701 72.117C73.4261 72.1776 73.8821 72.2583 74.3382 72.3148C74.5635 72.3187 74.7885 72.3349 75.0121 72.3632C75.9403 72.5932 76.8644 72.8515 77.7926 73.0896C77.9508 73.1218 78.1114 73.1407 78.2728 73.1461C78.188 72.452 78.1114 71.8224 78.0307 71.1929C78.0244 71.1615 78.0163 71.1305 78.0064 71.1001C77.7764 70.1396 77.5222 69.1792 77.3204 68.2106C77.1469 67.3793 77.0258 66.5399 76.9169 65.6965C76.9095 65.5509 76.8454 65.414 76.7383 65.3152C76.6311 65.2163 76.4895 65.1635 76.3438 65.1679C75.6618 65.0952 74.9798 65.0226 74.3018 64.9298C73.0185 64.7562 71.7514 64.5746 70.4318 64.3971ZM27.0137 47.5165C27.2357 47.5165 27.3487 47.5165 27.4576 47.5165C28.9386 47.3591 30.4156 47.1735 31.8967 47.0484C32.4455 47.004 33.0064 47.1372 33.5593 47.121C34.2627 47.0981 34.9645 47.0389 35.6618 46.9435C36.0283 46.9417 36.3868 46.8353 36.6949 46.6368C37.4051 45.9507 38.0307 45.1719 38.7127 44.4334C38.8402 44.3085 38.9749 44.1913 39.1162 44.0823C39.3758 43.8827 39.625 43.6699 39.8628 43.4447C40.1695 43.1178 40.4318 42.7546 40.7223 42.4156C40.916 42.1937 41.1259 41.9838 41.4164 41.6731C41.1138 41.6731 40.9443 41.6731 40.7748 41.6731C39.0395 41.7457 37.3083 41.8265 35.5771 41.8951C35.1735 41.9152 34.7336 41.8951 34.322 41.9233C33.6441 42.0081 32.9056 41.8547 32.3043 42.3269C31.6545 42.8515 31.0048 43.3842 30.3955 43.9411C29.4955 44.7885 28.6198 45.6683 27.7522 46.552C27.4867 46.8583 27.2401 47.1804 27.0137 47.5165ZM53.2082 37.9725H53.075C53.0075 38.1301 52.9548 38.2935 52.9177 38.4608C52.8005 38.8776 52.8407 39.3228 53.0307 39.7118C53.1921 39.9822 53.0629 40.414 53.1114 40.7651C53.2163 41.4915 53.3777 42.2098 53.4705 42.9362C53.5633 43.6626 53.6118 44.506 53.7127 45.2889C53.9104 46.9031 54.1606 48.481 54.3382 50.0791C54.431 50.8862 54.3947 51.7538 54.4673 52.5851C54.4927 52.6905 54.5424 52.7885 54.6125 52.8712C54.6826 52.9538 54.7711 53.019 54.8708 53.0613C55.3783 53.1943 55.8971 53.2794 56.4205 53.3156C56.9088 53.3478 57.3688 53.5375 57.9056 53.2631C58.2647 53.0775 58.8135 53.2631 59.2776 53.3075C59.5198 53.3277 59.7538 53.364 60.0847 53.4043C59.6529 52.3269 59.2776 51.3866 58.8943 50.4342C58.2082 48.82 57.7805 47.0847 56.8442 45.5674C56.7308 45.2877 56.6416 44.9988 56.5779 44.7038C56.3721 44.1913 56.142 43.6909 55.9201 43.1864C55.8586 43.0477 55.7885 42.9129 55.7102 42.7829C55.5256 42.5368 55.3545 42.2808 55.1977 42.0161C54.9758 41.5682 54.8265 41.088 54.6045 40.6481C54.1606 39.7401 53.6723 38.8604 53.2082 37.9725ZM81.9209 53.4447C82.5424 54.841 83.1558 56.2211 83.7732 57.5972C84.7014 59.6513 84.1243 59.6513 86.1945 61.1324C86.3115 61.2131 86.364 61.3866 86.5012 61.6085L85.2905 61.3018C85.343 61.7054 85.3632 61.9717 85.4237 62.2462C85.7304 63.6021 86.0694 64.954 86.3519 66.318C86.371 66.4565 86.4306 66.5864 86.5232 66.6912C86.6158 66.796 86.7373 66.8711 86.8725 66.9072C87.7845 67.2825 88.8095 67.339 89.6368 67.9403C89.7967 68.0101 89.9672 68.0524 90.1412 68.0654C89.5763 62.8918 87.7441 58.247 85.3672 53.6626C85.2395 53.8605 85.0458 54.0068 84.8205 54.0755C84.5952 54.1442 84.3528 54.1309 84.1364 54.0379C83.3858 53.8321 82.6594 53.6465 81.9209 53.4447ZM31.1138 97.2421C30.3793 95.4746 29.6489 93.707 28.8579 91.8103L21.3478 93.9249L24.3341 99.5746L31.1138 97.2421ZM68.0993 43.0089L68.0468 43.1017L68.4503 43.6344C69.4108 44.9419 70.3955 46.2373 71.3277 47.565C71.6652 48.0743 71.953 48.6148 72.1872 49.1792C72.2742 49.3768 72.409 49.5497 72.5795 49.6821C72.75 49.8146 72.9508 49.9025 73.1638 49.9378C74.1404 50.2001 75.1009 50.519 76.0775 50.7934C77.3123 51.1445 78.5553 51.4754 79.7942 51.8103C79.8797 51.8154 79.9654 51.8072 80.0484 51.7861C79.8022 51.3422 79.5763 50.9386 79.3543 50.5311C78.9911 49.8733 78.6521 49.1993 78.2566 48.5617C78.0064 48.1582 77.6553 47.8111 77.3688 47.4237C76.7474 46.5884 76.1582 45.7369 75.5206 44.9015C75.4177 44.7722 75.2764 44.6789 75.117 44.6352C74.3341 44.4374 73.5432 44.2599 72.7522 44.0823C72.1146 43.937 71.477 43.816 70.8434 43.6788C69.9273 43.4729 69.0072 43.247 68.0993 43.0089ZM10.5892 67.6981L10.7506 67.7909L12.3123 66.9838C13.5908 66.3455 14.9602 65.9085 16.3721 65.6884C16.4899 65.6785 16.6009 65.6288 16.6868 65.5473C16.7726 65.4659 16.8281 65.3577 16.8442 65.2405C17.4495 63.0048 18.0791 60.7772 18.6925 58.594C18.5553 58.6303 18.3252 58.703 18.0952 58.7474C17.389 58.8846 16.6747 58.9895 15.9766 59.1509C15.2784 59.3123 14.552 59.5545 13.8337 59.7159C13.6341 59.7542 13.4283 59.7459 13.2324 59.6917C12.8289 59.5867 12.5625 59.5948 12.4253 60.0952C11.9774 61.77 11.4487 63.4245 11.021 65.1033C10.8031 65.9427 10.7264 66.8184 10.5892 67.6981ZM84.9637 66.2736C84.9703 66.1728 84.9703 66.0717 84.9637 65.9709C84.5843 64.385 84.2171 62.7909 83.8135 61.209C83.7609 60.9654 83.6163 60.7515 83.41 60.6118C82.5504 60.2082 81.6666 59.8571 80.7869 59.5101C79.9798 59.1872 79.1727 58.8967 78.3656 58.5859C77.5585 58.2752 76.82 57.9968 75.9685 57.6699C76.021 57.912 76.0492 58.0734 76.0936 58.247C76.598 60.0387 77.1146 61.8305 77.6029 63.6303C77.6669 63.8777 77.8046 64.0997 77.9978 64.267C78.1909 64.4342 78.4304 64.5387 78.6844 64.5666C80.1614 64.9338 81.6263 65.3737 83.0993 65.7772L84.9637 66.2736ZM76.4487 64.1065C76.2308 63.2389 76.0452 62.4923 75.8474 61.7256C75.4493 60.3374 75.0323 58.9545 74.5964 57.5771C74.557 57.4825 74.4977 57.3975 74.4224 57.3278C74.3472 57.2582 74.2579 57.2056 74.1606 57.1735C73.3091 56.9556 72.4495 56.77 71.59 56.6005C70.7304 56.431 69.9758 56.2615 69.1404 56.1122C68.8539 56.0557 68.5553 56.0516 68.1679 56.0153C68.3991 56.4298 68.5845 56.8682 68.7207 57.3228C69.0032 58.8805 69.5924 60.3616 69.9072 61.9112C70.1574 63.1219 70.2018 63.0976 71.4528 63.2631C72.3285 63.3801 73.188 63.5617 74.0597 63.711L76.4487 64.1065ZM39.2292 95.7167C39.0476 95.067 38.9185 94.4859 38.7248 93.929C38.3656 92.8999 37.9499 91.891 37.5948 90.862C37.4818 90.5391 37.3406 90.414 37.0097 90.4584C35.8636 90.6239 34.7175 90.753 33.5754 90.9427C32.4334 91.1324 31.3115 91.3826 30.1574 91.6126C30.6577 93.4918 31.4328 95.2868 32.4576 96.9395L39.2292 95.7167ZM65.4237 99.5504C66.4528 96.8709 67.4415 94.2558 68.4705 91.6005C66.6685 91.0367 64.8084 90.6793 62.9257 90.5351C62.7482 91.4108 62.5787 92.3067 62.3769 93.1905C62.1509 94.1711 61.8846 95.1477 61.6465 96.1283C61.5214 96.6449 61.3922 97.1614 61.3196 97.682C61.3273 97.7691 61.3559 97.8531 61.403 97.9269C61.4501 98.0007 61.5142 98.062 61.59 98.1057C62.8571 98.6021 64.1364 99.0702 65.4237 99.5504ZM64.7861 71.7901V72.3551C64.7861 73.5294 64.7861 74.7078 64.7861 75.8862C64.7861 76.2131 64.661 76.5399 64.665 76.8668C64.665 77.343 64.774 77.8152 64.7901 78.2914C64.8144 78.9411 64.7901 78.9451 65.456 78.9572C66.2631 78.9572 67.042 78.933 67.8248 79.0097C68.6077 79.0863 69.3826 79.3083 70.1695 79.4132C70.3955 79.4415 70.8394 79.6069 70.8878 79.1146C70.9201 78.7346 70.9201 78.3525 70.8878 77.9725C70.8474 77.4479 70.7425 76.9273 70.7143 76.4027C70.6618 75.4463 70.6255 74.4859 70.6255 73.5254C70.6255 73.1017 70.5367 72.8596 70.0565 72.8434C69.7362 72.8049 69.4193 72.7429 69.1081 72.6578L64.7861 71.7901ZM77.7603 80.4302C77.7652 79.9315 77.8165 79.4343 77.9136 78.9451C78.2785 77.5268 78.4281 76.0617 78.3575 74.5989C78.3575 74.3365 78.2365 74.2518 77.9863 74.1953C77.0298 74.0177 76.0815 73.7918 75.1291 73.6223C74.2655 73.4568 73.3979 73.3236 72.5343 73.1663C71.8294 73.0371 71.5833 73.3236 71.7958 74.0258C71.8733 74.2669 71.9234 74.516 71.9451 74.7683C71.9855 75.4019 71.9895 76.0355 72.0218 76.6691C72.0541 77.4358 72.0742 78.2106 72.1549 78.9734C72.1872 79.2518 72.0298 79.6876 72.5585 79.7522C73.983 79.9217 75.4076 80.1114 76.8361 80.293L77.7603 80.4302ZM61.6868 54.4132L61.5819 54.5383C61.8281 55.2607 62.1267 55.9669 62.3123 56.7014C62.7159 58.3156 63.0952 59.9742 63.4625 61.6166C63.4847 61.8591 63.5922 62.0858 63.7658 62.2565C63.9395 62.4272 64.168 62.5307 64.4108 62.5488C65.3632 62.6295 66.3115 62.7708 67.2639 62.8717C67.7966 62.9282 68.3293 62.9524 68.9185 62.9968C68.7611 62.4197 68.6239 61.9435 68.5149 61.4633C68.293 60.5593 68.0871 59.6513 67.8692 58.7433C67.8014 58.3162 67.6906 57.8971 67.5383 57.4923C67.3329 57.1026 67.1847 56.6854 67.0985 56.2534C67.05 55.9669 66.9612 55.5714 66.4608 55.5351C65.4277 55.4584 64.4955 54.8652 63.4342 54.8934C63.3715 54.8805 63.3105 54.8602 63.2526 54.8329L61.6868 54.4132ZM70.4479 71.8144C70.3188 71.2453 70.2058 70.8337 70.1372 70.414C69.9395 69.1509 69.7619 67.8838 69.5642 66.6247C69.4713 66.0194 69.3785 65.414 69.2373 64.8208C69.213 64.7232 69.1675 64.632 69.104 64.5539C69.0405 64.4758 68.9607 64.4126 68.87 64.3688C68.3964 64.2278 67.9118 64.1266 67.4213 64.0662C66.9532 64.0056 66.477 64.0137 66.0089 63.9653C65.347 63.9007 64.6892 63.8119 63.9669 63.7232C64.1323 64.9338 64.3018 66.0637 64.4189 67.1776C64.5077 68.0654 64.552 68.9612 64.5763 69.8491C64.572 70.0482 64.6321 70.2433 64.7477 70.4055C64.8633 70.5677 65.0283 70.6881 65.2179 70.749C66.06 70.9292 66.9061 71.1041 67.7562 71.2736C68.0064 71.326 68.2647 71.3503 68.5149 71.4027C69.1041 71.5238 69.6933 71.661 70.4479 71.8144ZM42.5504 102.787C42.5042 102.684 42.4517 102.584 42.393 102.488C41.5431 101.182 40.865 99.7711 40.3753 98.2914C40.2358 97.8987 40.0616 97.5191 39.8547 97.1574C39.8063 97.098 39.7445 97.0509 39.6743 97.02C39.6042 96.9891 39.5277 96.9754 39.4512 96.9798C38.7248 97.0807 38.0024 97.2219 37.276 97.339C36.4164 97.4762 35.5528 97.5771 34.7054 97.7425C34.1606 97.8515 33.6319 98.0533 33.0307 98.2349C33.6683 99.2034 34.2413 100.168 34.9031 101.027C35.601 101.863 36.3433 102.66 37.1267 103.416C37.1958 103.461 37.2731 103.492 37.3542 103.507C37.4353 103.521 37.5185 103.519 37.5989 103.501C38.5068 103.348 39.4027 103.142 40.3148 103.005C41.0169 102.896 41.7433 102.86 42.5504 102.787ZM82.9984 59.2276L83.1235 59.0621C83.0911 58.9253 83.0507 58.7906 83.0024 58.6586C82.3608 57.2098 81.6142 55.7934 81.1097 54.3002C80.7304 53.1864 79.9556 52.8676 78.9911 52.6215C77.6957 52.2865 76.4084 51.8951 75.1089 51.5601C74.5399 51.4148 73.9467 51.3422 73.3131 51.2292C73.3299 51.3138 73.3515 51.3973 73.3777 51.4794C73.8337 52.5327 74.2938 53.59 74.7538 54.6432C74.9435 55.071 75.1089 55.5109 75.3349 55.9185C75.4447 56.1004 75.6103 56.242 75.8071 56.322C77.0621 56.7982 78.3252 57.2542 79.5884 57.7102C80.1291 57.9039 80.6941 58.0331 81.2026 58.2671C81.8321 58.5415 82.4052 58.9007 82.9984 59.2276ZM49.2817 41.3947C49.0799 41.3947 48.8781 41.3947 48.6763 41.3947C48.0387 41.431 47.3971 41.4875 46.7595 41.5076C46.4568 41.5076 46.1501 41.4269 45.8515 41.4471C45.2219 41.4875 44.5924 41.5803 43.9629 41.6368C43.8095 41.6368 43.6481 41.5924 43.4907 41.6045C43.3337 41.5932 43.1771 41.6313 43.0428 41.7135C42.4011 42.3269 41.7675 42.9524 41.1582 43.6021C40.3511 44.4374 39.6045 45.297 38.8337 46.1525C38.7006 46.3018 38.5835 46.4633 38.3938 46.7094C38.6965 46.7094 38.8821 46.7094 39.0678 46.7094C39.9959 46.6328 40.9201 46.5117 41.8482 46.4794C43.1679 46.431 44.4915 46.435 45.8111 46.4512C45.9781 46.4665 46.1459 46.4336 46.2947 46.3563C46.4435 46.279 46.567 46.1607 46.6505 46.0153C46.8765 45.6481 47.1146 45.2849 47.3285 44.9056C47.9742 43.7716 48.6077 42.6053 49.2817 41.3947ZM39.4592 69.8168L39.5924 69.7683C39.554 69.2929 39.554 68.8152 39.5924 68.3398C39.8161 66.8699 40.3218 65.4572 41.0815 64.1792C41.2742 63.8278 41.5161 63.5058 41.7998 63.2227C42.4213 62.6618 42.498 62.4156 42.1065 61.6812C42.0247 61.524 41.9317 61.3729 41.8281 61.2292C41.2025 60.3256 40.7559 59.3106 40.5125 58.2389L40.004 56.1202L39.8708 56.1001C39.2776 58.7635 37.958 60.8741 35.4318 62.004C35.8447 62.3736 36.2342 62.7685 36.598 63.1864C37.7881 64.8346 38.6386 66.7029 39.1001 68.6828C39.205 69.0541 39.3382 69.4334 39.4592 69.8168ZM73.7934 93.0089C73.1351 92.5219 72.3317 92.2716 71.5133 92.2986C71.4023 92.2904 71.2933 92.2645 71.1905 92.2219L69.9798 91.8184C69.7296 91.7377 69.6287 91.8426 69.5359 92.0928C68.64 94.4334 67.724 96.7659 66.824 99.1025C66.6828 99.4697 66.6021 99.8612 66.4891 100.257C67.2074 100.543 67.9056 100.785 68.5714 101.092C68.9144 101.249 69.1485 101.245 69.3503 100.927C69.774 100.261 70.23 99.615 70.6093 98.9088C71.6788 96.9677 72.732 94.9782 73.7934 93.0089ZM84.4834 82.2784C84.5843 81.778 84.7094 81.2615 84.7861 80.7409C84.961 79.576 85.1184 78.4057 85.2583 77.23C85.2512 77.1488 85.2257 77.0702 85.1838 77.0003C85.1418 76.9304 85.0845 76.8709 85.0161 76.8265C84.5601 76.5924 84.0759 76.4229 83.6077 76.1969C82.6473 75.6924 81.6298 75.3049 80.5771 75.0428C80.2905 74.9863 80.0081 74.8935 79.77 74.8289C79.5641 76.3826 79.3664 77.9161 79.1525 79.4495C79.1552 79.6422 79.128 79.8342 79.0718 80.0186C78.8297 80.5069 79.0718 80.6239 79.4996 80.753C81.142 81.2292 82.7683 81.7498 84.4834 82.2784ZM70.8717 49.4657L70.9887 49.3608C70.8111 48.9572 70.6618 48.5133 70.4479 48.1138C70.2946 47.8232 70.0444 47.5972 69.8547 47.3067C69.6005 46.9031 69.4269 46.4108 69.1445 46.0113C68.5997 45.2486 67.9056 44.5787 67.4616 43.7635C67.0177 42.9483 66.3236 42.6578 65.4439 42.6134C64.7295 42.5517 64.0194 42.4479 63.3172 42.3026C62.6432 42.1897 61.9733 42.0605 61.2994 41.9354C61.4623 42.109 61.6146 42.2923 61.7554 42.4842C62.5625 43.7231 63.3979 44.958 64.1767 46.2171C64.5149 46.7529 64.8027 47.319 65.0363 47.908C65.1493 48.1864 65.2502 48.3357 65.5448 48.3801C66.4084 48.5173 67.272 48.6666 68.1315 48.816C68.4705 48.8765 68.8095 48.9572 69.1485 49.0339L70.8717 49.4657ZM49.5884 61.1364C49.5884 61.201 49.5884 61.2978 49.5884 61.3947C49.5884 62.0524 49.5884 62.0363 50.234 62.0605C51.0411 62.0928 51.8482 62.1614 52.6553 62.2018C53.0589 62.2219 53.4382 62.2018 53.8297 62.2018C54.1323 62.2018 54.1888 62.0161 54.1606 61.7457C54.0557 60.7853 53.9507 59.8248 53.8741 58.8604C53.7651 57.452 53.6723 56.0355 53.5876 54.6271C53.5472 53.9047 53.4019 53.7595 52.6594 53.7554C52.0964 53.7697 51.5331 53.7495 50.9725 53.6949C50.6013 53.6505 50.4963 53.7595 50.456 54.0984C50.2865 55.5876 50.0888 57.0767 49.9072 58.5658C49.7901 59.4253 49.6933 60.2647 49.5884 61.1364ZM83.8257 95.5391C82.9782 95.2809 82.1549 95.067 81.364 94.7724C81.0048 94.6392 80.8757 94.6998 80.6941 95.0186C80.0081 96.201 79.3382 97.3955 78.5714 98.5254C77.4697 100.14 76.3357 101.754 75.121 103.287C74.4217 104.059 73.6764 104.788 72.8894 105.471C72.6687 105.714 72.4651 105.973 72.28 106.245C72.1084 106.517 71.9169 106.776 71.707 107.02C71.3721 107.343 70.9927 107.613 70.6295 107.908C73.6804 107.145 82.5706 98.7514 83.8257 95.5391ZM32.506 37.916V37.7587C33.3852 37.3118 34.3466 37.0495 35.3309 36.9879C35.6457 36.9516 35.9564 36.8708 36.2671 36.8063C36.4582 36.7364 36.6555 36.685 36.8563 36.6529C37.9373 36.6965 39.012 36.4704 39.9838 35.9951C40.3874 35.7853 40.8192 35.6602 41.2268 35.4705C42.0339 35.1114 42.8087 34.732 43.5997 34.3608L43.5311 34.2114C36.6707 34.9701 30.6981 37.803 25.3269 42.0686C25.4479 42.0947 25.5731 42.0947 25.6941 42.0686C27.3083 41.8143 28.866 41.3624 30.4964 41.3785C31.4683 41.3617 32.3968 40.9733 33.0912 40.293C33.3212 40.0952 33.5754 39.9177 33.8256 39.7401C34.9314 38.9612 36.0452 38.1864 37.1549 37.4076L33.8014 37.8434V37.6457L32.506 37.916ZM65.9039 49.393C66.5093 51.092 67.1146 52.7667 67.7159 54.4415C67.747 54.4999 67.7906 54.5509 67.8436 54.5906C67.8966 54.6304 67.9577 54.658 68.0226 54.6715C69.2332 54.8854 70.4439 55.075 71.6747 55.2768C71.7635 55.2768 71.8523 55.3495 71.9411 55.3696L73.9588 55.8741C73.8902 55.636 73.8741 55.5432 73.8378 55.4705C73.2687 54.0339 72.7078 52.5972 72.1106 51.1727C72.0601 51.0756 71.9905 50.9897 71.9059 50.9203C71.8212 50.851 71.7234 50.7995 71.6182 50.7692C71.0492 50.6198 70.456 50.5512 69.8789 50.41C68.5472 50.071 67.2357 49.728 65.9039 49.393ZM16.6707 95.4221C19.5561 99.5787 22.9257 103.316 27.1953 106.173C27.1893 106.088 27.1519 106.009 27.0904 105.951C26.2833 104.91 25.4116 103.913 24.7014 102.811C23.9386 101.625 23.3131 100.345 22.6513 99.0985C22.3769 98.5779 22.1913 98.0129 21.9128 97.4843C21.4851 96.6973 20.9887 95.9467 20.569 95.1558C20.1493 94.3648 20.1654 94.3729 19.3301 94.6352C18.4947 94.8975 17.5948 95.1517 16.6505 95.4221H16.6707ZM46.7675 36.6327C46.5335 36.6327 46.364 36.6045 46.1985 36.6085C45.7324 36.6378 45.2695 36.7053 44.8144 36.8103C43.7813 37.0202 42.7159 37.0403 41.6626 37.1493C40.8838 37.23 40.1049 37.3309 39.3261 37.4277C39.2297 37.4413 39.1374 37.4758 39.0557 37.5286C37.7643 38.3882 36.4729 39.2478 35.1897 40.1235C34.9135 40.3371 34.6519 40.569 34.4068 40.8176C34.5179 40.8307 34.6298 40.8375 34.7417 40.8378L37.4294 40.6723C37.9177 40.6441 38.406 40.6279 38.8943 40.6118C39.4955 40.6118 40.1049 40.5876 40.6901 40.5674C41.7595 40.5311 42.8127 40.4221 43.6683 39.6715C43.8004 39.5263 43.9434 39.3914 44.096 39.2679C45.1387 38.5585 46.0438 37.6656 46.7675 36.6327ZM44.1404 52.8676C44.4552 52.8676 44.6489 52.8676 44.8386 52.8676C45.6457 52.8232 46.4164 52.912 47.2155 52.6618C47.8295 52.5401 48.4593 52.5196 49.0799 52.6013C49.1626 52.616 49.2476 52.6124 49.3289 52.5908C49.4101 52.5693 49.4856 52.5302 49.5502 52.4764C49.6148 52.4226 49.6668 52.3553 49.7027 52.2793C49.7386 52.2033 49.7574 52.1204 49.7579 52.0363C49.9717 50.5916 50.2058 49.1509 50.4197 47.7062C50.4243 47.546 50.4081 47.386 50.3713 47.23C49.887 47.2865 49.4794 47.339 49.0718 47.3793C48.625 47.4836 48.1638 47.5109 47.7078 47.46C47.1671 47.3107 46.9532 47.5771 46.7474 47.9241C46.3842 48.5294 46.0331 49.1348 45.7062 49.7683C45.1977 50.7611 44.6973 51.7659 44.1404 52.8676ZM45.6901 107.658C44.8305 106.366 44.0153 105.156 43.18 103.945C43.1396 103.885 43.0629 103.8 43.0024 103.804C42.5989 103.804 42.1953 103.836 41.816 103.889C40.8152 104.018 39.7982 104.163 38.8176 104.292C38.519 104.333 38.2203 104.397 37.8208 104.47C38.0428 104.76 38.1679 104.942 38.3131 105.111C39.088 106.015 39.8951 106.891 40.6215 107.831C40.7253 108.026 40.8943 108.177 41.0988 108.259C41.3032 108.341 41.53 108.348 41.7393 108.279C43.0226 108.033 44.3139 107.876 45.6901 107.658ZM61.142 98.5738C60.9725 99.1025 60.795 99.5787 60.6578 100.067C60.3834 101.04 60.1332 102.016 59.8749 102.993C59.7982 103.279 59.9072 103.396 60.2139 103.489C60.9725 103.687 61.7272 103.917 62.4657 104.175C62.5207 104.206 62.582 104.225 62.6452 104.23C62.7083 104.234 62.7717 104.225 62.8308 104.202C62.8898 104.179 62.9431 104.144 62.9867 104.098C63.0304 104.052 63.0633 103.997 63.0831 103.937C63.749 102.686 64.4269 101.435 65.121 100.144L61.142 98.5738ZM55.9564 97.4883C55.8192 99.163 55.678 100.882 55.5528 102.597C56.142 102.694 56.7312 102.803 57.3244 102.888C57.5948 102.928 57.8733 102.92 58.1315 102.956C58.1882 102.974 58.248 102.979 58.3068 102.971C58.3655 102.963 58.4217 102.942 58.4715 102.909C58.5212 102.877 58.5631 102.834 58.5943 102.783C58.6256 102.733 58.6453 102.676 58.6521 102.617C59.0476 101.315 59.4646 100.019 59.9031 98.7272C60.0565 98.2873 59.8628 98.138 59.4996 98.0775L55.9564 97.4883ZM51.251 107.779C51.1501 107.25 51.0815 106.855 50.9968 106.455C50.8918 105.939 50.7506 105.426 50.6739 104.906C50.6557 104.567 50.6557 104.227 50.6739 103.889C50.6739 103.61 50.5165 103.509 50.234 103.517C49.3462 103.538 48.4584 103.517 47.5746 103.542C47.1954 103.508 46.8134 103.518 46.4366 103.574C46.1331 103.709 45.7917 103.733 45.4721 103.642C45.3107 103.578 45.0686 103.711 44.8144 103.768C45.2704 104.357 45.6497 104.853 46.025 105.345C46.1032 105.427 46.1883 105.501 46.2792 105.567C46.488 105.722 46.6837 105.893 46.8644 106.08C47.2276 106.508 47.5545 106.972 47.9177 107.4C48.0268 107.504 48.1704 107.564 48.3212 107.569C48.6804 107.593 49.0476 107.569 49.4108 107.597C49.9596 107.638 50.5165 107.706 51.251 107.779ZM53.4705 52.8959C53.4933 52.7624 53.5068 52.6276 53.5109 52.4923C53.4463 51.8265 53.3696 51.1646 53.301 50.5028C53.2203 49.6957 53.4705 48.8684 53.0508 48.0815C52.9701 47.9282 53.071 47.6779 53.0912 47.4762C53.1185 47.3435 53.1307 47.2081 53.1275 47.0726C53.0064 46.1888 52.8491 45.3051 52.7482 44.4213C52.6432 43.4447 52.5868 42.4641 52.502 41.4834C52.502 41.4108 52.4334 41.3382 52.3608 41.201C52.3272 41.3016 52.2989 41.404 52.276 41.5076C52.0621 42.8031 51.8361 44.0984 51.6465 45.3979C51.5012 46.3785 51.4205 47.3713 51.2792 48.3519C51.0936 49.6231 50.8757 50.8821 50.6658 52.1533C50.569 52.799 50.8394 52.9604 51.4729 52.7183C51.624 52.6469 51.7903 52.6136 51.9572 52.6215C52.4616 52.6941 52.9298 52.8111 53.4665 52.9039L53.4705 52.8959ZM65.3309 41.4512L65.4197 41.2655C65.311 41.1203 65.1895 40.9853 65.0565 40.862C64.1095 40.071 63.1544 39.2868 62.1913 38.5093C61.8846 38.2671 61.6223 38.029 61.7877 37.5851C61.7877 37.5448 61.7191 37.4681 61.6747 37.3955C61.2994 38.0129 61.2712 38.0371 60.686 37.5771C60.3043 37.2621 59.8154 37.1073 59.322 37.1453C58.8095 37.1735 58.293 37.1453 57.7764 37.1453H56.7554C57.0298 37.456 57.1832 37.6578 57.3608 37.8353C58.2324 38.7151 59.1243 39.5787 59.9758 40.4746C60.0863 40.6108 60.228 40.7185 60.3888 40.7887C60.5495 40.859 60.7248 40.8896 60.8999 40.8781C61.35 40.8526 61.8014 40.8715 62.2478 40.9346C63.2728 41.0799 64.2978 41.2776 65.3269 41.4592L65.3309 41.4512ZM47.2155 37.9282L44.7256 40.2405L44.8144 40.4261C45.2502 40.4261 45.6901 40.4261 46.1259 40.4261C47.3123 40.4746 48.4947 40.5472 49.6812 40.5754C49.8144 40.5754 49.9838 40.4019 50.0847 40.2647C50.2066 40.0484 50.3118 39.8231 50.3995 39.5908C50.6618 39.0097 50.9483 38.4407 51.1784 37.8474C51.36 37.3793 51.477 36.887 51.6061 36.4754L50.2421 35.9064L47.3325 38.2671L47.2155 37.9282ZM66.0532 105.882L68.7772 101.621C68.5432 101.528 68.3737 101.451 68.1719 101.383C67.6513 101.193 67.1227 101.027 66.6142 100.822C66.1057 100.616 66.0129 100.692 65.8676 101.153C65.818 101.339 65.7504 101.52 65.6658 101.693C65.1628 102.627 64.6502 103.555 64.1283 104.478C64.0234 104.667 63.9548 104.821 64.2131 104.95C64.7982 105.241 65.3753 105.559 66.0532 105.882ZM50.4721 46.883C51.021 44.0863 51.5779 41.2332 52.1388 38.4084C51.8967 38.8119 51.7353 39.2437 51.4972 39.619C51.1582 40.1275 50.7264 40.5795 50.9241 41.1364C50.6806 41.3196 50.4622 41.534 50.2744 41.774C49.5117 43.1178 48.7772 44.4738 48.0428 45.8297C47.9257 46.0436 47.8369 46.2736 47.728 46.5117L50.4721 46.883ZM48.2526 111.742C47.6432 110.753 47.0984 109.857 46.5254 108.977C46.4656 108.918 46.3932 108.873 46.3135 108.846C46.2338 108.819 46.149 108.81 46.0654 108.82C45.1237 108.922 44.1821 109.041 43.2405 109.175C42.8733 109.232 42.5181 109.353 42.1106 109.454C42.6352 110.031 43.1638 110.527 43.5916 111.1C43.6657 111.229 43.7738 111.335 43.9041 111.406C44.0344 111.477 44.1818 111.511 44.3301 111.504C44.9031 111.504 45.4802 111.564 46.0573 111.6L48.2526 111.742ZM55.4399 103.646C55.2704 105.047 55.0605 106.471 54.9354 107.896C54.8587 108.808 54.8345 108.63 55.686 108.949C56.1259 109.115 56.3357 108.973 56.4931 108.574C56.9895 107.202 57.4939 105.834 57.9903 104.462C58.0305 104.339 58.0628 104.213 58.0872 104.086L55.4399 103.646ZM59.8144 104.478L57.7078 109.595C57.8934 109.631 58.1558 109.595 58.3131 109.728C58.7167 110.01 58.8539 109.817 59.0718 109.514C59.665 108.683 60.2825 107.868 60.908 107.061C61.3842 106.443 61.8846 105.85 62.4334 105.16L59.8144 104.478ZM65.5488 106.467L63.4503 105.777C63.2042 106.374 62.5141 106.758 62.619 107.545C62.619 107.638 62.5383 107.751 62.4778 107.843L60.6134 110.668C60.8013 110.789 60.9794 110.924 61.1461 111.072C61.4851 111.431 61.7353 111.318 62.0016 110.987C62.5706 110.293 63.1719 109.623 63.7248 108.917C64.3261 108.146 64.8951 107.351 65.5488 106.467ZM51.598 103.542C51.6817 103.71 51.7544 103.884 51.816 104.062C52.1469 105.273 52.506 106.463 52.7764 107.694C52.9056 108.279 52.9096 108.356 53.5472 108.207C53.5472 108.073 53.5754 107.932 53.5754 107.803C53.5754 106.851 53.5754 105.902 53.5754 104.95C53.5892 104.792 53.6148 104.636 53.6521 104.482C53.7127 104.195 53.7772 103.909 53.8458 103.57L51.598 103.542ZM48.7732 108.57C48.8185 108.686 48.8711 108.799 48.9306 108.909C49.4794 109.667 50.0323 110.414 50.5771 111.173C51.0169 111.79 51.3842 111.895 52.1106 111.617C51.9653 110.858 51.8281 110.103 51.6666 109.353C51.6485 109.289 51.6168 109.23 51.5736 109.18C51.5304 109.13 51.4767 109.09 51.4165 109.062C50.7788 108.917 50.1332 108.804 49.4915 108.683C49.2817 108.655 49.0678 108.63 48.7732 108.582V108.57ZM42.9056 35.9104L42.9298 35.9871C43.5108 36.0437 44.0961 36.0437 44.6771 35.9871C45.569 35.8055 46.4326 35.6844 47.3083 36.0234C47.3366 36.0373 47.3676 36.0445 47.3991 36.0445C47.4306 36.0445 47.4616 36.0373 47.4899 36.0234C47.954 35.6804 48.406 35.3293 48.862 34.9822C48.2607 34.5383 47.5666 35.3252 47.0742 34.7199L42.9056 35.9104ZM58.3091 35.8741C57.7199 35.4705 57.1751 34.958 56.5254 34.728C55.8757 34.498 55.1211 34.5585 54.2978 34.4778C54.7014 34.9257 55.0121 35.2849 55.3632 35.5956C55.5576 35.7527 55.7958 35.8457 56.0452 35.862C56.7796 35.8943 57.5181 35.8741 58.3091 35.8741ZM59.2938 35.1598C59.9475 35.9992 59.9475 35.9911 60.5044 36.0678C60.9766 36.1364 61.4447 36.2534 61.9209 36.3099C62.2408 36.3281 62.5614 36.3281 62.8813 36.3099C62.7116 36.0406 62.4639 35.8295 62.1711 35.7046C61.2671 35.4988 60.3309 35.3414 59.2938 35.1598ZM41.1622 111.52L41.2349 111.346C40.8313 110.967 40.4479 110.588 40.0484 110.212C40.0215 110.194 39.9912 110.181 39.9593 110.175C39.9274 110.169 39.8946 110.169 39.8628 110.176C39.2615 110.265 38.6521 110.362 38.0629 110.458V110.612L41.1622 111.52ZM68.2687 107.888L67.4899 107.537C66.6384 108.497 65.8031 109.437 64.9919 110.362C66.1824 109.793 67.0339 108.651 68.2486 107.904L68.2687 107.888ZM40.7143 54.2155L40.9685 55.9871H41.142L42.1993 54.1428L40.7143 54.2155ZM52.6876 34.3325C52.39 34.1869 52.0472 34.1637 51.7326 34.2677C51.4181 34.3718 51.1568 34.595 51.0048 34.8894C51.3196 35.0629 51.364 35.8337 51.9047 35.4786C52.2558 35.2486 52.4213 34.7401 52.6876 34.3325ZM55.7909 110.249L55.0363 109.897C54.6529 110.535 54.7175 111.108 55.0928 111.839L55.7909 110.249ZM56.7151 111.863C57.0103 111.822 57.2883 111.7 57.5184 111.51C57.7484 111.321 57.9216 111.071 58.0185 110.789C57.1307 110.539 56.7917 110.805 56.7151 111.871V111.863ZM37.6271 70.0993C38.3696 70.2809 38.5472 70.1194 38.3616 69.4536C38.2889 69.1792 38.2445 68.8926 38.1759 68.6142C38.1477 68.5012 38.0912 68.3963 38.0508 68.2833L37.954 68.3196L37.6271 70.0993ZM53.866 26.431C53.4625 27.4358 53.7328 27.7909 54.8063 27.7465C54.5682 27.2704 54.4794 26.6973 53.866 26.431ZM68.6763 37.9604L68.7409 37.8192L67.2276 37.0767L67.1267 37.3107L68.6763 37.9604ZM53.3817 110.858C53.6521 110.374 53.5835 109.514 53.2768 109.397C53.3131 109.869 53.3454 110.325 53.3817 110.858ZM65.456 36.318L65.3874 36.4875L66.8523 37.117L66.929 36.9273L65.456 36.318Z" fill="#4A4700"/>
<path id="Vector_2" d="M90.8435 19.7358C91.4246 20.3331 91.7878 20.9223 91.4851 21.8182C91.3479 22.2217 91.5819 22.7544 91.5981 23.2306C91.6586 25.1434 92.0016 26.9836 93.0267 28.6341C93.3818 29.2032 93.8338 29.7076 94.2373 30.2483C94.4512 30.5308 94.6732 30.8053 94.887 31.0877C95.1776 31.4913 95.1332 31.7697 94.8184 32.1854C93.7567 33.5221 92.9757 35.0594 92.5222 36.7052C92.0714 38.3355 91.8194 40.0143 91.7716 41.7052C91.7716 41.911 91.5981 42.1087 91.4649 42.3952C90.7128 41.7708 90.223 40.8863 90.0928 39.9174C89.766 36.7657 88.4786 34.2153 85.5731 32.6535C84.8669 32.2782 84.9153 32.0643 85.3067 31.5437C85.6982 31.0232 86.138 30.4057 86.5497 29.8367C86.5921 29.7867 86.6274 29.731 86.6546 29.6713C87.3689 27.8391 88.4706 26.1806 89.1364 24.3323C89.54 23.1862 89.8023 21.9836 90.1251 20.8012C90.2543 20.3856 90.3552 19.9578 90.8435 19.7358ZM90.6901 23.5131H90.5731C90.2623 24.4493 89.9839 25.4017 89.6328 26.3379C89.2655 27.3834 88.8245 28.4016 88.3132 29.3848C87.8379 30.1266 87.2977 30.8248 86.699 31.4711C86.5326 31.6385 86.3486 31.7873 86.1501 31.915C89.0154 33.166 90.3188 35.547 91.0937 38.3718C91.703 35.9142 92.1752 33.4525 94.0961 31.5881C91.6062 29.4655 90.6296 26.7092 90.6901 23.5131Z" fill="#4A4700"/>
<path id="Vector_3" d="M3.72075 53.2994C3.03765 52.6707 2.50164 51.8991 2.15094 51.0395C2.12348 50.9827 2.10185 50.9232 2.08637 50.8619C2.00364 50.1526 1.85915 49.4518 1.65457 48.7675C1.38009 48.0376 0.990433 47.3564 0.500414 46.7498C-0.0887706 46.0193 -0.201765 45.6884 0.403562 44.9459C1.47297 43.6222 2.09041 42.0766 2.65134 40.5068C2.82487 39.9741 2.91365 39.3769 3.5553 39.1711C3.60372 39.1711 3.6239 39.0621 3.67233 39.0218C3.80146 38.8967 3.93867 38.7796 4.07588 38.6626C4.20905 38.8724 4.431 39.0661 4.47943 39.3002C4.60453 40.1638 4.64085 41.0435 4.76595 41.9071C4.96926 43.1979 5.50778 44.4127 6.32769 45.4302C6.52543 45.6844 6.55772 45.8619 6.32769 46.0879C6.26222 46.1789 6.19218 46.2664 6.11785 46.3502C5.14932 47.1573 4.88298 48.2913 4.71752 49.4778C4.59646 50.3172 4.35836 51.1404 4.21309 51.9758C4.14045 52.3793 4.21309 52.8192 3.88217 53.142L3.72075 53.2994ZM3.44634 42.7264C3.00926 43.7099 2.35532 44.5818 1.53351 45.2768C1.28734 45.5028 1.19049 45.7207 1.50929 45.9306C2.01929 46.3102 2.39638 46.8413 2.58677 47.4479C2.7603 47.8918 2.95804 48.3276 3.14771 48.7716L3.3051 49.1751C3.45924 48.8575 3.57572 48.523 3.65215 48.1783C3.9306 47.2824 4.2373 46.3906 4.50768 45.4866C4.56717 45.2807 4.55724 45.0609 4.47943 44.8611C4.16466 44.1509 3.8055 43.4608 3.44634 42.7264Z" fill="#4A4700"/>
<path id="Vector_4" d="M96.9451 43.2593C97.1308 44.3125 97.2922 45.3295 97.494 46.3384C97.7637 47.5886 98.3159 48.7605 99.1082 49.7645C99.1849 49.8614 99.2696 50.0632 99.2212 50.1318C98.9104 50.5797 99.1768 50.9389 99.3826 51.294C99.4318 51.351 99.4692 51.4172 99.4926 51.4888C99.516 51.5604 99.525 51.6359 99.5189 51.711C99.5129 51.7861 99.4921 51.8592 99.4576 51.9262C99.4231 51.9932 99.3757 52.0526 99.318 52.1011L98.3495 51.2496C97.946 52.7266 97.5424 54.1269 97.1954 55.5353C97.0783 55.9792 97.038 56.4433 96.9451 56.8993C96.7958 57.6176 96.251 57.8234 95.7749 57.2746C95.4763 56.8686 95.2471 56.4159 95.0969 55.9348C94.9511 55.5127 94.8338 55.0813 94.7458 54.6435C94.6651 54.3247 94.6086 54.0018 94.5319 53.679C94.5093 53.5237 94.4673 53.3718 94.4068 53.227C94.0033 52.4199 93.5634 51.6128 93.1397 50.8057C93.1101 50.7316 93.0677 50.6633 93.0146 50.6039C92.5908 50.2004 92.5263 49.7686 92.9419 49.3933C93.749 48.6911 94.084 47.7347 94.5279 46.8267C94.8305 46.2092 95.0848 45.5595 95.3753 44.934C95.5152 44.5496 95.711 44.1879 95.9564 43.8606C96.2575 43.6166 96.59 43.4143 96.9451 43.2593ZM96.1824 47.2948C95.5246 48.1503 94.9193 48.9574 94.2857 49.7443C94.2314 49.7932 94.1879 49.8529 94.1581 49.9196C94.1283 49.9864 94.1129 50.0587 94.1129 50.1318C94.1129 50.2048 94.1283 50.2771 94.1581 50.3439C94.1879 50.4106 94.2314 50.4703 94.2857 50.5192C95.0419 51.4854 95.6012 52.5904 95.9322 53.7718C95.9564 53.8505 95.986 53.9273 96.021 54.0018C96.5698 52.7912 97.1267 51.5805 97.6594 50.3698C97.674 50.2282 97.6398 50.0859 97.5626 49.9663C97.3366 49.5627 97.0743 49.135 96.8523 48.7072C96.6304 48.2795 96.3963 47.7629 96.1824 47.2988V47.2948Z" fill="#4A4700"/>
<path id="Vector_5" d="M97.6594 9.29199C98.1316 10.9506 98.519 12.476 99.0073 13.9692C99.2907 14.662 99.6183 15.336 99.9879 15.9869C100.02 16.1058 100.02 16.2312 99.9879 16.3501C99.9516 16.6568 99.8951 16.9554 99.8507 17.25L99.4472 16.9433C99.2535 17.4034 99.0436 17.8352 98.8903 18.2872C98.5432 19.288 98.2042 20.3049 97.9056 21.3138C97.7816 21.7282 97.7311 22.1612 97.7563 22.593C97.7869 22.82 97.7504 23.0509 97.6515 23.2574C97.5526 23.4639 97.3954 23.6369 97.1994 23.7553C97.0985 23.5616 96.9895 23.3961 96.9169 23.2185C96.4286 22.0079 96.025 20.7327 95.4439 19.5583C94.9898 18.7147 94.4488 17.9208 93.8297 17.1895C93.402 16.6487 93.3334 16.3138 93.6723 15.7165C94.5198 14.2274 95.3188 12.702 96.1945 11.229C96.6479 10.5577 97.1369 9.91108 97.6594 9.29199ZM97.0702 20.1879C97.1711 20.0547 97.2115 20.0265 97.2236 19.9861C97.6271 18.7754 97.9863 17.5648 98.8378 16.564C98.9064 16.4833 98.8701 16.2613 98.8176 16.1322C98.3616 15.0184 97.8935 13.9086 97.4254 12.8029C97.3778 12.71 97.3253 12.6197 97.268 12.5325C96.816 14.0902 95.6538 15.087 94.7095 16.3017C95.833 17.3501 96.6433 18.6899 97.0501 20.1717L97.0702 20.1879Z" fill="#4A4700"/>
</g>
<defs>
<clipPath id="clip0_61_1568">
<rect width="100" height="114.738" fill="white" transform="translate(0 0.232422)"/>
</clipPath>
</defs>
</svg>
