<svg width="100" height="120" viewBox="0 0 100 120" fill="none" xmlns="http://www.w3.org/2000/svg">
<g id="Capa_1" clip-path="url(#clip0_61_1922)">
<path id="Vector" d="M65.6814 17.6283L67.5327 21.3448C68.0095 22.2985 68.4688 23.2557 68.9702 24.1954C70.0221 26.1413 71.0739 28.0767 72.1258 30.0156C72.3572 30.4434 72.6237 30.8536 72.827 31.2919C73.395 32.5401 73.9315 33.8023 74.4995 35.054C74.9974 36.1445 75.5513 37.2209 76.0282 38.3183C76.4594 39.286 76.8697 40.2677 77.2518 41.26C77.7602 42.5888 78.2336 43.9317 78.7209 45.2676C78.9559 45.9232 79.2364 46.5648 79.4222 47.2345C79.6431 48.09 79.7167 48.9876 79.9621 49.8361C80.2068 50.7244 80.3538 51.6367 80.4004 52.5569C80.432 53.0408 80.3688 53.5316 80.3688 54.0225C80.3918 54.1856 80.4246 54.3472 80.467 54.5064C80.467 54.6431 80.467 54.7834 80.467 54.9201C80.467 55.2532 80.5091 55.5828 80.5056 55.9158C80.4882 56.0571 80.4589 56.1967 80.4179 56.3331C80.379 56.4603 80.3601 56.5928 80.3618 56.7258C80.4691 57.5432 80.4383 58.3729 80.2707 59.1801C80.0638 60.1408 80.0498 61.1471 79.8219 62.1008C79.5274 63.3384 79.1206 64.5551 78.7385 65.7612C78.2441 67.3495 77.7357 68.9168 77.2308 70.5191C77.0415 71.1152 76.8381 71.7112 76.6593 72.3143C76.6083 72.5028 76.5835 72.6975 76.5857 72.8928C76.5962 74.3065 76.7453 75.7157 77.031 77.1002C77.2939 78.5693 77.641 80.0244 78.0127 81.4689C78.3212 82.6716 78.7139 83.8532 79.0821 85.0382C79.8418 87.4809 80.6096 89.9212 81.3856 92.3592C81.7678 93.5653 82.1921 94.7609 82.5883 95.9635C83.0721 97.4396 83.5384 98.9157 84.0223 100.392C84.2467 101.065 84.5026 101.728 84.7235 102.404C84.936 103.27 85.2042 104.122 85.5265 104.953C86.0681 106.24 86.7414 107.466 87.5355 108.614C88.034 109.268 88.6628 109.811 89.3823 110.21C90.1017 110.608 90.896 110.853 91.7149 110.928C92.5459 111.007 93.3822 111.017 94.2148 110.956C95.0528 110.907 95.8837 110.763 96.7182 110.647C97.5527 110.532 98.3661 110.395 99.1936 110.297C99.3619 110.279 99.6459 110.318 99.695 110.42C99.8422 110.725 100.207 111.054 99.9053 111.412C99.5212 111.826 99.115 112.219 98.6887 112.59C98.6887 112.976 98.2189 113.452 97.5492 113.642C96.4973 113.94 95.4455 114.262 94.3936 114.581C93.6199 114.815 92.8474 115.057 92.076 115.307C91.0627 115.637 90.0529 115.977 89.0397 116.31C88.9528 116.355 88.861 116.389 88.7662 116.412C87.6372 116.492 86.6379 117.032 85.558 117.288C84.4781 117.544 83.4017 117.881 82.3218 118.175L76.7715 119.672C76.3192 119.792 75.8669 119.928 75.4041 120.002C75.1896 119.998 74.9773 119.958 74.7765 119.883L74.8641 119.774C74.7452 119.568 74.6104 119.371 74.4609 119.185C74.3783 119.103 74.3159 119.002 74.2787 118.892C74.2415 118.781 74.2304 118.663 74.2464 118.548C74.2624 118.432 74.3049 118.322 74.3708 118.226C74.4366 118.129 74.5239 118.05 74.6257 117.993C75.5864 117.456 76.5716 116.962 77.5253 116.415C78.724 115.697 79.8068 114.8 80.737 113.757C80.8878 113.596 81.0876 113.47 81.2384 113.323C81.3718 113.224 81.49 113.105 81.589 112.972C81.8134 112.597 82.0203 112.204 82.2236 111.815C82.4715 111.417 82.6794 110.995 82.8442 110.556C83.0651 109.813 83.1948 109.042 83.3421 108.277C83.3608 108.111 83.3429 107.942 83.2895 107.783C83.1458 107.225 82.9845 106.668 82.8302 106.11C82.8252 106.069 82.8095 106.029 82.7846 105.995C82.1745 105.311 82.3218 104.382 82.0168 103.593C81.6661 102.671 81.4558 101.689 81.1823 100.735C80.7335 99.1471 80.3022 97.5553 79.8184 95.9776C79.2784 94.2245 78.7209 92.4714 78.1144 90.7183C77.322 88.4322 76.4665 86.1602 75.66 83.8847C74.7936 81.4907 73.7262 79.1742 72.4694 76.96C71.7808 75.792 70.9924 74.6858 70.1132 73.6537C68.8966 72.174 67.2802 71.1993 65.9058 69.9581C64.5314 68.7169 62.8449 67.9982 61.6318 66.5922C60.1031 64.8391 58.6129 63.0544 57.6943 60.8806C57.3437 60.0321 57.0422 59.1626 56.7091 58.3036C56.5373 57.8653 56.3199 57.441 56.1761 56.9923C55.8606 55.993 55.5591 54.9902 55.2856 53.9804C54.8718 52.4587 54.4862 50.9336 54.09 49.4224C53.8551 48.5038 53.6131 47.5887 53.3887 46.6665C53.3282 46.3373 53.2872 46.0048 53.266 45.6708C53.2165 44.91 53.124 44.1526 52.989 43.4023C52.4105 40.9479 52.407 38.413 52.0879 35.9236C52.0143 35.3415 51.832 34.742 51.9056 34.1705C51.9933 33.5358 51.5304 33.0976 51.5304 32.512C51.5127 31.9242 51.453 31.3383 51.3516 30.7589C51.0782 28.806 50.7906 26.8531 50.5207 24.9001C50.4663 24.4708 50.4347 24.039 50.426 23.6063C50.426 23.4976 50.5137 23.3889 50.5627 23.2557C50.4716 23.1961 50.3278 23.1155 50.1946 23.0208C49.8229 22.7648 49.844 22.4773 50.2612 22.274C50.5276 22.1501 50.8016 22.0436 51.0817 21.9549C52.9785 21.3133 54.8789 20.6927 56.7687 20.0335C58.6024 19.3954 60.4186 18.7082 62.2559 18.0736C63.164 17.758 64.0931 17.4985 65.0223 17.2461C65.5272 17.1058 65.5833 17.1655 65.7235 17.6598C65.5101 17.6075 65.2884 17.5979 65.0713 17.6318C64.4998 17.8597 63.9529 18.1402 63.3989 18.4172C61.1269 19.5497 58.7287 20.3596 56.3409 21.2221L51.4884 22.8876C51.2429 22.9752 51.001 23.0699 50.8082 23.1435C50.8923 23.7185 50.9554 24.2409 51.0466 24.7599C51.1763 25.4891 51.3411 26.2114 51.4568 26.9407C51.6637 28.2485 51.8425 29.5633 52.0353 30.8747C52.13 31.5163 52.3649 32.1439 52.2878 32.8101C52.2806 32.8507 52.2806 32.8922 52.2878 32.9328C52.428 33.7252 52.5928 34.5106 52.7015 35.303C52.9434 37.0561 53.1573 38.8092 53.3782 40.5623C53.4133 40.8252 53.4308 41.0882 53.4518 41.3511C53.529 42.3224 53.9392 43.2445 53.8726 44.2332C53.8729 44.261 53.8789 44.2884 53.8901 44.3139C54.104 45.236 54.3109 46.1581 54.5352 47.0732C54.8859 48.4932 55.2365 49.9168 55.5871 51.3298C55.919 52.606 56.2696 53.8776 56.639 55.1445C57.1314 56.9212 57.7633 58.6563 58.5288 60.3336C59.4797 62.4634 60.8916 64.3556 62.6626 65.8734C63.483 66.5571 64.3175 67.2268 65.145 67.9035C66.0671 68.6538 66.9787 69.4077 67.9079 70.1475C68.3216 70.4806 68.7739 70.7646 69.1876 71.0976C69.5813 71.4002 69.9516 71.7318 70.2956 72.0899C70.7444 72.5773 71.1581 73.1032 71.5613 73.6326C71.9311 74.0804 72.2618 74.559 72.55 75.0631C73.0023 75.9397 73.3845 76.8548 73.7947 77.7559C74.69 79.7124 75.5864 81.6688 76.484 83.6253C76.5997 83.8812 76.7224 84.1372 76.8627 84.4387C77.0871 83.5481 77.329 84.4878 77.5394 84.3019L77.634 84.4422L76.9924 84.8699C77.3269 85.1643 77.6354 85.4869 77.9145 85.8342C78.113 86.1963 78.2762 86.5768 78.4019 86.9702L78.5211 86.9246C78.4895 86.7808 78.4615 86.6336 78.4229 86.4933C77.9601 84.898 77.4587 83.3097 77.045 81.7039C76.4891 79.5501 76.0606 77.3655 75.7617 75.1613C75.5058 73.282 75.8564 71.5114 76.3122 69.7443C76.7364 68.0999 77.2203 66.4625 77.7883 64.8601C78.4067 63.1234 78.8587 61.3319 79.1382 59.5097C79.1838 59.1976 79.1171 59.0644 78.8717 59.0574C78.3984 60.0426 78.6052 61.1611 78.0723 62.0902C77.7517 62.7682 77.3728 63.4169 76.9398 64.0292C76.1857 64.8881 75.3875 65.7073 74.5486 66.4835C74.3482 66.6204 74.1267 66.7234 73.8929 66.7885C73.6679 66.9556 73.4338 67.1101 73.1917 67.2514C72.3993 67.5564 71.5894 67.8123 70.7864 68.0858C70.7327 68.1017 70.6754 68.1017 70.6216 68.0858C70.4584 68.0602 70.2915 68.0734 70.1343 68.1244C68.938 68.4275 67.6803 68.3855 66.5069 68.0032C65.3335 67.621 64.2923 66.9142 63.5041 65.9646C62.4768 64.9127 61.481 63.8609 60.4712 62.7845C60.4327 62.7459 60.3696 62.6723 60.3801 62.6547C60.636 62.2515 60.2293 62.0762 60.0996 61.8062C59.6788 60.9402 59.202 60.0917 58.8514 59.1976C58.1221 57.3464 57.4489 55.4741 56.7862 53.5877C56.6056 53.0488 56.4615 52.4982 56.355 51.9398C56.2498 51.4244 56.2147 50.888 56.106 50.3831C55.9973 49.8782 55.8045 49.2786 55.6783 48.7211C55.6456 48.4889 55.6315 48.2544 55.6362 48.0199L55.7835 47.9568C55.9167 48.1146 56.1095 48.2513 56.1691 48.4301C56.397 49.1138 56.5198 49.8326 56.7897 50.4988C57.2 51.5506 57.1404 52.7392 57.8696 53.6544C57.9012 53.6964 57.8696 53.7666 57.9047 53.8191C58.2553 54.8114 58.5849 55.8247 59.0056 56.7924C59.7525 58.5209 60.4537 60.2705 61.46 61.8799C61.8926 62.5627 62.4724 63.1401 63.157 63.5699C63.3708 63.7101 63.5707 63.9626 63.7951 63.9836C64.2088 64.0187 64.1878 64.3132 64.3491 64.5972L63.0202 63.8153L62.9185 63.9696C63.3603 64.3703 63.8289 64.7405 64.321 65.0775C64.8189 65.3826 64.868 65.3194 64.847 64.7514C65.0155 64.8309 65.1888 64.9 65.3659 64.9583C65.741 65.0635 65.8287 65.3089 65.5236 65.6981C66.1092 65.94 66.6526 66.2801 67.2417 66.3783C68.1147 66.5221 69.0158 66.487 69.9064 66.5431C70.2192 66.5839 70.5373 66.5478 70.8331 66.4378C71.1288 66.3278 71.3932 66.1473 71.6034 65.912C71.7441 65.7737 71.9034 65.6557 72.0767 65.5614C72.4273 65.3335 72.7779 65.1091 73.1741 64.8601L72.9287 64.6112C73.0189 64.386 73.1367 64.1728 73.2793 63.9766C73.4174 63.8339 73.6036 63.7476 73.8018 63.7346C73.8999 63.7346 74.0226 63.9485 74.0998 64.0853C74.1571 64.2415 74.1959 64.4039 74.2155 64.5691C74.6239 64.212 74.9994 63.8189 75.3375 63.3946C76.2588 61.9952 76.8244 60.392 76.9854 58.7243C77.1361 57.1886 77.336 55.6599 77.4903 54.1277C77.4872 53.948 77.4637 53.7692 77.4201 53.5948C77.3969 53.4896 77.3805 53.383 77.3711 53.2757C77.3964 52.6805 77.3811 52.0842 77.3255 51.491C77.1116 50.1587 76.8171 48.8369 76.5646 47.5115C76.3168 46.0693 75.9124 44.6585 75.3585 43.3041C75.3459 43.2381 75.3459 43.1703 75.3585 43.1042C75.378 42.9658 75.378 42.8254 75.3585 42.687C75.0429 41.7403 74.7134 40.7937 74.3978 39.847C74.3547 39.6937 74.3207 39.538 74.2961 39.3807C74.5906 39.861 75.078 40.2993 75.078 40.7376C75.078 41.3196 75.4637 41.5826 75.6635 41.9893C75.6742 42.0163 75.6813 42.0446 75.6846 42.0734C75.8809 42.6695 76.0843 43.262 76.2631 43.8651C76.6593 45.1869 77.0345 46.5193 77.4377 47.8411C77.9898 49.4951 78.3589 51.2047 78.5386 52.9391C78.6438 54.2995 79.0014 55.6529 78.7735 57.0343C78.7666 57.089 78.7666 57.1444 78.7735 57.1991C78.8016 57.4761 78.8437 57.7531 78.8577 58.0336C78.8577 58.2545 78.8261 58.4859 78.8577 58.7033C78.9091 58.8487 78.9837 58.9849 79.0786 59.1065L79.2188 59.0539C79.2364 58.8681 79.2749 58.6787 79.2749 58.4894C79.2749 58.1563 79.2293 57.8197 79.2399 57.4866C79.2679 56.5014 79.3485 55.5161 79.345 54.5274C79.3414 53.8125 79.2852 53.0988 79.1767 52.3921C78.9804 51.0738 78.7805 49.752 78.493 48.4512C78.261 47.523 77.9802 46.6078 77.6516 45.7093C77.343 44.7732 77.0029 43.844 76.6768 42.9044C76.6558 42.8448 76.6242 42.7431 76.6453 42.7221C76.9398 42.4977 76.6838 42.3294 76.5892 42.1576C76.4945 41.9858 76.3332 41.828 76.2386 41.6422C75.6986 40.3484 75.1867 39.0511 74.6397 37.7538C74.5275 37.4838 74.4153 37.2103 74.2891 36.9474C74.0086 36.3688 73.7176 35.7973 73.4301 35.2223C73.387 35.0191 73.3272 34.8197 73.2513 34.6263C72.6552 33.35 72.051 32.0761 71.4386 30.8045C71.3264 30.5696 71.1967 30.3452 71.0459 30.0682C70.6567 30.5801 70.25 30.3627 69.8257 30.2611C69.7022 30.2444 69.59 30.1801 69.5134 30.0818C69.4367 29.9835 69.4016 29.859 69.4155 29.7351C69.4034 29.4291 69.3682 29.1243 69.3103 28.8235C69.2546 28.5807 69.2808 28.3262 69.3848 28.0998C69.4888 27.8734 69.6648 27.6878 69.8853 27.5718C69.8643 27.5262 69.8468 27.4736 69.8222 27.4246C69.2332 26.3482 68.5951 25.2963 68.0691 24.1884C67.3679 22.7122 66.7508 21.1976 66.1267 19.6899C65.9163 19.0483 65.5938 18.3751 65.6814 17.6283ZM79.8745 92.4188C79.9297 92.3392 79.966 92.248 79.9806 92.1523C79.9951 92.0565 79.9875 91.9586 79.9584 91.8662C79.9293 91.7738 79.8794 91.6893 79.8126 91.6192C79.7458 91.549 79.6638 91.4951 79.5729 91.4616C79.6746 91.7806 79.7763 92.0997 79.8745 92.4188C80.0287 92.4363 80.155 92.4188 80.1059 92.6782C80.0971 92.933 80.123 93.1878 80.183 93.4356C80.6283 93.0849 80.6108 92.7343 80.2181 92.2189L79.8745 92.4188ZM99.2251 111.475L99.2497 111.338C98.9562 111.258 98.6529 111.219 98.3486 111.222C97.4405 111.366 96.5464 111.601 95.6383 111.741C93.7976 112.029 91.9533 112.257 90.1301 111.605C88.9492 111.16 87.8744 110.473 86.9745 109.589C86.1822 108.848 85.5941 107.916 85.267 106.882C84.8498 105.556 84.4115 104.238 83.9802 102.916C83.826 102.453 83.6717 101.987 83.4964 101.531C83.4201 101.403 83.327 101.285 83.2194 101.181L83.1107 101.237C83.1348 101.379 83.1664 101.519 83.2054 101.658C83.4368 102.359 83.6892 103.028 83.9066 103.723C83.9277 103.899 83.9194 104.078 83.8821 104.252L83.7208 104.277C84.3659 104.722 84.4991 105.406 84.6534 106.089C84.7165 106.38 84.6534 106.545 84.2432 106.654C84.0398 106.254 83.8295 105.847 83.6226 105.437C83.7373 105.26 83.7785 105.045 83.7372 104.838C83.696 104.631 83.5756 104.449 83.4017 104.329C83.2881 104.671 83.2881 105.04 83.4017 105.381C83.5514 105.664 83.6477 105.972 83.6857 106.289C83.6857 106.962 83.3912 107.692 84.0609 108.218C84.0889 108.747 84.2467 109.312 84.1135 109.795C83.9318 110.659 83.5944 111.482 83.1177 112.225C82.7671 112.73 82.4515 113.277 82.0658 113.785C81.8975 114.01 81.5294 114.101 81.3997 114.336C81.0771 114.921 80.5371 115.241 80.0533 115.637C78.9559 116.527 77.7918 117.285 76.3823 117.597C75.923 117.698 75.4742 117.835 75.0219 117.968C74.9307 117.996 74.78 118.07 74.78 118.119C74.7583 118.305 74.7977 118.494 74.8922 118.656C75.0675 118.831 75.3725 119.069 75.5513 119.006C76.5191 118.743 77.4692 118.403 78.4229 118.084C78.4545 118.084 78.472 118.031 78.5211 117.982L78.2511 117.853C79.1417 117.39 80.1515 117.243 81.1052 116.913C82.0588 116.583 83.1037 116.324 84.1029 116.026C85.1022 115.728 86.1295 115.395 87.1428 115.086C88.1561 114.778 89.1554 114.508 90.1581 114.196C91.1609 113.884 92.1602 113.523 93.1734 113.217C94.1867 112.912 95.1825 112.681 96.1818 112.39C97.181 112.099 98.2118 111.783 99.2251 111.475ZM79.3485 89.6384L79.4643 89.5753C79.2784 89.0493 79.0961 88.5234 78.9103 87.994C78.784 88.1693 78.784 88.3691 78.6859 88.4673C78.3353 88.8179 78.6263 89.0634 78.7244 89.4701L78.9208 88.9336L79.3485 89.6384ZM81.1718 94.7749C81.0385 94.3998 80.9439 94.0737 80.8036 93.7792C80.7651 93.695 80.6038 93.6635 80.4986 93.6039C80.467 93.7091 80.3934 93.8177 80.4074 93.9159C80.439 94.1158 80.5231 94.3121 80.5722 94.512C80.6423 94.838 80.8527 94.8591 81.1648 94.7644L81.1718 94.7749ZM79.8605 90.8235C79.7851 90.5848 79.6961 90.3507 79.594 90.1222C79.5669 90.0823 79.5303 90.0498 79.4874 90.0277C79.4445 90.0057 79.3968 89.9948 79.3485 89.996C79.2434 90.0311 79.0891 90.1468 79.0926 90.2204C79.1219 90.491 79.1699 90.7593 79.2364 91.0233L79.8605 90.8235ZM77.4727 85.6869L77.3676 85.736C77.5078 86.1392 77.6375 86.5424 77.7918 86.9386C77.8234 87.0157 77.9496 87.0543 78.0302 87.1139C78.0618 87.0333 78.1284 86.9456 78.1214 86.872C78.0667 86.4063 77.8312 85.9807 77.4657 85.6869H77.4727ZM81.3436 96.1879H81.2384C81.3541 96.6683 81.3541 96.6683 81.6942 96.6648C81.6276 96.3632 81.561 96.0652 81.4908 95.7356L81.3436 96.1879Z" fill="#4A4700"/>
<path id="Vector_2" d="M23.7755 115.37C24.0314 116.071 23.7965 116.499 23.0988 116.422C22.358 116.31 21.6284 116.134 20.9179 115.896C18.951 115.265 16.991 114.62 15.0416 113.94C13.8565 113.526 12.7029 113.024 11.5354 112.583C10.9498 112.362 10.3433 112.193 9.75423 111.976C9.40361 111.846 9.07753 111.661 8.73393 111.517C6.9037 110.757 5.07113 110 3.23622 109.245C2.61176 109.019 1.99966 108.76 1.40249 108.47C0.93929 108.192 0.514879 107.853 0.140261 107.464C-0.182309 107.148 0.140261 106.822 0.252459 106.506C0.364657 106.191 0.539966 106.258 0.764362 106.286C2.58057 106.52 4.39327 106.861 6.21999 106.938C7.62247 106.997 9.04598 107.053 10.3748 106.296C11.7675 105.554 12.8766 104.373 13.5304 102.937C13.7197 102.516 14.0002 102.141 14.1685 101.717C14.4841 100.928 14.7576 100.122 15.031 99.3153C15.273 98.593 15.4974 97.8602 15.7323 97.1344C15.9952 96.3069 16.2512 95.476 16.5247 94.6555C16.963 93.3302 17.4188 92.0119 17.8605 90.69C18.39 89.1158 18.9124 87.5345 19.4313 85.9637C19.9502 84.3929 20.4201 82.7275 20.9179 81.1111C21.0792 80.5922 21.3106 80.0908 21.4368 79.5649C21.8856 77.6949 22.3157 75.8156 22.7271 73.9269C23.0112 72.8336 23.2186 71.7218 23.3477 70.5996C23.4354 69.446 23.4669 68.282 23.0181 67.1319C22.4642 65.7295 22.075 64.2393 21.6157 62.7878C21.2125 61.5361 20.7566 60.2984 20.406 59.0326C20.2193 58.2228 20.0765 57.4035 19.9783 56.5783C19.9383 56.1707 19.8751 55.7656 19.7889 55.3652C19.579 54.5255 19.5255 53.6542 19.6312 52.7951C19.6264 52.4713 19.5924 52.1486 19.5295 51.8309C19.5014 51.4803 19.4944 51.1507 19.4839 50.8141C19.4847 50.7346 19.4965 50.6556 19.519 50.5792C19.7201 50.0538 19.7496 49.4781 19.6031 48.9348C19.563 48.6573 19.587 48.3742 19.6732 48.1074C19.8415 47.1677 20.0239 46.2316 20.1957 45.3024C20.3219 44.6292 20.4201 43.9455 20.5778 43.2793C20.6585 42.9287 20.8583 42.6272 20.9705 42.2941C21.3913 41.0354 21.7769 39.7626 22.2187 38.5144C22.4922 37.7361 22.8253 36.9822 23.1619 36.2284C24.2488 33.8021 25.3427 31.3793 26.4437 28.9601C26.6225 28.5674 26.8855 28.2098 27.0503 27.81C27.9759 25.5801 29.2451 23.529 30.3461 21.3902C31.5242 19.0937 32.6847 16.7831 33.8523 14.483C34.0521 14.0868 34.2379 13.6836 34.4729 13.312C34.5316 13.2635 34.6011 13.2299 34.6756 13.214C34.75 13.1981 34.8272 13.2005 34.9006 13.2208C35.9209 13.5118 36.9447 13.7993 37.944 14.1499C39.6971 14.76 41.4502 15.4262 43.2033 16.0398C45.023 16.6779 46.8602 17.2775 48.6869 17.8981C49.0692 18.0184 49.4449 18.1589 49.8124 18.3188C50.1631 18.4941 50.2297 18.8342 49.8896 18.9815C49.5495 19.1287 49.6126 19.3321 49.588 19.5915C49.4969 20.5663 49.3812 21.534 49.2655 22.5052C49.1357 23.557 49.006 24.6089 48.8588 25.6608C48.7115 26.7126 48.5958 27.8276 48.3679 28.89C47.877 31.1514 47.8209 33.448 47.5334 35.7481C47.4212 36.6456 47.3651 37.5502 47.2564 38.4478C47.2214 38.7599 47.0811 39.0579 47.025 39.3699C46.8701 39.9841 46.7796 40.6128 46.755 41.2458C46.8006 42.3467 46.3799 43.3495 46.2501 44.4013C46.133 45.1588 45.9595 45.9066 45.7312 46.6383C45.3455 48.0408 44.9458 49.4432 44.5146 50.8212C44.164 51.8976 43.8133 52.9634 43.4171 54.0258C43.0209 55.0882 42.6423 56.0594 42.2461 57.0727C41.5826 58.6367 40.6472 60.0707 39.4832 61.3082C38.5926 62.3074 37.6986 63.3663 36.6081 64.1131C34.7366 65.4166 32.9376 66.8211 31.2191 68.3205C29.8921 69.4877 28.7677 70.8668 27.8917 72.4017C26.6568 74.5163 25.5752 76.7168 24.6555 78.9864C23.7229 81.2338 22.9515 83.5444 22.1206 85.834C21.7699 86.8192 21.4193 87.8044 21.0932 88.8037C20.7426 89.9713 20.4095 91.1528 20.0694 92.3274C19.4734 94.3961 18.8738 96.4647 18.2883 98.5369C18.0358 99.4345 17.8465 100.353 17.5871 101.247C17.3486 102.057 17.0331 102.842 16.7806 103.649C16.7207 103.9 16.6994 104.159 16.7175 104.417C16.7175 104.652 16.7911 104.887 16.7982 105.118C16.8474 105.884 17.0886 106.626 17.4994 107.274C17.7834 107.769 18.0394 108.277 18.3093 108.775C18.3633 108.903 18.4379 109.022 18.5302 109.126C19.3682 109.841 20.2377 110.542 21.0371 111.327C21.7789 111.982 22.6205 112.513 23.53 112.902C24.1927 113.224 24.8168 113.628 25.4514 114.01C25.5367 114.075 25.608 114.157 25.6613 114.25C25.7146 114.344 25.7488 114.447 25.7619 114.554C25.7749 114.66 25.7666 114.769 25.7374 114.872C25.7082 114.975 25.6586 115.072 25.5917 115.156C25.4444 115.353 25.1078 115.451 25.2095 115.822C25.2411 115.931 24.6731 115.998 24.5083 115.889L23.7755 115.37ZM12.4645 110.279H11.9211L11.9772 109.848C10.5116 110.272 9.52282 109.353 8.54109 108.796C8.63439 108.596 8.69251 108.381 8.71289 108.161C8.71289 108.088 8.41487 107.99 8.25358 107.986C7.79427 107.986 7.32795 108.067 6.87565 108.014C5.82379 107.895 4.77194 107.944 3.74813 107.572C3.02936 107.313 2.20891 107.316 1.43054 107.222C1.24286 107.221 1.05572 107.242 0.873054 107.285C0.985447 107.409 1.12977 107.5 1.29029 107.548C2.05464 107.807 2.82249 108.062 3.59386 108.312C4.34769 108.558 5.10502 108.807 5.86587 109.013C6.40231 109.171 6.95278 109.273 7.48923 109.431C8.02568 109.588 8.61472 109.816 9.18272 110.002C10.1364 110.311 11.1006 110.595 12.0508 110.917C12.6679 111.128 13.2604 111.429 13.881 111.618C14.5016 111.808 15.1082 111.878 15.7042 112.067C17.0366 112.495 18.3584 112.954 19.6767 113.414C20.122 113.571 20.5463 113.792 20.9916 113.95C21.4368 114.108 21.9733 114.22 22.4501 114.395C23.1303 114.644 23.793 114.939 24.4627 115.209C24.6717 115.033 24.8718 114.847 25.0622 114.651C25.3322 114.353 25.2726 114.101 24.9045 113.975C24.3775 113.772 23.8375 113.604 23.2881 113.473C22.4621 113.315 21.6842 112.967 21.0161 112.456C19.8896 111.579 18.8105 110.643 17.7834 109.651C17.37 109.199 17.0368 108.68 16.7982 108.116C16.4795 107.449 16.2009 106.764 15.9637 106.065C15.7042 105.318 15.6727 104.578 16.1951 103.898C16.2594 103.792 16.2944 103.671 16.2968 103.547C16.3178 103.281 16.3248 103.014 16.3178 102.748C16.304 102.601 16.2782 102.456 16.2407 102.313C16.0934 102.366 15.9497 102.429 15.8024 102.471C15.6896 102.509 15.5705 102.524 15.4518 102.516C15.419 102.496 15.392 102.468 15.3735 102.434C15.3551 102.4 15.3458 102.362 15.3466 102.324C15.5149 101.766 15.6972 101.209 15.8866 100.665C15.9707 100.437 16.1776 100.402 16.3914 100.549C16.16 101.184 16.16 101.195 16.5738 101.38L16.686 100.465L15.9462 100.115L16.8508 97.2922L16.6895 97.2256C16.5653 97.4256 16.4631 97.6383 16.3844 97.8602C16.1145 99.0312 15.5955 100.118 15.3711 101.317C15.149 102.244 14.767 103.124 14.2421 103.919C13.7455 104.83 13.0592 105.624 12.2296 106.247C11.318 106.885 10.4239 107.516 9.32297 107.779C9.19324 107.811 9.07403 107.863 8.94781 107.905C9.00072 107.957 9.06433 107.995 9.13406 108.019C9.20378 108.043 9.27788 108.051 9.35102 108.042C9.62099 107.986 9.87695 107.877 10.1469 107.821C10.6062 107.723 11.0796 107.688 11.5284 107.558C11.868 107.492 12.1832 107.334 12.44 107.103C12.7228 106.801 13.089 106.591 13.4918 106.499C13.5726 106.7 13.6762 106.891 13.8004 107.067C14.0563 107.351 14.3438 107.607 14.6278 107.867C14.9784 108.182 15.308 108.508 15.6797 108.807C16.1495 109.203 16.6439 109.567 17.1137 109.964C17.2434 110.076 17.289 110.286 17.4223 110.388C17.9412 110.784 18.4741 111.156 19.0106 111.538C19.1748 111.642 19.3245 111.766 19.4559 111.909C19.4949 111.961 19.5203 112.022 19.5295 112.087C19.5386 112.151 19.5314 112.217 19.5084 112.278C19.4621 112.322 19.4068 112.355 19.3462 112.376C19.2857 112.396 19.2214 112.404 19.1578 112.397C19.0281 112.397 18.9124 112.253 18.7792 112.229C18.6459 112.204 18.4811 112.229 18.4285 112.288C18.2637 112.569 18.0779 112.463 17.9026 112.344C17.8255 112.295 17.7413 112.186 17.6887 112.201C16.9875 112.376 16.6684 111.692 16.1145 111.566C16.1145 111.566 16.1145 111.489 16.0794 111.461C16.0093 111.377 15.9427 111.25 15.8515 111.226C15.6096 111.163 15.3536 111.156 15.1082 111.107C14.9884 111.068 14.8712 111.021 14.7576 110.966C14.3473 110.83 14.0879 110.346 13.5725 110.44V110.893L12.482 110.272L13.292 110.419L13.313 110.311L12.2717 109.981L12.2261 110.114L12.4645 110.279ZM23.1409 80.3257C23.2005 80.203 23.2601 80.0768 23.3162 79.9506C23.9823 78.4289 24.638 76.8967 25.3217 75.3925C25.6723 74.6142 26.0825 73.8638 26.4472 73.0925C26.8118 72.3211 27.0818 71.6023 27.4675 70.8906C27.7506 70.427 28.0757 69.9904 28.4387 69.5863C28.7367 69.2357 29.0663 68.885 29.3854 68.5344C29.7746 68.1207 30.1532 67.7 30.56 67.3073C30.7493 67.1249 31.0087 67.0197 31.2156 66.855C32.2219 66.0591 33.2176 65.2526 34.2169 64.4567C34.6341 64.1236 35.0689 63.8221 35.4756 63.482C36.0086 63.0297 36.5275 62.5494 37.0429 62.0795C38.4866 60.8963 39.7082 59.4657 40.6508 57.8546C42.1549 55.1583 43.028 52.2236 43.88 49.2854C44.199 48.1845 44.5181 47.0836 44.7881 45.9686C45.1387 44.4644 45.4893 42.9463 45.8084 41.4351C45.815 41.172 45.8587 40.9111 45.9381 40.6602C46.0103 40.5512 46.0547 40.4261 46.0675 40.2959C46.0804 40.1658 46.0612 40.0345 46.0117 39.9134C45.9743 39.7852 45.9743 39.6489 46.0117 39.5207C46.0955 39.3263 46.1681 39.1273 46.2291 38.9247C46.4079 37.673 46.5587 36.4177 46.734 35.166C46.8427 34.3806 46.9935 33.5988 47.0846 32.8099C47.2704 31.3268 47.4037 29.8401 47.6141 28.3605C47.7543 27.3893 47.9962 26.4321 48.1786 25.4644C48.4029 24.2548 48.4029 23.0101 48.7466 21.818C48.9475 20.9212 49.0904 20.0124 49.1743 19.0972C49.0406 19.0933 48.9077 19.0745 48.7781 19.0411C48.2592 18.8587 47.7473 18.6519 47.2319 18.4661C45.577 17.863 43.9115 17.2915 42.2671 16.6639C40.4264 15.9626 38.5996 15.2228 36.7729 14.4795C36.1383 14.2236 35.5247 13.915 34.9041 13.6275C34.5745 13.4732 34.3466 13.4838 34.3046 13.929C34.283 14.2079 34.2289 14.4833 34.1433 14.7495C33.2402 17.2642 32.1454 19.7058 30.8685 22.0529C30.595 22.5578 30.3215 23.0592 30.1357 23.3958C30.3558 23.8302 30.5342 24.2845 30.6686 24.7526C30.6913 25.1099 30.64 25.468 30.5179 25.8045C30.4688 25.9868 30.3391 26.2393 30.1953 26.2813C29.757 26.4041 29.2732 26.653 28.8279 26.057L26.4226 31.1795C26.8679 31.1409 27.1765 30.6255 27.4745 31.1795C27.5092 31.2238 27.5342 31.275 27.548 31.3296C27.5617 31.3842 27.5639 31.4411 27.5543 31.4966C27.5447 31.5521 27.5236 31.6049 27.4924 31.6518C27.4611 31.6986 27.4204 31.7384 27.3728 31.7685C26.9346 32.021 26.7102 31.5932 26.4051 31.3934C26.3595 31.4951 26.3069 31.5967 26.2649 31.6984C25.6758 33.1009 24.8624 34.3982 24.4627 35.8813C24.3154 36.4283 23.9578 36.9121 23.7895 37.4556C23.6212 37.999 23.0216 38.3111 23.218 38.9527C22.5782 40.5737 22.0441 42.2344 21.6192 43.9245C21.2517 45.1308 21.0005 46.3694 20.8688 47.6235C20.7531 48.9559 20.676 50.2952 20.6339 51.6311C20.6129 52.2938 20.7987 52.9669 20.7391 53.6226C20.6655 54.4746 20.8653 55.2775 20.9355 56.105C21.0932 57.8756 21.7454 59.506 22.2468 61.1784C22.5027 62.0269 22.8043 62.8649 23.0427 63.7204C23.3477 64.8179 23.5932 65.9328 23.8877 67.0338C24.1696 67.9414 24.3034 68.8885 24.2839 69.8387C24.1613 71.7532 23.8739 73.6536 23.4249 75.5187C23.0041 77.2473 22.7447 79.0249 22.0224 80.6869C21.8784 81.1151 21.7716 81.555 21.7033 82.0017C22.7552 81.2444 22.7552 81.2444 22.8323 80.8411L22.387 80.4905L22.6745 80.0417L23.1409 80.3257ZM18.7476 91.0021C19.519 90.9355 19.4488 90.3324 19.5786 89.9046C19.6101 89.796 19.4734 89.6312 19.4138 89.4909L19.284 89.5049L18.7476 91.0021ZM20.9285 86.2968C20.8303 86.2091 20.7251 86.0373 20.6374 86.0478C20.2588 86.0829 20.3184 86.4686 20.1992 86.707C20.1992 86.7421 20.385 86.9665 20.5007 86.977C21.0371 87.0296 20.7181 86.5527 20.9285 86.2968ZM22.5834 81.7668C22.3787 81.8649 22.2016 82.0124 22.0682 82.196C21.9347 82.3797 21.8491 82.5936 21.819 82.8186C21.819 82.8923 21.8997 82.9939 21.9452 83.0851C22.0189 83.0395 22.1311 83.008 22.1591 82.9449C22.3099 82.5662 22.4396 82.163 22.5834 81.7668ZM21.2721 85.2449C21.5 84.74 21.5 84.74 21.0827 84.0668L20.7321 84.9399L21.2721 85.2449ZM19.8415 88.1025C19.3401 88.7336 19.3401 89.2139 19.8415 89.3577V88.1025ZM18.8353 91.3562L18.7231 91.3176C18.4467 91.6407 18.2972 92.0531 18.3023 92.4782C18.3247 92.5803 18.365 92.6777 18.4215 92.7657L18.5478 92.7411C18.5968 92.5623 18.7371 92.2678 18.6775 92.2222C18.3269 91.9277 18.6179 91.7805 18.7651 91.5876C18.8002 91.5195 18.8239 91.446 18.8353 91.3702V91.3562ZM29.3749 25.1348L29.473 25.3207L29.8868 25.1769L29.7395 24.8263L29.3749 25.1348Z" fill="#4A4700"/>
<path id="Vector_3" d="M47.8279 80.1852C47.7524 79.8524 47.709 79.5131 47.6982 79.172C47.7823 77.4434 47.9015 75.7149 48.0067 73.9863C48.0839 72.6925 48.1575 71.4022 48.2416 70.1085C48.2977 69.2494 48.3433 68.3869 48.459 67.5349C48.4924 67.4005 48.5521 67.274 48.6345 67.1627C48.7169 67.0514 48.8205 66.9574 48.9394 66.8863C49.1427 66.7776 49.4162 67.1913 49.4162 67.5875C49.4164 69.5628 49.2687 71.5352 48.9744 73.4884C48.6472 75.6319 48.3164 77.773 47.9822 79.9118C47.9628 80.0038 47.9358 80.0941 47.9015 80.1817L47.8279 80.1852Z" fill="#4A4700"/>
<path id="Vector_4" d="M52.2843 0.79834C52.2527 1.9098 52.2387 3.02126 52.1791 4.13273C52.1265 5.07589 52.0704 6.02256 51.9337 6.93768C51.7759 7.98953 51.5305 9.04139 51.3131 10.0932C51.1939 10.6507 50.7486 10.2089 50.5102 10.4123L50.3734 10.3282C50.6153 8.69778 50.8327 7.0674 51.1027 5.44404C51.3727 3.82067 51.4884 2.2499 52.2843 0.79834Z" fill="#4A4700"/>
<path id="Vector_5" d="M42.8947 70.8799C43.4066 69.6773 43.8309 68.4256 44.4515 67.2826C45.0662 66.2526 45.7528 65.2673 46.5061 64.3339C46.6218 64.1761 46.9058 64.141 47.1653 64.106C47.0776 64.5933 47.1653 65.0351 46.8462 65.4629C46.2011 66.3394 45.6821 67.3036 45.065 68.2012C44.448 69.0988 43.7187 70.0419 43.042 70.9606L42.8947 70.8799Z" fill="#4A4700"/>
<path id="Vector_6" d="M57.3788 8.28736C57.0816 8.69019 56.7571 9.07209 56.4076 9.43038C55.3978 10.3139 54.3459 11.1519 53.3362 12.0179C53.2891 12.0746 53.2302 12.1202 53.1635 12.1515C53.0968 12.1827 53.0241 12.199 52.9505 12.199C52.8768 12.199 52.8041 12.1827 52.7374 12.1515C52.6708 12.1202 52.6118 12.0746 52.5648 12.0179C52.3649 11.8216 52.2948 11.6323 52.5648 11.4184C53.9673 10.2403 55.3697 9.08327 57.0352 8.29437C57.1197 8.25764 57.2063 8.22603 57.2946 8.19971L57.3788 8.28736Z" fill="#4A4700"/>
<path id="Vector_7" d="M44.9774 6.26465C45.1281 6.47853 45.2929 6.68539 45.4227 6.90979C45.7616 7.51051 46.0958 8.10774 46.4254 8.70145C46.6814 9.17829 46.9268 9.66565 47.1687 10.153C47.247 10.2842 47.3027 10.4276 47.3335 10.5773C47.3433 10.6432 47.334 10.7105 47.3069 10.7714C47.2798 10.8322 47.2358 10.8841 47.1803 10.9209C47.1247 10.9577 47.0598 10.9779 46.9932 10.9791C46.9266 10.9804 46.861 10.9626 46.8041 10.9279C46.5821 10.8103 46.3929 10.6391 46.2536 10.43C45.5623 9.17604 45.0803 7.81765 44.8266 6.4084L44.9774 6.26465Z" fill="#4A4700"/>
<path id="Vector_8" d="M55.3241 67.4159C54.1671 67.0863 53.5255 66.2027 52.7786 65.4594C52.6629 65.3472 52.7155 65.0667 52.691 64.8599C52.8586 64.8742 53.023 64.9144 53.1783 64.9791C53.8574 65.4283 54.4325 66.0177 54.8648 66.7076C55.0086 66.9355 55.1488 67.1564 55.3241 67.4159Z" fill="#4A4700"/>
<path id="Vector_9" d="M62.3821 30.9693C62.9817 30.787 63.0378 30.8326 63.3393 31.7968C63.4795 31.6811 63.6513 31.6039 63.6899 31.4882C63.7285 31.3725 63.5742 31.2498 63.5111 31.1376C63.448 31.0254 63.3183 30.8887 63.3428 30.787C63.4109 30.432 63.5427 30.0922 63.732 29.7842C63.8372 29.6405 64.1913 29.6475 64.4332 29.651C64.6752 29.6545 64.882 29.7737 65.1064 29.7842C65.1689 29.7757 65.2287 29.7533 65.2815 29.7188C65.3343 29.6842 65.3787 29.6383 65.4115 29.5844C65.504 29.4197 65.6501 29.2916 65.8255 29.2215C66.0009 29.1513 66.1951 29.1433 66.3757 29.1987C66.6316 29.2829 66.8981 29.3495 67.0769 29.4021C67.1669 29.0361 67.3149 28.6869 67.5152 28.3677C67.7589 28.1673 68.0385 28.015 68.3391 27.9189C68.5775 28.1363 68.8335 28.2696 68.9282 28.4799C69.1194 28.8066 69.212 29.1817 69.1946 29.5598C69.1596 29.7597 68.6897 29.8859 68.4057 30.0262C68.3426 30.0577 68.2409 30.0262 68.1568 30.0016C67.985 30.0016 67.729 29.7877 67.701 30.1173C67.68 30.3663 67.8938 30.4995 68.1568 30.4679C68.202 30.4613 68.2466 30.4507 68.29 30.4364C68.5635 30.8712 68.262 31.2709 68.1989 31.6706C68.1813 31.7758 67.8798 31.8319 67.694 31.9195C67.8589 32.0038 68.0161 32.1023 68.1638 32.214C68.3777 32.3999 68.6722 32.5646 68.283 32.9153C68.2059 32.9819 68.283 33.2238 68.2585 33.3781C68.2545 33.4984 68.2114 33.614 68.1358 33.7077C68.0902 33.7497 67.8903 33.7077 67.8447 33.641C67.4591 33.1116 66.849 33.1467 66.3161 32.9924C66.1302 32.9398 65.9654 32.8697 65.7375 32.7996L65.8988 32.4489C65.8462 32.4174 65.8077 32.3788 65.7796 32.3858C65.6256 32.437 65.4671 32.4734 65.3063 32.4945C65.0889 32.4945 64.7593 32.4945 64.6822 32.3823C64.6442 32.3271 64.6191 32.2641 64.6086 32.1978C64.5982 32.1316 64.6027 32.0639 64.6219 31.9997C64.6411 31.9354 64.6744 31.8763 64.7194 31.8266C64.7644 31.777 64.82 31.738 64.882 31.7126C64.9689 31.654 65.05 31.5871 65.1239 31.5128C64.5314 31.5338 64.3245 31.6986 64.2264 32.1544C64.2088 32.2456 64.1738 32.3858 64.1142 32.4104C63.6373 32.5927 63.157 32.761 62.5995 32.9468C62.6381 33.343 62.6521 33.8093 62.7362 34.2616C62.7993 34.6123 62.7818 34.8472 62.4242 35.0225C62.2449 35.1439 62.1193 35.3298 62.0736 35.5414L61.6353 35.6115L61.2847 35.1136C61.5495 34.7158 61.7839 34.2986 61.9859 33.8654C62.0367 33.5849 62.0367 33.2975 61.9859 33.0169C61.9859 32.9503 62.0245 32.8802 62.028 32.8136C62.056 32.4139 62.2524 32.463 62.5469 32.6698C62.4312 32.0773 62.014 31.5443 62.3821 30.9553V30.9693Z" fill="#4A4700"/>
<path id="Vector_10" d="M74.7835 77.4226C74.5415 77.1527 74.2786 76.8967 74.0612 76.6092C73.7883 76.2554 73.5388 75.8841 73.3144 75.4977C73.104 75.1471 72.9637 74.7264 72.7569 74.3547C72.55 73.9831 72.2906 73.5904 72.0556 73.2082C71.7401 72.7033 71.4526 72.1563 71.0914 71.697C70.7462 71.3012 70.3787 70.9254 69.9905 70.5715L70.1237 70.3997C69.703 70.2174 69.3173 70.0211 68.9141 69.8843C68.7381 69.8358 68.5859 69.7244 68.4864 69.5713C68.387 69.4182 68.347 69.2339 68.3741 69.0534L69.0754 69.1305C69.1175 69.1305 69.1806 69.1305 69.1946 69.148C69.5242 69.6284 70.0676 69.702 70.5585 69.8703C70.6224 69.8986 70.692 69.9118 70.7619 69.9089C71.5332 69.8352 72.3291 69.8808 73.0304 69.439C73.568 69.1048 74.1114 68.7822 74.6607 68.4713C74.8816 68.3416 75.1236 68.2504 75.362 68.1418L75.1621 67.9068L75.3865 68.1698L75.7371 67.6895L75.9019 67.7596C75.3129 69.0323 75.0955 70.3857 74.8115 71.7251L74.9342 71.7636C74.8676 71.8092 74.7449 71.8548 74.7484 71.8969C74.7484 72.3913 74.4363 72.8541 74.7098 73.38C74.8179 73.7101 74.8805 74.0533 74.8957 74.4003C74.9763 74.8351 74.822 75.3365 75.2463 75.6801C75.2489 75.6862 75.2502 75.6927 75.2502 75.6993C75.2502 75.706 75.2489 75.7125 75.2463 75.7186L74.9833 77.37L74.7835 77.4226ZM71.0108 70.5891L72.8165 72.9417L73.1671 72.4824L73.8683 73.3975L74.0086 73.3274C73.9876 71.8864 74.524 70.5575 74.822 69.148C74.4254 69.3275 74.0483 69.5472 73.6965 69.8037C73.3459 70.0421 73.0409 70.3226 72.6797 70.5295C72.4434 70.6362 72.195 70.7139 71.9399 70.7609V70.5996C71.6489 70.5891 71.379 70.5891 71.0108 70.5891Z" fill="#4A4700"/>
<path id="Vector_11" d="M62.4102 30.9515C62.1823 31.1162 61.9754 31.274 62.0596 31.6176C62.0552 31.678 62.0375 31.7367 62.0078 31.7894C61.9781 31.8421 61.9371 31.8876 61.8878 31.9227C61.6339 32.0775 61.4134 32.2813 61.2388 32.522C61.0643 32.7627 60.9392 33.0357 60.871 33.3251C60.7668 33.6039 60.5934 33.8516 60.367 34.0448C60.1407 34.238 59.8689 34.3704 59.5772 34.4296C59.465 34.4296 59.3633 34.5628 59.2266 34.647L57.5752 33.9002C57.626 33.7016 57.7387 33.5243 57.8969 33.3938C58.055 33.2634 58.2505 33.1865 58.4552 33.1744C58.5808 33.1671 58.7053 33.1471 58.8269 33.1148C58.8865 33.0937 58.925 32.9991 58.9741 32.9395C58.9163 32.8886 58.8541 32.8428 58.7883 32.8027C58.7602 32.8027 58.7077 32.8027 58.6656 32.8027L57.1123 33.1358V33.837C56.7196 33.837 56.3445 33.8721 56.085 33.4619C55.9904 33.3076 55.7344 33.255 55.6292 33.1113C55.4574 32.9009 55.226 32.652 55.219 32.41C55.219 32.112 55.7625 31.9086 56.1166 32.0103C56.4181 32.0945 56.7021 32.3224 57.0247 32.0699C57.0247 32.0699 57.0527 32.0699 57.0597 32.0489C57.6383 31.3722 58.2483 31.5335 58.8128 31.9682C59.0653 31.835 59.2827 31.7368 59.486 31.6176C59.5685 31.5571 59.6367 31.4794 59.6859 31.3897C59.8191 31.1688 59.8857 30.8673 60.0751 30.7306C60.2644 30.5938 60.8955 30.9024 61.0463 31.1443L61.2356 31.4388C61.3639 31.1905 61.4548 30.9247 61.5056 30.6499C61.5056 30.1661 61.9053 30.2502 62.1612 30.1836C62.2559 30.1626 62.4137 30.3729 62.5399 30.4781C62.5584 30.4992 62.5737 30.5228 62.5855 30.5482L62.3927 30.9795L62.4102 30.9515Z" fill="#4A4700"/>
<path id="Vector_12" d="M53.6447 36.3196L54.3459 35.7236C54.283 35.5088 54.1959 35.3018 54.0864 35.1065C54.0394 35.0568 53.981 35.0194 53.9162 34.9974C53.8515 34.9754 53.7823 34.9695 53.7148 34.9803C53.3466 35.103 53.3011 34.8926 53.3151 34.6297C53.3151 34.4929 53.4062 34.3597 53.4098 34.2264C53.4032 34.0175 53.3845 33.8091 53.3537 33.6023C53.3537 33.4972 53.2905 33.3394 53.3537 33.2973C53.5769 33.0503 53.846 32.849 54.1461 32.7048C54.3319 32.6522 54.6194 32.9081 54.8473 33.0554C54.9805 33.143 55.0717 33.2973 55.1979 33.406C55.2871 33.4802 55.3595 33.5725 55.4104 33.6768C55.4613 33.781 55.4895 33.8949 55.4932 34.0109C55.4968 34.1269 55.4758 34.2423 55.4316 34.3496C55.3873 34.4568 55.3208 34.5535 55.2365 34.6332C55.1173 34.7629 55.0016 34.8961 54.8263 35.096C55.0011 35.1923 55.1856 35.2699 55.3767 35.3274C55.4429 35.3348 55.5069 35.3552 55.5652 35.3874C55.6234 35.4197 55.6747 35.4631 55.7161 35.5153C55.7574 35.5674 55.7881 35.6272 55.8063 35.6912C55.8245 35.7553 55.8298 35.8223 55.822 35.8884C55.822 36.0216 55.559 36.1689 55.3872 36.239C55.2154 36.3091 55.0366 36.3337 55.0051 36.6352C55.0051 36.7614 54.6545 36.9437 54.4616 36.9613C54.2688 36.9788 53.8796 37.07 53.7428 36.7088C53.7043 36.5616 53.6692 36.4424 53.6447 36.3196Z" fill="#4A4700"/>
<path id="Vector_13" d="M58.5533 35.762C58.7847 35.8777 58.9776 35.9198 59.0758 36.039C59.1822 36.1521 59.2432 36.3005 59.247 36.4557C59.2509 36.611 59.1974 36.7622 59.0968 36.8805C58.911 37.1294 58.7462 37.4029 58.634 37.5817C58.8746 37.6872 59.0989 37.8266 59.3002 37.9954C59.3471 38.0646 59.3723 38.1461 59.3727 38.2297C59.3731 38.3132 59.3486 38.395 59.3023 38.4646C59.2561 38.5341 59.1901 38.5884 59.113 38.6203C59.0358 38.6523 58.9508 38.6606 58.8689 38.6441C58.7462 38.623 58.5533 38.4372 58.5639 38.339C58.6129 37.8166 58.343 37.5607 57.9433 37.2626C57.5926 37.0067 57.4138 36.5369 57.1298 36.1161L57.7083 35.7375C57.5826 35.4565 57.484 35.1641 57.4138 34.8644C57.3472 34.335 57.6522 34.1211 58.1326 34.335C58.4528 34.4718 58.7583 34.641 59.0442 34.8399C59.1459 34.917 59.1634 35.1484 59.1634 35.3097C59.1634 35.4009 59.0512 35.506 58.9636 35.5692C58.8333 35.6465 58.6959 35.711 58.5533 35.762Z" fill="#4A4700"/>
<path id="Vector_14" d="M55.1173 41.8698C55.1799 41.8881 55.2409 41.9116 55.2996 41.94C55.7274 42.224 55.9833 42.1679 56.2288 41.7156C56.4742 41.2633 56.951 41.2037 57.3683 41.0774C57.4875 41.0424 57.7189 41.2633 57.8381 41.4281C57.8872 41.4947 57.8171 41.7261 57.7329 41.8137C57.3297 42.2205 56.9265 42.6167 56.2989 42.6763C56.1131 42.6763 55.9483 42.8761 55.7589 42.9533C55.5696 43.0304 55.3803 43.1005 55.3277 43.0444C55.1724 42.8733 55.0627 42.6659 55.0086 42.4413C55.0097 42.2458 55.0465 42.0521 55.1173 41.8698Z" fill="#4A4700"/>
<path id="Vector_15" d="M63.0834 48.7527L63.462 50.1551C63.5988 50.2288 63.9775 50.2919 63.8127 50.7231C63.7015 50.9187 63.5271 51.0708 63.3181 51.1542C63.1091 51.2377 62.878 51.2476 62.6626 51.1824L63.0518 50.937L62.7678 50.7231C62.8652 50.6371 62.9502 50.538 63.0203 50.4286C63.0518 50.3655 63.0203 50.1902 62.9817 50.1867C62.3716 50.064 62.6311 49.4083 62.1858 49.0857L62.7608 48.9245C62.7608 48.6054 62.1262 48.3074 62.6802 47.9988C62.7924 47.9357 63.2166 47.8726 63.3814 48.1671C63.5462 48.4616 63.3534 48.6755 63.0834 48.7527Z" fill="#4A4700"/>
<path id="Vector_16" d="M72.0136 54.5235L72.3046 54.8495C71.8803 55.5753 71.2527 55.4561 70.9792 54.9477C70.9122 54.7499 70.9122 54.5355 70.9792 54.3376C71.0318 54.0992 71.2282 54.0396 71.4666 54.0852C71.5078 54.0858 71.5487 54.0773 71.5863 54.0604C71.6238 54.0434 71.6572 54.0183 71.684 53.987C71.8453 53.7731 71.968 53.5277 72.1433 53.3279C72.1891 53.283 72.2444 53.249 72.305 53.2283C72.3657 53.2077 72.4303 53.201 72.4939 53.2086C72.5487 53.2404 72.5953 53.2845 72.63 53.3375C72.6647 53.3905 72.6865 53.4508 72.6938 53.5137C72.7639 54.0922 72.7148 54.1693 72.0136 54.5235Z" fill="#4A4700"/>
<path id="Vector_17" d="M73.1987 42.1714C73.358 42.2231 73.4942 42.3289 73.5838 42.4703C73.6734 42.6118 73.7109 42.7801 73.6896 42.9463C73.7226 43.1672 73.8378 43.3675 74.0122 43.5072C74.3628 43.8088 74.3628 44.0086 73.9666 44.2506C73.353 44.6292 72.9463 44.4469 72.8236 43.7387C72.7726 43.5398 72.7316 43.3385 72.7008 43.1356C72.6755 42.9433 72.7096 42.7478 72.7986 42.5754C72.8876 42.4031 73.0272 42.2621 73.1987 42.1714Z" fill="#4A4700"/>
<path id="Vector_18" d="M68.56 30.4363C68.8896 30.4047 69.2192 30.3627 69.5523 30.3486C69.7942 30.3486 69.9941 30.4223 70.0256 30.6993C70.0572 30.9762 70.1904 31.0499 70.4569 30.9762C70.8846 30.8395 70.8075 31.2006 70.8531 31.4145C70.8987 31.6284 70.7584 31.8668 70.5025 31.7967C69.9643 31.6655 69.4404 31.4811 68.9387 31.2462C68.7143 31.134 68.5881 30.8009 68.4373 30.5695L68.56 30.4363Z" fill="#4A4700"/>
<path id="Vector_19" d="M63.5777 54.4849L64.4017 54.7934C64.2325 54.825 64.0676 54.8768 63.9108 54.9477C63.8161 55.0143 63.7706 55.1475 63.6338 55.3544C64.4823 55.1931 64.8575 55.6174 65.0714 56.2345C65.1169 56.3925 65.1169 56.5602 65.0714 56.7183C64.9977 56.9567 64.8224 57.0163 64.6226 56.8375C64.328 56.5781 64.0335 56.3221 63.76 56.0416C63.6659 55.9467 63.6056 55.8235 63.5882 55.691C63.5637 55.2983 63.5777 54.9161 63.5777 54.4849Z" fill="#4A4700"/>
<path id="Vector_20" d="M69.0333 35.1906L69.4821 34.84C69.5803 35.0258 69.7486 35.2116 69.7451 35.3939C69.7451 35.5131 69.5137 35.699 69.3594 35.7446C69.2051 35.7901 69.0719 35.6078 68.9211 35.5412C68.7704 35.4746 68.6406 35.3729 68.5285 35.401C68.4064 35.4394 68.2744 35.4304 68.1588 35.3758C68.0431 35.3212 67.9523 35.225 67.9043 35.1064C67.8608 35.0181 67.8381 34.9209 67.8381 34.8224C67.8381 34.7239 67.8608 34.6268 67.9043 34.5384C67.9884 34.4561 68.0883 34.3915 68.198 34.3488C68.3076 34.306 68.4248 34.2858 68.5425 34.2895C69.0719 34.3175 69.2087 34.6121 69.0333 35.1906Z" fill="#4A4700"/>
<path id="Vector_21" d="M70.8426 52.1324L70.541 52.483C70.4358 52.3568 70.2746 52.2446 70.236 52.1008C70.1378 51.7081 70.236 51.5854 70.6602 51.2383C70.9653 51.4206 71.2843 51.5889 71.5789 51.7887C71.6484 51.8436 71.7058 51.9122 71.7475 51.9903C71.7892 52.0683 71.8143 52.1542 71.8213 52.2425C71.8282 52.3307 71.8167 52.4195 71.7877 52.5031C71.7587 52.5867 71.7126 52.6634 71.6525 52.7284C71.393 52.9984 71.2142 52.8932 71.067 52.6337C70.9838 52.4705 70.9089 52.3032 70.8426 52.1324Z" fill="#4A4700"/>
<path id="Vector_22" d="M68.2585 63.7171C68.4303 63.7171 68.7458 63.7486 68.7774 64.1413C68.7774 64.257 68.7949 64.4359 68.7283 64.492C68.5914 64.5674 68.4391 64.6105 68.283 64.6182C68.248 64.617 68.2136 64.609 68.1817 64.5946C68.1499 64.5802 68.1211 64.5596 68.0972 64.534C67.6681 64.1053 67.3858 63.5518 67.2908 62.9527C67.2908 62.8686 67.3328 62.7108 67.3784 62.7003C67.4296 62.6907 67.4823 62.6927 67.5326 62.706C67.583 62.7194 67.6297 62.7438 67.6694 62.7774C67.8658 63.0474 68.0201 63.3489 68.2585 63.7171Z" fill="#4A4700"/>
<path id="Vector_23" d="M66.4388 36.5617C66.3231 36.7265 66.2354 36.8422 66.1583 36.9684C66.076 37.1277 65.9847 37.2823 65.8848 37.4312C65.5587 37.8379 65.2292 37.8204 64.9276 37.3962C64.8119 37.2384 65.0223 36.6073 65.2327 36.481C65.6324 36.3722 66.0571 36.4006 66.4388 36.5617Z" fill="#4A4700"/>
<path id="Vector_24" d="M56.2288 40.2148C55.5486 40.4743 55.4399 39.8888 55.1313 39.5136L54.7457 40.001C54.5949 39.8572 54.367 39.7345 54.3319 39.5697C54.3312 39.4715 54.3511 39.3743 54.3904 39.2843C54.4297 39.1943 54.4874 39.1135 54.5598 39.0473C54.7877 38.8124 55.0682 38.914 55.212 39.2191C55.2576 39.3102 55.3908 39.4365 55.4749 39.4259C56.057 39.3734 56.0535 39.3628 56.1446 39.9414C56.1666 40.0343 56.1947 40.1256 56.2288 40.2148Z" fill="#4A4700"/>
<path id="Vector_25" d="M58.2027 41.5228C57.9293 41.081 57.7259 40.6322 58.1151 40.0923L59.1669 40.5165C59.1567 40.773 59.053 41.0169 58.8754 41.2023C58.6978 41.3876 58.4586 41.5016 58.2027 41.5228Z" fill="#4A4700"/>
<path id="Vector_26" d="M71.4421 33.4653L71.6735 33.816L71.0705 34.0263C71.0705 33.8545 71.0144 33.6757 71.0705 33.5951C71.1555 33.4802 71.2035 33.3421 71.2079 33.1992C71.2123 33.0563 71.1729 32.9155 71.095 32.7957C71.0679 32.7419 71.0536 32.6827 71.0533 32.6225C71.0529 32.5623 71.0665 32.5029 71.093 32.4489C71.1195 32.3949 71.1582 32.3477 71.206 32.3111C71.2538 32.2746 71.3094 32.2496 71.3685 32.2382C71.46 32.2146 71.5557 32.2125 71.6481 32.2319C71.7405 32.2514 71.8272 32.2919 71.9014 32.3504C71.9638 32.4294 72.0062 32.5223 72.0251 32.6211C72.044 32.72 72.0389 32.8219 72.0101 32.9184C71.912 33.1217 71.663 33.262 71.4421 33.4653Z" fill="#4A4700"/>
<path id="Vector_27" d="M55.8325 33.8687C56.2182 33.9002 56.5723 33.9248 56.93 33.9598C57.2876 33.9949 57.2806 34.2438 57.207 34.5103C57.1333 34.7768 57.0106 35.0222 56.6495 34.8609C56.5769 34.8243 56.5019 34.7927 56.4251 34.7662C55.815 34.6225 55.815 34.6225 55.8325 33.8687Z" fill="#4A4700"/>
<path id="Vector_28" d="M70.5024 49.9868C70.3177 49.9781 70.1354 49.9403 69.9625 49.8746C69.9234 49.8317 69.8956 49.7798 69.8815 49.7235C69.8674 49.6672 69.8675 49.6083 69.8818 49.552C70.0081 49.3452 70.1238 49.1629 69.8818 48.9665C69.7065 48.8298 69.5698 48.6475 69.8047 48.5072C69.996 48.4087 70.2168 48.3838 70.4253 48.4371C70.4954 48.4581 70.5165 48.7667 70.5165 48.942C70.5165 49.0191 70.4113 49.0962 70.3376 49.2014C70.6423 49.2376 70.9444 49.2927 71.2422 49.3662C71.2913 49.3662 71.2808 49.6081 71.3054 49.8045L70.3447 49.2926L70.5024 49.9868Z" fill="#4A4700"/>
<path id="Vector_29" d="M71.6945 41.9959C71.2913 41.9153 71.0248 41.8241 70.9933 41.4805C71.0068 41.3806 71.0405 41.2844 71.0922 41.1978C71.1439 41.1112 71.2126 41.036 71.2942 40.9767C71.3758 40.9174 71.4686 40.8753 71.5669 40.8528C71.6652 40.8303 71.7671 40.828 71.8663 40.8459C72.0662 40.8845 72.2169 41.1965 72.3852 41.4104L71.6945 41.9959Z" fill="#4A4700"/>
<path id="Vector_30" d="M61.2075 45.0883L61.1584 44.8184H61.5406H62.0595C61.7089 45.2321 61.474 45.6002 61.9578 46.0736C61.6738 46.1788 61.3337 46.3856 61.2566 46.3155C61.0623 46.101 60.9323 45.8361 60.8814 45.5512C60.8534 45.453 61.0638 45.2882 61.2075 45.0883Z" fill="#4A4700"/>
<path id="Vector_31" d="M57.8521 48.0581L57.2841 48.5244C57.1832 48.3811 57.0985 48.2271 57.0316 48.0651C56.9509 47.758 56.8947 47.4449 56.8633 47.1289C56.8633 47.0483 56.9861 46.8765 57.0316 46.8835C57.3752 46.9326 57.8521 47.5637 57.8521 48.0581Z" fill="#4A4700"/>
<path id="Vector_32" d="M63.3323 35.2819C63.3112 35.0365 63.171 34.6929 63.5742 34.6543C63.7215 34.6543 63.8898 34.8436 64.051 34.9453L63.5952 35.5308L63.8021 35.9726L63.0167 36.1374L62.8765 35.331L63.3323 35.2819Z" fill="#4A4700"/>
<path id="Vector_33" d="M70.4253 65.8382L70.2185 66.3361L69.7346 65.8312L70.0081 65.719L69.6575 64.7653C69.8803 64.7374 70.1061 64.7434 70.3272 64.7828C70.405 64.8186 70.4727 64.8733 70.5242 64.9419C70.5756 65.0104 70.6091 65.0907 70.6217 65.1755C70.6006 65.3508 70.4253 65.5261 70.2991 65.7014H70.9127C70.8706 66.038 70.804 66.0661 70.4253 65.8382Z" fill="#4A4700"/>
<path id="Vector_34" d="M61.1024 39.4083C61.1276 39.2375 61.2047 39.0787 61.3232 38.9532C61.4417 38.8278 61.596 38.7419 61.765 38.707C61.9894 38.707 62.3225 39.1067 62.3225 39.4083C62.3225 39.6327 61.9158 39.9307 61.5827 39.8536C61.3969 39.8115 61.2601 39.566 61.1024 39.4083Z" fill="#4A4700"/>
<path id="Vector_35" d="M65.713 34.8084L65.0994 34.5665V34.009L65.0328 34.0616C64.882 33.8968 64.6226 33.7355 64.6191 33.5672C64.6156 33.399 64.8435 33.1956 64.9697 33.0098C65.1269 33.129 65.2632 33.2735 65.3729 33.4375C65.422 33.5392 65.2993 33.718 65.2326 33.9284C65.4886 34.0862 65.8953 34.272 65.713 34.8084Z" fill="#4A4700"/>
<path id="Vector_36" d="M70.2886 34.0021C69.384 33.5954 69.2157 33.066 69.7346 32.3262C69.8924 32.4664 70.1273 32.5716 70.1799 32.7364C70.2168 32.9675 70.1655 33.204 70.0361 33.3991L70.2886 34.0021Z" fill="#4A4700"/>
<path id="Vector_37" d="M65.6849 60.754C65.8037 60.6161 65.9677 60.5249 66.1475 60.4966C66.3273 60.4684 66.5113 60.5049 66.6667 60.5997C66.8149 60.7475 66.9035 60.9447 66.9156 61.1537C66.9156 61.2203 66.7193 61.3781 66.593 61.3991C66.0706 61.4763 65.9584 61.3851 65.6849 60.754Z" fill="#4A4700"/>
<path id="Vector_38" d="M56.2568 37.9639C56.8213 37.9639 57.1824 38.2409 57.1158 38.5985C57.0913 38.7317 56.7652 38.8685 56.5899 38.8965C56.5101 38.9036 56.4297 38.8935 56.3541 38.867C56.2785 38.8404 56.2095 38.7979 56.1517 38.7425C56.0939 38.687 56.0487 38.6198 56.019 38.5454C55.9894 38.4709 55.976 38.391 55.9798 38.311C56.0044 38.1462 56.2042 38.0165 56.2568 37.9639Z" fill="#4A4700"/>
<path id="Vector_39" d="M69.5733 50.4389C69.3604 50.4861 69.145 50.5213 68.9282 50.5441C68.7885 50.5256 68.6616 50.4534 68.5744 50.3427C68.4873 50.232 68.4469 50.0916 68.4618 49.9515C68.4615 49.8927 68.4752 49.8347 68.5018 49.7823C68.5285 49.7299 68.5673 49.6847 68.615 49.6504C68.6627 49.616 68.7179 49.5936 68.7761 49.585C68.8342 49.5764 68.8936 49.5819 68.9492 49.6009C69.4646 49.685 69.4892 49.6956 69.5733 50.4389Z" fill="#4A4700"/>
<path id="Vector_40" d="M63.8126 62.7528C63.2621 62.5635 62.922 62.1988 63.1114 61.9744C63.3318 61.7832 63.609 61.6698 63.9003 61.6519C63.9634 61.6519 64.1667 62.0025 64.1562 62.1918C64.1457 62.3811 63.9388 62.5494 63.8126 62.7528Z" fill="#4A4700"/>
<path id="Vector_41" d="M75.334 51.2874C75.1551 51.305 74.9758 51.2572 74.8295 51.1527C74.6831 51.0483 74.5796 50.8944 74.5381 50.7194C74.5065 50.6318 74.6994 50.3408 74.7695 50.3478C75.0203 50.3604 75.2629 50.4416 75.4707 50.5827C75.5864 50.7479 75.6341 50.9513 75.604 51.1507C75.6004 51.2348 75.3831 51.2874 75.334 51.2874Z" fill="#4A4700"/>
<path id="Vector_42" d="M67.1926 35.2468C67.2347 35.5974 66.9401 35.5974 66.7859 35.5553C66.5264 35.4676 66.1688 35.3134 66.0846 35.103C65.9724 34.7524 66.3266 34.6612 66.6211 34.6437C66.6993 34.642 66.777 34.6567 66.8492 34.6868C66.9214 34.717 66.9866 34.7619 67.0404 34.8187C67.0942 34.8755 67.1355 34.9429 67.1618 35.0166C67.188 35.0903 67.1985 35.1687 67.1926 35.2468Z" fill="#4A4700"/>
<path id="Vector_43" d="M60.0225 35.1871C60.2924 34.7839 60.7588 34.7278 61.0042 35.0294C61.0252 35.0574 61.0533 35.11 61.0428 35.1275C60.9962 35.1915 60.9632 35.2643 60.9457 35.3414C60.9283 35.4185 60.9267 35.4984 60.9412 35.5762C60.9556 35.654 60.9857 35.728 61.0297 35.7937C61.0737 35.8594 61.1306 35.9155 61.197 35.9585C61.197 35.9585 61.0954 36.1584 61.0638 36.1548C60.8689 36.1201 60.6799 36.0575 60.5028 35.969C60.5263 35.8341 60.5651 35.7024 60.6185 35.5763C60.6315 35.5307 60.6479 35.4862 60.6676 35.4431L60.0225 35.1871Z" fill="#4A4700"/>
<path id="Vector_44" d="M75.092 47.5462C74.9528 47.6786 74.7914 47.7854 74.6152 47.8618C74.524 47.8828 74.3627 47.6865 74.2646 47.5637C74.2225 47.5147 74.247 47.406 74.2435 47.3218C74.2435 47.122 74.2435 46.9186 74.2435 46.7188C74.4609 46.7433 74.7449 46.6977 74.8782 46.8169C75.0114 46.9361 75.0044 47.2307 75.092 47.5462Z" fill="#4A4700"/>
<path id="Vector_45" d="M71.677 57.5146C72.0627 58.1843 72.0942 58.6191 71.7471 58.6857C71.6209 58.6875 71.4958 58.6622 71.3802 58.6113C71.2647 58.5605 71.1614 58.4854 71.0774 58.3912C70.8811 58.1668 71.1405 57.8092 71.677 57.5146Z" fill="#4A4700"/>
<path id="Vector_46" d="M67.7711 41.6804L67.1541 42.3045C66.9758 42.1257 66.8204 41.9255 66.6912 41.7085C66.6141 41.5367 67.0419 41.0318 67.1646 41.1054C67.3842 41.2778 67.5873 41.4703 67.7711 41.6804Z" fill="#4A4700"/>
<path id="Vector_47" d="M68.0726 45.3271C67.8377 45.3026 67.5116 45.4533 67.4976 45.0116C67.4976 44.8292 67.9675 44.3103 68.1042 44.405C68.3273 44.5473 68.4954 44.7612 68.581 45.0116C68.6897 45.4744 68.262 45.2465 68.0726 45.3271Z" fill="#4A4700"/>
<path id="Vector_48" d="M71.5789 39.3174C72.2415 39.2613 72.5185 39.4576 72.5115 39.9765C72.5115 40.2185 72.3958 40.3271 72.1399 40.2816C71.5263 40.1448 71.5263 40.1448 71.5789 39.3174Z" fill="#4A4700"/>
<path id="Vector_49" d="M64.7523 53.167C65.1906 53.202 65.3729 53.3528 65.2852 53.7525C65.2374 53.8547 65.1643 53.9431 65.0729 54.0093C64.9816 54.0755 64.8749 54.1175 64.7628 54.1312C64.6226 54.1312 64.3771 53.8542 64.3561 53.6789C64.3105 53.2967 64.4753 53.1459 64.7523 53.167Z" fill="#4A4700"/>
<path id="Vector_50" d="M74.9939 52.725C75.071 52.3393 75.2639 52.2516 75.5058 52.2341C75.7477 52.2166 76.1019 52.5286 76.0282 52.7565C75.9208 52.9601 75.7811 53.1448 75.6145 53.3035L74.9939 52.725Z" fill="#4A4700"/>
<path id="Vector_51" d="M61.5161 58.6292C61.8877 58.6678 61.5161 59.1271 61.7229 59.2989C61.5511 59.397 61.3723 59.5688 61.2075 59.5829C61.1444 59.5879 61.0808 59.5795 61.0212 59.558C60.9616 59.5366 60.9072 59.5027 60.8617 59.4585C60.8163 59.4144 60.7808 59.361 60.7575 59.3021C60.7343 59.2431 60.724 59.1798 60.7272 59.1166C60.7132 58.8536 61.0778 58.6082 61.5161 58.6292Z" fill="#4A4700"/>
<path id="Vector_52" d="M63.5392 33.0869C64.037 33.0869 64.2404 33.2798 64.2684 33.6234C64.2965 33.967 64.0511 34.0161 63.8232 34.0511C63.5953 34.0862 63.2972 33.7005 63.3358 33.3499C63.3498 33.2342 63.5006 33.1325 63.5392 33.0869Z" fill="#4A4700"/>
<path id="Vector_53" d="M73.4651 35.2292C73.3081 35.439 73.1281 35.6307 72.9287 35.8007C72.8516 35.8568 72.5325 35.7621 72.5185 35.6955C72.4743 35.4805 72.4951 35.2571 72.5781 35.0539C72.6166 34.9662 72.8901 34.9206 73.0339 34.9557C73.1971 35.0259 73.3467 35.1244 73.4757 35.2467L73.4651 35.2292Z" fill="#4A4700"/>
<path id="Vector_54" d="M70.9477 63.4362C71.0073 63.3941 71.067 63.3205 71.1266 63.3205C71.3019 63.3205 71.5473 63.2959 71.6385 63.3976C71.6852 63.4745 71.7125 63.5616 71.718 63.6514C71.7235 63.7412 71.707 63.831 71.67 63.913C71.6206 63.9969 71.5537 64.0692 71.4738 64.1248C71.394 64.1805 71.303 64.2183 71.2072 64.2356C71.0915 64.2356 70.9232 64.0112 70.8566 63.8569C70.8265 63.6994 70.8265 63.5376 70.8566 63.3801L70.9477 63.4362Z" fill="#4A4700"/>
<path id="Vector_55" d="M66.4212 65.3965C66.1162 65.1686 65.8287 65.0459 65.8673 64.6497C65.9023 64.2991 66.1092 64.2115 66.3686 64.1133L66.7438 64.8671C66.6667 64.9898 66.5545 65.1757 66.4212 65.3965Z" fill="#4A4700"/>
<path id="Vector_56" d="M56.8003 35.8218L57.3437 36.6878C57.1088 36.807 56.8879 37.0139 56.7336 36.9753C56.5794 36.9367 56.2849 36.6457 56.2989 36.495C56.3094 36.2846 56.5618 36.1023 56.8003 35.8218Z" fill="#4A4700"/>
<path id="Vector_57" d="M55.3031 37.8377C55.254 37.8938 55.1699 38.0831 55.0682 38.0937C54.6544 38.1392 54.3284 37.9254 54.3284 37.6449C54.3284 37.3644 54.5878 37.2136 54.8333 37.2101C55.1488 37.2031 55.2645 37.4485 55.3031 37.8377Z" fill="#4A4700"/>
<path id="Vector_58" d="M70.8846 46.5889C70.3131 46.8414 69.994 46.7993 69.8888 46.4732C69.8724 46.4043 69.8711 46.3325 69.8852 46.263C69.8993 46.1935 69.9284 46.1279 69.9705 46.0709C70.0126 46.0138 70.0666 45.9665 70.1288 45.9325C70.191 45.8984 70.2599 45.8784 70.3306 45.8737C70.8565 45.8316 70.7338 46.3155 70.8846 46.5889Z" fill="#4A4700"/>
<path id="Vector_59" d="M69.2226 46.3789L69.2647 47.28C68.6827 47.3677 68.6827 47.3677 68.3496 46.5788L69.2226 46.3789Z" fill="#4A4700"/>
<path id="Vector_60" d="M72.8551 59.7969C72.8437 59.9697 72.8437 60.143 72.8551 60.3158C72.8985 60.4676 72.9548 60.6154 73.0234 60.7576C72.739 60.7766 72.4534 60.7481 72.1784 60.6734C72.0907 60.6278 72.0697 60.2001 72.1784 60.0704C72.2871 59.9406 72.5781 59.895 72.8551 59.7969Z" fill="#4A4700"/>
<path id="Vector_61" d="M71.9856 39.1209C72.0347 38.7703 71.2844 38.7703 71.6981 38.3005C71.8664 38.1182 72.1118 37.8727 72.3818 38.2093C72.5992 38.4793 72.487 38.7528 71.9856 39.1209Z" fill="#4A4700"/>
<path id="Vector_62" d="M72.9638 57.7913C72.515 57.6406 72.5255 57.2514 72.508 56.8867C72.508 56.8096 72.6167 56.6588 72.6833 56.6553C72.811 56.6535 72.9352 56.697 73.0339 56.778C73.098 56.8481 73.1472 56.9305 73.1785 57.0202C73.2098 57.1099 73.2226 57.205 73.216 57.2997C73.2095 57.3945 73.1837 57.4869 73.1404 57.5714C73.097 57.6559 73.0369 57.7307 72.9638 57.7913Z" fill="#4A4700"/>
<path id="Vector_63" d="M73.8649 56.8446L73.5668 57.3355L73.4406 57.2829C73.4066 57.1637 73.3656 57.0466 73.3179 56.9322C73.2813 56.8835 73.2581 56.8261 73.2505 56.7656C73.2429 56.7052 73.2512 56.6438 73.2746 56.5875C73.298 56.5312 73.3356 56.482 73.3837 56.4447C73.4319 56.4074 73.489 56.3833 73.5493 56.3748C73.8158 56.2941 74.0998 56.2976 74.1699 56.6553C74.1944 56.771 74.1103 56.9112 74.0752 57.0409L73.8649 56.8446Z" fill="#4A4700"/>
<path id="Vector_64" d="M60.8464 41.9257L60.9481 42.4341C60.7026 42.5849 60.4292 42.8163 60.1697 42.4937C60.1317 42.4069 60.115 42.3123 60.1211 42.2177C60.1272 42.1232 60.1559 42.0314 60.2048 41.9503C60.2353 41.8929 60.2804 41.8446 60.3354 41.8101C60.3905 41.7756 60.4536 41.7562 60.5185 41.7537C60.5834 41.7512 60.6479 41.7658 60.7054 41.796C60.7629 41.8261 60.8115 41.8709 60.8464 41.9257Z" fill="#4A4700"/>
<path id="Vector_65" d="M71.0845 62.8752C71.0845 62.8752 70.9197 62.8296 70.8811 62.7419C70.8145 62.5912 70.7619 62.2826 70.8075 62.2616C70.9978 62.1576 71.2176 62.1205 71.4316 62.1564C71.5297 62.1844 71.5543 62.479 71.5999 62.6613C71.5999 62.6613 71.4982 62.7244 71.4386 62.7489C71.379 62.7735 71.2528 62.8156 71.0845 62.8752Z" fill="#4A4700"/>
<path id="Vector_66" d="M73.6615 46.7783C73.8403 47.0273 74.0647 47.2236 74.0121 47.3183C73.9385 47.5216 73.7246 47.6689 73.5668 47.8442C73.4582 47.739 73.2373 47.6023 73.2583 47.5321C73.3672 47.268 73.5023 47.0155 73.6615 46.7783Z" fill="#4A4700"/>
<path id="Vector_67" d="M66.1758 59.1237C66.2143 58.6679 66.4878 58.2927 66.6807 58.4225C66.7531 58.4859 66.8092 58.5658 66.844 58.6556C66.8788 58.7454 66.8913 58.8422 66.8805 58.9379C66.7718 59.2745 66.4808 59.2394 66.1758 59.1237Z" fill="#4A4700"/>
<path id="Vector_68" d="M60.657 37.5186L61.0077 37.2241L61.4284 37.9674C60.8324 38.4583 60.7237 38.027 60.657 37.5186Z" fill="#4A4700"/>
<path id="Vector_69" d="M62.291 60.4667C62.9045 60.3054 62.9151 60.3125 63.0273 61.0453L62.6766 60.6946C62.6346 60.884 62.8169 61.2626 62.326 61.1259L62.291 60.4667Z" fill="#4A4700"/>
<path id="Vector_70" d="M63.462 52.8055L62.7152 52.6512V52.0306C63.157 52.006 63.2692 52.1358 63.462 52.8055Z" fill="#4A4700"/>
<path id="Vector_71" d="M68.9527 45.0326C68.9212 44.7556 68.8791 44.4786 68.8651 44.1981C68.8702 44.1608 68.8849 44.1254 68.9076 44.0953C68.9303 44.0653 68.9603 44.0415 68.9948 44.0263C69.0338 44.02 69.0739 44.0241 69.1108 44.0383C69.1478 44.0525 69.1803 44.0761 69.2052 44.1069C69.314 44.3151 69.3863 44.5405 69.419 44.7731C69.419 44.8713 69.2192 44.9835 69.107 45.0922L68.9527 45.0326Z" fill="#4A4700"/>
<path id="Vector_72" d="M68.546 41.2034C68.3987 41.3016 68.2655 41.4243 68.2374 41.4033C68.0586 41.2806 67.8412 41.1508 67.7676 40.9685C67.729 40.8703 67.9429 40.667 68.0411 40.5127C68.1918 40.7231 68.3461 40.9334 68.546 41.2034Z" fill="#4A4700"/>
<path id="Vector_73" d="M74.4328 60.5263C74.0577 60.5509 73.6895 60.0986 73.8017 59.8251C73.8228 59.776 73.9139 59.7059 73.949 59.7164C74.0857 59.7585 74.2996 59.7935 74.3312 59.8952C74.3953 60.0996 74.4295 60.3122 74.4328 60.5263Z" fill="#4A4700"/>
<path id="Vector_74" d="M57.9363 49.8638C58.0547 49.9969 58.1485 50.15 58.2133 50.3161C58.2308 50.3862 58.0379 50.572 57.9187 50.5931C57.5681 50.6527 57.6628 50.3371 57.6312 50.1653C57.6312 50.0812 57.7259 49.976 57.7785 49.8778L57.9363 49.8638Z" fill="#4A4700"/>
<path id="Vector_75" d="M70.9758 34.314C71.0494 34.5594 71.123 34.7487 71.1616 34.9451C71.1616 34.9942 71.074 35.1134 71.0319 35.1099C70.9189 35.1156 70.8078 35.0794 70.7198 35.0082C70.6236 34.8663 70.5425 34.7147 70.4779 34.5559L70.9758 34.314Z" fill="#4A4700"/>
<path id="Vector_76" d="M59.6613 41.0283L59.77 41.8137C59.5737 41.8015 59.3795 41.7662 59.1915 41.7085C59.1389 41.6875 59.1108 41.435 59.1669 41.3579C59.3168 41.2271 59.483 41.1163 59.6613 41.0283Z" fill="#4A4700"/>
<path id="Vector_77" d="M62.7994 62.6334L62.2033 62.1601L62.9045 61.8516V62.5072L62.7994 62.6334Z" fill="#4A4700"/>
<path id="Vector_78" d="M74.6047 62.1076L74.5345 61.8236L74.2821 62.3495L74.2435 61.5781C74.4193 61.58 74.5931 61.6157 74.7554 61.6833C74.8256 61.7359 74.7554 61.9708 74.7554 62.1251L74.6047 62.1076Z" fill="#4A4700"/>
<path id="Vector_79" d="M69.7731 37.1961L69.6644 36.6421L69.4576 37.0348L69.3945 36.9892L69.5838 36.4388C69.8678 36.3195 69.98 36.558 70.0466 36.7473C70.0677 36.8279 69.9064 36.9787 69.7731 37.1961Z" fill="#4A4700"/>
<path id="Vector_80" d="M58.7707 53.2651L59.2686 53.4962C59.1705 53.5872 59.0828 53.7343 58.9741 53.7518C58.6971 53.7903 58.6585 53.6117 58.7707 53.2651Z" fill="#4A4700"/>
<path id="Vector_81" d="M64.9031 49.9307C65.0153 50.1232 65.1169 50.2143 65.1099 50.3018C65.1029 50.3893 65.0047 50.4978 64.9451 50.5924C64.8599 50.4989 64.7901 50.3926 64.7383 50.2773C64.7207 50.2108 64.8119 50.1162 64.9031 49.9307Z" fill="#4A4700"/>
<path id="Vector_82" d="M91.5466 112.853C90.9591 113.039 90.3918 113.283 89.8531 113.582C89.3692 113.915 88.8363 113.726 88.3664 113.933C88.2137 114.01 88.0662 114.096 87.9247 114.192C87.6557 114.178 87.386 114.197 87.1217 114.248C86.3749 114.476 85.6421 114.753 84.9058 115.013L84.6674 115.09C84.3729 115.202 84.0889 115.184 83.8329 115.553C83.577 115.921 82.9459 116.026 82.4725 116.236C82.3081 116.301 82.1379 116.351 81.9641 116.384C81.8625 116.405 81.6907 116.436 81.6626 116.384C81.4628 116.072 81.2454 116.254 81.007 116.31C80.8066 116.333 80.6043 116.333 80.4039 116.31L80.3618 116.166C80.5183 115.961 80.6932 115.771 80.8842 115.598C81.4978 115.139 82.1359 114.711 82.76 114.266C83.1527 113.985 83.5034 113.565 83.9346 113.449C84.36 113.303 84.7371 113.044 85.025 112.699C85.1302 112.6 85.267 112.457 85.267 112.33C85.267 111.836 85.6632 111.58 85.8981 111.229C86.037 111.015 86.2006 110.817 86.3855 110.64C86.4335 110.6 86.4899 110.571 86.5507 110.556C86.6114 110.541 86.6748 110.54 86.7361 110.553C87.0011 110.665 87.2399 110.831 87.4373 111.04C87.9001 111.643 88.5698 111.741 89.2325 111.91C89.4744 111.969 89.7128 112.043 89.9512 112.113C90.0424 112.138 90.1441 112.218 90.2212 112.197C90.8103 112.064 91.1609 112.422 91.5466 112.853Z" fill="#4A4700"/>
<path id="Vector_83" d="M25.2831 37.1891C25.0814 37.595 24.9023 38.0117 24.7467 38.4373C24.5749 39.0159 24.4767 39.6154 24.3259 40.1904C24.2602 40.3745 24.1817 40.5537 24.091 40.7269C23.6753 41.7762 23.4223 42.8829 23.3407 44.0087C23.2776 44.3941 23.1802 44.7731 23.0497 45.1412C22.7058 46.3829 22.5243 47.664 22.5097 48.9524C22.5097 49.3977 22.4677 49.843 22.4817 50.2847C22.5097 50.9474 22.5518 51.6101 22.6219 52.2692C22.6851 52.8478 22.8043 53.4228 22.8919 54.0013C22.9796 54.5798 23.0497 55.2425 23.1514 55.8596C23.3214 56.8773 23.6972 57.8496 24.2558 58.7171C24.6045 59.2356 24.9863 59.731 25.3988 60.2002C25.5242 60.3034 25.6635 60.3884 25.8126 60.4527C25.8267 60.3545 25.8514 60.2581 25.8862 60.1652C25.9633 60.0214 26.0755 59.755 26.1351 59.762C26.3557 59.7951 26.5623 59.8899 26.7312 60.0355C26.8711 60.2224 26.9822 60.4292 27.0608 60.649L26.7102 60.905L27.8146 61.6062C27.9751 61.6862 28.1248 61.7863 28.2599 61.9043C28.4925 62.1686 28.7877 62.3704 29.1185 62.4911C29.4493 62.6118 29.8051 62.6475 30.1532 62.595C30.8545 62.5248 31.5557 62.5003 32.2569 62.4863C33.0241 62.4532 33.7609 62.1769 34.3607 61.6974C33.9785 60.898 34.7639 61.0628 35.1145 60.8454C35.0935 61.3117 35.2197 61.4134 35.6194 61.1539C36.1348 60.8208 36.5976 60.4071 37.0815 60.0319L36.9728 59.8742L35.6965 60.5754L35.6054 60.4632C35.7702 60.3265 35.9244 60.1757 36.0962 60.053C36.6783 59.6393 37.2708 59.2431 37.8493 58.8188C38.0232 58.6768 38.1714 58.506 38.2876 58.3139C39.4549 56.4668 40.411 54.4945 41.1381 52.434C41.4087 51.5415 41.7318 50.6658 42.1058 49.8114C42.6914 48.6789 42.8597 47.4342 43.2734 46.2596C43.4697 45.6986 43.5819 45.1061 43.7783 44.5416C43.892 44.3039 44.0332 44.0803 44.199 43.8754L44.3533 43.907C44.2972 44.3698 44.2727 44.8396 44.185 45.3095C44.0062 46.2526 43.8344 47.1993 43.589 48.1144C43.2909 49.2434 42.9578 50.3654 42.5722 51.4698C42.1023 52.8162 41.6009 54.1521 41.0435 55.4634C40.6157 56.4767 40.0793 57.4444 39.5603 58.4962C39.6971 58.633 39.648 58.8188 39.3675 58.9485C39.3413 58.962 39.3176 58.9798 39.2974 59.0011C38.2876 60.1021 37.2918 61.217 36.261 62.2969C35.9372 62.5938 35.5848 62.8581 35.2092 63.0858C34.4777 63.6269 33.6397 64.0064 32.7505 64.1992C31.8614 64.392 30.9414 64.3938 30.0516 64.2043C29.7956 64.1517 29.5502 63.9308 29.2381 64.1377C29.1715 64.1833 28.9261 63.9589 28.7437 63.9449C28.5847 63.928 28.4266 63.9022 28.2704 63.8677C27.6772 63.7238 27.1104 63.4871 26.5909 63.1665C25.9563 62.7563 25.2481 62.4652 24.7467 61.8376C24.2453 61.21 23.5932 60.7332 23.0953 60.1126C22.7123 59.57 22.369 59.0005 22.068 58.4086C21.918 58.1617 21.7822 57.9065 21.6612 57.6442C21.6284 57.4922 21.6119 57.337 21.6122 57.1814C21.542 56.7361 21.4859 56.2838 21.3808 55.8456C21.2756 55.4073 21.0301 55.0637 21.1704 54.6149C21.1898 54.4906 21.1898 54.364 21.1704 54.2397C21.1225 53.2966 21.1377 52.3513 21.216 51.4102C21.3071 50.2111 21.3632 49.0015 21.5666 47.8164C21.7929 46.6491 22.0785 45.4941 22.4221 44.3558C22.8393 42.8656 23.2706 41.3755 23.7544 39.9029C24.0525 38.9983 24.4557 38.1218 24.8308 37.2452C25.1008 36.6281 25.4234 36.0391 25.7214 35.436L25.8371 35.4886L24.7923 37.6134L24.8484 37.6484L25.2831 37.1891Z" fill="#4A4700"/>
<path id="Vector_84" d="M37.4355 28.5708L37.1901 28.9004C36.7589 28.7532 36.3311 28.6199 35.9174 28.4516C35.8297 28.4166 35.7771 28.2518 35.7456 28.1361C35.7081 27.9482 35.6008 27.7815 35.4453 27.6696C35.2898 27.5577 35.0976 27.5089 34.9076 27.533C35.0654 27.6873 35.2582 27.7925 35.3248 27.9537C35.3914 28.115 35.3248 28.4306 35.2442 28.4832C35.0381 28.543 34.8192 28.543 34.6131 28.4832C34.452 28.4334 34.2978 28.3639 34.1538 28.2763C34.1538 28.6269 34.2028 28.925 33.8031 28.9775C33.5394 29.0083 33.279 29.0623 33.0248 29.1388C32.8132 29.2229 32.6071 29.3201 32.4077 29.4298C32.2078 29.521 32.0045 29.6016 31.8046 29.6858L31.6609 29.0336C31.3102 28.5954 31.3453 28.4762 32.2043 27.9818C32.036 27.8591 31.7941 27.7609 31.6854 27.5856C31.5888 27.3486 31.5308 27.0976 31.5136 26.8423C31.224 27.2135 30.8065 27.4635 30.3425 27.5435C30.0655 27.6066 29.8131 27.8626 29.4835 27.845C29.3888 27.845 29.2206 27.7784 29.217 27.7293C29.1881 27.4965 29.1881 27.261 29.217 27.0281C29.217 26.9966 29.4134 26.9545 29.501 26.979C29.7325 27.0562 29.8762 27.0246 29.9323 26.7581C30.0024 26.4321 30.2444 26.3619 30.5389 26.3795C30.9842 26.404 31.4295 26.4426 31.8747 26.4496C32.1377 26.4496 32.299 26.3199 32.2254 26.0078C31.9033 26.0245 31.5804 25.9998 31.2647 25.9342C31.0333 25.8605 30.6896 25.6046 30.6967 25.4398C30.7392 25.0906 30.859 24.7552 31.0473 24.4581C31.1954 24.2859 31.3665 24.1349 31.5557 24.0093C31.738 24.2337 32.2569 23.8515 32.4252 24.3599C32.5269 24.6895 33.0142 24.9174 32.6601 25.3662L32.7162 25.4608C32.9932 25.3732 33.2737 25.296 33.5472 25.1909C33.7193 25.1702 33.8939 25.1881 34.0583 25.2432C34.2226 25.2984 34.3726 25.3895 34.4974 25.5099C34.6832 25.8956 35.0233 25.9552 35.5247 25.7273C35.6947 25.6689 35.8759 25.6509 36.0541 25.6747C36.275 25.6747 36.3276 25.822 36.3276 26.0253C36.3276 26.1586 36.4608 26.2918 36.531 26.4285C36.6747 26.7161 36.7063 26.972 36.3837 27.1929C36.282 27.2595 36.268 27.4559 36.2014 27.6171L36.6361 27.7399C36.6436 27.5824 36.6767 27.4273 36.7343 27.2806C36.8395 27.1263 37.0043 26.9299 37.1586 26.9299C37.2516 26.9406 37.3404 26.9753 37.416 27.0306C37.4916 27.0859 37.5515 27.16 37.5898 27.2455C37.612 27.5194 37.5907 27.7951 37.5267 28.0624C37.5022 28.2377 37.4496 28.4131 37.411 28.5849L37.4355 28.5708Z" fill="#4A4700"/>
<path id="Vector_85" d="M25.1008 67.7664C25.1499 67.0301 24.8799 66.3639 24.7292 65.7048C24.5784 65.0456 24.354 64.3724 24.1647 63.7062L24.3014 63.6606L24.7116 64.2602L24.8905 63.9096C25.192 64.5617 25.774 64.8703 26.342 65.1929C27.1372 65.6591 28.0395 65.9115 28.9611 65.9256C29.1364 65.9256 29.3118 65.7994 29.4941 65.8029C30.034 65.8029 30.3811 65.4523 30.8019 65.2034C31.0507 65.123 31.3123 65.0897 31.5733 65.1052C31.5066 65.6767 31.5066 65.6767 29.8763 66.4516C30.02 66.6935 30.0516 66.8022 29.6729 66.9074C29.2942 67.0126 29.0839 67.4614 28.8209 67.7804C28.6501 68.0121 28.4943 68.2546 28.3546 68.5062C28.1547 68.8323 27.9479 69.1584 27.755 69.4879C27.1379 70.5398 26.5349 71.6267 25.8967 72.6786C25.6802 72.9735 25.4385 73.2492 25.1745 73.5025C25.0634 73.3408 24.9717 73.1666 24.901 72.9836C24.8238 72.6575 24.7853 72.3209 24.7397 71.9843C24.7168 71.9027 24.7243 71.8155 24.7607 71.7389C25.1885 71.2165 25.0482 70.5713 25.1534 69.9858C25.199 69.7088 25.1149 69.3898 25.4234 69.1934C25.4585 69.1689 25.4234 69.0356 25.4234 68.955C25.3967 68.6946 25.3558 68.436 25.3007 68.1801C25.2489 68.0355 25.1819 67.8968 25.1008 67.7664ZM28.0811 66.8443L27.4395 66.6549C27.3595 66.6392 27.2826 66.6107 27.2116 66.5708L24.9641 64.8177C25.1359 65.3787 25.3147 65.9116 25.455 66.4481C25.5952 66.9845 25.9283 67.4999 25.8056 68.117C25.8062 68.1722 25.8168 68.2269 25.8371 68.2783C25.8827 68.5413 25.9178 68.8042 25.9739 69.0637C26.005 69.1595 26.0474 69.2513 26.1001 69.3372C26.1832 69.3002 26.2601 69.2505 26.328 69.1899C26.4928 68.983 26.64 68.7586 26.8083 68.5237L27.159 68.9585L28.9576 66.6584H28.0495C28.0741 66.7391 28.0846 66.8443 28.0811 66.8302V66.8443Z" fill="#4A4700"/>
<path id="Vector_86" d="M41.1522 27.9853C41.2994 27.9011 41.4362 27.8345 41.5659 27.7538C41.7497 27.6236 41.9768 27.5695 42.1996 27.6028C42.4225 27.6362 42.6238 27.7543 42.7615 27.9327C42.8798 28.0729 43.0468 28.1632 43.2289 28.1853C43.4111 28.2075 43.5948 28.1598 43.7432 28.0519C43.835 28.0041 43.9354 27.9752 44.0385 27.9671C44.1416 27.9589 44.2453 27.9715 44.3435 28.0042C44.4416 28.0369 44.5322 28.089 44.6097 28.1575C44.6873 28.2259 44.7504 28.3092 44.7951 28.4025C44.9038 28.6514 44.6829 29.002 44.3077 29.1844C44.1955 29.237 44.0342 29.2755 43.9887 29.3667C43.7572 29.833 43.3225 29.7909 42.9193 29.8365C42.8351 29.1633 42.8351 29.1703 42.1549 29.0511C41.9656 29.0161 41.8043 28.9109 41.6009 28.8723C41.4018 28.8366 41.197 28.851 41.0049 28.9144C41.4782 29.3141 42.4319 29.0757 42.4074 30.0784C42.2135 30.0361 42.0119 30.0463 41.8233 30.108C41.6347 30.1696 41.4659 30.2804 41.3345 30.4291C41.2342 30.5119 41.111 30.5623 40.9814 30.5736C40.8518 30.5849 40.7218 30.5565 40.6087 30.4922C40.3317 30.3765 40.0091 30.387 39.7953 30.117C39.5814 29.847 39.3219 29.6858 39.2448 29.4158C39.0239 28.6725 38.512 28.2202 37.8984 27.7679C38.1228 27.3892 37.7336 27.1718 37.5969 26.8598C37.524 26.6848 37.4998 26.4934 37.5268 26.3058C37.5268 26.2462 37.7862 26.1375 37.8774 26.1761C38.0737 26.2883 38.3928 26.1761 38.4664 26.5267C38.5411 26.8128 38.6372 27.0929 38.7539 27.3647C39.0001 27.1312 39.2773 26.933 39.5779 26.7756C40.0372 26.6213 40.2791 26.7756 40.3598 27.249C40.3635 27.3571 40.4065 27.4601 40.4807 27.5388C40.5549 27.6175 40.6553 27.6666 40.763 27.6767C40.9086 27.7577 41.0401 27.8619 41.1522 27.9853Z" fill="#4A4700"/>
<path id="Vector_87" d="M45.605 31.7229C45.8027 31.874 45.9923 32.0356 46.173 32.2067C46.2264 32.2529 46.2672 32.3118 46.2919 32.3779C46.3165 32.4441 46.3241 32.5153 46.314 32.5852C46.3038 32.655 46.2763 32.7212 46.2339 32.7776C46.1915 32.834 46.1356 32.8788 46.0713 32.908C45.9722 32.9585 45.8637 32.988 45.7526 32.9945C45.6415 33.0011 45.5302 32.9846 45.4258 32.9461C45.3214 32.9075 45.2261 32.8478 45.146 32.7707C45.0658 32.6935 45.0024 32.6006 44.9599 32.4977C44.9108 32.3961 44.7179 32.3645 44.6093 32.2804C44.448 32.1576 44.199 32.0349 44.171 31.8807C44.1219 31.6352 44.2762 31.4249 44.5742 31.3407C45.2018 31.1724 45.2228 31.0707 44.746 30.6149C44.6517 30.5334 44.578 30.4308 44.531 30.3154C44.4841 30.1999 44.4651 30.075 44.4757 29.9508C44.4863 29.8266 44.5262 29.7067 44.592 29.601C44.6579 29.4952 44.7479 29.4065 44.8547 29.3422C44.9156 29.3085 44.9711 29.266 45.0195 29.216C45.6471 28.5638 45.8049 28.5358 46.5061 29.0932C46.5737 29.1666 46.6216 29.2558 46.6455 29.3527C46.6694 29.4495 46.6685 29.5508 46.6428 29.6472C46.5707 29.7203 46.5261 29.8161 46.5165 29.9183C46.5069 30.0206 46.533 30.123 46.5903 30.2082C46.6485 30.3349 46.6875 30.4697 46.706 30.6079C46.7726 30.9165 46.6393 31.0812 46.3273 31.0216C46.0152 30.962 45.8855 31.0216 45.8645 31.3723C45.8575 31.4704 45.7067 31.5826 45.605 31.7229Z" fill="#4A4700"/>
<path id="Vector_88" d="M41.4747 33.7845C41.2854 33.5005 41.1521 33.2761 40.9979 33.0832C40.5456 32.4591 40.6157 32.1576 41.3485 31.814C41.2583 31.7477 41.1621 31.6902 41.061 31.6422C40.8751 31.5791 40.7349 31.5195 40.77 31.267C40.805 31.0146 40.77 30.8673 41.054 30.7797C41.338 30.692 41.5168 30.5237 41.7552 30.4291C41.9375 30.3695 42.2881 30.3204 42.3197 30.3835C42.4329 30.6254 42.4835 30.8918 42.467 31.1584C42.4161 31.3575 42.3307 31.5462 42.2145 31.7158L42.793 32.3154L43.0455 32.0104C43.8098 32.2207 43.8379 32.4241 43.1121 33.1709L42.5686 32.6169L41.4747 33.7845Z" fill="#4A4700"/>
<path id="Vector_89" d="M44.8582 37.8905C44.9809 38.3639 45.065 38.8898 44.5812 39.0721C44.3498 39.1563 43.9571 38.7986 43.6345 38.6409L43.6661 38.5111L43.4417 38.8092L41.9445 37.5504C42.5862 36.9719 43.2874 37.0701 43.6976 37.7293C43.9851 38.171 44.0973 38.1851 44.8582 37.8905Z" fill="#4A4700"/>
<path id="Vector_90" d="M36.8501 43.9033L37.0885 44.1277L37.3585 44.026C37.3935 44.1803 37.4917 44.3767 37.4461 44.4853C37.4005 44.594 37.2042 44.7518 37.0674 44.8921L37.6319 45.0884C37.5443 45.2883 37.4461 45.4811 37.3725 45.688C37.3282 45.8443 37.2954 46.0037 37.2743 46.1648L36.7309 46.3577L37.2533 46.7749L36.8185 46.9888L37.2954 47.1746C36.9027 47.4481 36.7624 47.4235 36.4363 46.9923C36.1103 46.561 36.0857 46.5259 36.545 46.1543C36.5819 46.1168 36.6099 46.0715 36.6269 46.0217C36.6439 45.972 36.6494 45.919 36.6432 45.8668C36.4819 45.5793 36.6642 45.3689 36.7554 45.1305C36.801 45.0113 36.8466 44.7799 36.801 44.7518C36.247 44.4433 36.5976 44.1978 36.8501 43.9033Z" fill="#4A4700"/>
<path id="Vector_91" d="M37.425 28.5851C37.7266 28.4308 37.8984 28.5184 37.9019 28.862C37.9019 29.1531 37.8773 29.4441 37.8738 29.7351C37.8728 29.8054 37.8992 29.8733 37.9475 29.9244C38.0729 30.0249 38.1731 30.1533 38.2401 30.2994C38.307 30.4455 38.3389 30.6053 38.3331 30.7659C38.3331 30.8571 38.5225 30.9482 38.6487 31.0569C38.6215 31.1138 38.5886 31.1679 38.5505 31.2182C38.4278 31.3514 38.3156 31.5688 38.1719 31.5688C37.9404 31.6074 37.8212 31.4356 37.8037 31.1761C37.8037 31.0955 37.5653 31.0464 37.4776 30.9482C37.39 30.85 37.127 30.5731 37.1761 30.4924C37.397 30.0752 37.2252 29.6334 37.3163 29.2197C37.3619 28.9988 37.397 28.7779 37.4356 28.5605L37.425 28.5851Z" fill="#4A4700"/>
<path id="Vector_92" d="M28.2178 49.7098L28.2599 50.2743C28.5895 50.0184 28.8174 50.0044 28.9927 50.3515C29.0697 50.4937 29.0908 50.6595 29.0519 50.8165C29.013 50.9735 28.9168 51.1102 28.7823 51.2C28.7329 51.2597 28.6715 51.3084 28.602 51.3427C28.5326 51.3771 28.4566 51.3964 28.3792 51.3994C28.3017 51.4023 28.2245 51.3889 28.1526 51.36C28.0807 51.3311 28.0157 51.2873 27.9619 51.2315C27.8532 51.1299 27.7375 51.0317 27.6113 50.9019L28.0004 50.5513C27.9198 50.5058 27.8637 50.4461 27.8006 50.4391C27.3378 50.4006 27.2221 50.1306 27.3167 49.7204C27.3518 49.5626 27.3693 49.2751 27.4219 49.2681C27.628 49.2677 27.8331 49.2948 28.032 49.3487V49.4784L27.7901 49.5801V49.6537L28.2178 49.7098Z" fill="#4A4700"/>
<path id="Vector_93" d="M26.6751 38.2129C27.2151 38.3216 27.2641 38.7844 27.2747 39.1596C27.267 39.5319 27.1592 39.8952 26.9626 40.2114C26.7698 40.5305 26.4086 40.3937 26.1281 40.2815C25.9634 40.1937 25.8113 40.084 25.6758 39.9555C25.7915 39.8082 25.8757 39.6048 26.0265 39.5277C26.1304 39.4699 26.2127 39.3797 26.2608 39.2708C26.3089 39.162 26.3201 39.0405 26.2929 38.9246C26.2649 38.574 26.3455 38.3146 26.6751 38.2129Z" fill="#4A4700"/>
<path id="Vector_94" d="M30.56 30.8816L31.0193 31.2322C30.9772 30.9868 30.858 30.7413 30.9316 30.6326C31.0708 30.4642 31.2664 30.3521 31.4821 30.3171C31.5659 30.2879 31.6558 30.2802 31.7433 30.2948C31.8309 30.3094 31.9134 30.3458 31.9832 30.4006C32.0531 30.4554 32.108 30.5269 32.1429 30.6085C32.1779 30.6901 32.1918 30.7792 32.1833 30.8676C32.1833 31.1481 31.8327 31.4005 31.5031 31.4075C31.3416 31.4126 31.1868 31.4733 31.0649 31.5793C30.8825 31.7686 30.7353 31.8984 30.4723 31.7231C30.2093 31.5478 30.1217 31.3093 30.3776 31.0499C30.4339 30.9891 30.4949 30.9328 30.56 30.8816Z" fill="#4A4700"/>
<path id="Vector_95" d="M36.5766 51.3364C36.4442 51.6325 36.2883 51.9174 36.1102 52.1884C35.9083 52.4189 35.68 52.6248 35.43 52.802C35.3821 52.8432 35.3263 52.8743 35.2661 52.8936C35.2059 52.9129 35.1424 52.9199 35.0794 52.9142C34.9988 52.9142 34.9216 52.7354 34.8971 52.6232C34.8596 52.3318 34.9344 52.037 35.1063 51.7986C35.2782 51.5603 35.5343 51.3963 35.8227 51.3399C36.0156 51.3189 36.2224 51.3364 36.5766 51.3364Z" fill="#4A4700"/>
<path id="Vector_96" d="M29.0523 47.6973C29.0102 48.1706 29.0979 48.7071 28.5334 48.9174C27.9058 48.5668 28.053 47.8656 28.7578 47.515C28.9576 47.4238 29.1575 47.3326 29.3678 47.231C29.9183 47.6587 29.9534 48.2443 29.3678 48.5072L29.1715 47.7043L29.0523 47.6973Z" fill="#4A4700"/>
<path id="Vector_97" d="M32.6497 58.731C32.6041 59.5795 32.5339 59.6952 31.9695 59.8389L32.3621 60.0703C32.176 60.279 31.9598 60.4586 31.7205 60.6033C31.5943 60.6594 31.3243 60.5296 31.2086 60.3999C31.142 60.3263 31.2086 60.0808 31.2857 59.9371C31.3511 59.8458 31.449 59.783 31.5592 59.7618C31.6637 59.7326 31.7553 59.6689 31.8189 59.581C31.8826 59.4932 31.9146 59.3863 31.9098 59.2779C31.9112 59.1889 31.933 59.1014 31.9737 59.0222C32.0144 58.943 32.0728 58.8743 32.1444 58.8213C32.216 58.7684 32.2988 58.7327 32.3864 58.717C32.4741 58.7014 32.5642 58.7061 32.6497 58.731Z" fill="#4A4700"/>
<path id="Vector_98" d="M34.4728 33.8409C34.2835 33.606 34.0731 33.3711 33.8908 33.1396C33.8402 33.0931 33.8021 33.0346 33.7801 32.9694C33.758 32.9043 33.7527 32.8347 33.7645 32.767C33.7764 32.6992 33.8051 32.6356 33.848 32.5819C33.8909 32.5281 33.9466 32.486 34.01 32.4595C34.1514 32.3943 34.309 32.3728 34.4627 32.3978C34.6164 32.4228 34.7591 32.4931 34.8725 32.5997C35.2477 33.1432 35.1986 33.3255 34.4728 33.8409Z" fill="#4A4700"/>
<path id="Vector_99" d="M44.1254 29.9522C44.1445 30.1223 44.1445 30.294 44.1254 30.4641C44.1008 30.5728 43.9501 30.7516 43.9045 30.7376C43.5539 30.6289 43.1787 31.232 42.8526 30.7587C42.7677 30.5684 42.7432 30.3567 42.7825 30.1521C42.7825 30.0785 42.9508 29.9698 43.0455 29.9627C43.3785 29.9382 43.7222 29.9522 44.1254 29.9522Z" fill="#4A4700"/>
<path id="Vector_100" d="M38.6312 42.5393C38.4857 42.4253 38.3475 42.3023 38.2174 42.1711C38.1648 42.108 38.1087 41.9607 38.1403 41.9222C38.4524 41.5435 38.249 41.263 37.9615 40.9895V40.8598C38.235 40.8598 38.6136 40.7511 38.7539 40.8879C38.8608 41.005 38.9434 41.1421 38.997 41.2914C39.0506 41.4406 39.074 41.599 39.0659 41.7574C39.0659 42.0098 38.8065 42.2553 38.6312 42.5393Z" fill="#4A4700"/>
<path id="Vector_101" d="M41.0224 37.2626L40.7559 36.5404C41.075 36.4212 41.387 36.2879 41.7131 36.1897C41.92 36.1301 42.1619 36.6 42.0637 36.8384C41.9656 37.0768 41.8323 37.3047 41.7131 37.5677L41.0224 37.2626Z" fill="#4A4700"/>
<path id="Vector_102" d="M28.9226 30.0082C28.2914 29.861 28.2774 29.8364 28.4808 29.3946C28.2949 29.2544 28.06 29.1527 27.9619 28.9774C27.9366 28.887 27.9313 28.7921 27.9464 28.6995C27.9616 28.6068 27.9968 28.5186 28.0495 28.441C28.1407 28.3042 28.4387 28.1394 28.4983 28.1815C28.6631 28.3042 28.8945 28.5882 28.8489 28.7074C28.7916 28.8794 28.7695 29.0612 28.784 29.2419C28.7984 29.4226 28.8491 29.5986 28.9331 29.7593C28.9433 29.8423 28.9397 29.9264 28.9226 30.0082Z" fill="#4A4700"/>
<path id="Vector_103" d="M28.9261 37.4977C28.9294 37.5686 28.9171 37.6393 28.8898 37.7049C28.8626 37.7704 28.8211 37.8291 28.7685 37.8767C28.7158 37.9243 28.6533 37.9596 28.5854 37.9802C28.5175 38.0008 28.4458 38.006 28.3756 37.9956C28.076 37.8545 27.8041 37.6609 27.5727 37.424C27.734 37.2277 27.8672 36.9192 28.0706 36.8596C28.1688 36.8442 28.2691 36.8486 28.3656 36.8725C28.462 36.8964 28.5528 36.9393 28.6325 36.9988C28.7122 37.0582 28.7792 37.133 28.8296 37.2186C28.88 37.3043 28.9128 37.3992 28.9261 37.4977Z" fill="#4A4700"/>
<path id="Vector_104" d="M43.1261 42.8725C43.0174 43.4475 42.9122 44.019 42.7965 44.6256C41.927 44.0821 41.92 43.5737 42.6808 43.0618C42.7862 42.9799 42.8869 42.8922 42.9823 42.7988L43.1261 42.8725Z" fill="#4A4700"/>
<path id="Vector_105" d="M35.8438 31.0567C36.296 30.5694 36.4608 30.5624 36.7694 31.0112L36.4012 31.3618C36.6081 31.3407 36.7168 31.3232 36.8255 31.3197C36.9342 31.3162 37.0288 31.3197 37.134 31.3442C37.1112 31.555 37.0629 31.7622 36.9903 31.9613C36.8255 32.2874 36.4889 32.1682 36.254 32.1121C36.0191 32.056 36.0857 31.8702 36.2329 31.6879C36.282 31.6247 36.1628 31.3968 36.0892 31.2636C36.0156 31.1304 35.9279 31.1234 35.8438 31.0567Z" fill="#4A4700"/>
<path id="Vector_106" d="M37.6565 35.3377C37.6679 35.1776 37.7392 35.0278 37.8562 34.918C37.9731 34.8082 38.1272 34.7465 38.2876 34.7451C38.5365 34.7802 38.9187 35.1939 38.817 35.3938C38.7153 35.5936 38.4945 35.8566 38.2981 35.8811C38.2188 35.897 38.137 35.8948 38.0587 35.8746C37.9804 35.8544 37.9076 35.8168 37.8459 35.7645C37.7842 35.7122 37.7351 35.6467 37.7023 35.5728C37.6695 35.4989 37.6538 35.4185 37.6565 35.3377Z" fill="#4A4700"/>
<path id="Vector_107" d="M29.8026 62.3038C29.6374 61.9492 29.4934 61.5851 29.3713 61.2134C29.377 61.1311 29.4034 61.0516 29.4482 60.9823C29.493 60.913 29.5546 60.8562 29.6273 60.8172C29.8317 60.7842 30.04 60.7842 30.2444 60.8172C30.185 61.1379 30.1486 61.4625 30.1357 61.7884C30.1287 62.0549 30.055 62.2232 29.8026 62.3038Z" fill="#4A4700"/>
<path id="Vector_108" d="M33.4841 57.4411C33.2001 57.5007 33.0493 57.3604 33.0493 57.0378C33.0506 56.9618 33.068 56.8869 33.1003 56.8181C33.1326 56.7492 33.179 56.688 33.2366 56.6383C33.2942 56.5887 33.3617 56.5517 33.4345 56.53C33.5074 56.5082 33.584 56.502 33.6594 56.5119C33.8592 56.5365 34.1748 56.6627 34.2099 56.8064C34.301 57.1255 33.9013 57.4446 33.4841 57.4411Z" fill="#4A4700"/>
<path id="Vector_109" d="M30.4022 46.4734C30.5073 45.7406 30.6511 45.5828 31.1314 45.6074C31.1944 45.6004 31.2581 45.6106 31.3157 45.6369C31.3733 45.6632 31.4227 45.7046 31.4587 45.7568C31.4946 45.8089 31.5158 45.8698 31.5199 45.933C31.524 45.9962 31.511 46.0594 31.4821 46.1157C31.4423 46.2149 31.3821 46.3045 31.3053 46.3788C31.2286 46.4531 31.1371 46.5104 31.0368 46.547C30.8224 46.5648 30.6067 46.5398 30.4022 46.4734Z" fill="#4A4700"/>
<path id="Vector_110" d="M29.6273 46.028C29.5607 45.5442 29.5397 45.155 29.452 44.7833C29.3749 44.4678 29.5397 44.3941 29.7641 44.3906C29.8973 44.3906 30.1147 44.4432 30.1532 44.5379C30.2304 44.6957 30.311 44.9376 30.034 45.0358C29.8131 45.1199 29.8061 45.2391 29.9218 45.4179C29.9977 45.5463 30.0667 45.6785 30.1287 45.8141L29.6273 46.028Z" fill="#4A4700"/>
<path id="Vector_111" d="M36.815 57.753C36.85 58.2403 36.7869 58.5839 36.4083 58.6926C36.3142 58.6954 36.221 58.6736 36.138 58.6293C36.055 58.5851 35.985 58.5199 35.9349 58.4402C35.8648 58.2368 35.8823 57.8231 35.977 57.7845C36.2524 57.726 36.5359 57.7153 36.815 57.753Z" fill="#4A4700"/>
<path id="Vector_112" d="M25.9458 43.3425C25.8336 43.4828 25.7459 43.5879 25.6618 43.6931C25.4689 43.9491 25.1043 43.9526 25.0201 43.6581C24.9816 43.4052 24.9972 43.1471 25.0657 42.9007C25.0657 42.8657 25.2656 42.8587 25.3708 42.8481C25.3708 42.8481 25.4023 42.8972 25.4163 42.8972C25.7424 42.8972 25.7424 42.8972 25.8616 43.2023C25.8853 43.2515 25.9135 43.2984 25.9458 43.3425Z" fill="#4A4700"/>
<path id="Vector_113" d="M43.9536 34.0372C43.9536 34.7805 43.6801 34.9908 43.0139 34.805C42.772 34.7349 42.7755 34.6262 42.8491 34.4544C43.0244 33.9986 43.3961 33.8583 43.9536 34.0372Z" fill="#4A4700"/>
<path id="Vector_114" d="M33.5087 30.6011C33.6384 30.7589 33.8593 30.9061 33.8768 31.0814C33.9259 31.3514 33.4736 31.6775 33.1756 31.6038C33.0038 31.5618 32.7163 31.6038 32.7373 31.2813C32.7788 31.1016 32.8755 30.9394 33.0138 30.8174C33.1521 30.6954 33.3252 30.6198 33.5087 30.6011Z" fill="#4A4700"/>
<path id="Vector_115" d="M24.4031 47.266C24.354 46.6945 24.6275 46.2983 25.0657 46.3509C25.1527 46.3813 25.2304 46.4332 25.2918 46.5019C25.3531 46.5706 25.396 46.6538 25.4164 46.7436C25.4514 47.1398 24.9886 47.3607 24.4031 47.266Z" fill="#4A4700"/>
<path id="Vector_116" d="M38.775 32.1087C38.9327 31.6248 39.066 31.2111 39.1992 30.7974C39.3841 30.8393 39.5667 30.8908 39.7462 30.9516C39.8198 30.9832 39.8689 31.0744 39.932 31.141C39.8654 31.1971 39.8128 31.2777 39.7357 31.3058C39.5779 31.3654 39.4096 31.3969 39.1747 31.46C39.3991 31.6599 39.7041 31.7651 39.4271 32.0701C39.1501 32.3751 38.9959 32.1998 38.775 32.1087Z" fill="#4A4700"/>
<path id="Vector_117" d="M27.8742 54.2011C28.004 53.9584 28.1721 53.7381 28.3721 53.549C28.5299 53.4508 28.9857 54.0433 28.884 54.3028C28.8292 54.4059 28.7519 54.4954 28.6578 54.5646C28.5637 54.6338 28.4553 54.6809 28.3405 54.7025C28.2178 54.7165 28.0495 54.415 27.8742 54.2011Z" fill="#4A4700"/>
<path id="Vector_118" d="M28.4001 35.7164C28.3994 35.7996 28.3816 35.8817 28.3479 35.9578C28.3143 36.0339 28.2654 36.1022 28.2043 36.1587C28.1432 36.2152 28.0712 36.2586 27.9927 36.2862C27.9143 36.3139 27.831 36.3252 27.748 36.3194C27.6744 36.2894 27.6094 36.2417 27.5586 36.1805C27.5079 36.1194 27.473 36.0467 27.457 35.9688C27.4567 35.7888 27.5258 35.6155 27.6498 35.485C27.7738 35.3544 27.9433 35.2766 28.1231 35.2676C28.3265 35.2886 28.4001 35.3938 28.4001 35.7164Z" fill="#4A4700"/>
<path id="Vector_119" d="M31.3313 41.2668C31.3378 41.1168 31.3722 40.9693 31.433 40.832C31.5452 40.6813 31.7836 40.4393 31.8537 40.4814C32.1022 40.5709 32.3133 40.7413 32.4533 40.9653C32.5479 41.1511 32.4252 41.4105 32.1027 41.3755L31.3313 41.2668Z" fill="#4A4700"/>
<path id="Vector_120" d="M35.7631 49.7694C35.5948 49.9131 35.4405 50.1515 35.3003 50.141C35.0724 50.141 34.6937 50.1656 34.6937 49.7448C34.6937 49.3241 34.7919 49.2119 35.3108 49.1803C35.7035 49.1558 35.5212 49.5345 35.7631 49.7694Z" fill="#4A4700"/>
<path id="Vector_121" d="M32.9266 37.0523C33.0353 37.2837 33.2492 37.5292 33.2246 37.7536C33.2001 37.978 32.9231 38.1252 32.7548 38.3076C32.6251 38.0902 32.4042 37.8728 32.4042 37.6484C32.4042 37.424 32.6251 37.2487 32.7548 37.0488L32.9266 37.0523Z" fill="#4A4700"/>
<path id="Vector_122" d="M38.6487 54.6429C38.9783 54.6429 39.3149 54.9374 39.2238 55.2039C39.1824 55.3039 39.1185 55.393 39.037 55.4641C38.9555 55.5353 38.8586 55.5866 38.7539 55.6141C38.5716 55.6457 38.2631 55.5931 38.2736 55.2425C38.2946 54.7306 38.3472 54.6359 38.6487 54.6429Z" fill="#4A4700"/>
<path id="Vector_123" d="M30.3145 29.6087L29.757 30.0505C29.8166 29.8156 29.8657 29.6754 29.8867 29.5351C29.889 29.4364 29.8807 29.3376 29.8622 29.2406C29.8153 29.0754 29.7952 28.9038 29.8026 28.7322C29.8109 28.658 29.8444 28.5889 29.8975 28.5365C29.9506 28.484 30.0201 28.4514 30.0944 28.444C30.1687 28.4366 30.2432 28.4549 30.3056 28.4959C30.368 28.5369 30.4145 28.598 30.4372 28.6691C30.4863 28.7673 30.4092 28.9321 30.3706 29.0618C30.332 29.1915 30.2654 29.3703 30.2093 29.5246L30.3145 29.6087Z" fill="#4A4700"/>
<path id="Vector_124" d="M29.154 59.9863C29.0032 60.0845 28.7402 60.3194 28.6841 60.2773C28.4682 60.1291 28.3059 59.9151 28.2213 59.6673C28.1968 59.5761 28.5264 59.2816 28.7157 59.2641C29.1645 59.2185 29.0207 59.6532 29.154 59.9863Z" fill="#4A4700"/>
<path id="Vector_125" d="M24.8694 48.6297C24.8694 48.9032 24.4627 49.3765 24.3189 49.2889C24.1752 49.2012 23.9683 48.9383 24.0034 48.784C24.0359 48.6677 24.0936 48.5601 24.1724 48.4686C24.2512 48.3771 24.3491 48.304 24.4592 48.2546C24.513 48.2357 24.5709 48.2318 24.6268 48.2432C24.6826 48.2547 24.7344 48.281 24.7764 48.3195C24.8185 48.358 24.8494 48.4072 24.8658 48.4618C24.8821 48.5164 24.8834 48.5744 24.8694 48.6297Z" fill="#4A4700"/>
<path id="Vector_126" d="M36.4994 29.0967C36.6008 29.222 36.6484 29.3822 36.632 29.5425C36.6156 29.7028 36.5364 29.8501 36.4118 29.9522C36.3293 29.9929 36.238 30.0123 36.1461 30.0086C36.0543 30.0049 35.9648 29.9783 35.8859 29.9312C35.83 29.859 35.791 29.7753 35.7715 29.6861C35.7521 29.597 35.7529 29.5046 35.7737 29.4157C35.8613 29.0266 36.2084 29.1212 36.4994 29.0967Z" fill="#4A4700"/>
<path id="Vector_127" d="M26.647 53.0616L26.8364 52.5918L26.9521 52.7952L27.5201 52.6234C27.4557 52.9506 27.3678 53.2729 27.2571 53.5876C27.2166 53.6414 27.1633 53.6843 27.1021 53.7124C27.041 53.7406 26.9737 53.7531 26.9065 53.7488C26.8048 53.7068 26.7452 53.5174 26.6996 53.3982C26.6766 53.2888 26.6695 53.1766 26.6786 53.0651L26.647 53.0616Z" fill="#4A4700"/>
<path id="Vector_128" d="M33.5542 60.1615C33.6318 60.1569 33.7093 60.1704 33.7807 60.2009C33.8521 60.2314 33.9155 60.278 33.9658 60.3372C34.0161 60.3963 34.052 60.4664 34.0706 60.5417C34.0893 60.6171 34.0901 60.6958 34.0732 60.7716C34.0416 60.975 33.8242 61.1538 33.6735 61.3291C33.6489 61.3606 33.4911 61.3291 33.4666 61.294C33.3824 61.1468 33.2597 60.9715 33.2808 60.8277C33.3434 60.595 33.4353 60.3711 33.5542 60.1615Z" fill="#4A4700"/>
<path id="Vector_129" d="M41.4431 34.1877C41.4922 34.5383 41.2783 34.7241 41.0224 34.6715C40.826 34.6295 40.5385 34.3665 40.5455 34.2087C40.5712 34.094 40.6265 33.988 40.7058 33.9013C40.7852 33.8145 40.8858 33.7501 40.9978 33.7143C41.0618 33.7003 41.1283 33.7031 41.1908 33.7225C41.2534 33.7419 41.3098 33.7771 41.3547 33.8248C41.3995 33.8725 41.4312 33.931 41.4467 33.9946C41.4623 34.0582 41.461 34.1247 41.4431 34.1877Z" fill="#4A4700"/>
<path id="Vector_130" d="M29.5782 42.9707C29.3783 42.7393 29.1995 42.6201 29.175 42.4869C29.1224 42.2064 29.4695 41.7611 29.6308 41.8557C29.7334 41.9109 29.8235 41.9867 29.8954 42.0784C29.9672 42.1702 30.0192 42.2758 30.048 42.3887C30.0621 42.5395 29.8026 42.7183 29.5782 42.9707Z" fill="#4A4700"/>
<path id="Vector_131" d="M31.5908 42.5467C31.5735 42.7317 31.5454 42.9155 31.5066 43.0972C31.4189 43.4198 31.156 43.3532 30.9246 43.3321C30.6932 43.3111 30.6862 43.1603 30.7352 42.9815C30.7843 42.8027 30.7738 42.5222 30.8089 42.5187C31.0698 42.5076 31.3313 42.5169 31.5908 42.5467Z" fill="#4A4700"/>
<path id="Vector_132" d="M44.9143 34.1634C44.8275 34.05 44.7622 33.9217 44.7215 33.7848C44.709 33.7195 44.7102 33.6522 44.7253 33.5875C44.7403 33.5227 44.7686 33.4617 44.8086 33.4086C44.8486 33.3554 44.8992 33.3112 44.9572 33.2788C45.0153 33.2463 45.0795 33.2264 45.1457 33.2203C45.2116 33.216 45.2776 33.2252 45.3398 33.2473C45.4019 33.2695 45.4589 33.3041 45.5072 33.3491C45.5554 33.3941 45.594 33.4485 45.6205 33.509C45.647 33.5694 45.6608 33.6346 45.6611 33.7006C45.6331 34.1529 45.2299 33.9671 44.9143 34.1634Z" fill="#4A4700"/>
<path id="Vector_133" d="M27.1134 55.9263C27.3763 56.0069 27.769 55.7895 27.8146 56.2138C27.8146 56.3786 28.1091 56.8659 27.5376 56.8098C27.3518 56.7888 27.0783 56.7152 27.0257 56.5889C26.9731 56.4627 27.0678 56.1962 27.1134 55.9263Z" fill="#4A4700"/>
<path id="Vector_134" d="M26.6751 53.0403L26.2298 53.391V52.83H26.1772L26.0264 53.1806C25.9002 53.0403 25.6758 52.8861 25.7179 52.83C25.8126 52.6021 25.9107 52.2935 26.2578 52.3637C26.4331 52.3987 26.7101 52.3917 26.6365 52.7318C26.6287 52.8492 26.637 52.9672 26.6611 53.0824L26.6751 53.0403Z" fill="#4A4700"/>
<path id="Vector_135" d="M27.769 35.1135C27.6401 34.9123 27.5464 34.6906 27.492 34.4579C27.5128 34.3694 27.5559 34.2878 27.6173 34.2209C27.6787 34.154 27.7563 34.104 27.8426 34.0757C28.0144 34.0757 28.3405 34.2966 28.3265 34.3737C28.2518 34.629 28.1408 34.8723 27.9969 35.096L27.769 35.1135Z" fill="#4A4700"/>
<path id="Vector_136" d="M39.4376 38.8544C39.2518 38.5844 39.0554 38.4266 39.0519 38.2653C39.0484 38.104 39.0309 37.7219 39.4025 37.7148C39.5427 37.749 39.6664 37.8312 39.7522 37.9472C39.8381 38.0631 39.8806 38.2054 39.8724 38.3495C39.8373 38.5002 39.648 38.6194 39.4376 38.8544Z" fill="#4A4700"/>
<path id="Vector_137" d="M44.5882 35.3762C44.8512 35.1833 44.9809 35.0255 45.1387 34.9905C45.3596 34.9414 45.7698 35.3411 45.7067 35.5339C45.6436 35.7268 45.4122 35.9196 45.328 35.8845C45.0608 35.7471 44.8122 35.5763 44.5882 35.3762Z" fill="#4A4700"/>
<path id="Vector_138" d="M44.6303 35.5094C44.4935 36.2107 44.3147 36.372 43.8063 36.2598C43.8063 35.4183 44.0377 35.2219 44.6303 35.5094Z" fill="#4A4700"/>
<path id="Vector_139" d="M35.5668 29.6474C35.3109 29.7912 35.1461 29.9524 35.0514 29.9209C34.8691 29.8543 34.5816 29.6579 34.5991 29.5703C34.6271 29.3809 34.8445 29.2197 34.9813 29.0479L35.5668 29.6474Z" fill="#4A4700"/>
<path id="Vector_140" d="M28.3335 58.6505C28.3966 58.4822 28.4387 58.3525 28.4948 58.2263C28.5158 58.1772 28.5684 58.1035 28.593 58.1071C28.7936 58.1217 28.9881 58.1829 29.161 58.2859C29.1968 58.3618 29.212 58.4458 29.2053 58.5294C29.1985 58.6131 29.1699 58.6935 29.1224 58.7627C29.0898 58.8069 29.0473 58.8429 28.9983 58.8676C28.9492 58.8924 28.8951 58.9053 28.8401 58.9053C28.7852 58.9053 28.7311 58.8924 28.682 58.8676C28.633 58.8429 28.5905 58.8069 28.5579 58.7627C28.5228 58.6891 28.4387 58.6821 28.3335 58.6505Z" fill="#4A4700"/>
<path id="Vector_141" d="M39.4937 33.7318C39.2553 33.9421 39.1186 34.1385 38.9433 34.1806C38.8486 34.2051 38.5576 33.8966 38.5926 33.8615C38.7212 33.6618 38.8717 33.4772 39.0414 33.311L39.4937 33.7318Z" fill="#4A4700"/>
<path id="Vector_142" d="M31.2647 40.4708C31.2647 40.8214 31.0824 40.9932 30.8334 41.0178C30.7493 41.0178 30.5319 40.7653 30.5564 40.6917C30.663 40.4606 30.7947 40.2418 30.9491 40.0396L31.2647 40.4708Z" fill="#4A4700"/>
<path id="Vector_143" d="M25.9247 43.458L26.3104 42.9355C26.4699 43.1262 26.6108 43.3316 26.7312 43.5491C26.6381 43.6948 26.4945 43.8009 26.328 43.8472C26.2228 43.8542 26.0965 43.6333 25.9247 43.458Z" fill="#4A4700"/>
<path id="Vector_144" d="M37.6354 57.2653L36.8641 56.9147C36.9329 56.7336 37.0352 56.5671 37.1656 56.4238C37.2498 56.3572 37.5969 56.4238 37.6109 56.501C37.6479 56.754 37.6561 57.0104 37.6354 57.2653Z" fill="#4A4700"/>
<path id="Vector_145" d="M32.3306 37.0104C32.1407 37.1771 31.9404 37.3317 31.731 37.4732C31.71 37.4732 31.475 37.2628 31.4961 37.2172C31.6077 36.9947 31.7367 36.7814 31.8818 36.5791L32.3306 37.0104Z" fill="#4A4700"/>
<path id="Vector_146" d="M36.4644 48.791C36.5531 48.5834 36.6598 48.3839 36.7834 48.195C36.875 48.0978 37.0007 48.04 37.134 48.0337C37.1796 48.0337 37.2532 48.2195 37.2813 48.3282C37.2991 48.4383 37.3061 48.5498 37.3023 48.6613L36.4644 48.791Z" fill="#4A4700"/>
<path id="Vector_147" d="M33.1615 54.4429C33.5998 54.4429 33.6699 54.534 33.7716 55.1441C33.1685 55.3089 33.0669 55.1932 33.1615 54.4429Z" fill="#4A4700"/>
<path id="Vector_148" d="M34.7534 30.6007L34.266 30.7795C34.0697 30.5061 34.266 30.2852 34.4343 30.0958C34.4979 30.0658 34.5674 30.0503 34.6377 30.0503C34.708 30.0503 34.7774 30.0658 34.841 30.0958C34.8955 30.2765 34.9216 30.4646 34.9182 30.6533L34.7534 30.6007Z" fill="#4A4700"/>
<path id="Vector_149" d="M25.8687 56.1959L26.0545 56.5465H25.5952C25.5781 56.3225 25.5994 56.0972 25.6583 55.8803C25.6934 55.7997 26.0089 55.8278 26.1667 55.8242C26.1947 55.8242 26.2508 55.975 26.2438 55.982C26.1492 56.0557 26.037 56.1118 25.8687 56.1959Z" fill="#4A4700"/>
<path id="Vector_150" d="M42.1584 46.7293C41.9929 46.6328 41.8408 46.5149 41.7061 46.3787C41.6711 46.3366 41.7938 46.1052 41.8955 46.0281C41.9971 45.9509 42.1689 45.9965 42.3092 45.9895V46.6522L42.1584 46.7293Z" fill="#4A4700"/>
<path id="Vector_151" d="M37.085 57.8193L37.6495 58.2541C37.4987 58.3803 37.3234 58.6328 37.2042 58.6047C36.7414 58.5101 37.1236 58.1314 36.9938 57.9035L37.085 57.8193Z" fill="#4A4700"/>
<path id="Vector_152" d="M41.0224 37.2625L40.7104 37.7316L40.791 37.8262C40.7023 37.8331 40.6132 37.8331 40.5245 37.8262C40.4158 37.8017 40.2195 37.7597 40.2195 37.7246C40.2028 37.5567 40.2357 37.3875 40.3142 37.238C40.3597 37.1715 40.5771 37.21 40.7139 37.238C40.8197 37.2526 40.924 37.276 41.0259 37.308L41.0224 37.2625Z" fill="#4A4700"/>
<path id="Vector_153" d="M29.1715 31.1866C28.7543 31.0849 28.7508 31.0604 29.0137 30.3101C29.0874 30.3521 29.1575 30.3872 29.2241 30.4328C29.2907 30.4784 29.3749 30.545 29.4485 30.6011L29.1715 31.1866Z" fill="#4A4700"/>
<path id="Vector_154" d="M30.2304 32.9395L30.5565 32.9745V33.0236C30.4478 33.0517 30.3356 33.1218 30.2374 33.1042C30.034 33.0622 29.8482 32.95 29.9569 32.6975C30.0656 32.4451 30.1848 32.3083 30.5004 32.4977L30.2304 32.9395Z" fill="#4A4700"/>
<path id="Vector_155" d="M25.8126 58.2603L25.2516 58.1028L25.1604 57.6301L25.7529 57.5986V57.7037L25.504 57.9137L25.8126 58.2603Z" fill="#4A4700"/>
<path id="Vector_156" d="M41.373 49.534C41.2538 49.6286 41.1276 49.8071 41.0224 49.7966C40.9172 49.7861 40.77 49.6181 40.6437 49.5165L40.7068 49.3555L41.338 49.4045L41.373 49.534Z" fill="#4A4700"/>
<path id="Vector_157" d="M29.4274 45.3863L28.6946 45.8239C28.7157 45.6349 28.6946 45.4738 28.7507 45.4038C28.7922 45.3554 28.8434 45.3162 28.9011 45.2888C28.9587 45.2614 29.0214 45.2464 29.0852 45.2448C29.149 45.2431 29.2124 45.2549 29.2714 45.2792C29.3303 45.3036 29.3835 45.3401 29.4274 45.3863Z" fill="#4A4700"/>
<path id="Vector_158" d="M36.5064 50.7297L36.2084 51.0798L35.5493 50.7577L36.4398 50.5967L36.5064 50.7297Z" fill="#4A4700"/>
<path id="Vector_159" d="M35.0619 46.6865L34.7674 46.1648L35.3038 46.0913L35.1951 46.613L35.0619 46.6865Z" fill="#4A4700"/>
<path id="Vector_160" d="M34.5991 31.1751L35.0934 30.6289L35.1636 31.1751H34.5991Z" fill="#4A4700"/>
</g>
<defs>
<clipPath id="clip0_61_1922">
<rect width="100" height="119.172" fill="white" transform="translate(0 0.79834)"/>
</clipPath>
</defs>
</svg>
