<svg width="125" height="97" viewBox="0 0 125 97" fill="none" xmlns="http://www.w3.org/2000/svg">
<g id="Capa_1" clip-path="url(#clip0_61_1290)">
<path id="Vector" d="M53.773 30.0106C53.7049 30.1877 53.666 30.3746 53.6577 30.5642C54.1536 33.4322 54.6726 36.2963 55.1724 39.1643C55.2877 39.8448 55.3493 40.533 55.4338 41.2173C55.5953 42.4937 55.7452 43.77 55.9144 45.0618C56.1451 46.7764 56.3873 48.4911 56.6295 50.2442C61.5451 49.5036 66.5641 49.8714 71.3193 51.3206C71.3396 51.1677 71.3498 51.0136 71.3501 50.8593C71.319 50.098 71.2329 49.3399 71.0925 48.591C70.7695 47.3454 70.9618 46.096 70.931 44.8503C70.931 44.4659 71.0925 44.1199 71.1194 43.7547C71.1578 43.2357 71.1194 42.7128 71.1502 42.1938C71.2732 40.7406 71.4077 39.2835 71.5615 37.8341C71.7268 36.2963 71.946 34.7893 72.0844 33.2592C72.1652 32.2364 72.3415 31.2235 72.6111 30.2336C72.747 29.5905 72.842 28.9395 72.8955 28.2844C72.9378 27.9807 73.0032 27.6847 73.0378 27.3848C73.0492 27.2081 73.0492 27.0309 73.0378 26.8543C73.1608 26.4698 73.2992 26.0854 73.3838 25.7009C73.8528 23.6505 74.3116 21.6001 74.7601 19.5497C75.2022 17.5044 75.6213 15.4553 76.0403 13.3985C76.0788 13.2101 76.0403 13.0141 76.0403 12.8142C76.0711 12.5604 75.8904 12.2029 76.3479 12.126C76.394 12.126 76.4402 12.0068 76.4517 11.9376C76.7554 10.5459 77.0591 9.15035 77.3475 7.75479C77.4128 7.43954 77.4359 7.11661 77.4743 6.79751C77.5013 6.58222 77.5435 6.38615 77.8319 6.43997C78.1202 6.4938 78.3394 6.52455 78.3124 6.87056C78.2855 7.21656 78.2586 7.6087 78.1971 7.97008C77.9318 9.48097 77.6512 10.9842 77.3744 12.5297C78.0895 12.8603 78.8315 13.214 79.585 13.5523C80.2232 13.8406 80.8883 14.079 81.5072 14.4019C84.5796 15.9575 87.4595 17.8671 90.0881 20.0918C91.7915 21.5881 93.41 23.1784 94.9361 24.8551C96.3027 26.3702 97.5471 27.9912 98.6575 29.703C99.5494 31.0524 100.268 32.521 101.045 33.932C102.644 36.9606 103.88 40.1673 104.728 43.4855C105.046 44.7821 105.285 46.0968 105.443 47.4223C105.651 48.8794 105.797 50.3441 105.935 51.8089C105.985 52.351 105.862 52.9123 105.935 53.4466C106.116 54.7192 105.858 55.9609 105.77 57.2143C105.735 57.6679 105.751 58.1292 105.716 58.5829C105.405 62.0491 104.629 65.4577 103.409 68.717C102.686 70.6748 101.841 72.5854 100.88 74.4376C99.8284 76.4547 98.5806 78.3632 97.1543 80.1351C95.6771 82.0577 94.0469 83.8577 92.2795 85.5174C91.0603 86.6182 89.7765 87.6452 88.435 88.593C86.9895 89.6272 85.4709 90.5537 83.9715 91.5072C83.5064 91.807 83.0143 92.0569 82.5222 92.3107C82.3761 92.3531 82.2244 92.3725 82.0724 92.3683C81.8819 92.5429 81.6731 92.6963 81.4496 92.8258C80.5653 93.2103 79.6734 93.5947 78.7584 93.9407C78.52 94.0368 78.4547 94.1791 78.374 94.4328C78.331 94.5948 78.2558 94.7465 78.1527 94.8786C78.0496 95.0108 77.9209 95.1207 77.7742 95.2017C76.6016 95.5862 75.3983 95.8784 74.1988 96.1898C74.047 96.2069 73.8933 96.1898 73.749 96.1398C72.4035 95.7976 71.0963 96.1705 69.7815 96.3397C68.582 96.4973 67.3825 96.6665 66.1754 96.7588C64.9682 96.851 63.7918 96.8702 62.5961 96.8856C62.1117 96.8856 61.6235 96.801 61.1391 96.7741C60.3356 96.7357 59.5321 96.7434 58.7324 96.6819C58.1481 96.6357 57.5791 96.4743 56.9909 96.4281C56.5271 96.3806 56.0591 96.3948 55.5992 96.4704C55.1076 96.5857 54.6246 96.7347 54.1536 96.9164C54.0003 96.9633 53.8382 96.9741 53.6801 96.9479C53.5219 96.9218 53.372 96.8593 53.242 96.7654C53.112 96.6716 53.0055 96.5489 52.9309 96.407C52.8563 96.2651 52.8155 96.1078 52.8119 95.9476C52.8119 95.7246 52.8119 95.5631 52.5428 95.5054C51.5509 95.2594 50.5552 95.0326 49.5825 94.7365C48.7389 94.4729 47.9121 94.1584 47.1067 93.7946C45.7226 93.1718 44.3386 92.5413 42.9969 91.834C41.7244 91.1689 40.4826 90.4384 39.2677 89.6733C36.397 87.8266 33.7598 85.6399 31.4134 83.1608C29.1886 80.8871 27.2377 78.3607 25.6005 75.6332C24.9085 74.4799 24.2127 73.3265 23.6168 72.1078C22.7223 70.413 21.9886 68.638 21.4254 66.8063C20.9756 65.1993 20.5143 63.5923 20.0875 61.9737C19.9914 61.6124 20.1221 61.1702 19.9645 60.855C19.6819 60.1921 19.5217 59.4836 19.4916 58.7636C19.3724 57.6525 19.3186 56.5376 19.2379 55.4227C19.1879 54.7076 19.1341 53.9964 19.1072 53.2813C19.1072 53.0699 19.2033 52.8584 19.2071 52.647C19.2071 52.2971 19.1572 51.9434 19.1648 51.5897C19.1875 51.3316 19.2247 51.0748 19.2763 50.8209C19.2763 50.6517 19.3648 50.4364 19.2994 50.3249C18.9918 49.7059 19.4916 49.2023 19.434 48.6256H19.607C19.607 48.7756 19.6262 48.9217 19.6262 49.0678C19.6262 50.0673 19.5801 51.0631 19.5724 52.0588C19.6126 54.0215 19.7525 55.9808 19.9914 57.9293C20.1386 58.9945 20.3557 60.0489 20.6411 61.0857C20.9295 62.339 21.1947 63.6038 21.5946 64.8225C22.2328 66.7448 22.8786 68.667 23.6898 70.5162C24.8546 73.0691 26.2712 75.4993 27.9188 77.7708C29.5616 80.0919 31.4428 82.2347 33.5317 84.1642C35.4497 86.0275 37.5432 87.7012 39.7829 89.162C42.0239 90.5519 44.3682 91.7678 46.7953 92.7989C48.5868 93.5678 50.4629 94.0292 52.2852 94.6789C52.4428 94.7365 52.6081 94.7635 52.8696 94.8288C52.9887 93.983 53.1348 93.1757 53.2117 92.3645C53.3271 91.1727 53.3732 89.9732 53.4924 88.7853C53.5462 88.247 53.7384 87.7203 53.823 87.186C54.0037 86.0557 53.9883 86.0634 52.9003 85.7212C50.7206 85.0753 48.614 84.2044 46.6146 83.1223C44.172 81.7871 41.9239 80.1236 39.9328 78.1783C38.8256 77.0749 37.7184 75.96 36.7111 74.7682C35.2692 73.0012 34.0443 71.0678 33.0627 69.0092C31.8657 66.6889 30.9703 64.2251 30.3985 61.6777C30.1255 60.3591 29.9525 59.0212 29.7372 57.6948C29.4258 55.8072 29.5565 53.9234 29.6027 52.0011C29.675 50.6034 29.8732 49.215 30.1947 47.8529C30.6488 45.657 31.3012 43.5068 32.1439 41.4287C33.1055 39.1685 34.3081 37.0185 35.7308 35.0161C36.0307 34.5702 36.4728 34.2203 36.8188 33.7974C37.0764 33.4822 37.2647 33.1054 37.5262 32.7902C38.0499 32.114 38.6161 31.472 39.2216 30.8679C40.1231 30.0207 41.0716 29.2249 42.0627 28.4843C43.439 27.4617 44.8307 26.4467 46.2916 25.5663C47.445 24.8705 48.7329 24.3822 49.9631 23.8017H50.0016C50.9242 23.4749 50.8896 23.4865 50.6436 22.5676C50.0708 20.4339 49.5287 18.2887 48.9866 16.1473C48.9136 15.8705 48.9289 15.5668 48.8367 15.3015C48.8032 15.2176 48.7512 15.1422 48.6847 15.0809C48.6182 15.0197 48.5387 14.9742 48.4522 14.9478C48.3951 14.941 48.3399 14.9224 48.2903 14.8933C48.2406 14.8642 48.1975 14.8251 48.1635 14.7786C48.1296 14.732 48.1057 14.679 48.0932 14.6228C48.0807 14.5666 48.0799 14.5084 48.0908 14.4519C48.0908 14.0675 48.137 13.7176 48.1485 13.3485C48.1485 13.0948 48.1485 12.8411 48.1485 12.4143C46.0763 13.3293 44.1233 14.1636 42.1934 15.0516C39.9482 16.082 37.9644 17.5314 35.9691 18.973C34.6479 19.9953 33.3933 21.1009 32.2131 22.2831C29.8372 24.5437 27.9457 27.2003 26.1426 29.9337C23.7206 33.5475 22.2135 37.565 21.0909 41.7286C20.8415 42.7581 20.6553 43.8019 20.5335 44.8542C20.4412 45.4924 20.3413 45.6231 19.5647 45.5923C19.5834 45.0757 19.6439 44.5614 19.7454 44.0545C20.5258 41.3249 21.1448 38.5454 22.2981 35.9273C22.8517 34.6817 23.3707 33.4168 24.0012 32.2135C24.5471 31.1678 25.2084 30.1836 25.8466 29.1879C27.9469 25.8227 30.5386 22.7905 33.5356 20.1917C35.6681 18.3382 37.9768 16.6978 40.4288 15.2939C41.7936 14.525 43.2045 13.856 44.6308 13.2178C45.911 12.645 47.2412 12.1837 48.5445 11.68C48.6938 11.6209 48.8195 11.5141 48.902 11.3763C49.8431 9.62549 51.1824 8.12029 52.8119 6.98205C53.9442 6.10473 55.2574 5.49015 56.6564 5.18282C58.1742 4.93773 59.7252 4.98864 61.2237 5.33276C61.8195 5.44809 62.427 5.52883 63.0229 5.64801C63.5111 5.74412 63.9955 5.87099 64.4799 6.00555C64.7145 6.06706 64.9028 6.12473 65.0605 5.84023C65.1651 5.68789 65.3182 5.57543 65.4949 5.52114C66.3253 5.25971 67.1634 5.01751 68.0015 4.783C69.6969 4.31012 71.4346 4.35626 73.1685 4.39855C74.903 4.44708 76.6213 4.7462 78.2702 5.28663C78.3604 5.3034 78.4458 5.34019 78.5201 5.39427C78.6129 5.50476 78.6941 5.62458 78.7622 5.75181C78.6478 5.81517 78.5248 5.86178 78.397 5.89021C78.0758 5.9133 77.7533 5.9133 77.4321 5.89021C76.2787 5.77872 75.1638 5.61725 74.0258 5.53652C72.0252 5.39154 70.0149 5.45855 68.0284 5.73643C67.3672 5.83254 66.7251 6.0363 65.9447 6.22084L66.8443 6.86671C66.0794 7.05489 65.282 7.06934 64.5107 6.909C63.4419 6.78214 62.3808 6.62836 61.3082 6.52455C60.0934 6.4246 58.8747 6.32848 57.656 6.33233C56.697 6.32904 55.7565 6.59548 54.9417 7.10123C53.9462 7.70357 52.9849 8.3607 52.0622 9.06961C51.5325 9.5144 51.0793 10.043 50.7205 10.6343C50.2114 11.4704 49.7469 12.3327 49.3288 13.2178C49.2376 13.4426 49.2227 13.6911 49.2865 13.9252C49.8298 16.0474 50.3847 18.167 50.9512 20.284C51.1626 21.0529 51.3971 21.8449 51.6355 22.6215C51.7085 22.856 51.7354 23.1482 52.1276 23.1213C52.2354 23.3066 52.2986 23.5146 52.3121 23.7287C52.291 24.041 52.291 24.3544 52.3121 24.6667C52.6235 25.9431 52.9887 27.208 53.3117 28.4843C53.4001 28.8188 53.6615 29.1148 53.5001 29.5262C53.4385 29.6377 53.6807 29.8683 53.773 30.0106ZM35.8346 38.3262C35.9625 38.2301 36.0821 38.1233 36.1921 38.0071C37.2173 36.7 38.2259 35.3916 39.2177 34.0819C39.3331 33.932 39.433 33.7705 39.6022 33.5091C39.4292 33.586 39.3831 33.5937 39.36 33.6206C38.4296 34.7739 37.4839 35.8811 36.5804 37.0422C36.2927 37.4533 36.0357 37.885 35.8115 38.3339C35.5862 38.6363 35.3795 38.9521 35.1926 39.2797C34.8081 40.0486 34.4583 40.8175 34.093 41.5595L34.2237 41.621L35.2502 39.4757C35.4694 39.0951 35.6539 38.7107 35.8346 38.3262ZM52.2852 28.6227C51.0742 29.3916 49.8862 30.0529 48.7752 30.8372C47.6983 31.5891 46.6709 32.4097 45.6996 33.2938C44.8413 34.1105 44.0373 34.9825 43.2929 35.9042C42.4702 36.8558 41.7001 37.8518 40.9862 38.8875C39.5048 41.0614 38.2011 43.3511 37.0879 45.7346C37.0448 45.8772 36.9575 46.0024 36.8387 46.0922C36.7198 46.182 36.5756 46.2318 36.4266 46.2344C36.5497 45.7576 36.6765 45.3232 36.7803 44.8811C37.0352 43.9502 37.4404 43.0672 37.9798 42.2668C38.3412 41.6671 38.5719 40.9789 38.9717 40.4061C39.6752 39.3988 40.125 38.2224 41.1131 37.4036C41.6167 36.9883 41.882 36.3194 42.3203 35.7966C42.9277 35.0277 43.562 34.3203 44.2002 33.5937C44.3655 33.4053 44.5847 33.2707 44.7807 33.0939C45.0537 32.8286 45.2844 32.5095 45.5804 32.275C46.2891 31.6701 47.0352 31.1102 47.814 30.5988C49.0789 29.8299 50.3975 29.1417 51.6855 28.4074C51.8354 28.3229 52.0699 28.1422 52.0468 28.023C51.9084 27.1618 51.747 26.3006 51.5355 25.451C51.4163 24.9743 51.2587 24.9628 50.9166 25.2203C51.0319 25.3741 51.2318 25.5202 51.2356 25.674C51.2241 25.9014 51.1437 26.12 51.005 26.3006C50.8753 26.4299 50.721 26.5318 50.5513 26.6005C49.3288 27.3387 48.0678 28.0153 46.899 28.8265C45.8891 29.547 44.9296 30.3357 44.0272 31.187C42.7854 32.3404 41.5437 33.4937 40.4134 34.7393C38.4903 36.7879 36.8824 39.1111 35.6424 41.6325C35.0695 42.8512 34.3698 44.0315 33.9815 45.3078C33.4864 47.0786 33.0899 48.8755 32.7936 50.6901C32.6411 51.7093 32.5448 52.736 32.5053 53.7657C32.4094 54.5423 32.3863 55.3261 32.4361 56.107C32.5176 56.6977 32.3809 57.2978 32.0516 57.7948C31.9707 57.9447 31.9369 58.1156 31.9548 58.285C31.9726 58.4545 32.0412 58.6146 32.1516 58.7444C32.2452 58.9443 32.3038 59.1589 32.3246 59.3787C32.4053 59.7632 32.4707 60.1476 32.5668 60.5128C32.6052 60.6705 32.7244 60.805 32.7705 60.9626C33.155 62.189 33.4664 63.427 34.1123 64.5649C34.6274 65.4645 34.9888 66.4526 35.4424 67.3868C36.8572 70.3009 39.0255 72.6653 41.14 75.0527C42.1177 76.0672 43.1647 77.0127 44.2733 77.8823C45.5208 78.8892 46.879 79.7508 48.3215 80.4504C48.8982 80.7503 49.4749 81.0617 50.1054 81.4077C50.4898 81.2231 51.228 81.8152 51.1934 82.4572C51.1053 82.4472 51.0188 82.4266 50.9358 82.3957C49.7824 81.8344 48.6099 81.2885 47.4757 80.6888C47.0336 80.4581 46.6722 80.0813 46.2493 79.8084C45.6842 79.447 45.0614 79.1702 44.5308 78.7665C42.9354 77.5478 41.3399 76.3214 40.0674 74.7413C38.8564 73.2381 37.58 71.7849 36.4459 70.224C35.8011 69.24 35.2256 68.2123 34.7235 67.1484C34.4313 66.5948 34.1661 66.0258 33.9123 65.453C33.7393 65.0686 33.6163 64.6495 33.4548 64.2535C33.3203 63.9306 33.1242 63.6307 33.0166 63.3039C32.8594 62.5986 32.6539 61.905 32.4015 61.2279C31.9516 60.2706 31.9286 59.2365 31.6864 58.2446C31.5811 57.6981 31.5067 57.1462 31.4634 56.5914C31.4308 56.6247 31.4057 56.6646 31.3898 56.7083C31.3739 56.7521 31.3675 56.7988 31.3711 56.8452C31.3771 57.5757 31.3424 58.306 31.2673 59.0327C31.1731 59.6352 31.1731 60.2487 31.2673 60.8512C31.6638 63.1379 32.37 65.3599 33.3664 67.456C34.2678 69.4538 35.3925 71.3433 36.7188 73.0882C37.2141 73.8081 37.7587 74.4928 38.3489 75.1373C39.8175 76.6059 41.2015 78.1514 42.9238 79.3662C44.1463 80.2803 45.4141 81.1323 46.7222 81.919C49.0593 83.215 51.5406 84.2318 54.1152 84.9485C54.1767 84.6025 54.2228 84.3064 54.2843 84.0142C54.3728 83.599 54.1805 83.4722 53.7922 83.3761C53.081 83.1992 52.389 82.9493 51.697 82.7033C51.3125 82.5649 51.2702 82.2804 51.474 81.9344L53.7538 82.7379C54.3228 82.9339 54.4266 82.8724 54.4958 82.2727C54.5765 81.5576 54.6227 80.8387 54.738 80.1275C54.8533 79.4162 54.738 78.755 54.0421 78.3244C53.8661 78.2141 53.734 78.0459 53.6687 77.8487C53.6034 77.6514 53.609 77.4376 53.6846 77.2441C54.1113 77.5862 54.4881 77.89 54.8802 78.2129C54.9994 76.9788 55.1417 75.8216 55.2032 74.6606C55.2608 73.5957 55.2032 72.523 55.2339 71.4543C55.2339 71.1813 55.257 70.9084 55.2724 70.6354C55.3147 69.805 55.3608 68.9746 55.3992 68.1442C55.4251 67.9778 55.4106 67.8077 55.357 67.6482C55.2664 67.4979 55.2186 67.3258 55.2186 67.1504C55.2186 66.9749 55.2664 66.8028 55.357 66.6525C55.4377 66.491 55.3569 66.2411 55.3262 66.0297C55.2839 65.5953 55.2262 65.1608 55.1878 64.7226C55.1878 64.5419 55.1878 64.3381 55.1878 64.1728C55.1378 63.6576 55.0494 63.1502 55.0186 62.635C54.9763 62.0237 54.9879 61.4086 54.9533 60.7935C54.9533 60.5013 54.8725 60.2091 54.8264 59.8823C54.6803 59.7478 54.3997 59.5978 54.3112 59.3749C54.0842 58.9235 53.9533 58.43 53.9268 57.9255C53.9614 57.1181 53.6346 56.3339 53.8307 55.5265C53.8346 55.4499 53.8255 55.3732 53.8038 55.2997C53.7509 55.015 53.7149 54.7275 53.6961 54.4385C53.6769 53.6696 53.6961 52.9007 53.6731 52.1318C53.672 52.0386 53.6521 51.9466 53.6144 51.8614C53.5767 51.7761 53.5221 51.6994 53.4539 51.6359C53.0695 51.3783 53.1848 51.1438 53.4039 50.867C53.5048 50.7574 53.5973 50.6405 53.6807 50.5171C53.8268 50.2711 53.9576 50.0174 54.096 49.7482L54.2382 49.7905C54.2882 50.0481 54.3382 50.3057 54.3881 50.5825C54.5765 50.5479 54.7418 50.5133 54.9071 50.4902C56.2566 50.3057 55.9144 50.2634 55.7068 49.2485C55.3685 47.5799 55.0532 45.9114 54.7457 44.2506C54.6188 43.5586 54.5381 42.8589 54.442 42.1592C54.3881 41.7747 54.3497 41.3634 54.2882 40.9674C54.2382 40.6675 54.1421 40.3754 54.1075 40.0793C54.0614 39.6372 54.0844 39.1912 54.0191 38.753C53.9383 38.2109 53.7692 37.6765 53.6884 37.1344C53.4655 35.6389 53.2771 34.1396 53.0579 32.6441C52.9772 32.1058 52.8503 31.5753 52.7388 31.0178C52.6618 31.0347 52.5869 31.0605 52.5159 31.0947C51.6624 31.6906 50.8243 32.3134 49.9516 32.8863C49.192 33.361 48.5045 33.9423 47.9102 34.6124C47.8889 34.6349 47.8658 34.6555 47.841 34.674C47.5026 34.9354 47.1797 35.2237 46.8222 35.4429C46.4646 35.662 46.0533 35.8273 45.6957 36.0311L45.5765 35.8696C45.6848 35.666 45.8136 35.4741 45.961 35.2968C46.7068 34.5817 47.4527 33.8589 48.2369 33.1861C48.7888 32.7357 49.3706 32.3234 49.9785 31.9521C50.7474 31.4484 51.5778 30.9948 52.389 30.5296C52.6466 30.3797 52.685 30.2182 52.4467 29.8914L49.1289 32.2481C48.5906 32.6325 48.0601 33.017 47.5257 33.4014C47.2104 33.5911 46.9109 33.8058 46.6299 34.0435C46.2455 34.4279 45.9495 34.8816 45.5765 35.2699C44.7615 36.1157 43.9234 36.9384 43.093 37.7726C43.0439 37.8312 43.0072 37.8993 42.9854 37.9725C42.8662 38.357 42.5471 38.4992 42.1357 38.5377C42.4125 37.888 42.6278 37.1767 43.0776 36.6808C44.231 35.4236 45.4612 34.2588 46.6645 33.0631C46.7661 32.9684 46.8783 32.8858 46.999 32.8171C47.5065 32.498 48.0447 32.2173 48.5368 31.8559C49.5226 31.0248 50.6167 30.3316 51.7893 29.7953C52.4928 29.5146 52.512 29.5031 52.2852 28.6227ZM78.4547 93.3295C78.7392 93.2218 78.9699 93.1449 79.1928 93.0527C80.1347 92.6682 81.1151 92.3222 82.007 91.8532C83.3103 91.1765 84.5867 90.4422 85.8284 89.6618C86.8741 89.0044 87.8699 88.2663 88.8617 87.5281C89.4461 87.0937 89.9113 86.4517 90.5456 86.1364C91.5529 85.6405 92.2141 84.787 92.96 84.045C94.0594 82.9009 95.0964 81.6984 96.0663 80.4427C96.8457 79.5144 97.5771 78.5469 98.2577 77.544C98.9612 76.4713 99.5648 75.3334 100.18 74.2069C102.025 70.7862 103.395 67.1297 104.251 63.3385C104.828 60.9127 104.986 58.4368 105.205 55.9648C105.243 55.5188 105.347 55.0767 105.397 54.6269C105.408 54.4158 105.393 54.2042 105.355 53.9964C105.328 53.8157 105.251 53.6427 105.228 53.462C105.124 52.5701 105.228 51.6782 105.051 50.7709C104.666 48.7986 104.582 46.7764 104.186 44.8119C103.408 41.0828 102.114 37.4804 100.341 34.1088C99.2245 31.8336 97.888 29.673 96.3508 27.6578C94.1951 24.9324 91.7598 22.4404 89.0847 20.2225C85.8145 17.5452 82.1647 15.3685 78.2548 13.7637C77.9165 13.6215 77.5705 13.51 77.1629 13.3562C77.013 13.9829 76.8554 14.5403 76.7439 15.1093C76.4017 16.8663 76.0557 18.6232 75.7559 20.3878C75.5752 21.4566 75.4598 22.5369 75.3483 23.6133C75.3543 23.7018 75.3815 23.7875 75.4277 23.8631C75.4739 23.9388 75.5376 24.0021 75.6136 24.0478C77.3621 24.9066 79.0534 25.8774 80.6768 26.9542C82.3346 28.0569 83.889 29.3077 85.321 30.6911C86.1091 31.46 86.7588 32.3634 87.5085 33.1708C89.1539 34.9392 90.338 37.0153 91.5606 39.0759C91.7413 39.3835 91.8182 39.7525 91.9681 40.0793C92.218 40.6406 92.5409 41.175 92.737 41.7517C93.2496 43.2485 93.7199 44.7542 94.1479 46.269C94.4653 47.2604 94.7006 48.2762 94.8515 49.3061C95.036 50.9285 95.1014 52.5624 95.159 54.1925C95.2327 56.3729 95.0351 58.5541 94.5708 60.6858C94.3297 61.7472 94.0345 62.7955 93.6866 63.8268C93.2291 65.207 92.7947 66.6025 92.2065 67.925C91.6296 69.1365 90.9786 70.3113 90.2573 71.4427C89.34 73.035 88.252 74.5226 87.0125 75.8793C86.3628 76.5598 85.8592 77.3748 85.0903 77.9592C84.1638 78.6665 83.3295 79.497 82.3991 80.189C80.3937 81.7597 78.212 83.0912 75.8981 84.1565C75.8246 84.1733 75.7555 84.2055 75.6953 84.2509C75.6351 84.2963 75.5852 84.354 75.5489 84.4201C75.5126 84.4862 75.4907 84.5592 75.4846 84.6344C75.4785 84.7095 75.4884 84.7851 75.5136 84.8562C75.7174 85.7981 75.8981 86.7438 76.1134 87.6819C76.3287 88.6199 76.5786 89.6041 76.7977 90.5845C76.8554 90.8382 76.9784 90.9228 77.1822 90.7536C77.4551 90.5114 77.5897 90.6806 77.7204 90.8959C77.8132 91.034 77.8869 91.184 77.9395 91.3419C78.1087 91.9839 78.274 92.6413 78.4547 93.3295ZM74.787 27.158C74.6409 27.381 74.5064 27.4963 74.4756 27.6385C74.3449 28.2806 74.245 28.9341 74.1296 29.5838C73.849 31.1985 73.4838 32.8055 73.3031 34.4318C73.0455 36.6885 72.6956 38.9298 72.8225 41.2365C72.8494 41.7671 72.8225 42.3014 72.8225 42.832C72.8533 44.3698 72.884 45.9076 72.9301 47.4454C72.9475 47.8679 72.9898 48.2889 73.057 48.7064C73.127 48.9694 73.181 49.2365 73.2185 49.506C73.2185 50.1173 73.1839 50.7324 73.1301 51.3437C73.0993 51.6474 73.0955 51.8435 73.4453 51.9896C73.8644 52.1703 73.8528 52.4778 73.4761 52.7316C74.0451 53.6043 74.0873 53.8849 73.9067 54.6961C73.5222 56.3992 73.18 58.1139 72.7879 59.8131C72.7514 60.1135 72.6289 60.397 72.4352 60.6296C72.2416 60.8621 71.9849 61.0338 71.6961 61.1241C71.5961 61.1549 71.45 61.2971 71.4577 61.3702C71.5308 61.993 71.6384 62.6081 71.7345 63.227C71.846 63.9075 71.9613 64.588 72.0613 65.2685C72.1074 65.5683 72.1036 65.8798 72.1612 66.1796C72.3996 67.4522 72.6803 68.7131 72.884 69.9895C73.0686 71.1429 73.1647 72.2962 73.3223 73.4496C73.4338 74.2531 73.5837 75.0527 73.7067 75.8524C73.7606 76.1522 73.9413 76.283 74.2373 76.3983C74.9738 76.6357 75.6504 77.0291 76.221 77.5516C76.1134 77.5824 76.0288 77.6285 76.0096 77.6093C75.6251 77.2249 75.0984 77.2672 74.6256 77.1672C74.4218 77.1211 74.2411 77.0634 73.9374 76.9865C74.1911 78.5243 74.4257 79.9545 74.6871 81.5461C75.506 81.0963 76.2018 80.7772 76.8554 80.3466C78.174 79.5085 79.5235 78.705 80.7499 77.7439C81.8518 76.8445 82.8922 75.8723 83.8639 74.8336C84.7093 73.9974 85.4895 73.0977 86.1975 72.1424C87.084 70.9156 87.888 69.6313 88.6042 68.2979C89.7723 66.1365 90.666 63.8376 91.2646 61.4547C91.4299 60.7858 91.5529 60.1092 91.649 59.4287C91.8643 57.9486 92.095 56.4684 92.2411 54.9806C92.2968 54.1064 92.3045 53.2298 92.2641 52.3548C92.2185 49.4628 91.7748 46.5909 90.9455 43.82C90.148 41.1407 89.0288 38.5679 87.6123 36.1579C86.7899 34.6828 85.8227 33.2932 84.7251 32.0097C83.91 31.0947 83.0873 30.1797 82.1915 29.3532C80.7667 28.0987 79.1865 27.0328 77.4897 26.1815C76.7208 25.7701 75.925 25.4126 75.0523 25.0051C74.9408 25.8201 74.5833 26.5044 74.787 27.158ZM55.9259 60.2206C55.9043 60.2826 55.8914 60.3473 55.8875 60.4129C55.9528 61.4317 55.999 62.4543 56.0912 63.4885C56.2181 64.9648 56.4411 66.441 56.5065 67.9212C56.5795 69.6858 56.5334 71.4543 56.5257 73.2227C56.5257 73.761 56.5026 74.2992 56.4565 74.8336C56.3527 75.9869 56.2181 77.1403 56.1105 78.2936C56.0643 78.7742 56.0605 79.2624 56.0144 79.7468C55.8183 81.7306 55.6799 83.7221 55.3992 85.6981C55.0417 88.2163 54.5842 90.719 54.1267 93.2218C53.9691 94.0907 55.0801 95.048 55.8913 94.8403C58.248 94.2329 60.5932 93.587 62.946 92.9719C63.0741 92.9593 63.1925 92.898 63.2769 92.8008C63.3612 92.7036 63.4052 92.5777 63.3996 92.4491C63.4688 91.3226 63.5611 90.1962 63.6303 89.0659C63.6649 88.47 63.6303 87.8664 63.7034 87.2705C63.7995 86.3709 63.9763 85.4828 64.0878 84.5794C64.157 83.9566 64.1186 83.3184 64.1916 82.6956C64.2531 82.1881 64.4338 81.6922 64.5107 81.1847C64.6837 80.0544 64.776 78.9164 64.9836 77.7938C65.2293 76.4976 65.3452 75.1801 65.3296 73.8609C65.3296 72.8921 65.3296 71.9387 65.3296 70.9583C65.3295 70.8481 65.3553 70.7394 65.4049 70.641C65.4545 70.5426 65.5266 70.4573 65.6152 70.3918C65.7039 70.3263 65.8067 70.2826 65.9153 70.2642C66.024 70.2457 66.1354 70.253 66.2407 70.2855C66.4099 70.3163 66.6059 70.7277 66.6252 70.9814C66.6828 71.608 66.6444 72.2424 66.6482 72.8729C66.6482 74.1454 66.6059 75.4256 66.6482 76.6982C66.6905 77.9707 66.6482 79.1932 66.8174 80.4504C66.9327 81.2193 66.7866 82.0113 66.8443 82.8032C66.8451 83.4889 66.7962 84.1737 66.6982 84.8523C66.6747 85.0023 66.6825 85.1554 66.7213 85.3021C66.9673 85.925 66.7597 86.5209 66.6521 87.1244C66.5906 87.4589 66.4675 87.7857 66.4291 88.1202C66.4041 88.458 66.4041 88.7973 66.4291 89.1351C66.4599 90.2077 66.5021 91.2803 66.5252 92.353C66.5252 92.7374 66.7482 92.8143 67.0711 92.7643C67.3941 92.7143 67.6709 92.6913 67.9707 92.6528L68.0476 92.7759L67.4902 93.3372C68.225 93.7803 69.0621 94.0253 69.9199 94.0484C70.5312 94.106 71.1847 94.2521 71.7922 93.8984C71.9915 93.7854 72.2233 93.7434 72.4496 93.7793C72.8018 93.8748 73.1462 93.9969 73.4799 94.1445L73.0532 94.4867C73.4184 94.5943 73.7144 94.7827 73.9489 94.7289C74.96 94.4867 75.9481 94.1752 76.9938 93.8754C76.8323 93.3218 76.7208 92.8643 76.567 92.4222C76.1557 91.2496 75.679 90.1155 75.3176 88.9121C74.9816 87.7829 74.7044 86.637 74.4872 85.479C74.368 84.8562 74.4141 84.8216 73.7452 84.837C73.7452 84.5755 73.6183 84.2641 73.7183 84.0681C73.8583 83.8314 73.906 83.5513 73.852 83.2816C73.7981 83.012 73.6464 82.7718 73.4261 82.6072C73.33 82.5264 73.3261 82.2881 73.3338 82.1266C73.3338 81.9036 73.4838 81.6729 73.453 81.4653C73.2608 80.2005 73.0455 78.9395 72.8148 77.6785C72.6495 76.7827 72.4073 75.8985 72.2727 74.9874C72.0152 73.3073 71.8268 71.6157 71.5807 69.9357C71.3962 68.6939 71.1386 67.4598 70.9656 66.2181C70.7926 64.9763 70.4389 63.7845 70.5812 62.5235C70.5812 62.5235 70.5812 62.4966 70.5812 62.4812C70.5757 62.179 70.5526 61.8773 70.512 61.5778C70.4787 61.4028 70.3814 61.2465 70.239 61.1395C69.9007 60.9203 69.5124 60.7819 69.1779 60.5628C68.9511 60.4167 68.8319 60.3975 68.6397 60.6089C68.4884 60.8171 68.2719 60.9686 68.0246 61.0395C66.5483 61.1446 65.072 61.2164 63.5957 61.2548C63.1093 61.2348 62.6243 61.1899 62.1425 61.1203C60.9392 61.0318 59.732 60.9127 58.5287 60.8896C57.606 60.8896 56.7256 60.8281 55.9798 60.2053C55.9951 60.1822 55.9721 60.1976 55.9259 60.213V60.2206ZM65.6525 59.0289V59.1173L66.2369 59.1596C66.6213 59.1903 67.0288 59.2172 67.4248 59.2557C68.3936 59.3518 69.3471 59.4441 70.3274 59.5479C70.6158 59.5786 70.7119 59.4518 70.7119 59.1865C70.758 58.4868 70.7888 57.7794 70.9003 57.0874C71.0886 55.934 71.3462 54.8076 71.55 53.6619C71.5569 53.5789 71.5472 53.4954 71.5215 53.4162C71.4957 53.337 71.4544 53.2637 71.4 53.2006C71.1117 52.8853 70.7926 52.5932 70.4735 52.3048C70.3554 52.185 70.2084 52.0977 70.0468 52.0511C68.9729 51.8666 67.8977 51.6948 66.8212 51.5359C65.5487 51.3552 64.28 51.1092 63.0037 51.0554C61.6092 51.0228 60.214 51.069 58.8247 51.1938C57.5598 51.286 56.2989 51.4706 55.0379 51.632C54.9264 51.632 54.7457 51.7743 54.7341 51.8704C54.6657 52.2793 54.6412 52.6943 54.6611 53.1083C54.761 54.5 54.8841 55.8879 55.0455 57.2758C55.0697 57.3889 55.1162 57.4961 55.1822 57.5912C55.2482 57.6862 55.3324 57.7672 55.43 57.8294C55.6539 57.9672 55.9093 58.0452 56.172 58.0562C57.6406 58.1446 59.1092 58.2446 60.5778 58.2715C62.4039 58.3022 64.2339 58.2715 66.06 58.2715C66.3138 58.2715 66.4445 58.3445 66.4637 58.6559C66.4829 58.9673 66.3484 59.0404 66.0793 59.0404C65.9375 59.0259 65.795 59.0195 65.6525 59.0212V59.0289ZM89.4461 37.5842L89.3538 37.6304C89.4192 37.7919 89.4807 37.9572 89.5538 38.1148C89.9613 38.9913 90.4303 39.841 90.7686 40.7367C91.3733 42.2421 91.8504 43.7956 92.1949 45.3809C92.5739 47.1043 92.8143 48.8553 92.9138 50.6171C92.9408 51.4706 92.9561 52.3202 92.9907 53.1698C93.0443 53.4684 93.0777 53.7702 93.0907 54.0733C92.9215 55.6111 92.7447 57.1489 92.5179 58.6867C92.2866 60.5727 91.8323 62.4246 91.1646 64.2036C90.092 66.8639 88.9117 69.4744 87.2432 71.8387C85.7941 73.9143 84.092 75.8011 82.1762 77.4555C81.4606 78.0813 80.7097 78.6653 79.9271 79.2048C79.1582 79.7122 78.547 80.4542 77.5897 80.6388C77.5628 80.6388 77.5551 80.7234 77.5205 80.7503C77.3483 80.9183 77.1588 81.0678 76.9553 81.1962C76.371 81.4999 75.7635 81.7652 75.1792 82.0651C75.0677 82.1227 74.9293 82.2842 74.9408 82.3803C74.9987 82.743 75.0757 83.1023 75.1715 83.4568C76.2826 82.8532 77.3975 82.3034 78.4355 81.6653C79.8367 80.8151 81.1883 79.8858 82.4837 78.8818C83.5674 77.955 84.5944 76.9639 85.5593 75.9139C86.1552 75.3065 86.6358 74.576 87.2663 73.9916C87.6598 73.6352 87.982 73.2073 88.2159 72.7306C88.2697 72.623 88.3466 72.523 88.4119 72.4192C89.6422 70.497 90.9762 68.6017 91.7374 66.4064C92.2372 64.9763 92.7447 63.5423 93.1637 62.0852C93.8153 59.8118 94.139 57.457 94.1249 55.0921C94.1249 53.9003 94.1249 52.7085 94.1018 51.5167C94.059 50.2229 93.8563 48.9393 93.4982 47.6953C93.1138 46.2497 92.7293 44.7927 92.2295 43.3741C91.6298 41.6363 91.007 39.914 89.8998 38.3762C89.7343 38.1206 89.5829 37.8563 89.4461 37.5842ZM59.9473 95.886C63.517 96.1795 67.1093 96.031 70.6427 95.4439C70.5965 95.3786 70.5427 95.3363 70.4927 95.3401C69.9314 95.3401 69.3701 95.3863 68.8127 95.3671C68.2552 95.3478 67.7055 95.2748 67.1557 95.2056C66.6604 95.1513 66.1687 95.0679 65.6833 94.9557C65.4534 94.8469 65.2334 94.7183 65.0259 94.5712C64.8862 94.4869 64.7232 94.4492 64.5607 94.4636C64.3108 94.5213 64.0878 94.6866 63.8418 94.7519C63.2612 94.9095 62.6653 95.0095 62.0887 95.1748C61.3659 95.394 60.6585 95.6515 59.9473 95.886ZM64.2723 92.4875L65.2142 92.4375L65.1604 93.1757C65.368 93.291 65.5026 93.2141 65.4872 92.9412C65.4526 92.3376 65.3603 91.734 65.3526 91.1304C65.3257 88.8891 65.3257 86.6477 65.3104 84.4064C65.3104 84.2488 65.3104 84.0911 65.2796 83.9297H65.1373C64.8529 86.7592 64.5876 89.5811 64.2723 92.4875ZM33.9739 42.1246L33.8624 42.0785L33.2165 43.6163L33.3549 43.6778L33.9739 42.1246ZM67.1134 93.5217L67.0173 93.4333C66.9097 93.5332 66.752 93.6216 66.7174 93.7408C66.6828 93.86 66.7828 94.0023 66.8251 94.1253L66.9712 94.0907L67.1134 93.5217Z" fill="#4A4700"/>
<path id="Vector_2" d="M3.49467 9.93848C3.58309 10.1153 3.65998 10.1961 3.64076 10.2422C3.53311 10.5344 3.68305 10.7497 3.75994 11.0111C3.87912 11.4455 3.70996 11.9568 3.67536 12.4374C3.66574 12.6218 3.66574 12.8066 3.67536 12.991C3.67536 13.0295 3.73687 13.0871 3.72534 13.1102C3.34089 13.8291 3.89449 14.5788 3.65229 15.2977C3.59129 15.41 3.52457 15.5191 3.45238 15.6245C3.41318 15.7086 3.39473 15.8009 3.39855 15.8936C3.8176 16.0666 3.51004 16.4241 3.59462 16.6625C3.59462 16.6856 3.437 16.7701 3.44853 16.7625C3.53597 16.9255 3.59942 17.1003 3.63691 17.2815C3.66382 20.1418 3.67536 23.0059 3.70227 25.8662C3.72951 26.0384 3.77861 26.2063 3.84836 26.366C3.87267 26.4458 3.88561 26.5286 3.8868 26.6121C3.83298 27.4271 3.76378 28.2421 3.73687 29.0572C3.73687 29.1956 3.8868 29.3378 3.96754 29.4762L4.08672 29.4301C4.08672 29.3032 4.11747 29.1725 4.12516 29.0456C4.1713 28.2037 4.22512 27.3617 4.25972 26.5198C4.30585 25.3664 4.33277 24.2131 4.3789 23.0905C4.46348 20.9222 4.56344 18.7539 4.63648 16.5856C4.66339 15.8167 4.49039 15.0247 4.67108 14.3135C4.79795 13.8291 4.48655 13.3793 4.78642 12.8834C4.95557 12.5989 4.72491 12.0799 4.6903 11.6647C4.63415 11.2442 4.61229 10.8199 4.62495 10.396C4.62495 10.2922 4.92482 10.1345 5.09013 10.1307C5.25545 10.1269 5.42076 10.2806 5.57069 10.3883C5.62836 10.4306 5.64374 10.5382 5.72063 10.7151L5.75907 10.3306L5.87441 10.3075C5.93789 10.4563 5.98183 10.6127 6.00512 10.7727C6.00512 12.7526 5.97437 14.7326 5.97821 16.7125C5.97821 18.2503 6.03203 19.7881 6.05126 21.3259C6.05126 22.0025 6.05126 22.6753 6.05126 23.3519C6.05126 23.5711 6.07817 23.794 6.0897 24.0132H6.21657C6.21657 23.8632 6.24733 23.7095 6.25117 23.5595C6.25117 21.8526 6.25117 20.1495 6.31653 18.4425C6.38188 16.378 6.50875 14.3174 6.59718 12.2529C6.62024 11.7492 6.59718 11.2456 6.63178 10.742C6.63178 10.5959 6.76633 10.3575 6.86629 10.3345C7.14564 10.2972 7.42969 10.3181 7.70055 10.396C7.75437 10.4152 7.70055 10.7804 7.70055 11.0611L7.49294 10.7612C7.4545 10.8266 7.43143 10.9227 7.38914 10.9342C7.24311 10.9618 7.09542 10.9798 6.94702 10.988C7.01685 11.1424 7.06597 11.3052 7.09312 11.4724C7.09312 11.7723 7.03929 12.076 7.0316 12.3759C7.00469 13.5984 6.97009 14.821 6.97009 16.0435C6.97009 16.428 7.1008 16.7932 7.10849 17.17C7.13541 18.8692 7.14694 20.5685 7.15463 22.2716C7.15463 23.1712 7.15463 24.0708 7.15463 24.9628H7.35839V11.2841C7.95813 11.384 7.95044 11.384 7.95428 11.8953C7.97735 15.9679 8.0017 20.0393 8.02733 24.1093C8.02733 24.4937 8.00811 24.9051 8.02733 25.3049C8.02036 26.1919 8.09759 27.0776 8.258 27.9499C8.5348 28.9341 8.33489 29.8953 8.45791 30.8564C8.51952 31.1639 8.60565 31.4661 8.71549 31.7598H8.87696C8.95136 31.5571 9.0042 31.347 9.03459 31.1332C9.0615 29.7569 9.08841 28.3805 9.08457 27.0042C9.08072 25.6279 9.03843 24.2362 9.00768 22.856C8.97692 21.4758 8.93079 20.1648 8.90772 18.7962C8.90772 18.0542 8.96923 17.3045 8.90772 16.5702C8.85009 15.4342 8.91065 14.2952 9.08841 13.1717C9.16146 12.6066 9.08841 12.0184 9.14992 11.4532C9.22906 11.1162 9.34778 10.7897 9.50362 10.4806L9.70737 10.4998C9.80349 10.8573 9.9342 11.2072 9.99571 11.5685C10.2917 13.4101 10.5993 15.2516 10.8415 17.1008C11.0991 19.0538 11.226 21.0183 11.5143 22.9675C11.8987 25.5279 11.8411 28.1076 11.9833 30.6795C12.0295 31.5061 12.1063 32.3327 12.1179 33.1592C12.1495 35.7994 11.2924 38.3735 9.68431 40.4676C9.38844 40.8142 9.00851 41.079 8.58094 41.2365C8.38898 41.2858 8.22345 41.4072 8.11887 41.5756C8.01429 41.7439 7.97874 41.9461 8.01964 42.14C8.085 42.8551 8.14651 43.574 8.16957 44.2929C8.21186 45.4962 8.16957 46.7073 8.26953 47.9067C8.33873 48.7218 8.18495 49.5253 8.26953 50.3288C8.31567 50.8093 8.40793 51.2861 8.42716 51.7666C8.48098 53.2198 8.51173 54.6731 8.53865 56.1263C8.53865 56.8721 8.51173 57.6141 8.53865 58.3561C8.604 59.6978 8.73856 61.0472 8.79623 62.3813C8.8539 63.8268 8.84621 65.2723 8.88465 66.7179C8.95129 69.104 9.02433 71.4902 9.10379 73.8763C9.1653 75.7986 9.24219 77.7208 9.32292 79.6431C9.34599 80.2505 9.42673 80.8502 9.43826 81.4577C9.43826 81.8421 9.33446 82.2266 9.34984 82.611C9.38828 83.5645 9.49593 84.5333 9.52284 85.4713C9.52284 86.0903 9.46517 86.7093 9.42673 87.3936C9.67826 87.5926 9.9195 87.8043 10.1495 88.0279C10.8415 88.7468 11.1567 89.5965 10.8184 90.5768C10.73 90.8382 10.434 91.0266 10.2494 91.2611C10.1309 91.3832 10.0438 91.5323 9.99571 91.6956C9.88807 92.4645 9.83809 93.2334 9.71891 94.0023C9.58051 94.9134 9.19221 95.1864 8.25031 95.3901C7.10804 95.5858 5.94702 95.649 4.79026 95.5785C4.12417 95.5914 3.4594 95.5138 2.81419 95.3478C2.47215 95.2537 2.1611 95.0708 1.91263 94.8176C1.66415 94.5643 1.48709 94.2499 1.39941 93.9062C1.20667 93.2703 1.25597 92.5856 1.53782 91.9839C1.58915 91.9264 1.62601 91.8575 1.64536 91.7829C1.66471 91.7083 1.66598 91.6302 1.64906 91.555C1.63214 91.4798 1.59753 91.4097 1.54809 91.3506C1.49865 91.2915 1.43582 91.245 1.36481 91.215C0.353711 90.6037 0.242221 89.5657 0.176865 88.5239C0.184237 88.3951 0.218087 88.2692 0.276297 88.1541C0.334508 88.039 0.415829 87.9372 0.51518 87.8549C0.931171 87.5286 1.39553 87.2692 1.89151 87.086C1.89151 87.0591 1.92996 87.0245 1.92227 87.0053C1.53782 85.8519 2.01838 84.6986 1.99916 83.5452C1.97224 81.8383 2.10296 80.1275 2.20291 78.4205C2.33747 76.1138 2.51816 73.8302 2.64888 71.535C2.7373 70.0164 2.74499 68.494 2.8411 66.9754C2.89108 66.1796 3.06408 65.3915 3.15635 64.5995C3.15635 64.4227 3.02179 64.2151 3.02948 64.0536C3.09868 62.7042 3.11022 61.3625 3.31013 60.0131C3.38702 59.4979 3.23708 59.0481 3.26784 58.5829C3.3332 57.691 3.51389 56.8106 3.65229 55.9264C3.65803 55.8342 3.65803 55.7417 3.65229 55.6496C3.82145 52.5381 3.98932 49.4292 4.15592 46.3228C4.22896 44.9272 4.28279 43.5317 4.35968 42.1361C4.38983 41.861 4.43475 41.5876 4.49424 41.3173C2.91415 41.0097 0.880408 39.6295 0.495958 37.7073C0.378159 37.0956 0.303647 36.4764 0.272977 35.8542C0.170457 34.2549 0.0794706 32.6479 1.76653e-05 31.0332C-0.103784 28.3421 0.303733 25.7086 0.768917 23.0751C0.97652 21.9218 0.988054 20.7223 1.15337 19.5574C1.48656 17.5583 1.84538 15.5643 2.22983 13.5754C2.42614 12.6338 2.67254 11.7034 2.96797 10.7881C3.10772 10.4842 3.28464 10.1988 3.49467 9.93848ZM5.20931 13.6984C5.1824 14.2059 5.12858 14.7172 5.12858 15.2362C5.12858 17.02 5.15164 18.8 5.17087 20.58C5.17842 20.6874 5.19384 20.794 5.217 20.8991C5.29767 20.8027 5.33765 20.6786 5.32849 20.5531C5.32849 19.5728 5.30158 18.5886 5.32849 17.6044C5.3554 16.6202 5.22853 15.736 5.43614 14.8018C5.50918 14.4788 5.30542 14.0905 5.22469 13.733C5.29649 13.4954 5.3492 13.2524 5.38231 13.0064C5.40923 12.7334 5.2862 12.4066 5.38231 12.1914C5.66681 11.6301 5.61683 11.1072 5.10551 10.7766C5.08388 10.9424 5.07104 11.1092 5.06707 11.2764C5.06707 11.5147 5.10935 11.7531 5.12089 11.9914C5.17087 12.5604 5.19009 13.1294 5.20931 13.6984ZM7.26996 26.8696H7.07774V27.7808C7.07774 28.4382 7.07774 29.0995 7.07774 29.7569C7.04899 30.0445 7.04899 30.3343 7.07774 30.6219C7.22383 31.3908 6.77018 32.4711 6.10508 32.8209C6.02435 32.8632 5.82059 32.8209 5.78599 32.7748C5.54516 32.3939 5.34664 31.9878 5.19393 31.5638C5.14766 31.2142 5.14766 30.86 5.19393 30.5104L4.99786 30.4719C4.92983 30.678 4.88345 30.8906 4.85946 31.1063C4.84616 31.5235 4.67592 31.9202 4.38274 32.2173C4.27164 32.3758 4.11544 32.4972 3.93444 32.5658C3.75345 32.6343 3.55602 32.6469 3.3678 32.6018C2.93721 32.4788 3.03717 32.1059 3.02948 31.7944C3.02948 31.0717 3.02948 30.3489 3.00257 29.6262C3.00257 29.3263 2.83341 29.0226 2.84495 28.7265C2.8757 27.9115 2.96797 27.1003 3.02179 26.2853C3.04102 25.9969 3.02179 25.7086 3.02179 25.4203C3.02179 23.0867 3.05255 20.7569 3.08715 18.4233C3.08715 17.4352 3.16404 16.4472 3.20633 15.4592C3.20633 15.0555 3.49851 14.7133 3.3678 14.2443C3.28633 13.736 3.26183 13.2202 3.29475 12.7065C3.29475 12.545 3.25631 12.3874 3.23708 12.226C2.97217 13.1835 2.77561 14.1586 2.64888 15.1439C2.53354 16.0051 2.4951 16.8816 2.38745 17.7467C2.23367 18.9115 2.0376 20.0918 1.88767 21.2721C1.80693 21.9256 1.83769 22.5946 1.72235 23.2443C1.65273 23.8826 1.61936 24.5244 1.6224 25.1665C1.51475 26.8043 1.51091 28.4459 1.46477 30.0875C1.43786 30.9986 1.4071 31.9059 1.37635 32.8171C1.37635 33.017 1.35328 33.2015 1.37635 33.413C1.43017 34.1627 1.46477 34.9123 1.56088 35.6543C1.63336 36.3652 1.77106 37.0678 1.97224 37.7534C2.14217 38.2442 2.41777 38.6918 2.77959 39.0644C3.34005 39.6251 3.93727 40.1478 4.56728 40.6291C4.736 40.7473 4.85925 40.9197 4.91659 41.1176C4.97393 41.3154 4.96191 41.527 4.88253 41.7171C4.79434 41.9279 4.78078 42.1626 4.84408 42.3822C5.14011 42.9396 4.98249 43.4894 4.93251 44.043C4.88253 44.5966 4.8018 45.0657 4.78257 45.5808C4.74028 46.788 4.74413 47.9952 4.69415 49.2062C4.64417 50.4172 4.53268 51.5129 4.48655 52.6931C4.45579 53.3775 4.52499 54.0618 4.48655 54.7461C4.40197 56.7645 4.27125 58.7828 4.18668 60.8012C4.14054 61.8315 4.16361 62.8618 4.12516 63.8768C4.12516 64.365 3.99061 64.8456 3.96754 65.33C3.87143 67.1984 3.80223 69.0707 3.70227 70.9391C3.67151 71.4966 3.55233 72.0502 3.51004 72.6115C3.47929 73.0344 3.51004 73.4688 3.51004 73.8955C3.45238 74.922 3.35242 75.9447 3.30244 76.9711C3.22555 78.5089 3.17557 80.0467 3.1179 81.5845C3.07562 82.2881 3.07562 82.9724 3.07562 83.6529C3.07562 84.1296 3.0487 84.6063 3.0141 85.0792C2.9795 85.5521 2.9103 86.1057 2.88339 86.617C2.88339 86.7208 2.99104 86.9092 3.06793 86.9207C3.77147 87.0091 4.47886 87.086 5.18624 87.1245C5.75907 87.1591 6.33959 87.1245 6.90473 87.1245H8.36564V85.0638L8.01195 85.4483C7.93495 85.3005 7.88422 85.1405 7.86202 84.9754C7.9043 84.1642 7.65441 83.3876 7.63135 82.5764C7.60828 81.7652 7.38145 80.8964 7.27381 80.0506C7.23152 79.7161 7.27381 79.3701 7.25458 79.0318C7.16232 78.1399 6.99316 77.2556 6.94702 76.3637C6.82785 74.0301 6.97778 71.6965 6.76633 69.3552C6.55489 67.0139 6.60871 64.538 6.52797 62.1275C6.48184 60.6897 6.38957 59.2557 6.32806 57.8179C6.23579 55.7213 6.14609 53.6248 6.05895 51.5283C6.03972 51.0669 6.05895 50.6056 6.02819 50.1442C6.00897 49.8098 5.9167 49.4753 5.92054 49.1447C5.92054 48.5795 6.01281 48.0182 6.02819 47.4531C6.02819 47.2532 5.89363 47.0456 5.90517 46.8495C5.94361 46.2113 6.01666 45.577 6.08586 44.9272C6.14352 44.3852 6.20888 43.8393 6.27039 43.2933H6.40495C6.40495 43.4971 6.44724 43.7009 6.45108 43.9085C6.478 45.5385 6.48953 47.1686 6.53566 48.8025C6.53566 49.4561 6.64331 50.1096 6.70098 50.7632C6.8586 52.5509 7.04314 54.3347 7.16232 56.1455C7.28918 58.0677 7.34685 59.9708 7.44297 61.8853C7.46429 62.0393 7.49902 62.1911 7.54677 62.339H7.67748C7.71513 62.2299 7.73713 62.116 7.74284 62.0007C7.70823 61.6547 7.61981 61.3163 7.59674 60.9703C7.53523 60.04 7.46988 59.1058 7.45065 58.1677C7.40836 56.0648 7.36608 53.958 7.37761 51.855C7.38914 49.7521 7.27765 47.6838 7.34685 45.5962C7.39683 44.1391 7.36992 42.6782 7.38914 41.2212C7.38639 41.1366 7.40101 41.0524 7.43209 40.9737C7.46317 40.895 7.51005 40.8235 7.56983 40.7637C8.94616 40.014 9.56513 38.6492 10.1956 37.3613C10.5801 36.5924 10.607 35.6851 10.7723 34.8354C10.8646 34.3587 10.9145 33.8743 10.9722 33.3938C10.987 33.2257 10.9805 33.0565 10.953 32.8901C10.9145 32.5787 10.8223 32.2712 10.8146 31.9598C10.7877 30.7141 10.9299 29.4647 10.6262 28.2344C10.6262 28.1691 10.6647 28.0922 10.68 28.0191C10.7319 27.843 10.7603 27.6607 10.7646 27.4771C10.7646 27.0503 10.6954 26.6274 10.7146 26.2045C10.7146 25.9239 10.8953 25.6471 10.903 25.3664C10.9063 24.8976 10.8806 24.4289 10.8261 23.9632C10.7377 23.0636 10.6339 22.164 10.5416 21.2721C10.4225 20.0841 10.2994 18.8962 10.1956 17.7044C10.1418 17.1277 10.1495 16.551 10.0841 15.9628C9.99187 15.167 9.84578 14.375 9.73813 13.5792C9.63048 12.7834 9.54591 12.0414 9.45364 11.2956C9.31707 11.4775 9.22945 11.6915 9.19916 11.917C9.16888 12.1425 9.19693 12.3719 9.28063 12.5835C9.36544 12.8105 9.40083 13.053 9.38444 13.2947C9.38444 13.5754 9.29601 13.856 9.2691 14.1367C9.23835 14.4865 9.21143 14.8402 9.21528 15.1901C9.21912 15.5399 9.25372 15.959 9.29217 16.3665C9.29217 16.5126 9.38828 16.6587 9.38828 16.8086C9.38828 17.5775 9.34599 18.3848 9.38828 19.1691C9.4421 20.1802 9.57666 21.1875 9.64586 22.1947C9.74197 23.598 9.83809 25.0012 9.88422 26.4045C9.94189 28.0076 9.9342 29.6146 9.97264 31.2216C9.99802 31.4971 9.93294 31.7733 9.78726 32.0085C9.64159 32.2437 9.42324 32.4249 9.1653 32.5249C8.7424 32.721 7.87739 32.4749 7.76206 32.1097C7.4585 31.165 7.31555 30.176 7.33916 29.184C7.35839 28.5997 7.33916 28.0307 7.33916 27.4348C7.32763 27.2426 7.30456 27.058 7.26996 26.8696ZM9.08457 91.5303C7.88124 91.6687 6.75096 91.8532 5.62452 91.9147C4.49808 91.9762 3.33704 91.9147 2.09911 91.9147C2.0722 92.1954 2.0376 92.5875 1.99531 92.9719C1.95302 93.3564 2.16447 93.4217 2.49894 93.391C2.83341 93.3602 3.24862 93.391 3.62153 93.3641C3.71341 93.3731 3.80615 93.364 3.89449 93.3372C4.47501 93.0642 4.99402 93.4986 5.55532 93.4794C5.86288 93.4794 6.17044 93.6409 6.48184 93.6563C7.01623 93.6793 7.55445 93.6563 8.09268 93.6332C8.22031 93.616 8.35015 93.6377 8.46533 93.6953C8.58051 93.7528 8.67571 93.8437 8.73856 93.9561C8.87509 94.1253 9.03125 94.2775 9.20374 94.4098C8.76932 93.464 9.12301 92.5183 9.08457 91.5303ZM2.12218 87.9203C2.39514 87.9818 2.59121 88.0125 2.77959 88.0741C3.19054 88.2491 3.61644 88.3868 4.05212 88.4854C5.03246 88.6046 6.02819 88.62 7.01623 88.7238C7.62324 88.7966 8.22534 88.9057 8.81929 89.0506C8.93847 89.0775 9.01921 89.2582 9.11917 89.3658C8.97273 89.4074 8.82377 89.4395 8.6732 89.4619C8.38102 89.4927 8.08884 89.5042 7.79666 89.5273C7.70891 89.5419 7.6203 89.5509 7.53139 89.5542C6.41648 89.4927 5.30542 89.4312 4.19052 89.362C3.99514 89.3531 3.80153 89.3208 3.61385 89.2658C2.99873 89.0775 2.93721 89.1005 2.69117 89.6772C2.98335 89.6772 3.30244 89.6503 3.61769 89.6772C4.44426 89.7618 5.26698 89.8887 6.09355 89.9655C6.55104 90.004 7.01623 89.9271 7.46603 89.9925C7.78219 90.0606 8.08152 90.1914 8.34642 90.3769C8.6386 90.5576 8.88465 90.819 9.1653 91.0228C9.22681 91.0689 9.41904 91.0574 9.44595 91.0228C9.66851 90.7353 9.83659 90.4096 9.94189 90.0617C10.0101 89.7203 9.99539 89.3676 9.89907 89.0331C9.80274 88.6987 9.62757 88.3922 9.38828 88.1394C9.28838 88.007 9.14719 87.9117 8.98705 87.8685C8.82691 87.8254 8.65696 87.8368 8.50405 87.9011C8.28881 87.9747 8.06258 88.0111 7.8351 88.0087C7.30456 87.9856 6.77787 87.9049 6.24733 87.878C5.40154 87.8357 4.5519 87.8126 3.70227 87.7819C3.19095 87.755 2.69117 87.5358 2.12218 87.9203ZM5.15164 25.9008L5.20547 25.9739C5.26775 25.825 5.3104 25.6686 5.33234 25.5087C5.35156 24.7398 5.35156 23.944 5.3554 23.1597C5.3554 22.5292 5.3554 21.8987 5.3554 21.2644H5.15164V25.9008ZM3.74456 31.51H3.89065C3.85605 30.8756 4.2751 30.2413 3.74456 29.53V31.51ZM7.63903 66.8793H7.71208V63.8037H7.63903V66.8793ZM7.92353 70.5585H7.86202V72.0963H7.92353V70.5585Z" fill="#4A4700"/>
<path id="Vector_3" d="M117.48 85.8324C119.34 85.5249 121.237 85.5249 123.097 85.8324C123.203 85.2068 123.268 84.575 123.293 83.9409C123.266 82.3109 123.174 80.6808 123.108 79.0469C123.024 77.0093 122.951 74.9679 122.862 72.9303C122.809 71.7077 122.77 70.4852 122.659 69.2665C122.601 68.6168 122.513 67.9709 122.497 67.3173C122.478 66.4485 122.497 65.5758 122.447 64.7069C122.37 62.7539 122.309 60.7971 122.182 58.8479C121.924 54.8227 122.051 50.7975 122.09 46.7723C122.09 45.8074 122.197 44.8501 122.243 43.8851C122.229 43.7016 122.286 43.5195 122.402 43.3765C122.517 43.2334 122.684 43.1403 122.866 43.1162C123.004 43.6607 123.102 44.2145 123.158 44.7732C123.201 46.0034 123.158 47.2375 123.158 48.4678C123.158 48.8253 123.305 49.1867 123.305 49.5442C123.271 51.2239 123.334 52.9042 123.493 54.5767C123.535 54.9304 123.42 55.2994 123.428 55.6608C123.47 57.5177 123.531 59.3746 123.581 61.2276C123.651 63.6381 123.72 66.0448 123.77 68.4515C123.797 69.747 123.77 71.0426 123.804 72.3382C123.858 74.5873 123.943 76.8363 124.008 79.0853C124.047 80.4002 124.054 81.715 124.093 83.0259C124.116 83.8371 124.185 84.6483 124.204 85.4595C124.182 85.7357 124.137 86.0096 124.07 86.2784C124.712 86.6398 124.839 87.4317 124.962 88.1161C124.998 88.5682 124.877 89.0191 124.619 89.3924C124.466 89.5962 124.267 89.7604 124.037 89.8714C123.808 89.9824 123.555 90.037 123.301 90.0306C122.847 90.0652 122.397 90.1536 121.944 90.1652C120.93 90.2305 119.913 90.2305 118.899 90.1652C118.568 90.1306 118.018 90.1882 117.795 89.6769C117.718 89.6488 117.635 89.6373 117.553 89.6433C117.471 89.6492 117.391 89.6725 117.319 89.7115C117.103 90.0498 116.869 89.9845 116.619 89.8153C116.247 89.5539 115.937 89.2131 115.712 88.8175C115.488 88.422 115.353 87.9815 115.32 87.5279C115.231 86.8166 115.627 86.3976 116.211 86.1323C116.477 86.0093 116.577 85.8862 116.531 85.5787C116.457 85.0462 116.42 84.5093 116.419 83.9717C116.419 83.7103 116.542 83.4527 116.561 83.2028C116.581 82.9529 116.534 82.6031 116.534 82.3032C116.534 80.8192 116.534 79.3314 116.534 77.8474C116.534 76.8555 116.577 75.8675 116.6 74.8795C116.6 74.7103 116.6 74.5411 116.6 74.372L116.623 59.8936C116.623 58.6557 116.623 57.4177 116.623 56.1798C116.623 55.8184 116.8 55.4417 116.738 55.0995C116.615 54.4037 116.784 53.7347 116.788 53.0542C116.788 52.0354 116.846 51.0167 116.788 50.0017C116.707 48.1371 116.9 46.2802 116.853 44.4157C116.853 44.3541 116.834 44.2734 116.853 44.235C116.945 44.1429 117.041 44.0556 117.142 43.9735C117.211 44.0696 117.334 44.1619 117.338 44.258C117.357 45.669 117.372 47.0799 117.369 48.487C117.369 48.7984 117.23 49.1098 117.238 49.4173C117.269 50.1862 117.388 50.9551 117.392 51.724C117.42 59.4976 117.438 67.2725 117.446 75.0486C117.446 77.1477 117.446 79.2468 117.446 81.3459C117.446 82.1148 117.334 82.8568 117.326 83.6103C117.326 84.1409 117.422 84.6675 117.461 85.1981C117.481 85.4089 117.487 85.6208 117.48 85.8324ZM123.535 86.2476C123.232 86.5898 122.809 86.4975 122.343 86.4668C121.048 86.3783 119.748 86.3937 118.453 86.3783C118.185 86.3926 117.918 86.4221 117.653 86.4668C118.127 86.5167 118.605 86.5167 119.079 86.4668C119.425 86.4437 119.641 86.6244 119.606 86.9435C119.533 87.1887 119.417 87.419 119.264 87.624C119.302 87.6536 119.347 87.6734 119.395 87.6816C120.121 87.7201 120.848 87.7278 121.567 87.7931C122.009 87.8135 122.444 87.907 122.855 88.0699C123.053 88.1461 123.264 88.1816 123.476 88.1743C123.688 88.1671 123.897 88.1172 124.089 88.0276L123.535 86.2476ZM123.274 89.3232C123.958 89.2771 124.043 89.1618 123.947 88.4967C123.262 88.4044 123.193 88.4851 123.274 89.3309V89.3232Z" fill="#4A4700"/>
<path id="Vector_4" d="M116.557 43.0931C116.44 42.963 116.341 42.8167 116.265 42.6586C116.035 41.932 115.789 41.2054 116.019 40.425C116.037 40.366 116.037 40.3033 116.019 40.2443C115.539 38.8564 115.635 37.4032 115.604 35.9808C115.55 33.8125 115.604 31.6442 115.604 29.4797C115.604 28.4801 115.604 27.4844 115.604 26.4848C115.604 25.9389 115.604 25.3892 115.642 24.8432C115.704 23.9244 115.812 23.0056 115.881 22.0867C115.904 21.7292 115.854 21.3678 115.881 21.0064C115.842 20.5154 115.9 20.0214 116.054 19.5532C116.192 19.2495 116.015 18.8112 116.054 18.4383C116.15 17.3119 116.261 16.1816 116.411 15.0628C116.637 12.9217 117.122 10.8161 117.857 8.79247C118.507 7.13934 119.218 5.50542 120.018 3.91765C120.494 2.89174 121.266 2.03204 122.236 1.44948C122.409 1.34939 122.562 1.21919 122.689 1.06503C122.947 0.749781 123.197 0.857427 123.378 1.09579C123.765 1.51757 123.992 2.06169 124.02 2.63358C124.02 4.01376 124.02 5.39009 124.097 6.76642C124.116 7.17394 124.073 7.57376 124.077 7.97359C124.097 9.1577 124.208 10.3418 124.227 11.5259C124.266 13.8326 124.25 16.1739 124.289 18.4998C124.339 21.8215 124.308 25.147 124.519 28.4609C124.658 30.6331 124.639 32.7975 124.673 34.9658C124.679 36.6054 124.598 38.2442 124.431 39.8752C124.325 40.762 124.137 41.6371 123.87 42.4895V41.8129C123.558 42.105 123.32 42.3472 123.059 42.5818C122.601 42.9662 122.163 43.3507 121.463 43.1892C121.175 43.1827 120.887 43.2203 120.61 43.3007C120.082 43.3722 119.55 43.4095 119.018 43.4122C118.455 43.3827 117.895 43.3029 117.346 43.1738C117.23 43.1507 117.169 42.8893 117.038 42.6625C117.28 42.6279 117.422 42.5971 117.542 42.5933C118.357 42.6153 119.165 42.4315 119.891 42.0589C120.66 41.6168 121.459 41.2323 122.22 40.7787C122.629 40.5338 123.001 40.2336 123.328 39.8868C123.558 39.65 123.703 39.3427 123.739 39.0141C123.739 37.2187 123.708 35.4233 123.674 33.6318C123.674 33.009 123.612 32.39 123.593 31.7672C123.551 30.2486 123.508 28.73 123.42 27.2115C123.293 25.0931 123.366 22.9825 123.355 20.8373C123.331 17.1812 123.328 13.5327 123.278 9.86508C123.243 7.17394 123.147 4.48279 123.074 1.6763C122.751 1.93389 122.459 2.13764 122.201 2.37985C121.339 3.19684 120.65 4.17867 120.175 5.26706C119.591 6.5665 118.976 7.8621 118.495 9.20383C117.704 11.5135 117.144 13.8959 116.823 16.3161C116.769 16.7006 116.661 17.0851 116.619 17.4503C116.592 17.7117 116.711 18.0077 116.619 18.2384C116.419 18.7959 116.765 19.4263 116.365 19.9454C116.306 20.0171 116.272 20.1063 116.269 20.1991C116.315 20.7335 116.396 21.2679 116.423 21.8022C116.423 22.0867 116.35 22.3751 116.338 22.6596C116.277 24.0167 116.192 25.3738 116.188 26.7347C116.188 28.9146 116.223 31.0944 116.258 33.2704C116.258 34.2161 116.315 35.1657 116.35 36.1153C116.324 37.2503 116.375 38.3858 116.504 39.5138C116.681 40.5595 116.604 41.5976 116.688 42.6356C116.692 42.782 116.684 42.9286 116.665 43.0738L116.557 43.0931Z" fill="#4A4700"/>
<path id="Vector_5" d="M122.286 4.44434C122.317 4.69423 122.367 4.94412 122.378 5.21324C122.42 6.59341 122.451 7.97358 122.493 9.3576C122.543 11.0838 122.59 12.8177 122.655 14.54C122.743 16.8467 122.855 19.1534 122.947 21.4601C122.97 22.1367 122.947 22.8133 122.966 23.4861C122.986 24.1589 122.843 24.9086 122.912 25.616C122.951 25.9774 123.032 26.3349 123.089 26.6924C123.103 26.77 123.103 26.8494 123.089 26.927C123.059 27.0807 122.947 27.2499 122.985 27.3806C123.162 28.0226 122.889 28.657 123.016 29.3029C123.093 29.9573 123.117 30.6168 123.089 31.2751C123.132 33.0243 123.17 34.7697 123.224 36.519C123.243 37.1956 123.339 37.8722 123.328 38.5527C123.266 38.9011 123.159 39.2398 123.009 39.56C122.928 39.4327 122.867 39.294 122.828 39.1486C122.829 38.6448 122.786 38.1419 122.701 37.6454C122.317 36.3652 122.616 35.0465 122.397 33.7817C122.151 32.3592 122.328 30.9521 122.255 29.5527C122.205 28.6032 122.224 27.6305 122.228 26.6963C122.228 24.8163 122.247 22.9364 122.228 21.0526C122.199 20.7712 122.144 20.4932 122.063 20.2222C122.032 20.0872 122.017 19.9492 122.017 19.8108C122.074 18.0978 122.013 16.3828 121.832 14.6784C121.832 14.5092 121.978 14.3209 121.982 14.1402C121.982 13.3713 121.982 12.5716 121.982 11.7912C121.963 11.2683 121.828 10.7493 121.824 10.2265C121.824 9.63056 121.932 9.03467 121.955 8.43877C121.955 8.12736 121.863 7.81212 121.886 7.50071C121.951 6.49345 122.055 5.48235 122.144 4.47509L122.286 4.44434Z" fill="#4A4700"/>
<path id="Vector_6" d="M65.9447 13.852L65.072 12.3757L64.9259 12.4064C64.9259 13.1753 64.9758 13.9442 64.9259 14.7131C64.8413 15.805 64.9259 16.893 64.9259 17.9848C64.9259 18.8191 65.0604 19.6802 64.899 20.4799C64.5952 21.9792 64.872 23.494 64.6529 24.9895C64.6086 25.6177 64.5971 26.2477 64.6183 26.8771C64.5889 27.2689 64.5141 27.656 64.3953 28.0305C64.3569 27.8921 64.3146 27.7537 64.2877 27.6114C64.2262 27.2808 64.1723 26.954 64.1147 26.6234C64.0973 26.5648 64.0908 26.5036 64.0955 26.4427C64.353 25.3931 63.9186 24.3859 63.9263 23.3671C63.9263 23.2787 63.884 23.1864 63.884 23.098C63.884 21.737 63.884 20.3799 63.884 19.019C63.884 18.8729 63.9724 18.7268 63.9801 18.5768C63.9865 18.374 63.9775 18.1709 63.9532 17.9694C63.9146 17.8543 63.8863 17.7359 63.8686 17.6157C63.9225 16.8468 64.0109 16.0472 64.0416 15.259C64.0801 14.3402 64.0416 13.4175 64.0955 12.4949C64.1269 12.076 64.1795 11.659 64.2531 11.2454C64.3915 10.2151 64.1301 9.23472 63.8686 8.25053C63.8147 8.107 63.7911 7.95383 63.7994 7.80072C63.8417 7.61619 63.9224 7.35092 64.057 7.29325C64.3107 7.18945 64.526 7.34707 64.5991 7.63541C64.699 8.01986 64.8144 8.40431 64.9028 8.78876C65.1796 10.0382 65.4333 11.2915 65.7217 12.5333C65.8216 12.9677 65.9908 13.3829 66.1292 13.8097L65.9447 13.852Z" fill="#4A4700"/>
<path id="Vector_7" d="M118.218 71.3159C118.745 71.931 118.476 72.5961 118.541 73.2113C118.645 74.1801 118.718 75.1335 118.803 76.1215C118.804 76.151 118.804 76.1805 118.803 76.21C118.88 77.4248 118.953 78.6435 119.037 79.8545C119.091 80.5619 119.199 81.2655 119.229 81.9729C119.249 82.4457 119.176 82.9225 119.16 83.3953C119.15 83.4608 119.154 83.5276 119.173 83.5912C119.191 83.6548 119.224 83.7135 119.267 83.7634C119.311 83.8132 119.365 83.8529 119.425 83.8796C119.486 83.9064 119.552 83.9195 119.618 83.9182C119.707 83.9318 119.791 83.9704 119.86 84.0297C120.125 84.218 120.314 84.5333 120.725 84.1335C120.894 83.9643 121.367 84.1027 121.717 84.1027C121.748 84.0271 121.771 83.9485 121.786 83.8682C121.848 82.884 121.936 81.896 121.947 80.9079C121.947 80.1736 121.828 79.4355 121.821 78.6974C121.821 78.0976 121.898 77.4979 121.94 76.902C121.982 76.3061 122.036 75.6294 122.086 74.9797C122.084 74.9502 122.09 74.9207 122.105 74.8948C122.119 74.8689 122.141 74.8476 122.167 74.8336C122.259 75.5795 122.401 76.3215 122.443 77.0711C122.543 78.9934 122.609 80.9156 122.666 82.8609C122.667 83.3367 122.635 83.812 122.57 84.2834C122.505 84.887 122.259 85.0215 121.659 84.8947C121.317 84.8123 120.961 84.8005 120.613 84.8601C119.791 85.0216 119.164 84.6525 118.584 84.1796C118.455 84.0314 118.384 83.8416 118.384 83.6452C118.272 81.1771 118.157 78.7089 118.084 76.2407C118.045 75.0259 118.084 73.8072 118.103 72.5884C118.115 72.1963 118.176 71.7888 118.218 71.3159Z" fill="#4A4700"/>
<path id="Vector_8" d="M123.889 90.0806L124.385 90.3766C124.189 91.2877 123.954 92.1835 123.812 93.0947C123.812 93.1668 123.797 93.2382 123.768 93.3045C123.74 93.3709 123.698 93.4309 123.646 93.481C123.595 93.5311 123.533 93.5704 123.466 93.5965C123.399 93.6225 123.327 93.6349 123.255 93.6329C122.736 93.6713 122.209 93.6521 121.69 93.6944C121.276 93.7904 120.854 93.8445 120.429 93.8559C119.437 93.7251 118.453 93.4983 117.472 93.2984C117.146 93.2292 116.9 93.0639 116.946 92.6333C116.876 92.7179 116.799 92.7964 116.715 92.8678C116.484 93.0408 116.281 92.987 116.246 92.7025C116.126 91.9259 116.208 91.1314 116.484 90.3958C116.615 90.0767 116.93 90.0652 117.253 90.1921V91.8067C117.659 91.7219 118.07 91.6705 118.484 91.653C118.933 91.653 119.375 91.8183 119.829 91.8683C120.694 91.9644 121.563 92.0566 122.432 92.1028C123.062 92.1374 123.17 92.1835 123.397 92.7948C123.436 92.9221 123.525 93.0286 123.643 93.0908C123.636 92.5763 123.598 92.0627 123.528 91.553C123.475 91.2961 123.481 91.0309 123.543 90.7763C123.606 90.5217 123.724 90.2841 123.889 90.0806Z" fill="#4A4700"/>
<path id="Vector_9" d="M60.5509 31.5752C60.6316 32.1365 60.7046 32.6978 60.8007 33.2552C60.843 33.5013 60.9661 33.7358 61.0007 33.9818C61.0391 34.2856 61.0237 34.5931 61.0353 34.9007C61.0545 35.4966 61.0622 36.0963 61.1083 36.6922C61.2044 37.9263 61.3236 39.1565 61.4236 40.3868C61.4735 40.9673 61.4889 41.5401 61.5389 42.1322C61.5697 42.5166 61.635 42.9011 61.6658 43.2855C61.6999 43.4941 61.6908 43.7074 61.6389 43.9122C61.5927 44.0506 61.4082 44.1467 61.289 44.2582C61.2006 44.1275 61.0622 44.0083 61.0391 43.8737C60.943 43.274 60.8699 42.6666 60.8123 42.0553C60.7123 40.975 60.6969 39.8832 60.5278 38.8144C60.2933 37.3035 60.4201 35.8003 60.424 34.2933C60.424 33.6628 60.3087 33.0323 60.2971 32.3979C60.3255 32.1173 60.3874 31.8411 60.4817 31.5752H60.5509Z" fill="#4A4700"/>
<path id="Vector_10" d="M39.4907 18.5232C38.6218 19.2921 37.7645 20.0994 36.8764 20.8645C35.9884 21.6295 35.008 22.3561 34.1315 23.1712C33.1473 24.0862 32.2092 25.0704 31.2865 26.0315C30.5945 26.7389 29.914 27.4578 29.2182 28.1652C29.0721 28.3228 28.9337 28.4881 28.7991 28.6534C28.5723 28.9418 28.4147 29.3416 27.8572 29.1955C28.0723 28.7912 28.3205 28.4055 28.5992 28.0422C29.2182 27.3578 29.8987 26.7312 30.5215 26.0584C30.7944 25.7739 30.9828 25.401 31.2673 25.128C32.5744 23.8786 33.8816 22.6291 35.2271 21.4258C35.8884 20.8337 36.6342 20.3416 37.3378 19.7957C37.457 19.7034 37.5223 19.5381 37.6453 19.4651C38.2335 19.1114 38.8371 18.7846 39.433 18.4463L39.4907 18.5232Z" fill="#4A4700"/>
<path id="Vector_11" d="M33.2972 26.5464C32.9896 27.6498 32.2976 28.4686 31.6171 29.3413C30.8482 30.3294 30.0793 31.3443 29.3104 32.3631C28.9721 32.8244 28.6799 33.3204 28.3647 33.7971C28.2972 33.8976 28.1965 33.9711 28.0802 34.0047C28.3954 33.4549 28.2763 32.6976 28.9491 32.3362C28.9875 32.3362 29.049 32.2747 29.049 32.2478C29.0029 31.5673 29.5065 31.129 29.8448 30.6638C30.433 29.868 31.1596 29.1683 31.8055 28.4148C32.2361 27.9112 32.6359 27.3806 33.0473 26.877L33.2972 26.5464Z" fill="#4A4700"/>
<path id="Vector_12" d="M25.562 69.4974C24.9239 69.0168 24.2472 68.5824 23.9243 67.7751C23.5052 66.7255 23.0401 65.6952 22.6172 64.6495C22.5413 64.4323 22.5074 64.2027 22.5172 63.9728C22.5172 63.8883 22.6479 63.7998 22.7171 63.7114C22.794 63.7768 22.9055 63.8306 22.9324 63.9152C23.5985 65.5709 24.3969 67.1703 25.3198 68.6977C25.4506 68.9322 25.5544 69.1821 25.6697 69.4243L25.562 69.4974Z" fill="#4A4700"/>
<path id="Vector_13" d="M64.1262 40.2635C64.1877 39.5177 64.3031 38.7718 64.2915 38.026C64.2377 37.4479 64.257 36.8653 64.3492 36.2921C64.4415 35.9077 64.5722 35.5232 64.3108 35.1388C64.2793 35.0531 64.2793 34.9591 64.3108 34.8735C64.3719 34.7001 64.4157 34.5211 64.4415 34.3391C64.4222 33.2819 64.8913 32.2554 64.6568 31.1789C64.6299 30.9311 64.6299 30.681 64.6568 30.4331H64.799C64.8605 30.6446 65.0335 30.9021 64.9643 31.0636C64.7721 31.5365 65.268 32.0093 64.8913 32.4976C64.7738 32.7833 64.7738 33.1038 64.8913 33.3895C64.9767 33.7294 64.9456 34.0882 64.8029 34.4083C64.7148 34.5796 64.6689 34.7694 64.6689 34.9619C64.6689 35.1545 64.7148 35.3443 64.8029 35.5155C64.8452 35.6135 64.8586 35.7216 64.8413 35.8269C64.7529 36.7996 64.6798 37.7723 64.5645 38.7372C64.4991 39.2601 64.3646 39.7752 64.2608 40.275L64.1262 40.2635Z" fill="#4A4700"/>
<path id="Vector_14" d="M32.2169 25.8855L32.4322 25.9932L30.2831 27.8039L30.2062 27.7155C32.0478 25.7279 33.8316 23.6711 36.1114 22.041C36.0268 22.2832 36.0037 22.5869 35.8423 22.7484C35.4232 23.1636 34.9311 23.5173 34.4852 23.9018C34.2237 24.1363 34.0123 24.4246 33.747 24.6707C33.2549 25.0897 32.7436 25.4742 32.2169 25.8855Z" fill="#4A4700"/>
<path id="Vector_15" d="M32.1669 31.802C33.1703 30.6487 33.92 29.2339 35.2425 28.415C34.7927 29.0686 34.3391 29.7683 33.8316 30.4296C33.4732 30.8524 33.0879 31.2518 32.6782 31.6252C32.5427 31.7354 32.3958 31.8307 32.24 31.9097L32.1669 31.802Z" fill="#4A4700"/>
<path id="Vector_16" d="M30.2524 32.4172L31.9094 29.9605C32.5668 29.8221 32.7628 29.1916 33.1088 28.7495L33.2242 28.8302C32.9666 29.1724 32.6898 29.4992 32.4553 29.8529C32.2208 30.2066 32.0708 30.5756 31.8402 30.9678L31.7594 30.7602L30.4677 32.5786L30.2524 32.4172Z" fill="#4A4700"/>
<path id="Vector_17" d="M24.1665 63.8652C24.2549 64.0921 24.3011 64.2497 24.3664 64.3612C24.4702 64.5611 24.5932 64.7456 24.7047 64.9417C24.8343 65.0918 24.9312 65.2672 24.9892 65.4569C25.0762 66.1272 25.3706 66.7536 25.8312 67.2484C25.9236 67.3588 25.9858 67.4912 26.0119 67.6328C25.4698 67.0254 24.674 66.591 24.697 65.5991C24.665 65.3744 24.5579 65.1671 24.3933 65.0109C24.2431 64.8659 24.1408 64.6784 24.1003 64.4736C24.0597 64.2688 24.0828 64.0565 24.1665 63.8652Z" fill="#4A4700"/>
<path id="Vector_18" d="M26.0695 65.0723L27.5266 67.5866L27.4497 67.6519C26.9691 67.1445 26.4655 66.6562 26.0234 66.1141C25.9507 66.0466 25.8936 65.9641 25.856 65.8723C25.8184 65.7805 25.8012 65.6816 25.8055 65.5825C25.8099 65.4834 25.8358 65.3865 25.8814 65.2984C25.927 65.2102 25.9912 65.1331 26.0695 65.0723Z" fill="#4A4700"/>
<path id="Vector_19" d="M27.7995 66.7484C27.0576 66.364 26.6846 65.4259 27.0306 64.8262C27.5343 65.0722 28.0302 66.2909 27.7995 66.7484Z" fill="#4A4700"/>
<path id="Vector_20" d="M36.2344 22.3137C36.2818 22.0083 36.4201 21.7242 36.6313 21.4986C36.8426 21.273 37.1169 21.1163 37.4185 21.0488C37.3512 21.3458 37.206 21.6195 36.9979 21.8418C36.7898 22.0641 36.5263 22.227 36.2344 22.3137Z" fill="#4A4700"/>
<path id="Vector_21" d="M28.9606 66.6103L28.0417 65.4569L28.2109 65.3301L29.0567 66.5373L28.9606 66.6103Z" fill="#4A4700"/>
<path id="Vector_22" d="M52.0737 79.9389C51.4932 79.5544 50.8934 79.17 50.3321 78.7202C49.9785 78.4472 49.9977 78.2627 50.3321 77.8975C50.8281 78.6664 51.843 78.9163 52.1583 79.8197L52.0737 79.9389Z" fill="#4A4700"/>
<path id="Vector_23" d="M99.4917 36.2039C98.7228 35.6887 98.4345 34.9967 98.1154 34.3201C97.4195 32.8515 96.6968 31.3983 95.5973 30.1719C95.3919 29.891 95.2118 29.5925 95.059 29.28C94.955 29.0926 94.8382 28.9128 94.7092 28.7417C93.8365 27.6845 92.9868 26.6042 92.0719 25.5815C91.0031 24.3821 89.8728 23.2326 88.7733 22.0561C88.2773 21.5295 87.7929 20.9951 87.2355 20.3838C87.4323 20.5423 87.6376 20.6899 87.8506 20.8259C89.2769 21.6294 90.3995 22.7828 91.499 23.9592C92.9446 25.497 94.3017 27.1193 95.6319 28.7533C96.3964 29.6734 97.0807 30.6573 97.6771 31.6943C98.3422 32.8746 98.8574 34.1432 99.411 35.385C99.4754 35.653 99.5025 35.9285 99.4917 36.2039Z" fill="#4A4700"/>
<path id="Vector_24" d="M85.1979 23.813C85.7977 24.2243 86.4243 24.605 86.9971 25.0548C88.3751 26.2235 89.6604 27.4973 90.8416 28.8647C91.8569 30.0155 92.7378 31.2782 93.4674 32.6284C93.6774 33.0697 93.851 33.5275 93.9864 33.9971L93.8865 34.1047C93.6476 33.9333 93.4284 33.7361 93.2329 33.5165C92.7062 32.7822 92.2679 31.9787 91.6951 31.279C90.5418 29.8412 89.2692 28.4725 88.0851 27.0501C87.2783 26.1546 86.3959 25.3301 85.4478 24.5857C85.2841 24.3977 85.147 24.1882 85.0403 23.9629L85.1979 23.813Z" fill="#4A4700"/>
<path id="Vector_25" d="M86.5204 22.2485C86.6973 22.3562 86.8818 22.4484 87.0471 22.5715C87.7247 23.035 88.3743 23.5382 88.9924 24.0785C90.215 25.2319 91.4068 26.4506 92.5486 27.6962C93.3811 28.6118 94.1603 29.5745 94.8822 30.5796C95.5151 31.3485 95.9152 32.2821 96.0356 33.2707C95.8479 33.1201 95.6718 32.9556 95.5089 32.7786C94.6131 31.5522 93.7635 30.2912 92.8177 29.1071C92.0834 28.1883 91.2299 27.3694 90.4341 26.5005C90.2111 26.2545 90.0266 25.9739 89.7921 25.7316C89.5576 25.4894 89.2077 25.228 88.9194 24.9627C88.2504 24.3592 87.57 23.7671 86.9164 23.1405C86.7128 22.902 86.5325 22.6445 86.3782 22.3716L86.5204 22.2485Z" fill="#4A4700"/>
<path id="Vector_26" d="M83.7293 25.228C83.8933 25.2501 84.0537 25.2941 84.206 25.3587C85.1671 25.9854 86.1552 26.5774 87.0663 27.281C88.027 28.0232 88.8786 28.8967 89.596 29.876C90.0151 30.4335 90.4918 30.9486 90.8685 31.5292C91.0408 31.8653 91.1699 32.2218 91.253 32.5902L91.0684 32.6825C90.5494 32.1404 90.0266 31.6022 89.5306 31.0563C88.5887 30.0452 87.6968 28.9841 86.7011 28.0307C85.9293 27.3535 85.1208 26.7195 84.2791 26.1315C84.1094 26.0508 83.967 25.9223 83.8694 25.7618C83.7717 25.6013 83.723 25.4158 83.7293 25.228Z" fill="#4A4700"/>
<path id="Vector_27" d="M90.0689 80.0967C89.7613 80.6118 89.5037 81.1539 88.9655 81.4653C88.871 81.4969 88.7835 81.5465 88.7079 81.6114C87.6968 82.9032 86.3205 83.7259 84.9288 84.5255C84.6914 84.6683 84.4264 84.7589 84.1513 84.7914C83.8762 84.8239 83.5974 84.7975 83.3333 84.7139C84.0561 83.995 84.9595 83.7413 85.7015 83.2376C86.4435 82.734 87.2047 82.1842 87.9506 81.6499C88.6964 81.1155 89.3615 80.6157 90.0689 80.0967Z" fill="#4A4700"/>
<path id="Vector_28" d="M95.0245 78.5278C94.3171 80.0426 93.4175 81.3612 91.8797 82.1378C90.9993 82.5799 90.1766 83.1374 89.3231 83.6333C89.1807 83.7041 89.0329 83.7633 88.881 83.8102L88.7887 83.7025C88.8972 83.502 89.0389 83.3213 89.2077 83.1681C90.2112 82.5069 91.2453 81.8918 92.2449 81.2267C92.647 80.9507 93.0193 80.6337 93.356 80.2809C93.8288 79.8004 94.2517 79.2775 94.7015 78.7777C94.8024 78.686 94.9104 78.6025 95.0245 78.5278Z" fill="#4A4700"/>
<path id="Vector_29" d="M81.5995 84.2177C82.7528 83.4757 83.8601 82.6606 85.0595 82.0225L85.2133 82.2147C84.7951 82.8537 84.2278 83.3815 83.5602 83.7525C82.9681 84.1062 82.3876 84.5445 81.5995 84.2177Z" fill="#4A4700"/>
<path id="Vector_30" d="M81.6802 82.3724C81.2689 82.7108 80.9113 83.0299 80.5269 83.3143C80.2155 83.5412 79.8733 83.7219 79.5427 83.9218C79.5042 83.9448 79.4273 83.9718 79.4197 83.9602C79.1544 83.6219 78.9276 83.991 78.6508 84.0294C79.1198 83.1413 81.1189 81.988 81.6802 82.3724Z" fill="#4A4700"/>
<path id="Vector_31" d="M79.3158 29.7027C79.0842 29.5252 78.8633 29.3339 78.6546 29.1299C78.4162 28.8723 78.297 28.5417 77.8049 28.5994C77.382 28.6493 76.6516 27.5883 76.7477 27.1654C76.7625 27.1013 76.7907 27.0411 76.8305 26.9888C76.8702 26.9364 76.9206 26.8931 76.9784 26.8617C77.0668 26.8386 77.2321 26.9424 77.3013 27.0385C77.4583 27.2608 77.596 27.4962 77.7127 27.742C77.7988 27.9611 77.9425 28.1528 78.1286 28.2969C78.3147 28.4411 78.5363 28.5323 78.7699 28.5609C79.2581 28.6378 79.3658 29.1453 79.4235 29.5874L79.3158 29.7027Z" fill="#4A4700"/>
<path id="Vector_32" d="M80.5961 70.0049L83.5064 71.9041L83.4487 72.0348C82.6798 71.7388 81.884 71.4543 81.1112 71.1429C80.6114 70.9429 80.7345 70.4086 80.5961 70.0049Z" fill="#4A4700"/>
<path id="Vector_33" d="M76.3364 28.0728C76.0921 28.0104 75.8615 27.9035 75.6559 27.7576C75.4079 27.4906 75.2065 27.1839 75.06 26.8503C74.9946 26.7042 75.1061 26.4658 75.1369 26.2852C75.3253 26.3505 75.5752 26.362 75.6905 26.4928C75.8592 26.7303 75.9962 26.9887 76.098 27.2617C76.2057 27.4923 76.2979 27.7307 76.4017 27.9652L76.3364 28.0728Z" fill="#4A4700"/>
<path id="Vector_34" d="M78.5739 71.9922C79.4649 72.2743 80.3066 72.6932 81.0689 73.234C80.4846 73.5761 78.9045 72.8726 78.5739 71.9922Z" fill="#4A4700"/>
<path id="Vector_35" d="M76.2018 73.9453L79.2543 75.5638L79.2082 75.683C79.0483 75.6036 78.8825 75.5367 78.7122 75.4831C78.4157 75.3931 78.1101 75.3364 77.8011 75.314C77.3013 75.3063 76.4286 74.6335 76.2018 73.9453Z" fill="#4A4700"/>
<path id="Vector_36" d="M84.3022 65.5952C84.8058 66.0181 85.7554 65.9528 85.7285 67.0869C85.2155 66.8454 84.7163 66.5759 84.233 66.2795C84.1176 66.2065 84.1753 65.8951 84.1522 65.6606L84.3022 65.5952Z" fill="#4A4700"/>
<path id="Vector_37" d="M89.5422 60.7592C88.9463 60.8976 88.4773 60.6861 88.4312 60.1245L89.6153 60.5938L89.5422 60.7592Z" fill="#4A4700"/>
<path id="Vector_38" d="M91.5183 56.0338C91.2828 55.9178 91.061 55.776 90.857 55.6109C90.8032 55.5609 90.9493 55.3071 91.0454 55.0342L91.649 55.8569L91.5183 56.0338Z" fill="#4A4700"/>
<path id="Vector_39" d="M87.52 62.8657L88.7733 63.1851C88.5633 63.3029 88.3161 63.3355 88.0828 63.2761C87.8495 63.2166 87.648 63.0697 87.52 62.8657Z" fill="#4A4700"/>
<path id="Vector_40" d="M84.3175 68.9441C83.6678 68.9633 83.341 68.7787 83.1642 68.1748L84.3175 68.9441Z" fill="#4A4700"/>
<path id="Vector_41" d="M86.3705 63.8882L86.9164 64.6229C86.5012 64.7152 86.2398 64.4382 86.3705 63.8882Z" fill="#4A4700"/>
<path id="Vector_42" d="M90.2611 56.9683L90.8071 57.4798L90.7802 57.6029C90.6417 57.6029 90.4572 57.6222 90.3957 57.5452C90.2803 57.3953 90.187 57.2295 90.1189 57.0529L90.2611 56.9683Z" fill="#4A4700"/>
<path id="Vector_43" d="M67.098 57.8832C66.8754 57.965 66.6447 58.0229 66.4099 58.0562C64.4453 58.0562 62.4846 57.9947 60.5239 58.0101C59.3952 58.0002 58.2753 57.8108 57.2061 57.4488C56.8311 57.3094 56.5046 57.0641 56.2664 56.7426C56.0282 56.4211 55.8885 56.0374 55.8644 55.638C55.8452 54.9191 55.8375 54.1925 55.8836 53.4774C55.926 53.2277 56.0521 53 56.2412 52.8315C56.3373 52.7354 56.5833 52.7739 56.7563 52.7892C56.7801 52.9095 56.7917 53.0319 56.7909 53.1545C56.8294 53.7619 56.8717 54.3693 56.9139 54.9768C56.9423 55.1119 56.9539 55.2501 56.9485 55.3881C56.923 55.4809 56.9177 55.5782 56.9332 55.6732C56.9486 55.7682 56.9844 55.8588 57.038 55.9387C57.0917 56.0186 57.1619 56.086 57.244 56.1363C57.3261 56.1866 57.4181 56.2186 57.5137 56.2301C58.2826 56.4223 59.0707 56.6145 59.855 56.7375C60.5662 56.8567 61.289 56.9182 62.0079 56.9797C62.969 57.0605 63.9609 56.999 64.8874 57.2181C65.5794 57.3834 66.4099 57.1335 67.098 57.8832Z" fill="#4A4700"/>
<path id="Vector_44" d="M5.26696 39.9714C4.81121 39.8413 4.36643 39.6755 3.93677 39.4755C3.16787 39.041 2.39897 38.5566 2.08756 37.6416C2.00916 37.4934 1.967 37.3287 1.96454 37.1611C1.98699 37.0795 2.02584 37.0033 2.07872 36.9372C2.1316 36.8711 2.1974 36.8164 2.2721 36.7766C2.34495 36.7692 2.41849 36.7805 2.48576 36.8094C2.55303 36.8384 2.61181 36.884 2.65655 36.9419C3.02204 37.5112 3.50589 37.9951 4.07517 38.3606C4.47621 38.6679 4.84813 39.0115 5.18623 39.387C5.27287 39.5214 5.3317 39.6717 5.35923 39.8292L5.26696 39.9714Z" fill="#4A4700"/>
<path id="Vector_45" d="M9.81886 37.7766C9.61275 38.0952 9.37721 38.3938 9.11531 38.6685C8.60186 39.104 8.05985 39.5047 7.49293 39.868C7.10848 40.1179 6.75095 40.0064 6.61254 39.6527C6.57025 39.5566 6.61254 39.3451 6.66252 39.3105C7.6198 38.7684 8.58477 38.2494 9.56127 37.7266C9.5805 37.7189 9.61125 37.742 9.81886 37.7766Z" fill="#4A4700"/>
</g>
<defs>
<clipPath id="clip0_61_1290">
<rect width="125" height="96.1009" fill="white" transform="translate(0 0.869141)"/>
</clipPath>
</defs>
</svg>
