<svg width="32" height="44" viewBox="0 0 32 44" fill="none" xmlns="http://www.w3.org/2000/svg">
<g id="Page-1">
<g id="Icon-Set">
<path id="location" fill-rule="evenodd" clip-rule="evenodd" d="M16 20.9038C13.7907 20.9038 12 19.1131 12 16.9038C12 14.6945 13.7907 12.9038 16 12.9038C18.2093 12.9038 20 14.6945 20 16.9038C20 19.1131 18.2093 20.9038 16 20.9038ZM16 10.2371C12.3187 10.2371 9.33333 13.2211 9.33333 16.9038C9.33333 20.5865 12.3187 23.5705 16 23.5705C19.6813 23.5705 22.6667 20.5865 22.6667 16.9038C22.6667 13.2211 19.6813 10.2371 16 10.2371ZM16 39.5705C13.7827 39.5825 2.66667 22.4785 2.66667 16.9038C2.66667 9.54114 8.636 3.57048 16 3.57048C23.364 3.57048 29.3333 9.54114 29.3333 16.9038C29.3333 22.4038 18.1827 39.5825 16 39.5705ZM16 0.903809C7.164 0.903809 0 8.06781 0 16.9038C0 23.5945 13.34 43.5852 16 43.5705C18.6187 43.5852 32 23.5038 32 16.9038C32 8.06781 24.836 0.903809 16 0.903809Z" fill="#927A20"/>
</g>
</g>
</svg>
