<svg width="80" height="79" viewBox="0 0 80 79" fill="none" xmlns="http://www.w3.org/2000/svg">
<g id="Group">
<path id="Vector" fill-rule="evenodd" clip-rule="evenodd" d="M17.7929 69.255C13.065 66.6062 9.15614 62.7088 6.49336 57.9888C3.66687 52.1322 2.2622 45.6913 2.39353 39.1896C2.26919 32.6295 3.50628 26.1149 6.02671 20.0571C6.13025 19.8131 6.1361 19.5387 6.04305 19.2906C5.94999 19.0424 5.76515 18.8395 5.52673 18.7238C5.40651 18.6681 5.27642 18.6369 5.14403 18.632C5.01163 18.627 4.87958 18.6484 4.75553 18.6949C4.63148 18.7414 4.51791 18.8122 4.42142 18.9029C4.32493 18.9937 4.24744 19.1028 4.19346 19.2238C1.44301 25.5323 0.0245757 32.3408 0.0269654 39.2229C-0.213423 46.1097 1.15615 52.9575 4.0268 59.2221C6.43522 63.5197 9.70711 67.2724 13.6366 70.2438C17.566 73.2153 22.068 75.3413 26.8592 76.488C36.2943 79.0464 46.2222 79.1839 55.7246 76.888C61.7273 75.0863 67.1004 71.6288 71.2274 66.9123C75.3544 62.1957 78.0681 56.4112 79.057 50.2225C81.516 38.1228 79.1218 25.5414 72.3906 15.1906C66.2575 6.22431 54.5247 1.19119 42.2252 0.557887C36.4934 0.110959 30.7299 0.809134 25.2706 2.61174C19.8113 4.41434 14.7653 7.28533 10.4265 11.0574C10.2198 11.2642 10.1009 11.5429 10.0948 11.8352C10.0887 12.1276 10.1959 12.4109 10.3938 12.6261C10.5918 12.8413 10.8653 12.9717 11.1571 12.9899C11.449 13.0082 11.7366 12.9129 11.9598 12.724C16.0916 9.25554 20.8708 6.64164 26.0203 5.03385C31.1698 3.42606 36.5872 2.85636 41.9585 3.35777C53.1914 4.1244 63.9909 8.85754 69.4574 17.3238C75.5393 26.9547 77.6203 38.5798 75.2571 49.7225C72.8906 60.722 66.0575 70.1883 54.5913 73.3215C45.7453 75.5846 36.4719 75.5846 27.6258 73.3215C24.7978 72.5922 22.0591 71.5526 19.4595 70.2216L17.7929 69.255Z" fill="#927A20"/>
<g id="Vector_2">
<path d="M40.522 7.64988C38.0387 7.8865 37.9141 7.26185 40.3279 6.68111C41.0492 6.50741 41.8905 6.33174 42.1967 6.28979C42.503 6.24784 43.7607 7.21989 44.9902 8.44888C46.341 9.79914 48.6518 11.1323 50.8262 11.816C54.739 13.0463 61.6394 17.061 61.6394 18.1071C61.6394 18.4643 60.7692 18.1373 59.7049 17.3802C57.4269 15.7586 51.5751 13.0856 49.0289 12.5036C47.4466 12.1418 47.1266 12.362 46.2761 14.3966C45.0538 17.3199 42.6485 18.5325 40.2433 17.4372C39.2951 17.0053 38.6794 16.4921 38.8754 16.2961C39.0715 16.1001 39.8262 16.2574 40.5521 16.6454C42.3416 17.6031 43.7816 16.9306 45.0039 14.5683C45.8492 12.9342 45.8735 12.4983 45.1436 12.0362C43.5502 11.0262 35.061 11.4326 29.8335 12.769C21.8072 14.8213 16.5823 18.4689 13.6597 24.0613C11.8649 27.4953 11.7213 35.1046 13.3672 39.5611C14.6013 42.9026 14.6039 42.9196 13.8512 42.9196C13.5351 42.9196 12.5836 41.3708 11.7364 39.4785C9.61903 34.7454 9.54689 26.7487 11.5862 22.928C13.4676 19.4049 17.3816 15.5908 21.0118 13.7444C24.4584 11.9904 30.2715 10.2081 33.1148 10.0331C34.1967 9.96627 35.6492 9.44847 36.3423 8.88215C37.0354 8.31583 37.4098 8.18343 37.1751 8.58785C36.7318 9.35015 39.9148 10.1256 43.5443 10.1393C45.4328 10.1465 45.4387 10.1347 44.2131 8.7812C43.28 7.75081 42.3744 7.47291 40.522 7.64988Z" fill="#927A20"/>
<path d="M63.0151 20.3455C62.619 20.101 62.2951 19.3558 62.2951 18.9953C62.2951 18.6348 62.5626 18.7554 62.8898 18.9572C63.7502 19.4888 67.8689 26.3954 67.8689 27.1885C67.8689 27.5582 66.6846 25.4398 65.638 23.79C64.5915 22.1402 63.4112 20.5907 63.0151 20.3455Z" fill="#927A20"/>
<path d="M21.3489 31.7768C20.4236 31.7768 22.4859 29.0389 23.8131 28.5041C25.6177 27.7771 27.4957 27.7758 29.1803 28.4995C30.2053 28.9393 29.9016 29.073 27.7934 29.109C26.1456 29.1372 24.4459 29.6655 23.4276 30.4659C22.5108 31.1869 21.5751 31.7768 21.3489 31.7768Z" fill="#927A20"/>
<path d="M46.2813 30.302C44.9194 31.4477 44.9194 31.4477 46.1672 29.9743C48.1312 27.6559 53.9016 28.4451 56.3233 31.3632C57.9921 33.3748 56.4971 33.2686 53.983 31.1967C51.162 28.8724 48.3659 28.548 46.2813 30.302Z" fill="#927A20"/>
<path d="M68.7524 32.76C68.7524 32.8862 68.74 33.063 68.7191 33.2725C68.6033 34.8918 68.3946 36.46 68.3003 36.6927C68.1441 37.0806 68.5909 34.5594 68.7191 33.2725C68.7313 33.1017 68.7425 32.9304 68.7524 32.7599C68.7524 31.8586 68.4492 29.1962 68.6308 29.6465C68.8291 30.1382 68.8302 31.4201 68.7524 32.7599C68.7524 32.7599 68.7524 32.76 68.7524 32.76Z" fill="#927A20"/>
<path d="M52.459 38.3314C50.8721 39.3565 48.783 39.0852 47.122 37.6392C45.6656 36.3709 45.6584 36.3322 47.0059 36.9838C47.7941 37.3646 49.5646 37.6805 50.9403 37.6858C52.7974 37.6936 53.1889 37.8601 52.459 38.3314Z" fill="#927A20"/>
<path d="M28.158 38.3314C29.5797 38.3314 30.9246 38.0364 31.1476 37.6759C31.56 37.0093 32.1312 36.7917 32.1312 37.3017C32.1312 37.4557 31.6676 38.0456 31.101 38.6126C29.9718 39.7413 25.5738 40.0389 25.5738 38.9869C25.5738 38.6264 26.7364 38.3314 28.158 38.3314Z" fill="#927A20"/>
<path d="M36.1712 40.0939C36.5915 39.3048 37.4039 38.2999 37.9757 37.8608C39.4046 36.7642 40.9902 36.8265 41.9797 38.0188C42.6794 38.8617 42.6262 38.9469 41.638 38.568C40.7928 38.2436 39.9751 38.7221 38.6938 40.2912C36.7003 42.7322 34.8426 42.5873 36.1712 40.0939Z" fill="#927A20"/>
<path d="M70.1639 43.7508C68.7213 43.1845 67.541 42.4706 67.541 42.1645C67.541 41.8591 68.5738 41.6087 69.8361 41.6087C72.2715 41.6087 74.7541 43.4434 74.7541 45.2433C74.7541 46.7961 71.7194 49.4808 70.0295 49.4225C69.0564 49.389 68.8721 49.2429 69.5082 49.0095C71.0931 48.4268 72.7869 46.7246 72.7869 45.7152C72.7869 45.2013 71.6066 44.3171 70.1639 43.7508Z" fill="#927A20"/>
<path d="M40.6479 44.3793C36.8544 44.7438 36.5082 44.5216 39.5082 43.6466C45.7994 41.8106 53.1148 46.7816 53.1148 52.8918C53.1148 57.0717 49.9731 61.5059 46.4649 62.2761C45.3862 62.5127 44.5902 63.119 44.5902 63.703C44.5902 65.0638 49.6512 64.4155 55.4459 62.3135C57.7541 61.4758 59.4957 61.0274 59.3167 61.3172C58.8308 62.1024 52.1292 64.4935 47.2459 65.6229C44.8839 66.1695 42.4374 67.0793 41.8098 67.645C39.3207 69.8893 32.0859 69.3518 32.1508 66.9279C32.162 66.5209 32.4715 66.7051 32.8394 67.3356C33.6603 68.7449 38.4984 68.9179 40.2977 67.6024C41.3613 66.825 40.9692 66.6729 36.939 66.298C32.3384 65.8706 27.0177 64.3375 22.8938 62.2505C20.0269 60.7993 16.2164 57.954 16.6118 57.5587C16.779 57.3916 19.6754 58.4272 23.0479 59.8607C26.421 61.2942 30.9935 62.9362 33.2092 63.5084C37.7338 64.6777 43.2787 64.8901 43.2787 63.8944C43.2787 63.5339 42.9272 63.239 42.4977 63.239C42.0682 63.239 42.2892 62.7782 42.9895 62.2145C43.7331 61.6161 43.9698 61.0641 43.5587 60.8878C43.1718 60.7213 42.9836 59.7073 43.141 58.635C43.32 57.4172 43.1384 56.6843 42.6584 56.6843C42.2289 56.6843 42.0984 57.0455 42.362 57.5037C42.6216 57.9546 42.0492 57.6079 41.0892 56.7342C39.2367 55.047 38.8321 52.8702 40.1312 51.5718C41.0839 50.6194 43.2787 50.5276 43.2787 51.4406C43.2787 51.8012 42.8466 52.0961 42.318 52.0961C40.722 52.0961 39.9076 54.3476 40.9882 55.7746C41.863 56.9295 41.9272 56.8698 41.9462 54.8818C41.958 53.7099 42.2393 52.7516 42.5718 52.7516C43.1541 52.7516 44.2551 55.5897 44.7344 58.323C44.9449 59.5218 45.1449 59.4563 47.0721 57.5541C49.7049 54.9565 49.9312 51.731 47.6662 49.0987C46.4925 47.7347 45.3902 47.266 42.7587 47.0137C38.7344 46.6269 36.4413 47.8133 35.0551 50.9982C34.5574 52.1427 34.1384 52.5857 34.1239 51.9827C34.0839 50.2654 37.1921 47.015 39.6512 46.2042C42.5993 45.2314 46.6984 46.3189 48.4439 48.5376C51.3725 52.2587 50.682 56.4897 46.743 58.9673C45.5869 59.6942 44.6295 60.6584 44.6157 61.1087C44.581 62.2348 45.0669 62.1457 47.6433 60.5536C52.2151 57.7298 53.2446 51.8162 49.8394 47.9392C47.2505 44.9922 44.6708 43.9933 40.6479 44.3793Z" fill="#927A20"/>
<path d="M5.24591 50.8298C5.24591 49.138 7.20526 46.7954 9.42821 45.8279C11.861 44.7694 13.1036 44.692 14.4079 45.5166C15.2164 46.0272 15.1626 46.1996 14.08 46.5778C8.8046 48.419 7.21312 49.4467 7.21312 51.0107C7.21312 52.319 7.67476 52.7437 9.67214 53.274L12.1312 53.9268L9.88788 53.995C7.46624 54.0677 5.24591 52.5536 5.24591 50.8298Z" fill="#927A20"/>
<path d="M31.8033 49.1465L33.7292 47.0163C35.5246 45.0309 36.0656 44.5845 36.0656 45.0912C36.0656 45.2039 35.1069 46.1629 33.9344 47.2214L31.8033 49.1465Z" fill="#927A20"/>
<path d="M35.5738 56.8436C34.7626 55.9948 34.1075 54.948 34.118 54.5174C34.1292 54.0868 34.4656 54.3247 34.8656 55.0457C35.2662 55.7667 35.9207 56.8135 36.3213 57.3719C36.7213 57.9304 36.3849 57.6925 35.5738 56.8436Z" fill="#927A20"/>
<path d="M33.6066 58.8546C32.4341 57.6715 31.4944 56.1829 31.5167 55.5471C31.5462 54.7278 31.7489 54.8681 32.2105 56.0289C32.5685 56.9301 33.5089 58.4187 34.2997 59.3363C35.0905 60.2546 34.779 60.0377 33.6066 58.8546Z" fill="#927A20"/>
<path d="M38.3607 5.01229C36.5003 6.04071 34.0984 8.29814 34.0984 9.01783C34.0984 9.35277 35.1416 8.71173 36.4164 7.59285C37.6912 6.47398 39.4439 5.55829 40.3121 5.55829C41.1797 5.55829 42.0721 5.26334 42.2951 4.90283M40.3279 6.68111C37.9141 7.26185 38.0387 7.8865 40.522 7.64988C42.3744 7.47291 43.28 7.75081 44.2131 8.7812C45.4387 10.1347 45.4328 10.1465 43.5443 10.1393C39.9148 10.1256 36.7318 9.35015 37.1751 8.58785C37.4098 8.18343 37.0354 8.31583 36.3423 8.88215C35.6492 9.44847 34.1967 9.96627 33.1148 10.0331C30.2715 10.2081 24.4584 11.9904 21.0118 13.7444C17.3816 15.5908 13.4676 19.4049 11.5862 22.928C9.54689 26.7487 9.61903 34.7454 11.7364 39.4785C12.5836 41.3708 13.5351 42.9196 13.8512 42.9196C14.6039 42.9196 14.6013 42.9026 13.3672 39.5611C11.7213 35.1046 11.8649 27.4953 13.6597 24.0613C16.5823 18.4689 21.8072 14.8213 29.8335 12.769C35.061 11.4326 43.5502 11.0262 45.1436 12.0362C45.8735 12.4983 45.8492 12.9342 45.0039 14.5683C43.7816 16.9306 42.3416 17.6031 40.5521 16.6454C39.8262 16.2574 39.0715 16.1001 38.8754 16.2961C38.6794 16.4921 39.2951 17.0053 40.2433 17.4372C42.6485 18.5325 45.0538 17.3199 46.2761 14.3966C47.1266 12.362 47.4466 12.1418 49.0289 12.5036C51.5751 13.0856 57.4269 15.7586 59.7049 17.3802C60.7692 18.1373 61.6394 18.4643 61.6394 18.1071C61.6394 17.061 54.739 13.0463 50.8262 11.816C48.6518 11.1323 46.341 9.79914 44.9902 8.44888C43.7607 7.21989 42.503 6.24784 42.1967 6.28979C41.8905 6.33174 41.0492 6.50741 40.3279 6.68111ZM62.2951 18.9953C62.2951 19.3558 62.619 20.101 63.0151 20.3455C63.4112 20.5907 64.5915 22.1402 65.638 23.79C66.6846 25.4398 67.8689 27.5582 67.8689 27.1885C67.8689 26.3954 63.7502 19.4888 62.8898 18.9572C62.5626 18.7554 62.2951 18.6348 62.2951 18.9953ZM23.8131 28.5041C22.4859 29.0389 20.4236 31.7768 21.3489 31.7768C21.5751 31.7768 22.5108 31.1869 23.4276 30.4659C24.4459 29.6655 26.1456 29.1372 27.7935 29.109C29.9016 29.073 30.2053 28.9393 29.1803 28.4995C27.4957 27.7758 25.6177 27.7771 23.8131 28.5041ZM46.1672 29.9743C44.9194 31.4477 44.9194 31.4477 46.2813 30.302C48.3659 28.548 51.162 28.8724 53.983 31.1967C56.4971 33.2686 57.9921 33.3748 56.3233 31.3632C53.9016 28.4451 48.1312 27.6559 46.1672 29.9743ZM68.7524 32.76C68.7524 33.6612 68.1187 37.1437 68.3003 36.6927C68.4826 36.2424 69.0935 30.7936 68.6308 29.6465C68.4492 29.1962 68.7524 31.8587 68.7524 32.76ZM47.122 37.6392C48.783 39.0852 50.8721 39.3565 52.459 38.3314C53.1889 37.8601 52.7974 37.6936 50.9403 37.6858C49.5646 37.6805 47.7941 37.3646 47.0059 36.9838C45.6584 36.3322 45.6656 36.3709 47.122 37.6392ZM31.1475 37.6759C30.9246 38.0364 29.5797 38.3314 28.158 38.3314C26.7364 38.3314 25.5738 38.6264 25.5738 38.9869C25.5738 40.0389 29.9718 39.7413 31.101 38.6126C31.6676 38.0456 32.1312 37.4557 32.1312 37.3017C32.1312 36.7917 31.56 37.0093 31.1475 37.6759ZM37.9757 37.8608C37.4039 38.3 36.5915 39.3048 36.1712 40.0939C34.8426 42.5873 36.7003 42.7322 38.6938 40.2912C39.9751 38.7221 40.7928 38.2436 41.638 38.568C42.6262 38.9469 42.6794 38.8617 41.9797 38.0188C40.9902 36.8265 39.4046 36.7642 37.9757 37.8608ZM67.541 42.1645C67.541 42.4706 68.7213 43.1845 70.1639 43.7508C71.6066 44.3171 72.7869 45.2013 72.7869 45.7152C72.7869 46.7246 71.0931 48.4268 69.5082 49.0095C68.8721 49.2429 69.0564 49.389 70.0295 49.4225C71.7194 49.4808 74.7541 46.7961 74.7541 45.2433C74.7541 43.4434 72.2715 41.6087 69.8361 41.6087C68.5738 41.6087 67.541 41.8591 67.541 42.1645ZM39.5082 43.6466C36.5082 44.5216 36.8544 44.7438 40.6479 44.3793C44.6708 43.9933 47.2505 44.9922 49.8394 47.9392C53.2446 51.8162 52.2151 57.7298 47.6433 60.5535C45.0669 62.1457 44.581 62.2348 44.6157 61.1087C44.6295 60.6584 45.5869 59.6942 46.743 58.9673C50.682 56.4897 51.3725 52.2587 48.4439 48.5376C46.6984 46.3189 42.5994 45.2314 39.6512 46.2042C37.1921 47.015 34.0839 50.2654 34.1239 51.9827C34.1384 52.5857 34.5574 52.1427 35.0551 50.9982C36.4413 47.8133 38.7344 46.6269 42.7587 47.0137C45.3902 47.266 46.4925 47.7347 47.6662 49.0987C49.9312 51.731 49.7049 54.9565 47.0721 57.5541C45.1449 59.4563 44.9449 59.5218 44.7344 58.323C44.2551 55.5897 43.1541 52.7516 42.5718 52.7516C42.2394 52.7516 41.958 53.7099 41.9462 54.8818C41.9272 56.8698 41.863 56.9295 40.9882 55.7746C39.9076 54.3476 40.722 52.0961 42.318 52.0961C42.8466 52.0961 43.2787 51.8012 43.2787 51.4406C43.2787 50.5276 41.0839 50.6194 40.1312 51.5717C38.8321 52.8702 39.2367 55.047 41.0892 56.7342C42.0492 57.6079 42.6216 57.9546 42.362 57.5037C42.0984 57.0455 42.2289 56.6843 42.6584 56.6843C43.1384 56.6843 43.32 57.4172 43.141 58.635C42.9836 59.7073 43.1718 60.7213 43.5587 60.8878C43.9698 61.0641 43.7331 61.6161 42.9895 62.2145C42.2892 62.7782 42.0682 63.239 42.4977 63.239C42.9272 63.239 43.2787 63.5339 43.2787 63.8944C43.2787 64.8901 37.7338 64.6777 33.2092 63.5084C30.9935 62.9362 26.421 61.2942 23.0479 59.8607C19.6754 58.4272 16.779 57.3916 16.6118 57.5587C16.2164 57.954 20.0269 60.7993 22.8938 62.2505C27.0177 64.3375 32.3384 65.8706 36.939 66.298C40.9692 66.6729 41.3613 66.825 40.2977 67.6024C38.4984 68.9179 33.6603 68.7449 32.8394 67.3356C32.4715 66.7051 32.162 66.5209 32.1508 66.9279C32.0859 69.3518 39.3207 69.8893 41.8098 67.645C42.4374 67.0793 44.8839 66.1695 47.2459 65.6229C52.1292 64.4935 58.8308 62.1024 59.3167 61.3171C59.4957 61.0274 57.7541 61.4758 55.4459 62.3135C49.6512 64.4155 44.5902 65.0638 44.5902 63.703C44.5902 63.119 45.3862 62.5127 46.4649 62.2761C49.9731 61.5059 53.1148 57.0717 53.1148 52.8918C53.1148 46.7816 45.7994 41.8106 39.5082 43.6466ZM9.42821 45.8279C7.20525 46.7954 5.24591 49.138 5.24591 50.8298C5.24591 52.5536 7.46624 54.0677 9.88788 53.995L12.1312 53.9268L9.67214 53.274C7.67476 52.7437 7.21312 52.319 7.21312 51.0107C7.21312 49.4467 8.8046 48.419 14.08 46.5778C15.1626 46.1996 15.2164 46.0272 14.4079 45.5166C13.1036 44.692 11.861 44.7694 9.42821 45.8279ZM33.7292 47.0163L31.8033 49.1465L33.9344 47.2214C35.1069 46.1629 36.0656 45.2039 36.0656 45.0912C36.0656 44.5845 35.5246 45.0309 33.7292 47.0163ZM34.118 54.5174C34.1075 54.948 34.7626 55.9948 35.5738 56.8436C36.3849 57.6925 36.7213 57.9304 36.3213 57.3719C35.9207 56.8135 35.2662 55.7667 34.8656 55.0457C34.4656 54.3247 34.1292 54.0867 34.118 54.5174ZM31.5167 55.5471C31.4944 56.1829 32.4341 57.6715 33.6066 58.8546C34.779 60.0377 35.0905 60.2546 34.2997 59.3363C33.5089 58.4187 32.5685 56.9301 32.2105 56.0289C31.7489 54.8681 31.5462 54.7278 31.5167 55.5471Z" stroke="#927A20" stroke-width="0.5"/>
</g>
<path id="Vector_3" fill-rule="evenodd" clip-rule="evenodd" d="M14.3197 70.8802L20.8611 62.8901C23.0717 60.2135 26.7259 55.9388 29.0266 53.3819C33.538 48.1884 38.0493 43.1147 42.5606 37.9611C47.072 32.8075 51.5833 27.6539 56.0946 22.6202C60.1097 18.2656 64.1699 14.0308 68.3654 9.87599C68.5179 9.74995 68.6397 9.59771 68.7234 9.42858C68.8071 9.25945 68.851 9.07698 68.8524 8.89231C68.8538 8.70764 68.8127 8.52467 68.7315 8.35456C68.6503 8.18445 68.5309 8.03078 68.3804 7.90295C68.2299 7.77511 68.0515 7.6758 67.8562 7.61107C67.6609 7.54634 67.4527 7.51756 67.2444 7.52649C67.0362 7.53542 66.8321 7.58186 66.6448 7.66299C66.4574 7.74411 66.2908 7.85821 66.1549 7.99832C58.8917 14.4303 51.7186 21.3018 44.7261 28.4929C41.2975 32.0484 37.914 35.6839 34.6658 39.3594C31.4177 43.0348 28.3048 46.91 25.192 50.6653C23.4777 52.8226 21.7634 55.0998 20.1393 57.377C17.7032 60.7728 13.9137 65.8465 11.6129 69.3621C10.3046 71.7192 11.9287 74.0363 14.3197 70.8802Z" fill="#4A4700"/>
</g>
</svg>
