<svg width="40" height="41" viewBox="0 0 40 41" fill="none" xmlns="http://www.w3.org/2000/svg">
<g id="Frame 8 (1) 1">
<path id="Vector" d="M21.7812 9.50513C21.8239 9.53353 21.8452 9.57619 21.8452 9.63313C21.8452 9.67579 21.8026 9.73979 21.7172 9.82513C21.2479 10.3371 20.8284 10.9273 20.4586 11.5958C20.0888 12.25 19.7759 12.9682 19.5199 13.7505C19.2639 14.5327 19.0648 15.3575 18.9226 16.2251C18.7804 17.0927 18.7092 17.9815 18.7092 18.8918C18.7092 19.5745 18.7874 20.1078 18.9439 20.4918C19.1146 20.8615 19.4061 21.0465 19.8186 21.0465C20.3874 21.0465 20.9279 20.6482 21.4399 19.8518C21.4826 19.8233 21.5252 19.8233 21.5679 19.8518C21.6106 19.8802 21.6248 19.9229 21.6106 19.9798C21.2408 20.5771 20.8284 21.0607 20.3732 21.4305C19.9324 21.8002 19.5199 21.9851 19.1359 21.9851C18.567 21.9851 18.1332 21.7647 17.8346 21.3238C17.5501 20.8829 17.4079 20.2571 17.4079 19.4465C17.4079 18.3087 17.5359 17.1495 17.7919 15.9691C17.1234 15.9691 16.4621 15.9762 15.8079 15.9905C15.1679 16.0047 14.5421 16.026 13.9306 16.0545C13.4612 16.5522 13.0061 17.0215 12.5652 17.4625C12.1386 17.9033 11.719 18.3087 11.3066 18.6785C10.1688 19.7167 8.99543 20.5273 7.78656 21.1105C6.59189 21.6935 5.27633 21.9851 3.83989 21.9851C3.07189 21.9851 2.45322 21.8145 1.98389 21.4731C1.52877 21.1318 1.223 20.698 1.06655 20.1718C0.924333 19.6455 0.93144 19.0695 1.08789 18.4438C1.24433 17.818 1.55722 17.2135 2.02655 16.6305C2.06922 16.602 2.119 16.6091 2.17589 16.6518C2.23277 16.6802 2.25411 16.7442 2.23989 16.8438C1.91277 17.1993 1.72789 17.6118 1.68522 18.0811C1.65677 18.5362 1.75633 18.97 1.98389 19.3825C2.22567 19.7807 2.59544 20.122 3.09322 20.4065C3.591 20.6767 4.21677 20.8118 4.97055 20.8118C6.17944 20.8118 7.31009 20.5629 8.36256 20.0651C9.42923 19.5673 10.4319 18.8918 11.3706 18.0385C11.6977 17.754 12.0248 17.4482 12.3519 17.1211C12.679 16.794 13.0204 16.4527 13.3759 16.0971C12.8781 16.1255 12.4088 16.1611 11.9679 16.2038C11.527 16.2322 11.1146 16.2749 10.7306 16.3318C10.6594 16.3175 10.6452 16.282 10.6879 16.2251C10.7306 16.1682 10.7946 16.1113 10.8799 16.0545C10.9652 15.9833 11.0648 15.9265 11.1786 15.8838C11.3066 15.8269 11.4274 15.7913 11.5412 15.7771C11.7261 15.7629 12.0106 15.7558 12.3946 15.7558C12.7928 15.7415 13.2408 15.7273 13.7386 15.7131C14.535 14.8882 15.4168 13.9993 16.3839 13.0465C17.3652 12.0793 18.5244 11.0695 19.8612 10.0171C18.9084 9.70419 17.9199 9.44819 16.8959 9.24913C15.8861 9.03579 14.9119 8.92913 13.9732 8.92913C12.9066 8.92913 12.0319 9.22779 11.3492 9.82513C10.6666 10.4082 10.247 11.3327 10.0906 12.5985C10.0621 12.6695 10.0194 12.698 9.96256 12.6838C9.91989 12.6695 9.89143 12.6269 9.87723 12.5558C10.0479 11.162 10.567 10.0953 11.4346 9.35579C12.3021 8.61619 13.4257 8.24646 14.8052 8.24646C15.3884 8.24646 15.9999 8.28913 16.6399 8.37446C17.2799 8.44553 17.9057 8.54513 18.5172 8.67313C19.143 8.78686 19.7332 8.92199 20.2879 9.07846C20.8568 9.22066 21.3546 9.36286 21.7812 9.50513ZM17.8559 15.6918C18.0834 14.6678 18.4034 13.6722 18.8159 12.7051C19.2284 11.738 19.7332 10.8491 20.3306 10.0385C19.079 11.0482 17.9626 12.0295 16.9812 12.9825C15.9999 13.9353 15.0968 14.8455 14.2719 15.7131C14.9546 15.6989 15.623 15.6918 16.2772 15.6918C16.9457 15.6918 17.4719 15.6918 17.8559 15.6918Z" fill="#4A4700" stroke="#4A4700"/>
<path id="Vector_2" d="M36.448 20.1718C36.4906 20.2002 36.512 20.2429 36.512 20.2998C36.512 20.3425 36.4693 20.4065 36.384 20.4918C35.9146 21.0038 35.4951 21.594 35.1253 22.2625C34.7555 22.9167 34.4426 23.6349 34.1866 24.4171C33.9306 25.1993 33.7315 26.0242 33.5893 26.8918C33.4471 27.7593 33.376 28.6482 33.376 29.5585C33.376 30.2411 33.4542 30.7745 33.6106 31.1585C33.7813 31.5282 34.0728 31.7131 34.4853 31.7131C35.0542 31.7131 35.5946 31.3149 36.1066 30.5185C36.1493 30.49 36.192 30.49 36.2346 30.5185C36.2773 30.5469 36.2915 30.5895 36.2773 30.6465C35.9075 31.2438 35.4951 31.7273 35.04 32.0971C34.5991 32.4669 34.1866 32.6518 33.8026 32.6518C33.2338 32.6518 32.8 32.4313 32.5013 31.9905C32.2168 31.5495 32.0746 30.9238 32.0746 30.1131C32.0746 28.9753 32.2026 27.8162 32.4586 26.6358C31.7902 26.6358 31.1288 26.6429 30.4746 26.6571C29.8346 26.6713 29.2088 26.6927 28.5973 26.7211C28.128 27.2189 27.6728 27.6882 27.232 28.1291C26.8053 28.57 26.3858 28.9753 25.9733 29.3451C24.8355 30.3833 23.6622 31.194 22.4533 31.7771C21.2586 32.3602 19.9431 32.6518 18.5066 32.6518C17.7386 32.6518 17.12 32.4811 16.6506 32.1398C16.1955 31.7985 15.8898 31.3647 15.7333 30.8385C15.5911 30.3122 15.5982 29.7362 15.7546 29.1105C15.9111 28.4847 16.224 27.8802 16.6933 27.2971C16.736 27.2687 16.7858 27.2758 16.8426 27.3185C16.8995 27.3469 16.9208 27.4109 16.9066 27.5105C16.5795 27.866 16.3946 28.2785 16.352 28.7478C16.3235 29.2029 16.4231 29.6367 16.6506 30.0491C16.8924 30.4473 17.2622 30.7887 17.76 31.0731C18.2578 31.3433 18.8835 31.4785 19.6373 31.4785C20.8462 31.4785 21.9768 31.2295 23.0293 30.7318C24.096 30.234 25.0986 29.5585 26.0373 28.7051C26.3644 28.4207 26.6915 28.1149 27.0186 27.7878C27.3458 27.4607 27.6871 27.1193 28.0426 26.7638C27.5448 26.7922 27.0755 26.8278 26.6346 26.8705C26.1938 26.8989 25.7813 26.9415 25.3973 26.9985C25.3262 26.9842 25.312 26.9487 25.3546 26.8918C25.3973 26.8349 25.4613 26.778 25.5466 26.7211C25.632 26.65 25.7315 26.5931 25.8453 26.5505C25.9733 26.4935 26.0942 26.458 26.208 26.4438C26.3928 26.4295 26.6773 26.4225 27.0613 26.4225C27.4595 26.4082 27.9075 26.394 28.4053 26.3798C29.2018 25.5549 30.0835 24.666 31.0506 23.7131C32.032 22.746 33.1911 21.7362 34.528 20.6838C33.5751 20.3709 32.5866 20.1149 31.5626 19.9158C30.5528 19.7025 29.5786 19.5958 28.64 19.5958C27.5733 19.5958 26.6986 19.8945 26.016 20.4918C25.3333 21.0749 24.9138 21.9993 24.7573 23.2651C24.7288 23.3362 24.6862 23.3647 24.6293 23.3505C24.5866 23.3362 24.5582 23.2935 24.544 23.2225C24.7146 21.8287 25.2338 20.762 26.1013 20.0225C26.9688 19.2829 28.0924 18.9131 29.472 18.9131C30.0551 18.9131 30.6666 18.9558 31.3066 19.0411C31.9466 19.1122 32.5724 19.2118 33.184 19.3398C33.8098 19.4535 34.4 19.5887 34.9546 19.7451C35.5235 19.8873 36.0213 20.0295 36.448 20.1718ZM32.5226 26.3585C32.7502 25.3345 33.0702 24.3389 33.4826 23.3718C33.8951 22.4047 34.4 21.5158 34.9973 20.7051C33.7458 21.7149 32.6293 22.6962 31.648 23.6491C30.6666 24.602 29.7635 25.5122 28.9386 26.3798C29.6213 26.3655 30.2898 26.3585 30.944 26.3585C31.6124 26.3585 32.1386 26.3585 32.5226 26.3585Z" fill="#4A4700" stroke="#4A4700"/>
<path id="Vector_3" d="M27.2746 21.8571C27.6301 21.8571 27.9074 21.9923 28.1066 22.2625C28.3057 22.5185 28.4052 22.81 28.4052 23.1371C28.4052 23.2083 28.3768 23.2651 28.3199 23.3078C28.263 23.3363 28.2061 23.3149 28.1492 23.2438C28.0354 23.0873 27.879 22.9593 27.6799 22.8598C27.495 22.7603 27.2674 22.7105 26.9972 22.7105C26.6559 22.7105 26.3572 22.7958 26.1012 22.9665C25.8452 23.1229 25.5964 23.3291 25.3546 23.5851C25.127 23.8411 24.9066 24.1327 24.6932 24.4598C24.4799 24.7727 24.2452 25.0856 23.9892 25.3985C24.359 25.7256 24.7786 25.9887 25.2479 26.1878C25.7172 26.3727 26.2221 26.4651 26.7626 26.4651C27.047 26.4651 27.2817 26.4153 27.4666 26.3158C27.6657 26.202 27.8292 26.0669 27.9572 25.9105C27.9999 25.8393 28.0568 25.818 28.1279 25.8465C28.2132 25.8749 28.2204 25.9531 28.1492 26.0811C27.9644 26.4509 27.6941 26.7496 27.3386 26.9771C26.983 27.2047 26.5279 27.3185 25.9732 27.3185C25.4328 27.3185 24.9279 27.226 24.4586 27.0411C24.0034 26.842 23.591 26.5718 23.2212 26.2305C22.8657 26.5576 22.4532 26.8207 21.9839 27.0198C21.5288 27.2189 20.9741 27.3185 20.3199 27.3185C19.5377 27.3185 18.9119 27.1265 18.4426 26.7425C17.9874 26.3585 17.7599 25.8251 17.7599 25.1425C17.7599 24.6731 17.8524 24.2749 18.0372 23.9478C18.2221 23.6207 18.4639 23.3363 18.7626 23.0945C19.0612 22.8385 19.3954 22.618 19.7652 22.4331C20.1492 22.2483 20.5332 22.0563 20.9172 21.8571C20.8604 21.5585 20.8177 21.2669 20.7892 20.9825C20.7608 20.6838 20.7466 20.3993 20.7466 20.1291C20.7466 19.7878 20.8106 19.4393 20.9386 19.0838C21.0666 18.7283 21.2372 18.4153 21.4506 18.1451C21.6781 17.8607 21.9341 17.6331 22.2186 17.4625C22.5172 17.2776 22.823 17.1851 23.1359 17.1851C23.5626 17.1851 23.8754 17.3131 24.0746 17.5691C24.2879 17.8109 24.3946 18.1238 24.3946 18.5078C24.3946 18.9203 24.3234 19.2829 24.1812 19.5958C24.039 19.8945 23.847 20.1718 23.6052 20.4278C23.3777 20.6696 23.1074 20.89 22.7946 21.0891C22.4959 21.2883 22.1901 21.4803 21.8772 21.6651C22.0337 22.3478 22.2684 22.9949 22.5812 23.6065C22.9084 24.218 23.2994 24.7513 23.7546 25.2065C24.039 24.8509 24.3092 24.4811 24.5652 24.0971C24.8212 23.6989 25.0844 23.3363 25.3546 23.0091C25.6248 22.6678 25.9092 22.3905 26.2079 22.1771C26.5208 21.9638 26.8764 21.8571 27.2746 21.8571ZM21.5999 19.4891C21.5999 20.1007 21.6639 20.7265 21.7919 21.3665C22.247 21.082 22.6239 20.7478 22.9226 20.3638C23.2354 19.9656 23.3919 19.4465 23.3919 18.8065C23.3919 18.5078 23.3279 18.2589 23.1999 18.0598C23.0719 17.8465 22.8657 17.7398 22.5812 17.7398C22.2541 17.7398 22.0052 17.8749 21.8346 18.1451C21.6781 18.4011 21.5999 18.8491 21.5999 19.4891ZM18.9546 24.6731C18.9546 25.3131 19.1252 25.8109 19.4666 26.1665C19.8221 26.522 20.3626 26.6998 21.0879 26.6998C21.4719 26.6998 21.8132 26.6358 22.1119 26.5078C22.4248 26.3798 22.7164 26.2091 22.9866 25.9958C22.4888 25.498 22.0692 24.9149 21.7279 24.2465C21.4008 23.578 21.1519 22.8811 20.9812 22.1558C20.711 22.3123 20.4479 22.4758 20.1919 22.6465C19.9501 22.8171 19.7368 23.002 19.5519 23.2011C19.367 23.4003 19.2177 23.6207 19.1039 23.8625C19.0044 24.1043 18.9546 24.3745 18.9546 24.6731Z" fill="#4A4700" stroke="#4A4700"/>
</g>
</svg>
