<svg width="214" height="51" viewBox="0 0 214 51" fill="none" xmlns="http://www.w3.org/2000/svg">
<g id="Capa_1" clip-path="url(#clip0_248_1442)">
<path id="Vector" d="M185.511 35.9123C182.947 39.6165 179.803 42.0661 175.101 42.0199C170.482 41.9737 167.389 39.5273 164.94 36.0047C158.119 43.3306 154.456 43.8555 146.114 38.6458C146.056 39.1939 145.969 39.6363 145.965 40.0886C145.965 42.8948 145.901 45.701 145.989 48.5039C146.026 49.7881 145.651 50.2437 144.302 50.2206C143.02 50.2008 142.508 49.907 142.538 48.5501C142.646 43.1457 142.615 37.7379 142.713 32.3368C142.75 30.1612 142.713 27.9327 143.192 25.8297C144.363 20.5475 148.59 16.8763 154.024 16.5263C157.397 16.3117 160.413 17.5465 162.771 20.0291C163.493 20.7885 164.12 21.6237 164.954 22.5976C167.335 18.8868 170.614 16.5065 175.114 16.4966C179.614 16.4867 182.94 18.768 185.342 22.4854C186.587 21.2143 187.548 19.9763 188.752 19.042C194.534 14.5686 202.468 16.3084 206.078 22.766C209.171 28.3058 207.822 35.5029 202.927 39.5702C197.961 43.7003 190.267 42.5415 186.364 37.081C186.131 36.7376 185.872 36.4009 185.511 35.9123ZM187.126 29.2896C187.126 34.4332 190.996 38.56 195.813 38.5699C200.63 38.5798 204.583 34.3573 204.56 29.3259C204.533 24.2285 200.569 20.0126 195.83 20.0357C190.992 20.0456 187.116 24.1691 187.126 29.2896ZM166.549 29.151C166.509 34.3243 170.324 38.5402 175.077 38.5765C179.884 38.6161 183.891 34.5026 183.969 29.4514C184.047 24.4002 180.127 20.1051 175.377 20.0324C170.526 19.9499 166.573 24.0338 166.532 29.1444L166.549 29.151ZM145.972 28.7911C145.908 31.6204 146.583 33.7432 148.151 35.5128C150.381 38.0219 153.231 39.2302 156.584 38.3388C160.201 37.3781 162.319 34.7964 163.098 31.2705C164.33 25.7934 160.464 20.4154 155.147 20.0886C150.023 19.7716 145.965 23.8423 145.952 28.7845L145.972 28.7911Z" fill="#4A4700"/>
<path id="Vector_2" d="M131.77 29.8541C130.984 29.8541 130.219 29.8541 129.456 29.8541C124.076 29.831 118.699 29.798 113.318 29.7914C111.294 29.7914 111.024 30.1776 111.594 32.0429C112.698 35.6745 115.595 38.2793 118.827 38.5732C123.013 38.9528 125.958 37.3714 127.935 33.5121C128.765 31.8911 130.023 32.8518 131.271 32.624C130.283 36.9489 127.77 39.8079 123.782 41.2704C119.92 42.69 116.256 42.0066 113.042 39.448C105.394 33.3602 107.125 21.2077 116.162 17.3846C120.368 15.6052 126.201 17.2361 128.964 21.0624C130.806 23.6144 132.087 26.3909 131.77 29.8541ZM128.238 26.5527C127.564 22.7428 123.597 19.7749 119.768 19.8937C115.7 20.0225 112.111 23.4626 111.895 26.5527H128.238Z" fill="#4A4700"/>
<path id="Vector_3" d="M31.3331 0.27056C34.3691 0.27056 37.4051 0.27056 40.4411 0.27056C43.1566 0.29367 44.7117 1.55811 44.8163 4.19925C44.9647 7.96287 44.8669 11.7331 44.8601 15.5033C44.8601 23.7569 44.7994 31.9807 44.8433 40.221C44.8433 41.6407 44.3373 42.0137 42.9812 41.9576C41.9085 41.9114 41.6319 41.4723 41.6588 40.5347C41.6858 37.0154 41.6588 33.4961 41.6588 29.9701V7.05168C41.6588 4.5459 40.8054 3.69083 38.2383 3.68423C32.841 3.68423 27.4437 3.6248 22.0464 3.71064C20.4643 3.73705 20.3867 3.00414 20.3597 1.80242C20.3192 0.501659 20.8657 0.237546 22.0734 0.257354C25.1633 0.320081 28.2533 0.277163 31.3466 0.277163L31.3331 0.27056Z" fill="#4A4700"/>
<path id="Vector_4" d="M25.2308 41.8354C24.7079 41.8684 24.1682 41.9344 23.6251 41.9344C17.6116 41.9344 11.5992 41.9344 5.58796 41.9344C2.52162 41.9344 0.865318 40.3893 0.841704 37.3883C0.821465 25.4966 0.851824 13.6214 0.821465 1.74622C0.821465 0.541202 1.31397 0.273787 2.42716 0.267185C3.54036 0.260582 3.99576 0.597327 3.99238 1.77923C3.95528 12.6739 3.96877 23.5686 3.97214 34.4435C3.97214 37.7977 4.69066 38.5009 8.11458 38.5042C12.8878 38.5042 17.6577 38.4844 22.4276 38.5042C25.4467 38.5339 25.4467 38.5604 25.2308 41.8354Z" fill="#4A4700"/>
<path id="Vector_5" d="M86.5341 17.735C87.4415 17.735 88.0554 17.7878 88.6525 17.735C89.8568 17.6029 90.4235 18.0883 90.8283 19.2305C92.7747 24.7175 94.8257 30.1681 96.8497 35.6287C97.015 36.0777 97.2342 36.5069 97.6087 37.3421C98.0641 36.4309 98.4115 35.8631 98.6409 35.249C100.516 30.2639 102.352 25.2622 104.227 20.2771C105.263 17.527 105.286 17.5369 108.666 17.8836C108.39 18.775 108.16 19.6465 107.85 20.4884C105.5 26.8711 103.139 33.2539 100.766 39.6366C99.9801 41.766 98.1214 42.6376 95.9423 41.8288C95.5502 41.6394 95.2464 41.3113 95.0922 40.911C92.2653 33.3144 89.4655 25.698 86.5341 17.735Z" fill="#4A4700"/>
<path id="Vector_6" d="M40.0532 24.2946C40.0532 29.6297 40.0295 34.9648 40.0734 40.2999C40.0734 41.4686 39.7833 41.9506 38.4744 41.9671C37.1656 41.9836 36.8856 41.4388 36.8924 40.2867C36.9216 31.0427 36.9216 21.7987 36.8924 12.5547C36.8924 9.4646 36.3391 8.92317 33.1446 8.92317C29.38 8.92317 25.612 8.87695 21.8474 8.94298C20.5925 8.96278 20.3058 8.44116 20.3665 7.35829C20.4204 6.40088 20.2484 5.49299 21.7664 5.5095C26.9917 5.56892 32.2237 5.5095 37.4456 5.55572C39.2098 5.55572 40.0363 6.48672 40.0363 8.26288C40.0543 13.6134 40.0599 18.9573 40.0532 24.2946Z" fill="#4A4700"/>
<path id="Vector_7" d="M8.74538 0.484705V28.801C8.74538 29.349 8.72177 29.9037 8.76562 30.4517C8.93091 32.459 9.70003 33.2018 11.751 33.215C15.6877 33.2447 19.621 33.2711 23.5576 33.215C24.8766 33.1952 25.3387 33.5979 25.3117 34.9086C25.2881 36.1169 25.052 36.6947 23.6251 36.6749C18.5651 36.6055 13.5051 36.6749 8.44516 36.6485C6.39081 36.6485 5.71614 35.9882 5.72289 33.9611C5.7465 26.0872 5.8106 18.2166 5.83084 10.346C5.83084 7.83036 5.74313 5.31468 5.73301 2.799C5.72964 0.105041 5.88144 0.0126016 8.74538 0.484705Z" fill="#4A4700"/>
<path id="Vector_8" d="M65.2889 9.02246H68.4396C68.4396 13.037 68.4396 16.9789 68.4396 20.9076C68.4396 25.6352 68.3958 30.3628 68.4092 35.1037C68.4092 37.3222 69.3538 38.2532 71.6881 38.3094C74.2316 38.3688 76.7751 38.3094 79.2882 38.3094C79.3932 38.4918 79.4758 38.6857 79.5344 38.8871C79.7605 41.8947 79.7571 41.898 76.684 41.9079C74.66 41.9079 72.636 41.9508 70.612 41.9079C67.6098 41.8221 65.3294 39.7257 65.3058 36.7874C65.2518 27.5995 65.2889 18.4216 65.2889 9.02246Z" fill="#4A4700"/>
<path id="Vector_9" d="M10.6041 15.3216C10.6041 10.8184 10.6446 6.31198 10.5771 1.80885C10.5737 0.656652 10.9043 0.270386 12.0917 0.260481C13.2791 0.250577 13.802 0.560911 13.7952 1.82535C13.7581 9.62331 13.7952 17.4246 13.7952 25.2225C13.7952 27.4939 14.2203 27.9231 16.5141 27.9363C18.9868 27.9363 21.456 27.9924 23.9354 27.9363C25.3016 27.8967 25.3219 28.6824 25.3016 29.6365C25.2814 30.5312 25.4231 31.4061 23.9962 31.3863C20.2383 31.3301 16.477 31.3632 12.7158 31.3665C11.0797 31.3665 10.6007 30.3958 10.6007 29.0059C10.6007 24.4456 10.6007 19.8874 10.6007 15.3315L10.6041 15.3216Z" fill="#4A4700"/>
<path id="Vector_10" d="M35.0303 26.7112C35.0303 31.221 34.9965 35.7307 35.0539 40.2471C35.0539 41.4884 34.7604 42.0034 33.3672 41.9935C31.974 41.9836 31.8897 41.287 31.8931 40.2306C31.9156 32.5272 31.9156 24.8305 31.8931 17.1404C31.8931 14.5257 31.6064 14.2616 28.8571 14.255C26.5531 14.255 24.2458 14.189 21.9485 14.2748C20.5992 14.3243 20.3462 13.7169 20.3901 12.5845C20.4272 11.5643 20.3901 10.7885 21.8676 10.8281C25.5175 10.9206 29.1708 10.8875 32.8208 10.8446C34.4096 10.8248 35.0539 11.5049 35.0438 13.0302C35.0134 17.5861 35.0303 22.1487 35.0303 26.7112Z" fill="#4A4700"/>
<path id="Vector_11" d="M18.7844 11.2838C18.7844 14.4664 18.8316 17.6522 18.7641 20.8348C18.7338 22.1356 19.3072 22.644 20.5385 22.6473C21.6584 22.6473 22.7851 22.7199 23.9118 22.6473C25.1566 22.5614 25.5985 23.0137 25.5715 24.2452C25.531 25.3611 25.4737 26.1699 23.9692 26.094C22.0093 25.9982 20.0426 26.094 18.0793 26.0742C15.9137 26.0742 15.3807 25.5657 15.3807 23.4627C15.4077 18.3389 15.4819 13.2283 15.5021 8.09793C15.5021 6.07416 15.4617 4.05039 15.3706 2.02992C15.3065 0.593804 15.9272 0.204236 17.3507 0.23725C18.7743 0.270265 18.7877 1.0494 18.7776 2.05633C18.754 5.12995 18.7776 8.20358 18.7776 11.2805L18.7844 11.2838Z" fill="#4A4700"/>
<path id="Vector_12" d="M213.158 25.391C213.158 30.3431 213.138 35.2755 213.158 40.221C213.158 41.3072 213.003 41.9509 211.623 41.9575C210.244 41.9641 209.906 41.4359 209.91 40.2012C209.941 30.2595 209.941 20.3178 209.91 10.3761C209.91 9.05558 210.49 8.85089 211.64 8.84099C212.791 8.83108 213.189 9.26357 213.175 10.396C213.135 15.3943 213.158 20.3927 213.158 25.391Z" fill="#4A4700"/>
<path id="Vector_13" d="M30.2705 29.3163C30.2705 32.9479 30.2368 36.5794 30.2908 40.1912C30.311 41.3962 30.0749 41.9905 28.6345 41.974C27.1941 41.9574 27.1064 41.3137 27.1131 40.2374C27.1333 34.242 27.1333 28.2632 27.1333 22.2744C27.1333 19.8313 26.796 19.5342 24.3132 19.5276H22.4512C20.4542 19.5276 19.874 18.8046 20.4272 16.8865C20.5031 16.7032 20.623 16.5405 20.7769 16.4123C20.9308 16.2842 21.114 16.1943 21.311 16.1502C23.7803 16.0941 26.2529 16.071 28.7323 16.1502C30.0445 16.1899 30.2874 17.1407 30.2806 18.2599C30.2604 21.9541 30.2705 25.6352 30.2705 29.3163Z" fill="#4A4700"/>
<path id="Vector_14" d="M137.276 41.8647C136.918 41.9076 136.648 41.9638 136.375 41.9737C134.115 42.0562 134.115 42.0529 134.115 39.8905C134.115 34.4464 134.115 28.9958 134.115 23.555C134.115 19.2632 137.741 16.5692 141.907 17.8535C142.315 17.9789 142.582 19.0717 142.582 19.7155C142.554 20.0001 142.461 20.2749 142.309 20.5195C142.158 20.7641 141.953 20.9722 141.708 21.1285C141.222 21.3794 140.5 21.1714 139.886 21.2176C138.365 21.3332 137.525 22.1123 137.508 23.6442C137.508 26.5461 137.529 29.4481 137.491 32.35C137.471 33.938 137.313 35.5227 137.269 37.114C137.242 38.6425 137.276 40.1843 137.276 41.8647Z" fill="#4A4700"/>
<path id="Vector_15" d="M81.4438 17.8107C84.5607 17.6886 84.5641 17.6886 84.5641 20.4519C84.5641 27.0547 84.5438 33.641 84.5843 40.2373C84.5843 41.3598 84.4156 41.954 83.0494 41.9474C81.6833 41.9408 81.3189 41.5281 81.3257 40.2307C81.3695 33.0501 81.3257 25.8695 81.3257 18.6889C81.3463 18.3941 81.3858 18.1008 81.4438 17.8107Z" fill="#4A4700"/>
<path id="Vector_16" d="M81.1503 9.0127H84.7496C84.5371 10.2705 84.4966 11.4491 84.0581 12.4627C83.94 12.7367 82.0678 12.7532 81.9363 12.4627C81.464 11.4623 81.3965 10.2738 81.1503 9.0127Z" fill="#4A4700"/>
</g>
<defs>
<clipPath id="clip0_248_1442">
<rect width="212.357" height="50" fill="white" transform="translate(0.821465 0.237305)"/>
</clipPath>
</defs>
</svg>
