<svg width="100" height="73" viewBox="0 0 100 73" fill="none" xmlns="http://www.w3.org/2000/svg">
<g id="Fotos" clip-path="url(#clip0_27_1646)">
<path id="Vector" d="M3.21099 14.3776C4.52032 11.9071 5.82185 9.42869 7.27147 6.68534L5.01131 5.54747L5.12822 4.83825H8.19891C7.54424 3.74714 7.12339 3.0613 6.68694 2.3287C6.99649 2.1556 7.32292 2.01458 7.66115 1.90785C10.085 1.34671 12.5166 0.349121 14.9326 0.349121C19.0731 0.419031 23.2013 0.820387 27.2777 1.54934C29.7561 1.97019 29.3742 3.69259 28.0571 5.25131C27.2231 4.37842 26.4126 2.78073 25.5553 2.74956C20.4037 2.59368 15.2288 2.74956 10.0694 2.95219C9.49265 2.95219 8.96268 4.11344 8.05862 5.13441H28.1428L24.5733 6.74769H79.1832C79.2846 4.98633 79.3859 3.35746 79.5262 1.05055L91.9648 1.63507C92.2298 3.677 92.4324 5.31366 92.6818 7.26207C97.5918 7.67513 98.6595 11.0498 98.753 15.4064C99.0804 30.8456 99.5324 46.2847 99.961 61.7317C99.961 63.1579 100.078 64.592 100.016 66.0104C99.8208 70.5151 98.3945 72.144 93.8742 72.2453C82.4566 72.596 71.0311 72.9545 59.5823 72.9389C41.6569 72.9389 23.7316 72.6584 5.80626 72.3077C0.709233 72.2453 -0.226002 71.0996 0.0389814 65.8156C0.779376 51.3116 1.69902 36.8077 2.5875 22.296C2.75116 19.6072 3.08629 16.9184 3.36686 14.2374V23.995L4.82427 23.9248V14.3776H5.6348V23.4416C16.4524 23.4416 26.8101 23.4884 37.16 23.3715C38.3135 23.3715 39.4981 22.483 40.5736 21.8128C45.546 18.5239 50.9859 17.0119 56.8389 18.1264C60.2759 18.7732 63.557 20.2073 66.9706 21.2984V9.18709C66.4337 9.0747 65.8893 9.00176 65.3418 8.96887C47.0423 9.23385 28.7455 9.49364 10.4513 9.74823C7.10001 9.84176 4.5437 11.1589 3.21099 14.3776ZM94.1548 26.3331L93.1105 26.2941L92.5727 33.1213H91.6998V26.1304L90.8113 25.9668L89.2526 28.2035C89.0188 27.5021 88.7928 26.8474 88.5746 26.2006L87.5692 26.2863V39.2549H86.3456V26.5591H85.5662C85.0934 28.892 84.6206 31.2301 84.1478 33.5733L83.7815 33.5032V26.146L82.7995 25.9824C82.402 27.4476 82.0201 28.9128 81.5213 30.6585C81.2174 29.0063 80.9602 27.6424 80.742 26.2707L80.0172 26.3487C79.8223 28.071 79.6197 29.7856 79.4249 31.508H78.9884L78.3026 26.372H71.0935C76.9854 38.608 75.3566 49.449 66.581 56.8919C59.1614 63.1969 47.5411 64.0308 39.9112 57.9206C36.6045 55.0722 34.0418 51.4609 32.4449 47.3992C29.3274 39.7927 31.533 32.4822 36.1391 25.7563L35.3597 24.977L29.7795 27.0267C29.7795 27.0267 29.4677 26.4188 29.1326 25.7953L28.4467 25.9668C28.2909 28.336 28.1324 30.7105 27.9713 33.0901L27.192 33.0356V25.733L23.7082 26.6682C23.5523 28.2815 23.4121 29.7856 23.2718 31.2898H22.8431L22.3989 26.224H21.4714C21.2922 28.9517 21.1129 31.6795 20.9259 34.3995H20.2634V26.1304L16.0938 26.3175C15.8367 27.432 15.6418 28.3049 15.3768 29.4349L14.465 26.5045C14.2156 27.9697 14.0519 28.9361 13.7636 30.6196C13.3115 28.6712 13.031 27.5021 12.7582 26.3019L12.0723 26.4344L11.4644 32.3419C11.0124 29.622 10.7552 28.0477 10.4902 26.4656L9.7966 26.6214C9.40172 30.9547 9.00944 35.2879 8.61976 39.6212L7.8404 39.5666V27.2683L3.16423 26.8319V64.2568L4.39562 64.3348C4.57227 61.0095 4.74893 57.679 4.92558 54.3433H5.48673V63.2826H6.03228C6.18815 61.8798 6.34662 60.4769 6.50769 59.0741H6.91296L7.52086 63.5788L8.49506 63.4775V53.2133H9.48485V63.345H10.2175C10.3889 61.9577 10.5682 60.5783 10.7162 59.3858C10.9267 60.8043 11.1683 62.3864 11.4021 63.9685H12.1814L12.9608 60.851L13.9428 63.9685L14.6598 63.9217L15.1274 55.9099H15.447L16.0315 63.8516L16.9589 63.8048L17.6837 49.7763L18.4631 49.823V64.0542L19.8348 64.2023L20.6999 52.7768C21.3623 56.0268 21.3 59.2533 21.4169 62.4799C21.4169 63.0332 22.1963 63.5632 22.5704 64.101C23.0146 63.6022 23.7706 63.1501 23.8563 62.589C24.1135 60.9368 24.1057 59.2377 24.207 57.5543H24.8773C25.0175 59.682 25.15 61.8174 25.2825 63.875L28.9299 62.6981V55.1149H29.6158V64.101L36.9496 62.9787C37.471 63.2172 38.0302 63.3623 38.6018 63.4073C47.393 63.6801 56.1843 63.9763 64.9677 64.0542C66.1835 64.0542 67.3993 62.9241 68.5683 62.3396C68.5683 62.4175 68.9502 63.2826 69.3477 64.1477L69.9868 63.9061C70.1816 62.6669 70.3764 61.4278 70.7194 59.23L71.413 64.0152L75.4345 63.8282C75.6683 61.7785 75.8787 59.9859 76.1281 57.8505C76.3775 60.1028 76.588 62.0201 76.7984 63.9295H77.4609C77.7804 62.8696 78.0999 61.8174 78.4195 60.8121C78.7312 61.9291 79.043 63.0358 79.3547 64.1321L80.251 64.0074C80.4614 62.5033 80.6718 60.9991 80.7576 60.36C80.8901 61.0225 81.1862 62.5345 81.4824 64.0386L82.3319 63.9373C82.5735 62.5189 82.8151 61.0926 83.1112 59.4092C83.4152 61.1394 83.6646 62.5812 83.8906 64.023H84.5608C84.8648 62.8306 85.1609 61.6304 85.4727 60.4146L86.369 63.8827L87.047 63.8126C87.2419 61.6148 87.4289 59.417 87.6237 57.2192L87.9744 57.2582C88.1199 59.4092 88.2654 61.5602 88.4109 63.7113H89.3461C89.5644 61.2251 89.7748 58.7312 89.993 56.2372H90.219C90.3671 58.8013 90.5152 61.3576 90.6633 64.0308L93.96 62.893L96.3916 64.0854V26.7773H95.1602V42.6451H94.1548V26.3331ZM32.7332 41.141C32.8112 51.8494 41.579 59.4793 53.6903 59.3469C64.6014 59.2299 73.377 49.7919 73.2211 38.3742C73.073 27.6658 64.4533 20.4489 51.9991 20.5346C41.1036 20.6125 32.6787 29.6531 32.7332 41.141ZM97.1553 66.1974H2.81351C2.64205 70.0085 5.36203 69.7981 7.58321 69.8215C29.2651 70.0553 50.9469 70.2735 72.621 70.3515C79.76 70.3515 86.8911 69.993 94.0301 69.7903C96.2201 69.7124 98.0126 69.2759 97.1709 66.1974H97.1553ZM68.9268 9.63133V22.8805H95.7213C95.9473 20.0592 96.0954 17.877 96.3058 15.6948C96.6643 11.9538 95.3784 9.89631 91.5673 9.75603C83.9919 9.43649 76.3775 9.63133 68.9268 9.63133ZM87.7952 2.37546L80.5004 2.00916C80.399 3.94978 80.3211 5.3838 80.2432 6.93473H87.2574L87.7952 2.37546Z" fill="#4A4700"/>
<path id="Vector_2" d="M9.63292 12.6162C13.1556 12.6162 16.7563 12.6162 20.3569 12.6162C23.0613 12.6162 23.264 14.588 23.0535 16.3572C22.8119 18.3835 24.0589 21.3762 20.4349 21.8127C19.4139 21.9452 18.3696 21.8984 17.3174 21.9452C8.85356 22.2725 8.30021 21.649 9.63292 12.6162ZM10.6695 13.6995C9.53939 20.7528 9.84335 21.158 16.5381 21.0567C18.2838 21.0567 20.0296 20.6514 22.3677 20.3631C21.791 17.8535 21.3156 15.8038 20.809 13.7463L20.1387 14.0191C19.9595 15.9207 19.788 17.8146 19.5776 20.0981C16.7719 19.046 13.5453 21.7581 12.1113 18.0484C10.9656 15.0868 13.5531 14.5802 16.7173 13.6995H10.6695Z" fill="#4A4700"/>
<path id="Vector_3" d="M44.1743 52.6988C35.9987 48.8877 34.1828 36.9791 40.6048 29.427C45.8109 23.2857 54.6333 21.5087 61.3358 25.2419C68.0383 28.975 70.3219 36.0126 67.711 44.383C66.8693 42.5749 59.5667 41.8579 55.4828 43.214C53.3318 43.9154 50.4949 51.6233 51.2041 55.7539L46.6838 54.0471C50.9235 51.9818 51.0716 47.6329 52.5056 44.3752L40.5268 33.6044C36.63 40.5953 37.4795 44.8272 44.1743 52.6988ZM53.776 38.0078L54.7424 38.4598C56.5895 35.8957 58.4522 33.3472 60.2759 30.7442C61.406 29.1231 61.1799 27.5877 59.1302 27.237C57.478 26.9487 54.9996 24.1819 54.2826 27.6501C53.7604 27.2292 53.0434 26.1771 52.2718 26.1303C48.7101 25.9199 45.4602 26.746 43.0052 30.0817L52.2173 38.8729L53.4409 31.8586L53.7604 31.8976L53.776 38.0078Z" fill="#4A4700"/>
<path id="Vector_4" d="M73.5562 11.3461C78.0765 11.3461 82.4488 11.2292 86.8054 11.4553C87.5848 11.502 88.6837 12.8425 88.9876 13.7933C89.3773 14.9624 88.9876 16.3574 89.1123 17.6434C89.3695 20.7063 88.0368 21.8909 85.0051 21.5402C83.1902 21.4 81.369 21.3584 79.5495 21.4155C73.2601 21.3921 73.2601 21.3921 73.2991 15.0247C73.3069 14.0194 73.4393 13.014 73.5562 11.3461Z" fill="#4A4700"/>
</g>
<defs>
<clipPath id="clip0_27_1646">
<rect width="100" height="72.621" fill="white" transform="translate(0 0.349121)"/>
</clipPath>
</defs>
</svg>
