<svg width="65" height="119" viewBox="0 0 65 119" fill="none" xmlns="http://www.w3.org/2000/svg">
<g id="Modo_de_aislamiento" clip-path="url(#clip0_61_2581)">
<path id="Vector" d="M13.1802 43.9575C12.8282 43.6562 12.5951 43.6483 12.2669 43.9289C11.7738 44.3522 11.0921 44.5996 10.5578 44.5029L12.0497 43.5896C10.9399 43.6324 9.86967 43.8782 8.96436 43.0601L11.4456 43.3106L11.4948 43.16C11.1999 42.9649 10.8986 42.781 10.6101 42.5765C9.40988 41.7203 8.27626 40.7786 7.43912 39.5641C6.60199 38.3496 5.94243 36.9877 5.81242 35.4513C5.64829 33.7158 5.80141 31.9649 6.26428 30.2843C6.48963 29.5473 6.94046 28.8996 7.55328 28.4324C7.97343 28.0963 8.50457 28.1423 8.9929 28.2739C9.4289 28.388 9.84113 28.591 10.2613 28.7305C10.9066 28.9445 11.5566 29.1443 12.2051 29.3457C13.0993 29.6231 14.003 29.872 14.8861 30.178C16.1545 30.6172 17.3928 30.4856 18.6057 30.0036C19.15 29.7773 19.6035 29.3763 19.8947 28.8637C20.2926 28.212 20.7524 27.5953 21.1361 26.9389C21.6117 26.1192 22.0303 25.263 22.4964 24.437C22.7041 24.0692 22.9721 23.7378 23.2099 23.3858C23.6285 22.7627 24.0407 22.1333 24.4656 21.5134C25.0063 20.7206 25.5564 19.9422 26.1034 19.1558L26.2334 19.2334C26.0241 19.5997 25.826 19.9739 25.5992 20.3433C24.7526 21.7242 23.8806 23.0925 23.0514 24.4846C22.3205 25.7117 21.672 26.988 20.9141 28.1962C20.513 28.8304 19.9771 29.3964 19.465 29.9577C19.3065 30.1336 19.0258 30.1986 18.7975 30.3144C19.0766 30.7139 19.3572 31.0818 19.6029 31.4718C20.0735 32.2293 20.4253 33.0543 20.6462 33.9182C20.9411 35.0391 21.0172 36.1791 21.0552 37.3301C21.0552 37.5442 21.2027 37.7535 21.3153 38.0499C21.7909 37.5473 22.3506 37.3222 22.3157 36.5517C22.2776 35.7272 22.4552 34.8948 22.5091 34.0656C22.5884 32.8575 22.6677 31.6478 22.6851 30.4381C22.6851 30.0227 22.8246 29.8625 23.1988 29.834C23.37 29.8197 23.5413 29.8118 23.7474 29.7991C23.722 29.13 24.1549 28.8478 24.7256 28.6988C24.3213 27.9663 24.5782 27.2275 24.6812 26.4918C24.7193 26.2143 24.7875 25.94 24.8398 25.6657C24.9682 25.0553 24.5782 24.5908 24.3641 24.0803L24.472 24.001C24.6506 24.2118 24.8098 24.4384 24.9476 24.678C25.3313 25.5088 25.1061 26.3586 25.0031 27.2148C24.9787 27.6261 24.9787 28.0385 25.0031 28.4499C26.0733 28.5799 27.0167 28.675 27.9553 28.8161C28.247 28.8605 28.4071 28.8415 28.5895 28.5688C28.9161 28.0614 29.2347 27.5017 29.6993 27.1418C30.2447 26.7122 30.2621 26.1541 30.3525 25.6023C30.4191 25.1949 30.3652 24.7684 30.3763 24.3514C30.3818 24.225 30.4182 24.102 30.4825 23.9931C30.8139 24.613 30.7996 25.2615 30.695 25.9226C30.6553 26.1731 30.5364 26.4173 30.5364 26.6662C30.5237 27.3321 30.1543 27.776 29.7231 28.2263C29.472 28.5265 29.2491 28.8492 29.0572 29.1903C29.5724 29.7151 30.0576 30.0861 30.3588 30.5712C30.5174 30.8297 30.3953 31.2926 30.343 31.6541C30.297 31.9712 30.1179 32.2772 30.102 32.5927C30.102 32.7307 30.3224 32.9558 30.4889 33.016C31.6723 33.4646 32.8006 34.0471 33.8517 34.7521C34.9722 35.4718 35.9745 36.3607 36.8229 37.3872C37.2398 37.8946 37.5236 38.5113 37.8613 39.0837C38.1214 39.5276 38.375 39.9779 38.6255 40.4282C38.8317 40.7976 39.0346 41.1702 39.2264 41.5475C39.7021 42.4893 40.192 43.4295 40.6534 44.3808C41.064 45.2306 41.4382 46.0979 41.8393 46.954C42.1881 47.7002 42.5433 48.4433 42.9048 49.1832C43.2948 49.9759 43.6753 50.7861 44.0955 51.5614C44.4855 52.2876 44.9833 52.9614 45.3242 53.7082C45.8094 54.7689 46.4134 55.8153 46.0868 57.0837C45.9378 57.6655 46.3738 58.0445 46.7829 58.3425C47.6384 58.9569 48.699 59.2155 49.7414 59.0639C50.6988 58.9365 51.6488 58.7582 52.5873 58.5296C53.0414 58.3987 53.4824 58.2262 53.9048 58.0143C54.7071 57.6592 55.4412 57.9287 55.7836 58.7421C55.9136 59.0497 55.9945 59.3763 56.0865 59.6601C56.8237 59.6046 57.5816 59.4587 58.3267 59.511C59.5682 59.5998 60.8302 59.6775 61.9924 60.1928C63.0103 60.6446 64.0075 61.1441 64.7416 62.0256C64.8568 62.1646 64.9406 62.3269 64.9874 62.5013C65.0143 62.6106 64.9747 62.8183 64.8986 62.858C64.7342 62.947 64.5471 62.9851 64.3611 62.9674C63.9298 62.904 63.5081 62.7819 63.08 62.6994C62.8921 62.6855 62.7035 62.6855 62.5156 62.6994C63.784 64.7035 64.6084 66.771 64.8938 69.0192C65.1792 71.2674 64.8938 73.495 64.8938 75.7527C64.0725 75.6607 64.1138 75.0329 63.9076 74.6207C63.2734 73.3523 62.7058 72.0585 62.0526 70.8044C61.5648 69.8273 61.0052 68.8877 60.3784 67.9934C59.7442 67.1261 59.1972 66.1732 58.3172 65.5121C58.1412 65.3789 57.9066 65.3171 57.7449 65.1696C57.626 65.0618 57.5863 64.87 57.5102 64.7162C57.6561 64.6654 57.8099 64.5576 57.9478 64.5735C58.7406 64.6702 59.2352 65.2394 59.6918 65.8181C60.207 66.4732 60.686 67.156 61.1267 67.8633C61.6024 68.6276 61.994 69.4361 62.4284 70.2241C62.8232 70.9392 63.237 71.6511 63.6175 72.3693C63.8315 72.7783 63.9964 73.2159 64.2041 73.69C64.258 73.5869 64.3119 73.5314 64.3135 73.4728C64.3912 71.5211 64.5656 69.5677 64.082 67.6366C63.7667 66.3432 63.2922 65.0938 62.6694 63.9171C62.4664 63.5382 62.1937 63.1941 61.986 62.8199C61.8275 62.5361 61.9337 62.3443 62.2302 62.2095C62.6504 62.0177 63.0626 62.0732 63.4843 62.1699C63.5985 62.1952 63.7142 62.2127 63.8981 62.2476C62.7027 60.8523 57.7909 59.6188 56.3068 60.624C56.3512 61.2091 56.4226 61.7529 56.4289 62.2967C56.4416 63.2591 56.4178 64.2199 56.4083 65.1823C56.3925 66.7329 56.3607 68.2851 56.3639 69.8357C56.3639 71.2721 56.4495 72.7102 56.4194 74.1466C56.3972 75.2707 56.3655 76.417 56.134 77.511C55.9533 78.3687 55.6711 79.255 55.0606 79.959C54.761 80.3078 54.5374 80.7295 54.2108 81.0466C53.6765 81.5651 53.8541 82.1834 53.9318 82.7574C54.0428 83.5834 54.3028 84.3888 54.4312 85.2133C54.5481 85.8403 54.5854 86.4795 54.5422 87.1159C54.4565 87.9133 54.2902 88.7 54.0459 89.464C53.819 90.1812 53.516 90.8722 53.1422 91.5251C52.7522 92.2037 52.2226 92.7935 51.7914 93.4562C51.3031 94.1982 50.7767 94.9323 50.4199 95.7377C50.2313 96.1658 50.3438 96.7397 50.3708 97.2439C50.3946 97.7021 50.5547 98.1587 50.5293 98.6106C50.5098 99.1051 50.4114 99.5932 50.2376 100.057C49.9205 100.86 49.5574 101.642 49.1722 102.411C48.9124 102.902 48.6261 103.378 48.3144 103.838C47.9323 104.426 47.9973 105.087 47.9973 105.731C48.0096 105.963 47.9704 106.196 47.8827 106.411C47.7951 106.627 47.661 106.821 47.49 106.979C46.9477 107.456 46.4446 107.976 45.9854 108.534C45.8166 108.73 45.6968 108.963 45.6359 109.215C45.575 109.466 45.5747 109.729 45.635 109.98C45.8062 110.63 45.9521 111.298 45.7602 111.962C45.615 112.422 45.4282 112.868 45.2021 113.294C45.066 113.543 44.8981 113.774 44.7027 113.98C44.1432 114.608 43.4413 115.093 42.6558 115.395C41.8473 115.712 41.4731 116.398 41.0704 117.08C40.9879 117.223 40.9213 117.375 40.8199 117.578C40.5329 117.102 40.6233 116.672 40.7406 116.271C40.9467 115.563 41.4192 115.068 42.0597 114.695C43.0348 114.126 43.8814 113.438 44.4569 112.406C44.8089 111.772 44.8121 111.182 44.7423 110.525C44.6922 110.097 44.6784 109.664 44.7011 109.233C44.7487 108.485 45.2766 107.992 45.7269 107.47C46.0155 107.134 46.3881 106.866 46.6497 106.519C46.8542 106.246 47.0778 105.885 47.0651 105.568C47.0159 104.341 47.5042 103.327 48.1939 102.382C48.6347 101.778 49.0152 101.162 49.1452 100.407C49.2372 99.8742 49.448 99.3574 49.494 98.8215C49.5305 98.4124 49.3973 97.9891 49.3355 97.5721C49.2007 96.7001 49.1436 95.8281 49.6082 95.0353C50.0727 94.2426 50.5389 93.48 51.0351 92.7221C51.3744 92.2052 51.7898 91.7375 52.1228 91.2175C52.8521 90.0791 53.6004 88.9312 53.6765 87.5265C53.7109 86.8647 53.6833 86.2012 53.5941 85.5446C53.453 84.4855 53.2405 83.4344 53.0582 82.3864C52.5271 82.518 52.3305 82.862 52.397 83.4407C52.516 84.4649 52.5746 85.5018 52.6666 86.5229C52.7347 87.2934 52.8251 88.0608 52.8822 88.8313C52.8949 88.9804 52.8188 89.1373 52.7617 89.3863C52.5871 89.154 52.4008 88.9307 52.2036 88.7172C51.735 88.2825 51.1437 88.0029 50.5103 87.9165C48.8234 87.6406 48.2986 86.6814 47.9894 85.1895C47.7492 83.9982 47.684 82.7783 47.796 81.5682C47.899 80.3775 47.9783 79.19 48.0639 77.9962C48.1067 77.3968 48.1226 76.796 48.1765 76.1982C48.2986 74.8204 48.3953 73.4395 48.576 72.076C48.7758 70.5682 48.9994 69.0636 49.3196 67.5732C49.6145 66.2192 49.5765 64.87 49.5035 63.5112C49.4829 63.118 49.345 62.7311 49.2657 62.3379C49.2562 62.2404 49.2562 62.1422 49.2657 62.0446L49.4243 62.0177C49.5717 62.5345 49.7826 63.0419 49.8523 63.5683C50.0645 65.2759 50.0013 67.0065 49.6653 68.6941C49.4005 70.1211 49.2261 71.575 49.0644 73.0209C48.9248 74.2814 48.8456 75.5498 48.7615 76.815C48.6363 78.7176 48.5031 80.6201 48.4238 82.5227C48.3826 83.4994 48.4127 84.4855 48.8028 85.4717C49.0612 84.7059 49.5955 84.2033 50.0902 83.6532C50.7481 82.9016 51.6075 82.4228 52.3273 81.7696C52.9547 81.1935 53.5284 80.5615 54.0412 79.8813C54.8783 78.7873 55.4332 77.5744 55.4142 76.1411C55.3904 74.2481 55.4142 72.3534 55.4142 70.4588C55.4142 68.274 55.4459 66.0892 55.4221 63.9044C55.4095 62.7644 55.3318 61.6229 55.2335 60.4877C55.1776 60.0385 55.0591 59.5992 54.8815 59.1828C54.833 59.1042 54.7651 59.0395 54.6843 58.9947C54.6034 58.95 54.5125 58.9269 54.4201 58.9276C53.7035 59.1305 53.009 59.4032 52.2956 59.6204C51.8778 59.7469 51.4496 59.8361 51.0161 59.8868C50.3645 59.9597 49.6986 60.0739 49.0564 60.0089C47.907 59.89 46.8368 59.5332 46.0789 58.5534C46.0484 58.5105 46.0121 58.4721 45.9711 58.4392C45.9045 58.4056 45.8349 58.378 45.7634 58.3568C45.57 59.0084 45.3908 59.6585 45.1847 60.299C44.9643 60.9855 44.6884 61.6562 44.4855 62.3475C44.1335 63.5445 43.6214 64.7035 43.9211 66.0226C44.2667 67.551 44.5109 69.1016 44.8137 70.6395C44.8914 71.0343 45.0182 71.4164 45.1229 71.8049L44.9326 71.8905C44.7499 71.593 44.5873 71.2837 44.4459 70.9646C43.8893 69.4663 43.6943 67.8951 43.5326 66.3175C43.4977 66.1673 43.4445 66.0219 43.3741 65.8847C42.8207 67.6144 42.6178 69.3965 42.4719 71.1833C42.3213 73.0146 42.2357 74.8521 42.1104 76.685C42.0771 77.1717 41.9725 77.6537 41.9519 78.1389C41.9202 78.911 41.9265 79.6847 41.9313 80.4568C41.9408 82.5513 41.9313 84.6472 41.9852 86.7401C42.0201 88.0085 42.1311 89.2769 42.2801 90.5278C42.438 92.0261 42.7618 93.5023 43.2456 94.9291C43.4629 95.5411 43.6595 96.1579 43.8561 96.7762C43.8802 96.8915 43.8935 97.0088 43.8957 97.1266C43.3772 97.0552 43.1933 96.6398 43.0364 96.3243C42.7268 95.6762 42.4707 95.0038 42.2706 94.3139C41.6221 92.1957 41.4414 90.0125 41.4001 87.8135C41.3827 86.8368 41.3225 85.8617 41.3066 84.8851C41.2749 82.9825 41.2146 81.0942 41.2495 79.1995C41.2876 77.2082 41.3954 75.2152 41.5238 73.2255C41.6205 71.7208 41.7505 70.213 41.9503 68.7195C42.1774 66.9522 42.598 65.2152 43.2044 63.5397C43.4248 62.9404 43.5612 62.3126 43.7435 61.7006C44.1621 60.3101 44.5949 58.926 45.0024 57.5323C45.3369 56.3813 45.1451 55.3127 44.5378 54.2694C43.9036 53.1739 43.3566 52.0244 42.7938 50.8908C42.3467 49.9981 41.9186 49.0944 41.4921 48.1954C40.9752 47.0983 40.4853 45.9885 39.9558 44.8961C39.5134 43.986 39.0251 43.0997 38.5685 42.2007C38.0437 41.1622 37.5997 40.0762 36.9988 39.0837C36.157 37.6948 35.1074 36.4661 33.6899 35.6083C32.9876 35.1834 32.2741 34.7759 31.5654 34.3605L31.4576 34.4572C31.7382 34.944 32.003 35.4387 32.3011 35.9127C32.6615 36.4835 33.0373 37.0437 33.4283 37.5933C33.8596 38.2037 34.3241 38.7904 34.7617 39.396C35.4625 40.3695 36.2283 41.3065 36.8229 42.3418C37.3809 43.3074 37.7456 44.3855 38.2117 45.4066C38.5891 46.231 38.9902 47.046 39.3818 47.8641C39.6149 48.3397 39.8353 48.8376 40.0874 49.3132C40.3395 49.7889 40.6264 50.228 40.8801 50.6942C41.4556 51.7549 42.0962 52.787 42.3229 53.9999C42.3324 54.0538 42.3229 54.1093 42.2214 54.2139C41.9646 53.77 41.7125 53.3245 41.4509 52.8853C41.0228 52.1702 40.582 51.4584 40.1619 50.7417C39.7623 50.06 39.3913 49.3624 38.9934 48.6806C38.6525 48.0956 38.2641 47.5359 37.9501 46.9366C37.7171 46.4911 37.5966 45.9853 37.3794 45.5318C37.0084 44.7502 36.6088 43.9812 36.2045 43.2155C35.7289 42.3101 34.9932 41.6046 34.3241 40.8452C33.8467 40.2918 33.4106 39.7041 33.0193 39.0869C32.435 38.2345 31.9054 37.3459 31.4338 36.4264C31.085 35.7019 30.9217 34.8885 30.6775 34.1132C30.6537 34.0387 30.6569 33.9309 30.6062 33.8928C30.3747 33.72 30.1305 33.5662 29.8721 33.3934C29.7294 33.8437 29.5867 34.2527 29.4805 34.6713C29.4631 34.7442 29.6137 34.8536 29.6771 34.9519C30.3588 35.9936 30.8091 37.0876 30.8599 38.3797C30.9136 39.845 31.0848 41.3035 31.372 42.7414C31.548 43.6007 32.041 44.3998 32.4216 45.2116C32.7577 45.9282 33.1303 46.6274 33.4933 47.3329C33.7312 47.7943 33.9864 48.2478 34.2211 48.7107C34.8854 49.9763 35.1486 51.4141 34.9758 52.833C34.9266 53.2151 34.8997 53.5988 34.8505 53.9809C34.8237 54.1158 34.7877 54.2488 34.7427 54.3788H34.6206C34.5857 53.8921 34.5429 53.4053 34.5207 52.917C34.4763 51.9197 34.4859 50.913 34.0752 49.9759C33.7502 49.2308 33.395 48.4951 33.0336 47.7658C32.6721 47.0365 32.2916 46.3388 31.9237 45.6317C31.5781 44.9547 31.1706 44.2967 30.9201 43.5865C30.6928 42.8722 30.5335 42.138 30.4445 41.3937C30.3034 40.4202 30.2241 39.4372 30.056 38.4495C30.0402 38.7666 30.0259 39.0837 30.0069 39.3929C29.9672 40.0683 29.8769 40.7437 29.8943 41.4175C29.9276 42.651 30.0211 43.8813 30.0957 45.1133C30.1401 45.8569 30.1733 46.602 30.2542 47.3425C30.3351 48.1606 30.4445 48.9755 30.5713 49.7873C30.8112 51.3727 31.0612 52.9582 31.3212 54.5437C31.5527 55.9485 31.7335 57.3675 32.0759 58.7452C32.393 60.0136 32.8988 61.244 33.311 62.4949C33.4807 63.0118 33.6281 63.5397 33.7946 64.1264C33.6693 64.0756 33.5916 64.0709 33.5758 64.036C32.68 62.0827 31.7763 60.1357 31.4719 57.9699C31.2959 56.719 31.0041 55.4839 30.7917 54.2361C30.5174 52.6332 30.2336 51.0303 30.018 49.4194C29.8356 48.048 29.7786 46.6607 29.6057 45.2877C29.3093 42.9316 29.3774 40.574 29.4884 38.2133C29.5312 37.3333 29.4884 36.4502 29.4884 35.5687L29.314 35.5417C29.2426 35.6788 29.1786 35.8196 29.1222 35.9635C28.8051 36.8925 28.5688 37.866 28.1534 38.7412C27.8696 39.3437 28.2533 39.767 28.312 40.268C28.4214 41.3493 28.5799 42.4148 28.4515 43.5135C28.3421 44.4569 28.3833 45.4161 28.3374 46.3674C28.3072 46.9873 28.2375 47.6072 28.1899 48.2272C28.1883 48.5246 28.1681 48.8217 28.1297 49.1166C27.9584 49.9537 28.2438 50.7623 28.2454 51.5852C28.2454 52.5365 28.2248 53.5021 28.2121 54.4597C28.2042 55.0542 28.2248 55.652 28.1804 56.2449C28.0504 58.0418 27.9051 59.8387 27.7444 61.6356C27.6508 62.6852 27.5446 63.7363 27.4003 64.7812C27.2085 66.1669 26.977 67.5462 26.755 68.9256C26.5125 70.4287 26.2794 71.938 26.0067 73.43C25.772 74.7301 25.4756 76.0206 25.2425 77.3207C25.084 78.1848 24.9809 79.0648 24.8794 79.9305C24.7209 81.2686 24.5623 82.6083 24.4482 83.9496C24.3816 84.6901 24.399 85.4384 24.3578 86.182C24.2833 87.5249 24.2452 88.8773 24.0978 90.2091C23.8059 92.6746 23.7794 95.1643 24.0185 97.6355C24.2024 99.3986 24.4149 101.165 24.7256 102.909C24.9111 103.952 25.3059 104.959 25.6214 105.978C25.8941 106.863 26.1811 107.746 26.4728 108.626C26.8216 109.679 27.18 110.727 27.5319 111.78C27.5414 111.811 27.5423 111.845 27.5345 111.877C27.5267 111.909 27.5105 111.938 27.4875 111.962C27.3005 111.632 27.1311 111.292 26.9802 110.944C26.4316 109.493 25.8703 108.046 25.3804 106.574C24.9254 105.211 24.5132 103.828 24.1644 102.433C23.9075 101.404 23.7632 100.345 23.6079 99.2939C23.512 98.6271 23.4532 97.9554 23.4319 97.282C23.3764 95.79 23.3003 94.2981 23.3288 92.8077C23.3542 91.5663 23.527 90.3296 23.619 89.0898C23.7284 87.5756 23.8172 86.0599 23.9234 84.5458C23.982 83.7229 24.0344 82.8985 24.1311 82.0788C24.3213 80.46 24.5132 78.8396 24.7558 77.2288C25.0142 75.5085 25.3487 73.7994 25.6135 72.0807C25.7277 71.334 25.7388 70.5698 25.8149 69.8167C25.9639 68.3136 26.132 66.8138 26.281 65.3107C26.3777 64.3594 26.4601 63.4161 26.5347 62.4695C26.392 63.2422 26.2482 64.0133 26.1034 64.7828C25.9449 65.5898 25.8117 66.4 25.6278 67.2006C25.4692 67.9315 25.2409 68.6497 25.0776 69.3822C24.8778 70.2764 24.7018 71.1786 24.537 72.0776C24.2347 73.7413 23.9403 75.4065 23.6538 77.0734C23.5571 77.6378 23.4953 78.2086 23.4097 78.7762C23.221 80.0287 22.9784 81.2749 22.8468 82.5322C22.7374 83.5866 22.7549 84.6536 22.7184 85.7143C22.6856 86.7226 22.6539 87.7316 22.6233 88.741L22.4917 88.76C22.4161 88.461 22.3673 88.156 22.3458 87.8483C22.368 85.895 22.1873 83.9354 22.5044 81.9916C22.7041 80.7644 22.9325 79.5436 23.1386 78.318C23.3859 76.8419 23.6412 75.3659 23.8552 73.8787C23.9583 73.1684 23.9408 72.4406 24.0328 71.7288C24.2442 70.083 24.4757 68.4394 24.7272 66.7979C24.973 65.1902 25.2599 63.5889 25.52 61.9828C25.7562 60.5035 25.975 59.0227 26.2033 57.5434C26.319 56.7983 26.4617 56.0547 26.5584 55.3063C26.717 54.1299 26.8549 52.9503 26.9643 51.7691C27.0848 50.4627 27.1689 49.1515 27.2576 47.8419C27.3417 46.6131 27.4352 45.386 27.478 44.1572C27.5161 43.0949 27.478 42.0311 27.478 40.9672L27.3512 40.9466C27.1926 41.2732 27.0452 41.6014 26.8755 41.9217C26.5252 42.5924 26.1462 43.2472 25.818 43.9257C25.4898 44.6043 25.5009 45.2797 25.5929 46.0186C25.6944 46.7844 25.6056 47.5771 25.5628 48.3572C25.539 48.817 25.4375 49.2704 25.3852 49.7302C25.2679 50.7481 25.1521 51.766 25.0538 52.787C24.9825 53.5354 24.9492 54.2869 24.8778 55.0352C24.7721 56.1493 24.6532 57.2633 24.5211 58.3774C24.3927 59.465 24.2579 60.5543 24.093 61.6372C23.8964 62.923 23.6665 64.2025 23.4493 65.4851L23.3304 65.4724C23.6253 62.1287 23.9519 58.7865 24.204 55.4379C24.4545 52.1084 24.6289 48.7789 24.8461 45.3178C24.0042 46.2976 23.0894 45.3971 22.2792 45.5762C22.3807 46.4134 22.5155 47.2315 22.5678 48.0528C22.6423 49.2006 22.6851 50.3517 22.6867 51.5012C22.6867 52.611 22.6249 53.7113 22.5821 54.8148C22.5202 56.3797 22.4505 57.9446 22.3902 59.511C22.3553 60.3799 22.3902 61.2551 22.2919 62.1176C22.1593 63.4288 22.0948 64.7459 22.0985 66.0638C22.0985 67.6049 22.0271 69.146 21.951 70.6855C21.9146 71.4608 21.7703 72.2313 21.7259 73.0082C21.6688 74.0055 21.6704 75.0059 21.6292 76.0048C21.5991 76.7627 21.5245 77.5173 21.4992 78.2752C21.4865 78.6462 21.5769 79.0188 21.5626 79.385C21.5404 79.9463 21.4611 80.506 21.4199 81.0688C21.3676 81.7839 21.32 82.4958 21.2836 83.2171C21.2455 83.9734 21.2265 84.7297 21.1916 85.486C21.1313 86.8289 21.0441 88.1718 21.0045 89.5163C20.9554 91.1858 20.9443 92.8569 20.9125 94.528C20.8872 95.7869 20.8634 97.0457 20.8222 98.3046C20.8063 98.7945 20.7207 99.2812 20.7064 99.7712C20.67 101.03 20.6541 102.289 20.6335 103.548C20.606 105.133 20.5812 106.719 20.559 108.304C20.5495 109.005 20.4512 109.731 20.5891 110.4C20.6827 110.865 20.7635 111.244 20.578 111.703C20.4718 111.97 20.5542 112.317 20.578 112.626C20.578 112.696 20.7001 112.758 20.7635 112.824C20.865 112.932 21.0648 113.072 21.0426 113.142C20.9998 113.287 20.8349 113.397 20.6668 113.498C20.7255 115.31 20.9094 117.145 21.4595 118.922L21.2931 118.998C21.1785 118.902 21.0791 118.788 20.9982 118.662C20.8298 118.332 20.7026 117.983 20.6192 117.622C20.429 116.471 20.2641 115.314 20.1325 114.153C20.0691 113.606 20.1055 113.559 19.5776 113.666C18.7293 113.839 17.9001 114.104 17.0519 114.272C16.5742 114.36 16.0876 114.389 15.6028 114.359C15.2207 114.339 14.7561 113.725 14.7942 113.338C14.8276 113.169 14.9123 113.014 15.0368 112.894C15.2651 112.656 15.5251 112.45 15.7946 112.211C15.4046 111.972 15.0268 111.714 14.6626 111.437C14.1473 111.006 14.141 110.416 14.2947 109.822C14.39 109.526 14.5006 109.236 14.6261 108.953C14.8972 108.228 14.8053 107.488 14.7212 106.746C14.5542 105.298 14.3904 103.85 14.2297 102.403C14.1647 101.829 14.1156 101.25 14.0189 100.681C13.9669 100.481 13.8649 100.298 13.7224 100.149C13.5889 99.9944 13.4963 99.8093 13.4531 99.6101C13.4099 99.4109 13.4174 99.2041 13.4751 99.0085C13.5924 98.4663 13.6574 97.9098 13.7208 97.3581C13.8587 96.1531 13.9697 94.9465 14.1124 93.7416C14.2186 92.8347 14.2345 91.8929 14.5104 91.0368C14.8402 90.0125 14.5881 88.9946 14.7419 87.9847C14.8703 87.1412 14.9511 86.2914 15.0272 85.4479C15.0954 84.7043 15.1129 83.9576 15.1763 83.214C15.2635 82.185 15.384 81.1529 15.4712 80.1302C15.5615 79.068 15.6598 78.0041 15.6979 76.9386C15.7381 75.9963 15.7243 75.0525 15.6567 74.1117C15.5665 73.2839 15.424 72.4625 15.2302 71.6526C15.0875 70.9693 14.9036 70.2939 14.7054 69.6248C14.5674 69.1603 14.3772 68.7132 14.1949 68.2153C13.9015 68.2391 13.5876 68.2629 13.2737 68.2914C12.3034 68.377 11.3347 68.4769 10.3628 68.5451C9.59561 68.5934 8.85517 68.8451 8.2176 69.2744C8.10344 69.3505 7.91001 69.433 7.8133 69.3791C7.75634 69.3333 7.70998 69.2757 7.67741 69.2103C7.64484 69.1449 7.62683 69.0732 7.62462 69.0001C7.56913 68.079 8.01307 67.2973 8.33016 66.4745C8.89301 65.0142 9.40671 63.5366 9.94736 62.07C10.2645 61.2297 10.5815 60.3989 10.8986 59.557C11.1174 58.9529 11.2807 58.3283 11.5154 57.7321C11.7168 57.2232 11.926 56.7333 11.7691 56.1736C11.5804 55.4998 11.4076 54.8212 11.2062 54.1521C11.0366 53.594 10.8558 53.0423 10.645 52.4953C10.3532 51.7453 10.025 51.0113 9.71905 50.2756C9.57794 49.9347 9.46695 49.5827 9.31475 49.2482C8.72072 47.9386 8.12194 46.6337 7.5184 45.3337C6.96824 44.1414 6.39588 42.9554 5.85364 41.7631C5.41605 40.7928 4.97528 39.8273 4.59794 38.8332C4.36084 38.1601 4.17066 37.4714 4.02875 36.772C3.89579 36.1725 3.7968 35.5658 3.73227 34.9551C3.61019 33.7913 3.99229 32.6989 4.2634 31.5907C4.34426 31.2593 4.40293 30.9232 4.48061 30.5903C4.51647 30.4119 4.6016 30.2471 4.72636 30.1146C4.76731 30.1891 4.80026 30.2678 4.82466 30.3493C5.01175 31.2879 4.72954 32.1551 4.38866 33.0034C4.09582 33.7687 4.02171 34.6003 4.17462 35.4054C4.34035 36.4861 4.61117 37.5482 4.98321 38.5763C5.53179 40.0381 6.22306 41.4461 6.86518 42.8714C7.29484 43.8227 7.74988 44.774 8.18271 45.7253C8.87716 47.2648 9.57952 48.8011 10.2438 50.3517C10.5736 51.1191 10.8527 51.9102 11.1174 52.703C11.4662 53.751 11.7802 54.8101 12.1211 55.9072C12.2434 55.6897 12.3494 55.4635 12.4381 55.2302C12.7552 54.1553 13.0723 53.0787 13.3704 51.9958C13.8821 50.1026 14.0618 48.1349 13.9015 46.1803C13.8247 45.5583 13.6948 44.9441 13.5131 44.3443C13.4735 44.1858 13.2911 44.0748 13.1738 43.9416L13.1802 43.9575ZM13.8603 44.1334C13.9967 44.7867 14.1774 45.4018 14.2472 46.036C14.3883 47.4328 14.2694 48.8185 14.0886 50.2169C13.8556 52.0799 13.3133 53.8509 12.7505 55.6203C12.2463 57.2248 11.6327 58.7801 11.0984 60.3672C10.8606 61.068 10.7179 61.7941 10.4753 62.4981C10.09 63.6079 9.66038 64.7051 9.24023 65.8038C9.02778 66.3587 8.78044 66.8994 8.57116 67.4543C8.41261 67.876 8.09551 68.2772 8.30004 68.6989C8.79788 68.5181 9.27353 68.2676 9.77612 68.1836C10.7274 68.0251 11.6787 67.9902 12.63 67.8538C13.6256 67.7292 14.6137 67.5509 15.5901 67.3195C16.6356 67.0517 17.6215 66.5897 18.4963 65.9576C18.8879 65.6754 19.2066 65.2917 19.5506 64.9461C19.6981 64.7986 19.8249 64.629 19.9597 64.4704L20.0421 64.5481C19.595 65.6088 18.8181 66.3793 17.8716 67.0183C16.9251 67.6572 15.8501 67.9284 14.745 68.1281C15.0272 68.8892 15.2952 69.5883 15.5473 70.2939C15.8786 71.223 16.1815 72.1616 16.2259 73.1604C16.2592 73.8057 16.3083 74.4526 16.3368 75.0979C16.3812 76.0872 16.451 77.0766 16.4431 78.0643C16.4431 78.8111 16.3194 79.5547 16.2703 80.3014C16.2164 81.137 16.1973 81.9757 16.1387 82.8113C16.0895 83.5184 15.9928 84.2208 15.9405 84.9279C15.9119 85.3005 15.9405 85.6762 15.9405 86.0504C16.0837 85.7935 16.2 85.5226 16.2877 85.2418C16.7158 84.0543 17.1787 82.8763 17.5688 81.6761C17.9715 80.4346 18.3441 79.1805 18.6548 77.9137C18.9973 76.5185 19.243 75.0979 19.557 73.6947C19.6188 73.4189 19.557 73.0606 19.9502 72.8449C19.9592 72.9891 19.9592 73.1336 19.9502 73.2778C19.8408 74.042 19.7409 74.8078 19.6045 75.5672C19.4143 76.6073 19.251 77.6569 18.9703 78.6748C18.5866 80.0795 18.1205 81.462 17.6655 82.8461C17.2881 83.9909 16.8727 85.1277 16.4811 86.266C16.164 87.1872 15.7772 88.0909 15.5108 89.0264C15.2792 89.8587 15.107 90.7064 14.9955 91.5631C14.8069 92.9504 14.6784 94.3472 14.5199 95.7409C14.4723 96.1658 14.4121 96.5907 14.3851 97.0093C14.3247 97.6596 14.3046 98.313 14.3249 98.9657C14.3534 99.4224 14.5881 99.8615 14.642 100.318C14.791 101.403 14.883 102.493 15.0146 103.579C15.1176 104.426 15.2429 105.271 15.3634 106.116C15.4981 107.068 15.8105 108.019 15.4775 108.983C15.4775 108.994 15.4775 109.01 15.4918 109.049C16.8379 109.809 18.3457 110.089 19.901 110.343C19.901 110.185 19.901 110.026 19.901 109.868C19.8852 107.965 19.8439 106.062 19.855 104.16C19.8693 101.731 19.9216 99.3003 19.9628 96.8666C20.0025 94.5819 20.0405 92.2988 20.0976 90.0141C20.1579 87.6401 20.2297 85.2661 20.3132 82.8921C20.3671 81.4446 20.4718 79.9986 20.5384 78.5527C20.5812 77.6854 20.6065 76.8166 20.6573 75.9493C20.7001 75.2327 20.7905 74.5224 20.8158 73.801C20.865 72.5691 20.8793 71.3371 20.9157 70.1052C20.9316 69.5455 20.9538 68.9843 20.9839 68.4246C21.041 67.4194 21.1234 66.4158 21.1631 65.4122C21.2122 64.1787 21.2106 62.942 21.2677 61.7085C21.3216 60.5083 21.4358 59.3113 21.5008 58.111C21.5547 57.117 21.5769 56.1197 21.6086 55.124C21.6466 53.8905 21.7021 52.6586 21.7116 51.4251C21.7116 50.4278 21.6815 49.4305 21.6466 48.4333C21.6117 47.436 21.5578 46.4736 21.5119 45.4684L14.6943 44.4014C14.8243 44.9294 15.0114 45.4843 15.0907 46.055C15.268 47.1391 15.3117 48.2408 15.2207 49.3354C15.1287 50.3343 15.1477 51.3474 14.7783 52.3018C14.707 52.4842 14.6198 52.6602 14.5373 52.8377L14.3946 52.8044C14.3585 52.6031 14.3442 52.3984 14.3518 52.194C14.4438 51.5202 14.6023 50.8543 14.6689 50.1789C14.7717 49.2801 14.8099 48.3751 14.7831 47.4709C14.7308 46.5196 14.531 45.5842 14.3756 44.644C14.3233 44.3824 14.2313 44.1081 13.8603 44.1334ZM20.6541 43.5199L20.4845 43.5896C20.3045 43.3244 20.1455 43.0456 20.0088 42.7557C19.5522 41.5507 19.427 40.3219 19.8503 39.0647C19.159 39.8685 18.899 40.8515 18.6548 41.8456L18.5296 41.8218V40.7611L18.3615 40.7421C18.1829 41.6099 18.0042 42.4766 17.8256 43.3423L17.6924 43.3233C17.6555 43.1487 17.6384 42.9705 17.6417 42.7921C17.8256 41.3937 18.195 40.0572 18.9941 38.8411C18.774 38.8809 18.5605 38.9513 18.3599 39.0504C18.0301 39.2184 17.7067 39.4008 17.3849 39.5831C16.6413 40.0064 15.9072 40.4472 15.1525 40.8515C14.8912 40.9597 14.6198 41.0414 14.3423 41.0957C14.4057 40.823 14.4073 40.5154 14.5421 40.2855C15.0827 39.3643 16.015 38.9315 16.9314 38.5082C17.7701 38.1229 18.6295 37.7852 19.5189 37.4094C19.4038 37.3184 19.2795 37.2397 19.1479 37.1748C17.6438 36.6427 16.3467 35.6481 15.4426 34.3336C14.6499 33.1746 13.7874 32.0663 12.9677 30.9264C12.4223 30.1701 11.6771 29.7389 10.8114 29.4218C9.89186 29.0856 8.94692 29.046 7.99563 28.9968C7.8244 28.9968 7.55962 29.0508 7.48986 29.1697C7.18545 29.6897 6.82079 30.2145 6.69712 30.7869C6.4853 31.8474 6.33076 32.9187 6.23416 33.9959C6.02963 35.7954 6.62736 37.392 7.5723 38.8744C8.1488 39.7834 8.87582 40.5876 9.72222 41.2526C10.469 41.8393 11.2316 42.4322 12.0656 42.8682C13.4243 43.5785 14.9194 43.9781 16.4129 44.2682C17.9429 44.5694 19.4888 44.793 21.0267 45.0609C21.6149 45.1608 22.2031 45.2702 22.7882 45.3939C23.6618 45.581 24.4609 45.5144 24.9428 44.6487C25.577 43.5072 26.2112 42.3577 26.7614 41.1749C27.0961 40.4056 27.3774 39.6142 27.6033 38.8062C28.0853 37.262 28.5514 35.7124 29.0017 34.1576C29.2839 33.1873 29.5423 32.2074 29.7944 31.2276C29.9958 30.4349 29.6454 29.8562 28.9684 29.8229C28.5847 29.8039 28.1867 29.8641 27.8157 29.7864C26.9681 29.617 26.1307 29.4 25.3075 29.1364C24.8065 28.9699 24.3562 29.0698 24.1596 29.5882C25.9036 29.8847 27.6619 30.1099 29.3235 30.7361C29.2116 30.7748 29.092 30.7862 28.9747 30.7694C28.109 30.5998 27.2513 30.3683 26.3777 30.2636C25.4502 30.1527 24.5068 30.1463 23.5698 30.1194C23.2527 30.1114 23.0847 30.2304 23.0736 30.6362C23.0339 32.0632 22.9293 33.479 22.8421 34.898C22.7802 35.8969 22.5377 36.8862 22.7248 37.8946C22.7294 37.9894 22.7209 38.0843 22.6994 38.1768L22.5614 38.2244C22.4632 37.9849 22.3633 37.7487 22.2333 37.4316C22.0288 37.668 21.8427 37.9198 21.6768 38.1847C21.6561 38.2546 21.6538 38.3286 21.6699 38.3996C21.686 38.4707 21.72 38.5364 21.7687 38.5906C22.3134 39.0093 22.714 39.5873 22.915 40.2443C22.9516 40.3657 22.9818 40.489 23.0054 40.6137L22.8865 40.666C22.5197 40.1132 22.154 39.5588 21.7893 39.0028C22.062 39.7734 22.4758 40.4837 22.6677 41.2494C22.8595 42.0152 23.286 42.7557 23.1116 43.588L22.9657 43.6451L22.3125 42.1151C22.3934 42.6986 22.4584 43.1663 22.5218 43.634H22.4663C22.2856 42.9047 22.1059 42.1748 21.9273 41.4445L21.9859 41.427L22.2 42.0612L22.3046 42.0311C22.3039 41.9243 22.2911 41.8179 22.2666 41.714C22.043 41.1163 21.8179 40.5201 21.5737 39.9319C21.4926 39.7974 21.3934 39.6747 21.2788 39.5673L21.1757 39.6402C21.19 39.7369 21.2027 39.8336 21.2201 39.9287C21.3977 40.926 21.588 41.9201 21.7433 42.9205C21.7671 43.0791 21.6324 43.2614 21.5721 43.4327C21.4722 43.2931 21.3153 43.1679 21.282 43.0141C21.1646 42.4798 21.0885 41.936 21.0013 41.3953C20.8882 40.6808 20.7778 39.9647 20.67 39.247L20.5273 39.2628C20.5685 39.859 20.6034 40.4551 20.6525 41.0497C20.6779 41.3668 20.7255 41.6839 20.7619 42.001L20.6034 42.02C20.0485 41.3414 20.2784 40.4773 20.1008 39.7068C19.6743 41.0528 20.2942 42.2705 20.6541 43.5199ZM12.5253 29.8704L12.4603 29.9592C12.715 30.1532 12.9512 30.3703 13.1659 30.6077C13.9237 31.6065 14.6467 32.6324 15.4014 33.636C15.8564 34.24 16.2766 34.8964 16.8283 35.38C17.3801 35.8636 18.1205 36.2473 18.807 36.6087C19.1971 36.8149 19.6537 36.8941 20.1753 37.0622C19.8582 36.3075 19.5982 35.6527 19.3017 35.0138C19.1145 34.6019 18.8917 34.2072 18.6358 33.8342C18.0603 33.0129 17.4467 32.217 16.8585 31.4052C16.7453 31.2267 16.5909 31.0781 16.4082 30.9719C16.2255 30.8656 16.02 30.8049 15.8089 30.7948C15.3929 30.7534 14.9829 30.6656 14.5865 30.5332C13.8952 30.3302 13.215 30.094 12.5253 29.8704ZM15.5378 113.471C15.7106 113.544 15.8771 113.681 16.0356 113.67C16.5049 113.639 16.9713 113.574 17.4308 113.474C18.1823 113.316 18.9291 113.111 19.6695 112.899C19.7373 112.872 19.7976 112.829 19.8455 112.774C19.8935 112.718 19.9277 112.653 19.9454 112.582C19.9555 112.301 19.9423 112.02 19.9058 111.742C18.9545 112.274 18.0381 112.95 16.8188 112.472L19.9327 111.074C19.9327 111.007 19.9327 110.941 19.9327 110.874C18.3472 110.557 16.7618 110.24 15.3554 109.373C15.2476 109.627 15.1874 109.801 15.1033 109.964C15.0049 110.128 14.972 110.323 15.0111 110.51C15.0502 110.697 15.1585 110.862 15.3142 110.973C15.5108 111.118 15.7312 111.234 15.9484 111.364C16.6254 111.78 16.9663 112.385 16.1656 112.97C15.9674 113.116 15.7914 113.273 15.5473 113.471H15.5378ZM52.0038 83.1886C51.8868 83.2432 51.7753 83.3091 51.6709 83.3852C51.1588 83.883 50.6213 84.3603 50.1599 84.9041C49.8606 85.2661 49.6237 85.6755 49.4591 86.1154C49.326 86.4642 49.3561 86.8178 49.8539 86.9843C50.6467 87.249 51.4109 87.5867 52.1782 87.8911C52.1275 86.3976 52.0736 84.8391 52.0165 83.1823L52.0038 83.1886ZM19.8186 37.9707L19.752 37.8533C17.9414 38.6207 16.0102 39.1741 14.642 40.7326L14.7244 40.8769L19.8186 37.9707ZM28.3278 29.0508C27.3195 28.805 26.3634 28.5053 25.3392 28.7337C25.5326 29.0809 27.7063 29.6754 28.3278 29.566V29.0508ZM20.5257 35.7462C20.559 34.0276 18.9259 30.3905 18.1903 30.5982C19.5379 32.0473 19.8408 33.9848 20.5178 35.7462H20.5257ZM19.1653 33.0509L19.2906 32.9859C18.9624 32.3819 18.677 31.7477 18.2822 31.1927C18.1443 30.9977 17.9398 30.5585 17.5022 30.7995L19.1653 33.0509ZM17.0138 30.7932L16.9251 30.92L18.9402 33.804L19.0322 33.7422C18.5121 32.8987 18 32.0505 17.4657 31.2165C17.3304 31.0585 17.176 30.9179 17.0059 30.798L17.0138 30.7932Z" fill="#4A4700" stroke="#4A4700" stroke-width="0.5"/>
<path id="Vector_2" d="M7.86081 9.31813L7.14734 9.16909C7.26149 8.97567 7.36296 8.77272 7.49456 8.59039C7.71177 8.29074 7.95752 8.01169 8.1668 7.70728C8.20273 7.65421 8.22721 7.59423 8.23867 7.53117C8.25014 7.46811 8.24834 7.40336 8.23339 7.34103C8.14884 7.09691 8.11385 6.83838 8.13046 6.58056C8.14706 6.32275 8.21494 6.07084 8.33011 5.83958C8.45695 5.55737 8.62025 5.32747 8.25242 5.06904C8.09387 4.95964 8.03204 4.69011 8.37926 4.59339C8.78673 4.47607 9.1831 4.32228 9.55727 4.19385C9.35591 3.65479 9.14346 3.10304 8.94686 2.54495C8.8549 2.28493 8.88503 2.05345 9.24493 2.12955C9.63496 2.21358 10.0155 2.34359 10.4166 2.45775C10.7527 2.06138 11.1554 1.57464 11.574 1.09899C11.6892 1.00379 11.818 0.926302 11.9561 0.869096C11.9942 1.02764 12.0354 1.17509 12.0718 1.32889C12.0877 1.39706 12.094 1.46682 12.1083 1.55878C12.4968 1.29876 12.8424 1.01655 13.234 0.796164C14.1004 0.304064 15.1261 0.174139 16.0879 0.434674C16.6746 0.567656 17.1949 0.904815 17.556 1.38596C17.6248 1.46219 17.7139 1.5172 17.8129 1.54451C19.0099 1.93771 20.2149 2.30237 21.4024 2.72094C22.257 3.0206 22.7532 3.73248 23.1908 4.47448C23.6839 5.31479 23.8758 6.21851 23.9439 7.19992C23.9931 7.91656 24.2959 8.62686 24.5369 9.31337C24.6384 9.60669 24.5829 9.76523 24.3244 9.85244C23.3288 10.1838 22.3363 10.604 21.255 10.3439C20.3227 10.1188 19.3524 9.95708 18.6532 9.19605C18.5381 9.05279 18.4322 8.9024 18.3361 8.74577L17.7209 9.20397C17.7336 8.99469 17.713 8.90115 17.7479 8.83773C17.993 8.39607 18.0749 7.88225 17.9792 7.38627C17.8836 6.8903 17.6164 6.44379 17.2247 6.12497C16.7982 5.78568 16.0752 6.03301 15.8833 6.62439C15.7005 7.1788 15.5559 7.74508 15.4505 8.31928C15.3195 8.98648 15.009 9.60535 14.5525 10.1093C14.0961 10.6133 13.5109 10.9833 12.8598 11.1795C11.8022 11.5044 10.6773 11.5427 9.60008 11.2905C8.495 11.0415 7.80056 10.5389 7.86081 9.31813ZM23.6506 9.61461C23.3399 9.55777 23.049 9.42207 22.8058 9.22052C22.5626 9.01896 22.3753 8.75831 22.2617 8.46355C21.8891 7.62959 21.989 6.77502 22.1698 5.97435C22.4044 4.94378 22.0429 4.12885 21.5657 3.31074C21.3961 3.01901 20.5161 2.74948 20.2577 2.83509C20.3925 3.15219 20.6049 3.46929 20.6509 3.80858C20.7569 4.61489 20.8209 5.42617 20.8427 6.23912C20.8697 7.20151 20.8633 8.15914 21.3184 9.04384C21.4151 9.22934 21.4975 9.42119 21.5863 9.60986C21.1313 9.38472 20.6921 8.79809 20.6525 8.29391C20.5593 7.2725 20.5244 6.24662 20.5478 5.22124C20.5987 4.51099 20.4609 3.79992 20.1483 3.16012C20.0056 2.88107 19.8106 2.57507 19.3555 2.74155C18.9347 2.86627 18.507 2.96632 18.0745 3.04121C18.6421 3.39635 19.0591 3.80858 19.1288 4.45387C19.1891 5.0183 19.2033 5.58749 19.2557 6.15351C19.3223 6.88283 19.2779 7.65179 19.7789 8.26537C20.1879 8.7648 20.6255 9.24203 21.0726 9.70816C21.2035 9.83065 21.3702 9.9079 21.5483 9.92854C22.2586 10.0173 22.9673 10.0142 23.6506 9.61461ZM8.34121 9.16275C8.11131 9.94598 8.32218 10.4898 9.04675 10.7324C10.2901 11.1755 11.6498 11.1659 12.8868 10.7054C13.7683 10.3741 14.5531 9.88573 14.875 8.9614C15.2079 8.01011 15.4251 7.01284 15.72 5.9363C15.1171 6.32426 14.6516 6.89232 14.3898 7.55983C13.8951 8.66967 13.1801 9.49412 11.9466 9.83341C11.0524 10.0776 10.1613 9.74779 9.78558 8.88212C9.36543 9.29752 8.87868 9.35618 8.34121 9.16275ZM16.1243 5.37979V5.51456C16.3019 5.55102 16.4795 5.59066 16.6586 5.62237C17.5624 5.78092 18.4027 6.73221 18.4677 7.6502C18.5147 8.12283 18.7177 8.56635 19.0447 8.91084C19.3717 9.25533 19.804 9.48118 20.2735 9.55278C20.2557 9.51461 20.2356 9.47755 20.2133 9.4418C20.1818 9.394 20.1457 9.3494 20.1055 9.30862C19.2509 8.47941 18.8117 7.49165 18.9354 6.28035C19.0379 5.54318 18.9745 4.79243 18.7499 4.08287C18.6426 3.79605 18.4649 3.54087 18.233 3.34086C18.126 3.24184 17.9866 3.18502 17.8408 3.18094C17.695 3.17686 17.5527 3.22579 17.4403 3.31867C17.342 3.39477 17.1755 3.38367 16.9789 3.42648L17.4213 3.0523C17.109 2.83506 16.8104 2.59891 16.527 2.34518C15.7692 1.57939 14.2852 1.39389 13.4132 2.00906C13.1484 2.19456 12.9106 2.41653 12.6601 2.62105L12.7203 2.74472C13.1814 2.67402 13.6386 2.57982 14.0902 2.46251C15.0636 2.16285 15.5964 2.32457 16.2147 3.00315C16.7538 3.59613 17.166 4.29849 17.9017 4.7123C18.0475 4.79633 18.13 4.99452 18.241 5.1388C18.058 5.19751 17.8709 5.24255 17.6813 5.27356C17.1581 5.3243 16.6475 5.34808 16.1243 5.37979ZM13.2197 4.68377C13.4972 4.78841 13.8 4.82329 13.9903 4.98818C14.393 5.33857 14.7687 5.60017 15.2904 5.2371C15.3205 5.21649 15.3744 5.2371 15.4172 5.22283L17.3436 4.8661C16.9076 4.33337 16.4097 3.75626 15.9515 3.15695C15.5155 2.583 14.9447 2.52275 14.3074 2.64166C14.1962 2.6515 14.0908 2.69549 14.0057 2.76759C13.9205 2.83969 13.8598 2.93637 13.8317 3.04438C13.6605 3.59295 13.4306 4.12251 13.2197 4.68377ZM13.0612 6.65928C13.077 6.96527 13.1547 7.32201 13.0961 7.65496C13.0517 7.90546 12.8725 8.1639 12.5063 7.89754C12.241 7.72801 11.9608 7.58312 11.6691 7.4647C11.4091 7.34103 11.2331 7.33628 11.073 7.67081C10.9018 7.98532 10.6675 8.26113 10.3849 8.481C10.0377 8.77589 10.0012 8.98518 10.3453 9.27374C10.8003 9.66376 11.7278 9.71609 12.297 9.43228C13.0897 9.04384 13.5812 8.38904 13.9427 7.64227C14.2919 6.88502 14.8053 6.21505 15.4458 5.68103L13.0612 6.65928ZM17.5465 2.7257L17.6131 2.64801C17.5194 2.4318 17.4482 2.20653 17.4006 1.97576C17.3309 1.34157 16.9044 1.02447 16.378 0.853241C14.7925 0.350644 13.3926 0.727988 12.1717 1.8299C12.1304 1.88499 12.1102 1.95303 12.1147 2.02174C12.1147 2.28652 12.1147 2.55129 12.1147 2.82875C12.408 2.57983 12.6775 2.34201 12.9581 2.11687C13.9316 1.33681 15.5647 1.18144 16.5841 2.0915C16.8886 2.3267 17.2103 2.5387 17.5465 2.7257ZM22.5725 4.32386C22.5329 5.25137 22.4726 6.24546 22.4615 7.23956C22.4615 7.56934 22.5868 7.89912 22.6486 8.23049C22.7818 8.95664 23.538 9.10092 23.917 9.59083C23.9312 9.60986 24.0517 9.54802 24.1263 9.52266C24.028 9.31337 23.9455 9.1358 23.8615 8.95981C23.5127 8.23207 23.4952 7.44567 23.4413 6.66245C23.3843 5.76031 22.9895 4.98184 22.5725 4.32386ZM13.5352 2.86205C12.7964 2.9984 12.1273 3.16963 11.6453 3.71979C11.5027 3.87834 11.3425 4.10031 11.3441 4.29057C11.3441 4.41899 11.6041 4.61876 11.7738 4.65047C11.9995 4.66706 12.2259 4.62843 12.4333 4.5379C12.6014 4.48082 12.8123 4.39521 12.8868 4.25886C13.1214 3.82443 13.3053 3.35989 13.5305 2.86205H13.5352ZM14.2693 5.84592C14.2693 5.7936 14.2693 5.74128 14.2693 5.68738C14.1478 5.62195 14.0353 5.54093 13.9348 5.44638C13.513 4.92476 12.9074 4.88671 12.3208 4.84231C11.9228 4.81378 11.6866 5.10233 11.8737 5.39565C12.0607 5.68896 12.3921 6.00447 12.6886 6.02984C13.207 6.08375 13.7429 5.92044 14.2693 5.84592ZM8.46487 7.21895L8.5933 7.24115C8.90247 7.05089 9.21005 6.85746 9.52239 6.67513C9.83473 6.4928 10.1566 6.26608 10.1217 5.84751L8.78514 5.60334C8.67574 6.15192 8.5711 6.68623 8.46487 7.21895ZM10.6481 4.70913C11.0825 4.12726 10.7369 3.73565 10.5656 3.40587C10.1788 2.66545 9.83632 2.47995 9.36543 2.55446C9.50971 2.93498 9.60642 3.3472 9.81095 3.69284C10.0155 4.03847 10.3342 4.33654 10.6481 4.70913ZM11.6596 1.48426C10.675 2.37689 10.3912 2.66545 11.1475 3.68491C11.6073 3.39794 11.7976 2.60203 11.6596 1.48426ZM7.55322 9.1136C7.80784 8.98289 8.05455 8.8373 8.29206 8.67759C8.87868 8.23366 9.43836 7.75801 10.0282 7.32359C10.3056 7.11907 10.1138 7.0065 10.0282 6.84795C9.00019 7.34609 8.14002 8.13353 7.55322 9.1136ZM12.8123 7.70886C12.9217 6.86222 12.297 6.49914 11.9181 5.9363C11.7833 6.39133 11.6691 6.77026 11.5566 7.15236L12.8123 7.70886ZM10.6386 5.18636C10.5054 4.4285 9.42409 4.58705 8.64086 4.97391C9.26396 5.53834 9.93303 5.52566 10.6386 5.18636ZM8.51244 8.85675L8.59964 9.0375C8.8369 8.98394 9.06762 8.90473 9.28774 8.80126C9.60484 8.60783 9.89022 8.34781 10.2026 8.13536C10.4499 7.9673 10.4229 7.80558 10.2026 7.55666L8.51244 8.85675ZM10.6449 7.36323C10.752 7.22247 10.8425 7.06977 10.9144 6.9082C11.02 6.57398 11.1021 6.2328 11.1602 5.88715C11.158 5.83263 11.1435 5.77932 11.1176 5.73125C11.0918 5.68318 11.0554 5.64161 11.0112 5.60969C10.9668 5.59349 10.9192 5.58807 10.8724 5.59385C10.8255 5.59964 10.7807 5.61648 10.7416 5.64298C10.3326 5.94739 10.285 6.99381 10.6449 7.36323ZM19.289 2.42604L19.3064 2.32932L17.6559 1.7205C17.8145 2.13748 17.9096 2.41336 18.0253 2.72728L19.289 2.42604Z" fill="#4A4700" stroke="#4A4700" stroke-width="0.5"/>
<path id="Vector_3" d="M9.19584 12.8455C9.58428 13.1911 9.94736 13.4892 10.2835 13.8174C11.1032 14.6196 11.8499 15.5123 12.8599 16.0815C13.3498 16.3589 13.9222 16.4873 14.4454 16.7157C14.5344 16.7527 14.6146 16.8082 14.6807 16.8784C14.7469 16.9486 14.7974 17.032 14.8291 17.1231C15.0392 18.5314 15.4376 19.9051 16.0134 21.2073C16.3083 21.8827 16.4891 22.7056 15.9817 23.3509C15.7049 23.7087 15.3518 24.0003 14.9481 24.2044C14.5443 24.4084 14.1001 24.5198 13.6479 24.5305C13.2943 24.5432 12.9392 24.4972 12.5856 24.4782L12.5539 24.3704C12.6189 24.3228 12.6791 24.2483 12.7521 24.2324C13.2277 24.1357 13.7129 24.0961 14.1711 23.9518C14.6047 23.8188 15.0161 23.6222 15.3919 23.3683C15.801 23.0861 15.8897 22.2823 15.6567 21.6972C15.3935 21.0377 15.0685 20.3956 14.875 19.717C14.6277 18.8529 14.3312 17.9729 14.5754 16.9979C13.4021 16.8235 12.4207 16.2305 11.5297 15.4917C10.664 14.7703 9.84271 13.995 9.01351 13.253L7.84184 14.997C7.73561 14.9431 7.63572 14.8813 7.52474 14.8384C7.46602 14.822 7.41145 14.7933 7.36463 14.7542C7.31781 14.7152 7.27982 14.6666 7.25315 14.6118C7.22648 14.5569 7.21174 14.497 7.20991 14.4361C7.20808 14.3751 7.21919 14.3145 7.24252 14.2582C7.40107 13.6874 7.5723 13.1198 7.73719 12.5506L7.86403 12.5712L7.68329 14.6323L7.76098 14.6656C8.11137 14.1567 8.50457 13.6715 8.79313 13.1293C8.91521 12.9026 8.92472 12.4634 8.78044 12.2922C8.63616 12.1209 8.22869 12.1035 7.95599 12.1463C7.52449 12.238 7.1005 12.362 6.68761 12.5173C6.62613 12.5448 6.56724 12.5777 6.51162 12.6156C6.69395 13.2847 6.85408 13.9569 7.06971 14.6101C7.1252 14.7814 7.35668 14.8923 7.50254 15.0366C7.66258 15.1791 7.80956 15.3357 7.94172 15.5043C8.21601 15.9023 8.52676 16.2971 8.71227 16.7299C8.97387 17.3498 8.65677 17.8937 8.31431 18.4074C8.20016 18.5786 8.10344 18.7641 7.99721 18.9559L8.36663 19.1731L8.392 19.3079C8.19164 19.3724 7.98382 19.4107 7.77366 19.4221C7.38833 19.385 7.00361 19.4986 6.70029 19.7392C6.57596 19.8243 6.48383 19.9487 6.43869 20.0925C6.39355 20.2362 6.39801 20.391 6.45137 20.5319C6.70663 21.2581 7.08556 21.8938 7.86086 22.2014C8.3698 22.3996 8.67739 22.3267 8.9707 21.8383C9.07534 21.6624 9.19108 21.4927 9.33536 21.266C9.39085 22.0587 9.03095 22.4931 8.20016 22.6929C8.18906 23.8281 7.55645 24.6225 6.67809 25.2408C10.45 26.468 14.3106 26.6344 18.2521 26.3982C18.0412 26.7993 17.675 26.7914 17.3595 26.8501C16.1402 27.0752 14.9416 26.8279 13.7367 26.6836C12.9344 26.5884 12.129 26.5044 11.3236 26.487C10.0774 26.4584 8.89618 26.1033 7.68646 25.8861C7.15311 25.8105 6.61092 25.8239 6.08195 25.9257C5.51994 25.9945 4.97306 26.1552 4.46317 26.4014C3.36919 26.9943 2.58121 27.8505 2.58913 29.2092C2.58182 29.2668 2.56744 29.3233 2.54633 29.3773C2.22923 29.0253 2.44327 28.0138 3.09173 27.0863C3.60384 26.357 4.34109 25.9019 5.27336 25.5737C4.91821 25.3851 4.63916 25.2107 4.33475 25.0791C3.19003 24.5828 2.29899 23.7853 1.48088 22.8594C0.951332 22.2791 0.40117 21.6703 0.239451 20.9172C0.0682188 20.1022 0.145907 19.2413 0.107856 18.4026C0.095172 18.1569 0.0587059 17.9111 0.0269963 17.6654C-0.131552 16.4239 0.464589 15.5424 1.36356 14.794C2.73341 13.6541 4.32365 12.9454 5.99951 12.4C6.61784 12.1986 7.22826 11.9655 7.85769 11.8022C8.24772 11.7024 8.69483 11.7008 8.95326 12.0813C9.10705 12.3048 9.13083 12.6172 9.19584 12.8455ZM3.93045 15.6851C4.00021 15.7881 4.03668 15.8294 4.06046 15.8753C4.34268 16.4303 4.55196 17.0407 4.92296 17.5274C5.54764 18.3471 5.69985 19.235 5.62692 20.2227C5.53655 21.4515 5.443 22.6818 5.44142 23.9122C5.44142 24.4354 5.32251 25.0759 6.01219 25.4976C6.15171 25.2693 6.35148 25.0585 6.40698 24.8143C6.44034 24.5442 6.42476 24.2703 6.361 24.0057C6.2627 23.3715 6.11208 22.7468 6.0439 22.1031C5.94243 21.1185 5.89804 20.1276 5.82352 19.1399C5.77437 18.4898 5.78071 17.8255 5.6396 17.1945C5.52703 16.6982 5.22579 16.2432 4.98321 15.7136C6.18818 16.9043 6.04231 18.3947 6.0217 19.8184L6.93811 19.04C6.94762 18.8814 6.93811 18.6816 6.97299 18.4882C7.07129 17.7779 7.1902 17.0946 6.69553 16.4271C6.51162 16.1829 6.24843 15.7564 6.68285 15.3854C6.81444 15.7707 6.95555 16.137 7.06178 16.5143C7.19126 16.8829 7.2733 17.2665 7.30594 17.6558C7.30594 18.0998 7.19813 18.5453 7.13154 19.0194L7.69597 18.9655C7.78476 18.7229 7.81964 18.4898 7.94648 18.3106C8.41261 17.6654 8.57116 17.0232 8.20016 16.2495C7.78159 15.4076 7.21399 15.0509 6.361 15.2094C5.25116 15.4187 4.12071 15.5836 3.01563 15.8436C2.64304 15.9308 2.13886 16.1607 2.01519 16.4556C1.75074 17.0533 1.63435 17.706 1.6759 18.3582C1.77103 19.2413 2.08812 20.1022 2.34656 20.9632C2.47301 21.3407 2.63603 21.705 2.8333 22.0508C3.25187 22.8435 3.67678 23.6204 4.13498 24.383C4.27133 24.6098 4.52818 24.7636 4.73429 24.957C4.69307 24.0057 4.64392 23.1384 4.62014 22.2728C4.6027 21.6782 4.64709 21.0805 4.62014 20.4875C4.55355 19.2191 4.34426 17.9935 3.74495 16.8552C3.65616 16.6855 3.59592 16.5 3.52298 16.3225L3.63714 16.2796C3.9146 16.936 4.32048 17.5686 4.43939 18.252C4.67563 19.6155 4.76917 21.006 4.89284 22.3869C4.93723 22.8863 4.87223 23.3953 4.91504 23.8947C4.97015 24.2621 5.05175 24.6251 5.1592 24.9808L5.32568 24.9554C4.91662 23.4857 5.21469 22.0191 5.30031 20.5509C5.33202 20.023 5.45886 19.5299 5.34787 18.9655C5.17823 18.1125 4.71368 17.4846 4.24913 16.8219C4.02558 16.4969 3.73068 16.1956 3.93045 15.6851ZM5.29872 13.3877L5.41763 13.4416C5.25769 13.7055 5.11265 13.9781 4.98321 14.2582C4.94816 14.3323 4.92933 14.4131 4.92796 14.4951C4.92659 14.5771 4.94273 14.6585 4.97529 14.7338C5.0303 14.8015 5.09898 14.8568 5.17685 14.8962C5.25471 14.9355 5.34 14.958 5.42715 14.9621C5.86157 14.951 6.29282 14.8812 6.78591 14.8273C6.07085 14.2042 6.63528 13.3481 6.36575 12.641C5.75217 12.8756 5.17823 13.0786 4.62172 13.3164C4.32682 13.44 4.02717 13.5812 4.05095 14.0092C4.03097 14.1604 3.95993 14.3003 3.84959 14.4056C3.5325 14.756 3.20747 15.0905 2.8444 15.4726L4.78344 14.997C4.13022 14.1599 5.11322 13.922 5.29872 13.3893V13.3877ZM1.3921 16.7949C0.868887 17.2167 0.662775 17.8493 0.542278 18.4502C0.206156 20.1244 0.665945 21.5656 2.01519 22.704C1.95061 22.1604 1.85212 21.6213 1.72029 21.09C1.56174 20.3432 1.31124 19.6028 1.24465 18.8481C1.19074 18.187 1.33343 17.5068 1.3921 16.7949ZM6.18342 21.2581C6.39429 22.4186 6.60675 23.5792 6.81762 24.7683C7.42357 24.2357 7.79784 23.4877 7.86086 22.6834C7.85342 22.6387 7.83505 22.5964 7.8074 22.5605C7.77974 22.5245 7.74365 22.496 7.70231 22.4773C7.0269 22.3013 6.68443 21.7496 6.18342 21.2581ZM1.49832 16.0339C2.52096 15.5472 3.19796 14.7338 3.76398 13.8047C3.36898 13.9496 2.99226 14.1401 2.64146 14.3723C2.32436 14.5959 1.88042 14.7433 1.92957 15.2982C1.94543 15.4568 1.74724 15.6407 1.64419 15.8103C1.59821 15.8864 1.54747 15.9594 1.49832 16.0339ZM2.4623 22.0112L2.36875 22.0032C2.38936 22.4234 2.29582 22.8974 2.45754 23.2542C2.66365 23.706 3.12186 24.0009 3.70056 24.2736L2.4623 22.0112ZM1.78847 15.0509C0.765831 15.7263 0.228352 16.7394 0.399585 17.5068L1.78847 15.0509Z" fill="#4A4700" stroke="#4A4700" stroke-width="0.5"/>
<path id="Vector_4" d="M38.5383 55.8931C38.8728 56.5273 38.8427 57.19 38.8395 57.8337C38.8252 60.6035 38.8284 63.3734 38.765 66.1416C38.7333 67.5686 38.5858 69.005 38.4733 70.4351C38.329 72.2743 38.1229 74.1087 38.0261 75.9494C37.894 78.4323 37.8084 80.9162 37.7693 83.4012C37.7455 84.9867 37.8343 86.5721 37.8946 88.1434C37.931 89.1184 38.0214 90.0919 38.0674 91.067C38.1102 91.9644 38.1324 92.8617 38.1514 93.7623C38.1752 94.8991 38.1213 96.0406 38.2228 97.1695C38.302 98.0574 38.5573 98.931 38.7507 99.8077C38.9235 100.588 39.1011 101.366 39.3088 102.137C39.6449 103.378 39.962 104.628 40.3758 105.844C40.6485 106.649 41.075 107.402 41.4365 108.178C41.5649 108.453 41.7013 108.728 41.8345 109.004L41.6934 109.083C41.3905 108.56 41.0592 108.049 40.7912 107.513C40.1792 106.319 39.7373 105.044 39.4785 103.727C39.2295 102.486 38.8807 101.262 38.5272 100.042C38.2228 98.9674 37.8327 97.9147 37.5347 96.8381C37.4149 96.3381 37.3474 95.8269 37.3333 95.3129C37.1938 93.0932 36.9861 90.8736 36.9623 88.6539C36.9338 85.9808 37.0638 83.306 37.1208 80.6313C37.1367 79.9575 37.1208 79.2805 37.17 78.6099C37.2524 77.5539 37.384 76.4996 37.4871 75.4389C37.6139 74.1594 37.7439 72.8815 37.8581 71.602C37.9944 70.0673 38.1387 68.5325 38.2386 66.9962C38.329 65.5835 38.3813 64.1677 38.4178 62.7519C38.4685 60.8303 38.4875 58.9071 38.5177 56.9839C38.543 56.6446 38.5383 56.2926 38.5383 55.8931Z" fill="#4A4700" stroke="#4A4700" stroke-width="0.5"/>
<path id="Vector_5" d="M41.1924 113.554C40.6724 112.985 40.1016 112.444 39.6339 111.827C39.0732 111.12 38.5801 110.362 38.161 109.563C37.6108 108.454 37.1653 107.288 36.7214 106.129C36.5122 105.524 36.3376 104.907 36.1982 104.282C35.7977 102.769 35.5523 101.219 35.4657 99.6557C35.369 97.7119 35.2818 95.7696 35.1803 93.8274C35.1105 92.4829 35.0059 91.1321 34.9456 89.794C34.8854 88.4558 34.8299 87.0987 34.8251 85.7462C34.8125 82.663 34.8193 79.5787 34.8458 76.4934C34.8605 74.9576 34.9108 73.4212 34.9964 71.8844C35.1042 69.9818 35.2596 68.0792 35.4134 66.1766C35.4799 65.349 35.5957 64.523 35.6813 63.6969C35.8192 62.3588 35.9984 61.0238 36.0777 59.6825C36.2077 57.4121 36.2885 55.1369 36.3551 52.8649C36.3757 52.1705 36.279 51.4729 36.2346 50.7784L36.352 50.7642C36.436 51.4443 36.5882 52.1245 36.593 52.8047C36.6072 54.4996 36.593 56.1976 36.5169 57.8909C36.4566 59.2766 36.2996 60.6576 36.168 62.0401C35.9524 64.3184 35.6718 66.592 35.5117 68.8735C35.3531 71.0393 35.3151 73.213 35.2453 75.374C35.1803 77.4018 35.1074 79.4313 35.1089 81.4591C35.1089 83.6328 35.1866 85.8049 35.2421 87.977C35.2691 89.0472 35.3246 90.1174 35.3674 91.186C35.4704 93.6895 35.5529 96.193 35.6845 98.6933C35.7301 99.6659 35.8525 100.633 36.0507 101.587C36.352 102.972 36.6849 104.353 37.2985 105.654C37.6521 106.405 37.8439 107.239 38.2101 107.975C38.6798 108.93 39.2094 109.854 39.7956 110.743C40.2491 111.426 40.8341 112.021 41.3573 112.657C41.6348 112.999 41.611 113.215 41.1924 113.554Z" fill="#4A4700" stroke="#4A4700" stroke-width="0.5"/>
<path id="Vector_6" d="M45.2258 61.417C45.3035 61.8625 45.4034 62.3064 45.4557 62.7551C45.627 64.2122 45.795 65.6708 45.9314 67.1327C46.0677 68.5945 46.1359 70.1038 46.3198 71.572C46.4863 72.8927 46.6591 74.2087 46.5957 75.5357C46.5592 76.3395 46.3975 77.1386 46.3325 77.9425C46.2596 78.824 46.193 79.7087 46.1961 80.5934C46.1961 82.2344 46.2596 83.8753 46.2929 85.5179C46.2929 85.6876 46.2929 85.8588 46.2929 86.0284L46.1755 86.0554C46.0756 85.6749 45.9456 85.3007 45.8806 84.9154C45.6185 83.2474 45.534 81.5563 45.6285 79.8704C45.6809 78.7606 45.8156 77.6587 45.9155 76.552C45.9583 76.0764 46.082 75.5928 46.0423 75.1251C45.9456 74.0152 45.7427 72.9165 45.6381 71.8067C45.5334 70.7285 45.4795 69.6441 45.4351 68.5628C45.3875 67.4038 45.4034 66.2432 45.3368 65.0874C45.2781 64.0743 45.1418 63.0659 45.0483 62.0544C45.0292 61.8467 45.0483 61.6342 45.0483 61.4202L45.2258 61.417Z" fill="#4A4700" stroke="#4A4700" stroke-width="0.5"/>
<path id="Vector_7" d="M23.3907 11.3286C23.5393 11.3826 23.6801 11.4562 23.8092 11.5474C24.7796 12.4495 25.7673 13.3358 26.6948 14.2808C27.5605 15.1639 28.1677 16.2103 28.3215 17.4739C28.4024 18.1462 28.5134 18.8153 28.5831 19.4891C28.5883 19.7374 28.5719 19.9857 28.534 20.2311C29.4662 20.572 30.1781 21.6184 30.0323 22.576C29.8991 22.3921 29.8214 22.297 29.7564 22.1939C29.5011 21.788 29.257 21.3758 28.9954 20.9747C28.9494 20.9033 28.8368 20.8764 28.7337 20.8161C28.5879 21.3013 28.4991 21.7674 28.3088 22.1939C28.091 22.7276 27.8048 23.2307 27.4574 23.6906C27.0531 24.1869 26.1684 24.1663 25.5342 23.6906L25.818 23.5321C25.6167 23.2277 25.4248 22.9375 25.2346 22.6474L25.363 22.5475C25.4423 22.6077 25.5485 22.6521 25.5977 22.7314C26.2097 23.7001 26.9025 23.3482 27.4051 22.5459C28.0567 21.5058 28.0916 20.3437 27.9695 19.1783C27.9082 18.4833 27.7673 17.7975 27.5494 17.1346C27.3188 16.5142 27.0058 15.9276 26.6187 15.3906C26.1145 14.6534 25.5263 13.9811 24.9619 13.3073C24.5988 12.876 24.1977 12.4781 23.8188 12.0595C23.6412 11.8629 23.4779 11.6552 23.3066 11.4523L23.3907 11.3286Z" fill="#4A4700" stroke="#4A4700" stroke-width="0.5"/>
<path id="Vector_8" d="M23.6792 13.5576C23.3194 13.916 22.9796 14.2939 22.6613 14.6897C22.1971 15.2928 21.7855 15.9346 21.431 16.6081C21.1409 17.1995 20.9886 17.8622 20.8158 18.5107C20.6113 19.2717 20.5114 20.0676 20.253 20.808C19.8091 22.0764 19.2414 23.2893 18.2775 24.2802C17.8938 24.675 17.6021 25.157 17.2089 25.5962C17.2628 25.3777 17.3388 25.1652 17.4356 24.962C17.7765 24.3865 18.1237 23.8141 18.509 23.2687C19.0433 22.5124 19.3207 21.6547 19.5696 20.7842C19.8186 19.9138 19.9866 18.9879 20.2974 18.127C20.8396 16.616 21.5658 15.1938 22.7787 14.0888C23.0276 13.8589 23.37 13.7352 23.6792 13.5576Z" fill="#4A4700" stroke="#4A4700" stroke-width="0.5"/>
<path id="Vector_9" d="M9.65402 11.5361C11.0096 13.0772 13.0533 13.9492 13.7937 15.9168C14.5865 15.7234 15.3158 15.4634 16.053 15.4047C16.497 15.3682 16.9663 15.6441 17.4245 15.7821C18.5248 16.1166 19.1685 15.5759 19.2192 14.4138C19.2465 13.9925 19.308 13.5741 19.4031 13.1628C19.4269 13.0534 19.5617 12.9694 19.6568 12.8727C19.698 12.9837 19.7852 13.101 19.771 13.2041C19.6842 13.9382 19.5545 14.6667 19.3825 15.3857C19.224 15.958 18.5391 16.3576 17.8383 16.2387C17.4908 16.1697 17.1528 16.0595 16.8315 15.9105C16.072 15.5823 15.3475 15.5934 14.6213 16.0104C14.3841 16.1427 14.1254 16.2323 13.8571 16.2751C13.7818 16.2747 13.7078 16.2558 13.6415 16.2202C13.5751 16.1845 13.5185 16.1332 13.4766 16.0706C12.89 15.0511 11.9863 14.3393 11.1238 13.5846C10.6378 13.1507 10.1743 12.6924 9.73488 12.2115C9.60011 12.0657 9.56365 11.8263 9.4812 11.6297L9.65402 11.5361Z" fill="#4A4700" stroke="#4A4700" stroke-width="0.5"/>
<path id="Vector_10" d="M13.1754 43.9512C13.4101 44.7439 13.1754 45.5113 13.0755 46.2866C13.0327 46.6037 12.9503 46.9208 12.8821 47.2379C12.7331 47.9196 12.6205 48.6109 12.4239 49.2784C12.1924 50.0711 11.8864 50.829 11.6137 51.6043L11.4124 51.5409C11.4932 51.2238 11.5709 50.8956 11.6565 50.5737C11.8151 49.9744 12.0133 49.3814 12.1528 48.7758C12.4604 47.4329 12.7442 46.0805 13.0343 44.7376C13.0898 44.4791 13.1342 44.2159 13.1818 43.9528L13.1754 43.9512Z" fill="#4A4700" stroke="#4A4700" stroke-width="0.5"/>
</g>
<defs>
<clipPath id="clip0_61_2581">
<rect width="65" height="118.664" fill="white" transform="translate(0 0.306152)"/>
</clipPath>
</defs>
</svg>
