<svg width="76" height="201" viewBox="0 0 76 201" fill="none" xmlns="http://www.w3.org/2000/svg">
<g id="Capa_1" clip-path="url(#clip0_27_1426)">
<path id="Vector" d="M75.6831 189.95C71.3239 184.973 68.5109 178.832 67.5889 172.279C66.2832 163.562 65.4733 154.761 64.7566 145.969C63.6473 132.368 62.4692 118.756 61.9342 105.13C61.4434 92.4659 60.0002 76.7388 58.7878 64.1581C58.1203 57.2076 56.5348 53.3593 54.645 46.6836C54.4647 45.9839 54.3658 45.2658 54.3505 44.5435C57.2956 52.0879 57.1189 52.9666 59.2934 61.9444C60.6285 74.2698 61.2568 86.5314 63.1368 98.2924C62.4594 115.566 64.3394 128.186 65.8071 147.251C65.8365 151.668 67.903 168.765 69.4002 174.488C70.7795 180.815 73.8326 183.731 75.6831 189.95Z" fill="#4A4700"/>
<path id="Vector_2" d="M25.3751 41.6034C23.4559 50.1002 21.3206 58.5577 19.6763 67.128C17.9779 75.9635 16.7311 84.8431 15.342 93.7227C12.2005 114.162 10.8457 134.773 9.45171 155.379C8.97376 163.47 7.41536 171.46 4.81801 179.137C3.90565 181.499 2.69309 183.735 1.21021 185.788C2.83494 177.041 6.45747 169.977 7.557 161.167C9.23573 147.712 9.78549 131.445 11.317 117.971C13.84 95.7843 16.5397 75.1732 22.0275 53.492C23.0092 49.5308 23.5786 45.2996 24.9726 41.4316L25.3751 41.6034Z" fill="#4A4700"/>
<path id="Vector_3" d="M22.2287 109.94C20.3013 131.149 19.2345 152.419 19.0284 173.752C18.9694 179.397 18.6798 185.042 16.6035 190.397C16.4195 191.016 16.1179 191.595 15.7151 192.1C12.6668 195.256 4.62168 195.33 1.35256 192.282C0.370849 191.349 -0.0954663 190.412 0.807712 189.072C1.23967 188.433 1.26421 187.52 1.86796 186.617C2.14285 187.761 2.41282 188.905 2.82023 190.603C6.05989 192.483 10.1144 192.974 14.2768 191.968C15.023 191.786 15.6807 190.171 15.9163 189.243C17.3889 183.481 16.9275 183.201 17.4331 177.527C19.1609 158.079 19.8874 133.222 21.7919 113.789C21.9146 112.493 22.0815 111.217 22.2287 109.94Z" fill="#4A4700"/>
<path id="Vector_4" d="M64.1284 190.441C60.7611 185.253 57.4429 179.313 56.6477 173.32C54.4732 156.842 56.0145 140.433 56.1569 123.871C56.2011 119.139 56.1569 114.412 56.5741 109.636C56.5888 136.81 54.3505 166.046 64.1284 190.441Z" fill="#4A4700"/>
<path id="Vector_5" d="M35.6243 107.589C35.1678 112.945 34.4561 118.29 34.3039 123.655C33.8376 140.222 32.0705 153.067 31.6336 169.639C31.5011 174.763 32.5172 183.604 32.1245 188.723C32.0474 189.386 31.7581 190.006 31.2998 190.49C28.8946 162.678 32.8313 135.185 35.6243 107.589Z" fill="#4A4700"/>
<path id="Vector_6" d="M24.369 189.627C24.1333 164.372 21.7085 148.247 27.805 112.12C23.5983 137.826 26.3717 163.444 24.369 189.627Z" fill="#4A4700"/>
<path id="Vector_7" d="M47.5816 195.571C41.7649 171.906 45.9225 130.326 47.5816 106.392C47.3901 110.093 46.6931 131.7 46.4379 135.401C45.3923 150.441 45.0536 162.752 46.4379 177.743C46.8845 182.754 47.5816 190.515 47.5816 195.571Z" fill="#4A4700"/>
<path id="Vector_8" d="M39.934 194.658C38.2405 178.356 40.0763 141.846 40.8273 125.609C41.1709 142.651 40.7046 177.326 39.934 194.658Z" fill="#4A4700"/>
<path id="Vector_9" d="M72.9246 191.781C69.8273 193.686 67.2355 196.405 62.8816 195.782C61.09 195.526 59.0088 197.136 57.0846 197.966C54.9396 198.899 52.9123 200.258 50.7035 200.788C48.0037 201.432 46.7766 200.357 45.7949 197.735C45.5347 197.038 44.98 196.444 44.7346 195.374C45.5151 195.914 46.6981 196.282 47.0024 197.024C47.773 198.771 49.0247 198.835 50.4089 198.334C51.6197 197.88 52.7651 197.267 53.8155 196.513C57.2515 194.118 60.604 192.39 65.1543 193.175C67.5644 193.597 70.3181 192.302 72.9246 191.781Z" fill="#4A4700"/>
<path id="Vector_10" d="M50.7526 41.2205C51.214 38.2115 51.4594 35.1535 52.181 32.2132C53.4425 27.0887 55.0525 22.0525 56.3876 16.9427C56.7901 15.4161 56.7508 13.7717 56.9865 11.4941C60.4225 22.9115 52.6816 22.7495 51.695 41.4365L50.7526 41.2205Z" fill="#4A4700"/>
<path id="Vector_11" d="M24.6437 39.9835C22.0471 31.3248 16.7655 23.3532 18.3559 13.7324C18.6504 22.936 25.0463 30.6277 24.6437 39.9835Z" fill="#4A4700"/>
<path id="Vector_12" d="M38.3043 14.2235C42.83 9.12349 49.5106 7.1846 55.2046 9.31492C49.6628 10.9298 48.3571 7.0717 38.3043 14.2235Z" fill="#4A4700"/>
<path id="Vector_13" d="M36.9104 15.3082C24.4524 6.53657 25.2574 11.131 19.2395 8.96632C26.4846 7.78335 32.0313 10.6843 36.9104 15.3082Z" fill="#4A4700"/>
<path id="Vector_14" d="M36.9398 37.7844C34.5935 32.4733 35.2267 26.8432 35.3101 21.267L36.0218 21.1885L37.9166 37.6764L36.9398 37.7844Z" fill="#4A4700"/>
<path id="Vector_15" d="M39.5511 37.3426L46.9876 22.126C47.0318 26.5781 43.4829 34.3974 40.3954 37.642L39.5511 37.3426Z" fill="#4A4700"/>
<path id="Vector_16" d="M17.7668 192.351C20.7954 196.96 25.1592 195.188 29.8861 194.918C26.6612 196.911 23.8191 197.568 20.7954 197.176C18.1743 196.822 18.3853 194.397 17.7668 192.351Z" fill="#4A4700"/>
<path id="Vector_17" d="M25.5567 26.4263L32.3404 38.0105L31.7317 38.3688C27.8049 35.4531 26.3323 31.0894 24.9775 26.6766L25.5567 26.4263Z" fill="#4A4700"/>
<path id="Vector_18" d="M30.8237 196.297C34.6622 198.486 38.3682 197.485 42.4325 196.268C38.3289 200.381 32.9639 200.356 30.8237 196.297Z" fill="#4A4700"/>
<path id="Vector_19" d="M35.266 38.7663C32.095 35.7672 31.2409 31.8403 31.2802 27.5649C32.779 31.1646 34.2744 34.7789 35.7667 38.408L35.266 38.7663Z" fill="#4A4700"/>
<path id="Vector_20" d="M49.2112 29.322L43.2571 38.3636L42.2361 37.6863L48.3473 28.6201L49.2112 29.322Z" fill="#4A4700"/>
<path id="Vector_21" d="M51.2875 32.4832L45.2843 39.5074L44.4155 38.7368L50.6102 31.8647L51.2875 32.4832Z" fill="#4A4700"/>
<path id="Vector_22" d="M16.3041 0.999475C16.7213 0.410445 18.4491 8.91701 17.5459 8.29853C16.8924 5.9124 16.4764 3.46749 16.3041 0.999475Z" fill="#4A4700"/>
<path id="Vector_23" d="M57.5902 8.52449L60.4323 1.16162L61.3404 1.51504L58.4934 8.87791L57.5902 8.52449Z" fill="#4A4700"/>
</g>
<defs>
<clipPath id="clip0_27_1426">
<rect width="75.3663" height="200" fill="white" transform="translate(0.316895 0.970215)"/>
</clipPath>
</defs>
</svg>
