<svg width="68" height="201" viewBox="0 0 68 201" fill="none" xmlns="http://www.w3.org/2000/svg">
<g id="Capa_1" clip-path="url(#clip0_27_1419)">
<path id="Vector" d="M6.10855 9.65115C7.09223 9.16142 8.1016 8.72511 9.13228 8.34412C12.0585 7.42724 15.1261 6.80787 17.9742 5.67641C20.7395 4.57909 23.3097 2.98919 26.2602 1.45782C27.2844 2.43322 28.5036 3.56955 29.7473 4.70589C32.0151 6.78836 33.2489 6.80299 35.6582 4.78392C37.1505 3.53542 38.638 2.27715 40.1401 1.03353C40.2474 0.94574 40.4474 0.970125 40.3986 0.979879C45.9632 5.07166 51.9668 7.80765 58.6678 8.67575C62.1158 9.12443 64.0324 10.7241 65.0566 14.0014C67.0074 20.122 67.9828 26.267 67.1001 32.7095C66.7001 35.5918 66.8513 38.5619 66.7977 41.4881C66.5311 57.1692 66.271 72.847 66.0174 88.5216C65.9686 91.1455 64.8371 92.4232 62.2279 92.6232C60.3747 92.7646 58.5068 92.6232 56.3171 92.6232C56.122 94.3886 55.8293 96.12 55.7562 97.8611C55.4002 106.547 55.0588 115.233 54.7808 123.924C54.2541 141.455 53.7583 158.989 53.2933 176.527C53.0982 183.584 52.9812 190.646 52.8056 197.703C52.788 198.328 52.5575 198.928 52.1521 199.405C50.3232 201.253 44.1002 201.546 42.247 199.78C41.7251 199.292 41.6276 198.176 41.5886 197.342C41.2179 189.387 41.1009 181.413 40.5205 173.479C39.2671 156.96 37.7065 140.461 36.3848 123.948C35.9849 118.934 36.1605 113.872 35.6679 108.873C35.4046 106.201 34.278 103.616 33.5416 100.992L32.8051 101.046C32.6832 102.509 32.493 103.948 32.4589 105.401C31.7728 131.151 31.1063 156.902 30.4593 182.652C30.3374 187.607 30.4008 192.567 30.5227 197.522C30.5617 199.166 30.1569 199.8 28.4207 199.961C19.7007 200.717 19.569 200.448 18.9887 191.67C18.1108 178.39 16.8964 165.134 15.8966 151.864C15.2821 143.685 15.009 135.472 14.2092 127.313C13.1119 116.164 11.6927 105.05 10.3076 93.9302C10.2296 93.3303 9.064 92.3696 8.4495 92.4037C1.31448 92.7792 1.13403 91.1016 1.03649 84.542C0.80565 66.4354 0.651213 48.3191 0.573181 30.193C0.573181 25.8378 0.573181 21.4144 1.27059 17.1422C1.75829 14.1526 2.59225 10.8021 6.17195 9.58287C4.8064 12.1238 2.81659 14.5232 2.23135 17.2251C1.40227 21.0486 1.38764 25.0965 1.39251 29.0469C1.4169 46.6772 1.55833 64.3074 1.69976 81.9377C1.69976 84.6688 1.9875 87.3999 2.14357 90.1506C4.21628 90.1506 5.9915 90.092 7.76185 90.1506C9.16642 90.214 9.7419 89.6872 10.0053 88.2729C10.8587 83.6447 11.8975 79.0554 12.7998 74.4369C14.019 68.2237 15.4187 61.9811 10.9953 56.1483L13.0534 57.4309L13.7995 56.9773L9.86382 48.1988L10.1126 48.0817L12.1901 51.3542C12.9363 46.7259 13.6289 42.2586 13.2777 37.8742C12.9266 33.4898 11.6488 29.281 10.532 25.0478C9.41514 20.8145 8.01545 16.7569 6.73768 12.592C7.6109 13.5413 8.28868 14.6533 8.73237 15.8644C12.9558 30.4515 17.3597 45.0092 15.7503 60.5327C15.5114 62.8443 14.8579 66.1119 16.0478 67.3214C17.5109 68.8333 20.6956 68.7504 23.1682 69.1844C24.6313 69.438 26.0261 69.4868 25.8701 71.4815C25.6457 74.2906 24.7386 75.4708 22.5635 75.2172C19.7836 74.8954 17.0476 74.2419 14.0288 73.6712C12.9753 78.4653 11.8585 83.4252 10.8539 88.3997C10.7758 88.7899 11.3757 89.5799 11.8292 89.7701C15.9503 91.4771 20.1201 93.0524 24.2509 94.7447C26.3724 95.6176 27.5282 95.1153 28.1525 92.7939C29.7131 87 31.4737 81.2598 33.0295 75.4708C33.2608 74.3603 33.2921 73.2175 33.1221 72.096C32.6686 67.458 30.6836 62.9711 31.8102 58.1576C31.9224 57.6699 31.4054 56.9627 31.0153 56.4848C22.305 45.7505 18.4912 33.1582 17.7938 19.566C17.5695 15.1768 16.7501 10.6168 18.9935 6.72008L6.10855 9.65115ZM32.059 98.7682H32.8441C34.7559 102.743 36.7457 106.61 36.8335 111.297C36.9262 117.549 37.3993 123.797 37.8382 130.035C39.3452 151.493 40.9546 172.952 42.4225 194.411C42.7981 199.878 42.9102 200.165 48.3578 199.995C49.1632 200 49.9529 199.772 50.6305 199.336C51.3008 198.849 51.7541 198.119 51.8936 197.303C52.0985 191.626 52.2399 185.944 52.2643 180.267C52.3667 154.756 53.3226 129.274 54.6247 103.801C54.8393 99.6216 55.1905 95.4518 55.4928 91.0089C54.6394 91.4722 53.981 91.9063 53.2641 92.2086C49.538 93.7693 45.8218 95.3543 42.047 96.8076C39.9743 97.6026 38.4868 97.1393 37.9503 94.6081C37.1164 90.648 36.0386 86.7415 35.1217 82.7961C34.6779 80.9038 34.3658 78.9774 33.9951 77.0656C33.5304 77.4899 33.2184 78.0556 33.1075 78.675C31.7566 83.5179 30.4593 88.3753 29.0401 93.1987C28.0013 96.7198 27.5282 96.9783 23.9973 95.7786C20.8565 94.7056 17.7889 93.4181 14.692 92.2135C13.5362 91.7648 12.3901 91.2918 10.8392 90.6675C10.9611 92.1599 11.0002 93.106 11.1172 94.0521C12.3413 103.962 13.7654 113.848 14.7554 123.802C15.9357 135.594 16.8525 147.416 17.6816 159.238C18.4619 170.255 18.9789 181.287 19.6324 192.309C19.7191 193.927 19.9015 195.54 20.1786 197.137C20.2521 197.598 20.4397 198.033 20.7244 198.402C21.0091 198.772 21.3818 199.064 21.8085 199.253C22.2352 199.441 22.7023 199.52 23.1673 199.482C23.6322 199.444 24.0802 199.29 24.4704 199.034C24.6393 198.97 24.8198 198.941 25.0003 198.95C25.1808 198.96 25.3574 199.006 25.5189 199.088C25.963 199.327 26.4633 199.443 26.9675 199.423C27.4717 199.404 27.9613 199.249 28.3853 198.975C28.8093 198.702 29.1522 198.32 29.378 197.868C29.6038 197.417 29.7044 196.914 29.6692 196.41C29.601 193.894 29.4693 191.372 29.5424 188.856C29.9423 174.966 30.4691 161.081 30.8056 147.192C31.1177 134.438 31.2152 121.68 31.4737 108.922C31.5176 105.537 31.8492 102.153 32.059 98.7682ZM42.247 3.59882C42.8322 4.98875 43.1541 5.71055 43.4418 6.44697C45.5487 11.8458 47.4409 17.308 46.7435 23.2287C45.4414 34.3823 41.9104 44.741 35.2436 53.8951C33.0782 56.8749 32.1711 60.201 32.8393 63.7954C34.7169 73.92 36.7409 84.0202 38.6526 94.1399C39.0087 96.0468 40.0377 96.6711 41.7105 95.9932C45.973 94.2667 50.2501 92.5354 54.3906 90.5212C55.2929 90.0823 56.2244 88.3948 56.1122 87.3999C55.5806 82.6985 54.6881 78.041 53.9029 73.2274C52.2838 73.9444 51.1426 74.5881 49.9185 74.9539C48.6671 75.2963 47.3874 75.5248 46.0949 75.6367C42.1933 76.0854 42.2567 76.0366 41.096 72.2764C40.5546 70.5158 41.096 70.0379 42.7737 69.7258C45.4755 69.2381 48.1384 68.409 50.7963 67.775C52.2106 67.4385 52.7861 66.8288 52.4594 65.2048C52.1017 62.9607 51.8591 60.6996 51.7327 58.4307C51.0597 51.2566 53.1958 44.4289 54.2395 37.4597C55.3904 29.6565 56.7267 21.9167 59.6627 14.5379C59.9358 13.86 60.2576 13.2016 60.5551 12.5334C56.6828 25.355 53.82 38.1717 55.1515 52.1784L58.1654 48.945C57.7558 50.5202 56.8243 51.6419 56.1464 52.9002C55.4837 54.2945 54.8975 55.724 54.3906 57.1822L59.5163 55.7191C59.3359 56.2751 59.3359 56.3824 59.2871 56.4116C59.0214 56.5986 58.733 56.751 58.4288 56.8652C55.2197 57.7089 53.9029 59.8645 54.2443 63.0492C54.8491 68.6821 55.527 74.3052 56.1951 79.9284C56.5902 83.2643 57.0145 86.6001 57.4436 90.0676H64.9493C65.0273 89.4629 65.1102 89.0679 65.12 88.668C65.3964 75.2107 65.6646 61.747 65.9247 48.2768C66.0369 42.9999 65.993 37.7084 66.4124 32.451C66.9001 25.9451 66.3685 19.6538 64.0714 13.5235C63.3643 11.6361 62.2767 10.1096 60.1991 9.93401C53.8786 9.41705 48.2847 6.92004 42.247 3.59882ZM34.6291 12.9675C32.2345 12.2798 31.4396 12.7236 31.1665 14.6208C29.5814 25.6818 29.5863 36.7671 30.5812 47.8623C30.7714 49.9447 31.5859 51.9736 32.1126 54.0268L32.8783 53.978C33.8 50.8958 35.4924 47.8135 35.5021 44.7117C35.5265 34.1336 34.9656 23.531 34.6291 12.9675ZM23.5633 4.73027C20.5151 6.19337 18.9448 8.32949 18.7936 12.075C18.2425 25.6769 20.9882 38.5229 27.8843 50.3788C28.7767 51.9102 29.8887 53.305 30.9031 54.7681C30.4204 52.1091 29.6738 49.505 28.6743 46.9942C25.2834 37.7702 23.2767 28.0951 22.7195 18.2834C22.4318 13.7381 23.256 9.12931 23.5633 4.73027ZM28.5183 44.2338L29.2303 44.1021C29.2636 43.8694 29.2831 43.6349 29.2888 43.3998C28.8011 33.9092 28.3134 24.4284 30.2642 15.0109C30.5799 13.7343 30.5175 12.3934 30.0845 11.1517C29.6515 9.90994 28.8667 8.82093 27.8257 8.01736C24.4119 8.99275 23.3389 11.3581 23.6754 14.4403C24.3436 20.6341 24.9581 26.8522 25.9335 33.0168C26.4943 36.8013 27.6307 40.5029 28.5183 44.2387V44.2338ZM41.1204 5.1058C44.7293 21.6875 40.8034 37.1719 34.4877 52.3247C43.554 41.0004 50.4939 18.5272 41.1204 5.1058ZM36.1751 9.50484C35.8142 10.7875 34.99 12.2896 35.0583 13.7429C35.2875 18.5175 35.9118 23.2725 36.258 28.0422C36.5604 32.2657 36.6872 36.4989 36.9164 41.2101C40.035 33.3927 41.4932 25.0121 41.1984 16.6008C41.1058 13.3284 41.4081 10.0169 36.1751 9.50484ZM42.1689 71.6863L41.5398 72.413C42.4177 73.3152 43.3492 75.0222 44.1636 74.9685C46.644 74.7273 49.0858 74.1852 51.4352 73.3542C53.8249 72.5934 54.0834 70.8621 53.0543 68.8772L42.1689 71.6863ZM15.1358 69.2478C13.6727 72.0179 14.7847 73.2226 17.2378 73.7298C18.4961 73.9931 19.7202 74.4662 20.9882 74.6027C24.168 74.9588 24.6313 74.4759 24.8313 71.0035C23.2511 70.7841 21.6564 70.6231 20.086 70.3354C18.4327 69.9842 16.8038 69.5697 15.1358 69.1991V69.2478ZM29.1962 7.37847L28.7085 8.23682C30.235 9.34877 31.6347 10.8314 33.3514 11.363C33.8878 11.5337 35.2241 9.14882 36.1898 7.94908L35.6338 7.39798L29.1962 7.37847ZM14.8188 44.0875H14.2287V59.5963H14.8237L14.8188 44.0875ZM35.863 6.04706L39.233 9.73893L39.945 9.3L40.5205 1.98454L35.863 6.04706ZM24.3533 8.59284L29.7473 5.73006L25.9335 2.22351C25.3629 4.4913 24.9288 6.24214 24.3533 8.57333V8.59284ZM53.503 48.0232H53.1031V60.5034H53.503V48.0232Z" fill="#4A4700"/>
<path id="Vector_2" d="M24.5679 151.279V189.592H24.4167V151.289L24.5679 151.279Z" fill="#4A4700"/>
<path id="Vector_3" d="M46.2851 149.455C46.5322 155.125 46.7842 160.798 47.041 166.475H46.4704V149.459L46.2851 149.455Z" fill="#4A4700"/>
<path id="Vector_4" d="M47.358 170.562V185.588H47.1386V170.328L47.358 170.562Z" fill="#4A4700"/>
</g>
<defs>
<clipPath id="clip0_27_1419">
<rect width="66.8536" height="200" fill="white" transform="translate(0.573181 0.970215)"/>
</clipPath>
</defs>
</svg>
