<svg width="100" height="64" viewBox="0 0 100 64" fill="none" xmlns="http://www.w3.org/2000/svg">
<g id="Capa_1" clip-path="url(#clip0_249_1942)">
<path id="Vector" d="M34.7637 20.9956C38.318 29.0762 40.6691 31.104 52.4002 37.0702C49.7729 35.9264 47.0473 34.9619 44.5304 33.5956C40.1535 31.2215 36.329 28.1735 34.8926 23.0544C34.7908 22.3813 34.7722 21.698 34.8373 21.0203L34.7637 20.9956Z" fill="#4A4700"/>
<path id="Vector_2" d="M84.8987 38.1457L95.4082 32.6865L95.7397 33.2615L85.3714 39.0113L84.8987 38.1457Z" fill="#4A4700"/>
<path id="Vector_3" d="M72.8729 56.854C73.4315 49.6204 72.9466 49.5153 67.0595 50.0532C67.7102 49.8183 70.9269 48.9465 71.8109 48.625C72.302 48.4643 71.0006 47.6482 69.9693 45.7749C71.0129 46.9558 73.1185 48.3777 74.8312 48.5199C74.07 49.8121 73.0509 54.8076 72.8729 56.854Z" fill="#4A4700"/>
<path id="Vector_4" d="M56.1918 53.4099C56.1918 52.1734 56.1366 51.2708 54.5221 50.8133C51.0782 49.8302 47.7326 48.4701 44.3502 47.2645C40.8204 43.8455 37.2906 40.4328 33.8345 37.0757C30.581 39.6971 27.3582 42.9367 23.5706 45.2057C16.8425 49.2429 9.91188 53.7561 1.72895 48.5628C7.46867 54.6897 13.945 51.1409 20.2925 49.756C15.1544 52.5135 9.8198 54.0405 3.7977 52.5938C4.97319 54.1562 6.36917 55.5372 7.94135 56.6928C15.9831 62.0902 24.0064 60.1489 31.6553 55.9448C36.1611 53.4717 40.1758 50.1023 44.4116 47.1408C36.9346 55.3636 28.0703 61.1752 16.6584 61.2494C6.54786 61.3174 -0.652882 52.9895 0.0469342 42.7945C0.501201 36.1174 3.1163 30.1883 6.91004 24.8652C14.2765 14.4167 23.5399 6.28048 35.8726 2.10109C43.1838 -0.371925 49.0279 1.19226 54.0739 6.97911C54.872 7.89412 56.6584 8.40109 57.9536 8.33926C68.3404 7.86321 78.3588 9.13063 87.6713 14.1261C89.027 14.8439 90.3316 15.6558 91.5755 16.5558C97.2293 20.692 100.784 26.0522 99.8566 33.3476C98.9113 40.9336 94.4668 46.0774 87.6283 49.1192C85.0193 50.2754 82.2692 51.1162 79.4453 52.1487C79.3594 53.3852 79.2489 54.6897 79.1752 56.0128C78.8315 61.8243 77.2231 63.6111 71.3238 63.9079C68.0608 64.0481 64.7919 63.8908 61.5571 63.438C56.996 62.8197 54.8781 58.5785 56.2593 53.3048C57.1986 55.7469 55.6455 59.339 59.5804 60.4209L57.3827 52.2105L56.1918 53.4099ZM10.7652 45.7992C11.0721 44.0125 10.9862 42.0341 11.7474 40.4699C18.5245 26.5839 28.8499 16.4136 43.1531 10.429C43.767 10.1631 44.3809 9.85398 44.9948 9.56959L44.608 8.59275L34.915 12.1601L34.5098 11.1647L43.9266 6.83691L43.7609 6.24957L37.9168 7.00384L41.4527 5.14908L41.0291 4.23406L27.395 10.4166L27.2231 10.0704C30.3539 8.30629 33.4949 6.5319 36.6461 4.74721C35.0144 4.77272 33.4134 5.19706 31.9806 5.98372C27.174 8.87714 22.1587 11.548 17.7817 15.0164C9.94872 21.2298 3.89592 28.9147 1.5632 39.0108C0.611698 43.2149 2.45332 47.3263 6.26547 48.3712C7.22926 48.6308 9.72772 49.9662 10.5626 47.3263C11.4773 47.5427 12.4963 48.1486 13.282 47.9446C20.6485 45.8178 26.6645 41.5271 31.9377 36.0803C32.441 35.5609 33.0488 34.5656 32.8646 34.0524C30.8941 28.5438 31.3054 23.2144 33.6442 17.848C23.6135 25.2547 14.7308 33.4651 10.7529 45.7992H10.7652ZM34.7615 20.9825H34.8352C34.3686 21.2546 33.6074 21.4339 33.4846 21.8048C32.3919 25.774 32.3551 29.7556 34.2827 33.4774C39.0095 42.5843 46.5908 47.858 56.3821 50.0899C57.2293 48.7607 67.0021 41.354 67.4318 40.6739C68.942 41.0758 59.4146 47.7776 60.6178 48.0929C61.7351 48.8348 64.6755 49.5829 65.8972 50.4052C63.3066 50.0652 58.9297 49.1069 58.9297 51.1966C59.8014 54.0776 59.7891 55.2461 60.4644 58.4549C61.3177 62.5539 64.2949 62.3684 67.2661 62.3993C68.721 62.3993 70.1759 62.3066 71.5632 62.2571L72.6436 60.1118C73.3864 62.424 74.8597 62.5292 76.2716 60.9588C78.7762 58.1828 78.6534 54.7392 77.7449 51.4253C77.4257 50.2692 76.0629 49.3975 75.0377 48.2413C74.6878 48.6123 74.8597 48.3526 75.0991 48.198C75.6504 47.9107 76.2182 47.6568 76.7995 47.4376L68.6964 40.8161C70.959 41.5914 73.0458 42.8125 74.8352 44.4082C76.6215 46.1454 77.9045 48.3959 79.4208 50.4361C96.7198 47.7034 102.134 34.1142 96.8732 25.2176C96.2593 29.5083 93.5706 32.1853 90.0347 33.7371C73.8223 40.8594 58.1132 38.8995 43.1224 30.2069C38.5245 27.5422 35.2956 23.5916 35.9585 17.5512L34.7615 20.9825ZM93.8468 26.6519L94.5958 27.0847C94.9579 26.5345 95.7498 25.7555 95.6086 25.4772C94.3379 23.097 93.4232 20.1108 91.4343 18.6084C81.1642 10.8494 69.4576 9.03171 56.8916 10.9545C57.3889 14.1508 57.837 17.0257 58.2913 19.9191C70.4951 20.5869 82.6989 21.0011 92.2937 31.8576C92.0666 29.9348 91.9561 28.9889 91.8272 27.8946L93.7793 29.397C94.0187 29.0384 94.2397 28.8591 94.2151 28.7045C94.1292 28.0244 93.9757 27.3382 93.8468 26.6519ZM90.9432 31.6783C80.7406 23.4246 69.4576 22.8806 58.2237 22.4725C57.2784 26.2624 56.4742 29.6072 55.5534 33.1992C67.2415 36.0308 78.7026 36.7727 90.9432 31.6783ZM46.8609 4.92032L46.0813 5.0007C48.5368 12.8216 45.4674 19.5235 41.7842 26.5963L53.3496 32.8283C58.7455 22.2561 56.1857 9.07498 48.5859 5.99608C48.7946 7.98686 49.0034 10.0395 49.1998 12.0859L48.8929 12.1477L46.8609 4.92032ZM41.7781 17.3163L41.9315 17.5883L38.0948 20.6796C41.244 20.2777 44.344 19.8388 44.2336 15.3317L38.2299 17.9036L38.457 18.5219L41.7781 17.3163Z" fill="#4A4700"/>
</g>
<defs>
<clipPath id="clip0_249_1942">
<rect width="100" height="63" fill="white" transform="translate(0 0.970215)"/>
</clipPath>
</defs>
</svg>
